%TF.GenerationSoftware,KiCad,Pcbnew,5.1.9+dfsg1-1~bpo10+1*%
%TF.CreationDate,2021-03-22T18:02:22+01:00*%
%TF.ProjectId,stduinof429,73746475-696e-46f6-9634-32392e6b6963,rev?*%
%TF.SameCoordinates,Original*%
%TF.FileFunction,Other,User*%
%FSLAX46Y46*%
G04 Gerber Fmt 4.6, Leading zero omitted, Abs format (unit mm)*
G04 Created by KiCad (PCBNEW 5.1.9+dfsg1-1~bpo10+1) date 2021-03-22 18:02:22*
%MOMM*%
%LPD*%
G01*
G04 APERTURE LIST*
%ADD10C,0.300000*%
G04 APERTURE END LIST*
D10*
X79469428Y-93936428D02*
X79469428Y-93222142D01*
X78755142Y-93150714D01*
X78826571Y-93222142D01*
X78898000Y-93365000D01*
X78898000Y-93722142D01*
X78826571Y-93865000D01*
X78755142Y-93936428D01*
X78612285Y-94007857D01*
X78255142Y-94007857D01*
X78112285Y-93936428D01*
X78040857Y-93865000D01*
X77969428Y-93722142D01*
X77969428Y-93365000D01*
X78040857Y-93222142D01*
X78112285Y-93150714D01*
X79469428Y-95293571D02*
X79469428Y-95007857D01*
X79398000Y-94865000D01*
X79326571Y-94793571D01*
X79112285Y-94650714D01*
X78826571Y-94579285D01*
X78255142Y-94579285D01*
X78112285Y-94650714D01*
X78040857Y-94722142D01*
X77969428Y-94865000D01*
X77969428Y-95150714D01*
X78040857Y-95293571D01*
X78112285Y-95365000D01*
X78255142Y-95436428D01*
X78612285Y-95436428D01*
X78755142Y-95365000D01*
X78826571Y-95293571D01*
X78898000Y-95150714D01*
X78898000Y-94865000D01*
X78826571Y-94722142D01*
X78755142Y-94650714D01*
X78612285Y-94579285D01*
X78040857Y-96150714D02*
X77969428Y-96150714D01*
X77826571Y-96079285D01*
X77755142Y-96007857D01*
X79469428Y-97079285D02*
X79469428Y-97222142D01*
X79398000Y-97365000D01*
X79326571Y-97436428D01*
X79183714Y-97507857D01*
X78898000Y-97579285D01*
X78540857Y-97579285D01*
X78255142Y-97507857D01*
X78112285Y-97436428D01*
X78040857Y-97365000D01*
X77969428Y-97222142D01*
X77969428Y-97079285D01*
X78040857Y-96936428D01*
X78112285Y-96865000D01*
X78255142Y-96793571D01*
X78540857Y-96722142D01*
X78898000Y-96722142D01*
X79183714Y-96793571D01*
X79326571Y-96865000D01*
X79398000Y-96936428D01*
X79469428Y-97079285D01*
X79469428Y-98507857D02*
X79469428Y-98650714D01*
X79398000Y-98793571D01*
X79326571Y-98865000D01*
X79183714Y-98936428D01*
X78898000Y-99007857D01*
X78540857Y-99007857D01*
X78255142Y-98936428D01*
X78112285Y-98865000D01*
X78040857Y-98793571D01*
X77969428Y-98650714D01*
X77969428Y-98507857D01*
X78040857Y-98365000D01*
X78112285Y-98293571D01*
X78255142Y-98222142D01*
X78540857Y-98150714D01*
X78898000Y-98150714D01*
X79183714Y-98222142D01*
X79326571Y-98293571D01*
X79398000Y-98365000D01*
X79469428Y-98507857D01*
X79469428Y-99936428D02*
X79469428Y-100079285D01*
X79398000Y-100222142D01*
X79326571Y-100293571D01*
X79183714Y-100365000D01*
X78898000Y-100436428D01*
X78540857Y-100436428D01*
X78255142Y-100365000D01*
X78112285Y-100293571D01*
X78040857Y-100222142D01*
X77969428Y-100079285D01*
X77969428Y-99936428D01*
X78040857Y-99793571D01*
X78112285Y-99722142D01*
X78255142Y-99650714D01*
X78540857Y-99579285D01*
X78898000Y-99579285D01*
X79183714Y-99650714D01*
X79326571Y-99722142D01*
X79398000Y-99793571D01*
X79469428Y-99936428D01*
X77969428Y-102222142D02*
X78969428Y-102222142D01*
X78826571Y-102222142D02*
X78898000Y-102293571D01*
X78969428Y-102436428D01*
X78969428Y-102650714D01*
X78898000Y-102793571D01*
X78755142Y-102865000D01*
X77969428Y-102865000D01*
X78755142Y-102865000D02*
X78898000Y-102936428D01*
X78969428Y-103079285D01*
X78969428Y-103293571D01*
X78898000Y-103436428D01*
X78755142Y-103507857D01*
X77969428Y-103507857D01*
X77969428Y-104222142D02*
X78969428Y-104222142D01*
X78826571Y-104222142D02*
X78898000Y-104293571D01*
X78969428Y-104436428D01*
X78969428Y-104650714D01*
X78898000Y-104793571D01*
X78755142Y-104865000D01*
X77969428Y-104865000D01*
X78755142Y-104865000D02*
X78898000Y-104936428D01*
X78969428Y-105079285D01*
X78969428Y-105293571D01*
X78898000Y-105436428D01*
X78755142Y-105507857D01*
X77969428Y-105507857D01*
X79998000Y-71365000D02*
X79998000Y-127365000D01*
X86998000Y-71365000D02*
X77298000Y-71365000D01*
X86998000Y-127365000D02*
X77298000Y-127365000D01*
X79998000Y-127365000D02*
X79411579Y-126238496D01*
X79998000Y-127365000D02*
X80584421Y-126238496D01*
X79998000Y-71365000D02*
X79411579Y-72491504D01*
X79998000Y-71365000D02*
X80584421Y-72491504D01*
X127926571Y-66693571D02*
X128212285Y-66693571D01*
X128355142Y-66622142D01*
X128426571Y-66550714D01*
X128569428Y-66336428D01*
X128640857Y-66050714D01*
X128640857Y-65479285D01*
X128569428Y-65336428D01*
X128498000Y-65265000D01*
X128355142Y-65193571D01*
X128069428Y-65193571D01*
X127926571Y-65265000D01*
X127855142Y-65336428D01*
X127783714Y-65479285D01*
X127783714Y-65836428D01*
X127855142Y-65979285D01*
X127926571Y-66050714D01*
X128069428Y-66122142D01*
X128355142Y-66122142D01*
X128498000Y-66050714D01*
X128569428Y-65979285D01*
X128640857Y-65836428D01*
X129926571Y-65693571D02*
X129926571Y-66693571D01*
X129569428Y-65122142D02*
X129212285Y-66193571D01*
X130140857Y-66193571D01*
X130783714Y-66622142D02*
X130783714Y-66693571D01*
X130712285Y-66836428D01*
X130640857Y-66907857D01*
X131712285Y-65193571D02*
X131855142Y-65193571D01*
X131998000Y-65265000D01*
X132069428Y-65336428D01*
X132140857Y-65479285D01*
X132212285Y-65765000D01*
X132212285Y-66122142D01*
X132140857Y-66407857D01*
X132069428Y-66550714D01*
X131998000Y-66622142D01*
X131855142Y-66693571D01*
X131712285Y-66693571D01*
X131569428Y-66622142D01*
X131498000Y-66550714D01*
X131426571Y-66407857D01*
X131355142Y-66122142D01*
X131355142Y-65765000D01*
X131426571Y-65479285D01*
X131498000Y-65336428D01*
X131569428Y-65265000D01*
X131712285Y-65193571D01*
X133140857Y-65193571D02*
X133283714Y-65193571D01*
X133426571Y-65265000D01*
X133498000Y-65336428D01*
X133569428Y-65479285D01*
X133640857Y-65765000D01*
X133640857Y-66122142D01*
X133569428Y-66407857D01*
X133498000Y-66550714D01*
X133426571Y-66622142D01*
X133283714Y-66693571D01*
X133140857Y-66693571D01*
X132998000Y-66622142D01*
X132926571Y-66550714D01*
X132855142Y-66407857D01*
X132783714Y-66122142D01*
X132783714Y-65765000D01*
X132855142Y-65479285D01*
X132926571Y-65336428D01*
X132998000Y-65265000D01*
X133140857Y-65193571D01*
X134569428Y-65193571D02*
X134712285Y-65193571D01*
X134855142Y-65265000D01*
X134926571Y-65336428D01*
X134998000Y-65479285D01*
X135069428Y-65765000D01*
X135069428Y-66122142D01*
X134998000Y-66407857D01*
X134926571Y-66550714D01*
X134855142Y-66622142D01*
X134712285Y-66693571D01*
X134569428Y-66693571D01*
X134426571Y-66622142D01*
X134355142Y-66550714D01*
X134283714Y-66407857D01*
X134212285Y-66122142D01*
X134212285Y-65765000D01*
X134283714Y-65479285D01*
X134355142Y-65336428D01*
X134426571Y-65265000D01*
X134569428Y-65193571D01*
X136855142Y-66693571D02*
X136855142Y-65693571D01*
X136855142Y-65836428D02*
X136926571Y-65765000D01*
X137069428Y-65693571D01*
X137283714Y-65693571D01*
X137426571Y-65765000D01*
X137498000Y-65907857D01*
X137498000Y-66693571D01*
X137498000Y-65907857D02*
X137569428Y-65765000D01*
X137712285Y-65693571D01*
X137926571Y-65693571D01*
X138069428Y-65765000D01*
X138140857Y-65907857D01*
X138140857Y-66693571D01*
X138855142Y-66693571D02*
X138855142Y-65693571D01*
X138855142Y-65836428D02*
X138926571Y-65765000D01*
X139069428Y-65693571D01*
X139283714Y-65693571D01*
X139426571Y-65765000D01*
X139498000Y-65907857D01*
X139498000Y-66693571D01*
X139498000Y-65907857D02*
X139569428Y-65765000D01*
X139712285Y-65693571D01*
X139926571Y-65693571D01*
X140069428Y-65765000D01*
X140140857Y-65907857D01*
X140140857Y-66693571D01*
X86998000Y-67365000D02*
X180998000Y-67365000D01*
X86998000Y-71365000D02*
X86998000Y-64665000D01*
X180998000Y-71365000D02*
X180998000Y-64665000D01*
X180998000Y-67365000D02*
X179871496Y-67951421D01*
X180998000Y-67365000D02*
X179871496Y-66778579D01*
X86998000Y-67365000D02*
X88124504Y-67951421D01*
X86998000Y-67365000D02*
X88124504Y-66778579D01*
M02*
