M48
;DRILL file {KiCad 4.0.2+dfsg1-stable} date Mon 14 Oct 2019 09:04:37 CEST
;FORMAT={-:-/ absolute / metric / decimal}
FMAT,2
METRIC,TZ
T1C0.400
T2C0.500
T3C0.550
T4C0.800
T5C0.800
T6C1.016
T7C3.000
%
G90
G05
M71
T1
X91.057Y-77.066
X91.51Y-76.167
X92.974Y-120.437
X94.257Y-96.2
X95.049Y-118.415
X95.461Y-82.588
X95.49Y-105.302
X96.888Y-98.095
X97.261Y-113.268
X98.637Y-95.753
X99.586Y-87.344
X101.838Y-90.89
X102.253Y-108.243
X102.538Y-106.305
X103.888Y-103.175
X105.693Y-113.171
X107.227Y-86.943
X111.516Y-82.728
X114.667Y-92.244
X115.303Y-95.961
X115.651Y-86.286
X117.335Y-122.958
X119.096Y-119.802
X119.246Y-83.239
X120.049Y-95.103
X120.895Y-119.616
X121.604Y-85.473
X122.989Y-84.087
X123.355Y-95.013
X124.672Y-120.875
X127.936Y-118.764
X128.499Y-115.09
X128.99Y-89.903
X129.787Y-115.425
X131.312Y-116.067
X132.048Y-114.428
X132.496Y-111.74
X133.192Y-74.028
X133.752Y-111.221
X133.866Y-113.15
X135.172Y-88.628
X135.472Y-86.365
X135.848Y-115.08
X136.47Y-89.712
X137.803Y-107.836
X138.327Y-93.756
X138.397Y-92.505
X138.453Y-111.38
X139.56Y-83.738
X139.612Y-110.661
X140.067Y-82.464
X140.479Y-77.821
X141.321Y-105.591
X141.471Y-116.499
X141.491Y-83.196
X141.525Y-108.477
X142.758Y-104.615
X142.85Y-102.93
X143.279Y-89.615
X143.362Y-112.87
X144.423Y-85.148
X145.442Y-104.266
X145.447Y-92.587
X145.459Y-102.269
X145.476Y-101.332
X145.585Y-106.615
X145.705Y-105.754
X145.903Y-97.482
X146.068Y-95.143
X146.136Y-94.114
X146.137Y-93.216
X146.302Y-101.813
X146.552Y-118.995
X146.658Y-103.775
X146.7Y-108.242
X146.717Y-96.322
X146.804Y-100.373
X146.804Y-101.183
X146.944Y-94.392
X147.227Y-77.105
X147.249Y-96.998
X147.254Y-102.903
X148.077Y-80.611
X148.11Y-89.139
X148.116Y-105.298
X148.379Y-92.575
X148.587Y-98.262
X148.724Y-95.573
X148.735Y-88.612
X148.792Y-110.906
X148.855Y-81.208
X148.993Y-100.542
X149.173Y-87.918
X149.388Y-109.4
X150.073Y-85.678
X150.201Y-113.047
X152.552Y-101.183
X152.745Y-110.905
X153.073Y-113.074
X153.146Y-85.335
X153.225Y-109.923
X153.442Y-115.847
X154.002Y-87.809
X155.238Y-110.685
X156.03Y-100.542
X156.441Y-91.433
X157.865Y-84.397
X157.877Y-85.67
X157.939Y-88.802
X158.18Y-91.979
X158.739Y-88.563
X158.785Y-102.269
X158.998Y-114.062
X159.083Y-108.177
X159.748Y-87.836
X160.445Y-110.571
X160.748Y-85.172
X160.795Y-89.374
X161.256Y-97.262
X161.365Y-89.941
X161.914Y-87.812
X163.11Y-89.427
X163.248Y-85.292
X164.883Y-87.827
X165.297Y-100.617
X165.386Y-85.673
X166.288Y-88.159
X168.557Y-91.115
X169.305Y-85.86
X170.709Y-92.269
X170.79Y-96.166
X171.052Y-94.615
X171.381Y-87.936
X172.168Y-80.779
X174.214Y-98.69
X174.303Y-104.365
X174.498Y-95.795
T4
X130.998Y-97.365
X130.998Y-102.245
T5
X119.998Y-124.365
T6
X98.918Y-112.365
X99.998Y-99.365
X99.998Y-101.905
X99.998Y-104.445
X101.458Y-112.365
X102.538Y-99.365
X102.538Y-101.905
X102.538Y-104.445
X103.998Y-112.365
X113.998Y-80.365
X116.538Y-80.365
X117.998Y-90.825
X117.998Y-93.365
X119.078Y-80.365
X121.618Y-80.365
X123.998Y-90.825
X123.998Y-93.365
X129.794Y-75.565
X132.334Y-75.565
X134.874Y-75.565
X137.414Y-75.565
X138.938Y-123.825
X139.954Y-75.565
X141.478Y-123.825
X142.494Y-75.565
X144.018Y-123.825
X145.034Y-75.565
X146.558Y-123.825
X147.574Y-75.565
X149.098Y-123.825
X150.114Y-75.565
X151.638Y-123.825
X152.654Y-75.565
X154.178Y-123.825
X156.718Y-75.565
X156.718Y-123.825
X159.258Y-75.565
X161.798Y-75.565
X161.798Y-123.825
X164.338Y-75.565
X164.338Y-123.825
X166.878Y-75.565
X166.878Y-123.825
X169.418Y-75.565
X169.418Y-123.825
X171.958Y-75.565
X171.958Y-123.825
X174.498Y-75.565
X174.498Y-123.825
X176.998Y-96.365
X176.998Y-98.905
X176.998Y-101.445
T7
X106.998Y-91.357
X124.968Y-124.333
X126.238Y-76.073
X177.038Y-91.313
X177.038Y-119.253
T2
X98.497Y-125.827G85X98.497Y-125.177
G05
X105.497Y-125.827G85X105.497Y-125.177
G05
T3
X99.347Y-122.802G85X99.647Y-122.802
G05
X104.347Y-122.802G85X104.647Y-122.802
G05
T0
M30
