%TF.GenerationSoftware,KiCad,Pcbnew,4.0.2+dfsg1-stable*%
%TF.CreationDate,2019-10-19T14:14:11+02:00*%
%TF.ProjectId,stduinof429,73746475696E6F663432392E6B696361,rev?*%
%TF.FileFunction,Legend,Top*%
%FSLAX46Y46*%
G04 Gerber Fmt 4.6, Leading zero omitted, Abs format (unit mm)*
G04 Created by KiCad (PCBNEW 4.0.2+dfsg1-stable) date Sat 19 Oct 2019 14:14:11 CEST*
%MOMM*%
G01*
G04 APERTURE LIST*
%ADD10C,0.100000*%
%ADD11C,0.150000*%
%ADD12C,0.300000*%
%ADD13C,0.350000*%
%ADD14C,0.200000*%
%ADD15C,0.120000*%
%ADD16C,0.381000*%
G04 APERTURE END LIST*
D10*
D11*
X144998000Y-85865000D02*
X170498000Y-85865000D01*
X143498000Y-87365000D02*
X144998000Y-85865000D01*
X143498000Y-112865000D02*
X143498000Y-87365000D01*
X170498000Y-85865000D02*
X170498000Y-112865000D01*
X170498000Y-112865000D02*
X143498000Y-112865000D01*
X123498000Y-71865000D02*
X111998000Y-71865000D01*
X123498000Y-88865000D02*
X123498000Y-71865000D01*
X111998000Y-88865000D02*
X123498000Y-88865000D01*
X111998000Y-71865000D02*
X111998000Y-88865000D01*
X97569428Y-115317381D02*
X97569428Y-114317381D01*
X98045618Y-115317381D02*
X98045618Y-114317381D01*
X98617047Y-115317381D01*
X98617047Y-114317381D01*
X98950380Y-114317381D02*
X99521809Y-114317381D01*
X99236094Y-115317381D02*
X99236094Y-114317381D01*
X102902762Y-114317381D02*
X102902762Y-115126905D01*
X102950381Y-115222143D01*
X102998000Y-115269762D01*
X103093238Y-115317381D01*
X103283715Y-115317381D01*
X103378953Y-115269762D01*
X103426572Y-115222143D01*
X103474191Y-115126905D01*
X103474191Y-114317381D01*
X103902762Y-115269762D02*
X104045619Y-115317381D01*
X104283715Y-115317381D01*
X104378953Y-115269762D01*
X104426572Y-115222143D01*
X104474191Y-115126905D01*
X104474191Y-115031667D01*
X104426572Y-114936429D01*
X104378953Y-114888810D01*
X104283715Y-114841190D01*
X104093238Y-114793571D01*
X103998000Y-114745952D01*
X103950381Y-114698333D01*
X103902762Y-114603095D01*
X103902762Y-114507857D01*
X103950381Y-114412619D01*
X103998000Y-114365000D01*
X104093238Y-114317381D01*
X104331334Y-114317381D01*
X104474191Y-114365000D01*
X105236096Y-114793571D02*
X105378953Y-114841190D01*
X105426572Y-114888810D01*
X105474191Y-114984048D01*
X105474191Y-115126905D01*
X105426572Y-115222143D01*
X105378953Y-115269762D01*
X105283715Y-115317381D01*
X104902762Y-115317381D01*
X104902762Y-114317381D01*
X105236096Y-114317381D01*
X105331334Y-114365000D01*
X105378953Y-114412619D01*
X105426572Y-114507857D01*
X105426572Y-114603095D01*
X105378953Y-114698333D01*
X105331334Y-114745952D01*
X105236096Y-114793571D01*
X104902762Y-114793571D01*
D12*
X93676571Y-119650715D02*
X92962286Y-120317382D01*
X93676571Y-120793573D02*
X92176571Y-120793573D01*
X92176571Y-120031668D01*
X92248000Y-119841192D01*
X92319429Y-119745953D01*
X92462286Y-119650715D01*
X92676571Y-119650715D01*
X92819429Y-119745953D01*
X92890857Y-119841192D01*
X92962286Y-120031668D01*
X92962286Y-120793573D01*
X93605143Y-118031668D02*
X93676571Y-118222144D01*
X93676571Y-118603096D01*
X93605143Y-118793573D01*
X93462286Y-118888811D01*
X92890857Y-118888811D01*
X92748000Y-118793573D01*
X92676571Y-118603096D01*
X92676571Y-118222144D01*
X92748000Y-118031668D01*
X92890857Y-117936430D01*
X93033714Y-117936430D01*
X93176571Y-118888811D01*
X92676571Y-117365001D02*
X92676571Y-116603096D01*
X92176571Y-117079287D02*
X93462286Y-117079287D01*
X93605143Y-116984048D01*
X93676571Y-116793572D01*
X93676571Y-116603096D01*
X93676571Y-115936430D02*
X92676571Y-115936430D01*
X92962286Y-115936430D02*
X92819429Y-115841191D01*
X92748000Y-115745953D01*
X92676571Y-115555477D01*
X92676571Y-115365001D01*
X93676571Y-114412620D02*
X93605143Y-114603096D01*
X93533714Y-114698335D01*
X93390857Y-114793573D01*
X92962286Y-114793573D01*
X92819429Y-114698335D01*
X92748000Y-114603096D01*
X92676571Y-114412620D01*
X92676571Y-114126906D01*
X92748000Y-113936430D01*
X92819429Y-113841192D01*
X92962286Y-113745954D01*
X93390857Y-113745954D01*
X93533714Y-113841192D01*
X93605143Y-113936430D01*
X93676571Y-114126906D01*
X93676571Y-114412620D01*
X92890857Y-112222144D02*
X92962286Y-111936430D01*
X93033714Y-111841191D01*
X93176571Y-111745953D01*
X93390857Y-111745953D01*
X93533714Y-111841191D01*
X93605143Y-111936430D01*
X93676571Y-112126906D01*
X93676571Y-112888811D01*
X92176571Y-112888811D01*
X92176571Y-112222144D01*
X92248000Y-112031668D01*
X92319429Y-111936430D01*
X92462286Y-111841191D01*
X92605143Y-111841191D01*
X92748000Y-111936430D01*
X92819429Y-112031668D01*
X92890857Y-112222144D01*
X92890857Y-112888811D01*
X93676571Y-110888811D02*
X92676571Y-110888811D01*
X92176571Y-110888811D02*
X92248000Y-110984049D01*
X92319429Y-110888811D01*
X92248000Y-110793572D01*
X92176571Y-110888811D01*
X92319429Y-110888811D01*
X92676571Y-110222144D02*
X92676571Y-109460239D01*
X92176571Y-109936430D02*
X93462286Y-109936430D01*
X93605143Y-109841191D01*
X93676571Y-109650715D01*
X93676571Y-109460239D01*
X93676571Y-106317382D02*
X93676571Y-107269763D01*
X92176571Y-107269763D01*
X93676571Y-104793572D02*
X92890857Y-104793572D01*
X92748000Y-104888810D01*
X92676571Y-105079286D01*
X92676571Y-105460238D01*
X92748000Y-105650715D01*
X93605143Y-104793572D02*
X93676571Y-104984048D01*
X93676571Y-105460238D01*
X93605143Y-105650715D01*
X93462286Y-105745953D01*
X93319429Y-105745953D01*
X93176571Y-105650715D01*
X93105143Y-105460238D01*
X93105143Y-104984048D01*
X93033714Y-104793572D01*
X93676571Y-103841191D02*
X92176571Y-103841191D01*
X92748000Y-103841191D02*
X92676571Y-103650714D01*
X92676571Y-103269762D01*
X92748000Y-103079286D01*
X92819429Y-102984048D01*
X92962286Y-102888810D01*
X93390857Y-102888810D01*
X93533714Y-102984048D01*
X93605143Y-103079286D01*
X93676571Y-103269762D01*
X93676571Y-103650714D01*
X93605143Y-103841191D01*
X94248000Y-99936428D02*
X94176571Y-100031666D01*
X93962286Y-100222142D01*
X93819429Y-100317380D01*
X93605143Y-100412618D01*
X93248000Y-100507857D01*
X92962286Y-100507857D01*
X92605143Y-100412618D01*
X92390857Y-100317380D01*
X92248000Y-100222142D01*
X92033714Y-100031666D01*
X91962286Y-99936428D01*
X93533714Y-98031666D02*
X93605143Y-98126904D01*
X93676571Y-98412619D01*
X93676571Y-98603095D01*
X93605143Y-98888809D01*
X93462286Y-99079285D01*
X93319429Y-99174524D01*
X93033714Y-99269762D01*
X92819429Y-99269762D01*
X92533714Y-99174524D01*
X92390857Y-99079285D01*
X92248000Y-98888809D01*
X92176571Y-98603095D01*
X92176571Y-98412619D01*
X92248000Y-98126904D01*
X92319429Y-98031666D01*
X94248000Y-97365000D02*
X94176571Y-97269762D01*
X93962286Y-97079285D01*
X93819429Y-96984047D01*
X93605143Y-96888809D01*
X93248000Y-96793571D01*
X92962286Y-96793571D01*
X92605143Y-96888809D01*
X92390857Y-96984047D01*
X92248000Y-97079285D01*
X92033714Y-97269762D01*
X91962286Y-97365000D01*
X92319429Y-94412619D02*
X92248000Y-94317381D01*
X92176571Y-94126904D01*
X92176571Y-93650714D01*
X92248000Y-93460238D01*
X92319429Y-93365000D01*
X92462286Y-93269761D01*
X92605143Y-93269761D01*
X92819429Y-93365000D01*
X93676571Y-94507857D01*
X93676571Y-93269761D01*
X92176571Y-92031666D02*
X92176571Y-91841190D01*
X92248000Y-91650714D01*
X92319429Y-91555476D01*
X92462286Y-91460238D01*
X92748000Y-91364999D01*
X93105143Y-91364999D01*
X93390857Y-91460238D01*
X93533714Y-91555476D01*
X93605143Y-91650714D01*
X93676571Y-91841190D01*
X93676571Y-92031666D01*
X93605143Y-92222142D01*
X93533714Y-92317380D01*
X93390857Y-92412619D01*
X93105143Y-92507857D01*
X92748000Y-92507857D01*
X92462286Y-92412619D01*
X92319429Y-92317380D01*
X92248000Y-92222142D01*
X92176571Y-92031666D01*
X93676571Y-89460237D02*
X93676571Y-90603095D01*
X93676571Y-90031666D02*
X92176571Y-90031666D01*
X92390857Y-90222142D01*
X92533714Y-90412618D01*
X92605143Y-90603095D01*
X93676571Y-88507856D02*
X93676571Y-88126904D01*
X93605143Y-87936428D01*
X93533714Y-87841190D01*
X93319429Y-87650714D01*
X93033714Y-87555475D01*
X92462286Y-87555475D01*
X92319429Y-87650714D01*
X92248000Y-87745952D01*
X92176571Y-87936428D01*
X92176571Y-88317380D01*
X92248000Y-88507856D01*
X92319429Y-88603095D01*
X92462286Y-88698333D01*
X92819429Y-88698333D01*
X92962286Y-88603095D01*
X93033714Y-88507856D01*
X93105143Y-88317380D01*
X93105143Y-87936428D01*
X93033714Y-87745952D01*
X92962286Y-87650714D01*
X92819429Y-87555475D01*
X92105143Y-85269761D02*
X94033714Y-86984047D01*
X92319429Y-84698333D02*
X92248000Y-84603095D01*
X92176571Y-84412618D01*
X92176571Y-83936428D01*
X92248000Y-83745952D01*
X92319429Y-83650714D01*
X92462286Y-83555475D01*
X92605143Y-83555475D01*
X92819429Y-83650714D01*
X93676571Y-84793571D01*
X93676571Y-83555475D01*
X92176571Y-82317380D02*
X92176571Y-82126904D01*
X92248000Y-81936428D01*
X92319429Y-81841190D01*
X92462286Y-81745952D01*
X92748000Y-81650713D01*
X93105143Y-81650713D01*
X93390857Y-81745952D01*
X93533714Y-81841190D01*
X93605143Y-81936428D01*
X93676571Y-82126904D01*
X93676571Y-82317380D01*
X93605143Y-82507856D01*
X93533714Y-82603094D01*
X93390857Y-82698333D01*
X93105143Y-82793571D01*
X92748000Y-82793571D01*
X92462286Y-82698333D01*
X92319429Y-82603094D01*
X92248000Y-82507856D01*
X92176571Y-82317380D01*
X92319429Y-80888809D02*
X92248000Y-80793571D01*
X92176571Y-80603094D01*
X92176571Y-80126904D01*
X92248000Y-79936428D01*
X92319429Y-79841190D01*
X92462286Y-79745951D01*
X92605143Y-79745951D01*
X92819429Y-79841190D01*
X93676571Y-80984047D01*
X93676571Y-79745951D01*
X92176571Y-78507856D02*
X92176571Y-78317380D01*
X92248000Y-78126904D01*
X92319429Y-78031666D01*
X92462286Y-77936428D01*
X92748000Y-77841189D01*
X93105143Y-77841189D01*
X93390857Y-77936428D01*
X93533714Y-78031666D01*
X93605143Y-78126904D01*
X93676571Y-78317380D01*
X93676571Y-78507856D01*
X93605143Y-78698332D01*
X93533714Y-78793570D01*
X93390857Y-78888809D01*
X93105143Y-78984047D01*
X92748000Y-78984047D01*
X92462286Y-78888809D01*
X92319429Y-78793570D01*
X92248000Y-78698332D01*
X92176571Y-78507856D01*
D13*
X97355142Y-73472143D02*
X97640857Y-73543571D01*
X98117047Y-73543571D01*
X98307523Y-73472143D01*
X98402761Y-73400714D01*
X98498000Y-73257857D01*
X98498000Y-73115000D01*
X98402761Y-72972143D01*
X98307523Y-72900714D01*
X98117047Y-72829286D01*
X97736095Y-72757857D01*
X97545619Y-72686429D01*
X97450380Y-72615000D01*
X97355142Y-72472143D01*
X97355142Y-72329286D01*
X97450380Y-72186429D01*
X97545619Y-72115000D01*
X97736095Y-72043571D01*
X98212285Y-72043571D01*
X98498000Y-72115000D01*
X99069428Y-72043571D02*
X100212285Y-72043571D01*
X99640857Y-73543571D02*
X99640857Y-72043571D01*
X101831333Y-73543571D02*
X100878952Y-73543571D01*
X100878952Y-72043571D01*
X102498000Y-73543571D02*
X102498000Y-72543571D01*
X102498000Y-72043571D02*
X102402762Y-72115000D01*
X102498000Y-72186429D01*
X102593239Y-72115000D01*
X102498000Y-72043571D01*
X102498000Y-72186429D01*
X103450381Y-72543571D02*
X103450381Y-73543571D01*
X103450381Y-72686429D02*
X103545620Y-72615000D01*
X103736096Y-72543571D01*
X104021810Y-72543571D01*
X104212286Y-72615000D01*
X104307524Y-72757857D01*
X104307524Y-73543571D01*
X105259905Y-73543571D02*
X105259905Y-72043571D01*
X105450382Y-72972143D02*
X106021810Y-73543571D01*
X106021810Y-72543571D02*
X105259905Y-73115000D01*
X106593239Y-72043571D02*
X107259906Y-73543571D01*
X107926573Y-72043571D01*
X108498001Y-72186429D02*
X108593239Y-72115000D01*
X108783716Y-72043571D01*
X109259906Y-72043571D01*
X109450382Y-72115000D01*
X109545620Y-72186429D01*
X109640859Y-72329286D01*
X109640859Y-72472143D01*
X109545620Y-72686429D01*
X108402763Y-73543571D01*
X109640859Y-73543571D01*
D14*
X107950381Y-110234047D02*
X106950381Y-110234047D01*
X107902762Y-110234047D02*
X107950381Y-110329285D01*
X107950381Y-110519762D01*
X107902762Y-110615000D01*
X107855143Y-110662619D01*
X107759905Y-110710238D01*
X107474190Y-110710238D01*
X107378952Y-110662619D01*
X107331333Y-110615000D01*
X107283714Y-110519762D01*
X107283714Y-110329285D01*
X107331333Y-110234047D01*
X107902762Y-109376904D02*
X107950381Y-109472142D01*
X107950381Y-109662619D01*
X107902762Y-109757857D01*
X107807524Y-109805476D01*
X107426571Y-109805476D01*
X107331333Y-109757857D01*
X107283714Y-109662619D01*
X107283714Y-109472142D01*
X107331333Y-109376904D01*
X107426571Y-109329285D01*
X107521810Y-109329285D01*
X107617048Y-109805476D01*
X107902762Y-108948333D02*
X107950381Y-108853095D01*
X107950381Y-108662619D01*
X107902762Y-108567380D01*
X107807524Y-108519761D01*
X107759905Y-108519761D01*
X107664667Y-108567380D01*
X107617048Y-108662619D01*
X107617048Y-108805476D01*
X107569429Y-108900714D01*
X107474190Y-108948333D01*
X107426571Y-108948333D01*
X107331333Y-108900714D01*
X107283714Y-108805476D01*
X107283714Y-108662619D01*
X107331333Y-108567380D01*
X107950381Y-108091190D02*
X107283714Y-108091190D01*
X106950381Y-108091190D02*
X106998000Y-108138809D01*
X107045619Y-108091190D01*
X106998000Y-108043571D01*
X106950381Y-108091190D01*
X107045619Y-108091190D01*
X107283714Y-107186428D02*
X108093238Y-107186428D01*
X108188476Y-107234047D01*
X108236095Y-107281666D01*
X108283714Y-107376905D01*
X108283714Y-107519762D01*
X108236095Y-107615000D01*
X107902762Y-107186428D02*
X107950381Y-107281666D01*
X107950381Y-107472143D01*
X107902762Y-107567381D01*
X107855143Y-107615000D01*
X107759905Y-107662619D01*
X107474190Y-107662619D01*
X107378952Y-107615000D01*
X107331333Y-107567381D01*
X107283714Y-107472143D01*
X107283714Y-107281666D01*
X107331333Y-107186428D01*
X107283714Y-106710238D02*
X107950381Y-106710238D01*
X107378952Y-106710238D02*
X107331333Y-106662619D01*
X107283714Y-106567381D01*
X107283714Y-106424523D01*
X107331333Y-106329285D01*
X107426571Y-106281666D01*
X107950381Y-106281666D01*
X107902762Y-105424523D02*
X107950381Y-105519761D01*
X107950381Y-105710238D01*
X107902762Y-105805476D01*
X107807524Y-105853095D01*
X107426571Y-105853095D01*
X107331333Y-105805476D01*
X107283714Y-105710238D01*
X107283714Y-105519761D01*
X107331333Y-105424523D01*
X107426571Y-105376904D01*
X107521810Y-105376904D01*
X107617048Y-105853095D01*
X107950381Y-104519761D02*
X106950381Y-104519761D01*
X107902762Y-104519761D02*
X107950381Y-104614999D01*
X107950381Y-104805476D01*
X107902762Y-104900714D01*
X107855143Y-104948333D01*
X107759905Y-104995952D01*
X107474190Y-104995952D01*
X107378952Y-104948333D01*
X107331333Y-104900714D01*
X107283714Y-104805476D01*
X107283714Y-104614999D01*
X107331333Y-104519761D01*
X107950381Y-103281666D02*
X106950381Y-103281666D01*
X107331333Y-103281666D02*
X107283714Y-103186428D01*
X107283714Y-102995951D01*
X107331333Y-102900713D01*
X107378952Y-102853094D01*
X107474190Y-102805475D01*
X107759905Y-102805475D01*
X107855143Y-102853094D01*
X107902762Y-102900713D01*
X107950381Y-102995951D01*
X107950381Y-103186428D01*
X107902762Y-103281666D01*
X107283714Y-102472142D02*
X107950381Y-102234047D01*
X107283714Y-101995951D02*
X107950381Y-102234047D01*
X108188476Y-102329285D01*
X108236095Y-102376904D01*
X108283714Y-102472142D01*
X107950381Y-100281665D02*
X107474190Y-100614999D01*
X107950381Y-100853094D02*
X106950381Y-100853094D01*
X106950381Y-100472141D01*
X106998000Y-100376903D01*
X107045619Y-100329284D01*
X107140857Y-100281665D01*
X107283714Y-100281665D01*
X107378952Y-100329284D01*
X107426571Y-100376903D01*
X107474190Y-100472141D01*
X107474190Y-100853094D01*
X107855143Y-99853094D02*
X107902762Y-99805475D01*
X107950381Y-99853094D01*
X107902762Y-99900713D01*
X107855143Y-99853094D01*
X107950381Y-99853094D01*
X106998000Y-98853094D02*
X106950381Y-98948332D01*
X106950381Y-99091189D01*
X106998000Y-99234047D01*
X107093238Y-99329285D01*
X107188476Y-99376904D01*
X107378952Y-99424523D01*
X107521810Y-99424523D01*
X107712286Y-99376904D01*
X107807524Y-99329285D01*
X107902762Y-99234047D01*
X107950381Y-99091189D01*
X107950381Y-98995951D01*
X107902762Y-98853094D01*
X107855143Y-98805475D01*
X107521810Y-98805475D01*
X107521810Y-98995951D01*
X107855143Y-98376904D02*
X107902762Y-98329285D01*
X107950381Y-98376904D01*
X107902762Y-98424523D01*
X107855143Y-98376904D01*
X107950381Y-98376904D01*
X107045619Y-97948333D02*
X106998000Y-97900714D01*
X106950381Y-97805476D01*
X106950381Y-97567380D01*
X106998000Y-97472142D01*
X107045619Y-97424523D01*
X107140857Y-97376904D01*
X107236095Y-97376904D01*
X107378952Y-97424523D01*
X107950381Y-97995952D01*
X107950381Y-97376904D01*
X106950381Y-96757857D02*
X106950381Y-96662618D01*
X106998000Y-96567380D01*
X107045619Y-96519761D01*
X107140857Y-96472142D01*
X107331333Y-96424523D01*
X107569429Y-96424523D01*
X107759905Y-96472142D01*
X107855143Y-96519761D01*
X107902762Y-96567380D01*
X107950381Y-96662618D01*
X107950381Y-96757857D01*
X107902762Y-96853095D01*
X107855143Y-96900714D01*
X107759905Y-96948333D01*
X107569429Y-96995952D01*
X107331333Y-96995952D01*
X107140857Y-96948333D01*
X107045619Y-96900714D01*
X106998000Y-96853095D01*
X106950381Y-96757857D01*
X107950381Y-95472142D02*
X107950381Y-96043571D01*
X107950381Y-95757857D02*
X106950381Y-95757857D01*
X107093238Y-95853095D01*
X107188476Y-95948333D01*
X107236095Y-96043571D01*
X107950381Y-94995952D02*
X107950381Y-94805476D01*
X107902762Y-94710237D01*
X107855143Y-94662618D01*
X107712286Y-94567380D01*
X107521810Y-94519761D01*
X107140857Y-94519761D01*
X107045619Y-94567380D01*
X106998000Y-94614999D01*
X106950381Y-94710237D01*
X106950381Y-94900714D01*
X106998000Y-94995952D01*
X107045619Y-95043571D01*
X107140857Y-95091190D01*
X107378952Y-95091190D01*
X107474190Y-95043571D01*
X107521810Y-94995952D01*
X107569429Y-94900714D01*
X107569429Y-94710237D01*
X107521810Y-94614999D01*
X107474190Y-94567380D01*
X107378952Y-94519761D01*
X178998000Y-96626904D02*
X178950381Y-96722142D01*
X178950381Y-96864999D01*
X178998000Y-97007857D01*
X179093238Y-97103095D01*
X179188476Y-97150714D01*
X179378952Y-97198333D01*
X179521810Y-97198333D01*
X179712286Y-97150714D01*
X179807524Y-97103095D01*
X179902762Y-97007857D01*
X179950381Y-96864999D01*
X179950381Y-96769761D01*
X179902762Y-96626904D01*
X179855143Y-96579285D01*
X179521810Y-96579285D01*
X179521810Y-96769761D01*
X179950381Y-96150714D02*
X178950381Y-96150714D01*
X179950381Y-95579285D01*
X178950381Y-95579285D01*
X179950381Y-95103095D02*
X178950381Y-95103095D01*
X178950381Y-94865000D01*
X178998000Y-94722142D01*
X179093238Y-94626904D01*
X179188476Y-94579285D01*
X179378952Y-94531666D01*
X179521810Y-94531666D01*
X179712286Y-94579285D01*
X179807524Y-94626904D01*
X179902762Y-94722142D01*
X179950381Y-94865000D01*
X179950381Y-95103095D01*
X179950381Y-99281666D02*
X179474190Y-99615000D01*
X179950381Y-99853095D02*
X178950381Y-99853095D01*
X178950381Y-99472142D01*
X178998000Y-99376904D01*
X179045619Y-99329285D01*
X179140857Y-99281666D01*
X179283714Y-99281666D01*
X179378952Y-99329285D01*
X179426571Y-99376904D01*
X179474190Y-99472142D01*
X179474190Y-99853095D01*
X178950381Y-98948333D02*
X179950381Y-98281666D01*
X178950381Y-98281666D02*
X179950381Y-98948333D01*
X178950381Y-102876905D02*
X178950381Y-102305476D01*
X179950381Y-102591191D02*
X178950381Y-102591191D01*
X178950381Y-102067381D02*
X179950381Y-101400714D01*
X178950381Y-101400714D02*
X179950381Y-102067381D01*
X120950381Y-85888809D02*
X121950381Y-85555476D01*
X120950381Y-85222142D01*
X120950381Y-84984047D02*
X120950381Y-84364999D01*
X121331333Y-84698333D01*
X121331333Y-84555475D01*
X121378952Y-84460237D01*
X121426571Y-84412618D01*
X121521810Y-84364999D01*
X121759905Y-84364999D01*
X121855143Y-84412618D01*
X121902762Y-84460237D01*
X121950381Y-84555475D01*
X121950381Y-84841190D01*
X121902762Y-84936428D01*
X121855143Y-84984047D01*
X121855143Y-83936428D02*
X121902762Y-83888809D01*
X121950381Y-83936428D01*
X121902762Y-83984047D01*
X121855143Y-83936428D01*
X121950381Y-83936428D01*
X120950381Y-83555476D02*
X120950381Y-82936428D01*
X121331333Y-83269762D01*
X121331333Y-83126904D01*
X121378952Y-83031666D01*
X121426571Y-82984047D01*
X121521810Y-82936428D01*
X121759905Y-82936428D01*
X121855143Y-82984047D01*
X121902762Y-83031666D01*
X121950381Y-83126904D01*
X121950381Y-83412619D01*
X121902762Y-83507857D01*
X121855143Y-83555476D01*
X119402762Y-88126905D02*
X119450381Y-87984048D01*
X119450381Y-87745952D01*
X119402762Y-87650714D01*
X119355143Y-87603095D01*
X119259905Y-87555476D01*
X119164667Y-87555476D01*
X119069429Y-87603095D01*
X119021810Y-87650714D01*
X118974190Y-87745952D01*
X118926571Y-87936429D01*
X118878952Y-88031667D01*
X118831333Y-88079286D01*
X118736095Y-88126905D01*
X118640857Y-88126905D01*
X118545619Y-88079286D01*
X118498000Y-88031667D01*
X118450381Y-87936429D01*
X118450381Y-87698333D01*
X118498000Y-87555476D01*
X118450381Y-87222143D02*
X119450381Y-86984048D01*
X118736095Y-86793571D01*
X119450381Y-86603095D01*
X118450381Y-86365000D01*
X119450381Y-85984048D02*
X118450381Y-85984048D01*
X118450381Y-85745953D01*
X118498000Y-85603095D01*
X118593238Y-85507857D01*
X118688476Y-85460238D01*
X118878952Y-85412619D01*
X119021810Y-85412619D01*
X119212286Y-85460238D01*
X119307524Y-85507857D01*
X119402762Y-85603095D01*
X119450381Y-85745953D01*
X119450381Y-85984048D01*
X119355143Y-84412619D02*
X119402762Y-84460238D01*
X119450381Y-84603095D01*
X119450381Y-84698333D01*
X119402762Y-84841191D01*
X119307524Y-84936429D01*
X119212286Y-84984048D01*
X119021810Y-85031667D01*
X118878952Y-85031667D01*
X118688476Y-84984048D01*
X118593238Y-84936429D01*
X118498000Y-84841191D01*
X118450381Y-84698333D01*
X118450381Y-84603095D01*
X118498000Y-84460238D01*
X118545619Y-84412619D01*
X119450381Y-83507857D02*
X119450381Y-83984048D01*
X118450381Y-83984048D01*
X119450381Y-83174524D02*
X118450381Y-83174524D01*
X119450381Y-82603095D02*
X118878952Y-83031667D01*
X118450381Y-82603095D02*
X119021810Y-83174524D01*
X116902762Y-86984047D02*
X116950381Y-86841190D01*
X116950381Y-86603094D01*
X116902762Y-86507856D01*
X116855143Y-86460237D01*
X116759905Y-86412618D01*
X116664667Y-86412618D01*
X116569429Y-86460237D01*
X116521810Y-86507856D01*
X116474190Y-86603094D01*
X116426571Y-86793571D01*
X116378952Y-86888809D01*
X116331333Y-86936428D01*
X116236095Y-86984047D01*
X116140857Y-86984047D01*
X116045619Y-86936428D01*
X115998000Y-86888809D01*
X115950381Y-86793571D01*
X115950381Y-86555475D01*
X115998000Y-86412618D01*
X115950381Y-86079285D02*
X116950381Y-85841190D01*
X116236095Y-85650713D01*
X116950381Y-85460237D01*
X115950381Y-85222142D01*
X116950381Y-84841190D02*
X115950381Y-84841190D01*
X115950381Y-84603095D01*
X115998000Y-84460237D01*
X116093238Y-84364999D01*
X116188476Y-84317380D01*
X116378952Y-84269761D01*
X116521810Y-84269761D01*
X116712286Y-84317380D01*
X116807524Y-84364999D01*
X116902762Y-84460237D01*
X116950381Y-84603095D01*
X116950381Y-84841190D01*
X116950381Y-83841190D02*
X115950381Y-83841190D01*
X115950381Y-83174524D02*
X115950381Y-82984047D01*
X115998000Y-82888809D01*
X116093238Y-82793571D01*
X116283714Y-82745952D01*
X116617048Y-82745952D01*
X116807524Y-82793571D01*
X116902762Y-82888809D01*
X116950381Y-82984047D01*
X116950381Y-83174524D01*
X116902762Y-83269762D01*
X116807524Y-83365000D01*
X116617048Y-83412619D01*
X116283714Y-83412619D01*
X116093238Y-83365000D01*
X115998000Y-83269762D01*
X115950381Y-83174524D01*
X113498000Y-85126904D02*
X113450381Y-85222142D01*
X113450381Y-85364999D01*
X113498000Y-85507857D01*
X113593238Y-85603095D01*
X113688476Y-85650714D01*
X113878952Y-85698333D01*
X114021810Y-85698333D01*
X114212286Y-85650714D01*
X114307524Y-85603095D01*
X114402762Y-85507857D01*
X114450381Y-85364999D01*
X114450381Y-85269761D01*
X114402762Y-85126904D01*
X114355143Y-85079285D01*
X114021810Y-85079285D01*
X114021810Y-85269761D01*
X114450381Y-84650714D02*
X113450381Y-84650714D01*
X114450381Y-84079285D01*
X113450381Y-84079285D01*
X114450381Y-83603095D02*
X113450381Y-83603095D01*
X113450381Y-83365000D01*
X113498000Y-83222142D01*
X113593238Y-83126904D01*
X113688476Y-83079285D01*
X113878952Y-83031666D01*
X114021810Y-83031666D01*
X114212286Y-83079285D01*
X114307524Y-83126904D01*
X114402762Y-83222142D01*
X114450381Y-83365000D01*
X114450381Y-83603095D01*
D12*
X113345648Y-79965000D02*
G75*
G03X113345648Y-79965000I-147648J0D01*
G01*
D14*
X102045619Y-79317381D02*
X101712285Y-78841190D01*
X101474190Y-79317381D02*
X101474190Y-78317381D01*
X101855143Y-78317381D01*
X101950381Y-78365000D01*
X101998000Y-78412619D01*
X102045619Y-78507857D01*
X102045619Y-78650714D01*
X101998000Y-78745952D01*
X101950381Y-78793571D01*
X101855143Y-78841190D01*
X101474190Y-78841190D01*
X102474190Y-78793571D02*
X102807524Y-78793571D01*
X102950381Y-79317381D02*
X102474190Y-79317381D01*
X102474190Y-78317381D01*
X102950381Y-78317381D01*
X103331333Y-79269762D02*
X103474190Y-79317381D01*
X103712286Y-79317381D01*
X103807524Y-79269762D01*
X103855143Y-79222143D01*
X103902762Y-79126905D01*
X103902762Y-79031667D01*
X103855143Y-78936429D01*
X103807524Y-78888810D01*
X103712286Y-78841190D01*
X103521809Y-78793571D01*
X103426571Y-78745952D01*
X103378952Y-78698333D01*
X103331333Y-78603095D01*
X103331333Y-78507857D01*
X103378952Y-78412619D01*
X103426571Y-78365000D01*
X103521809Y-78317381D01*
X103759905Y-78317381D01*
X103902762Y-78365000D01*
X104331333Y-78793571D02*
X104664667Y-78793571D01*
X104807524Y-79317381D02*
X104331333Y-79317381D01*
X104331333Y-78317381D01*
X104807524Y-78317381D01*
X105093238Y-78317381D02*
X105664667Y-78317381D01*
X105378952Y-79317381D02*
X105378952Y-78317381D01*
X122164667Y-96793571D02*
X122307524Y-96841190D01*
X122355143Y-96888810D01*
X122402762Y-96984048D01*
X122402762Y-97126905D01*
X122355143Y-97222143D01*
X122307524Y-97269762D01*
X122212286Y-97317381D01*
X121831333Y-97317381D01*
X121831333Y-96317381D01*
X122164667Y-96317381D01*
X122259905Y-96365000D01*
X122307524Y-96412619D01*
X122355143Y-96507857D01*
X122355143Y-96603095D01*
X122307524Y-96698333D01*
X122259905Y-96745952D01*
X122164667Y-96793571D01*
X121831333Y-96793571D01*
X123021809Y-96317381D02*
X123212286Y-96317381D01*
X123307524Y-96365000D01*
X123402762Y-96460238D01*
X123450381Y-96650714D01*
X123450381Y-96984048D01*
X123402762Y-97174524D01*
X123307524Y-97269762D01*
X123212286Y-97317381D01*
X123021809Y-97317381D01*
X122926571Y-97269762D01*
X122831333Y-97174524D01*
X122783714Y-96984048D01*
X122783714Y-96650714D01*
X122831333Y-96460238D01*
X122926571Y-96365000D01*
X123021809Y-96317381D01*
X124069428Y-96317381D02*
X124259905Y-96317381D01*
X124355143Y-96365000D01*
X124450381Y-96460238D01*
X124498000Y-96650714D01*
X124498000Y-96984048D01*
X124450381Y-97174524D01*
X124355143Y-97269762D01*
X124259905Y-97317381D01*
X124069428Y-97317381D01*
X123974190Y-97269762D01*
X123878952Y-97174524D01*
X123831333Y-96984048D01*
X123831333Y-96650714D01*
X123878952Y-96460238D01*
X123974190Y-96365000D01*
X124069428Y-96317381D01*
X124783714Y-96317381D02*
X125355143Y-96317381D01*
X125069428Y-97317381D02*
X125069428Y-96317381D01*
X126212286Y-97317381D02*
X125640857Y-97317381D01*
X125926571Y-97317381D02*
X125926571Y-96317381D01*
X125831333Y-96460238D01*
X125736095Y-96555476D01*
X125640857Y-96603095D01*
X116164667Y-96793571D02*
X116307524Y-96841190D01*
X116355143Y-96888810D01*
X116402762Y-96984048D01*
X116402762Y-97126905D01*
X116355143Y-97222143D01*
X116307524Y-97269762D01*
X116212286Y-97317381D01*
X115831333Y-97317381D01*
X115831333Y-96317381D01*
X116164667Y-96317381D01*
X116259905Y-96365000D01*
X116307524Y-96412619D01*
X116355143Y-96507857D01*
X116355143Y-96603095D01*
X116307524Y-96698333D01*
X116259905Y-96745952D01*
X116164667Y-96793571D01*
X115831333Y-96793571D01*
X117021809Y-96317381D02*
X117212286Y-96317381D01*
X117307524Y-96365000D01*
X117402762Y-96460238D01*
X117450381Y-96650714D01*
X117450381Y-96984048D01*
X117402762Y-97174524D01*
X117307524Y-97269762D01*
X117212286Y-97317381D01*
X117021809Y-97317381D01*
X116926571Y-97269762D01*
X116831333Y-97174524D01*
X116783714Y-96984048D01*
X116783714Y-96650714D01*
X116831333Y-96460238D01*
X116926571Y-96365000D01*
X117021809Y-96317381D01*
X118069428Y-96317381D02*
X118259905Y-96317381D01*
X118355143Y-96365000D01*
X118450381Y-96460238D01*
X118498000Y-96650714D01*
X118498000Y-96984048D01*
X118450381Y-97174524D01*
X118355143Y-97269762D01*
X118259905Y-97317381D01*
X118069428Y-97317381D01*
X117974190Y-97269762D01*
X117878952Y-97174524D01*
X117831333Y-96984048D01*
X117831333Y-96650714D01*
X117878952Y-96460238D01*
X117974190Y-96365000D01*
X118069428Y-96317381D01*
X118783714Y-96317381D02*
X119355143Y-96317381D01*
X119069428Y-97317381D02*
X119069428Y-96317381D01*
X119878952Y-96317381D02*
X119974191Y-96317381D01*
X120069429Y-96365000D01*
X120117048Y-96412619D01*
X120164667Y-96507857D01*
X120212286Y-96698333D01*
X120212286Y-96936429D01*
X120164667Y-97126905D01*
X120117048Y-97222143D01*
X120069429Y-97269762D01*
X119974191Y-97317381D01*
X119878952Y-97317381D01*
X119783714Y-97269762D01*
X119736095Y-97222143D01*
X119688476Y-97126905D01*
X119640857Y-96936429D01*
X119640857Y-96698333D01*
X119688476Y-96507857D01*
X119736095Y-96412619D01*
X119783714Y-96365000D01*
X119878952Y-96317381D01*
X140307524Y-73317381D02*
X140307524Y-72317381D01*
X140545619Y-72317381D01*
X140688477Y-72365000D01*
X140783715Y-72460238D01*
X140831334Y-72555476D01*
X140878953Y-72745952D01*
X140878953Y-72888810D01*
X140831334Y-73079286D01*
X140783715Y-73174524D01*
X140688477Y-73269762D01*
X140545619Y-73317381D01*
X140307524Y-73317381D01*
X141307524Y-73317381D02*
X141307524Y-72650714D01*
X141307524Y-72317381D02*
X141259905Y-72365000D01*
X141307524Y-72412619D01*
X141355143Y-72365000D01*
X141307524Y-72317381D01*
X141307524Y-72412619D01*
X142212286Y-72650714D02*
X142212286Y-73460238D01*
X142164667Y-73555476D01*
X142117048Y-73603095D01*
X142021809Y-73650714D01*
X141878952Y-73650714D01*
X141783714Y-73603095D01*
X142212286Y-73269762D02*
X142117048Y-73317381D01*
X141926571Y-73317381D01*
X141831333Y-73269762D01*
X141783714Y-73222143D01*
X141736095Y-73126905D01*
X141736095Y-72841190D01*
X141783714Y-72745952D01*
X141831333Y-72698333D01*
X141926571Y-72650714D01*
X142117048Y-72650714D01*
X142212286Y-72698333D01*
X142688476Y-73317381D02*
X142688476Y-72650714D01*
X142688476Y-72317381D02*
X142640857Y-72365000D01*
X142688476Y-72412619D01*
X142736095Y-72365000D01*
X142688476Y-72317381D01*
X142688476Y-72412619D01*
X143021809Y-72650714D02*
X143402761Y-72650714D01*
X143164666Y-72317381D02*
X143164666Y-73174524D01*
X143212285Y-73269762D01*
X143307523Y-73317381D01*
X143402761Y-73317381D01*
X144164667Y-73317381D02*
X144164667Y-72793571D01*
X144117048Y-72698333D01*
X144021810Y-72650714D01*
X143831333Y-72650714D01*
X143736095Y-72698333D01*
X144164667Y-73269762D02*
X144069429Y-73317381D01*
X143831333Y-73317381D01*
X143736095Y-73269762D01*
X143688476Y-73174524D01*
X143688476Y-73079286D01*
X143736095Y-72984048D01*
X143831333Y-72936429D01*
X144069429Y-72936429D01*
X144164667Y-72888810D01*
X144783714Y-73317381D02*
X144688476Y-73269762D01*
X144640857Y-73174524D01*
X144640857Y-72317381D01*
X163307524Y-73317381D02*
X163307524Y-72317381D01*
X163545619Y-72317381D01*
X163688477Y-72365000D01*
X163783715Y-72460238D01*
X163831334Y-72555476D01*
X163878953Y-72745952D01*
X163878953Y-72888810D01*
X163831334Y-73079286D01*
X163783715Y-73174524D01*
X163688477Y-73269762D01*
X163545619Y-73317381D01*
X163307524Y-73317381D01*
X164307524Y-73317381D02*
X164307524Y-72650714D01*
X164307524Y-72317381D02*
X164259905Y-72365000D01*
X164307524Y-72412619D01*
X164355143Y-72365000D01*
X164307524Y-72317381D01*
X164307524Y-72412619D01*
X165212286Y-72650714D02*
X165212286Y-73460238D01*
X165164667Y-73555476D01*
X165117048Y-73603095D01*
X165021809Y-73650714D01*
X164878952Y-73650714D01*
X164783714Y-73603095D01*
X165212286Y-73269762D02*
X165117048Y-73317381D01*
X164926571Y-73317381D01*
X164831333Y-73269762D01*
X164783714Y-73222143D01*
X164736095Y-73126905D01*
X164736095Y-72841190D01*
X164783714Y-72745952D01*
X164831333Y-72698333D01*
X164926571Y-72650714D01*
X165117048Y-72650714D01*
X165212286Y-72698333D01*
X165688476Y-73317381D02*
X165688476Y-72650714D01*
X165688476Y-72317381D02*
X165640857Y-72365000D01*
X165688476Y-72412619D01*
X165736095Y-72365000D01*
X165688476Y-72317381D01*
X165688476Y-72412619D01*
X166021809Y-72650714D02*
X166402761Y-72650714D01*
X166164666Y-72317381D02*
X166164666Y-73174524D01*
X166212285Y-73269762D01*
X166307523Y-73317381D01*
X166402761Y-73317381D01*
X167164667Y-73317381D02*
X167164667Y-72793571D01*
X167117048Y-72698333D01*
X167021810Y-72650714D01*
X166831333Y-72650714D01*
X166736095Y-72698333D01*
X167164667Y-73269762D02*
X167069429Y-73317381D01*
X166831333Y-73317381D01*
X166736095Y-73269762D01*
X166688476Y-73174524D01*
X166688476Y-73079286D01*
X166736095Y-72984048D01*
X166831333Y-72936429D01*
X167069429Y-72936429D01*
X167164667Y-72888810D01*
X167783714Y-73317381D02*
X167688476Y-73269762D01*
X167640857Y-73174524D01*
X167640857Y-72317381D01*
X146021809Y-126317381D02*
X146021809Y-125317381D01*
X146402762Y-125317381D01*
X146498000Y-125365000D01*
X146545619Y-125412619D01*
X146593238Y-125507857D01*
X146593238Y-125650714D01*
X146545619Y-125745952D01*
X146498000Y-125793571D01*
X146402762Y-125841190D01*
X146021809Y-125841190D01*
X147164666Y-126317381D02*
X147069428Y-126269762D01*
X147021809Y-126222143D01*
X146974190Y-126126905D01*
X146974190Y-125841190D01*
X147021809Y-125745952D01*
X147069428Y-125698333D01*
X147164666Y-125650714D01*
X147307524Y-125650714D01*
X147402762Y-125698333D01*
X147450381Y-125745952D01*
X147498000Y-125841190D01*
X147498000Y-126126905D01*
X147450381Y-126222143D01*
X147402762Y-126269762D01*
X147307524Y-126317381D01*
X147164666Y-126317381D01*
X147831333Y-125650714D02*
X148021809Y-126317381D01*
X148212286Y-125841190D01*
X148402762Y-126317381D01*
X148593238Y-125650714D01*
X149355143Y-126269762D02*
X149259905Y-126317381D01*
X149069428Y-126317381D01*
X148974190Y-126269762D01*
X148926571Y-126174524D01*
X148926571Y-125793571D01*
X148974190Y-125698333D01*
X149069428Y-125650714D01*
X149259905Y-125650714D01*
X149355143Y-125698333D01*
X149402762Y-125793571D01*
X149402762Y-125888810D01*
X148926571Y-125984048D01*
X149831333Y-126317381D02*
X149831333Y-125650714D01*
X149831333Y-125841190D02*
X149878952Y-125745952D01*
X149926571Y-125698333D01*
X150021809Y-125650714D01*
X150117048Y-125650714D01*
X166688476Y-126031667D02*
X167164667Y-126031667D01*
X166593238Y-126317381D02*
X166926571Y-125317381D01*
X167259905Y-126317381D01*
X167593238Y-125650714D02*
X167593238Y-126317381D01*
X167593238Y-125745952D02*
X167640857Y-125698333D01*
X167736095Y-125650714D01*
X167878953Y-125650714D01*
X167974191Y-125698333D01*
X168021810Y-125793571D01*
X168021810Y-126317381D01*
X168926572Y-126317381D02*
X168926572Y-125793571D01*
X168878953Y-125698333D01*
X168783715Y-125650714D01*
X168593238Y-125650714D01*
X168498000Y-125698333D01*
X168926572Y-126269762D02*
X168831334Y-126317381D01*
X168593238Y-126317381D01*
X168498000Y-126269762D01*
X168450381Y-126174524D01*
X168450381Y-126079286D01*
X168498000Y-125984048D01*
X168593238Y-125936429D01*
X168831334Y-125936429D01*
X168926572Y-125888810D01*
X169545619Y-126317381D02*
X169450381Y-126269762D01*
X169402762Y-126174524D01*
X169402762Y-125317381D01*
X170069429Y-126317381D02*
X169974191Y-126269762D01*
X169926572Y-126222143D01*
X169878953Y-126126905D01*
X169878953Y-125841190D01*
X169926572Y-125745952D01*
X169974191Y-125698333D01*
X170069429Y-125650714D01*
X170212287Y-125650714D01*
X170307525Y-125698333D01*
X170355144Y-125745952D01*
X170402763Y-125841190D01*
X170402763Y-126126905D01*
X170355144Y-126222143D01*
X170307525Y-126269762D01*
X170212287Y-126317381D01*
X170069429Y-126317381D01*
X171259906Y-125650714D02*
X171259906Y-126460238D01*
X171212287Y-126555476D01*
X171164668Y-126603095D01*
X171069429Y-126650714D01*
X170926572Y-126650714D01*
X170831334Y-126603095D01*
X171259906Y-126269762D02*
X171164668Y-126317381D01*
X170974191Y-126317381D01*
X170878953Y-126269762D01*
X170831334Y-126222143D01*
X170783715Y-126126905D01*
X170783715Y-125841190D01*
X170831334Y-125745952D01*
X170878953Y-125698333D01*
X170974191Y-125650714D01*
X171164668Y-125650714D01*
X171259906Y-125698333D01*
D11*
X139390381Y-120999285D02*
X139390381Y-121570714D01*
X139390381Y-121285000D02*
X138390381Y-121285000D01*
X138533238Y-121380238D01*
X138628476Y-121475476D01*
X138676095Y-121570714D01*
X144823000Y-87190000D02*
X144823000Y-88240000D01*
X169173000Y-87190000D02*
X169173000Y-88240000D01*
X169173000Y-111540000D02*
X169173000Y-110490000D01*
X144823000Y-111540000D02*
X144823000Y-110490000D01*
X144823000Y-87190000D02*
X145873000Y-87190000D01*
X144823000Y-111540000D02*
X145873000Y-111540000D01*
X169173000Y-111540000D02*
X168123000Y-111540000D01*
X169173000Y-87190000D02*
X168123000Y-87190000D01*
X144823000Y-88240000D02*
X143818000Y-88240000D01*
X116728000Y-92095000D02*
X116728000Y-89555000D01*
X116448000Y-94915000D02*
X116448000Y-93365000D01*
X116728000Y-92095000D02*
X119268000Y-92095000D01*
X119548000Y-93365000D02*
X119548000Y-94915000D01*
X119548000Y-94915000D02*
X116448000Y-94915000D01*
X119268000Y-92095000D02*
X119268000Y-89555000D01*
X119268000Y-89555000D02*
X116728000Y-89555000D01*
X122728000Y-92095000D02*
X122728000Y-89555000D01*
X122448000Y-94915000D02*
X122448000Y-93365000D01*
X122728000Y-92095000D02*
X125268000Y-92095000D01*
X125548000Y-93365000D02*
X125548000Y-94915000D01*
X125548000Y-94915000D02*
X122448000Y-94915000D01*
X125268000Y-92095000D02*
X125268000Y-89555000D01*
X125268000Y-89555000D02*
X122728000Y-89555000D01*
X124397040Y-114563880D02*
X129598960Y-114563880D01*
X129598960Y-112166120D02*
X124397040Y-112166120D01*
X122398060Y-111066300D02*
X122398060Y-112166120D01*
X121798620Y-111566680D02*
X122997500Y-111566680D01*
X123002580Y-112166120D02*
X123002580Y-114563880D01*
X124397040Y-118063880D02*
X129598960Y-118063880D01*
X129598960Y-115666120D02*
X124397040Y-115666120D01*
X122398060Y-114566300D02*
X122398060Y-115666120D01*
X121798620Y-115066680D02*
X122997500Y-115066680D01*
X123002580Y-115666120D02*
X123002580Y-118063880D01*
X131998000Y-119390000D02*
X129998000Y-119390000D01*
X129998000Y-122340000D02*
X131998000Y-122340000D01*
X97998000Y-82840000D02*
X99998000Y-82840000D01*
X99998000Y-79890000D02*
X97998000Y-79890000D01*
X138998000Y-94340000D02*
X136998000Y-94340000D01*
X136998000Y-96390000D02*
X138998000Y-96390000D01*
X138998000Y-103340000D02*
X136998000Y-103340000D01*
X136998000Y-105390000D02*
X138998000Y-105390000D01*
X173998000Y-78340000D02*
X171998000Y-78340000D01*
X171998000Y-80390000D02*
X173998000Y-80390000D01*
X163498000Y-118840000D02*
X161498000Y-118840000D01*
X161498000Y-120890000D02*
X163498000Y-120890000D01*
X134023000Y-89365000D02*
X134023000Y-87365000D01*
X131973000Y-87365000D02*
X131973000Y-89365000D01*
X139998000Y-90340000D02*
X137998000Y-90340000D01*
X137998000Y-92390000D02*
X139998000Y-92390000D01*
X139998000Y-85340000D02*
X137998000Y-85340000D01*
X137998000Y-87390000D02*
X139998000Y-87390000D01*
X146998000Y-82340000D02*
X144998000Y-82340000D01*
X144998000Y-84390000D02*
X146998000Y-84390000D01*
X152998000Y-84390000D02*
X154998000Y-84390000D01*
X154998000Y-82340000D02*
X152998000Y-82340000D01*
X162998000Y-82340000D02*
X160998000Y-82340000D01*
X160998000Y-84390000D02*
X162998000Y-84390000D01*
X168998000Y-84390000D02*
X170998000Y-84390000D01*
X170998000Y-82340000D02*
X168998000Y-82340000D01*
X171973000Y-87365000D02*
X171973000Y-89365000D01*
X174023000Y-89365000D02*
X174023000Y-87365000D01*
X174023000Y-96365000D02*
X174023000Y-94365000D01*
X171973000Y-94365000D02*
X171973000Y-96365000D01*
X174023000Y-103365000D02*
X174023000Y-101365000D01*
X171973000Y-101365000D02*
X171973000Y-103365000D01*
X171973000Y-108365000D02*
X171973000Y-110365000D01*
X174023000Y-110365000D02*
X174023000Y-108365000D01*
X171998000Y-114340000D02*
X169998000Y-114340000D01*
X169998000Y-116390000D02*
X171998000Y-116390000D01*
X162998000Y-116390000D02*
X164998000Y-116390000D01*
X164998000Y-114340000D02*
X162998000Y-114340000D01*
X157998000Y-114340000D02*
X155998000Y-114340000D01*
X155998000Y-116390000D02*
X157998000Y-116390000D01*
X147998000Y-116390000D02*
X149998000Y-116390000D01*
X149998000Y-114340000D02*
X147998000Y-114340000D01*
X138998000Y-107340000D02*
X136998000Y-107340000D01*
X136998000Y-109390000D02*
X138998000Y-109390000D01*
X138998000Y-111340000D02*
X136998000Y-111340000D01*
X136998000Y-113390000D02*
X138998000Y-113390000D01*
X141998000Y-115340000D02*
X139998000Y-115340000D01*
X139998000Y-117390000D02*
X141998000Y-117390000D01*
X119848000Y-109915000D02*
X123448000Y-109915000D01*
X119848000Y-107815000D02*
X123448000Y-107815000D01*
X121898000Y-108565000D02*
X121898000Y-109165000D01*
X121898000Y-109165000D02*
X121598000Y-108865000D01*
X121598000Y-108865000D02*
X121798000Y-108665000D01*
X121798000Y-108665000D02*
X121798000Y-108915000D01*
X121798000Y-108915000D02*
X121748000Y-108865000D01*
X121498000Y-108365000D02*
X121498000Y-109365000D01*
X121998000Y-108865000D02*
X122498000Y-108865000D01*
X121498000Y-108865000D02*
X121998000Y-108365000D01*
X121998000Y-108365000D02*
X121998000Y-109365000D01*
X121998000Y-109365000D02*
X121498000Y-108865000D01*
X96848000Y-93415000D02*
X100448000Y-93415000D01*
X96848000Y-91315000D02*
X100448000Y-91315000D01*
X98898000Y-92065000D02*
X98898000Y-92665000D01*
X98898000Y-92665000D02*
X98598000Y-92365000D01*
X98598000Y-92365000D02*
X98798000Y-92165000D01*
X98798000Y-92165000D02*
X98798000Y-92415000D01*
X98798000Y-92415000D02*
X98748000Y-92365000D01*
X98498000Y-91865000D02*
X98498000Y-92865000D01*
X98998000Y-92365000D02*
X99498000Y-92365000D01*
X98498000Y-92365000D02*
X98998000Y-91865000D01*
X98998000Y-91865000D02*
X98998000Y-92865000D01*
X98998000Y-92865000D02*
X98498000Y-92365000D01*
X175728000Y-97635000D02*
X175728000Y-102715000D01*
X175728000Y-102715000D02*
X178268000Y-102715000D01*
X178268000Y-102715000D02*
X178268000Y-97635000D01*
X178548000Y-94815000D02*
X178548000Y-96365000D01*
X178268000Y-97635000D02*
X175728000Y-97635000D01*
X175448000Y-96365000D02*
X175448000Y-94815000D01*
X175448000Y-94815000D02*
X178548000Y-94815000D01*
X127498000Y-106890000D02*
X129498000Y-106890000D01*
X129498000Y-109840000D02*
X127498000Y-109840000D01*
X105998000Y-79890000D02*
X107998000Y-79890000D01*
X107998000Y-82840000D02*
X105998000Y-82840000D01*
X122923000Y-102365000D02*
X122923000Y-100365000D01*
X125073000Y-100365000D02*
X125073000Y-102365000D01*
X121073000Y-100365000D02*
X121073000Y-102365000D01*
X118923000Y-102365000D02*
X118923000Y-100365000D01*
X147498000Y-78290000D02*
X149498000Y-78290000D01*
X149498000Y-80440000D02*
X147498000Y-80440000D01*
X116573000Y-100365000D02*
X116573000Y-102365000D01*
X114423000Y-102365000D02*
X114423000Y-100365000D01*
X136998000Y-79290000D02*
X138998000Y-79290000D01*
X138998000Y-81440000D02*
X136998000Y-81440000D01*
X100498000Y-88940000D02*
X98498000Y-88940000D01*
X98498000Y-86790000D02*
X100498000Y-86790000D01*
D15*
X100438000Y-74555000D02*
X106558000Y-74555000D01*
X106558000Y-74555000D02*
X106558000Y-78175000D01*
X106558000Y-78175000D02*
X100438000Y-78175000D01*
X100438000Y-78175000D02*
X100438000Y-74555000D01*
D11*
X112448000Y-81665000D02*
X113998000Y-81665000D01*
X112448000Y-80365000D02*
X112448000Y-81665000D01*
X113871000Y-76174000D02*
X113871000Y-70332000D01*
X113871000Y-70332000D02*
X114125000Y-70332000D01*
X114125000Y-70332000D02*
X114125000Y-76174000D01*
X114125000Y-76174000D02*
X113998000Y-76174000D01*
X113998000Y-76174000D02*
X113998000Y-70332000D01*
X113744000Y-78841000D02*
X113744000Y-79222000D01*
X114252000Y-78841000D02*
X114252000Y-79222000D01*
X116284000Y-78841000D02*
X116284000Y-79222000D01*
X116792000Y-78841000D02*
X116792000Y-79222000D01*
X118824000Y-78841000D02*
X118824000Y-79222000D01*
X119332000Y-78841000D02*
X119332000Y-79222000D01*
X121872000Y-78841000D02*
X121872000Y-79222000D01*
X121364000Y-78841000D02*
X121364000Y-79222000D01*
X112728000Y-78841000D02*
X112728000Y-76301000D01*
X115268000Y-78841000D02*
X115268000Y-76301000D01*
X115268000Y-78841000D02*
X117808000Y-78841000D01*
X117808000Y-78841000D02*
X117808000Y-76301000D01*
X116284000Y-76301000D02*
X116284000Y-70205000D01*
X116284000Y-70205000D02*
X116792000Y-70205000D01*
X116792000Y-70205000D02*
X116792000Y-76301000D01*
X117808000Y-76301000D02*
X115268000Y-76301000D01*
X115268000Y-76301000D02*
X112728000Y-76301000D01*
X114252000Y-70205000D02*
X114252000Y-76301000D01*
X113744000Y-70205000D02*
X114252000Y-70205000D01*
X113744000Y-76301000D02*
X113744000Y-70205000D01*
X115268000Y-78841000D02*
X115268000Y-76301000D01*
X112728000Y-78841000D02*
X115268000Y-78841000D01*
X120348000Y-78841000D02*
X120348000Y-76301000D01*
X120348000Y-78841000D02*
X122888000Y-78841000D01*
X122888000Y-78841000D02*
X122888000Y-76301000D01*
X121364000Y-76301000D02*
X121364000Y-70205000D01*
X121364000Y-70205000D02*
X121872000Y-70205000D01*
X121872000Y-70205000D02*
X121872000Y-76301000D01*
X122888000Y-76301000D02*
X120348000Y-76301000D01*
X120348000Y-76301000D02*
X117808000Y-76301000D01*
X119332000Y-70205000D02*
X119332000Y-76301000D01*
X118824000Y-70205000D02*
X119332000Y-70205000D01*
X118824000Y-76301000D02*
X118824000Y-70205000D01*
X120348000Y-78841000D02*
X120348000Y-76301000D01*
X117808000Y-78841000D02*
X120348000Y-78841000D01*
X117808000Y-78841000D02*
X117808000Y-76301000D01*
X118022000Y-118921000D02*
X121070000Y-118921000D01*
X121070000Y-118921000D02*
X121070000Y-111809000D01*
X121070000Y-111809000D02*
X118022000Y-111809000D01*
X114974000Y-118921000D02*
X114212000Y-118921000D01*
X114212000Y-118921000D02*
X111926000Y-117397000D01*
X111926000Y-117397000D02*
X111926000Y-113333000D01*
X111926000Y-113333000D02*
X114212000Y-111809000D01*
X114212000Y-111809000D02*
X114974000Y-111809000D01*
D15*
X133523000Y-96605000D02*
X133523000Y-103005000D01*
X128473000Y-96605000D02*
X128473000Y-103005000D01*
X128473000Y-96605000D02*
G75*
G02X133523000Y-96605000I2525000J0D01*
G01*
X128473000Y-103005000D02*
G75*
G03X133523000Y-103005000I2525000J0D01*
G01*
X105943000Y-94015000D02*
X105943000Y-109795000D01*
X105943000Y-109795000D02*
X96593000Y-109795000D01*
X96593000Y-109795000D02*
X96593000Y-94015000D01*
X96593000Y-94015000D02*
X105943000Y-94015000D01*
X96343000Y-93765000D02*
X96343000Y-96305000D01*
X96343000Y-93765000D02*
X98883000Y-93765000D01*
D11*
X136998000Y-97290000D02*
X138998000Y-97290000D01*
X138998000Y-99440000D02*
X136998000Y-99440000D01*
X136998000Y-100290000D02*
X138998000Y-100290000D01*
X138998000Y-102440000D02*
X136998000Y-102440000D01*
X130423000Y-82365000D02*
X130423000Y-80365000D01*
X132573000Y-80365000D02*
X132573000Y-82365000D01*
X125423000Y-84865000D02*
X125423000Y-82865000D01*
X127573000Y-82865000D02*
X127573000Y-84865000D01*
X149998000Y-121440000D02*
X147998000Y-121440000D01*
X147998000Y-119290000D02*
X149998000Y-119290000D01*
X179073000Y-106365000D02*
X179073000Y-108365000D01*
X176923000Y-108365000D02*
X176923000Y-106365000D01*
X140208000Y-125095000D02*
X157988000Y-125095000D01*
X157988000Y-125095000D02*
X157988000Y-122555000D01*
X157988000Y-122555000D02*
X140208000Y-122555000D01*
X137388000Y-125375000D02*
X138938000Y-125375000D01*
X140208000Y-125095000D02*
X140208000Y-122555000D01*
X138938000Y-122275000D02*
X137388000Y-122275000D01*
X137388000Y-122275000D02*
X137388000Y-125375000D01*
X163068000Y-125095000D02*
X175768000Y-125095000D01*
X175768000Y-125095000D02*
X175768000Y-122555000D01*
X175768000Y-122555000D02*
X163068000Y-122555000D01*
X160248000Y-125375000D02*
X161798000Y-125375000D01*
X163068000Y-125095000D02*
X163068000Y-122555000D01*
X161798000Y-122275000D02*
X160248000Y-122275000D01*
X160248000Y-122275000D02*
X160248000Y-125375000D01*
X131064000Y-76835000D02*
X153924000Y-76835000D01*
X153924000Y-76835000D02*
X153924000Y-74295000D01*
X153924000Y-74295000D02*
X131064000Y-74295000D01*
X128244000Y-77115000D02*
X129794000Y-77115000D01*
X131064000Y-76835000D02*
X131064000Y-74295000D01*
X129794000Y-74015000D02*
X128244000Y-74015000D01*
X128244000Y-74015000D02*
X128244000Y-77115000D01*
X157988000Y-76835000D02*
X175768000Y-76835000D01*
X175768000Y-76835000D02*
X175768000Y-74295000D01*
X175768000Y-74295000D02*
X157988000Y-74295000D01*
X155168000Y-77115000D02*
X156718000Y-77115000D01*
X157988000Y-76835000D02*
X157988000Y-74295000D01*
X156718000Y-74015000D02*
X155168000Y-74015000D01*
X155168000Y-74015000D02*
X155168000Y-77115000D01*
X102998000Y-115890000D02*
X100998000Y-115890000D01*
X100998000Y-118840000D02*
X102998000Y-118840000D01*
X97647100Y-128182460D02*
X106347100Y-128182460D01*
X97647100Y-121777460D02*
X106347100Y-121777460D01*
X106347100Y-121777460D02*
X106347100Y-128182460D01*
X106347100Y-126952460D02*
X97647100Y-126952460D01*
X97647100Y-128182460D02*
X97647100Y-121777460D01*
X102728000Y-111095000D02*
X97648000Y-111095000D01*
X97648000Y-111095000D02*
X97648000Y-113635000D01*
X97648000Y-113635000D02*
X102728000Y-113635000D01*
X105548000Y-113915000D02*
X103998000Y-113915000D01*
X102728000Y-113635000D02*
X102728000Y-111095000D01*
X103998000Y-110815000D02*
X105548000Y-110815000D01*
X105548000Y-110815000D02*
X105548000Y-113915000D01*
D16*
X115098580Y-124164720D02*
X115098580Y-125764920D01*
X115098580Y-125764920D02*
X116297460Y-125764920D01*
X112599220Y-125764920D02*
X112599220Y-124263780D01*
X112599220Y-124263780D02*
X113498380Y-124263780D01*
X113498380Y-124263780D02*
X113699040Y-124263780D01*
X113699040Y-124263780D02*
X113897160Y-124365380D01*
X113897160Y-124365380D02*
X113998760Y-124566040D01*
X113998760Y-124566040D02*
X113998760Y-124764160D01*
X113998760Y-124764160D02*
X113798100Y-124964820D01*
X113798100Y-124964820D02*
X113498380Y-125063880D01*
X113498380Y-125063880D02*
X112599220Y-125063880D01*
X111397800Y-124365380D02*
X111197140Y-124263780D01*
X111197140Y-124263780D02*
X110696760Y-124263780D01*
X110696760Y-124263780D02*
X110397040Y-124365380D01*
X110397040Y-124365380D02*
X110198920Y-124464440D01*
X110198920Y-124464440D02*
X109998260Y-124764160D01*
X109998260Y-124764160D02*
X109998260Y-125063880D01*
X109998260Y-125063880D02*
X110097320Y-125465200D01*
X110097320Y-125465200D02*
X110397040Y-125665860D01*
X110397040Y-125665860D02*
X110696760Y-125764920D01*
X110696760Y-125764920D02*
X110999020Y-125764920D01*
X110999020Y-125764920D02*
X111496860Y-125665860D01*
X111496860Y-125665860D02*
X111496860Y-125165480D01*
X111496860Y-125165480D02*
X110999020Y-125165480D01*
X114798860Y-121665360D02*
X114798860Y-122965840D01*
X114798860Y-122965840D02*
X115098580Y-123163960D01*
X115098580Y-123163960D02*
X115398300Y-123163960D01*
X115398300Y-123163960D02*
X115797080Y-123163960D01*
X115797080Y-123163960D02*
X116096800Y-123064900D01*
X116096800Y-123064900D02*
X116297460Y-122965840D01*
X116297460Y-122965840D02*
X116297460Y-121665360D01*
X112197900Y-123163960D02*
X112197900Y-121665360D01*
X112197900Y-121665360D02*
X113699040Y-123163960D01*
X113699040Y-123163960D02*
X113699040Y-121665360D01*
X110999020Y-121764420D02*
X110696760Y-121665360D01*
X110696760Y-121665360D02*
X110198920Y-121764420D01*
X110198920Y-121764420D02*
X109797600Y-121965080D01*
X109797600Y-121965080D02*
X109596940Y-122363860D01*
X109596940Y-122363860D02*
X109698540Y-122765180D01*
X109698540Y-122765180D02*
X109998260Y-123064900D01*
X109998260Y-123064900D02*
X110498640Y-123265560D01*
X110498640Y-123265560D02*
X111197140Y-123064900D01*
X111197140Y-123064900D02*
X111197140Y-122564520D01*
X111197140Y-122564520D02*
X110696760Y-122564520D01*
X108934000Y-120817000D02*
X117062000Y-120817000D01*
X117062000Y-120817000D02*
X117062000Y-126405000D01*
X117062000Y-126405000D02*
X108934000Y-126405000D01*
X108934000Y-126405000D02*
X108934000Y-120817000D01*
D11*
X92459000Y-123114000D02*
X92459000Y-123876000D01*
X92459000Y-123876000D02*
X91570000Y-123495000D01*
X91570000Y-123495000D02*
X92459000Y-123114000D01*
X92459000Y-123114000D02*
X92332000Y-123749000D01*
X92332000Y-123749000D02*
X92332000Y-123241000D01*
X92332000Y-123241000D02*
X92205000Y-123749000D01*
X92205000Y-123749000D02*
X92205000Y-123241000D01*
X92205000Y-123241000D02*
X92078000Y-123622000D01*
X92078000Y-123622000D02*
X92078000Y-123368000D01*
X92078000Y-123368000D02*
X91951000Y-123622000D01*
X91951000Y-123622000D02*
X91951000Y-123368000D01*
X91951000Y-123368000D02*
X91824000Y-123495000D01*
X91316000Y-123495000D02*
X92586000Y-122987000D01*
X92586000Y-122987000D02*
X92586000Y-124003000D01*
X92586000Y-124003000D02*
X91316000Y-123495000D01*
X156236095Y-84637381D02*
X156236095Y-85446905D01*
X156283714Y-85542143D01*
X156331333Y-85589762D01*
X156426571Y-85637381D01*
X156617048Y-85637381D01*
X156712286Y-85589762D01*
X156759905Y-85542143D01*
X156807524Y-85446905D01*
X156807524Y-84637381D01*
X157236095Y-84732619D02*
X157283714Y-84685000D01*
X157378952Y-84637381D01*
X157617048Y-84637381D01*
X157712286Y-84685000D01*
X157759905Y-84732619D01*
X157807524Y-84827857D01*
X157807524Y-84923095D01*
X157759905Y-85065952D01*
X157188476Y-85637381D01*
X157807524Y-85637381D01*
X131831334Y-113722143D02*
X131783715Y-113769762D01*
X131640858Y-113817381D01*
X131545620Y-113817381D01*
X131402762Y-113769762D01*
X131307524Y-113674524D01*
X131259905Y-113579286D01*
X131212286Y-113388810D01*
X131212286Y-113245952D01*
X131259905Y-113055476D01*
X131307524Y-112960238D01*
X131402762Y-112865000D01*
X131545620Y-112817381D01*
X131640858Y-112817381D01*
X131783715Y-112865000D01*
X131831334Y-112912619D01*
X132783715Y-113817381D02*
X132212286Y-113817381D01*
X132498000Y-113817381D02*
X132498000Y-112817381D01*
X132402762Y-112960238D01*
X132307524Y-113055476D01*
X132212286Y-113103095D01*
X122017108Y-111635569D02*
X122779013Y-111635569D01*
X122398061Y-112016521D02*
X122398061Y-111254616D01*
X131831334Y-116722143D02*
X131783715Y-116769762D01*
X131640858Y-116817381D01*
X131545620Y-116817381D01*
X131402762Y-116769762D01*
X131307524Y-116674524D01*
X131259905Y-116579286D01*
X131212286Y-116388810D01*
X131212286Y-116245952D01*
X131259905Y-116055476D01*
X131307524Y-115960238D01*
X131402762Y-115865000D01*
X131545620Y-115817381D01*
X131640858Y-115817381D01*
X131783715Y-115865000D01*
X131831334Y-115912619D01*
X132212286Y-115912619D02*
X132259905Y-115865000D01*
X132355143Y-115817381D01*
X132593239Y-115817381D01*
X132688477Y-115865000D01*
X132736096Y-115912619D01*
X132783715Y-116007857D01*
X132783715Y-116103095D01*
X132736096Y-116245952D01*
X132164667Y-116817381D01*
X132783715Y-116817381D01*
X122017108Y-115135569D02*
X122779013Y-115135569D01*
X122398061Y-115516521D02*
X122398061Y-114754616D01*
X130831334Y-123722143D02*
X130783715Y-123769762D01*
X130640858Y-123817381D01*
X130545620Y-123817381D01*
X130402762Y-123769762D01*
X130307524Y-123674524D01*
X130259905Y-123579286D01*
X130212286Y-123388810D01*
X130212286Y-123245952D01*
X130259905Y-123055476D01*
X130307524Y-122960238D01*
X130402762Y-122865000D01*
X130545620Y-122817381D01*
X130640858Y-122817381D01*
X130783715Y-122865000D01*
X130831334Y-122912619D01*
X131164667Y-122817381D02*
X131783715Y-122817381D01*
X131450381Y-123198333D01*
X131593239Y-123198333D01*
X131688477Y-123245952D01*
X131736096Y-123293571D01*
X131783715Y-123388810D01*
X131783715Y-123626905D01*
X131736096Y-123722143D01*
X131688477Y-123769762D01*
X131593239Y-123817381D01*
X131307524Y-123817381D01*
X131212286Y-123769762D01*
X131164667Y-123722143D01*
X101331334Y-84222143D02*
X101283715Y-84269762D01*
X101140858Y-84317381D01*
X101045620Y-84317381D01*
X100902762Y-84269762D01*
X100807524Y-84174524D01*
X100759905Y-84079286D01*
X100712286Y-83888810D01*
X100712286Y-83745952D01*
X100759905Y-83555476D01*
X100807524Y-83460238D01*
X100902762Y-83365000D01*
X101045620Y-83317381D01*
X101140858Y-83317381D01*
X101283715Y-83365000D01*
X101331334Y-83412619D01*
X102188477Y-83650714D02*
X102188477Y-84317381D01*
X101950381Y-83269762D02*
X101712286Y-83984048D01*
X102331334Y-83984048D01*
X142355143Y-95531666D02*
X142402762Y-95579285D01*
X142450381Y-95722142D01*
X142450381Y-95817380D01*
X142402762Y-95960238D01*
X142307524Y-96055476D01*
X142212286Y-96103095D01*
X142021810Y-96150714D01*
X141878952Y-96150714D01*
X141688476Y-96103095D01*
X141593238Y-96055476D01*
X141498000Y-95960238D01*
X141450381Y-95817380D01*
X141450381Y-95722142D01*
X141498000Y-95579285D01*
X141545619Y-95531666D01*
X141450381Y-94626904D02*
X141450381Y-95103095D01*
X141926571Y-95150714D01*
X141878952Y-95103095D01*
X141831333Y-95007857D01*
X141831333Y-94769761D01*
X141878952Y-94674523D01*
X141926571Y-94626904D01*
X142021810Y-94579285D01*
X142259905Y-94579285D01*
X142355143Y-94626904D01*
X142402762Y-94674523D01*
X142450381Y-94769761D01*
X142450381Y-95007857D01*
X142402762Y-95103095D01*
X142355143Y-95150714D01*
X142355143Y-104531666D02*
X142402762Y-104579285D01*
X142450381Y-104722142D01*
X142450381Y-104817380D01*
X142402762Y-104960238D01*
X142307524Y-105055476D01*
X142212286Y-105103095D01*
X142021810Y-105150714D01*
X141878952Y-105150714D01*
X141688476Y-105103095D01*
X141593238Y-105055476D01*
X141498000Y-104960238D01*
X141450381Y-104817380D01*
X141450381Y-104722142D01*
X141498000Y-104579285D01*
X141545619Y-104531666D01*
X141450381Y-103674523D02*
X141450381Y-103865000D01*
X141498000Y-103960238D01*
X141545619Y-104007857D01*
X141688476Y-104103095D01*
X141878952Y-104150714D01*
X142259905Y-104150714D01*
X142355143Y-104103095D01*
X142402762Y-104055476D01*
X142450381Y-103960238D01*
X142450381Y-103769761D01*
X142402762Y-103674523D01*
X142355143Y-103626904D01*
X142259905Y-103579285D01*
X142021810Y-103579285D01*
X141926571Y-103626904D01*
X141878952Y-103674523D01*
X141831333Y-103769761D01*
X141831333Y-103960238D01*
X141878952Y-104055476D01*
X141926571Y-104103095D01*
X142021810Y-104150714D01*
X168331334Y-79722143D02*
X168283715Y-79769762D01*
X168140858Y-79817381D01*
X168045620Y-79817381D01*
X167902762Y-79769762D01*
X167807524Y-79674524D01*
X167759905Y-79579286D01*
X167712286Y-79388810D01*
X167712286Y-79245952D01*
X167759905Y-79055476D01*
X167807524Y-78960238D01*
X167902762Y-78865000D01*
X168045620Y-78817381D01*
X168140858Y-78817381D01*
X168283715Y-78865000D01*
X168331334Y-78912619D01*
X168664667Y-78817381D02*
X169331334Y-78817381D01*
X168902762Y-79817381D01*
X166831334Y-120222143D02*
X166783715Y-120269762D01*
X166640858Y-120317381D01*
X166545620Y-120317381D01*
X166402762Y-120269762D01*
X166307524Y-120174524D01*
X166259905Y-120079286D01*
X166212286Y-119888810D01*
X166212286Y-119745952D01*
X166259905Y-119555476D01*
X166307524Y-119460238D01*
X166402762Y-119365000D01*
X166545620Y-119317381D01*
X166640858Y-119317381D01*
X166783715Y-119365000D01*
X166831334Y-119412619D01*
X167402762Y-119745952D02*
X167307524Y-119698333D01*
X167259905Y-119650714D01*
X167212286Y-119555476D01*
X167212286Y-119507857D01*
X167259905Y-119412619D01*
X167307524Y-119365000D01*
X167402762Y-119317381D01*
X167593239Y-119317381D01*
X167688477Y-119365000D01*
X167736096Y-119412619D01*
X167783715Y-119507857D01*
X167783715Y-119555476D01*
X167736096Y-119650714D01*
X167688477Y-119698333D01*
X167593239Y-119745952D01*
X167402762Y-119745952D01*
X167307524Y-119793571D01*
X167259905Y-119841190D01*
X167212286Y-119936429D01*
X167212286Y-120126905D01*
X167259905Y-120222143D01*
X167307524Y-120269762D01*
X167402762Y-120317381D01*
X167593239Y-120317381D01*
X167688477Y-120269762D01*
X167736096Y-120222143D01*
X167783715Y-120126905D01*
X167783715Y-119936429D01*
X167736096Y-119841190D01*
X167688477Y-119793571D01*
X167593239Y-119745952D01*
X131355143Y-88531666D02*
X131402762Y-88579285D01*
X131450381Y-88722142D01*
X131450381Y-88817380D01*
X131402762Y-88960238D01*
X131307524Y-89055476D01*
X131212286Y-89103095D01*
X131021810Y-89150714D01*
X130878952Y-89150714D01*
X130688476Y-89103095D01*
X130593238Y-89055476D01*
X130498000Y-88960238D01*
X130450381Y-88817380D01*
X130450381Y-88722142D01*
X130498000Y-88579285D01*
X130545619Y-88531666D01*
X131450381Y-88055476D02*
X131450381Y-87865000D01*
X131402762Y-87769761D01*
X131355143Y-87722142D01*
X131212286Y-87626904D01*
X131021810Y-87579285D01*
X130640857Y-87579285D01*
X130545619Y-87626904D01*
X130498000Y-87674523D01*
X130450381Y-87769761D01*
X130450381Y-87960238D01*
X130498000Y-88055476D01*
X130545619Y-88103095D01*
X130640857Y-88150714D01*
X130878952Y-88150714D01*
X130974190Y-88103095D01*
X131021810Y-88055476D01*
X131069429Y-87960238D01*
X131069429Y-87769761D01*
X131021810Y-87674523D01*
X130974190Y-87626904D01*
X130878952Y-87579285D01*
X138355143Y-89422143D02*
X138307524Y-89469762D01*
X138164667Y-89517381D01*
X138069429Y-89517381D01*
X137926571Y-89469762D01*
X137831333Y-89374524D01*
X137783714Y-89279286D01*
X137736095Y-89088810D01*
X137736095Y-88945952D01*
X137783714Y-88755476D01*
X137831333Y-88660238D01*
X137926571Y-88565000D01*
X138069429Y-88517381D01*
X138164667Y-88517381D01*
X138307524Y-88565000D01*
X138355143Y-88612619D01*
X139307524Y-89517381D02*
X138736095Y-89517381D01*
X139021809Y-89517381D02*
X139021809Y-88517381D01*
X138926571Y-88660238D01*
X138831333Y-88755476D01*
X138736095Y-88803095D01*
X139926571Y-88517381D02*
X140021810Y-88517381D01*
X140117048Y-88565000D01*
X140164667Y-88612619D01*
X140212286Y-88707857D01*
X140259905Y-88898333D01*
X140259905Y-89136429D01*
X140212286Y-89326905D01*
X140164667Y-89422143D01*
X140117048Y-89469762D01*
X140021810Y-89517381D01*
X139926571Y-89517381D01*
X139831333Y-89469762D01*
X139783714Y-89422143D01*
X139736095Y-89326905D01*
X139688476Y-89136429D01*
X139688476Y-88898333D01*
X139736095Y-88707857D01*
X139783714Y-88612619D01*
X139831333Y-88565000D01*
X139926571Y-88517381D01*
X138355143Y-84422143D02*
X138307524Y-84469762D01*
X138164667Y-84517381D01*
X138069429Y-84517381D01*
X137926571Y-84469762D01*
X137831333Y-84374524D01*
X137783714Y-84279286D01*
X137736095Y-84088810D01*
X137736095Y-83945952D01*
X137783714Y-83755476D01*
X137831333Y-83660238D01*
X137926571Y-83565000D01*
X138069429Y-83517381D01*
X138164667Y-83517381D01*
X138307524Y-83565000D01*
X138355143Y-83612619D01*
X139307524Y-84517381D02*
X138736095Y-84517381D01*
X139021809Y-84517381D02*
X139021809Y-83517381D01*
X138926571Y-83660238D01*
X138831333Y-83755476D01*
X138736095Y-83803095D01*
X140259905Y-84517381D02*
X139688476Y-84517381D01*
X139974190Y-84517381D02*
X139974190Y-83517381D01*
X139878952Y-83660238D01*
X139783714Y-83755476D01*
X139688476Y-83803095D01*
X142855143Y-81722143D02*
X142807524Y-81769762D01*
X142664667Y-81817381D01*
X142569429Y-81817381D01*
X142426571Y-81769762D01*
X142331333Y-81674524D01*
X142283714Y-81579286D01*
X142236095Y-81388810D01*
X142236095Y-81245952D01*
X142283714Y-81055476D01*
X142331333Y-80960238D01*
X142426571Y-80865000D01*
X142569429Y-80817381D01*
X142664667Y-80817381D01*
X142807524Y-80865000D01*
X142855143Y-80912619D01*
X143807524Y-81817381D02*
X143236095Y-81817381D01*
X143521809Y-81817381D02*
X143521809Y-80817381D01*
X143426571Y-80960238D01*
X143331333Y-81055476D01*
X143236095Y-81103095D01*
X144188476Y-80912619D02*
X144236095Y-80865000D01*
X144331333Y-80817381D01*
X144569429Y-80817381D01*
X144664667Y-80865000D01*
X144712286Y-80912619D01*
X144759905Y-81007857D01*
X144759905Y-81103095D01*
X144712286Y-81245952D01*
X144140857Y-81817381D01*
X144759905Y-81817381D01*
X153355143Y-81722143D02*
X153307524Y-81769762D01*
X153164667Y-81817381D01*
X153069429Y-81817381D01*
X152926571Y-81769762D01*
X152831333Y-81674524D01*
X152783714Y-81579286D01*
X152736095Y-81388810D01*
X152736095Y-81245952D01*
X152783714Y-81055476D01*
X152831333Y-80960238D01*
X152926571Y-80865000D01*
X153069429Y-80817381D01*
X153164667Y-80817381D01*
X153307524Y-80865000D01*
X153355143Y-80912619D01*
X154307524Y-81817381D02*
X153736095Y-81817381D01*
X154021809Y-81817381D02*
X154021809Y-80817381D01*
X153926571Y-80960238D01*
X153831333Y-81055476D01*
X153736095Y-81103095D01*
X154640857Y-80817381D02*
X155259905Y-80817381D01*
X154926571Y-81198333D01*
X155069429Y-81198333D01*
X155164667Y-81245952D01*
X155212286Y-81293571D01*
X155259905Y-81388810D01*
X155259905Y-81626905D01*
X155212286Y-81722143D01*
X155164667Y-81769762D01*
X155069429Y-81817381D01*
X154783714Y-81817381D01*
X154688476Y-81769762D01*
X154640857Y-81722143D01*
X161355143Y-81722143D02*
X161307524Y-81769762D01*
X161164667Y-81817381D01*
X161069429Y-81817381D01*
X160926571Y-81769762D01*
X160831333Y-81674524D01*
X160783714Y-81579286D01*
X160736095Y-81388810D01*
X160736095Y-81245952D01*
X160783714Y-81055476D01*
X160831333Y-80960238D01*
X160926571Y-80865000D01*
X161069429Y-80817381D01*
X161164667Y-80817381D01*
X161307524Y-80865000D01*
X161355143Y-80912619D01*
X162307524Y-81817381D02*
X161736095Y-81817381D01*
X162021809Y-81817381D02*
X162021809Y-80817381D01*
X161926571Y-80960238D01*
X161831333Y-81055476D01*
X161736095Y-81103095D01*
X163164667Y-81150714D02*
X163164667Y-81817381D01*
X162926571Y-80769762D02*
X162688476Y-81484048D01*
X163307524Y-81484048D01*
X169355143Y-85472143D02*
X169307524Y-85519762D01*
X169164667Y-85567381D01*
X169069429Y-85567381D01*
X168926571Y-85519762D01*
X168831333Y-85424524D01*
X168783714Y-85329286D01*
X168736095Y-85138810D01*
X168736095Y-84995952D01*
X168783714Y-84805476D01*
X168831333Y-84710238D01*
X168926571Y-84615000D01*
X169069429Y-84567381D01*
X169164667Y-84567381D01*
X169307524Y-84615000D01*
X169355143Y-84662619D01*
X170307524Y-85567381D02*
X169736095Y-85567381D01*
X170021809Y-85567381D02*
X170021809Y-84567381D01*
X169926571Y-84710238D01*
X169831333Y-84805476D01*
X169736095Y-84853095D01*
X171212286Y-84567381D02*
X170736095Y-84567381D01*
X170688476Y-85043571D01*
X170736095Y-84995952D01*
X170831333Y-84948333D01*
X171069429Y-84948333D01*
X171164667Y-84995952D01*
X171212286Y-85043571D01*
X171259905Y-85138810D01*
X171259905Y-85376905D01*
X171212286Y-85472143D01*
X171164667Y-85519762D01*
X171069429Y-85567381D01*
X170831333Y-85567381D01*
X170736095Y-85519762D01*
X170688476Y-85472143D01*
X175355143Y-88507857D02*
X175402762Y-88555476D01*
X175450381Y-88698333D01*
X175450381Y-88793571D01*
X175402762Y-88936429D01*
X175307524Y-89031667D01*
X175212286Y-89079286D01*
X175021810Y-89126905D01*
X174878952Y-89126905D01*
X174688476Y-89079286D01*
X174593238Y-89031667D01*
X174498000Y-88936429D01*
X174450381Y-88793571D01*
X174450381Y-88698333D01*
X174498000Y-88555476D01*
X174545619Y-88507857D01*
X175450381Y-87555476D02*
X175450381Y-88126905D01*
X175450381Y-87841191D02*
X174450381Y-87841191D01*
X174593238Y-87936429D01*
X174688476Y-88031667D01*
X174736095Y-88126905D01*
X174450381Y-86698333D02*
X174450381Y-86888810D01*
X174498000Y-86984048D01*
X174545619Y-87031667D01*
X174688476Y-87126905D01*
X174878952Y-87174524D01*
X175259905Y-87174524D01*
X175355143Y-87126905D01*
X175402762Y-87079286D01*
X175450381Y-86984048D01*
X175450381Y-86793571D01*
X175402762Y-86698333D01*
X175355143Y-86650714D01*
X175259905Y-86603095D01*
X175021810Y-86603095D01*
X174926571Y-86650714D01*
X174878952Y-86698333D01*
X174831333Y-86793571D01*
X174831333Y-86984048D01*
X174878952Y-87079286D01*
X174926571Y-87126905D01*
X175021810Y-87174524D01*
X171855143Y-96007857D02*
X171902762Y-96055476D01*
X171950381Y-96198333D01*
X171950381Y-96293571D01*
X171902762Y-96436429D01*
X171807524Y-96531667D01*
X171712286Y-96579286D01*
X171521810Y-96626905D01*
X171378952Y-96626905D01*
X171188476Y-96579286D01*
X171093238Y-96531667D01*
X170998000Y-96436429D01*
X170950381Y-96293571D01*
X170950381Y-96198333D01*
X170998000Y-96055476D01*
X171045619Y-96007857D01*
X171950381Y-95055476D02*
X171950381Y-95626905D01*
X171950381Y-95341191D02*
X170950381Y-95341191D01*
X171093238Y-95436429D01*
X171188476Y-95531667D01*
X171236095Y-95626905D01*
X170950381Y-94722143D02*
X170950381Y-94055476D01*
X171950381Y-94484048D01*
X171855143Y-103507857D02*
X171902762Y-103555476D01*
X171950381Y-103698333D01*
X171950381Y-103793571D01*
X171902762Y-103936429D01*
X171807524Y-104031667D01*
X171712286Y-104079286D01*
X171521810Y-104126905D01*
X171378952Y-104126905D01*
X171188476Y-104079286D01*
X171093238Y-104031667D01*
X170998000Y-103936429D01*
X170950381Y-103793571D01*
X170950381Y-103698333D01*
X170998000Y-103555476D01*
X171045619Y-103507857D01*
X171950381Y-102555476D02*
X171950381Y-103126905D01*
X171950381Y-102841191D02*
X170950381Y-102841191D01*
X171093238Y-102936429D01*
X171188476Y-103031667D01*
X171236095Y-103126905D01*
X171378952Y-101984048D02*
X171331333Y-102079286D01*
X171283714Y-102126905D01*
X171188476Y-102174524D01*
X171140857Y-102174524D01*
X171045619Y-102126905D01*
X170998000Y-102079286D01*
X170950381Y-101984048D01*
X170950381Y-101793571D01*
X170998000Y-101698333D01*
X171045619Y-101650714D01*
X171140857Y-101603095D01*
X171188476Y-101603095D01*
X171283714Y-101650714D01*
X171331333Y-101698333D01*
X171378952Y-101793571D01*
X171378952Y-101984048D01*
X171426571Y-102079286D01*
X171474190Y-102126905D01*
X171569429Y-102174524D01*
X171759905Y-102174524D01*
X171855143Y-102126905D01*
X171902762Y-102079286D01*
X171950381Y-101984048D01*
X171950381Y-101793571D01*
X171902762Y-101698333D01*
X171855143Y-101650714D01*
X171759905Y-101603095D01*
X171569429Y-101603095D01*
X171474190Y-101650714D01*
X171426571Y-101698333D01*
X171378952Y-101793571D01*
X171855143Y-109507857D02*
X171902762Y-109555476D01*
X171950381Y-109698333D01*
X171950381Y-109793571D01*
X171902762Y-109936429D01*
X171807524Y-110031667D01*
X171712286Y-110079286D01*
X171521810Y-110126905D01*
X171378952Y-110126905D01*
X171188476Y-110079286D01*
X171093238Y-110031667D01*
X170998000Y-109936429D01*
X170950381Y-109793571D01*
X170950381Y-109698333D01*
X170998000Y-109555476D01*
X171045619Y-109507857D01*
X171950381Y-108555476D02*
X171950381Y-109126905D01*
X171950381Y-108841191D02*
X170950381Y-108841191D01*
X171093238Y-108936429D01*
X171188476Y-109031667D01*
X171236095Y-109126905D01*
X171950381Y-108079286D02*
X171950381Y-107888810D01*
X171902762Y-107793571D01*
X171855143Y-107745952D01*
X171712286Y-107650714D01*
X171521810Y-107603095D01*
X171140857Y-107603095D01*
X171045619Y-107650714D01*
X170998000Y-107698333D01*
X170950381Y-107793571D01*
X170950381Y-107984048D01*
X170998000Y-108079286D01*
X171045619Y-108126905D01*
X171140857Y-108174524D01*
X171378952Y-108174524D01*
X171474190Y-108126905D01*
X171521810Y-108079286D01*
X171569429Y-107984048D01*
X171569429Y-107793571D01*
X171521810Y-107698333D01*
X171474190Y-107650714D01*
X171378952Y-107603095D01*
X170355143Y-117722143D02*
X170307524Y-117769762D01*
X170164667Y-117817381D01*
X170069429Y-117817381D01*
X169926571Y-117769762D01*
X169831333Y-117674524D01*
X169783714Y-117579286D01*
X169736095Y-117388810D01*
X169736095Y-117245952D01*
X169783714Y-117055476D01*
X169831333Y-116960238D01*
X169926571Y-116865000D01*
X170069429Y-116817381D01*
X170164667Y-116817381D01*
X170307524Y-116865000D01*
X170355143Y-116912619D01*
X170736095Y-116912619D02*
X170783714Y-116865000D01*
X170878952Y-116817381D01*
X171117048Y-116817381D01*
X171212286Y-116865000D01*
X171259905Y-116912619D01*
X171307524Y-117007857D01*
X171307524Y-117103095D01*
X171259905Y-117245952D01*
X170688476Y-117817381D01*
X171307524Y-117817381D01*
X171926571Y-116817381D02*
X172021810Y-116817381D01*
X172117048Y-116865000D01*
X172164667Y-116912619D01*
X172212286Y-117007857D01*
X172259905Y-117198333D01*
X172259905Y-117436429D01*
X172212286Y-117626905D01*
X172164667Y-117722143D01*
X172117048Y-117769762D01*
X172021810Y-117817381D01*
X171926571Y-117817381D01*
X171831333Y-117769762D01*
X171783714Y-117722143D01*
X171736095Y-117626905D01*
X171688476Y-117436429D01*
X171688476Y-117198333D01*
X171736095Y-117007857D01*
X171783714Y-116912619D01*
X171831333Y-116865000D01*
X171926571Y-116817381D01*
X163355143Y-118022143D02*
X163307524Y-118069762D01*
X163164667Y-118117381D01*
X163069429Y-118117381D01*
X162926571Y-118069762D01*
X162831333Y-117974524D01*
X162783714Y-117879286D01*
X162736095Y-117688810D01*
X162736095Y-117545952D01*
X162783714Y-117355476D01*
X162831333Y-117260238D01*
X162926571Y-117165000D01*
X163069429Y-117117381D01*
X163164667Y-117117381D01*
X163307524Y-117165000D01*
X163355143Y-117212619D01*
X163736095Y-117212619D02*
X163783714Y-117165000D01*
X163878952Y-117117381D01*
X164117048Y-117117381D01*
X164212286Y-117165000D01*
X164259905Y-117212619D01*
X164307524Y-117307857D01*
X164307524Y-117403095D01*
X164259905Y-117545952D01*
X163688476Y-118117381D01*
X164307524Y-118117381D01*
X165259905Y-118117381D02*
X164688476Y-118117381D01*
X164974190Y-118117381D02*
X164974190Y-117117381D01*
X164878952Y-117260238D01*
X164783714Y-117355476D01*
X164688476Y-117403095D01*
X156355143Y-117722143D02*
X156307524Y-117769762D01*
X156164667Y-117817381D01*
X156069429Y-117817381D01*
X155926571Y-117769762D01*
X155831333Y-117674524D01*
X155783714Y-117579286D01*
X155736095Y-117388810D01*
X155736095Y-117245952D01*
X155783714Y-117055476D01*
X155831333Y-116960238D01*
X155926571Y-116865000D01*
X156069429Y-116817381D01*
X156164667Y-116817381D01*
X156307524Y-116865000D01*
X156355143Y-116912619D01*
X156736095Y-116912619D02*
X156783714Y-116865000D01*
X156878952Y-116817381D01*
X157117048Y-116817381D01*
X157212286Y-116865000D01*
X157259905Y-116912619D01*
X157307524Y-117007857D01*
X157307524Y-117103095D01*
X157259905Y-117245952D01*
X156688476Y-117817381D01*
X157307524Y-117817381D01*
X157688476Y-116912619D02*
X157736095Y-116865000D01*
X157831333Y-116817381D01*
X158069429Y-116817381D01*
X158164667Y-116865000D01*
X158212286Y-116912619D01*
X158259905Y-117007857D01*
X158259905Y-117103095D01*
X158212286Y-117245952D01*
X157640857Y-117817381D01*
X158259905Y-117817381D01*
X148355143Y-118022143D02*
X148307524Y-118069762D01*
X148164667Y-118117381D01*
X148069429Y-118117381D01*
X147926571Y-118069762D01*
X147831333Y-117974524D01*
X147783714Y-117879286D01*
X147736095Y-117688810D01*
X147736095Y-117545952D01*
X147783714Y-117355476D01*
X147831333Y-117260238D01*
X147926571Y-117165000D01*
X148069429Y-117117381D01*
X148164667Y-117117381D01*
X148307524Y-117165000D01*
X148355143Y-117212619D01*
X148736095Y-117212619D02*
X148783714Y-117165000D01*
X148878952Y-117117381D01*
X149117048Y-117117381D01*
X149212286Y-117165000D01*
X149259905Y-117212619D01*
X149307524Y-117307857D01*
X149307524Y-117403095D01*
X149259905Y-117545952D01*
X148688476Y-118117381D01*
X149307524Y-118117381D01*
X149640857Y-117117381D02*
X150259905Y-117117381D01*
X149926571Y-117498333D01*
X150069429Y-117498333D01*
X150164667Y-117545952D01*
X150212286Y-117593571D01*
X150259905Y-117688810D01*
X150259905Y-117926905D01*
X150212286Y-118022143D01*
X150164667Y-118069762D01*
X150069429Y-118117381D01*
X149783714Y-118117381D01*
X149688476Y-118069762D01*
X149640857Y-118022143D01*
X142355143Y-109007857D02*
X142402762Y-109055476D01*
X142450381Y-109198333D01*
X142450381Y-109293571D01*
X142402762Y-109436429D01*
X142307524Y-109531667D01*
X142212286Y-109579286D01*
X142021810Y-109626905D01*
X141878952Y-109626905D01*
X141688476Y-109579286D01*
X141593238Y-109531667D01*
X141498000Y-109436429D01*
X141450381Y-109293571D01*
X141450381Y-109198333D01*
X141498000Y-109055476D01*
X141545619Y-109007857D01*
X141545619Y-108626905D02*
X141498000Y-108579286D01*
X141450381Y-108484048D01*
X141450381Y-108245952D01*
X141498000Y-108150714D01*
X141545619Y-108103095D01*
X141640857Y-108055476D01*
X141736095Y-108055476D01*
X141878952Y-108103095D01*
X142450381Y-108674524D01*
X142450381Y-108055476D01*
X141783714Y-107198333D02*
X142450381Y-107198333D01*
X141402762Y-107436429D02*
X142117048Y-107674524D01*
X142117048Y-107055476D01*
X142355143Y-113007857D02*
X142402762Y-113055476D01*
X142450381Y-113198333D01*
X142450381Y-113293571D01*
X142402762Y-113436429D01*
X142307524Y-113531667D01*
X142212286Y-113579286D01*
X142021810Y-113626905D01*
X141878952Y-113626905D01*
X141688476Y-113579286D01*
X141593238Y-113531667D01*
X141498000Y-113436429D01*
X141450381Y-113293571D01*
X141450381Y-113198333D01*
X141498000Y-113055476D01*
X141545619Y-113007857D01*
X141545619Y-112626905D02*
X141498000Y-112579286D01*
X141450381Y-112484048D01*
X141450381Y-112245952D01*
X141498000Y-112150714D01*
X141545619Y-112103095D01*
X141640857Y-112055476D01*
X141736095Y-112055476D01*
X141878952Y-112103095D01*
X142450381Y-112674524D01*
X142450381Y-112055476D01*
X141450381Y-111150714D02*
X141450381Y-111626905D01*
X141926571Y-111674524D01*
X141878952Y-111626905D01*
X141831333Y-111531667D01*
X141831333Y-111293571D01*
X141878952Y-111198333D01*
X141926571Y-111150714D01*
X142021810Y-111103095D01*
X142259905Y-111103095D01*
X142355143Y-111150714D01*
X142402762Y-111198333D01*
X142450381Y-111293571D01*
X142450381Y-111531667D01*
X142402762Y-111626905D01*
X142355143Y-111674524D01*
X139855143Y-118722143D02*
X139807524Y-118769762D01*
X139664667Y-118817381D01*
X139569429Y-118817381D01*
X139426571Y-118769762D01*
X139331333Y-118674524D01*
X139283714Y-118579286D01*
X139236095Y-118388810D01*
X139236095Y-118245952D01*
X139283714Y-118055476D01*
X139331333Y-117960238D01*
X139426571Y-117865000D01*
X139569429Y-117817381D01*
X139664667Y-117817381D01*
X139807524Y-117865000D01*
X139855143Y-117912619D01*
X140236095Y-117912619D02*
X140283714Y-117865000D01*
X140378952Y-117817381D01*
X140617048Y-117817381D01*
X140712286Y-117865000D01*
X140759905Y-117912619D01*
X140807524Y-118007857D01*
X140807524Y-118103095D01*
X140759905Y-118245952D01*
X140188476Y-118817381D01*
X140807524Y-118817381D01*
X141664667Y-117817381D02*
X141474190Y-117817381D01*
X141378952Y-117865000D01*
X141331333Y-117912619D01*
X141236095Y-118055476D01*
X141188476Y-118245952D01*
X141188476Y-118626905D01*
X141236095Y-118722143D01*
X141283714Y-118769762D01*
X141378952Y-118817381D01*
X141569429Y-118817381D01*
X141664667Y-118769762D01*
X141712286Y-118722143D01*
X141759905Y-118626905D01*
X141759905Y-118388810D01*
X141712286Y-118293571D01*
X141664667Y-118245952D01*
X141569429Y-118198333D01*
X141378952Y-118198333D01*
X141283714Y-118245952D01*
X141236095Y-118293571D01*
X141188476Y-118388810D01*
X117259905Y-109817381D02*
X117259905Y-108817381D01*
X117498000Y-108817381D01*
X117640858Y-108865000D01*
X117736096Y-108960238D01*
X117783715Y-109055476D01*
X117831334Y-109245952D01*
X117831334Y-109388810D01*
X117783715Y-109579286D01*
X117736096Y-109674524D01*
X117640858Y-109769762D01*
X117498000Y-109817381D01*
X117259905Y-109817381D01*
X118783715Y-109817381D02*
X118212286Y-109817381D01*
X118498000Y-109817381D02*
X118498000Y-108817381D01*
X118402762Y-108960238D01*
X118307524Y-109055476D01*
X118212286Y-109103095D01*
X98259905Y-90817381D02*
X98259905Y-89817381D01*
X98498000Y-89817381D01*
X98640858Y-89865000D01*
X98736096Y-89960238D01*
X98783715Y-90055476D01*
X98831334Y-90245952D01*
X98831334Y-90388810D01*
X98783715Y-90579286D01*
X98736096Y-90674524D01*
X98640858Y-90769762D01*
X98498000Y-90817381D01*
X98259905Y-90817381D01*
X99212286Y-89912619D02*
X99259905Y-89865000D01*
X99355143Y-89817381D01*
X99593239Y-89817381D01*
X99688477Y-89865000D01*
X99736096Y-89912619D01*
X99783715Y-90007857D01*
X99783715Y-90103095D01*
X99736096Y-90245952D01*
X99164667Y-90817381D01*
X99783715Y-90817381D01*
X132831334Y-108817381D02*
X132498000Y-108341190D01*
X132259905Y-108817381D02*
X132259905Y-107817381D01*
X132640858Y-107817381D01*
X132736096Y-107865000D01*
X132783715Y-107912619D01*
X132831334Y-108007857D01*
X132831334Y-108150714D01*
X132783715Y-108245952D01*
X132736096Y-108293571D01*
X132640858Y-108341190D01*
X132259905Y-108341190D01*
X133783715Y-108817381D02*
X133212286Y-108817381D01*
X133498000Y-108817381D02*
X133498000Y-107817381D01*
X133402762Y-107960238D01*
X133307524Y-108055476D01*
X133212286Y-108103095D01*
X106831334Y-84517381D02*
X106498000Y-84041190D01*
X106259905Y-84517381D02*
X106259905Y-83517381D01*
X106640858Y-83517381D01*
X106736096Y-83565000D01*
X106783715Y-83612619D01*
X106831334Y-83707857D01*
X106831334Y-83850714D01*
X106783715Y-83945952D01*
X106736096Y-83993571D01*
X106640858Y-84041190D01*
X106259905Y-84041190D01*
X107212286Y-83612619D02*
X107259905Y-83565000D01*
X107355143Y-83517381D01*
X107593239Y-83517381D01*
X107688477Y-83565000D01*
X107736096Y-83612619D01*
X107783715Y-83707857D01*
X107783715Y-83803095D01*
X107736096Y-83945952D01*
X107164667Y-84517381D01*
X107783715Y-84517381D01*
X126450381Y-103531666D02*
X125974190Y-103865000D01*
X126450381Y-104103095D02*
X125450381Y-104103095D01*
X125450381Y-103722142D01*
X125498000Y-103626904D01*
X125545619Y-103579285D01*
X125640857Y-103531666D01*
X125783714Y-103531666D01*
X125878952Y-103579285D01*
X125926571Y-103626904D01*
X125974190Y-103722142D01*
X125974190Y-104103095D01*
X126450381Y-103055476D02*
X126450381Y-102865000D01*
X126402762Y-102769761D01*
X126355143Y-102722142D01*
X126212286Y-102626904D01*
X126021810Y-102579285D01*
X125640857Y-102579285D01*
X125545619Y-102626904D01*
X125498000Y-102674523D01*
X125450381Y-102769761D01*
X125450381Y-102960238D01*
X125498000Y-103055476D01*
X125545619Y-103103095D01*
X125640857Y-103150714D01*
X125878952Y-103150714D01*
X125974190Y-103103095D01*
X126021810Y-103055476D01*
X126069429Y-102960238D01*
X126069429Y-102769761D01*
X126021810Y-102674523D01*
X125974190Y-102626904D01*
X125878952Y-102579285D01*
X119355143Y-105817381D02*
X119021809Y-105341190D01*
X118783714Y-105817381D02*
X118783714Y-104817381D01*
X119164667Y-104817381D01*
X119259905Y-104865000D01*
X119307524Y-104912619D01*
X119355143Y-105007857D01*
X119355143Y-105150714D01*
X119307524Y-105245952D01*
X119259905Y-105293571D01*
X119164667Y-105341190D01*
X118783714Y-105341190D01*
X120307524Y-105817381D02*
X119736095Y-105817381D01*
X120021809Y-105817381D02*
X120021809Y-104817381D01*
X119926571Y-104960238D01*
X119831333Y-105055476D01*
X119736095Y-105103095D01*
X120926571Y-104817381D02*
X121021810Y-104817381D01*
X121117048Y-104865000D01*
X121164667Y-104912619D01*
X121212286Y-105007857D01*
X121259905Y-105198333D01*
X121259905Y-105436429D01*
X121212286Y-105626905D01*
X121164667Y-105722143D01*
X121117048Y-105769762D01*
X121021810Y-105817381D01*
X120926571Y-105817381D01*
X120831333Y-105769762D01*
X120783714Y-105722143D01*
X120736095Y-105626905D01*
X120688476Y-105436429D01*
X120688476Y-105198333D01*
X120736095Y-105007857D01*
X120783714Y-104912619D01*
X120831333Y-104865000D01*
X120926571Y-104817381D01*
X152855143Y-79817381D02*
X152521809Y-79341190D01*
X152283714Y-79817381D02*
X152283714Y-78817381D01*
X152664667Y-78817381D01*
X152759905Y-78865000D01*
X152807524Y-78912619D01*
X152855143Y-79007857D01*
X152855143Y-79150714D01*
X152807524Y-79245952D01*
X152759905Y-79293571D01*
X152664667Y-79341190D01*
X152283714Y-79341190D01*
X153807524Y-79817381D02*
X153236095Y-79817381D01*
X153521809Y-79817381D02*
X153521809Y-78817381D01*
X153426571Y-78960238D01*
X153331333Y-79055476D01*
X153236095Y-79103095D01*
X154759905Y-79817381D02*
X154188476Y-79817381D01*
X154474190Y-79817381D02*
X154474190Y-78817381D01*
X154378952Y-78960238D01*
X154283714Y-79055476D01*
X154188476Y-79103095D01*
X113650381Y-102007857D02*
X113174190Y-102341191D01*
X113650381Y-102579286D02*
X112650381Y-102579286D01*
X112650381Y-102198333D01*
X112698000Y-102103095D01*
X112745619Y-102055476D01*
X112840857Y-102007857D01*
X112983714Y-102007857D01*
X113078952Y-102055476D01*
X113126571Y-102103095D01*
X113174190Y-102198333D01*
X113174190Y-102579286D01*
X113650381Y-101055476D02*
X113650381Y-101626905D01*
X113650381Y-101341191D02*
X112650381Y-101341191D01*
X112793238Y-101436429D01*
X112888476Y-101531667D01*
X112936095Y-101626905D01*
X112745619Y-100674524D02*
X112698000Y-100626905D01*
X112650381Y-100531667D01*
X112650381Y-100293571D01*
X112698000Y-100198333D01*
X112745619Y-100150714D01*
X112840857Y-100103095D01*
X112936095Y-100103095D01*
X113078952Y-100150714D01*
X113650381Y-100722143D01*
X113650381Y-100103095D01*
X137355143Y-78817381D02*
X137021809Y-78341190D01*
X136783714Y-78817381D02*
X136783714Y-77817381D01*
X137164667Y-77817381D01*
X137259905Y-77865000D01*
X137307524Y-77912619D01*
X137355143Y-78007857D01*
X137355143Y-78150714D01*
X137307524Y-78245952D01*
X137259905Y-78293571D01*
X137164667Y-78341190D01*
X136783714Y-78341190D01*
X138307524Y-78817381D02*
X137736095Y-78817381D01*
X138021809Y-78817381D02*
X138021809Y-77817381D01*
X137926571Y-77960238D01*
X137831333Y-78055476D01*
X137736095Y-78103095D01*
X138640857Y-77817381D02*
X139259905Y-77817381D01*
X138926571Y-78198333D01*
X139069429Y-78198333D01*
X139164667Y-78245952D01*
X139212286Y-78293571D01*
X139259905Y-78388810D01*
X139259905Y-78626905D01*
X139212286Y-78722143D01*
X139164667Y-78769762D01*
X139069429Y-78817381D01*
X138783714Y-78817381D01*
X138688476Y-78769762D01*
X138640857Y-78722143D01*
X97355143Y-85817381D02*
X97021809Y-85341190D01*
X96783714Y-85817381D02*
X96783714Y-84817381D01*
X97164667Y-84817381D01*
X97259905Y-84865000D01*
X97307524Y-84912619D01*
X97355143Y-85007857D01*
X97355143Y-85150714D01*
X97307524Y-85245952D01*
X97259905Y-85293571D01*
X97164667Y-85341190D01*
X96783714Y-85341190D01*
X98307524Y-85817381D02*
X97736095Y-85817381D01*
X98021809Y-85817381D02*
X98021809Y-84817381D01*
X97926571Y-84960238D01*
X97831333Y-85055476D01*
X97736095Y-85103095D01*
X99164667Y-85150714D02*
X99164667Y-85817381D01*
X98926571Y-84769762D02*
X98688476Y-85484048D01*
X99307524Y-85484048D01*
X111950381Y-112126905D02*
X112759905Y-112126905D01*
X112855143Y-112079286D01*
X112902762Y-112031667D01*
X112950381Y-111936429D01*
X112950381Y-111745952D01*
X112902762Y-111650714D01*
X112855143Y-111603095D01*
X112759905Y-111555476D01*
X111950381Y-111555476D01*
X112950381Y-110555476D02*
X112950381Y-111126905D01*
X112950381Y-110841191D02*
X111950381Y-110841191D01*
X112093238Y-110936429D01*
X112188476Y-111031667D01*
X112236095Y-111126905D01*
X119093238Y-121277381D02*
X119331333Y-122277381D01*
X119521810Y-121563095D01*
X119712286Y-122277381D01*
X119950381Y-121277381D01*
X120855143Y-122277381D02*
X120283714Y-122277381D01*
X120569428Y-122277381D02*
X120569428Y-121277381D01*
X120474190Y-121420238D01*
X120378952Y-121515476D01*
X120283714Y-121563095D01*
X126450381Y-100555476D02*
X127450381Y-99888809D01*
X126450381Y-99888809D02*
X127450381Y-100555476D01*
X126450381Y-99650714D02*
X126450381Y-99079285D01*
X127450381Y-99365000D02*
X126450381Y-99365000D01*
X127450381Y-98222142D02*
X127450381Y-98793571D01*
X127450381Y-98507857D02*
X126450381Y-98507857D01*
X126593238Y-98603095D01*
X126688476Y-98698333D01*
X126736095Y-98793571D01*
X95164667Y-101067381D02*
X95164667Y-101781667D01*
X95117047Y-101924524D01*
X95021809Y-102019762D01*
X94878952Y-102067381D01*
X94783714Y-102067381D01*
X96164667Y-102067381D02*
X95593238Y-102067381D01*
X95878952Y-102067381D02*
X95878952Y-101067381D01*
X95783714Y-101210238D01*
X95688476Y-101305476D01*
X95593238Y-101353095D01*
X142450381Y-98531666D02*
X141974190Y-98865000D01*
X142450381Y-99103095D02*
X141450381Y-99103095D01*
X141450381Y-98722142D01*
X141498000Y-98626904D01*
X141545619Y-98579285D01*
X141640857Y-98531666D01*
X141783714Y-98531666D01*
X141878952Y-98579285D01*
X141926571Y-98626904D01*
X141974190Y-98722142D01*
X141974190Y-99103095D01*
X141450381Y-98198333D02*
X141450381Y-97579285D01*
X141831333Y-97912619D01*
X141831333Y-97769761D01*
X141878952Y-97674523D01*
X141926571Y-97626904D01*
X142021810Y-97579285D01*
X142259905Y-97579285D01*
X142355143Y-97626904D01*
X142402762Y-97674523D01*
X142450381Y-97769761D01*
X142450381Y-98055476D01*
X142402762Y-98150714D01*
X142355143Y-98198333D01*
X142450381Y-101531666D02*
X141974190Y-101865000D01*
X142450381Y-102103095D02*
X141450381Y-102103095D01*
X141450381Y-101722142D01*
X141498000Y-101626904D01*
X141545619Y-101579285D01*
X141640857Y-101531666D01*
X141783714Y-101531666D01*
X141878952Y-101579285D01*
X141926571Y-101626904D01*
X141974190Y-101722142D01*
X141974190Y-102103095D01*
X141783714Y-100674523D02*
X142450381Y-100674523D01*
X141402762Y-100912619D02*
X142117048Y-101150714D01*
X142117048Y-100531666D01*
X129950381Y-81531666D02*
X129474190Y-81865000D01*
X129950381Y-82103095D02*
X128950381Y-82103095D01*
X128950381Y-81722142D01*
X128998000Y-81626904D01*
X129045619Y-81579285D01*
X129140857Y-81531666D01*
X129283714Y-81531666D01*
X129378952Y-81579285D01*
X129426571Y-81626904D01*
X129474190Y-81722142D01*
X129474190Y-82103095D01*
X128950381Y-80626904D02*
X128950381Y-81103095D01*
X129426571Y-81150714D01*
X129378952Y-81103095D01*
X129331333Y-81007857D01*
X129331333Y-80769761D01*
X129378952Y-80674523D01*
X129426571Y-80626904D01*
X129521810Y-80579285D01*
X129759905Y-80579285D01*
X129855143Y-80626904D01*
X129902762Y-80674523D01*
X129950381Y-80769761D01*
X129950381Y-81007857D01*
X129902762Y-81103095D01*
X129855143Y-81150714D01*
X124950381Y-84031666D02*
X124474190Y-84365000D01*
X124950381Y-84603095D02*
X123950381Y-84603095D01*
X123950381Y-84222142D01*
X123998000Y-84126904D01*
X124045619Y-84079285D01*
X124140857Y-84031666D01*
X124283714Y-84031666D01*
X124378952Y-84079285D01*
X124426571Y-84126904D01*
X124474190Y-84222142D01*
X124474190Y-84603095D01*
X123950381Y-83174523D02*
X123950381Y-83365000D01*
X123998000Y-83460238D01*
X124045619Y-83507857D01*
X124188476Y-83603095D01*
X124378952Y-83650714D01*
X124759905Y-83650714D01*
X124855143Y-83603095D01*
X124902762Y-83555476D01*
X124950381Y-83460238D01*
X124950381Y-83269761D01*
X124902762Y-83174523D01*
X124855143Y-83126904D01*
X124759905Y-83079285D01*
X124521810Y-83079285D01*
X124426571Y-83126904D01*
X124378952Y-83174523D01*
X124331333Y-83269761D01*
X124331333Y-83460238D01*
X124378952Y-83555476D01*
X124426571Y-83603095D01*
X124521810Y-83650714D01*
X153331334Y-120817381D02*
X152998000Y-120341190D01*
X152759905Y-120817381D02*
X152759905Y-119817381D01*
X153140858Y-119817381D01*
X153236096Y-119865000D01*
X153283715Y-119912619D01*
X153331334Y-120007857D01*
X153331334Y-120150714D01*
X153283715Y-120245952D01*
X153236096Y-120293571D01*
X153140858Y-120341190D01*
X152759905Y-120341190D01*
X153664667Y-119817381D02*
X154331334Y-119817381D01*
X153902762Y-120817381D01*
X177831334Y-111817381D02*
X177498000Y-111341190D01*
X177259905Y-111817381D02*
X177259905Y-110817381D01*
X177640858Y-110817381D01*
X177736096Y-110865000D01*
X177783715Y-110912619D01*
X177831334Y-111007857D01*
X177831334Y-111150714D01*
X177783715Y-111245952D01*
X177736096Y-111293571D01*
X177640858Y-111341190D01*
X177259905Y-111341190D01*
X178402762Y-111245952D02*
X178307524Y-111198333D01*
X178259905Y-111150714D01*
X178212286Y-111055476D01*
X178212286Y-111007857D01*
X178259905Y-110912619D01*
X178307524Y-110865000D01*
X178402762Y-110817381D01*
X178593239Y-110817381D01*
X178688477Y-110865000D01*
X178736096Y-110912619D01*
X178783715Y-111007857D01*
X178783715Y-111055476D01*
X178736096Y-111150714D01*
X178688477Y-111198333D01*
X178593239Y-111245952D01*
X178402762Y-111245952D01*
X178307524Y-111293571D01*
X178259905Y-111341190D01*
X178212286Y-111436429D01*
X178212286Y-111626905D01*
X178259905Y-111722143D01*
X178307524Y-111769762D01*
X178402762Y-111817381D01*
X178593239Y-111817381D01*
X178688477Y-111769762D01*
X178736096Y-111722143D01*
X178783715Y-111626905D01*
X178783715Y-111436429D01*
X178736096Y-111341190D01*
X178688477Y-111293571D01*
X178593239Y-111245952D01*
X137259905Y-126817381D02*
X137259905Y-125817381D01*
X137640858Y-125817381D01*
X137736096Y-125865000D01*
X137783715Y-125912619D01*
X137831334Y-126007857D01*
X137831334Y-126150714D01*
X137783715Y-126245952D01*
X137736096Y-126293571D01*
X137640858Y-126341190D01*
X137259905Y-126341190D01*
X138783715Y-126817381D02*
X138212286Y-126817381D01*
X138498000Y-126817381D02*
X138498000Y-125817381D01*
X138402762Y-125960238D01*
X138307524Y-126055476D01*
X138212286Y-126103095D01*
X160259905Y-126817381D02*
X160259905Y-125817381D01*
X160640858Y-125817381D01*
X160736096Y-125865000D01*
X160783715Y-125912619D01*
X160831334Y-126007857D01*
X160831334Y-126150714D01*
X160783715Y-126245952D01*
X160736096Y-126293571D01*
X160640858Y-126341190D01*
X160259905Y-126341190D01*
X161212286Y-125912619D02*
X161259905Y-125865000D01*
X161355143Y-125817381D01*
X161593239Y-125817381D01*
X161688477Y-125865000D01*
X161736096Y-125912619D01*
X161783715Y-126007857D01*
X161783715Y-126103095D01*
X161736096Y-126245952D01*
X161164667Y-126817381D01*
X161783715Y-126817381D01*
X128259905Y-72817381D02*
X128259905Y-71817381D01*
X128640858Y-71817381D01*
X128736096Y-71865000D01*
X128783715Y-71912619D01*
X128831334Y-72007857D01*
X128831334Y-72150714D01*
X128783715Y-72245952D01*
X128736096Y-72293571D01*
X128640858Y-72341190D01*
X128259905Y-72341190D01*
X129164667Y-71817381D02*
X129783715Y-71817381D01*
X129450381Y-72198333D01*
X129593239Y-72198333D01*
X129688477Y-72245952D01*
X129736096Y-72293571D01*
X129783715Y-72388810D01*
X129783715Y-72626905D01*
X129736096Y-72722143D01*
X129688477Y-72769762D01*
X129593239Y-72817381D01*
X129307524Y-72817381D01*
X129212286Y-72769762D01*
X129164667Y-72722143D01*
X155259905Y-72817381D02*
X155259905Y-71817381D01*
X155640858Y-71817381D01*
X155736096Y-71865000D01*
X155783715Y-71912619D01*
X155831334Y-72007857D01*
X155831334Y-72150714D01*
X155783715Y-72245952D01*
X155736096Y-72293571D01*
X155640858Y-72341190D01*
X155259905Y-72341190D01*
X156688477Y-72150714D02*
X156688477Y-72817381D01*
X156450381Y-71769762D02*
X156212286Y-72484048D01*
X156831334Y-72484048D01*
X124229905Y-124777381D02*
X124229905Y-123777381D01*
X124610858Y-123777381D01*
X124706096Y-123825000D01*
X124753715Y-123872619D01*
X124801334Y-123967857D01*
X124801334Y-124110714D01*
X124753715Y-124205952D01*
X124706096Y-124253571D01*
X124610858Y-124301190D01*
X124229905Y-124301190D01*
X125706096Y-123777381D02*
X125229905Y-123777381D01*
X125182286Y-124253571D01*
X125229905Y-124205952D01*
X125325143Y-124158333D01*
X125563239Y-124158333D01*
X125658477Y-124205952D01*
X125706096Y-124253571D01*
X125753715Y-124348810D01*
X125753715Y-124586905D01*
X125706096Y-124682143D01*
X125658477Y-124729762D01*
X125563239Y-124777381D01*
X125325143Y-124777381D01*
X125229905Y-124729762D01*
X125182286Y-124682143D01*
X176299905Y-119697381D02*
X176299905Y-118697381D01*
X176680858Y-118697381D01*
X176776096Y-118745000D01*
X176823715Y-118792619D01*
X176871334Y-118887857D01*
X176871334Y-119030714D01*
X176823715Y-119125952D01*
X176776096Y-119173571D01*
X176680858Y-119221190D01*
X176299905Y-119221190D01*
X177728477Y-118697381D02*
X177538000Y-118697381D01*
X177442762Y-118745000D01*
X177395143Y-118792619D01*
X177299905Y-118935476D01*
X177252286Y-119125952D01*
X177252286Y-119506905D01*
X177299905Y-119602143D01*
X177347524Y-119649762D01*
X177442762Y-119697381D01*
X177633239Y-119697381D01*
X177728477Y-119649762D01*
X177776096Y-119602143D01*
X177823715Y-119506905D01*
X177823715Y-119268810D01*
X177776096Y-119173571D01*
X177728477Y-119125952D01*
X177633239Y-119078333D01*
X177442762Y-119078333D01*
X177347524Y-119125952D01*
X177299905Y-119173571D01*
X177252286Y-119268810D01*
X125499905Y-76517381D02*
X125499905Y-75517381D01*
X125880858Y-75517381D01*
X125976096Y-75565000D01*
X126023715Y-75612619D01*
X126071334Y-75707857D01*
X126071334Y-75850714D01*
X126023715Y-75945952D01*
X125976096Y-75993571D01*
X125880858Y-76041190D01*
X125499905Y-76041190D01*
X126404667Y-75517381D02*
X127071334Y-75517381D01*
X126642762Y-76517381D01*
X176299905Y-91757381D02*
X176299905Y-90757381D01*
X176680858Y-90757381D01*
X176776096Y-90805000D01*
X176823715Y-90852619D01*
X176871334Y-90947857D01*
X176871334Y-91090714D01*
X176823715Y-91185952D01*
X176776096Y-91233571D01*
X176680858Y-91281190D01*
X176299905Y-91281190D01*
X177442762Y-91185952D02*
X177347524Y-91138333D01*
X177299905Y-91090714D01*
X177252286Y-90995476D01*
X177252286Y-90947857D01*
X177299905Y-90852619D01*
X177347524Y-90805000D01*
X177442762Y-90757381D01*
X177633239Y-90757381D01*
X177728477Y-90805000D01*
X177776096Y-90852619D01*
X177823715Y-90947857D01*
X177823715Y-90995476D01*
X177776096Y-91090714D01*
X177728477Y-91138333D01*
X177633239Y-91185952D01*
X177442762Y-91185952D01*
X177347524Y-91233571D01*
X177299905Y-91281190D01*
X177252286Y-91376429D01*
X177252286Y-91566905D01*
X177299905Y-91662143D01*
X177347524Y-91709762D01*
X177442762Y-91757381D01*
X177633239Y-91757381D01*
X177728477Y-91709762D01*
X177776096Y-91662143D01*
X177823715Y-91566905D01*
X177823715Y-91376429D01*
X177776096Y-91281190D01*
X177728477Y-91233571D01*
X177633239Y-91185952D01*
X106259905Y-91817381D02*
X106259905Y-90817381D01*
X106640858Y-90817381D01*
X106736096Y-90865000D01*
X106783715Y-90912619D01*
X106831334Y-91007857D01*
X106831334Y-91150714D01*
X106783715Y-91245952D01*
X106736096Y-91293571D01*
X106640858Y-91341190D01*
X106259905Y-91341190D01*
X107307524Y-91817381D02*
X107498000Y-91817381D01*
X107593239Y-91769762D01*
X107640858Y-91722143D01*
X107736096Y-91579286D01*
X107783715Y-91388810D01*
X107783715Y-91007857D01*
X107736096Y-90912619D01*
X107688477Y-90865000D01*
X107593239Y-90817381D01*
X107402762Y-90817381D01*
X107307524Y-90865000D01*
X107259905Y-90912619D01*
X107212286Y-91007857D01*
X107212286Y-91245952D01*
X107259905Y-91341190D01*
X107307524Y-91388810D01*
X107402762Y-91436429D01*
X107593239Y-91436429D01*
X107688477Y-91388810D01*
X107736096Y-91341190D01*
X107783715Y-91245952D01*
X96355143Y-117722143D02*
X96307524Y-117769762D01*
X96164667Y-117817381D01*
X96069429Y-117817381D01*
X95926571Y-117769762D01*
X95831333Y-117674524D01*
X95783714Y-117579286D01*
X95736095Y-117388810D01*
X95736095Y-117245952D01*
X95783714Y-117055476D01*
X95831333Y-116960238D01*
X95926571Y-116865000D01*
X96069429Y-116817381D01*
X96164667Y-116817381D01*
X96307524Y-116865000D01*
X96355143Y-116912619D01*
X96736095Y-116912619D02*
X96783714Y-116865000D01*
X96878952Y-116817381D01*
X97117048Y-116817381D01*
X97212286Y-116865000D01*
X97259905Y-116912619D01*
X97307524Y-117007857D01*
X97307524Y-117103095D01*
X97259905Y-117245952D01*
X96688476Y-117817381D01*
X97307524Y-117817381D01*
X97640857Y-116817381D02*
X98307524Y-116817381D01*
X97878952Y-117817381D01*
X97116381Y-124817286D02*
X96116381Y-124817286D01*
X96116381Y-124436333D01*
X96164000Y-124341095D01*
X96211619Y-124293476D01*
X96306857Y-124245857D01*
X96449714Y-124245857D01*
X96544952Y-124293476D01*
X96592571Y-124341095D01*
X96640190Y-124436333D01*
X96640190Y-124817286D01*
X97116381Y-123293476D02*
X97116381Y-123864905D01*
X97116381Y-123579191D02*
X96116381Y-123579191D01*
X96259238Y-123674429D01*
X96354476Y-123769667D01*
X96402095Y-123864905D01*
X96211619Y-122912524D02*
X96164000Y-122864905D01*
X96116381Y-122769667D01*
X96116381Y-122531571D01*
X96164000Y-122436333D01*
X96211619Y-122388714D01*
X96306857Y-122341095D01*
X96402095Y-122341095D01*
X96544952Y-122388714D01*
X97116381Y-122960143D01*
X97116381Y-122341095D01*
X92450381Y-74579286D02*
X91450381Y-74579286D01*
X91450381Y-74198333D01*
X91498000Y-74103095D01*
X91545619Y-74055476D01*
X91640857Y-74007857D01*
X91783714Y-74007857D01*
X91878952Y-74055476D01*
X91926571Y-74103095D01*
X91974190Y-74198333D01*
X91974190Y-74579286D01*
X92450381Y-73055476D02*
X92450381Y-73626905D01*
X92450381Y-73341191D02*
X91450381Y-73341191D01*
X91593238Y-73436429D01*
X91688476Y-73531667D01*
X91736095Y-73626905D01*
X91450381Y-72436429D02*
X91450381Y-72341190D01*
X91498000Y-72245952D01*
X91545619Y-72198333D01*
X91640857Y-72150714D01*
X91831333Y-72103095D01*
X92069429Y-72103095D01*
X92259905Y-72150714D01*
X92355143Y-72198333D01*
X92402762Y-72245952D01*
X92450381Y-72341190D01*
X92450381Y-72436429D01*
X92402762Y-72531667D01*
X92355143Y-72579286D01*
X92259905Y-72626905D01*
X92069429Y-72674524D01*
X91831333Y-72674524D01*
X91640857Y-72626905D01*
X91545619Y-72579286D01*
X91498000Y-72531667D01*
X91450381Y-72436429D01*
M02*
