M48
; DRILL file {KiCad 5.1.9+dfsg1-1~bpo10+1} date Thu Mar 25 14:45:07 2021
; FORMAT={-:-/ absolute / inch / decimal}
; #@! TF.CreationDate,2021-03-25T14:45:07+01:00
; #@! TF.GenerationSoftware,Kicad,Pcbnew,5.1.9+dfsg1-1~bpo10+1
; #@! TF.FileFunction,Plated,1,2,PTH
FMAT,2
INCH
T1C0.0157
T2C0.0197
T3C0.0217
T4C0.0315
T5C0.0394
T6C0.0400
T7C0.1181
%
G90
G05
T1
X3.574Y-3.4871
X3.5765Y-3.8244
X3.6036Y-4.185
X3.6145Y-3.7517
X3.6215Y-4.6496
X3.6264Y-4.462
X3.6362Y-4.6024
X3.643Y-3.1384
X3.6682Y-3.262
X3.6975Y-4.317
X3.7162Y-3.0934
X3.7514Y-3.7701
X3.7796Y-3.3724
X3.7827Y-3.9433
X3.7991Y-3.7989
X4.0193Y-4.1956
X4.1046Y-3.2374
X4.1683Y-4.1745
X4.1771Y-4.3677
X4.1813Y-3.8391
X4.2028Y-3.2115
X4.2068Y-4.342
X4.5095Y-4.3517
X5.0694Y-4.1747
X5.1069Y-4.1261
X5.1758Y-4.3295
X5.2241Y-4.3008
X5.2787Y-4.3018
X5.3369Y-4.3494
X5.3402Y-3.4943
X5.3701Y-4.3223
X5.3958Y-4.559
X5.4227Y-4.4238
X5.4236Y-4.0002
X5.4621Y-3.4681
X5.4808Y-3.3095
X5.5392Y-3.2619
X5.5417Y-4.2344
X5.5763Y-4.2177
X5.5873Y-3.5826
X5.6057Y-4.1928
X5.626Y-4.2509
X5.6271Y-4.3005
X5.6372Y-4.1928
X5.6418Y-3.6181
X5.6436Y-3.4593
X5.6497Y-2.9279
X5.7264Y-3.6181
X5.7266Y-4.1505
X5.7734Y-3.6181
X5.7971Y-2.9106
X5.8085Y-4.0268
X5.8816Y-3.0668
X5.8849Y-3.3724
X5.9009Y-4.0894
X5.9016Y-4.0572
X5.9258Y-4.6318
X5.9324Y-4.0948
X5.9364Y-3.3332
X5.9384Y-3.4619
X5.9409Y-4.34
X5.9446Y-3.3727
X5.9602Y-3.5552
X5.9743Y-4.3381
X5.9865Y-4.4512
X5.9906Y-3.4794
X5.9917Y-3.5463
X6.002Y-3.6181
X6.0137Y-3.3576
X6.0137Y-4.3395
X6.0436Y-3.3732
X6.1238Y-4.4519
X6.1909Y-4.4596
X6.256Y-3.475
X6.3474Y-3.3731
X6.365Y-4.3487
X6.368Y-3.4581
X6.38Y-3.3728
X6.4016Y-3.4604
X6.4103Y-4.3666
X6.4125Y-3.3693
X6.4611Y-3.4584
X6.4803Y-3.1516
X6.4868Y-3.4833
X6.5208Y-4.0492
X6.5255Y-3.3728
X6.5523Y-4.0445
X6.5603Y-3.5645
X6.5703Y-3.7796
X6.5797Y-3.9531
X6.5803Y-3.8646
X6.5846Y-3.4583
X6.6018Y-3.78
X6.6022Y-3.9809
X6.6225Y-3.5399
X6.63Y-3.4302
X6.6352Y-3.7919
X6.6355Y-4.0056
X6.6356Y-3.4838
X6.6358Y-3.7053
X6.6361Y-3.8664
X6.7197Y-3.9612
X6.7198Y-3.4846
X6.7199Y-3.8699
X6.7209Y-3.8037
X6.7319Y-3.7137
X6.7782Y-3.9228
X6.8062Y-3.5885
T4
X5.1574Y-3.8333
X5.1574Y-4.0254
T5
X3.8944Y-4.4238
X3.9944Y-4.4238
X4.0944Y-4.4238
X4.4881Y-3.164
X4.5881Y-3.164
X4.6456Y-3.5758
X4.6456Y-3.6758
X4.6881Y-3.164
X4.7881Y-3.164
X4.8818Y-3.5758
X4.8818Y-3.6758
X5.11Y-2.975
X5.21Y-2.975
X5.31Y-2.975
X5.41Y-2.975
X5.47Y-4.875
X5.51Y-2.975
X5.57Y-4.875
X5.61Y-2.975
X5.67Y-4.875
X5.71Y-2.975
X5.77Y-4.875
X5.81Y-2.975
X5.87Y-4.875
X5.91Y-2.975
X5.97Y-4.875
X6.01Y-2.975
X6.07Y-4.875
X6.17Y-2.975
X6.17Y-4.875
X6.27Y-2.975
X6.37Y-2.975
X6.37Y-4.875
X6.47Y-2.975
X6.47Y-4.875
X6.57Y-2.975
X6.57Y-4.875
X6.67Y-2.975
X6.67Y-4.875
X6.77Y-2.975
X6.77Y-4.875
X6.87Y-2.975
X6.87Y-4.875
X6.9684Y-3.7939
X6.9684Y-3.8939
X6.9684Y-3.9939
T6
X3.9369Y-3.912
X3.9369Y-4.012
X3.9369Y-4.112
X4.0369Y-3.912
X4.0369Y-4.012
X4.0369Y-4.112
T7
X4.2125Y-3.5967
X4.92Y-4.895
X4.97Y-2.995
X6.97Y-3.595
X6.97Y-4.695
T2
G00X3.8778Y-4.9538
M15
G01X3.8778Y-4.9282
M16
G05
G00X4.1534Y-4.9538
M15
G01X4.1534Y-4.9282
M16
G05
T3
G00X3.9113Y-4.8347
M15
G01X3.9231Y-4.8347
M16
G05
G00X4.1082Y-4.8347
M15
G01X4.12Y-4.8347
M16
G05
T0
M30
