%TF.GenerationSoftware,KiCad,Pcbnew,5.1.9+dfsg1-1~bpo10+1*%
%TF.CreationDate,2021-03-22T18:02:22+01:00*%
%TF.ProjectId,stduinof429,73746475-696e-46f6-9634-32392e6b6963,rev?*%
%TF.SameCoordinates,Original*%
%TF.FileFunction,Soldermask,Bot*%
%TF.FilePolarity,Negative*%
%FSLAX46Y46*%
G04 Gerber Fmt 4.6, Leading zero omitted, Abs format (unit mm)*
G04 Created by KiCad (PCBNEW 5.1.9+dfsg1-1~bpo10+1) date 2021-03-22 18:02:22*
%MOMM*%
%LPD*%
G01*
G04 APERTURE LIST*
%ADD10R,3.000000X1.524000*%
%ADD11C,1.500000*%
%ADD12O,1.000000X1.550000*%
%ADD13O,1.250000X0.950000*%
%ADD14O,1.727200X1.727200*%
%ADD15R,1.727200X1.727200*%
%ADD16O,1.700000X1.700000*%
%ADD17R,1.700000X1.700000*%
%ADD18C,4.000000*%
%ADD19C,0.600000*%
%ADD20C,0.100000*%
G04 APERTURE END LIST*
D10*
X88646000Y-75235000D03*
X88646000Y-77775000D03*
X88646000Y-80315000D03*
X88646000Y-82855000D03*
X88646000Y-85395000D03*
X88646000Y-87935000D03*
X88646000Y-90475000D03*
X88646000Y-93015000D03*
X88646000Y-95555000D03*
X88646000Y-98095000D03*
X88646000Y-100635000D03*
X88646000Y-103175000D03*
X88646000Y-105715000D03*
X88646000Y-108255000D03*
X88646000Y-110795000D03*
X88646000Y-113335000D03*
X88646000Y-115875000D03*
X88646000Y-118415000D03*
X88646000Y-120955000D03*
X88646000Y-123495000D03*
D11*
X130998000Y-102245000D03*
X130998000Y-97365000D03*
D12*
X105497100Y-125502460D03*
X98497100Y-125502460D03*
D13*
X104497100Y-122802460D03*
X99497100Y-122802460D03*
D14*
X102538000Y-104445000D03*
X99998000Y-104445000D03*
X102538000Y-101905000D03*
X99998000Y-101905000D03*
X102538000Y-99365000D03*
D15*
X99998000Y-99365000D03*
D16*
X117998000Y-90825000D03*
D17*
X117998000Y-93365000D03*
X123998000Y-93365000D03*
D16*
X123998000Y-90825000D03*
X176998000Y-101445000D03*
X176998000Y-98905000D03*
D17*
X176998000Y-96365000D03*
X103998000Y-112365000D03*
D16*
X101458000Y-112365000D03*
X98918000Y-112365000D03*
D17*
X113998000Y-80365000D03*
D16*
X116538000Y-80365000D03*
X119078000Y-80365000D03*
X121618000Y-80365000D03*
D17*
X161798000Y-123825000D03*
D16*
X164338000Y-123825000D03*
X166878000Y-123825000D03*
X169418000Y-123825000D03*
X171958000Y-123825000D03*
X174498000Y-123825000D03*
X156718000Y-123825000D03*
X154178000Y-123825000D03*
X151638000Y-123825000D03*
X149098000Y-123825000D03*
X146558000Y-123825000D03*
X144018000Y-123825000D03*
X141478000Y-123825000D03*
D17*
X138938000Y-123825000D03*
X156718000Y-75565000D03*
D16*
X159258000Y-75565000D03*
X161798000Y-75565000D03*
X164338000Y-75565000D03*
X166878000Y-75565000D03*
X169418000Y-75565000D03*
X171958000Y-75565000D03*
X174498000Y-75565000D03*
D17*
X129794000Y-75565000D03*
D16*
X132334000Y-75565000D03*
X134874000Y-75565000D03*
X137414000Y-75565000D03*
X139954000Y-75565000D03*
X142494000Y-75565000D03*
X145034000Y-75565000D03*
X147574000Y-75565000D03*
X150114000Y-75565000D03*
X152654000Y-75565000D03*
D18*
X124968000Y-124333000D03*
X177038000Y-119253000D03*
X126238000Y-76073000D03*
X177038000Y-91313000D03*
X106998000Y-91357000D03*
D19*
X137736800Y-112365000D03*
X170682400Y-88509200D03*
X139213100Y-84060300D03*
X172876900Y-91148100D03*
X172165800Y-99638200D03*
X170684400Y-98296100D03*
X137052900Y-115799300D03*
X136400200Y-109787100D03*
X135558500Y-110475200D03*
X149392800Y-77897900D03*
X168549100Y-94115000D03*
X170991200Y-94329200D03*
X149477300Y-85660100D03*
X165628000Y-102848900D03*
X150785600Y-84663000D03*
X104255600Y-82229100D03*
X166428400Y-102729300D03*
X143502800Y-74368700D03*
X151388400Y-90302400D03*
X147245900Y-73929600D03*
X152451700Y-91899100D03*
X152188700Y-90077100D03*
X146645300Y-91899100D03*
X158901700Y-88264400D03*
X161222900Y-85677300D03*
X161748000Y-87836800D03*
X162051400Y-85670300D03*
X162601100Y-87893100D03*
X164763600Y-88475700D03*
X94392400Y-78572000D03*
X152748000Y-110224400D03*
X129714000Y-104803600D03*
X128762400Y-106036500D03*
X151748000Y-110187300D03*
X164599500Y-80050000D03*
X165747900Y-85669800D03*
X143301500Y-91899100D03*
X145450300Y-91899100D03*
X141916800Y-90998500D03*
X140760100Y-107554300D03*
X141636800Y-107129000D03*
X142384800Y-106497400D03*
X145456200Y-105422100D03*
X150899800Y-110235700D03*
X93916600Y-109653000D03*
X152056700Y-113061600D03*
X134079500Y-109264700D03*
X155543800Y-113079000D03*
X91986800Y-118101100D03*
X157248000Y-113272700D03*
X92360300Y-116900500D03*
X162821600Y-110912100D03*
X106203900Y-97512000D03*
X161669800Y-110456100D03*
X137759900Y-101605400D03*
X106750700Y-81573300D03*
X92533300Y-79714200D03*
X168540600Y-101742600D03*
X106097400Y-110940300D03*
X167694800Y-101115000D03*
X92111600Y-113335000D03*
X170679500Y-100615000D03*
X106853400Y-110287900D03*
X167124700Y-100408900D03*
X114540500Y-110533300D03*
X167138900Y-98160800D03*
X105874500Y-106032200D03*
X166884700Y-96002000D03*
X96079800Y-100160700D03*
X168556800Y-98206700D03*
X102090800Y-106567600D03*
X91530800Y-106299800D03*
X170710200Y-96615000D03*
X168534500Y-96313200D03*
X167685100Y-96012500D03*
X168212300Y-89913100D03*
X90844000Y-97139100D03*
X168544700Y-88489700D03*
X96498200Y-96492700D03*
X168401600Y-87127100D03*
X91808900Y-95294400D03*
X167248000Y-87841700D03*
X95286400Y-95761700D03*
X166632200Y-90538500D03*
X164111500Y-87843300D03*
X162876500Y-85579200D03*
X153508100Y-85680100D03*
X152161400Y-88376100D03*
X152748000Y-85283200D03*
X150836400Y-87932300D03*
X93171900Y-82855000D03*
X135642100Y-88756200D03*
X90780300Y-88572600D03*
X138737100Y-88088500D03*
X96002300Y-85660000D03*
X142899400Y-107971900D03*
X131466000Y-109968500D03*
X142927300Y-109232100D03*
X132690900Y-109240700D03*
X140694900Y-82852500D03*
X150992500Y-85667500D03*
X150515800Y-117647800D03*
X143185200Y-106497400D03*
X149900100Y-103052800D03*
X149883300Y-103870400D03*
X150683700Y-104008100D03*
X147536900Y-102280100D03*
X143348200Y-87865200D03*
D20*
G36*
X142899726Y-106409714D02*
G01*
X142899990Y-106411160D01*
X142888645Y-106468194D01*
X142888645Y-106526606D01*
X142899990Y-106583640D01*
X142899347Y-106585534D01*
X142897385Y-106585924D01*
X142896264Y-106584973D01*
X142887262Y-106568131D01*
X142871966Y-106549494D01*
X142853329Y-106534199D01*
X142832066Y-106522834D01*
X142808991Y-106515834D01*
X142785000Y-106513471D01*
X142761009Y-106515834D01*
X142737934Y-106522834D01*
X142716670Y-106534199D01*
X142698033Y-106549495D01*
X142682738Y-106568132D01*
X142673736Y-106584973D01*
X142672037Y-106586029D01*
X142670274Y-106585086D01*
X142670010Y-106583640D01*
X142681355Y-106526606D01*
X142681355Y-106468194D01*
X142670010Y-106411160D01*
X142670653Y-106409266D01*
X142672615Y-106408876D01*
X142673736Y-106409827D01*
X142682738Y-106426669D01*
X142698034Y-106445306D01*
X142716671Y-106460601D01*
X142737934Y-106471966D01*
X142761009Y-106478966D01*
X142785000Y-106481329D01*
X142808991Y-106478966D01*
X142832066Y-106471966D01*
X142853330Y-106460601D01*
X142871967Y-106445305D01*
X142887262Y-106426668D01*
X142896264Y-106409827D01*
X142897963Y-106408771D01*
X142899726Y-106409714D01*
G37*
G36*
X167174011Y-95916309D02*
G01*
X167184814Y-95936519D01*
X167200109Y-95955156D01*
X167218746Y-95970451D01*
X167240010Y-95981816D01*
X167263085Y-95988816D01*
X167287076Y-95991179D01*
X167311067Y-95988816D01*
X167334142Y-95981816D01*
X167355405Y-95970450D01*
X167374042Y-95955155D01*
X167389337Y-95936518D01*
X167397902Y-95920493D01*
X167399601Y-95919437D01*
X167401364Y-95920380D01*
X167401514Y-95922201D01*
X167399942Y-95925997D01*
X167388545Y-95983294D01*
X167388545Y-96041706D01*
X167399515Y-96096858D01*
X167398872Y-96098752D01*
X167396910Y-96099142D01*
X167395789Y-96098191D01*
X167384986Y-96077981D01*
X167369691Y-96059344D01*
X167351054Y-96044049D01*
X167329790Y-96032684D01*
X167306715Y-96025684D01*
X167282724Y-96023321D01*
X167258733Y-96025684D01*
X167235658Y-96032684D01*
X167214395Y-96044050D01*
X167195758Y-96059345D01*
X167180463Y-96077982D01*
X167171898Y-96094007D01*
X167170199Y-96095063D01*
X167168436Y-96094120D01*
X167168286Y-96092299D01*
X167169858Y-96088503D01*
X167181255Y-96031206D01*
X167181255Y-95972794D01*
X167170285Y-95917642D01*
X167170928Y-95915748D01*
X167172890Y-95915358D01*
X167174011Y-95916309D01*
G37*
M02*
