%TF.GenerationSoftware,KiCad,Pcbnew,5.0.2+dfsg1-1*%
%TF.CreationDate,2020-05-23T15:41:05+02:00*%
%TF.ProjectId,stduinof429,73746475-696e-46f6-9634-32392e6b6963,rev?*%
%TF.SameCoordinates,Original*%
%TF.FileFunction,Copper,L2,Bot*%
%TF.FilePolarity,Positive*%
%FSLAX46Y46*%
G04 Gerber Fmt 4.6, Leading zero omitted, Abs format (unit mm)*
G04 Created by KiCad (PCBNEW 5.0.2+dfsg1-1) date Sat 23 May 2020 03:41:05 PM CEST*
%MOMM*%
%LPD*%
G01*
G04 APERTURE LIST*
%ADD10O,1.700000X1.700000*%
%ADD11R,1.700000X1.700000*%
%ADD12C,1.500000*%
%ADD13R,1.727200X1.727200*%
%ADD14O,1.727200X1.727200*%
%ADD15C,4.000000*%
%ADD16O,1.250000X0.950000*%
%ADD17O,1.000000X1.550000*%
%ADD18R,3.000000X1.524000*%
%ADD19C,0.600000*%
%ADD20C,0.250000*%
%ADD21C,0.254000*%
G04 APERTURE END LIST*
D10*
X117998000Y-90825000D03*
D11*
X117998000Y-93365000D03*
X123998000Y-93365000D03*
D10*
X123998000Y-90825000D03*
X176998000Y-101445000D03*
X176998000Y-98905000D03*
D11*
X176998000Y-96365000D03*
X103998000Y-112365000D03*
D10*
X101458000Y-112365000D03*
X98918000Y-112365000D03*
D11*
X113998000Y-80365000D03*
D10*
X116538000Y-80365000D03*
X119078000Y-80365000D03*
X121618000Y-80365000D03*
D11*
X161798000Y-123825000D03*
D10*
X164338000Y-123825000D03*
X166878000Y-123825000D03*
X169418000Y-123825000D03*
X171958000Y-123825000D03*
X174498000Y-123825000D03*
X156718000Y-123825000D03*
X154178000Y-123825000D03*
X151638000Y-123825000D03*
X149098000Y-123825000D03*
X146558000Y-123825000D03*
X144018000Y-123825000D03*
X141478000Y-123825000D03*
D11*
X138938000Y-123825000D03*
X156718000Y-75565000D03*
D10*
X159258000Y-75565000D03*
X161798000Y-75565000D03*
X164338000Y-75565000D03*
X166878000Y-75565000D03*
X169418000Y-75565000D03*
X171958000Y-75565000D03*
X174498000Y-75565000D03*
D11*
X129794000Y-75565000D03*
D10*
X132334000Y-75565000D03*
X134874000Y-75565000D03*
X137414000Y-75565000D03*
X139954000Y-75565000D03*
X142494000Y-75565000D03*
X145034000Y-75565000D03*
X147574000Y-75565000D03*
X150114000Y-75565000D03*
X152654000Y-75565000D03*
D12*
X130998000Y-97365000D03*
X130998000Y-102245000D03*
D13*
X99998000Y-99365000D03*
D14*
X102538000Y-99365000D03*
X99998000Y-101905000D03*
X102538000Y-101905000D03*
X99998000Y-104445000D03*
X102538000Y-104445000D03*
D15*
X124968000Y-124333000D03*
X177038000Y-119253000D03*
X126238000Y-76073000D03*
X177038000Y-91313000D03*
X106998000Y-91357000D03*
D16*
X99497100Y-122802460D03*
X104497100Y-122802460D03*
D17*
X98497100Y-125502460D03*
X105497100Y-125502460D03*
D18*
X88776000Y-123495000D03*
X88776000Y-120955000D03*
X88776000Y-118415000D03*
X88776000Y-115875000D03*
X88776000Y-113335000D03*
X88776000Y-110795000D03*
X88776000Y-108255000D03*
X88776000Y-105715000D03*
X88776000Y-103175000D03*
X88776000Y-100635000D03*
X88776000Y-98095000D03*
X88776000Y-95555000D03*
X88776000Y-93015000D03*
X88776000Y-90475000D03*
X88776000Y-87935000D03*
X88776000Y-85395000D03*
X88776000Y-82855000D03*
X88776000Y-80315000D03*
X88776000Y-77775000D03*
X88776000Y-75235000D03*
D19*
X137736800Y-112365000D03*
X170682400Y-88509200D03*
X139213100Y-84060300D03*
X172876900Y-91148100D03*
X172165800Y-99638200D03*
X170684400Y-98296100D03*
X137052900Y-115799300D03*
X136400200Y-109787100D03*
X135558500Y-110475200D03*
X149392800Y-77897900D03*
X168549100Y-94115000D03*
X170991200Y-94329200D03*
X149477300Y-85660100D03*
X165628000Y-102848900D03*
X150785600Y-84663000D03*
X104255600Y-82229100D03*
X166428400Y-102729300D03*
X143502800Y-74368700D03*
X151388400Y-90302400D03*
X147245900Y-73929600D03*
X152451700Y-91899100D03*
X152188700Y-90077100D03*
X146645300Y-91899100D03*
X158901700Y-88264400D03*
X161222900Y-85677300D03*
X161748000Y-87836800D03*
X162051400Y-85670300D03*
X162601100Y-87893100D03*
X164763600Y-88475700D03*
X94392400Y-78572000D03*
X152748000Y-110224400D03*
X129714000Y-104803600D03*
X128762400Y-106036500D03*
X151748000Y-110187300D03*
X164599500Y-80050000D03*
X165747900Y-85669800D03*
X143301500Y-91899100D03*
X145450300Y-91899100D03*
X141916800Y-90998500D03*
X140760100Y-107554300D03*
X141636800Y-107129000D03*
X142384800Y-106497400D03*
X145456200Y-105422100D03*
X150899800Y-110235700D03*
X93916600Y-109653000D03*
X152056700Y-113061600D03*
X134079500Y-109264700D03*
X155543800Y-113079000D03*
X91986800Y-118101100D03*
X157248000Y-113272700D03*
X92360300Y-116900500D03*
X162821600Y-110912100D03*
X106203900Y-97512000D03*
X161669800Y-110456100D03*
X137759900Y-101605400D03*
X106750700Y-81573300D03*
X92533300Y-79714200D03*
X168540600Y-101742600D03*
X106097400Y-110940300D03*
X167694800Y-101115000D03*
X92111600Y-113335000D03*
X170679500Y-100615000D03*
X106853400Y-110287900D03*
X167124700Y-100408900D03*
X114540500Y-110533300D03*
X167138900Y-98160800D03*
X105874500Y-106032200D03*
X166884700Y-96002000D03*
X96079800Y-100160700D03*
X168556800Y-98206700D03*
X102090800Y-106567600D03*
X91530800Y-106299800D03*
X170710200Y-96615000D03*
X168534500Y-96313200D03*
X167685100Y-96012500D03*
X168212300Y-89913100D03*
X90844000Y-97139100D03*
X168544700Y-88489700D03*
X96498200Y-96492700D03*
X168401600Y-87127100D03*
X91808900Y-95294400D03*
X167248000Y-87841700D03*
X95286400Y-95761700D03*
X166632200Y-90538500D03*
X164111500Y-87843300D03*
X162876500Y-85579200D03*
X153508100Y-85680100D03*
X152161400Y-88376100D03*
X152748000Y-85283200D03*
X150836400Y-87932300D03*
X93171900Y-82855000D03*
X135642100Y-88756200D03*
X90780300Y-88572600D03*
X138737100Y-88088500D03*
X96002300Y-85660000D03*
X142899400Y-107971900D03*
X131466000Y-109968500D03*
X142927300Y-109232100D03*
X132690900Y-109240700D03*
X140694900Y-82852500D03*
X150992500Y-85667500D03*
X150515800Y-117647800D03*
X143185200Y-106497400D03*
X149900100Y-103052800D03*
X149883300Y-103870400D03*
X150683700Y-104008100D03*
X147536900Y-102280100D03*
X143348200Y-87865200D03*
D20*
X150462700Y-123825000D02*
X150462700Y-123457700D01*
X150462700Y-123457700D02*
X139370000Y-112365000D01*
X139370000Y-112365000D02*
X137736800Y-112365000D01*
X151638000Y-123825000D02*
X150462700Y-123825000D01*
X172876900Y-91148100D02*
X170682400Y-88953600D01*
X170682400Y-88953600D02*
X170682400Y-88509200D01*
X137414000Y-75565000D02*
X137414000Y-76740300D01*
X137414000Y-76740300D02*
X139213100Y-78539400D01*
X139213100Y-78539400D02*
X139213100Y-84060300D01*
X170684400Y-98296100D02*
X172026500Y-99638200D01*
X172026500Y-99638200D02*
X172165800Y-99638200D01*
X176998000Y-96365000D02*
X176998000Y-95189700D01*
X176998000Y-95189700D02*
X176918500Y-95189700D01*
X176918500Y-95189700D02*
X172876900Y-91148100D01*
X104497100Y-122802500D02*
X99497100Y-122802500D01*
X99497100Y-122802500D02*
X99497100Y-123602800D01*
X98497100Y-125502500D02*
X98497100Y-124402200D01*
X98497100Y-124402200D02*
X99296500Y-123602800D01*
X99296500Y-123602800D02*
X99497100Y-123602800D01*
X123998000Y-90825000D02*
X117998000Y-90825000D01*
X147922700Y-123825000D02*
X147922700Y-123457700D01*
X147922700Y-123457700D02*
X140264400Y-115799400D01*
X140264400Y-115799400D02*
X137052900Y-115799400D01*
X137052900Y-115799400D02*
X137052900Y-115799300D01*
X149098000Y-123825000D02*
X147922700Y-123825000D01*
X102538000Y-104445000D02*
X102538000Y-105633900D01*
X102538000Y-105633900D02*
X102052300Y-105633900D01*
X102052300Y-105633900D02*
X101458000Y-106228200D01*
X101458000Y-106228200D02*
X101458000Y-111189700D01*
X101458000Y-112365000D02*
X101458000Y-111189700D01*
X144018000Y-123825000D02*
X144018000Y-122649700D01*
X144018000Y-122649700D02*
X142989600Y-122649700D01*
X142989600Y-122649700D02*
X136400200Y-116060300D01*
X136400200Y-116060300D02*
X136400200Y-109787100D01*
X141478000Y-123825000D02*
X142653300Y-123825000D01*
X146558000Y-123825000D02*
X145382700Y-123825000D01*
X145382700Y-123825000D02*
X145382700Y-124192300D01*
X145382700Y-124192300D02*
X144574700Y-125000300D01*
X144574700Y-125000300D02*
X143461200Y-125000300D01*
X143461200Y-125000300D02*
X142653300Y-124192400D01*
X142653300Y-124192400D02*
X142653300Y-123825000D01*
X141478000Y-122649700D02*
X135558500Y-116730200D01*
X135558500Y-116730200D02*
X135558500Y-110475200D01*
X141478000Y-123825000D02*
X141478000Y-122649700D01*
X169419800Y-93719300D02*
X168944800Y-93719300D01*
X168944800Y-93719300D02*
X168549100Y-94115000D01*
X170688000Y-75144300D02*
X171442600Y-74389700D01*
X171442600Y-74389700D02*
X172514800Y-74389700D01*
X172514800Y-74389700D02*
X173322700Y-75197600D01*
X173322700Y-75197600D02*
X173322700Y-75565000D01*
X169419800Y-93719300D02*
X169419800Y-88332400D01*
X169419800Y-88332400D02*
X170688000Y-87064200D01*
X170688000Y-87064200D02*
X170688000Y-75144300D01*
X170688000Y-75144300D02*
X169428300Y-73884600D01*
X169428300Y-73884600D02*
X156198000Y-73884600D01*
X156198000Y-73884600D02*
X152184700Y-77897900D01*
X152184700Y-77897900D02*
X149392800Y-77897900D01*
X169419800Y-93719300D02*
X174605500Y-98905000D01*
X174605500Y-98905000D02*
X176998000Y-98905000D01*
X174498000Y-75565000D02*
X173322700Y-75565000D01*
X177662700Y-97907300D02*
X177295700Y-97540400D01*
X177295700Y-97540400D02*
X176013300Y-97540400D01*
X176013300Y-97540400D02*
X173087900Y-94615000D01*
X173087900Y-94615000D02*
X171277000Y-94615000D01*
X171277000Y-94615000D02*
X170991200Y-94329200D01*
X171958000Y-76740300D02*
X172110900Y-76893200D01*
X172110900Y-76893200D02*
X172110900Y-81299400D01*
X172110900Y-81299400D02*
X177468500Y-86657000D01*
X177468500Y-86657000D02*
X177468500Y-87293800D01*
X177468500Y-87293800D02*
X179407700Y-89233000D01*
X179407700Y-89233000D02*
X179407700Y-96162300D01*
X179407700Y-96162300D02*
X177662700Y-97907300D01*
X176998000Y-100269700D02*
X177363300Y-100269700D01*
X177363300Y-100269700D02*
X178179200Y-99453800D01*
X178179200Y-99453800D02*
X178179200Y-98423900D01*
X178179200Y-98423900D02*
X177662700Y-97907300D01*
X171958000Y-75565000D02*
X171958000Y-76740300D01*
X176998000Y-101445000D02*
X176998000Y-100269700D01*
X171958000Y-122649700D02*
X165628000Y-116319700D01*
X165628000Y-116319700D02*
X165628000Y-102848900D01*
X133509300Y-75565000D02*
X133509300Y-75197600D01*
X133509300Y-75197600D02*
X134317200Y-74389700D01*
X134317200Y-74389700D02*
X137901000Y-74389700D01*
X137901000Y-74389700D02*
X138684000Y-75172700D01*
X138684000Y-75172700D02*
X138684000Y-75959200D01*
X138684000Y-75959200D02*
X148384900Y-85660100D01*
X148384900Y-85660100D02*
X149477300Y-85660100D01*
X132334000Y-75565000D02*
X133509300Y-75565000D01*
X171958000Y-123825000D02*
X171958000Y-122649700D01*
X104255600Y-82229100D02*
X124305200Y-82229100D01*
X124305200Y-82229100D02*
X129794000Y-76740300D01*
X166428400Y-102729300D02*
X174498000Y-110798900D01*
X174498000Y-110798900D02*
X174498000Y-122649700D01*
X129794000Y-75565000D02*
X130969300Y-75565000D01*
X150785600Y-84663000D02*
X149883400Y-84663000D01*
X149883400Y-84663000D02*
X141224000Y-76003600D01*
X141224000Y-76003600D02*
X141224000Y-75166800D01*
X141224000Y-75166800D02*
X139946000Y-73888800D01*
X139946000Y-73888800D02*
X132278200Y-73888800D01*
X132278200Y-73888800D02*
X130969300Y-75197700D01*
X130969300Y-75197700D02*
X130969300Y-75565000D01*
X129794000Y-75565000D02*
X129794000Y-76740300D01*
X174498000Y-123825000D02*
X174498000Y-122649700D01*
X143502800Y-74368700D02*
X143858600Y-74724500D01*
X143858600Y-74724500D02*
X143858600Y-76851600D01*
X143858600Y-76851600D02*
X151644200Y-84637200D01*
X151644200Y-84637200D02*
X151644200Y-86974500D01*
X151644200Y-86974500D02*
X152786700Y-88117000D01*
X152786700Y-88117000D02*
X152786700Y-88635200D01*
X152786700Y-88635200D02*
X151970100Y-89451800D01*
X151970100Y-89451800D02*
X151929700Y-89451800D01*
X151929700Y-89451800D02*
X151388400Y-89993100D01*
X151388400Y-89993100D02*
X151388400Y-90302400D01*
X147245900Y-73929600D02*
X147661100Y-73929600D01*
X147661100Y-73929600D02*
X148749400Y-75017900D01*
X148749400Y-75017900D02*
X148749400Y-78834200D01*
X148749400Y-78834200D02*
X154612700Y-84697500D01*
X154612700Y-84697500D02*
X154612700Y-89874800D01*
X154612700Y-89874800D02*
X152588400Y-91899100D01*
X152588400Y-91899100D02*
X152451700Y-91899100D01*
X145034000Y-75565000D02*
X145034000Y-77390100D01*
X145034000Y-77390100D02*
X152094500Y-84450600D01*
X152094500Y-84450600D02*
X152094500Y-86787900D01*
X152094500Y-86787900D02*
X153237000Y-87930400D01*
X153237000Y-87930400D02*
X153237000Y-89028800D01*
X153237000Y-89028800D02*
X152188700Y-90077100D01*
X147574000Y-75565000D02*
X147574000Y-78456100D01*
X147574000Y-78456100D02*
X154153400Y-85035500D01*
X154153400Y-85035500D02*
X154153400Y-89670900D01*
X154153400Y-89670900D02*
X152550500Y-91273800D01*
X152550500Y-91273800D02*
X152192700Y-91273800D01*
X152192700Y-91273800D02*
X151567400Y-91899100D01*
X151567400Y-91899100D02*
X146645300Y-91899100D01*
X158901700Y-88264400D02*
X156718000Y-86080700D01*
X156718000Y-86080700D02*
X156718000Y-75565000D01*
X159258000Y-75565000D02*
X159258000Y-83712400D01*
X159258000Y-83712400D02*
X161222900Y-85677300D01*
X161798000Y-76740300D02*
X163521100Y-78463400D01*
X163521100Y-78463400D02*
X163521100Y-86063700D01*
X163521100Y-86063700D02*
X161748000Y-87836800D01*
X161798000Y-75565000D02*
X161798000Y-76740300D01*
X163162700Y-75565000D02*
X163162700Y-75197600D01*
X163162700Y-75197600D02*
X162354800Y-74389700D01*
X162354800Y-74389700D02*
X161282600Y-74389700D01*
X161282600Y-74389700D02*
X160617900Y-75054400D01*
X160617900Y-75054400D02*
X160617900Y-84040200D01*
X160617900Y-84040200D02*
X162051400Y-85473700D01*
X162051400Y-85473700D02*
X162051400Y-85670300D01*
X164338000Y-75565000D02*
X163162700Y-75565000D01*
X166878000Y-76740300D02*
X163974000Y-79644300D01*
X163974000Y-79644300D02*
X163974000Y-86520200D01*
X163974000Y-86520200D02*
X162601100Y-87893100D01*
X166878000Y-75565000D02*
X166878000Y-76740300D01*
X169418000Y-76740300D02*
X169418000Y-83821300D01*
X169418000Y-83821300D02*
X164763600Y-88475700D01*
X169418000Y-75565000D02*
X169418000Y-76740300D01*
X129714000Y-104803600D02*
X130051600Y-104466000D01*
X130051600Y-104466000D02*
X132322200Y-104466000D01*
X132322200Y-104466000D02*
X133224000Y-103564200D01*
X133224000Y-103564200D02*
X146087800Y-103564200D01*
X146087800Y-103564200D02*
X152748000Y-110224400D01*
X88776000Y-75235000D02*
X91055400Y-75235000D01*
X91055400Y-75235000D02*
X94392400Y-78572000D01*
X151748000Y-110187300D02*
X145631500Y-104070800D01*
X145631500Y-104070800D02*
X133354300Y-104070800D01*
X133354300Y-104070800D02*
X132412100Y-105013000D01*
X132412100Y-105013000D02*
X130939100Y-105013000D01*
X130939100Y-105013000D02*
X129915600Y-106036500D01*
X129915600Y-106036500D02*
X128762400Y-106036500D01*
X165747900Y-85669800D02*
X165747900Y-81198400D01*
X165747900Y-81198400D02*
X164599500Y-80050000D01*
X143301500Y-91899100D02*
X143126400Y-92074200D01*
X143126400Y-92074200D02*
X137217200Y-92074200D01*
X137217200Y-92074200D02*
X134107600Y-88964600D01*
X134107600Y-88964600D02*
X96680900Y-88964600D01*
X96680900Y-88964600D02*
X95170500Y-90475000D01*
X95170500Y-90475000D02*
X88776000Y-90475000D01*
X145450300Y-91899100D02*
X144185900Y-91899100D01*
X144185900Y-91899100D02*
X143560600Y-91273800D01*
X143560600Y-91273800D02*
X143042500Y-91273800D01*
X143042500Y-91273800D02*
X142692400Y-91623900D01*
X142692400Y-91623900D02*
X139479800Y-91623900D01*
X139479800Y-91623900D02*
X135790900Y-87935000D01*
X135790900Y-87935000D02*
X90601300Y-87935000D01*
X88776000Y-87935000D02*
X90601300Y-87935000D01*
X90601300Y-85395000D02*
X91560700Y-86354400D01*
X91560700Y-86354400D02*
X134847200Y-86354400D01*
X134847200Y-86354400D02*
X139491300Y-90998500D01*
X139491300Y-90998500D02*
X141916800Y-90998500D01*
X88776000Y-85395000D02*
X90601300Y-85395000D01*
X88776000Y-123495000D02*
X93198200Y-123495000D01*
X93198200Y-123495000D02*
X94691100Y-122002100D01*
X94691100Y-122002100D02*
X118408300Y-122002100D01*
X118408300Y-122002100D02*
X132245300Y-108165100D01*
X132245300Y-108165100D02*
X133718300Y-108165100D01*
X133718300Y-108165100D02*
X134329100Y-107554300D01*
X134329100Y-107554300D02*
X140760100Y-107554300D01*
X141636800Y-107129000D02*
X141405300Y-106897500D01*
X141405300Y-106897500D02*
X134349000Y-106897500D01*
X134349000Y-106897500D02*
X133531700Y-107714800D01*
X133531700Y-107714800D02*
X132058700Y-107714800D01*
X132058700Y-107714800D02*
X118818500Y-120955000D01*
X118818500Y-120955000D02*
X90601300Y-120955000D01*
X88776000Y-120955000D02*
X90601300Y-120955000D01*
X142384800Y-106497400D02*
X142334600Y-106447200D01*
X142334600Y-106447200D02*
X134162400Y-106447200D01*
X134162400Y-106447200D02*
X133345100Y-107264500D01*
X133345100Y-107264500D02*
X131872100Y-107264500D01*
X131872100Y-107264500D02*
X120410200Y-118726400D01*
X120410200Y-118726400D02*
X90912700Y-118726400D01*
X90912700Y-118726400D02*
X90601300Y-118415000D01*
X88776000Y-118415000D02*
X90601300Y-118415000D01*
X145456200Y-105422100D02*
X145005500Y-104971400D01*
X145005500Y-104971400D02*
X133727500Y-104971400D01*
X133727500Y-104971400D02*
X132785300Y-105913600D01*
X132785300Y-105913600D02*
X131312300Y-105913600D01*
X131312300Y-105913600D02*
X121350900Y-115875000D01*
X121350900Y-115875000D02*
X90601300Y-115875000D01*
X88776000Y-115875000D02*
X90601300Y-115875000D01*
X150899800Y-110235700D02*
X150899800Y-109981200D01*
X150899800Y-109981200D02*
X145439700Y-104521100D01*
X145439700Y-104521100D02*
X133540900Y-104521100D01*
X133540900Y-104521100D02*
X132598700Y-105463300D01*
X132598700Y-105463300D02*
X131125700Y-105463300D01*
X131125700Y-105463300D02*
X122089300Y-114499700D01*
X122089300Y-114499700D02*
X91766000Y-114499700D01*
X91766000Y-114499700D02*
X90601300Y-113335000D01*
X88776000Y-113335000D02*
X90601300Y-113335000D01*
X88776000Y-110795000D02*
X92774600Y-110795000D01*
X92774600Y-110795000D02*
X93916600Y-109653000D01*
X152056700Y-113061600D02*
X147641200Y-113061600D01*
X147641200Y-113061600D02*
X143186400Y-108606800D01*
X143186400Y-108606800D02*
X142668300Y-108606800D01*
X142668300Y-108606800D02*
X142594000Y-108681100D01*
X142594000Y-108681100D02*
X134663100Y-108681100D01*
X134663100Y-108681100D02*
X134079500Y-109264700D01*
X155543800Y-113079000D02*
X154280000Y-111815200D01*
X154280000Y-111815200D02*
X149795900Y-111815200D01*
X149795900Y-111815200D02*
X143852700Y-105872000D01*
X143852700Y-105872000D02*
X134100700Y-105872000D01*
X134100700Y-105872000D02*
X133158500Y-106814200D01*
X133158500Y-106814200D02*
X131685500Y-106814200D01*
X131685500Y-106814200D02*
X120398600Y-118101100D01*
X120398600Y-118101100D02*
X91986800Y-118101100D01*
X157248000Y-113272700D02*
X154836400Y-110861100D01*
X154836400Y-110861100D02*
X149519500Y-110861100D01*
X149519500Y-110861100D02*
X144080100Y-105421700D01*
X144080100Y-105421700D02*
X133914100Y-105421700D01*
X133914100Y-105421700D02*
X132971900Y-106363900D01*
X132971900Y-106363900D02*
X131498900Y-106363900D01*
X131498900Y-106363900D02*
X120962300Y-116900500D01*
X120962300Y-116900500D02*
X92360300Y-116900500D01*
X162821600Y-110912100D02*
X162821600Y-104761000D01*
X162821600Y-104761000D02*
X165500500Y-102082100D01*
X165500500Y-102082100D02*
X167300800Y-102082100D01*
X167300800Y-102082100D02*
X167593500Y-102374800D01*
X167593500Y-102374800D02*
X169855700Y-102374800D01*
X169855700Y-102374800D02*
X171314500Y-100916000D01*
X171314500Y-100916000D02*
X171314500Y-100341300D01*
X171314500Y-100341300D02*
X170058400Y-99085200D01*
X170058400Y-99085200D02*
X170058400Y-98010900D01*
X170058400Y-98010900D02*
X170533900Y-97535400D01*
X170533900Y-97535400D02*
X170677300Y-97535400D01*
X170677300Y-97535400D02*
X171377500Y-96835200D01*
X171377500Y-96835200D02*
X171377500Y-96390900D01*
X171377500Y-96390900D02*
X170343800Y-95357200D01*
X170343800Y-95357200D02*
X162450400Y-95357200D01*
X162450400Y-95357200D02*
X162131000Y-95676600D01*
X162131000Y-95676600D02*
X129518600Y-95676600D01*
X129518600Y-95676600D02*
X127683200Y-97512000D01*
X127683200Y-97512000D02*
X106203900Y-97512000D01*
X92533300Y-79714200D02*
X104891600Y-79714200D01*
X104891600Y-79714200D02*
X106750700Y-81573300D01*
X137759900Y-101605400D02*
X152819100Y-101605400D01*
X152819100Y-101605400D02*
X161669800Y-110456100D01*
X168540600Y-101742600D02*
X168540600Y-100940400D01*
X168540600Y-100940400D02*
X167365300Y-99765100D01*
X167365300Y-99765100D02*
X134832300Y-99765100D01*
X134832300Y-99765100D02*
X133427700Y-101169700D01*
X133427700Y-101169700D02*
X129915700Y-101169700D01*
X129915700Y-101169700D02*
X121183300Y-109902100D01*
X121183300Y-109902100D02*
X113011600Y-109902100D01*
X113011600Y-109902100D02*
X111973400Y-110940300D01*
X111973400Y-110940300D02*
X106097400Y-110940300D01*
X92111600Y-113335000D02*
X92825900Y-114049300D01*
X92825900Y-114049300D02*
X119583700Y-114049300D01*
X119583700Y-114049300D02*
X129617400Y-104015600D01*
X129617400Y-104015600D02*
X132135700Y-104015600D01*
X132135700Y-104015600D02*
X135213800Y-100937500D01*
X135213800Y-100937500D02*
X166769000Y-100937500D01*
X166769000Y-100937500D02*
X166946500Y-101115000D01*
X166946500Y-101115000D02*
X167694800Y-101115000D01*
X170679500Y-100615000D02*
X169300900Y-99236400D01*
X169300900Y-99236400D02*
X134724100Y-99236400D01*
X134724100Y-99236400D02*
X133241100Y-100719400D01*
X133241100Y-100719400D02*
X129729100Y-100719400D01*
X129729100Y-100719400D02*
X121266000Y-109182500D01*
X121266000Y-109182500D02*
X107958800Y-109182500D01*
X107958800Y-109182500D02*
X106853400Y-110287900D01*
X167124700Y-100408900D02*
X134825400Y-100408900D01*
X134825400Y-100408900D02*
X131914000Y-103320300D01*
X131914000Y-103320300D02*
X128402000Y-103320300D01*
X128402000Y-103320300D02*
X121189000Y-110533300D01*
X121189000Y-110533300D02*
X114540500Y-110533300D01*
X105874500Y-106032200D02*
X123142500Y-106032200D01*
X123142500Y-106032200D02*
X129355900Y-99818800D01*
X129355900Y-99818800D02*
X132867900Y-99818800D01*
X132867900Y-99818800D02*
X134525900Y-98160800D01*
X134525900Y-98160800D02*
X167138900Y-98160800D01*
X96079800Y-100160700D02*
X97015000Y-100160700D01*
X97015000Y-100160700D02*
X99080900Y-98094800D01*
X99080900Y-98094800D02*
X105902400Y-98094800D01*
X105902400Y-98094800D02*
X105986800Y-98179200D01*
X105986800Y-98179200D02*
X128026200Y-98179200D01*
X128026200Y-98179200D02*
X130078500Y-96126900D01*
X130078500Y-96126900D02*
X166759800Y-96126900D01*
X166759800Y-96126900D02*
X166884700Y-96002000D01*
X168556800Y-98206700D02*
X167977400Y-98786100D01*
X167977400Y-98786100D02*
X134537500Y-98786100D01*
X134537500Y-98786100D02*
X133054500Y-100269100D01*
X133054500Y-100269100D02*
X129542500Y-100269100D01*
X129542500Y-100269100D02*
X121260400Y-108551200D01*
X121260400Y-108551200D02*
X105571100Y-108551200D01*
X105571100Y-108551200D02*
X102822600Y-111299700D01*
X102822600Y-111299700D02*
X102822600Y-112727500D01*
X102822600Y-112727500D02*
X102003400Y-113546700D01*
X102003400Y-113546700D02*
X100970400Y-113546700D01*
X100970400Y-113546700D02*
X100188000Y-112764300D01*
X100188000Y-112764300D02*
X100188000Y-111970800D01*
X100188000Y-111970800D02*
X96472200Y-108255000D01*
X96472200Y-108255000D02*
X88776000Y-108255000D01*
X102090800Y-106567600D02*
X103001500Y-106567600D01*
X103001500Y-106567600D02*
X104181200Y-105387900D01*
X104181200Y-105387900D02*
X123149900Y-105387900D01*
X123149900Y-105387900D02*
X129169300Y-99368500D01*
X129169300Y-99368500D02*
X132324500Y-99368500D01*
X132324500Y-99368500D02*
X134157600Y-97535400D01*
X134157600Y-97535400D02*
X169789800Y-97535400D01*
X169789800Y-97535400D02*
X170710200Y-96615000D01*
X88776000Y-105715000D02*
X90601300Y-105715000D01*
X90601300Y-105715000D02*
X91186100Y-106299800D01*
X91186100Y-106299800D02*
X91530800Y-106299800D01*
X88776000Y-103175000D02*
X124725900Y-103175000D01*
X124725900Y-103175000D02*
X128982700Y-98918200D01*
X128982700Y-98918200D02*
X131857800Y-98918200D01*
X131857800Y-98918200D02*
X133690900Y-97085100D01*
X133690900Y-97085100D02*
X167762600Y-97085100D01*
X167762600Y-97085100D02*
X168534500Y-96313200D01*
X167685100Y-96012500D02*
X167685100Y-96096000D01*
X167685100Y-96096000D02*
X167146400Y-96634700D01*
X167146400Y-96634700D02*
X133249200Y-96634700D01*
X133249200Y-96634700D02*
X131416100Y-98467800D01*
X131416100Y-98467800D02*
X128374500Y-98467800D01*
X128374500Y-98467800D02*
X126207300Y-100635000D01*
X126207300Y-100635000D02*
X97177600Y-100635000D01*
X97177600Y-100635000D02*
X97021600Y-100791000D01*
X97021600Y-100791000D02*
X90757300Y-100791000D01*
X90757300Y-100791000D02*
X90601300Y-100635000D01*
X88776000Y-100635000D02*
X90601300Y-100635000D01*
X168212300Y-89913100D02*
X166373100Y-89913100D01*
X166373100Y-89913100D02*
X161510200Y-94776000D01*
X161510200Y-94776000D02*
X129145400Y-94776000D01*
X129145400Y-94776000D02*
X127486800Y-96434600D01*
X127486800Y-96434600D02*
X97493200Y-96434600D01*
X97493200Y-96434600D02*
X96788700Y-97139100D01*
X96788700Y-97139100D02*
X90844000Y-97139100D01*
X96498200Y-96492700D02*
X97006600Y-95984300D01*
X97006600Y-95984300D02*
X127300200Y-95984300D01*
X127300200Y-95984300D02*
X128958800Y-94325700D01*
X128958800Y-94325700D02*
X161323600Y-94325700D01*
X161323600Y-94325700D02*
X167159600Y-88489700D01*
X167159600Y-88489700D02*
X168544700Y-88489700D01*
X91808900Y-95294400D02*
X92019600Y-95083700D01*
X92019600Y-95083700D02*
X126927000Y-95083700D01*
X126927000Y-95083700D02*
X128585600Y-93425100D01*
X128585600Y-93425100D02*
X160765500Y-93425100D01*
X160765500Y-93425100D02*
X167063500Y-87127100D01*
X167063500Y-87127100D02*
X168401600Y-87127100D01*
X95286400Y-95761700D02*
X95514100Y-95534000D01*
X95514100Y-95534000D02*
X127113600Y-95534000D01*
X127113600Y-95534000D02*
X128772200Y-93875400D01*
X128772200Y-93875400D02*
X161136900Y-93875400D01*
X161136900Y-93875400D02*
X167170600Y-87841700D01*
X167170600Y-87841700D02*
X167248000Y-87841700D01*
X166632200Y-90538500D02*
X161944400Y-95226300D01*
X161944400Y-95226300D02*
X129332000Y-95226300D01*
X129332000Y-95226300D02*
X127673400Y-96884900D01*
X127673400Y-96884900D02*
X99375300Y-96884900D01*
X99375300Y-96884900D02*
X98165200Y-98095000D01*
X98165200Y-98095000D02*
X90601300Y-98095000D01*
X88776000Y-98095000D02*
X90601300Y-98095000D01*
X90601300Y-95555000D02*
X91522900Y-94633400D01*
X91522900Y-94633400D02*
X124922600Y-94633400D01*
X124922600Y-94633400D02*
X126581200Y-92974800D01*
X126581200Y-92974800D02*
X158980000Y-92974800D01*
X158980000Y-92974800D02*
X164111500Y-87843300D01*
X88776000Y-95555000D02*
X90601300Y-95555000D01*
X90601300Y-93015000D02*
X91323900Y-93737600D01*
X91323900Y-93737600D02*
X112138300Y-93737600D01*
X112138300Y-93737600D02*
X113722100Y-92153800D01*
X113722100Y-92153800D02*
X133676700Y-92153800D01*
X133676700Y-92153800D02*
X134047400Y-92524500D01*
X134047400Y-92524500D02*
X156096200Y-92524500D01*
X156096200Y-92524500D02*
X162876500Y-85744200D01*
X162876500Y-85744200D02*
X162876500Y-85579200D01*
X88776000Y-93015000D02*
X90601300Y-93015000D01*
X153508100Y-85680100D02*
X153508100Y-85120300D01*
X153508100Y-85120300D02*
X146292700Y-77904900D01*
X146292700Y-77904900D02*
X146292700Y-75149900D01*
X146292700Y-75149900D02*
X144581200Y-73438400D01*
X144581200Y-73438400D02*
X101786700Y-73438400D01*
X101786700Y-73438400D02*
X96005400Y-79219700D01*
X96005400Y-79219700D02*
X92923200Y-79219700D01*
X92923200Y-79219700D02*
X91478500Y-77775000D01*
X91478500Y-77775000D02*
X90601300Y-77775000D01*
X88776000Y-77775000D02*
X90601300Y-77775000D01*
X90414700Y-80315000D02*
X90414700Y-81015800D01*
X90414700Y-81015800D02*
X93593900Y-84195000D01*
X93593900Y-84195000D02*
X136378700Y-84195000D01*
X136378700Y-84195000D02*
X141124500Y-88940800D01*
X141124500Y-88940800D02*
X142555100Y-88940800D01*
X142555100Y-88940800D02*
X142555100Y-88940900D01*
X142555100Y-88940900D02*
X151596600Y-88940900D01*
X151596600Y-88940900D02*
X152161400Y-88376100D01*
X88776000Y-80315000D02*
X90414700Y-80315000D01*
X152748000Y-85283200D02*
X152748000Y-86804500D01*
X152748000Y-86804500D02*
X153687300Y-87743800D01*
X153687300Y-87743800D02*
X153687300Y-89463000D01*
X153687300Y-89463000D02*
X152326800Y-90823500D01*
X152326800Y-90823500D02*
X152006100Y-90823500D01*
X152006100Y-90823500D02*
X151877700Y-90951900D01*
X151877700Y-90951900D02*
X143875600Y-90951900D01*
X143875600Y-90951900D02*
X143739000Y-90815300D01*
X143739000Y-90815300D02*
X142617900Y-90815300D01*
X142617900Y-90815300D02*
X142617900Y-90815200D01*
X142617900Y-90815200D02*
X142175900Y-90373200D01*
X142175900Y-90373200D02*
X141920000Y-90373200D01*
X141920000Y-90373200D02*
X136422500Y-84875700D01*
X136422500Y-84875700D02*
X92622000Y-84875700D01*
X92622000Y-84875700D02*
X90601300Y-82855000D01*
X88776000Y-82855000D02*
X90601300Y-82855000D01*
X93171900Y-82855000D02*
X136469200Y-82855000D01*
X136469200Y-82855000D02*
X140799400Y-87185200D01*
X140799400Y-87185200D02*
X141436400Y-87185200D01*
X141436400Y-87185200D02*
X142741800Y-88490600D01*
X142741800Y-88490600D02*
X150278100Y-88490600D01*
X150278100Y-88490600D02*
X150836400Y-87932300D01*
X135642100Y-88756200D02*
X135400100Y-88514200D01*
X135400100Y-88514200D02*
X90838700Y-88514200D01*
X90838700Y-88514200D02*
X90780300Y-88572600D01*
X96002300Y-85660000D02*
X136308600Y-85660000D01*
X136308600Y-85660000D02*
X138737100Y-88088500D01*
X142899400Y-107971900D02*
X142666300Y-107971900D01*
X142666300Y-107971900D02*
X142446200Y-108192000D01*
X142446200Y-108192000D02*
X134328300Y-108192000D01*
X134328300Y-108192000D02*
X133904900Y-108615400D01*
X133904900Y-108615400D02*
X132431900Y-108615400D01*
X132431900Y-108615400D02*
X131466000Y-109581300D01*
X131466000Y-109581300D02*
X131466000Y-109968500D01*
X132690900Y-109240700D02*
X133408500Y-109958300D01*
X133408500Y-109958300D02*
X134654800Y-109958300D01*
X134654800Y-109958300D02*
X135464100Y-109149000D01*
X135464100Y-109149000D02*
X142844200Y-109149000D01*
X142844200Y-109149000D02*
X142927300Y-109232100D01*
X150992500Y-85667500D02*
X150321400Y-86338600D01*
X150321400Y-86338600D02*
X144181000Y-86338600D01*
X144181000Y-86338600D02*
X140694900Y-82852500D01*
X150515800Y-117647800D02*
X152688300Y-115475300D01*
X152688300Y-115475300D02*
X152688300Y-112785400D01*
X152688300Y-112785400D02*
X152168400Y-112265500D01*
X152168400Y-112265500D02*
X148953300Y-112265500D01*
X148953300Y-112265500D02*
X143185200Y-106497400D01*
X161798000Y-122649700D02*
X161798000Y-116919000D01*
X161798000Y-116919000D02*
X149258000Y-104379000D01*
X149258000Y-104379000D02*
X149258000Y-103597400D01*
X149258000Y-103597400D02*
X149802600Y-103052800D01*
X149802600Y-103052800D02*
X149900100Y-103052800D01*
X161798000Y-123825000D02*
X161798000Y-122649700D01*
X164338000Y-122649700D02*
X164338000Y-118593900D01*
X164338000Y-118593900D02*
X149883300Y-104139200D01*
X149883300Y-104139200D02*
X149883300Y-103870400D01*
X164338000Y-123825000D02*
X164338000Y-122649700D01*
X150683700Y-104008100D02*
X166878000Y-120202400D01*
X166878000Y-120202400D02*
X166878000Y-122649700D01*
X166878000Y-123825000D02*
X166878000Y-122649700D01*
X169418000Y-123825000D02*
X169418000Y-121681500D01*
X169418000Y-121681500D02*
X150016600Y-102280100D01*
X150016600Y-102280100D02*
X147536900Y-102280100D01*
X143348200Y-87865200D02*
X142217800Y-86734800D01*
X142217800Y-86734800D02*
X141003300Y-86734800D01*
X141003300Y-86734800D02*
X134874000Y-80605500D01*
X134874000Y-80605500D02*
X134874000Y-76740300D01*
X134874000Y-75565000D02*
X134874000Y-76740300D01*
D21*
G36*
X180086000Y-121232394D02*
X176948197Y-124370197D01*
X176920667Y-124411399D01*
X176911000Y-124460000D01*
X176911000Y-126655000D01*
X126247783Y-126655000D01*
X126460608Y-126566845D01*
X127201845Y-125825608D01*
X127603000Y-124857134D01*
X127603000Y-123808866D01*
X127201845Y-122840392D01*
X126460608Y-122099155D01*
X125492134Y-121698000D01*
X124443866Y-121698000D01*
X123475392Y-122099155D01*
X122734155Y-122840392D01*
X122333000Y-123808866D01*
X122333000Y-124857134D01*
X122734155Y-125825608D01*
X123475392Y-126566845D01*
X123688217Y-126655000D01*
X106222365Y-126655000D01*
X106497102Y-126329138D01*
X106632100Y-125904460D01*
X106632100Y-125629460D01*
X105624100Y-125629460D01*
X105624100Y-125649460D01*
X105370100Y-125649460D01*
X105370100Y-125629460D01*
X104362100Y-125629460D01*
X104362100Y-125904460D01*
X104497098Y-126329138D01*
X104771835Y-126655000D01*
X99222365Y-126655000D01*
X99497102Y-126329138D01*
X99632100Y-125904460D01*
X99632100Y-125629460D01*
X98624100Y-125629460D01*
X98624100Y-125649460D01*
X98370100Y-125649460D01*
X98370100Y-125629460D01*
X97362100Y-125629460D01*
X97362100Y-125904460D01*
X97497098Y-126329138D01*
X97771835Y-126655000D01*
X87708000Y-126655000D01*
X87708000Y-125100460D01*
X97362100Y-125100460D01*
X97362100Y-125375460D01*
X98370100Y-125375460D01*
X98370100Y-124259506D01*
X98624100Y-124259506D01*
X98624100Y-125375460D01*
X99632100Y-125375460D01*
X99632100Y-125100460D01*
X104362100Y-125100460D01*
X104362100Y-125375460D01*
X105370100Y-125375460D01*
X105370100Y-124259506D01*
X105624100Y-124259506D01*
X105624100Y-125375460D01*
X106632100Y-125375460D01*
X106632100Y-125100460D01*
X106497102Y-124675782D01*
X106209863Y-124335092D01*
X105798974Y-124133341D01*
X105624100Y-124259506D01*
X105370100Y-124259506D01*
X105195226Y-124133341D01*
X104784337Y-124335092D01*
X104497098Y-124675782D01*
X104362100Y-125100460D01*
X99632100Y-125100460D01*
X99497102Y-124675782D01*
X99209863Y-124335092D01*
X98798974Y-124133341D01*
X98624100Y-124259506D01*
X98370100Y-124259506D01*
X98195226Y-124133341D01*
X97784337Y-124335092D01*
X97497098Y-124675782D01*
X97362100Y-125100460D01*
X87708000Y-125100460D01*
X87708000Y-124904440D01*
X90276000Y-124904440D01*
X90523765Y-124855157D01*
X90733809Y-124714809D01*
X90874157Y-124504765D01*
X90923440Y-124257000D01*
X90923440Y-124255000D01*
X93123353Y-124255000D01*
X93198200Y-124269888D01*
X93273047Y-124255000D01*
X93273052Y-124255000D01*
X93494737Y-124210904D01*
X93746129Y-124042929D01*
X93788531Y-123979470D01*
X94667604Y-123100398D01*
X98277832Y-123100398D01*
X98461548Y-123474281D01*
X98786051Y-123762028D01*
X99195969Y-123903689D01*
X99370100Y-123755023D01*
X99370100Y-122929460D01*
X99624100Y-122929460D01*
X99624100Y-123755023D01*
X99798231Y-123903689D01*
X100208149Y-123762028D01*
X100532652Y-123474281D01*
X100716368Y-123100398D01*
X103277832Y-123100398D01*
X103461548Y-123474281D01*
X103786051Y-123762028D01*
X104195969Y-123903689D01*
X104370100Y-123755023D01*
X104370100Y-122929460D01*
X104624100Y-122929460D01*
X104624100Y-123755023D01*
X104798231Y-123903689D01*
X105208149Y-123762028D01*
X105532652Y-123474281D01*
X105716368Y-123100398D01*
X105589834Y-122929460D01*
X104624100Y-122929460D01*
X104370100Y-122929460D01*
X103404366Y-122929460D01*
X103277832Y-123100398D01*
X100716368Y-123100398D01*
X100589834Y-122929460D01*
X99624100Y-122929460D01*
X99370100Y-122929460D01*
X98404366Y-122929460D01*
X98277832Y-123100398D01*
X94667604Y-123100398D01*
X95005903Y-122762100D01*
X118333453Y-122762100D01*
X118408300Y-122776988D01*
X118483147Y-122762100D01*
X118483152Y-122762100D01*
X118704837Y-122718004D01*
X118956229Y-122550029D01*
X118998631Y-122486570D01*
X130830206Y-110654996D01*
X130936365Y-110761155D01*
X131280017Y-110903500D01*
X131651983Y-110903500D01*
X131995635Y-110761155D01*
X132258655Y-110498135D01*
X132401000Y-110154483D01*
X132401000Y-110132656D01*
X132504917Y-110175700D01*
X132551098Y-110175700D01*
X132818171Y-110442773D01*
X132860571Y-110506229D01*
X132924027Y-110548629D01*
X133111962Y-110674204D01*
X133160105Y-110683780D01*
X133333648Y-110718300D01*
X133333652Y-110718300D01*
X133408500Y-110733188D01*
X133483348Y-110718300D01*
X134579953Y-110718300D01*
X134653193Y-110732868D01*
X134765845Y-111004835D01*
X134798501Y-111037491D01*
X134798500Y-116655353D01*
X134783612Y-116730200D01*
X134798500Y-116805047D01*
X134798500Y-116805051D01*
X134842596Y-117026736D01*
X135010571Y-117278129D01*
X135074030Y-117320531D01*
X140467619Y-122714121D01*
X140407375Y-122754375D01*
X140395184Y-122772619D01*
X140386157Y-122727235D01*
X140245809Y-122517191D01*
X140035765Y-122376843D01*
X139788000Y-122327560D01*
X138088000Y-122327560D01*
X137840235Y-122376843D01*
X137630191Y-122517191D01*
X137489843Y-122727235D01*
X137440560Y-122975000D01*
X137440560Y-124675000D01*
X137489843Y-124922765D01*
X137630191Y-125132809D01*
X137840235Y-125273157D01*
X138088000Y-125322440D01*
X139788000Y-125322440D01*
X140035765Y-125273157D01*
X140245809Y-125132809D01*
X140386157Y-124922765D01*
X140395184Y-124877381D01*
X140407375Y-124895625D01*
X140898582Y-125223839D01*
X141331744Y-125310000D01*
X141624256Y-125310000D01*
X142057418Y-125223839D01*
X142388629Y-125002531D01*
X142870871Y-125484773D01*
X142913271Y-125548229D01*
X143164663Y-125716204D01*
X143386348Y-125760300D01*
X143386352Y-125760300D01*
X143461199Y-125775188D01*
X143536046Y-125760300D01*
X144499853Y-125760300D01*
X144574700Y-125775188D01*
X144649547Y-125760300D01*
X144649552Y-125760300D01*
X144871237Y-125716204D01*
X145122629Y-125548229D01*
X145165031Y-125484770D01*
X145647311Y-125002491D01*
X145978582Y-125223839D01*
X146411744Y-125310000D01*
X146704256Y-125310000D01*
X147137418Y-125223839D01*
X147628625Y-124895625D01*
X147828000Y-124597239D01*
X148027375Y-124895625D01*
X148518582Y-125223839D01*
X148951744Y-125310000D01*
X149244256Y-125310000D01*
X149677418Y-125223839D01*
X150168625Y-124895625D01*
X150381843Y-124576522D01*
X150442817Y-124706358D01*
X150871076Y-125096645D01*
X151281110Y-125266476D01*
X151511000Y-125145155D01*
X151511000Y-123952000D01*
X151765000Y-123952000D01*
X151765000Y-125145155D01*
X151994890Y-125266476D01*
X152404924Y-125096645D01*
X152833183Y-124706358D01*
X152908000Y-124547046D01*
X152982817Y-124706358D01*
X153411076Y-125096645D01*
X153821110Y-125266476D01*
X154051000Y-125145155D01*
X154051000Y-123952000D01*
X151765000Y-123952000D01*
X151511000Y-123952000D01*
X151491000Y-123952000D01*
X151491000Y-123698000D01*
X151511000Y-123698000D01*
X151511000Y-122504845D01*
X151765000Y-122504845D01*
X151765000Y-123698000D01*
X154051000Y-123698000D01*
X154051000Y-122504845D01*
X154305000Y-122504845D01*
X154305000Y-123698000D01*
X154325000Y-123698000D01*
X154325000Y-123952000D01*
X154305000Y-123952000D01*
X154305000Y-125145155D01*
X154534890Y-125266476D01*
X154944924Y-125096645D01*
X155373183Y-124706358D01*
X155434157Y-124576522D01*
X155647375Y-124895625D01*
X156138582Y-125223839D01*
X156571744Y-125310000D01*
X156864256Y-125310000D01*
X157297418Y-125223839D01*
X157788625Y-124895625D01*
X158116839Y-124404418D01*
X158232092Y-123825000D01*
X158116839Y-123245582D01*
X157788625Y-122754375D01*
X157297418Y-122426161D01*
X156864256Y-122340000D01*
X156571744Y-122340000D01*
X156138582Y-122426161D01*
X155647375Y-122754375D01*
X155434157Y-123073478D01*
X155373183Y-122943642D01*
X154944924Y-122553355D01*
X154534890Y-122383524D01*
X154305000Y-122504845D01*
X154051000Y-122504845D01*
X153821110Y-122383524D01*
X153411076Y-122553355D01*
X152982817Y-122943642D01*
X152908000Y-123102954D01*
X152833183Y-122943642D01*
X152404924Y-122553355D01*
X151994890Y-122383524D01*
X151765000Y-122504845D01*
X151511000Y-122504845D01*
X151281110Y-122383524D01*
X150871076Y-122553355D01*
X150442817Y-122943642D01*
X150381843Y-123073478D01*
X150168625Y-122754375D01*
X149677418Y-122426161D01*
X149244256Y-122340000D01*
X148951744Y-122340000D01*
X148518582Y-122426161D01*
X148187311Y-122647509D01*
X140854731Y-115314930D01*
X140812329Y-115251471D01*
X140560937Y-115083496D01*
X140339252Y-115039400D01*
X140339247Y-115039400D01*
X140264400Y-115024512D01*
X140189553Y-115039400D01*
X137615290Y-115039400D01*
X137582535Y-115006645D01*
X137238883Y-114864300D01*
X137160200Y-114864300D01*
X137160200Y-110349390D01*
X137192855Y-110316735D01*
X137335200Y-109973083D01*
X137335200Y-109909000D01*
X142281910Y-109909000D01*
X142397665Y-110024755D01*
X142741317Y-110167100D01*
X143113283Y-110167100D01*
X143456935Y-110024755D01*
X143493244Y-109988446D01*
X147050871Y-113546073D01*
X147093271Y-113609529D01*
X147344663Y-113777504D01*
X147566348Y-113821600D01*
X147566352Y-113821600D01*
X147641200Y-113836488D01*
X147716048Y-113821600D01*
X151494410Y-113821600D01*
X151527065Y-113854255D01*
X151870717Y-113996600D01*
X151928301Y-113996600D01*
X151928300Y-115160498D01*
X150375999Y-116712800D01*
X150329817Y-116712800D01*
X149986165Y-116855145D01*
X149723145Y-117118165D01*
X149580800Y-117461817D01*
X149580800Y-117833783D01*
X149723145Y-118177435D01*
X149986165Y-118440455D01*
X150329817Y-118582800D01*
X150701783Y-118582800D01*
X151045435Y-118440455D01*
X151308455Y-118177435D01*
X151450800Y-117833783D01*
X151450800Y-117787601D01*
X153172773Y-116065629D01*
X153236229Y-116023229D01*
X153404204Y-115771837D01*
X153448300Y-115550152D01*
X153448300Y-115550147D01*
X153463188Y-115475300D01*
X153448300Y-115400453D01*
X153448300Y-112860248D01*
X153463188Y-112785400D01*
X153448300Y-112710552D01*
X153448300Y-112710548D01*
X153421378Y-112575200D01*
X153965199Y-112575200D01*
X154608800Y-113218802D01*
X154608800Y-113264983D01*
X154751145Y-113608635D01*
X155014165Y-113871655D01*
X155357817Y-114014000D01*
X155729783Y-114014000D01*
X156073435Y-113871655D01*
X156336455Y-113608635D01*
X156355784Y-113561972D01*
X156455345Y-113802335D01*
X156718365Y-114065355D01*
X157062017Y-114207700D01*
X157433983Y-114207700D01*
X157777635Y-114065355D01*
X157823594Y-114019396D01*
X161038001Y-117233803D01*
X161038000Y-122327560D01*
X160948000Y-122327560D01*
X160700235Y-122376843D01*
X160490191Y-122517191D01*
X160349843Y-122727235D01*
X160300560Y-122975000D01*
X160300560Y-124675000D01*
X160349843Y-124922765D01*
X160490191Y-125132809D01*
X160700235Y-125273157D01*
X160948000Y-125322440D01*
X162648000Y-125322440D01*
X162895765Y-125273157D01*
X163105809Y-125132809D01*
X163246157Y-124922765D01*
X163255184Y-124877381D01*
X163267375Y-124895625D01*
X163758582Y-125223839D01*
X164191744Y-125310000D01*
X164484256Y-125310000D01*
X164917418Y-125223839D01*
X165408625Y-124895625D01*
X165608000Y-124597239D01*
X165807375Y-124895625D01*
X166298582Y-125223839D01*
X166731744Y-125310000D01*
X167024256Y-125310000D01*
X167457418Y-125223839D01*
X167948625Y-124895625D01*
X168148000Y-124597239D01*
X168347375Y-124895625D01*
X168838582Y-125223839D01*
X169271744Y-125310000D01*
X169564256Y-125310000D01*
X169997418Y-125223839D01*
X170488625Y-124895625D01*
X170688000Y-124597239D01*
X170887375Y-124895625D01*
X171378582Y-125223839D01*
X171811744Y-125310000D01*
X172104256Y-125310000D01*
X172537418Y-125223839D01*
X173028625Y-124895625D01*
X173228000Y-124597239D01*
X173427375Y-124895625D01*
X173918582Y-125223839D01*
X174351744Y-125310000D01*
X174644256Y-125310000D01*
X175077418Y-125223839D01*
X175568625Y-124895625D01*
X175896839Y-124404418D01*
X176012092Y-123825000D01*
X175896839Y-123245582D01*
X175568625Y-122754375D01*
X175258000Y-122546822D01*
X175258000Y-121199453D01*
X175545392Y-121486845D01*
X176513866Y-121888000D01*
X177562134Y-121888000D01*
X178530608Y-121486845D01*
X179271845Y-120745608D01*
X179673000Y-119777134D01*
X179673000Y-118728866D01*
X179271845Y-117760392D01*
X178530608Y-117019155D01*
X177562134Y-116618000D01*
X176513866Y-116618000D01*
X175545392Y-117019155D01*
X175258000Y-117306547D01*
X175258000Y-110873748D01*
X175272888Y-110798900D01*
X175258000Y-110724052D01*
X175258000Y-110724048D01*
X175213904Y-110502363D01*
X175213904Y-110502362D01*
X175088329Y-110314427D01*
X175045929Y-110250971D01*
X174982473Y-110208571D01*
X167908701Y-103134800D01*
X169780853Y-103134800D01*
X169855700Y-103149688D01*
X169930547Y-103134800D01*
X169930552Y-103134800D01*
X170152237Y-103090704D01*
X170403629Y-102922729D01*
X170446031Y-102859270D01*
X171798973Y-101506329D01*
X171862429Y-101463929D01*
X171942630Y-101343900D01*
X172030404Y-101212538D01*
X172047855Y-101124804D01*
X172074500Y-100990852D01*
X172074500Y-100990848D01*
X172089388Y-100916000D01*
X172074500Y-100841152D01*
X172074500Y-100416148D01*
X172089388Y-100341300D01*
X172074500Y-100266452D01*
X172074500Y-100266448D01*
X172033761Y-100061638D01*
X172030404Y-100044762D01*
X171904829Y-99856827D01*
X171862429Y-99793371D01*
X171798973Y-99750971D01*
X170818400Y-98770399D01*
X170818400Y-98325701D01*
X170872674Y-98271427D01*
X170973837Y-98251304D01*
X171225229Y-98083329D01*
X171267630Y-98019871D01*
X171861976Y-97425527D01*
X171925429Y-97383129D01*
X171958834Y-97333135D01*
X174015171Y-99389473D01*
X174057571Y-99452929D01*
X174308963Y-99620904D01*
X174530648Y-99665000D01*
X174530652Y-99665000D01*
X174605499Y-99679888D01*
X174680346Y-99665000D01*
X175719822Y-99665000D01*
X175927375Y-99975625D01*
X176225761Y-100175000D01*
X175927375Y-100374375D01*
X175599161Y-100865582D01*
X175483908Y-101445000D01*
X175599161Y-102024418D01*
X175927375Y-102515625D01*
X176418582Y-102843839D01*
X176851744Y-102930000D01*
X177144256Y-102930000D01*
X177577418Y-102843839D01*
X178068625Y-102515625D01*
X178396839Y-102024418D01*
X178512092Y-101445000D01*
X178396839Y-100865582D01*
X178174690Y-100533112D01*
X178663673Y-100044129D01*
X178727129Y-100001729D01*
X178846990Y-99822345D01*
X178895104Y-99750338D01*
X178912071Y-99665037D01*
X178939200Y-99528652D01*
X178939200Y-99528648D01*
X178954088Y-99453800D01*
X178939200Y-99378952D01*
X178939200Y-98498784D01*
X178954088Y-98423974D01*
X178939200Y-98349089D01*
X178939200Y-98349048D01*
X178923166Y-98268439D01*
X178895132Y-98127432D01*
X178895112Y-98127402D01*
X178895104Y-98127363D01*
X178810989Y-98001477D01*
X178769576Y-97939484D01*
X178769549Y-97939457D01*
X178743832Y-97900969D01*
X179892173Y-96752629D01*
X179955629Y-96710229D01*
X180006096Y-96634700D01*
X180086000Y-96515116D01*
X180086000Y-121232394D01*
X180086000Y-121232394D01*
G37*
X180086000Y-121232394D02*
X176948197Y-124370197D01*
X176920667Y-124411399D01*
X176911000Y-124460000D01*
X176911000Y-126655000D01*
X126247783Y-126655000D01*
X126460608Y-126566845D01*
X127201845Y-125825608D01*
X127603000Y-124857134D01*
X127603000Y-123808866D01*
X127201845Y-122840392D01*
X126460608Y-122099155D01*
X125492134Y-121698000D01*
X124443866Y-121698000D01*
X123475392Y-122099155D01*
X122734155Y-122840392D01*
X122333000Y-123808866D01*
X122333000Y-124857134D01*
X122734155Y-125825608D01*
X123475392Y-126566845D01*
X123688217Y-126655000D01*
X106222365Y-126655000D01*
X106497102Y-126329138D01*
X106632100Y-125904460D01*
X106632100Y-125629460D01*
X105624100Y-125629460D01*
X105624100Y-125649460D01*
X105370100Y-125649460D01*
X105370100Y-125629460D01*
X104362100Y-125629460D01*
X104362100Y-125904460D01*
X104497098Y-126329138D01*
X104771835Y-126655000D01*
X99222365Y-126655000D01*
X99497102Y-126329138D01*
X99632100Y-125904460D01*
X99632100Y-125629460D01*
X98624100Y-125629460D01*
X98624100Y-125649460D01*
X98370100Y-125649460D01*
X98370100Y-125629460D01*
X97362100Y-125629460D01*
X97362100Y-125904460D01*
X97497098Y-126329138D01*
X97771835Y-126655000D01*
X87708000Y-126655000D01*
X87708000Y-125100460D01*
X97362100Y-125100460D01*
X97362100Y-125375460D01*
X98370100Y-125375460D01*
X98370100Y-124259506D01*
X98624100Y-124259506D01*
X98624100Y-125375460D01*
X99632100Y-125375460D01*
X99632100Y-125100460D01*
X104362100Y-125100460D01*
X104362100Y-125375460D01*
X105370100Y-125375460D01*
X105370100Y-124259506D01*
X105624100Y-124259506D01*
X105624100Y-125375460D01*
X106632100Y-125375460D01*
X106632100Y-125100460D01*
X106497102Y-124675782D01*
X106209863Y-124335092D01*
X105798974Y-124133341D01*
X105624100Y-124259506D01*
X105370100Y-124259506D01*
X105195226Y-124133341D01*
X104784337Y-124335092D01*
X104497098Y-124675782D01*
X104362100Y-125100460D01*
X99632100Y-125100460D01*
X99497102Y-124675782D01*
X99209863Y-124335092D01*
X98798974Y-124133341D01*
X98624100Y-124259506D01*
X98370100Y-124259506D01*
X98195226Y-124133341D01*
X97784337Y-124335092D01*
X97497098Y-124675782D01*
X97362100Y-125100460D01*
X87708000Y-125100460D01*
X87708000Y-124904440D01*
X90276000Y-124904440D01*
X90523765Y-124855157D01*
X90733809Y-124714809D01*
X90874157Y-124504765D01*
X90923440Y-124257000D01*
X90923440Y-124255000D01*
X93123353Y-124255000D01*
X93198200Y-124269888D01*
X93273047Y-124255000D01*
X93273052Y-124255000D01*
X93494737Y-124210904D01*
X93746129Y-124042929D01*
X93788531Y-123979470D01*
X94667604Y-123100398D01*
X98277832Y-123100398D01*
X98461548Y-123474281D01*
X98786051Y-123762028D01*
X99195969Y-123903689D01*
X99370100Y-123755023D01*
X99370100Y-122929460D01*
X99624100Y-122929460D01*
X99624100Y-123755023D01*
X99798231Y-123903689D01*
X100208149Y-123762028D01*
X100532652Y-123474281D01*
X100716368Y-123100398D01*
X103277832Y-123100398D01*
X103461548Y-123474281D01*
X103786051Y-123762028D01*
X104195969Y-123903689D01*
X104370100Y-123755023D01*
X104370100Y-122929460D01*
X104624100Y-122929460D01*
X104624100Y-123755023D01*
X104798231Y-123903689D01*
X105208149Y-123762028D01*
X105532652Y-123474281D01*
X105716368Y-123100398D01*
X105589834Y-122929460D01*
X104624100Y-122929460D01*
X104370100Y-122929460D01*
X103404366Y-122929460D01*
X103277832Y-123100398D01*
X100716368Y-123100398D01*
X100589834Y-122929460D01*
X99624100Y-122929460D01*
X99370100Y-122929460D01*
X98404366Y-122929460D01*
X98277832Y-123100398D01*
X94667604Y-123100398D01*
X95005903Y-122762100D01*
X118333453Y-122762100D01*
X118408300Y-122776988D01*
X118483147Y-122762100D01*
X118483152Y-122762100D01*
X118704837Y-122718004D01*
X118956229Y-122550029D01*
X118998631Y-122486570D01*
X130830206Y-110654996D01*
X130936365Y-110761155D01*
X131280017Y-110903500D01*
X131651983Y-110903500D01*
X131995635Y-110761155D01*
X132258655Y-110498135D01*
X132401000Y-110154483D01*
X132401000Y-110132656D01*
X132504917Y-110175700D01*
X132551098Y-110175700D01*
X132818171Y-110442773D01*
X132860571Y-110506229D01*
X132924027Y-110548629D01*
X133111962Y-110674204D01*
X133160105Y-110683780D01*
X133333648Y-110718300D01*
X133333652Y-110718300D01*
X133408500Y-110733188D01*
X133483348Y-110718300D01*
X134579953Y-110718300D01*
X134653193Y-110732868D01*
X134765845Y-111004835D01*
X134798501Y-111037491D01*
X134798500Y-116655353D01*
X134783612Y-116730200D01*
X134798500Y-116805047D01*
X134798500Y-116805051D01*
X134842596Y-117026736D01*
X135010571Y-117278129D01*
X135074030Y-117320531D01*
X140467619Y-122714121D01*
X140407375Y-122754375D01*
X140395184Y-122772619D01*
X140386157Y-122727235D01*
X140245809Y-122517191D01*
X140035765Y-122376843D01*
X139788000Y-122327560D01*
X138088000Y-122327560D01*
X137840235Y-122376843D01*
X137630191Y-122517191D01*
X137489843Y-122727235D01*
X137440560Y-122975000D01*
X137440560Y-124675000D01*
X137489843Y-124922765D01*
X137630191Y-125132809D01*
X137840235Y-125273157D01*
X138088000Y-125322440D01*
X139788000Y-125322440D01*
X140035765Y-125273157D01*
X140245809Y-125132809D01*
X140386157Y-124922765D01*
X140395184Y-124877381D01*
X140407375Y-124895625D01*
X140898582Y-125223839D01*
X141331744Y-125310000D01*
X141624256Y-125310000D01*
X142057418Y-125223839D01*
X142388629Y-125002531D01*
X142870871Y-125484773D01*
X142913271Y-125548229D01*
X143164663Y-125716204D01*
X143386348Y-125760300D01*
X143386352Y-125760300D01*
X143461199Y-125775188D01*
X143536046Y-125760300D01*
X144499853Y-125760300D01*
X144574700Y-125775188D01*
X144649547Y-125760300D01*
X144649552Y-125760300D01*
X144871237Y-125716204D01*
X145122629Y-125548229D01*
X145165031Y-125484770D01*
X145647311Y-125002491D01*
X145978582Y-125223839D01*
X146411744Y-125310000D01*
X146704256Y-125310000D01*
X147137418Y-125223839D01*
X147628625Y-124895625D01*
X147828000Y-124597239D01*
X148027375Y-124895625D01*
X148518582Y-125223839D01*
X148951744Y-125310000D01*
X149244256Y-125310000D01*
X149677418Y-125223839D01*
X150168625Y-124895625D01*
X150381843Y-124576522D01*
X150442817Y-124706358D01*
X150871076Y-125096645D01*
X151281110Y-125266476D01*
X151511000Y-125145155D01*
X151511000Y-123952000D01*
X151765000Y-123952000D01*
X151765000Y-125145155D01*
X151994890Y-125266476D01*
X152404924Y-125096645D01*
X152833183Y-124706358D01*
X152908000Y-124547046D01*
X152982817Y-124706358D01*
X153411076Y-125096645D01*
X153821110Y-125266476D01*
X154051000Y-125145155D01*
X154051000Y-123952000D01*
X151765000Y-123952000D01*
X151511000Y-123952000D01*
X151491000Y-123952000D01*
X151491000Y-123698000D01*
X151511000Y-123698000D01*
X151511000Y-122504845D01*
X151765000Y-122504845D01*
X151765000Y-123698000D01*
X154051000Y-123698000D01*
X154051000Y-122504845D01*
X154305000Y-122504845D01*
X154305000Y-123698000D01*
X154325000Y-123698000D01*
X154325000Y-123952000D01*
X154305000Y-123952000D01*
X154305000Y-125145155D01*
X154534890Y-125266476D01*
X154944924Y-125096645D01*
X155373183Y-124706358D01*
X155434157Y-124576522D01*
X155647375Y-124895625D01*
X156138582Y-125223839D01*
X156571744Y-125310000D01*
X156864256Y-125310000D01*
X157297418Y-125223839D01*
X157788625Y-124895625D01*
X158116839Y-124404418D01*
X158232092Y-123825000D01*
X158116839Y-123245582D01*
X157788625Y-122754375D01*
X157297418Y-122426161D01*
X156864256Y-122340000D01*
X156571744Y-122340000D01*
X156138582Y-122426161D01*
X155647375Y-122754375D01*
X155434157Y-123073478D01*
X155373183Y-122943642D01*
X154944924Y-122553355D01*
X154534890Y-122383524D01*
X154305000Y-122504845D01*
X154051000Y-122504845D01*
X153821110Y-122383524D01*
X153411076Y-122553355D01*
X152982817Y-122943642D01*
X152908000Y-123102954D01*
X152833183Y-122943642D01*
X152404924Y-122553355D01*
X151994890Y-122383524D01*
X151765000Y-122504845D01*
X151511000Y-122504845D01*
X151281110Y-122383524D01*
X150871076Y-122553355D01*
X150442817Y-122943642D01*
X150381843Y-123073478D01*
X150168625Y-122754375D01*
X149677418Y-122426161D01*
X149244256Y-122340000D01*
X148951744Y-122340000D01*
X148518582Y-122426161D01*
X148187311Y-122647509D01*
X140854731Y-115314930D01*
X140812329Y-115251471D01*
X140560937Y-115083496D01*
X140339252Y-115039400D01*
X140339247Y-115039400D01*
X140264400Y-115024512D01*
X140189553Y-115039400D01*
X137615290Y-115039400D01*
X137582535Y-115006645D01*
X137238883Y-114864300D01*
X137160200Y-114864300D01*
X137160200Y-110349390D01*
X137192855Y-110316735D01*
X137335200Y-109973083D01*
X137335200Y-109909000D01*
X142281910Y-109909000D01*
X142397665Y-110024755D01*
X142741317Y-110167100D01*
X143113283Y-110167100D01*
X143456935Y-110024755D01*
X143493244Y-109988446D01*
X147050871Y-113546073D01*
X147093271Y-113609529D01*
X147344663Y-113777504D01*
X147566348Y-113821600D01*
X147566352Y-113821600D01*
X147641200Y-113836488D01*
X147716048Y-113821600D01*
X151494410Y-113821600D01*
X151527065Y-113854255D01*
X151870717Y-113996600D01*
X151928301Y-113996600D01*
X151928300Y-115160498D01*
X150375999Y-116712800D01*
X150329817Y-116712800D01*
X149986165Y-116855145D01*
X149723145Y-117118165D01*
X149580800Y-117461817D01*
X149580800Y-117833783D01*
X149723145Y-118177435D01*
X149986165Y-118440455D01*
X150329817Y-118582800D01*
X150701783Y-118582800D01*
X151045435Y-118440455D01*
X151308455Y-118177435D01*
X151450800Y-117833783D01*
X151450800Y-117787601D01*
X153172773Y-116065629D01*
X153236229Y-116023229D01*
X153404204Y-115771837D01*
X153448300Y-115550152D01*
X153448300Y-115550147D01*
X153463188Y-115475300D01*
X153448300Y-115400453D01*
X153448300Y-112860248D01*
X153463188Y-112785400D01*
X153448300Y-112710552D01*
X153448300Y-112710548D01*
X153421378Y-112575200D01*
X153965199Y-112575200D01*
X154608800Y-113218802D01*
X154608800Y-113264983D01*
X154751145Y-113608635D01*
X155014165Y-113871655D01*
X155357817Y-114014000D01*
X155729783Y-114014000D01*
X156073435Y-113871655D01*
X156336455Y-113608635D01*
X156355784Y-113561972D01*
X156455345Y-113802335D01*
X156718365Y-114065355D01*
X157062017Y-114207700D01*
X157433983Y-114207700D01*
X157777635Y-114065355D01*
X157823594Y-114019396D01*
X161038001Y-117233803D01*
X161038000Y-122327560D01*
X160948000Y-122327560D01*
X160700235Y-122376843D01*
X160490191Y-122517191D01*
X160349843Y-122727235D01*
X160300560Y-122975000D01*
X160300560Y-124675000D01*
X160349843Y-124922765D01*
X160490191Y-125132809D01*
X160700235Y-125273157D01*
X160948000Y-125322440D01*
X162648000Y-125322440D01*
X162895765Y-125273157D01*
X163105809Y-125132809D01*
X163246157Y-124922765D01*
X163255184Y-124877381D01*
X163267375Y-124895625D01*
X163758582Y-125223839D01*
X164191744Y-125310000D01*
X164484256Y-125310000D01*
X164917418Y-125223839D01*
X165408625Y-124895625D01*
X165608000Y-124597239D01*
X165807375Y-124895625D01*
X166298582Y-125223839D01*
X166731744Y-125310000D01*
X167024256Y-125310000D01*
X167457418Y-125223839D01*
X167948625Y-124895625D01*
X168148000Y-124597239D01*
X168347375Y-124895625D01*
X168838582Y-125223839D01*
X169271744Y-125310000D01*
X169564256Y-125310000D01*
X169997418Y-125223839D01*
X170488625Y-124895625D01*
X170688000Y-124597239D01*
X170887375Y-124895625D01*
X171378582Y-125223839D01*
X171811744Y-125310000D01*
X172104256Y-125310000D01*
X172537418Y-125223839D01*
X173028625Y-124895625D01*
X173228000Y-124597239D01*
X173427375Y-124895625D01*
X173918582Y-125223839D01*
X174351744Y-125310000D01*
X174644256Y-125310000D01*
X175077418Y-125223839D01*
X175568625Y-124895625D01*
X175896839Y-124404418D01*
X176012092Y-123825000D01*
X175896839Y-123245582D01*
X175568625Y-122754375D01*
X175258000Y-122546822D01*
X175258000Y-121199453D01*
X175545392Y-121486845D01*
X176513866Y-121888000D01*
X177562134Y-121888000D01*
X178530608Y-121486845D01*
X179271845Y-120745608D01*
X179673000Y-119777134D01*
X179673000Y-118728866D01*
X179271845Y-117760392D01*
X178530608Y-117019155D01*
X177562134Y-116618000D01*
X176513866Y-116618000D01*
X175545392Y-117019155D01*
X175258000Y-117306547D01*
X175258000Y-110873748D01*
X175272888Y-110798900D01*
X175258000Y-110724052D01*
X175258000Y-110724048D01*
X175213904Y-110502363D01*
X175213904Y-110502362D01*
X175088329Y-110314427D01*
X175045929Y-110250971D01*
X174982473Y-110208571D01*
X167908701Y-103134800D01*
X169780853Y-103134800D01*
X169855700Y-103149688D01*
X169930547Y-103134800D01*
X169930552Y-103134800D01*
X170152237Y-103090704D01*
X170403629Y-102922729D01*
X170446031Y-102859270D01*
X171798973Y-101506329D01*
X171862429Y-101463929D01*
X171942630Y-101343900D01*
X172030404Y-101212538D01*
X172047855Y-101124804D01*
X172074500Y-100990852D01*
X172074500Y-100990848D01*
X172089388Y-100916000D01*
X172074500Y-100841152D01*
X172074500Y-100416148D01*
X172089388Y-100341300D01*
X172074500Y-100266452D01*
X172074500Y-100266448D01*
X172033761Y-100061638D01*
X172030404Y-100044762D01*
X171904829Y-99856827D01*
X171862429Y-99793371D01*
X171798973Y-99750971D01*
X170818400Y-98770399D01*
X170818400Y-98325701D01*
X170872674Y-98271427D01*
X170973837Y-98251304D01*
X171225229Y-98083329D01*
X171267630Y-98019871D01*
X171861976Y-97425527D01*
X171925429Y-97383129D01*
X171958834Y-97333135D01*
X174015171Y-99389473D01*
X174057571Y-99452929D01*
X174308963Y-99620904D01*
X174530648Y-99665000D01*
X174530652Y-99665000D01*
X174605499Y-99679888D01*
X174680346Y-99665000D01*
X175719822Y-99665000D01*
X175927375Y-99975625D01*
X176225761Y-100175000D01*
X175927375Y-100374375D01*
X175599161Y-100865582D01*
X175483908Y-101445000D01*
X175599161Y-102024418D01*
X175927375Y-102515625D01*
X176418582Y-102843839D01*
X176851744Y-102930000D01*
X177144256Y-102930000D01*
X177577418Y-102843839D01*
X178068625Y-102515625D01*
X178396839Y-102024418D01*
X178512092Y-101445000D01*
X178396839Y-100865582D01*
X178174690Y-100533112D01*
X178663673Y-100044129D01*
X178727129Y-100001729D01*
X178846990Y-99822345D01*
X178895104Y-99750338D01*
X178912071Y-99665037D01*
X178939200Y-99528652D01*
X178939200Y-99528648D01*
X178954088Y-99453800D01*
X178939200Y-99378952D01*
X178939200Y-98498784D01*
X178954088Y-98423974D01*
X178939200Y-98349089D01*
X178939200Y-98349048D01*
X178923166Y-98268439D01*
X178895132Y-98127432D01*
X178895112Y-98127402D01*
X178895104Y-98127363D01*
X178810989Y-98001477D01*
X178769576Y-97939484D01*
X178769549Y-97939457D01*
X178743832Y-97900969D01*
X179892173Y-96752629D01*
X179955629Y-96710229D01*
X180006096Y-96634700D01*
X180086000Y-96515116D01*
X180086000Y-121232394D01*
G36*
X98543042Y-101545974D02*
X98664183Y-101778000D01*
X99871000Y-101778000D01*
X99871000Y-101758000D01*
X100125000Y-101758000D01*
X100125000Y-101778000D01*
X102411000Y-101778000D01*
X102411000Y-101758000D01*
X102665000Y-101758000D01*
X102665000Y-101778000D01*
X103871817Y-101778000D01*
X103992958Y-101545974D01*
X103930426Y-101395000D01*
X125431098Y-101395000D01*
X124411099Y-102415000D01*
X103930426Y-102415000D01*
X103992958Y-102264026D01*
X103871817Y-102032000D01*
X102665000Y-102032000D01*
X102665000Y-102052000D01*
X102411000Y-102052000D01*
X102411000Y-102032000D01*
X100125000Y-102032000D01*
X100125000Y-102052000D01*
X99871000Y-102052000D01*
X99871000Y-102032000D01*
X98664183Y-102032000D01*
X98543042Y-102264026D01*
X98605574Y-102415000D01*
X90923440Y-102415000D01*
X90923440Y-102413000D01*
X90874157Y-102165235D01*
X90733809Y-101955191D01*
X90658693Y-101905000D01*
X90733809Y-101854809D01*
X90874157Y-101644765D01*
X90892808Y-101551000D01*
X96946753Y-101551000D01*
X97021600Y-101565888D01*
X97096447Y-101551000D01*
X97096452Y-101551000D01*
X97318137Y-101506904D01*
X97485613Y-101395000D01*
X98605574Y-101395000D01*
X98543042Y-101545974D01*
X98543042Y-101545974D01*
G37*
X98543042Y-101545974D02*
X98664183Y-101778000D01*
X99871000Y-101778000D01*
X99871000Y-101758000D01*
X100125000Y-101758000D01*
X100125000Y-101778000D01*
X102411000Y-101778000D01*
X102411000Y-101758000D01*
X102665000Y-101758000D01*
X102665000Y-101778000D01*
X103871817Y-101778000D01*
X103992958Y-101545974D01*
X103930426Y-101395000D01*
X125431098Y-101395000D01*
X124411099Y-102415000D01*
X103930426Y-102415000D01*
X103992958Y-102264026D01*
X103871817Y-102032000D01*
X102665000Y-102032000D01*
X102665000Y-102052000D01*
X102411000Y-102052000D01*
X102411000Y-102032000D01*
X100125000Y-102032000D01*
X100125000Y-102052000D01*
X99871000Y-102052000D01*
X99871000Y-102032000D01*
X98664183Y-102032000D01*
X98543042Y-102264026D01*
X98605574Y-102415000D01*
X90923440Y-102415000D01*
X90923440Y-102413000D01*
X90874157Y-102165235D01*
X90733809Y-101955191D01*
X90658693Y-101905000D01*
X90733809Y-101854809D01*
X90874157Y-101644765D01*
X90892808Y-101551000D01*
X96946753Y-101551000D01*
X97021600Y-101565888D01*
X97096447Y-101551000D01*
X97096452Y-101551000D01*
X97318137Y-101506904D01*
X97485613Y-101395000D01*
X98605574Y-101395000D01*
X98543042Y-101545974D01*
G36*
X171507186Y-81763839D02*
X171562972Y-81847329D01*
X171626428Y-81889729D01*
X176708500Y-86971802D01*
X176708500Y-87218953D01*
X176693612Y-87293800D01*
X176708500Y-87368647D01*
X176708500Y-87368652D01*
X176752596Y-87590337D01*
X176920572Y-87841729D01*
X176984028Y-87884129D01*
X177930467Y-88830568D01*
X177562134Y-88678000D01*
X176513866Y-88678000D01*
X175545392Y-89079155D01*
X174804155Y-89820392D01*
X174403000Y-90788866D01*
X174403000Y-91837134D01*
X174804155Y-92805608D01*
X175545392Y-93546845D01*
X176513866Y-93948000D01*
X177562134Y-93948000D01*
X178530608Y-93546845D01*
X178647701Y-93429752D01*
X178647701Y-95847497D01*
X178483000Y-96012198D01*
X178483000Y-95388690D01*
X178386327Y-95155301D01*
X178207698Y-94976673D01*
X177974309Y-94880000D01*
X177283750Y-94880000D01*
X177125000Y-95038750D01*
X177125000Y-96238000D01*
X177145000Y-96238000D01*
X177145000Y-96492000D01*
X177125000Y-96492000D01*
X177125000Y-96512000D01*
X176871000Y-96512000D01*
X176871000Y-96492000D01*
X176851000Y-96492000D01*
X176851000Y-96238000D01*
X176871000Y-96238000D01*
X176871000Y-95038750D01*
X176712250Y-94880000D01*
X176021691Y-94880000D01*
X175788302Y-94976673D01*
X175609673Y-95155301D01*
X175513000Y-95388690D01*
X175513000Y-95965298D01*
X173678231Y-94130530D01*
X173635829Y-94067071D01*
X173384437Y-93899096D01*
X173162752Y-93855000D01*
X173162747Y-93855000D01*
X173087900Y-93840112D01*
X173013053Y-93855000D01*
X171806817Y-93855000D01*
X171783855Y-93799565D01*
X171520835Y-93536545D01*
X171177183Y-93394200D01*
X170805217Y-93394200D01*
X170461565Y-93536545D01*
X170386706Y-93611404D01*
X170179800Y-93404499D01*
X170179800Y-88647201D01*
X171172473Y-87654529D01*
X171235929Y-87612129D01*
X171403904Y-87360737D01*
X171448000Y-87139052D01*
X171448000Y-87139048D01*
X171462888Y-87064200D01*
X171448000Y-86989352D01*
X171448000Y-81675262D01*
X171507186Y-81763839D01*
X171507186Y-81763839D01*
G37*
X171507186Y-81763839D02*
X171562972Y-81847329D01*
X171626428Y-81889729D01*
X176708500Y-86971802D01*
X176708500Y-87218953D01*
X176693612Y-87293800D01*
X176708500Y-87368647D01*
X176708500Y-87368652D01*
X176752596Y-87590337D01*
X176920572Y-87841729D01*
X176984028Y-87884129D01*
X177930467Y-88830568D01*
X177562134Y-88678000D01*
X176513866Y-88678000D01*
X175545392Y-89079155D01*
X174804155Y-89820392D01*
X174403000Y-90788866D01*
X174403000Y-91837134D01*
X174804155Y-92805608D01*
X175545392Y-93546845D01*
X176513866Y-93948000D01*
X177562134Y-93948000D01*
X178530608Y-93546845D01*
X178647701Y-93429752D01*
X178647701Y-95847497D01*
X178483000Y-96012198D01*
X178483000Y-95388690D01*
X178386327Y-95155301D01*
X178207698Y-94976673D01*
X177974309Y-94880000D01*
X177283750Y-94880000D01*
X177125000Y-95038750D01*
X177125000Y-96238000D01*
X177145000Y-96238000D01*
X177145000Y-96492000D01*
X177125000Y-96492000D01*
X177125000Y-96512000D01*
X176871000Y-96512000D01*
X176871000Y-96492000D01*
X176851000Y-96492000D01*
X176851000Y-96238000D01*
X176871000Y-96238000D01*
X176871000Y-95038750D01*
X176712250Y-94880000D01*
X176021691Y-94880000D01*
X175788302Y-94976673D01*
X175609673Y-95155301D01*
X175513000Y-95388690D01*
X175513000Y-95965298D01*
X173678231Y-94130530D01*
X173635829Y-94067071D01*
X173384437Y-93899096D01*
X173162752Y-93855000D01*
X173162747Y-93855000D01*
X173087900Y-93840112D01*
X173013053Y-93855000D01*
X171806817Y-93855000D01*
X171783855Y-93799565D01*
X171520835Y-93536545D01*
X171177183Y-93394200D01*
X170805217Y-93394200D01*
X170461565Y-93536545D01*
X170386706Y-93611404D01*
X170179800Y-93404499D01*
X170179800Y-88647201D01*
X171172473Y-87654529D01*
X171235929Y-87612129D01*
X171403904Y-87360737D01*
X171448000Y-87139052D01*
X171448000Y-87139048D01*
X171462888Y-87064200D01*
X171448000Y-86989352D01*
X171448000Y-81675262D01*
X171507186Y-81763839D01*
G36*
X116726355Y-90058076D02*
X116556524Y-90468110D01*
X116677845Y-90698000D01*
X117871000Y-90698000D01*
X117871000Y-90678000D01*
X118125000Y-90678000D01*
X118125000Y-90698000D01*
X119318155Y-90698000D01*
X119439476Y-90468110D01*
X119269645Y-90058076D01*
X118965737Y-89724600D01*
X123030263Y-89724600D01*
X122726355Y-90058076D01*
X122556524Y-90468110D01*
X122677845Y-90698000D01*
X123871000Y-90698000D01*
X123871000Y-90678000D01*
X124125000Y-90678000D01*
X124125000Y-90698000D01*
X125318155Y-90698000D01*
X125439476Y-90468110D01*
X125269645Y-90058076D01*
X124965737Y-89724600D01*
X133792799Y-89724600D01*
X135832698Y-91764500D01*
X134362201Y-91764500D01*
X134267031Y-91669330D01*
X134224629Y-91605871D01*
X133973237Y-91437896D01*
X133751552Y-91393800D01*
X133751547Y-91393800D01*
X133676700Y-91378912D01*
X133601853Y-91393800D01*
X125351706Y-91393800D01*
X125439476Y-91181890D01*
X125318155Y-90952000D01*
X124125000Y-90952000D01*
X124125000Y-90972000D01*
X123871000Y-90972000D01*
X123871000Y-90952000D01*
X122677845Y-90952000D01*
X122556524Y-91181890D01*
X122644294Y-91393800D01*
X119351706Y-91393800D01*
X119439476Y-91181890D01*
X119318155Y-90952000D01*
X118125000Y-90952000D01*
X118125000Y-90972000D01*
X117871000Y-90972000D01*
X117871000Y-90952000D01*
X116677845Y-90952000D01*
X116556524Y-91181890D01*
X116644294Y-91393800D01*
X113796946Y-91393800D01*
X113722099Y-91378912D01*
X113647252Y-91393800D01*
X113647248Y-91393800D01*
X113425563Y-91437896D01*
X113425561Y-91437897D01*
X113425562Y-91437897D01*
X113237626Y-91563471D01*
X113237624Y-91563473D01*
X113174171Y-91605871D01*
X113131773Y-91669324D01*
X111823499Y-92977600D01*
X109103853Y-92977600D01*
X109231845Y-92849608D01*
X109633000Y-91881134D01*
X109633000Y-90832866D01*
X109231845Y-89864392D01*
X109092053Y-89724600D01*
X117030263Y-89724600D01*
X116726355Y-90058076D01*
X116726355Y-90058076D01*
G37*
X116726355Y-90058076D02*
X116556524Y-90468110D01*
X116677845Y-90698000D01*
X117871000Y-90698000D01*
X117871000Y-90678000D01*
X118125000Y-90678000D01*
X118125000Y-90698000D01*
X119318155Y-90698000D01*
X119439476Y-90468110D01*
X119269645Y-90058076D01*
X118965737Y-89724600D01*
X123030263Y-89724600D01*
X122726355Y-90058076D01*
X122556524Y-90468110D01*
X122677845Y-90698000D01*
X123871000Y-90698000D01*
X123871000Y-90678000D01*
X124125000Y-90678000D01*
X124125000Y-90698000D01*
X125318155Y-90698000D01*
X125439476Y-90468110D01*
X125269645Y-90058076D01*
X124965737Y-89724600D01*
X133792799Y-89724600D01*
X135832698Y-91764500D01*
X134362201Y-91764500D01*
X134267031Y-91669330D01*
X134224629Y-91605871D01*
X133973237Y-91437896D01*
X133751552Y-91393800D01*
X133751547Y-91393800D01*
X133676700Y-91378912D01*
X133601853Y-91393800D01*
X125351706Y-91393800D01*
X125439476Y-91181890D01*
X125318155Y-90952000D01*
X124125000Y-90952000D01*
X124125000Y-90972000D01*
X123871000Y-90972000D01*
X123871000Y-90952000D01*
X122677845Y-90952000D01*
X122556524Y-91181890D01*
X122644294Y-91393800D01*
X119351706Y-91393800D01*
X119439476Y-91181890D01*
X119318155Y-90952000D01*
X118125000Y-90952000D01*
X118125000Y-90972000D01*
X117871000Y-90972000D01*
X117871000Y-90952000D01*
X116677845Y-90952000D01*
X116556524Y-91181890D01*
X116644294Y-91393800D01*
X113796946Y-91393800D01*
X113722099Y-91378912D01*
X113647252Y-91393800D01*
X113647248Y-91393800D01*
X113425563Y-91437896D01*
X113425561Y-91437897D01*
X113425562Y-91437897D01*
X113237626Y-91563471D01*
X113237624Y-91563473D01*
X113174171Y-91605871D01*
X113131773Y-91669324D01*
X111823499Y-92977600D01*
X109103853Y-92977600D01*
X109231845Y-92849608D01*
X109633000Y-91881134D01*
X109633000Y-90832866D01*
X109231845Y-89864392D01*
X109092053Y-89724600D01*
X117030263Y-89724600D01*
X116726355Y-90058076D01*
G36*
X137541000Y-75438000D02*
X137561000Y-75438000D01*
X137561000Y-75692000D01*
X137541000Y-75692000D01*
X137541000Y-76885155D01*
X137770890Y-77006476D01*
X138180924Y-76836645D01*
X138340875Y-76690876D01*
X147228597Y-85578600D01*
X144495802Y-85578600D01*
X141629900Y-82712699D01*
X141629900Y-82666517D01*
X141487555Y-82322865D01*
X141224535Y-82059845D01*
X140880883Y-81917500D01*
X140508917Y-81917500D01*
X140165265Y-82059845D01*
X139902245Y-82322865D01*
X139759900Y-82666517D01*
X139759900Y-83038483D01*
X139902245Y-83382135D01*
X140165265Y-83645155D01*
X140508917Y-83787500D01*
X140555099Y-83787500D01*
X143590671Y-86823073D01*
X143633071Y-86886529D01*
X143884463Y-87054504D01*
X144106148Y-87098600D01*
X144106153Y-87098600D01*
X144181000Y-87113488D01*
X144255847Y-87098600D01*
X150246553Y-87098600D01*
X150321400Y-87113488D01*
X150396247Y-87098600D01*
X150396252Y-87098600D01*
X150414730Y-87094924D01*
X150306765Y-87139645D01*
X150043745Y-87402665D01*
X149907910Y-87730600D01*
X144283200Y-87730600D01*
X144283200Y-87679217D01*
X144140855Y-87335565D01*
X143877835Y-87072545D01*
X143534183Y-86930200D01*
X143488002Y-86930200D01*
X142808131Y-86250330D01*
X142765729Y-86186871D01*
X142514337Y-86018896D01*
X142292652Y-85974800D01*
X142292647Y-85974800D01*
X142217800Y-85959912D01*
X142142953Y-85974800D01*
X141318102Y-85974800D01*
X135634000Y-80290699D01*
X135634000Y-76843178D01*
X135944625Y-76635625D01*
X136157843Y-76316522D01*
X136218817Y-76446358D01*
X136647076Y-76836645D01*
X137057110Y-77006476D01*
X137287000Y-76885155D01*
X137287000Y-75692000D01*
X137267000Y-75692000D01*
X137267000Y-75438000D01*
X137287000Y-75438000D01*
X137287000Y-75418000D01*
X137541000Y-75418000D01*
X137541000Y-75438000D01*
X137541000Y-75438000D01*
G37*
X137541000Y-75438000D02*
X137561000Y-75438000D01*
X137561000Y-75692000D01*
X137541000Y-75692000D01*
X137541000Y-76885155D01*
X137770890Y-77006476D01*
X138180924Y-76836645D01*
X138340875Y-76690876D01*
X147228597Y-85578600D01*
X144495802Y-85578600D01*
X141629900Y-82712699D01*
X141629900Y-82666517D01*
X141487555Y-82322865D01*
X141224535Y-82059845D01*
X140880883Y-81917500D01*
X140508917Y-81917500D01*
X140165265Y-82059845D01*
X139902245Y-82322865D01*
X139759900Y-82666517D01*
X139759900Y-83038483D01*
X139902245Y-83382135D01*
X140165265Y-83645155D01*
X140508917Y-83787500D01*
X140555099Y-83787500D01*
X143590671Y-86823073D01*
X143633071Y-86886529D01*
X143884463Y-87054504D01*
X144106148Y-87098600D01*
X144106153Y-87098600D01*
X144181000Y-87113488D01*
X144255847Y-87098600D01*
X150246553Y-87098600D01*
X150321400Y-87113488D01*
X150396247Y-87098600D01*
X150396252Y-87098600D01*
X150414730Y-87094924D01*
X150306765Y-87139645D01*
X150043745Y-87402665D01*
X149907910Y-87730600D01*
X144283200Y-87730600D01*
X144283200Y-87679217D01*
X144140855Y-87335565D01*
X143877835Y-87072545D01*
X143534183Y-86930200D01*
X143488002Y-86930200D01*
X142808131Y-86250330D01*
X142765729Y-86186871D01*
X142514337Y-86018896D01*
X142292652Y-85974800D01*
X142292647Y-85974800D01*
X142217800Y-85959912D01*
X142142953Y-85974800D01*
X141318102Y-85974800D01*
X135634000Y-80290699D01*
X135634000Y-76843178D01*
X135944625Y-76635625D01*
X136157843Y-76316522D01*
X136218817Y-76446358D01*
X136647076Y-76836645D01*
X137057110Y-77006476D01*
X137287000Y-76885155D01*
X137287000Y-75692000D01*
X137267000Y-75692000D01*
X137267000Y-75438000D01*
X137287000Y-75438000D01*
X137287000Y-75418000D01*
X137541000Y-75418000D01*
X137541000Y-75438000D01*
G36*
X124004155Y-74580392D02*
X123603000Y-75548866D01*
X123603000Y-76597134D01*
X124004155Y-77565608D01*
X124745392Y-78306845D01*
X125713866Y-78708000D01*
X126751498Y-78708000D01*
X123990399Y-81469100D01*
X122638526Y-81469100D01*
X122688625Y-81435625D01*
X123016839Y-80944418D01*
X123132092Y-80365000D01*
X123016839Y-79785582D01*
X122688625Y-79294375D01*
X122197418Y-78966161D01*
X121764256Y-78880000D01*
X121471744Y-78880000D01*
X121038582Y-78966161D01*
X120547375Y-79294375D01*
X120348000Y-79592761D01*
X120148625Y-79294375D01*
X119657418Y-78966161D01*
X119224256Y-78880000D01*
X118931744Y-78880000D01*
X118498582Y-78966161D01*
X118007375Y-79294375D01*
X117808000Y-79592761D01*
X117608625Y-79294375D01*
X117117418Y-78966161D01*
X116684256Y-78880000D01*
X116391744Y-78880000D01*
X115958582Y-78966161D01*
X115467375Y-79294375D01*
X115452904Y-79316033D01*
X115386327Y-79155302D01*
X115207699Y-78976673D01*
X114974310Y-78880000D01*
X114283750Y-78880000D01*
X114125000Y-79038750D01*
X114125000Y-80238000D01*
X114145000Y-80238000D01*
X114145000Y-80492000D01*
X114125000Y-80492000D01*
X114125000Y-80512000D01*
X113871000Y-80512000D01*
X113871000Y-80492000D01*
X112671750Y-80492000D01*
X112513000Y-80650750D01*
X112513000Y-81341309D01*
X112565933Y-81469100D01*
X107685700Y-81469100D01*
X107685700Y-81387317D01*
X107543355Y-81043665D01*
X107280335Y-80780645D01*
X106936683Y-80638300D01*
X106890503Y-80638300D01*
X105640893Y-79388691D01*
X112513000Y-79388691D01*
X112513000Y-80079250D01*
X112671750Y-80238000D01*
X113871000Y-80238000D01*
X113871000Y-79038750D01*
X113712250Y-78880000D01*
X113021690Y-78880000D01*
X112788301Y-78976673D01*
X112609673Y-79155302D01*
X112513000Y-79388691D01*
X105640893Y-79388691D01*
X105481931Y-79229730D01*
X105439529Y-79166271D01*
X105188137Y-78998296D01*
X104966452Y-78954200D01*
X104966447Y-78954200D01*
X104891600Y-78939312D01*
X104816753Y-78954200D01*
X97345701Y-78954200D01*
X102101502Y-74198400D01*
X124386147Y-74198400D01*
X124004155Y-74580392D01*
X124004155Y-74580392D01*
G37*
X124004155Y-74580392D02*
X123603000Y-75548866D01*
X123603000Y-76597134D01*
X124004155Y-77565608D01*
X124745392Y-78306845D01*
X125713866Y-78708000D01*
X126751498Y-78708000D01*
X123990399Y-81469100D01*
X122638526Y-81469100D01*
X122688625Y-81435625D01*
X123016839Y-80944418D01*
X123132092Y-80365000D01*
X123016839Y-79785582D01*
X122688625Y-79294375D01*
X122197418Y-78966161D01*
X121764256Y-78880000D01*
X121471744Y-78880000D01*
X121038582Y-78966161D01*
X120547375Y-79294375D01*
X120348000Y-79592761D01*
X120148625Y-79294375D01*
X119657418Y-78966161D01*
X119224256Y-78880000D01*
X118931744Y-78880000D01*
X118498582Y-78966161D01*
X118007375Y-79294375D01*
X117808000Y-79592761D01*
X117608625Y-79294375D01*
X117117418Y-78966161D01*
X116684256Y-78880000D01*
X116391744Y-78880000D01*
X115958582Y-78966161D01*
X115467375Y-79294375D01*
X115452904Y-79316033D01*
X115386327Y-79155302D01*
X115207699Y-78976673D01*
X114974310Y-78880000D01*
X114283750Y-78880000D01*
X114125000Y-79038750D01*
X114125000Y-80238000D01*
X114145000Y-80238000D01*
X114145000Y-80492000D01*
X114125000Y-80492000D01*
X114125000Y-80512000D01*
X113871000Y-80512000D01*
X113871000Y-80492000D01*
X112671750Y-80492000D01*
X112513000Y-80650750D01*
X112513000Y-81341309D01*
X112565933Y-81469100D01*
X107685700Y-81469100D01*
X107685700Y-81387317D01*
X107543355Y-81043665D01*
X107280335Y-80780645D01*
X106936683Y-80638300D01*
X106890503Y-80638300D01*
X105640893Y-79388691D01*
X112513000Y-79388691D01*
X112513000Y-80079250D01*
X112671750Y-80238000D01*
X113871000Y-80238000D01*
X113871000Y-79038750D01*
X113712250Y-78880000D01*
X113021690Y-78880000D01*
X112788301Y-78976673D01*
X112609673Y-79155302D01*
X112513000Y-79388691D01*
X105640893Y-79388691D01*
X105481931Y-79229730D01*
X105439529Y-79166271D01*
X105188137Y-78998296D01*
X104966452Y-78954200D01*
X104966447Y-78954200D01*
X104891600Y-78939312D01*
X104816753Y-78954200D01*
X97345701Y-78954200D01*
X102101502Y-74198400D01*
X124386147Y-74198400D01*
X124004155Y-74580392D01*
M02*
