M48
;DRILL file {KiCad 4.0.2+dfsg1-stable} date Sun 13 Oct 2019 22:13:13 CEST
;FORMAT={-:-/ absolute / metric / decimal}
FMAT,2
METRIC,TZ
T1C0.400
T2C0.500
T3C0.550
T4C0.800
T5C0.800
T6C1.016
T7C3.000
%
G90
G05
M71
T1
X88.425Y-119.685
X90.059Y-122.225
X90.405Y-117.148
X90.733Y-104.445
X91.013Y-122.225
X91.151Y-85.028
X91.215Y-79.347
X91.256Y-114.424
X91.268Y-116.935
X91.437Y-106.294
X91.499Y-109.155
X91.64Y-80.315
X92.185Y-107.442
X92.397Y-119.685
X92.661Y-113.556
X92.836Y-105.013
X92.9Y-87.022
X93.013Y-72.824
X93.281Y-110.795
X93.602Y-115.95
X93.698Y-88.079
X93.728Y-113.799
X93.734Y-74.803
X94.108Y-97.011
X94.484Y-106.402
X95.836Y-77.775
X96.811Y-83.127
X96.833Y-78.844
X97.726Y-93.789
X98.245Y-116.935
X98.321Y-110.544
X100.037Y-86.757
X101.507Y-84.279
X102.258Y-85.068
X103.368Y-86.123
X103.747Y-107.667
X106.822Y-87.451
X107.311Y-118.957
X108.464Y-98.688
X109.751Y-116.605
X110.78Y-93.607
X110.834Y-94.437
X111.684Y-95.1
X113.523Y-98.565
X116.757Y-97.67
X117.083Y-87.304
X117.146Y-101.35
X117.407Y-98.301
X117.829Y-117.651
X117.92Y-102.91
X118.172Y-100.54
X118.179Y-98.692
X118.869Y-116.605
X120.221Y-83.435
X121.841Y-104.115
X122.346Y-122.908
X122.589Y-117.264
X124.349Y-86.915
X124.801Y-119.521
X124.992Y-107.198
X125.021Y-120.87
X125.202Y-87.163
X125.77Y-121.333
X126.779Y-87.613
X128.994Y-83.834
X129.798Y-87.184
X130.475Y-118.445
X131.686Y-113.968
X132.188Y-110.636
X132.778Y-103.416
X132.892Y-84.49
X133.078Y-111.606
X133.318Y-109.121
X133.458Y-107.721
X133.925Y-112.273
X133.974Y-114.439
X134.298Y-85.135
X134.593Y-91.502
X134.616Y-115.092
X135.077Y-87.185
X135.773Y-115.586
X135.781Y-79.012
X136.242Y-123.545
X138.334Y-105.506
X138.415Y-83.731
X138.504Y-86.365
X138.51Y-103.281
X140.029Y-105.957
X140.649Y-120.366
X141.247Y-73.9
X141.508Y-95.365
X141.687Y-109.115
X141.752Y-104.323
X141.85Y-102.883
X141.914Y-80.873
X142.382Y-108.115
X142.763Y-91.814
X142.82Y-86.477
X143.297Y-95.536
X143.302Y-90.001
X144.449Y-114.036
X144.688Y-116.365
X145.017Y-120.365
X145.443Y-96.313
X145.621Y-92.006
X145.635Y-90.835
X145.738Y-102.659
X145.931Y-101.54
X146.493Y-83.365
X146.686Y-87.848
X146.764Y-118.438
X146.878Y-96.039
X147.184Y-74.035
X147.544Y-117.093
X147.737Y-102.159
X147.798Y-108.438
X147.802Y-109.724
X147.854Y-113.234
X147.922Y-85.682
X148.151Y-88.42
X148.346Y-76.906
X148.512Y-91.322
X148.52Y-107.392
X149.09Y-95.976
X149.245Y-113.516
X149.569Y-106.035
X149.63Y-81.757
X149.632Y-85.677
X149.688Y-90.246
X149.728Y-105.234
X150.154Y-83.184
X150.205Y-87.83
X150.352Y-94.929
X150.369Y-106.146
X150.428Y-98.789
X150.488Y-89.948
X150.89Y-85.659
X150.96Y-109.064
X151.146Y-96.418
X151.168Y-103.006
X151.461Y-104.382
X151.527Y-114.016
X151.538Y-113.078
X152.293Y-101.564
X152.552Y-77.118
X152.584Y-100.313
X152.721Y-110.916
X152.772Y-113.685
X152.981Y-106.941
X153.03Y-96.615
X153.09Y-100.939
X153.208Y-87.807
X153.488Y-115.365
X153.661Y-93.395
X153.686Y-80.632
X154.162Y-83.365
X154.272Y-118.141
X154.453Y-77.106
X154.746Y-87.806
X155.043Y-104.23
X155.474Y-122.977
X156.079Y-77.106
X157.688Y-109.769
X157.809Y-104.615
X158.191Y-85.607
X158.274Y-83.365
X158.471Y-98.115
X158.973Y-107.347
X159.105Y-99.065
X159.133Y-85.664
X159.962Y-77.274
X160.561Y-87.817
X161.055Y-78.37
X161.148Y-79.337
X161.312Y-85.661
X161.748Y-87.812
X162.112Y-85.665
X162.137Y-110.478
X162.771Y-81.089
X162.797Y-119.865
X163.44Y-81.596
X164.214Y-80.391
X164.248Y-110.688
X164.973Y-122.179
X165.391Y-109.839
X165.411Y-81.147
X165.852Y-88.284
X166.673Y-84.566
X166.992Y-91.181
X167.206Y-92.795
X168.306Y-92.115
X168.516Y-101.615
X168.543Y-106.115
X168.557Y-105.291
X169.523Y-83.257
X170.687Y-106.615
X170.694Y-105.424
X170.756Y-90.48
X171.005Y-97.365
X171.008Y-103.115
X171.151Y-88.926
X172.56Y-87.929
X173.904Y-95.646
X174.3Y-111.365
T4
X130.998Y-97.365
X130.998Y-102.245
T5
X119.998Y-124.365
T6
X98.918Y-112.365
X99.998Y-99.365
X99.998Y-101.905
X99.998Y-104.445
X101.458Y-112.365
X102.538Y-99.365
X102.538Y-101.905
X102.538Y-104.445
X103.998Y-112.365
X113.998Y-80.365
X116.538Y-80.365
X117.998Y-90.825
X117.998Y-93.365
X119.078Y-80.365
X121.618Y-80.365
X123.998Y-90.825
X123.998Y-93.365
X129.794Y-75.565
X132.334Y-75.565
X134.874Y-75.565
X137.414Y-75.565
X138.938Y-123.825
X139.954Y-75.565
X141.478Y-123.825
X142.494Y-75.565
X144.018Y-123.825
X145.034Y-75.565
X146.558Y-123.825
X147.574Y-75.565
X149.098Y-123.825
X150.114Y-75.565
X151.638Y-123.825
X152.654Y-75.565
X154.178Y-123.825
X156.718Y-75.565
X156.718Y-123.825
X159.258Y-75.565
X161.798Y-75.565
X161.798Y-123.825
X164.338Y-75.565
X164.338Y-123.825
X166.878Y-75.565
X166.878Y-123.825
X169.418Y-75.565
X169.418Y-123.825
X171.958Y-75.565
X171.958Y-123.825
X174.498Y-75.565
X174.498Y-123.825
X176.998Y-96.365
X176.998Y-98.905
X176.998Y-101.445
T7
X106.998Y-91.357
X124.968Y-124.333
X126.238Y-76.073
X177.038Y-91.313
X177.038Y-119.253
T2
X98.497Y-125.827G85X98.497Y-125.177
G05
X105.497Y-125.827G85X105.497Y-125.177
G05
T3
X99.347Y-122.802G85X99.647Y-122.802
G05
X104.347Y-122.802G85X104.647Y-122.802
G05
T0
M30
