%TF.GenerationSoftware,KiCad,Pcbnew,5.1.9+dfsg1-1~bpo10+1*%
%TF.CreationDate,2021-03-25T14:45:09+01:00*%
%TF.ProjectId,stduinof429,73746475-696e-46f6-9634-32392e6b6963,rev?*%
%TF.SameCoordinates,Original*%
%TF.FileFunction,Legend,Top*%
%TF.FilePolarity,Positive*%
%FSLAX46Y46*%
G04 Gerber Fmt 4.6, Leading zero omitted, Abs format (unit mm)*
G04 Created by KiCad (PCBNEW 5.1.9+dfsg1-1~bpo10+1) date 2021-03-25 14:45:09*
%MOMM*%
%LPD*%
G01*
G04 APERTURE LIST*
%ADD10C,0.150000*%
%ADD11C,0.300000*%
%ADD12C,0.350000*%
%ADD13C,0.200000*%
%ADD14C,0.120000*%
G04 APERTURE END LIST*
D10*
X144998000Y-85865000D02*
X170498000Y-85865000D01*
X143498000Y-87365000D02*
X144998000Y-85865000D01*
X143498000Y-112865000D02*
X143498000Y-87365000D01*
X170498000Y-85865000D02*
X170498000Y-112865000D01*
X170498000Y-112865000D02*
X143498000Y-112865000D01*
X123498000Y-71865000D02*
X111998000Y-71865000D01*
X123498000Y-88865000D02*
X123498000Y-71865000D01*
X111998000Y-88865000D02*
X123498000Y-88865000D01*
X111998000Y-71865000D02*
X111998000Y-88865000D01*
X97569428Y-115317380D02*
X97569428Y-114317380D01*
X98045619Y-115317380D02*
X98045619Y-114317380D01*
X98617047Y-115317380D01*
X98617047Y-114317380D01*
X98950380Y-114317380D02*
X99521809Y-114317380D01*
X99236095Y-115317380D02*
X99236095Y-114317380D01*
X102902761Y-114317380D02*
X102902761Y-115126904D01*
X102950380Y-115222142D01*
X102998000Y-115269761D01*
X103093238Y-115317380D01*
X103283714Y-115317380D01*
X103378952Y-115269761D01*
X103426571Y-115222142D01*
X103474190Y-115126904D01*
X103474190Y-114317380D01*
X103902761Y-115269761D02*
X104045619Y-115317380D01*
X104283714Y-115317380D01*
X104378952Y-115269761D01*
X104426571Y-115222142D01*
X104474190Y-115126904D01*
X104474190Y-115031666D01*
X104426571Y-114936428D01*
X104378952Y-114888809D01*
X104283714Y-114841190D01*
X104093238Y-114793571D01*
X103998000Y-114745952D01*
X103950380Y-114698333D01*
X103902761Y-114603095D01*
X103902761Y-114507857D01*
X103950380Y-114412619D01*
X103998000Y-114365000D01*
X104093238Y-114317380D01*
X104331333Y-114317380D01*
X104474190Y-114365000D01*
X105236095Y-114793571D02*
X105378952Y-114841190D01*
X105426571Y-114888809D01*
X105474190Y-114984047D01*
X105474190Y-115126904D01*
X105426571Y-115222142D01*
X105378952Y-115269761D01*
X105283714Y-115317380D01*
X104902761Y-115317380D01*
X104902761Y-114317380D01*
X105236095Y-114317380D01*
X105331333Y-114365000D01*
X105378952Y-114412619D01*
X105426571Y-114507857D01*
X105426571Y-114603095D01*
X105378952Y-114698333D01*
X105331333Y-114745952D01*
X105236095Y-114793571D01*
X104902761Y-114793571D01*
D11*
X93676571Y-119650714D02*
X92962285Y-120317380D01*
X93676571Y-120793571D02*
X92176571Y-120793571D01*
X92176571Y-120031666D01*
X92248000Y-119841190D01*
X92319428Y-119745952D01*
X92462285Y-119650714D01*
X92676571Y-119650714D01*
X92819428Y-119745952D01*
X92890857Y-119841190D01*
X92962285Y-120031666D01*
X92962285Y-120793571D01*
X93605142Y-118031666D02*
X93676571Y-118222142D01*
X93676571Y-118603095D01*
X93605142Y-118793571D01*
X93462285Y-118888809D01*
X92890857Y-118888809D01*
X92748000Y-118793571D01*
X92676571Y-118603095D01*
X92676571Y-118222142D01*
X92748000Y-118031666D01*
X92890857Y-117936428D01*
X93033714Y-117936428D01*
X93176571Y-118888809D01*
X92676571Y-117365000D02*
X92676571Y-116603095D01*
X92176571Y-117079285D02*
X93462285Y-117079285D01*
X93605142Y-116984047D01*
X93676571Y-116793571D01*
X93676571Y-116603095D01*
X93676571Y-115936428D02*
X92676571Y-115936428D01*
X92962285Y-115936428D02*
X92819428Y-115841190D01*
X92748000Y-115745952D01*
X92676571Y-115555476D01*
X92676571Y-115365000D01*
X93676571Y-114412619D02*
X93605142Y-114603095D01*
X93533714Y-114698333D01*
X93390857Y-114793571D01*
X92962285Y-114793571D01*
X92819428Y-114698333D01*
X92748000Y-114603095D01*
X92676571Y-114412619D01*
X92676571Y-114126904D01*
X92748000Y-113936428D01*
X92819428Y-113841190D01*
X92962285Y-113745952D01*
X93390857Y-113745952D01*
X93533714Y-113841190D01*
X93605142Y-113936428D01*
X93676571Y-114126904D01*
X93676571Y-114412619D01*
X92890857Y-112222142D02*
X92962285Y-111936428D01*
X93033714Y-111841190D01*
X93176571Y-111745952D01*
X93390857Y-111745952D01*
X93533714Y-111841190D01*
X93605142Y-111936428D01*
X93676571Y-112126904D01*
X93676571Y-112888809D01*
X92176571Y-112888809D01*
X92176571Y-112222142D01*
X92248000Y-112031666D01*
X92319428Y-111936428D01*
X92462285Y-111841190D01*
X92605142Y-111841190D01*
X92748000Y-111936428D01*
X92819428Y-112031666D01*
X92890857Y-112222142D01*
X92890857Y-112888809D01*
X93676571Y-110888809D02*
X92676571Y-110888809D01*
X92176571Y-110888809D02*
X92248000Y-110984047D01*
X92319428Y-110888809D01*
X92248000Y-110793571D01*
X92176571Y-110888809D01*
X92319428Y-110888809D01*
X92676571Y-110222142D02*
X92676571Y-109460238D01*
X92176571Y-109936428D02*
X93462285Y-109936428D01*
X93605142Y-109841190D01*
X93676571Y-109650714D01*
X93676571Y-109460238D01*
X93676571Y-106317380D02*
X93676571Y-107269761D01*
X92176571Y-107269761D01*
X93676571Y-104793571D02*
X92890857Y-104793571D01*
X92748000Y-104888809D01*
X92676571Y-105079285D01*
X92676571Y-105460238D01*
X92748000Y-105650714D01*
X93605142Y-104793571D02*
X93676571Y-104984047D01*
X93676571Y-105460238D01*
X93605142Y-105650714D01*
X93462285Y-105745952D01*
X93319428Y-105745952D01*
X93176571Y-105650714D01*
X93105142Y-105460238D01*
X93105142Y-104984047D01*
X93033714Y-104793571D01*
X93676571Y-103841190D02*
X92176571Y-103841190D01*
X92748000Y-103841190D02*
X92676571Y-103650714D01*
X92676571Y-103269761D01*
X92748000Y-103079285D01*
X92819428Y-102984047D01*
X92962285Y-102888809D01*
X93390857Y-102888809D01*
X93533714Y-102984047D01*
X93605142Y-103079285D01*
X93676571Y-103269761D01*
X93676571Y-103650714D01*
X93605142Y-103841190D01*
X94248000Y-99936428D02*
X94176571Y-100031666D01*
X93962285Y-100222142D01*
X93819428Y-100317380D01*
X93605142Y-100412619D01*
X93248000Y-100507857D01*
X92962285Y-100507857D01*
X92605142Y-100412619D01*
X92390857Y-100317380D01*
X92248000Y-100222142D01*
X92033714Y-100031666D01*
X91962285Y-99936428D01*
X93533714Y-98031666D02*
X93605142Y-98126904D01*
X93676571Y-98412619D01*
X93676571Y-98603095D01*
X93605142Y-98888809D01*
X93462285Y-99079285D01*
X93319428Y-99174523D01*
X93033714Y-99269761D01*
X92819428Y-99269761D01*
X92533714Y-99174523D01*
X92390857Y-99079285D01*
X92248000Y-98888809D01*
X92176571Y-98603095D01*
X92176571Y-98412619D01*
X92248000Y-98126904D01*
X92319428Y-98031666D01*
X94248000Y-97365000D02*
X94176571Y-97269761D01*
X93962285Y-97079285D01*
X93819428Y-96984047D01*
X93605142Y-96888809D01*
X93248000Y-96793571D01*
X92962285Y-96793571D01*
X92605142Y-96888809D01*
X92390857Y-96984047D01*
X92248000Y-97079285D01*
X92033714Y-97269761D01*
X91962285Y-97365000D01*
X92319428Y-94412619D02*
X92248000Y-94317380D01*
X92176571Y-94126904D01*
X92176571Y-93650714D01*
X92248000Y-93460238D01*
X92319428Y-93365000D01*
X92462285Y-93269761D01*
X92605142Y-93269761D01*
X92819428Y-93365000D01*
X93676571Y-94507857D01*
X93676571Y-93269761D01*
X92176571Y-92031666D02*
X92176571Y-91841190D01*
X92248000Y-91650714D01*
X92319428Y-91555476D01*
X92462285Y-91460238D01*
X92748000Y-91365000D01*
X93105142Y-91365000D01*
X93390857Y-91460238D01*
X93533714Y-91555476D01*
X93605142Y-91650714D01*
X93676571Y-91841190D01*
X93676571Y-92031666D01*
X93605142Y-92222142D01*
X93533714Y-92317380D01*
X93390857Y-92412619D01*
X93105142Y-92507857D01*
X92748000Y-92507857D01*
X92462285Y-92412619D01*
X92319428Y-92317380D01*
X92248000Y-92222142D01*
X92176571Y-92031666D01*
X93676571Y-89460238D02*
X93676571Y-90603095D01*
X93676571Y-90031666D02*
X92176571Y-90031666D01*
X92390857Y-90222142D01*
X92533714Y-90412619D01*
X92605142Y-90603095D01*
X93676571Y-88507857D02*
X93676571Y-88126904D01*
X93605142Y-87936428D01*
X93533714Y-87841190D01*
X93319428Y-87650714D01*
X93033714Y-87555476D01*
X92462285Y-87555476D01*
X92319428Y-87650714D01*
X92248000Y-87745952D01*
X92176571Y-87936428D01*
X92176571Y-88317380D01*
X92248000Y-88507857D01*
X92319428Y-88603095D01*
X92462285Y-88698333D01*
X92819428Y-88698333D01*
X92962285Y-88603095D01*
X93033714Y-88507857D01*
X93105142Y-88317380D01*
X93105142Y-87936428D01*
X93033714Y-87745952D01*
X92962285Y-87650714D01*
X92819428Y-87555476D01*
X92105142Y-85269761D02*
X94033714Y-86984047D01*
X92319428Y-84698333D02*
X92248000Y-84603095D01*
X92176571Y-84412619D01*
X92176571Y-83936428D01*
X92248000Y-83745952D01*
X92319428Y-83650714D01*
X92462285Y-83555476D01*
X92605142Y-83555476D01*
X92819428Y-83650714D01*
X93676571Y-84793571D01*
X93676571Y-83555476D01*
X92176571Y-82317380D02*
X92176571Y-82126904D01*
X92248000Y-81936428D01*
X92319428Y-81841190D01*
X92462285Y-81745952D01*
X92748000Y-81650714D01*
X93105142Y-81650714D01*
X93390857Y-81745952D01*
X93533714Y-81841190D01*
X93605142Y-81936428D01*
X93676571Y-82126904D01*
X93676571Y-82317380D01*
X93605142Y-82507857D01*
X93533714Y-82603095D01*
X93390857Y-82698333D01*
X93105142Y-82793571D01*
X92748000Y-82793571D01*
X92462285Y-82698333D01*
X92319428Y-82603095D01*
X92248000Y-82507857D01*
X92176571Y-82317380D01*
X92319428Y-80888809D02*
X92248000Y-80793571D01*
X92176571Y-80603095D01*
X92176571Y-80126904D01*
X92248000Y-79936428D01*
X92319428Y-79841190D01*
X92462285Y-79745952D01*
X92605142Y-79745952D01*
X92819428Y-79841190D01*
X93676571Y-80984047D01*
X93676571Y-79745952D01*
X93676571Y-77841190D02*
X93676571Y-78984047D01*
X93676571Y-78412619D02*
X92176571Y-78412619D01*
X92390857Y-78603095D01*
X92533714Y-78793571D01*
X92605142Y-78984047D01*
D12*
X97355142Y-73472142D02*
X97640857Y-73543571D01*
X98117047Y-73543571D01*
X98307523Y-73472142D01*
X98402761Y-73400714D01*
X98498000Y-73257857D01*
X98498000Y-73115000D01*
X98402761Y-72972142D01*
X98307523Y-72900714D01*
X98117047Y-72829285D01*
X97736095Y-72757857D01*
X97545619Y-72686428D01*
X97450380Y-72615000D01*
X97355142Y-72472142D01*
X97355142Y-72329285D01*
X97450380Y-72186428D01*
X97545619Y-72115000D01*
X97736095Y-72043571D01*
X98212285Y-72043571D01*
X98498000Y-72115000D01*
X99069428Y-72043571D02*
X100212285Y-72043571D01*
X99640857Y-73543571D02*
X99640857Y-72043571D01*
X101831333Y-73543571D02*
X100878952Y-73543571D01*
X100878952Y-72043571D01*
X102498000Y-73543571D02*
X102498000Y-72543571D01*
X102498000Y-72043571D02*
X102402761Y-72115000D01*
X102498000Y-72186428D01*
X102593238Y-72115000D01*
X102498000Y-72043571D01*
X102498000Y-72186428D01*
X103450380Y-72543571D02*
X103450380Y-73543571D01*
X103450380Y-72686428D02*
X103545619Y-72615000D01*
X103736095Y-72543571D01*
X104021809Y-72543571D01*
X104212285Y-72615000D01*
X104307523Y-72757857D01*
X104307523Y-73543571D01*
X105259904Y-73543571D02*
X105259904Y-72043571D01*
X105450380Y-72972142D02*
X106021809Y-73543571D01*
X106021809Y-72543571D02*
X105259904Y-73115000D01*
X106593238Y-72043571D02*
X107259904Y-73543571D01*
X107926571Y-72043571D01*
X108498000Y-72186428D02*
X108593238Y-72115000D01*
X108783714Y-72043571D01*
X109259904Y-72043571D01*
X109450380Y-72115000D01*
X109545619Y-72186428D01*
X109640857Y-72329285D01*
X109640857Y-72472142D01*
X109545619Y-72686428D01*
X108402761Y-73543571D01*
X109640857Y-73543571D01*
D13*
X107950380Y-110234047D02*
X106950380Y-110234047D01*
X107902761Y-110234047D02*
X107950380Y-110329285D01*
X107950380Y-110519761D01*
X107902761Y-110615000D01*
X107855142Y-110662619D01*
X107759904Y-110710238D01*
X107474190Y-110710238D01*
X107378952Y-110662619D01*
X107331333Y-110615000D01*
X107283714Y-110519761D01*
X107283714Y-110329285D01*
X107331333Y-110234047D01*
X107902761Y-109376904D02*
X107950380Y-109472142D01*
X107950380Y-109662619D01*
X107902761Y-109757857D01*
X107807523Y-109805476D01*
X107426571Y-109805476D01*
X107331333Y-109757857D01*
X107283714Y-109662619D01*
X107283714Y-109472142D01*
X107331333Y-109376904D01*
X107426571Y-109329285D01*
X107521809Y-109329285D01*
X107617047Y-109805476D01*
X107902761Y-108948333D02*
X107950380Y-108853095D01*
X107950380Y-108662619D01*
X107902761Y-108567380D01*
X107807523Y-108519761D01*
X107759904Y-108519761D01*
X107664666Y-108567380D01*
X107617047Y-108662619D01*
X107617047Y-108805476D01*
X107569428Y-108900714D01*
X107474190Y-108948333D01*
X107426571Y-108948333D01*
X107331333Y-108900714D01*
X107283714Y-108805476D01*
X107283714Y-108662619D01*
X107331333Y-108567380D01*
X107950380Y-108091190D02*
X107283714Y-108091190D01*
X106950380Y-108091190D02*
X106998000Y-108138809D01*
X107045619Y-108091190D01*
X106998000Y-108043571D01*
X106950380Y-108091190D01*
X107045619Y-108091190D01*
X107283714Y-107186428D02*
X108093238Y-107186428D01*
X108188476Y-107234047D01*
X108236095Y-107281666D01*
X108283714Y-107376904D01*
X108283714Y-107519761D01*
X108236095Y-107615000D01*
X107902761Y-107186428D02*
X107950380Y-107281666D01*
X107950380Y-107472142D01*
X107902761Y-107567380D01*
X107855142Y-107615000D01*
X107759904Y-107662619D01*
X107474190Y-107662619D01*
X107378952Y-107615000D01*
X107331333Y-107567380D01*
X107283714Y-107472142D01*
X107283714Y-107281666D01*
X107331333Y-107186428D01*
X107283714Y-106710238D02*
X107950380Y-106710238D01*
X107378952Y-106710238D02*
X107331333Y-106662619D01*
X107283714Y-106567380D01*
X107283714Y-106424523D01*
X107331333Y-106329285D01*
X107426571Y-106281666D01*
X107950380Y-106281666D01*
X107902761Y-105424523D02*
X107950380Y-105519761D01*
X107950380Y-105710238D01*
X107902761Y-105805476D01*
X107807523Y-105853095D01*
X107426571Y-105853095D01*
X107331333Y-105805476D01*
X107283714Y-105710238D01*
X107283714Y-105519761D01*
X107331333Y-105424523D01*
X107426571Y-105376904D01*
X107521809Y-105376904D01*
X107617047Y-105853095D01*
X107950380Y-104519761D02*
X106950380Y-104519761D01*
X107902761Y-104519761D02*
X107950380Y-104615000D01*
X107950380Y-104805476D01*
X107902761Y-104900714D01*
X107855142Y-104948333D01*
X107759904Y-104995952D01*
X107474190Y-104995952D01*
X107378952Y-104948333D01*
X107331333Y-104900714D01*
X107283714Y-104805476D01*
X107283714Y-104615000D01*
X107331333Y-104519761D01*
X107950380Y-103281666D02*
X106950380Y-103281666D01*
X107331333Y-103281666D02*
X107283714Y-103186428D01*
X107283714Y-102995952D01*
X107331333Y-102900714D01*
X107378952Y-102853095D01*
X107474190Y-102805476D01*
X107759904Y-102805476D01*
X107855142Y-102853095D01*
X107902761Y-102900714D01*
X107950380Y-102995952D01*
X107950380Y-103186428D01*
X107902761Y-103281666D01*
X107283714Y-102472142D02*
X107950380Y-102234047D01*
X107283714Y-101995952D02*
X107950380Y-102234047D01*
X108188476Y-102329285D01*
X108236095Y-102376904D01*
X108283714Y-102472142D01*
X107950380Y-100281666D02*
X107474190Y-100615000D01*
X107950380Y-100853095D02*
X106950380Y-100853095D01*
X106950380Y-100472142D01*
X106998000Y-100376904D01*
X107045619Y-100329285D01*
X107140857Y-100281666D01*
X107283714Y-100281666D01*
X107378952Y-100329285D01*
X107426571Y-100376904D01*
X107474190Y-100472142D01*
X107474190Y-100853095D01*
X107855142Y-99853095D02*
X107902761Y-99805476D01*
X107950380Y-99853095D01*
X107902761Y-99900714D01*
X107855142Y-99853095D01*
X107950380Y-99853095D01*
X106998000Y-98853095D02*
X106950380Y-98948333D01*
X106950380Y-99091190D01*
X106998000Y-99234047D01*
X107093238Y-99329285D01*
X107188476Y-99376904D01*
X107378952Y-99424523D01*
X107521809Y-99424523D01*
X107712285Y-99376904D01*
X107807523Y-99329285D01*
X107902761Y-99234047D01*
X107950380Y-99091190D01*
X107950380Y-98995952D01*
X107902761Y-98853095D01*
X107855142Y-98805476D01*
X107521809Y-98805476D01*
X107521809Y-98995952D01*
X107855142Y-98376904D02*
X107902761Y-98329285D01*
X107950380Y-98376904D01*
X107902761Y-98424523D01*
X107855142Y-98376904D01*
X107950380Y-98376904D01*
X107045619Y-97948333D02*
X106998000Y-97900714D01*
X106950380Y-97805476D01*
X106950380Y-97567380D01*
X106998000Y-97472142D01*
X107045619Y-97424523D01*
X107140857Y-97376904D01*
X107236095Y-97376904D01*
X107378952Y-97424523D01*
X107950380Y-97995952D01*
X107950380Y-97376904D01*
X106950380Y-96757857D02*
X106950380Y-96662619D01*
X106998000Y-96567380D01*
X107045619Y-96519761D01*
X107140857Y-96472142D01*
X107331333Y-96424523D01*
X107569428Y-96424523D01*
X107759904Y-96472142D01*
X107855142Y-96519761D01*
X107902761Y-96567380D01*
X107950380Y-96662619D01*
X107950380Y-96757857D01*
X107902761Y-96853095D01*
X107855142Y-96900714D01*
X107759904Y-96948333D01*
X107569428Y-96995952D01*
X107331333Y-96995952D01*
X107140857Y-96948333D01*
X107045619Y-96900714D01*
X106998000Y-96853095D01*
X106950380Y-96757857D01*
X107045619Y-96043571D02*
X106998000Y-95995952D01*
X106950380Y-95900714D01*
X106950380Y-95662619D01*
X106998000Y-95567380D01*
X107045619Y-95519761D01*
X107140857Y-95472142D01*
X107236095Y-95472142D01*
X107378952Y-95519761D01*
X107950380Y-96091190D01*
X107950380Y-95472142D01*
X107950380Y-94519761D02*
X107950380Y-95091190D01*
X107950380Y-94805476D02*
X106950380Y-94805476D01*
X107093238Y-94900714D01*
X107188476Y-94995952D01*
X107236095Y-95091190D01*
X178998000Y-96626904D02*
X178950380Y-96722142D01*
X178950380Y-96865000D01*
X178998000Y-97007857D01*
X179093238Y-97103095D01*
X179188476Y-97150714D01*
X179378952Y-97198333D01*
X179521809Y-97198333D01*
X179712285Y-97150714D01*
X179807523Y-97103095D01*
X179902761Y-97007857D01*
X179950380Y-96865000D01*
X179950380Y-96769761D01*
X179902761Y-96626904D01*
X179855142Y-96579285D01*
X179521809Y-96579285D01*
X179521809Y-96769761D01*
X179950380Y-96150714D02*
X178950380Y-96150714D01*
X179950380Y-95579285D01*
X178950380Y-95579285D01*
X179950380Y-95103095D02*
X178950380Y-95103095D01*
X178950380Y-94865000D01*
X178998000Y-94722142D01*
X179093238Y-94626904D01*
X179188476Y-94579285D01*
X179378952Y-94531666D01*
X179521809Y-94531666D01*
X179712285Y-94579285D01*
X179807523Y-94626904D01*
X179902761Y-94722142D01*
X179950380Y-94865000D01*
X179950380Y-95103095D01*
X179950380Y-99281666D02*
X179474190Y-99615000D01*
X179950380Y-99853095D02*
X178950380Y-99853095D01*
X178950380Y-99472142D01*
X178998000Y-99376904D01*
X179045619Y-99329285D01*
X179140857Y-99281666D01*
X179283714Y-99281666D01*
X179378952Y-99329285D01*
X179426571Y-99376904D01*
X179474190Y-99472142D01*
X179474190Y-99853095D01*
X178950380Y-98948333D02*
X179950380Y-98281666D01*
X178950380Y-98281666D02*
X179950380Y-98948333D01*
X178950380Y-102876904D02*
X178950380Y-102305476D01*
X179950380Y-102591190D02*
X178950380Y-102591190D01*
X178950380Y-102067380D02*
X179950380Y-101400714D01*
X178950380Y-101400714D02*
X179950380Y-102067380D01*
X120950380Y-85888809D02*
X121950380Y-85555476D01*
X120950380Y-85222142D01*
X120950380Y-84984047D02*
X120950380Y-84365000D01*
X121331333Y-84698333D01*
X121331333Y-84555476D01*
X121378952Y-84460238D01*
X121426571Y-84412619D01*
X121521809Y-84365000D01*
X121759904Y-84365000D01*
X121855142Y-84412619D01*
X121902761Y-84460238D01*
X121950380Y-84555476D01*
X121950380Y-84841190D01*
X121902761Y-84936428D01*
X121855142Y-84984047D01*
X121855142Y-83936428D02*
X121902761Y-83888809D01*
X121950380Y-83936428D01*
X121902761Y-83984047D01*
X121855142Y-83936428D01*
X121950380Y-83936428D01*
X120950380Y-83555476D02*
X120950380Y-82936428D01*
X121331333Y-83269761D01*
X121331333Y-83126904D01*
X121378952Y-83031666D01*
X121426571Y-82984047D01*
X121521809Y-82936428D01*
X121759904Y-82936428D01*
X121855142Y-82984047D01*
X121902761Y-83031666D01*
X121950380Y-83126904D01*
X121950380Y-83412619D01*
X121902761Y-83507857D01*
X121855142Y-83555476D01*
X119402761Y-88126904D02*
X119450380Y-87984047D01*
X119450380Y-87745952D01*
X119402761Y-87650714D01*
X119355142Y-87603095D01*
X119259904Y-87555476D01*
X119164666Y-87555476D01*
X119069428Y-87603095D01*
X119021809Y-87650714D01*
X118974190Y-87745952D01*
X118926571Y-87936428D01*
X118878952Y-88031666D01*
X118831333Y-88079285D01*
X118736095Y-88126904D01*
X118640857Y-88126904D01*
X118545619Y-88079285D01*
X118498000Y-88031666D01*
X118450380Y-87936428D01*
X118450380Y-87698333D01*
X118498000Y-87555476D01*
X118450380Y-87222142D02*
X119450380Y-86984047D01*
X118736095Y-86793571D01*
X119450380Y-86603095D01*
X118450380Y-86365000D01*
X119450380Y-85984047D02*
X118450380Y-85984047D01*
X118450380Y-85745952D01*
X118498000Y-85603095D01*
X118593238Y-85507857D01*
X118688476Y-85460238D01*
X118878952Y-85412619D01*
X119021809Y-85412619D01*
X119212285Y-85460238D01*
X119307523Y-85507857D01*
X119402761Y-85603095D01*
X119450380Y-85745952D01*
X119450380Y-85984047D01*
X119355142Y-84412619D02*
X119402761Y-84460238D01*
X119450380Y-84603095D01*
X119450380Y-84698333D01*
X119402761Y-84841190D01*
X119307523Y-84936428D01*
X119212285Y-84984047D01*
X119021809Y-85031666D01*
X118878952Y-85031666D01*
X118688476Y-84984047D01*
X118593238Y-84936428D01*
X118498000Y-84841190D01*
X118450380Y-84698333D01*
X118450380Y-84603095D01*
X118498000Y-84460238D01*
X118545619Y-84412619D01*
X119450380Y-83507857D02*
X119450380Y-83984047D01*
X118450380Y-83984047D01*
X119450380Y-83174523D02*
X118450380Y-83174523D01*
X119450380Y-82603095D02*
X118878952Y-83031666D01*
X118450380Y-82603095D02*
X119021809Y-83174523D01*
X116902761Y-86984047D02*
X116950380Y-86841190D01*
X116950380Y-86603095D01*
X116902761Y-86507857D01*
X116855142Y-86460238D01*
X116759904Y-86412619D01*
X116664666Y-86412619D01*
X116569428Y-86460238D01*
X116521809Y-86507857D01*
X116474190Y-86603095D01*
X116426571Y-86793571D01*
X116378952Y-86888809D01*
X116331333Y-86936428D01*
X116236095Y-86984047D01*
X116140857Y-86984047D01*
X116045619Y-86936428D01*
X115998000Y-86888809D01*
X115950380Y-86793571D01*
X115950380Y-86555476D01*
X115998000Y-86412619D01*
X115950380Y-86079285D02*
X116950380Y-85841190D01*
X116236095Y-85650714D01*
X116950380Y-85460238D01*
X115950380Y-85222142D01*
X116950380Y-84841190D02*
X115950380Y-84841190D01*
X115950380Y-84603095D01*
X115998000Y-84460238D01*
X116093238Y-84365000D01*
X116188476Y-84317380D01*
X116378952Y-84269761D01*
X116521809Y-84269761D01*
X116712285Y-84317380D01*
X116807523Y-84365000D01*
X116902761Y-84460238D01*
X116950380Y-84603095D01*
X116950380Y-84841190D01*
X116950380Y-83841190D02*
X115950380Y-83841190D01*
X115950380Y-83174523D02*
X115950380Y-82984047D01*
X115998000Y-82888809D01*
X116093238Y-82793571D01*
X116283714Y-82745952D01*
X116617047Y-82745952D01*
X116807523Y-82793571D01*
X116902761Y-82888809D01*
X116950380Y-82984047D01*
X116950380Y-83174523D01*
X116902761Y-83269761D01*
X116807523Y-83365000D01*
X116617047Y-83412619D01*
X116283714Y-83412619D01*
X116093238Y-83365000D01*
X115998000Y-83269761D01*
X115950380Y-83174523D01*
X113498000Y-85126904D02*
X113450380Y-85222142D01*
X113450380Y-85365000D01*
X113498000Y-85507857D01*
X113593238Y-85603095D01*
X113688476Y-85650714D01*
X113878952Y-85698333D01*
X114021809Y-85698333D01*
X114212285Y-85650714D01*
X114307523Y-85603095D01*
X114402761Y-85507857D01*
X114450380Y-85365000D01*
X114450380Y-85269761D01*
X114402761Y-85126904D01*
X114355142Y-85079285D01*
X114021809Y-85079285D01*
X114021809Y-85269761D01*
X114450380Y-84650714D02*
X113450380Y-84650714D01*
X114450380Y-84079285D01*
X113450380Y-84079285D01*
X114450380Y-83603095D02*
X113450380Y-83603095D01*
X113450380Y-83365000D01*
X113498000Y-83222142D01*
X113593238Y-83126904D01*
X113688476Y-83079285D01*
X113878952Y-83031666D01*
X114021809Y-83031666D01*
X114212285Y-83079285D01*
X114307523Y-83126904D01*
X114402761Y-83222142D01*
X114450380Y-83365000D01*
X114450380Y-83603095D01*
D11*
X113345648Y-79965000D02*
G75*
G03*
X113345648Y-79965000I-147648J0D01*
G01*
D13*
X102045619Y-79317380D02*
X101712285Y-78841190D01*
X101474190Y-79317380D02*
X101474190Y-78317380D01*
X101855142Y-78317380D01*
X101950380Y-78365000D01*
X101998000Y-78412619D01*
X102045619Y-78507857D01*
X102045619Y-78650714D01*
X101998000Y-78745952D01*
X101950380Y-78793571D01*
X101855142Y-78841190D01*
X101474190Y-78841190D01*
X102474190Y-78793571D02*
X102807523Y-78793571D01*
X102950380Y-79317380D02*
X102474190Y-79317380D01*
X102474190Y-78317380D01*
X102950380Y-78317380D01*
X103331333Y-79269761D02*
X103474190Y-79317380D01*
X103712285Y-79317380D01*
X103807523Y-79269761D01*
X103855142Y-79222142D01*
X103902761Y-79126904D01*
X103902761Y-79031666D01*
X103855142Y-78936428D01*
X103807523Y-78888809D01*
X103712285Y-78841190D01*
X103521809Y-78793571D01*
X103426571Y-78745952D01*
X103378952Y-78698333D01*
X103331333Y-78603095D01*
X103331333Y-78507857D01*
X103378952Y-78412619D01*
X103426571Y-78365000D01*
X103521809Y-78317380D01*
X103759904Y-78317380D01*
X103902761Y-78365000D01*
X104331333Y-78793571D02*
X104664666Y-78793571D01*
X104807523Y-79317380D02*
X104331333Y-79317380D01*
X104331333Y-78317380D01*
X104807523Y-78317380D01*
X105093238Y-78317380D02*
X105664666Y-78317380D01*
X105378952Y-79317380D02*
X105378952Y-78317380D01*
X122164666Y-96793571D02*
X122307523Y-96841190D01*
X122355142Y-96888809D01*
X122402761Y-96984047D01*
X122402761Y-97126904D01*
X122355142Y-97222142D01*
X122307523Y-97269761D01*
X122212285Y-97317380D01*
X121831333Y-97317380D01*
X121831333Y-96317380D01*
X122164666Y-96317380D01*
X122259904Y-96365000D01*
X122307523Y-96412619D01*
X122355142Y-96507857D01*
X122355142Y-96603095D01*
X122307523Y-96698333D01*
X122259904Y-96745952D01*
X122164666Y-96793571D01*
X121831333Y-96793571D01*
X123021809Y-96317380D02*
X123212285Y-96317380D01*
X123307523Y-96365000D01*
X123402761Y-96460238D01*
X123450380Y-96650714D01*
X123450380Y-96984047D01*
X123402761Y-97174523D01*
X123307523Y-97269761D01*
X123212285Y-97317380D01*
X123021809Y-97317380D01*
X122926571Y-97269761D01*
X122831333Y-97174523D01*
X122783714Y-96984047D01*
X122783714Y-96650714D01*
X122831333Y-96460238D01*
X122926571Y-96365000D01*
X123021809Y-96317380D01*
X124069428Y-96317380D02*
X124259904Y-96317380D01*
X124355142Y-96365000D01*
X124450380Y-96460238D01*
X124498000Y-96650714D01*
X124498000Y-96984047D01*
X124450380Y-97174523D01*
X124355142Y-97269761D01*
X124259904Y-97317380D01*
X124069428Y-97317380D01*
X123974190Y-97269761D01*
X123878952Y-97174523D01*
X123831333Y-96984047D01*
X123831333Y-96650714D01*
X123878952Y-96460238D01*
X123974190Y-96365000D01*
X124069428Y-96317380D01*
X124783714Y-96317380D02*
X125355142Y-96317380D01*
X125069428Y-97317380D02*
X125069428Y-96317380D01*
X126212285Y-97317380D02*
X125640857Y-97317380D01*
X125926571Y-97317380D02*
X125926571Y-96317380D01*
X125831333Y-96460238D01*
X125736095Y-96555476D01*
X125640857Y-96603095D01*
X116164666Y-96793571D02*
X116307523Y-96841190D01*
X116355142Y-96888809D01*
X116402761Y-96984047D01*
X116402761Y-97126904D01*
X116355142Y-97222142D01*
X116307523Y-97269761D01*
X116212285Y-97317380D01*
X115831333Y-97317380D01*
X115831333Y-96317380D01*
X116164666Y-96317380D01*
X116259904Y-96365000D01*
X116307523Y-96412619D01*
X116355142Y-96507857D01*
X116355142Y-96603095D01*
X116307523Y-96698333D01*
X116259904Y-96745952D01*
X116164666Y-96793571D01*
X115831333Y-96793571D01*
X117021809Y-96317380D02*
X117212285Y-96317380D01*
X117307523Y-96365000D01*
X117402761Y-96460238D01*
X117450380Y-96650714D01*
X117450380Y-96984047D01*
X117402761Y-97174523D01*
X117307523Y-97269761D01*
X117212285Y-97317380D01*
X117021809Y-97317380D01*
X116926571Y-97269761D01*
X116831333Y-97174523D01*
X116783714Y-96984047D01*
X116783714Y-96650714D01*
X116831333Y-96460238D01*
X116926571Y-96365000D01*
X117021809Y-96317380D01*
X118069428Y-96317380D02*
X118259904Y-96317380D01*
X118355142Y-96365000D01*
X118450380Y-96460238D01*
X118498000Y-96650714D01*
X118498000Y-96984047D01*
X118450380Y-97174523D01*
X118355142Y-97269761D01*
X118259904Y-97317380D01*
X118069428Y-97317380D01*
X117974190Y-97269761D01*
X117878952Y-97174523D01*
X117831333Y-96984047D01*
X117831333Y-96650714D01*
X117878952Y-96460238D01*
X117974190Y-96365000D01*
X118069428Y-96317380D01*
X118783714Y-96317380D02*
X119355142Y-96317380D01*
X119069428Y-97317380D02*
X119069428Y-96317380D01*
X119878952Y-96317380D02*
X119974190Y-96317380D01*
X120069428Y-96365000D01*
X120117047Y-96412619D01*
X120164666Y-96507857D01*
X120212285Y-96698333D01*
X120212285Y-96936428D01*
X120164666Y-97126904D01*
X120117047Y-97222142D01*
X120069428Y-97269761D01*
X119974190Y-97317380D01*
X119878952Y-97317380D01*
X119783714Y-97269761D01*
X119736095Y-97222142D01*
X119688476Y-97126904D01*
X119640857Y-96936428D01*
X119640857Y-96698333D01*
X119688476Y-96507857D01*
X119736095Y-96412619D01*
X119783714Y-96365000D01*
X119878952Y-96317380D01*
X140307523Y-73317380D02*
X140307523Y-72317380D01*
X140545619Y-72317380D01*
X140688476Y-72365000D01*
X140783714Y-72460238D01*
X140831333Y-72555476D01*
X140878952Y-72745952D01*
X140878952Y-72888809D01*
X140831333Y-73079285D01*
X140783714Y-73174523D01*
X140688476Y-73269761D01*
X140545619Y-73317380D01*
X140307523Y-73317380D01*
X141307523Y-73317380D02*
X141307523Y-72650714D01*
X141307523Y-72317380D02*
X141259904Y-72365000D01*
X141307523Y-72412619D01*
X141355142Y-72365000D01*
X141307523Y-72317380D01*
X141307523Y-72412619D01*
X142212285Y-72650714D02*
X142212285Y-73460238D01*
X142164666Y-73555476D01*
X142117047Y-73603095D01*
X142021809Y-73650714D01*
X141878952Y-73650714D01*
X141783714Y-73603095D01*
X142212285Y-73269761D02*
X142117047Y-73317380D01*
X141926571Y-73317380D01*
X141831333Y-73269761D01*
X141783714Y-73222142D01*
X141736095Y-73126904D01*
X141736095Y-72841190D01*
X141783714Y-72745952D01*
X141831333Y-72698333D01*
X141926571Y-72650714D01*
X142117047Y-72650714D01*
X142212285Y-72698333D01*
X142688476Y-73317380D02*
X142688476Y-72650714D01*
X142688476Y-72317380D02*
X142640857Y-72365000D01*
X142688476Y-72412619D01*
X142736095Y-72365000D01*
X142688476Y-72317380D01*
X142688476Y-72412619D01*
X143021809Y-72650714D02*
X143402761Y-72650714D01*
X143164666Y-72317380D02*
X143164666Y-73174523D01*
X143212285Y-73269761D01*
X143307523Y-73317380D01*
X143402761Y-73317380D01*
X144164666Y-73317380D02*
X144164666Y-72793571D01*
X144117047Y-72698333D01*
X144021809Y-72650714D01*
X143831333Y-72650714D01*
X143736095Y-72698333D01*
X144164666Y-73269761D02*
X144069428Y-73317380D01*
X143831333Y-73317380D01*
X143736095Y-73269761D01*
X143688476Y-73174523D01*
X143688476Y-73079285D01*
X143736095Y-72984047D01*
X143831333Y-72936428D01*
X144069428Y-72936428D01*
X144164666Y-72888809D01*
X144783714Y-73317380D02*
X144688476Y-73269761D01*
X144640857Y-73174523D01*
X144640857Y-72317380D01*
X163307523Y-73317380D02*
X163307523Y-72317380D01*
X163545619Y-72317380D01*
X163688476Y-72365000D01*
X163783714Y-72460238D01*
X163831333Y-72555476D01*
X163878952Y-72745952D01*
X163878952Y-72888809D01*
X163831333Y-73079285D01*
X163783714Y-73174523D01*
X163688476Y-73269761D01*
X163545619Y-73317380D01*
X163307523Y-73317380D01*
X164307523Y-73317380D02*
X164307523Y-72650714D01*
X164307523Y-72317380D02*
X164259904Y-72365000D01*
X164307523Y-72412619D01*
X164355142Y-72365000D01*
X164307523Y-72317380D01*
X164307523Y-72412619D01*
X165212285Y-72650714D02*
X165212285Y-73460238D01*
X165164666Y-73555476D01*
X165117047Y-73603095D01*
X165021809Y-73650714D01*
X164878952Y-73650714D01*
X164783714Y-73603095D01*
X165212285Y-73269761D02*
X165117047Y-73317380D01*
X164926571Y-73317380D01*
X164831333Y-73269761D01*
X164783714Y-73222142D01*
X164736095Y-73126904D01*
X164736095Y-72841190D01*
X164783714Y-72745952D01*
X164831333Y-72698333D01*
X164926571Y-72650714D01*
X165117047Y-72650714D01*
X165212285Y-72698333D01*
X165688476Y-73317380D02*
X165688476Y-72650714D01*
X165688476Y-72317380D02*
X165640857Y-72365000D01*
X165688476Y-72412619D01*
X165736095Y-72365000D01*
X165688476Y-72317380D01*
X165688476Y-72412619D01*
X166021809Y-72650714D02*
X166402761Y-72650714D01*
X166164666Y-72317380D02*
X166164666Y-73174523D01*
X166212285Y-73269761D01*
X166307523Y-73317380D01*
X166402761Y-73317380D01*
X167164666Y-73317380D02*
X167164666Y-72793571D01*
X167117047Y-72698333D01*
X167021809Y-72650714D01*
X166831333Y-72650714D01*
X166736095Y-72698333D01*
X167164666Y-73269761D02*
X167069428Y-73317380D01*
X166831333Y-73317380D01*
X166736095Y-73269761D01*
X166688476Y-73174523D01*
X166688476Y-73079285D01*
X166736095Y-72984047D01*
X166831333Y-72936428D01*
X167069428Y-72936428D01*
X167164666Y-72888809D01*
X167783714Y-73317380D02*
X167688476Y-73269761D01*
X167640857Y-73174523D01*
X167640857Y-72317380D01*
X146021809Y-126317380D02*
X146021809Y-125317380D01*
X146402761Y-125317380D01*
X146498000Y-125365000D01*
X146545619Y-125412619D01*
X146593238Y-125507857D01*
X146593238Y-125650714D01*
X146545619Y-125745952D01*
X146498000Y-125793571D01*
X146402761Y-125841190D01*
X146021809Y-125841190D01*
X147164666Y-126317380D02*
X147069428Y-126269761D01*
X147021809Y-126222142D01*
X146974190Y-126126904D01*
X146974190Y-125841190D01*
X147021809Y-125745952D01*
X147069428Y-125698333D01*
X147164666Y-125650714D01*
X147307523Y-125650714D01*
X147402761Y-125698333D01*
X147450380Y-125745952D01*
X147498000Y-125841190D01*
X147498000Y-126126904D01*
X147450380Y-126222142D01*
X147402761Y-126269761D01*
X147307523Y-126317380D01*
X147164666Y-126317380D01*
X147831333Y-125650714D02*
X148021809Y-126317380D01*
X148212285Y-125841190D01*
X148402761Y-126317380D01*
X148593238Y-125650714D01*
X149355142Y-126269761D02*
X149259904Y-126317380D01*
X149069428Y-126317380D01*
X148974190Y-126269761D01*
X148926571Y-126174523D01*
X148926571Y-125793571D01*
X148974190Y-125698333D01*
X149069428Y-125650714D01*
X149259904Y-125650714D01*
X149355142Y-125698333D01*
X149402761Y-125793571D01*
X149402761Y-125888809D01*
X148926571Y-125984047D01*
X149831333Y-126317380D02*
X149831333Y-125650714D01*
X149831333Y-125841190D02*
X149878952Y-125745952D01*
X149926571Y-125698333D01*
X150021809Y-125650714D01*
X150117047Y-125650714D01*
X166688476Y-126031666D02*
X167164666Y-126031666D01*
X166593238Y-126317380D02*
X166926571Y-125317380D01*
X167259904Y-126317380D01*
X167593238Y-125650714D02*
X167593238Y-126317380D01*
X167593238Y-125745952D02*
X167640857Y-125698333D01*
X167736095Y-125650714D01*
X167878952Y-125650714D01*
X167974190Y-125698333D01*
X168021809Y-125793571D01*
X168021809Y-126317380D01*
X168926571Y-126317380D02*
X168926571Y-125793571D01*
X168878952Y-125698333D01*
X168783714Y-125650714D01*
X168593238Y-125650714D01*
X168498000Y-125698333D01*
X168926571Y-126269761D02*
X168831333Y-126317380D01*
X168593238Y-126317380D01*
X168498000Y-126269761D01*
X168450380Y-126174523D01*
X168450380Y-126079285D01*
X168498000Y-125984047D01*
X168593238Y-125936428D01*
X168831333Y-125936428D01*
X168926571Y-125888809D01*
X169545619Y-126317380D02*
X169450380Y-126269761D01*
X169402761Y-126174523D01*
X169402761Y-125317380D01*
X170069428Y-126317380D02*
X169974190Y-126269761D01*
X169926571Y-126222142D01*
X169878952Y-126126904D01*
X169878952Y-125841190D01*
X169926571Y-125745952D01*
X169974190Y-125698333D01*
X170069428Y-125650714D01*
X170212285Y-125650714D01*
X170307523Y-125698333D01*
X170355142Y-125745952D01*
X170402761Y-125841190D01*
X170402761Y-126126904D01*
X170355142Y-126222142D01*
X170307523Y-126269761D01*
X170212285Y-126317380D01*
X170069428Y-126317380D01*
X171259904Y-125650714D02*
X171259904Y-126460238D01*
X171212285Y-126555476D01*
X171164666Y-126603095D01*
X171069428Y-126650714D01*
X170926571Y-126650714D01*
X170831333Y-126603095D01*
X171259904Y-126269761D02*
X171164666Y-126317380D01*
X170974190Y-126317380D01*
X170878952Y-126269761D01*
X170831333Y-126222142D01*
X170783714Y-126126904D01*
X170783714Y-125841190D01*
X170831333Y-125745952D01*
X170878952Y-125698333D01*
X170974190Y-125650714D01*
X171164666Y-125650714D01*
X171259904Y-125698333D01*
D10*
X139390380Y-120999285D02*
X139390380Y-121570714D01*
X139390380Y-121285000D02*
X138390380Y-121285000D01*
X138533238Y-121380238D01*
X138628476Y-121475476D01*
X138676095Y-121570714D01*
X92456000Y-124003000D02*
X91186000Y-123495000D01*
X92456000Y-122987000D02*
X92456000Y-124003000D01*
X91186000Y-123495000D02*
X92456000Y-122987000D01*
X91821000Y-123368000D02*
X91694000Y-123495000D01*
X91821000Y-123622000D02*
X91821000Y-123368000D01*
X91948000Y-123368000D02*
X91821000Y-123622000D01*
X91948000Y-123622000D02*
X91948000Y-123368000D01*
X92075000Y-123241000D02*
X91948000Y-123622000D01*
X92075000Y-123749000D02*
X92075000Y-123241000D01*
X92202000Y-123241000D02*
X92075000Y-123749000D01*
X92202000Y-123749000D02*
X92202000Y-123241000D01*
X92329000Y-123114000D02*
X92202000Y-123749000D01*
X91440000Y-123495000D02*
X92329000Y-123114000D01*
X92329000Y-123876000D02*
X91440000Y-123495000D01*
X92329000Y-123114000D02*
X92329000Y-123876000D01*
D14*
X133523000Y-96605000D02*
X133523000Y-103005000D01*
X128473000Y-96605000D02*
X128473000Y-103005000D01*
X128473000Y-103005000D02*
G75*
G03*
X133523000Y-103005000I2525000J0D01*
G01*
X128473000Y-96605000D02*
G75*
G02*
X133523000Y-96605000I2525000J0D01*
G01*
X100438000Y-74555000D02*
X106558000Y-74555000D01*
X106558000Y-74555000D02*
X106558000Y-78175000D01*
X106558000Y-78175000D02*
X100438000Y-78175000D01*
X100438000Y-78175000D02*
X100438000Y-74555000D01*
D10*
X97647100Y-128182460D02*
X106347100Y-128182460D01*
X97647100Y-121777460D02*
X106347100Y-121777460D01*
X106347100Y-121777460D02*
X106347100Y-128182460D01*
X106347100Y-126952460D02*
X97647100Y-126952460D01*
X97647100Y-128182460D02*
X97647100Y-121777460D01*
D14*
X105943000Y-94015000D02*
X105943000Y-109795000D01*
X105943000Y-109795000D02*
X96593000Y-109795000D01*
X96593000Y-109795000D02*
X96593000Y-94015000D01*
X96593000Y-94015000D02*
X105943000Y-94015000D01*
X96343000Y-93765000D02*
X96343000Y-96305000D01*
X96343000Y-93765000D02*
X98883000Y-93765000D01*
X114803000Y-112160000D02*
X114803000Y-113420000D01*
X114803000Y-118980000D02*
X114803000Y-117720000D01*
X118563000Y-112160000D02*
X114803000Y-112160000D01*
X120813000Y-118980000D02*
X114803000Y-118980000D01*
X172395936Y-80275000D02*
X173600064Y-80275000D01*
X172395936Y-78455000D02*
X173600064Y-78455000D01*
X164600064Y-116275000D02*
X163395936Y-116275000D01*
X164600064Y-114455000D02*
X163395936Y-114455000D01*
X138395936Y-87275000D02*
X139600064Y-87275000D01*
X138395936Y-85455000D02*
X139600064Y-85455000D01*
X145395936Y-82455000D02*
X146600064Y-82455000D01*
X145395936Y-84275000D02*
X146600064Y-84275000D01*
X154600064Y-82455000D02*
X153395936Y-82455000D01*
X154600064Y-84275000D02*
X153395936Y-84275000D01*
X161395936Y-82455000D02*
X162600064Y-82455000D01*
X161395936Y-84275000D02*
X162600064Y-84275000D01*
X170600064Y-82455000D02*
X169395936Y-82455000D01*
X170600064Y-84275000D02*
X169395936Y-84275000D01*
X172088000Y-88967064D02*
X172088000Y-87762936D01*
X173908000Y-88967064D02*
X173908000Y-87762936D01*
X172088000Y-94762936D02*
X172088000Y-95967064D01*
X173908000Y-94762936D02*
X173908000Y-95967064D01*
X173908000Y-101762936D02*
X173908000Y-102967064D01*
X172088000Y-101762936D02*
X172088000Y-102967064D01*
X173908000Y-109967064D02*
X173908000Y-108762936D01*
X172088000Y-109967064D02*
X172088000Y-108762936D01*
X137395936Y-103455000D02*
X138600064Y-103455000D01*
X137395936Y-105275000D02*
X138600064Y-105275000D01*
X138395936Y-92275000D02*
X139600064Y-92275000D01*
X138395936Y-90455000D02*
X139600064Y-90455000D01*
X161895936Y-118955000D02*
X163100064Y-118955000D01*
X161895936Y-120775000D02*
X163100064Y-120775000D01*
X132088000Y-87762936D02*
X132088000Y-88967064D01*
X133908000Y-87762936D02*
X133908000Y-88967064D01*
X140395936Y-115455000D02*
X141600064Y-115455000D01*
X140395936Y-117275000D02*
X141600064Y-117275000D01*
X137395936Y-113275000D02*
X138600064Y-113275000D01*
X137395936Y-111455000D02*
X138600064Y-111455000D01*
X137395936Y-107455000D02*
X138600064Y-107455000D01*
X137395936Y-109275000D02*
X138600064Y-109275000D01*
X149600064Y-114455000D02*
X148395936Y-114455000D01*
X149600064Y-116275000D02*
X148395936Y-116275000D01*
X156395936Y-114455000D02*
X157600064Y-114455000D01*
X156395936Y-116275000D02*
X157600064Y-116275000D01*
X137395936Y-96275000D02*
X138600064Y-96275000D01*
X137395936Y-94455000D02*
X138600064Y-94455000D01*
X170395936Y-114455000D02*
X171600064Y-114455000D01*
X170395936Y-116275000D02*
X171600064Y-116275000D01*
X130395936Y-119505000D02*
X131600064Y-119505000D01*
X130395936Y-122225000D02*
X131600064Y-122225000D01*
X99600064Y-80005000D02*
X98395936Y-80005000D01*
X99600064Y-82725000D02*
X98395936Y-82725000D01*
X101395936Y-116005000D02*
X102600064Y-116005000D01*
X101395936Y-118725000D02*
X102600064Y-118725000D01*
X124513000Y-117800000D02*
X128598000Y-117800000D01*
X124513000Y-115930000D02*
X124513000Y-117800000D01*
X128598000Y-115930000D02*
X124513000Y-115930000D01*
X128598000Y-112430000D02*
X124513000Y-112430000D01*
X124513000Y-112430000D02*
X124513000Y-114300000D01*
X124513000Y-114300000D02*
X128598000Y-114300000D01*
X119328000Y-94695000D02*
X117998000Y-94695000D01*
X119328000Y-93365000D02*
X119328000Y-94695000D01*
X119328000Y-92095000D02*
X116668000Y-92095000D01*
X116668000Y-92095000D02*
X116668000Y-89495000D01*
X119328000Y-92095000D02*
X119328000Y-89495000D01*
X119328000Y-89495000D02*
X116668000Y-89495000D01*
X125328000Y-89495000D02*
X122668000Y-89495000D01*
X125328000Y-92095000D02*
X125328000Y-89495000D01*
X122668000Y-92095000D02*
X122668000Y-89495000D01*
X125328000Y-92095000D02*
X122668000Y-92095000D01*
X125328000Y-93365000D02*
X125328000Y-94695000D01*
X125328000Y-94695000D02*
X123998000Y-94695000D01*
X175668000Y-95035000D02*
X176998000Y-95035000D01*
X175668000Y-96365000D02*
X175668000Y-95035000D01*
X175668000Y-97635000D02*
X178328000Y-97635000D01*
X178328000Y-97635000D02*
X178328000Y-102775000D01*
X175668000Y-97635000D02*
X175668000Y-102775000D01*
X175668000Y-102775000D02*
X178328000Y-102775000D01*
X97588000Y-111035000D02*
X97588000Y-113695000D01*
X102728000Y-111035000D02*
X97588000Y-111035000D01*
X102728000Y-113695000D02*
X97588000Y-113695000D01*
X102728000Y-111035000D02*
X102728000Y-113695000D01*
X103998000Y-111035000D02*
X105328000Y-111035000D01*
X105328000Y-111035000D02*
X105328000Y-112365000D01*
X112668000Y-78925000D02*
X122948000Y-78925000D01*
X122948000Y-78925000D02*
X122948000Y-76265000D01*
X122948000Y-76265000D02*
X112668000Y-76265000D01*
X112668000Y-76265000D02*
X112668000Y-78925000D01*
X113618000Y-76265000D02*
X113618000Y-70265000D01*
X113618000Y-70265000D02*
X114378000Y-70265000D01*
X114378000Y-70265000D02*
X114378000Y-76265000D01*
X113678000Y-76265000D02*
X113678000Y-70265000D01*
X113798000Y-76265000D02*
X113798000Y-70265000D01*
X113918000Y-76265000D02*
X113918000Y-70265000D01*
X114038000Y-76265000D02*
X114038000Y-70265000D01*
X114158000Y-76265000D02*
X114158000Y-70265000D01*
X114278000Y-76265000D02*
X114278000Y-70265000D01*
X113618000Y-79255000D02*
X113618000Y-78925000D01*
X114378000Y-79255000D02*
X114378000Y-78925000D01*
X115268000Y-78925000D02*
X115268000Y-76265000D01*
X116158000Y-76265000D02*
X116158000Y-70265000D01*
X116158000Y-70265000D02*
X116918000Y-70265000D01*
X116918000Y-70265000D02*
X116918000Y-76265000D01*
X116158000Y-79322071D02*
X116158000Y-78925000D01*
X116918000Y-79322071D02*
X116918000Y-78925000D01*
X117808000Y-78925000D02*
X117808000Y-76265000D01*
X118698000Y-76265000D02*
X118698000Y-70265000D01*
X118698000Y-70265000D02*
X119458000Y-70265000D01*
X119458000Y-70265000D02*
X119458000Y-76265000D01*
X118698000Y-79322071D02*
X118698000Y-78925000D01*
X119458000Y-79322071D02*
X119458000Y-78925000D01*
X120348000Y-78925000D02*
X120348000Y-76265000D01*
X121238000Y-76265000D02*
X121238000Y-70265000D01*
X121238000Y-70265000D02*
X121998000Y-70265000D01*
X121998000Y-70265000D02*
X121998000Y-76265000D01*
X121238000Y-79322071D02*
X121238000Y-78925000D01*
X121998000Y-79322071D02*
X121998000Y-78925000D01*
X113998000Y-81635000D02*
X112728000Y-81635000D01*
X112728000Y-81635000D02*
X112728000Y-80365000D01*
X163068000Y-125155000D02*
X163068000Y-122495000D01*
X163068000Y-125155000D02*
X175828000Y-125155000D01*
X175828000Y-125155000D02*
X175828000Y-122495000D01*
X163068000Y-122495000D02*
X175828000Y-122495000D01*
X160468000Y-122495000D02*
X161798000Y-122495000D01*
X160468000Y-123825000D02*
X160468000Y-122495000D01*
X137608000Y-123825000D02*
X137608000Y-122495000D01*
X137608000Y-122495000D02*
X138938000Y-122495000D01*
X140208000Y-122495000D02*
X158048000Y-122495000D01*
X158048000Y-125155000D02*
X158048000Y-122495000D01*
X140208000Y-125155000D02*
X158048000Y-125155000D01*
X140208000Y-125155000D02*
X140208000Y-122495000D01*
X157988000Y-76895000D02*
X157988000Y-74235000D01*
X157988000Y-76895000D02*
X175828000Y-76895000D01*
X175828000Y-76895000D02*
X175828000Y-74235000D01*
X157988000Y-74235000D02*
X175828000Y-74235000D01*
X155388000Y-74235000D02*
X156718000Y-74235000D01*
X155388000Y-75565000D02*
X155388000Y-74235000D01*
X131064000Y-76895000D02*
X131064000Y-74235000D01*
X131064000Y-76895000D02*
X153984000Y-76895000D01*
X153984000Y-76895000D02*
X153984000Y-74235000D01*
X131064000Y-74235000D02*
X153984000Y-74235000D01*
X128464000Y-74235000D02*
X129794000Y-74235000D01*
X128464000Y-75565000D02*
X128464000Y-74235000D01*
X96538000Y-93500000D02*
X100598000Y-93500000D01*
X96538000Y-91230000D02*
X96538000Y-93500000D01*
X100598000Y-91230000D02*
X96538000Y-91230000D01*
X123598000Y-107730000D02*
X119538000Y-107730000D01*
X119538000Y-107730000D02*
X119538000Y-110000000D01*
X119538000Y-110000000D02*
X123598000Y-110000000D01*
D10*
X144823000Y-87190000D02*
X144823000Y-88165000D01*
X169173000Y-87190000D02*
X169173000Y-88240000D01*
X169173000Y-111540000D02*
X169173000Y-110490000D01*
X144823000Y-111540000D02*
X144823000Y-110490000D01*
X144823000Y-87190000D02*
X145873000Y-87190000D01*
X144823000Y-111540000D02*
X145873000Y-111540000D01*
X169173000Y-111540000D02*
X168123000Y-111540000D01*
X169173000Y-87190000D02*
X168123000Y-87190000D01*
X144823000Y-88165000D02*
X143818000Y-88165000D01*
D14*
X123088000Y-100762936D02*
X123088000Y-101967064D01*
X124908000Y-100762936D02*
X124908000Y-101967064D01*
X138600064Y-102275000D02*
X137395936Y-102275000D01*
X138600064Y-100455000D02*
X137395936Y-100455000D01*
X130588000Y-80762936D02*
X130588000Y-81967064D01*
X132408000Y-80762936D02*
X132408000Y-81967064D01*
X127408000Y-83262936D02*
X127408000Y-84467064D01*
X125588000Y-83262936D02*
X125588000Y-84467064D01*
X178908000Y-107967064D02*
X178908000Y-106762936D01*
X177088000Y-107967064D02*
X177088000Y-106762936D01*
X119088000Y-101967064D02*
X119088000Y-100762936D01*
X120908000Y-101967064D02*
X120908000Y-100762936D01*
X149100064Y-78455000D02*
X147895936Y-78455000D01*
X149100064Y-80275000D02*
X147895936Y-80275000D01*
X148395936Y-119455000D02*
X149600064Y-119455000D01*
X148395936Y-121275000D02*
X149600064Y-121275000D01*
X116408000Y-101967064D02*
X116408000Y-100762936D01*
X114588000Y-101967064D02*
X114588000Y-100762936D01*
X138600064Y-81275000D02*
X137395936Y-81275000D01*
X138600064Y-79455000D02*
X137395936Y-79455000D01*
X98895936Y-88775000D02*
X100100064Y-88775000D01*
X98895936Y-86955000D02*
X100100064Y-86955000D01*
X138600064Y-99275000D02*
X137395936Y-99275000D01*
X138600064Y-97455000D02*
X137395936Y-97455000D01*
X107600064Y-80005000D02*
X106395936Y-80005000D01*
X107600064Y-82725000D02*
X106395936Y-82725000D01*
X129100064Y-109725000D02*
X127895936Y-109725000D01*
X129100064Y-107005000D02*
X127895936Y-107005000D01*
X121198000Y-124365000D02*
G75*
G03*
X121198000Y-124365000I-1200000J0D01*
G01*
D10*
X91638380Y-100706285D02*
X90638380Y-100706285D01*
X90638380Y-100325333D01*
X90686000Y-100230095D01*
X90733619Y-100182476D01*
X90828857Y-100134857D01*
X90971714Y-100134857D01*
X91066952Y-100182476D01*
X91114571Y-100230095D01*
X91162190Y-100325333D01*
X91162190Y-100706285D01*
X91638380Y-99182476D02*
X91638380Y-99753904D01*
X91638380Y-99468190D02*
X90638380Y-99468190D01*
X90781238Y-99563428D01*
X90876476Y-99658666D01*
X90924095Y-99753904D01*
X90638380Y-98563428D02*
X90638380Y-98468190D01*
X90686000Y-98372952D01*
X90733619Y-98325333D01*
X90828857Y-98277714D01*
X91019333Y-98230095D01*
X91257428Y-98230095D01*
X91447904Y-98277714D01*
X91543142Y-98325333D01*
X91590761Y-98372952D01*
X91638380Y-98468190D01*
X91638380Y-98563428D01*
X91590761Y-98658666D01*
X91543142Y-98706285D01*
X91447904Y-98753904D01*
X91257428Y-98801523D01*
X91019333Y-98801523D01*
X90828857Y-98753904D01*
X90733619Y-98706285D01*
X90686000Y-98658666D01*
X90638380Y-98563428D01*
X126450380Y-100555476D02*
X127450380Y-99888809D01*
X126450380Y-99888809D02*
X127450380Y-100555476D01*
X126450380Y-99650714D02*
X126450380Y-99079285D01*
X127450380Y-99365000D02*
X126450380Y-99365000D01*
X127450380Y-98222142D02*
X127450380Y-98793571D01*
X127450380Y-98507857D02*
X126450380Y-98507857D01*
X126593238Y-98603095D01*
X126688476Y-98698333D01*
X126736095Y-98793571D01*
X97116380Y-124817285D02*
X96116380Y-124817285D01*
X96116380Y-124436333D01*
X96164000Y-124341095D01*
X96211619Y-124293476D01*
X96306857Y-124245857D01*
X96449714Y-124245857D01*
X96544952Y-124293476D01*
X96592571Y-124341095D01*
X96640190Y-124436333D01*
X96640190Y-124817285D01*
X97116380Y-123293476D02*
X97116380Y-123864904D01*
X97116380Y-123579190D02*
X96116380Y-123579190D01*
X96259238Y-123674428D01*
X96354476Y-123769666D01*
X96402095Y-123864904D01*
X96211619Y-122912523D02*
X96164000Y-122864904D01*
X96116380Y-122769666D01*
X96116380Y-122531571D01*
X96164000Y-122436333D01*
X96211619Y-122388714D01*
X96306857Y-122341095D01*
X96402095Y-122341095D01*
X96544952Y-122388714D01*
X97116380Y-122960142D01*
X97116380Y-122341095D01*
X95164666Y-101067380D02*
X95164666Y-101781666D01*
X95117047Y-101924523D01*
X95021809Y-102019761D01*
X94878952Y-102067380D01*
X94783714Y-102067380D01*
X96164666Y-102067380D02*
X95593238Y-102067380D01*
X95878952Y-102067380D02*
X95878952Y-101067380D01*
X95783714Y-101210238D01*
X95688476Y-101305476D01*
X95593238Y-101353095D01*
X112482380Y-112902904D02*
X113291904Y-112902904D01*
X113387142Y-112855285D01*
X113434761Y-112807666D01*
X113482380Y-112712428D01*
X113482380Y-112521952D01*
X113434761Y-112426714D01*
X113387142Y-112379095D01*
X113291904Y-112331476D01*
X112482380Y-112331476D01*
X113482380Y-111331476D02*
X113482380Y-111902904D01*
X113482380Y-111617190D02*
X112482380Y-111617190D01*
X112625238Y-111712428D01*
X112720476Y-111807666D01*
X112768095Y-111902904D01*
X169251333Y-79986142D02*
X169203714Y-80033761D01*
X169060857Y-80081380D01*
X168965619Y-80081380D01*
X168822761Y-80033761D01*
X168727523Y-79938523D01*
X168679904Y-79843285D01*
X168632285Y-79652809D01*
X168632285Y-79509952D01*
X168679904Y-79319476D01*
X168727523Y-79224238D01*
X168822761Y-79129000D01*
X168965619Y-79081380D01*
X169060857Y-79081380D01*
X169203714Y-79129000D01*
X169251333Y-79176619D01*
X169584666Y-79081380D02*
X170251333Y-79081380D01*
X169822761Y-80081380D01*
X163355142Y-117542142D02*
X163307523Y-117589761D01*
X163164666Y-117637380D01*
X163069428Y-117637380D01*
X162926571Y-117589761D01*
X162831333Y-117494523D01*
X162783714Y-117399285D01*
X162736095Y-117208809D01*
X162736095Y-117065952D01*
X162783714Y-116875476D01*
X162831333Y-116780238D01*
X162926571Y-116685000D01*
X163069428Y-116637380D01*
X163164666Y-116637380D01*
X163307523Y-116685000D01*
X163355142Y-116732619D01*
X163736095Y-116732619D02*
X163783714Y-116685000D01*
X163878952Y-116637380D01*
X164117047Y-116637380D01*
X164212285Y-116685000D01*
X164259904Y-116732619D01*
X164307523Y-116827857D01*
X164307523Y-116923095D01*
X164259904Y-117065952D01*
X163688476Y-117637380D01*
X164307523Y-117637380D01*
X165259904Y-117637380D02*
X164688476Y-117637380D01*
X164974190Y-117637380D02*
X164974190Y-116637380D01*
X164878952Y-116780238D01*
X164783714Y-116875476D01*
X164688476Y-116923095D01*
X138355142Y-84902142D02*
X138307523Y-84949761D01*
X138164666Y-84997380D01*
X138069428Y-84997380D01*
X137926571Y-84949761D01*
X137831333Y-84854523D01*
X137783714Y-84759285D01*
X137736095Y-84568809D01*
X137736095Y-84425952D01*
X137783714Y-84235476D01*
X137831333Y-84140238D01*
X137926571Y-84045000D01*
X138069428Y-83997380D01*
X138164666Y-83997380D01*
X138307523Y-84045000D01*
X138355142Y-84092619D01*
X139307523Y-84997380D02*
X138736095Y-84997380D01*
X139021809Y-84997380D02*
X139021809Y-83997380D01*
X138926571Y-84140238D01*
X138831333Y-84235476D01*
X138736095Y-84283095D01*
X140259904Y-84997380D02*
X139688476Y-84997380D01*
X139974190Y-84997380D02*
X139974190Y-83997380D01*
X139878952Y-84140238D01*
X139783714Y-84235476D01*
X139688476Y-84283095D01*
X144391142Y-81510142D02*
X144343523Y-81557761D01*
X144200666Y-81605380D01*
X144105428Y-81605380D01*
X143962571Y-81557761D01*
X143867333Y-81462523D01*
X143819714Y-81367285D01*
X143772095Y-81176809D01*
X143772095Y-81033952D01*
X143819714Y-80843476D01*
X143867333Y-80748238D01*
X143962571Y-80653000D01*
X144105428Y-80605380D01*
X144200666Y-80605380D01*
X144343523Y-80653000D01*
X144391142Y-80700619D01*
X145343523Y-81605380D02*
X144772095Y-81605380D01*
X145057809Y-81605380D02*
X145057809Y-80605380D01*
X144962571Y-80748238D01*
X144867333Y-80843476D01*
X144772095Y-80891095D01*
X145724476Y-80700619D02*
X145772095Y-80653000D01*
X145867333Y-80605380D01*
X146105428Y-80605380D01*
X146200666Y-80653000D01*
X146248285Y-80700619D01*
X146295904Y-80795857D01*
X146295904Y-80891095D01*
X146248285Y-81033952D01*
X145676857Y-81605380D01*
X146295904Y-81605380D01*
X153535142Y-81510142D02*
X153487523Y-81557761D01*
X153344666Y-81605380D01*
X153249428Y-81605380D01*
X153106571Y-81557761D01*
X153011333Y-81462523D01*
X152963714Y-81367285D01*
X152916095Y-81176809D01*
X152916095Y-81033952D01*
X152963714Y-80843476D01*
X153011333Y-80748238D01*
X153106571Y-80653000D01*
X153249428Y-80605380D01*
X153344666Y-80605380D01*
X153487523Y-80653000D01*
X153535142Y-80700619D01*
X154487523Y-81605380D02*
X153916095Y-81605380D01*
X154201809Y-81605380D02*
X154201809Y-80605380D01*
X154106571Y-80748238D01*
X154011333Y-80843476D01*
X153916095Y-80891095D01*
X154820857Y-80605380D02*
X155439904Y-80605380D01*
X155106571Y-80986333D01*
X155249428Y-80986333D01*
X155344666Y-81033952D01*
X155392285Y-81081571D01*
X155439904Y-81176809D01*
X155439904Y-81414904D01*
X155392285Y-81510142D01*
X155344666Y-81557761D01*
X155249428Y-81605380D01*
X154963714Y-81605380D01*
X154868476Y-81557761D01*
X154820857Y-81510142D01*
X161355142Y-81902142D02*
X161307523Y-81949761D01*
X161164666Y-81997380D01*
X161069428Y-81997380D01*
X160926571Y-81949761D01*
X160831333Y-81854523D01*
X160783714Y-81759285D01*
X160736095Y-81568809D01*
X160736095Y-81425952D01*
X160783714Y-81235476D01*
X160831333Y-81140238D01*
X160926571Y-81045000D01*
X161069428Y-80997380D01*
X161164666Y-80997380D01*
X161307523Y-81045000D01*
X161355142Y-81092619D01*
X162307523Y-81997380D02*
X161736095Y-81997380D01*
X162021809Y-81997380D02*
X162021809Y-80997380D01*
X161926571Y-81140238D01*
X161831333Y-81235476D01*
X161736095Y-81283095D01*
X163164666Y-81330714D02*
X163164666Y-81997380D01*
X162926571Y-80949761D02*
X162688476Y-81664047D01*
X163307523Y-81664047D01*
X173347142Y-83542142D02*
X173299523Y-83589761D01*
X173156666Y-83637380D01*
X173061428Y-83637380D01*
X172918571Y-83589761D01*
X172823333Y-83494523D01*
X172775714Y-83399285D01*
X172728095Y-83208809D01*
X172728095Y-83065952D01*
X172775714Y-82875476D01*
X172823333Y-82780238D01*
X172918571Y-82685000D01*
X173061428Y-82637380D01*
X173156666Y-82637380D01*
X173299523Y-82685000D01*
X173347142Y-82732619D01*
X174299523Y-83637380D02*
X173728095Y-83637380D01*
X174013809Y-83637380D02*
X174013809Y-82637380D01*
X173918571Y-82780238D01*
X173823333Y-82875476D01*
X173728095Y-82923095D01*
X175204285Y-82637380D02*
X174728095Y-82637380D01*
X174680476Y-83113571D01*
X174728095Y-83065952D01*
X174823333Y-83018333D01*
X175061428Y-83018333D01*
X175156666Y-83065952D01*
X175204285Y-83113571D01*
X175251904Y-83208809D01*
X175251904Y-83446904D01*
X175204285Y-83542142D01*
X175156666Y-83589761D01*
X175061428Y-83637380D01*
X174823333Y-83637380D01*
X174728095Y-83589761D01*
X174680476Y-83542142D01*
X175363142Y-87891857D02*
X175410761Y-87939476D01*
X175458380Y-88082333D01*
X175458380Y-88177571D01*
X175410761Y-88320428D01*
X175315523Y-88415666D01*
X175220285Y-88463285D01*
X175029809Y-88510904D01*
X174886952Y-88510904D01*
X174696476Y-88463285D01*
X174601238Y-88415666D01*
X174506000Y-88320428D01*
X174458380Y-88177571D01*
X174458380Y-88082333D01*
X174506000Y-87939476D01*
X174553619Y-87891857D01*
X175458380Y-86939476D02*
X175458380Y-87510904D01*
X175458380Y-87225190D02*
X174458380Y-87225190D01*
X174601238Y-87320428D01*
X174696476Y-87415666D01*
X174744095Y-87510904D01*
X174458380Y-86082333D02*
X174458380Y-86272809D01*
X174506000Y-86368047D01*
X174553619Y-86415666D01*
X174696476Y-86510904D01*
X174886952Y-86558523D01*
X175267904Y-86558523D01*
X175363142Y-86510904D01*
X175410761Y-86463285D01*
X175458380Y-86368047D01*
X175458380Y-86177571D01*
X175410761Y-86082333D01*
X175363142Y-86034714D01*
X175267904Y-85987095D01*
X175029809Y-85987095D01*
X174934571Y-86034714D01*
X174886952Y-86082333D01*
X174839333Y-86177571D01*
X174839333Y-86368047D01*
X174886952Y-86463285D01*
X174934571Y-86510904D01*
X175029809Y-86558523D01*
X175175142Y-96007857D02*
X175222761Y-96055476D01*
X175270380Y-96198333D01*
X175270380Y-96293571D01*
X175222761Y-96436428D01*
X175127523Y-96531666D01*
X175032285Y-96579285D01*
X174841809Y-96626904D01*
X174698952Y-96626904D01*
X174508476Y-96579285D01*
X174413238Y-96531666D01*
X174318000Y-96436428D01*
X174270380Y-96293571D01*
X174270380Y-96198333D01*
X174318000Y-96055476D01*
X174365619Y-96007857D01*
X175270380Y-95055476D02*
X175270380Y-95626904D01*
X175270380Y-95341190D02*
X174270380Y-95341190D01*
X174413238Y-95436428D01*
X174508476Y-95531666D01*
X174556095Y-95626904D01*
X174270380Y-94722142D02*
X174270380Y-94055476D01*
X175270380Y-94484047D01*
X175175142Y-103007857D02*
X175222761Y-103055476D01*
X175270380Y-103198333D01*
X175270380Y-103293571D01*
X175222761Y-103436428D01*
X175127523Y-103531666D01*
X175032285Y-103579285D01*
X174841809Y-103626904D01*
X174698952Y-103626904D01*
X174508476Y-103579285D01*
X174413238Y-103531666D01*
X174318000Y-103436428D01*
X174270380Y-103293571D01*
X174270380Y-103198333D01*
X174318000Y-103055476D01*
X174365619Y-103007857D01*
X175270380Y-102055476D02*
X175270380Y-102626904D01*
X175270380Y-102341190D02*
X174270380Y-102341190D01*
X174413238Y-102436428D01*
X174508476Y-102531666D01*
X174556095Y-102626904D01*
X174698952Y-101484047D02*
X174651333Y-101579285D01*
X174603714Y-101626904D01*
X174508476Y-101674523D01*
X174460857Y-101674523D01*
X174365619Y-101626904D01*
X174318000Y-101579285D01*
X174270380Y-101484047D01*
X174270380Y-101293571D01*
X174318000Y-101198333D01*
X174365619Y-101150714D01*
X174460857Y-101103095D01*
X174508476Y-101103095D01*
X174603714Y-101150714D01*
X174651333Y-101198333D01*
X174698952Y-101293571D01*
X174698952Y-101484047D01*
X174746571Y-101579285D01*
X174794190Y-101626904D01*
X174889428Y-101674523D01*
X175079904Y-101674523D01*
X175175142Y-101626904D01*
X175222761Y-101579285D01*
X175270380Y-101484047D01*
X175270380Y-101293571D01*
X175222761Y-101198333D01*
X175175142Y-101150714D01*
X175079904Y-101103095D01*
X174889428Y-101103095D01*
X174794190Y-101150714D01*
X174746571Y-101198333D01*
X174698952Y-101293571D01*
X175363142Y-109989857D02*
X175410761Y-110037476D01*
X175458380Y-110180333D01*
X175458380Y-110275571D01*
X175410761Y-110418428D01*
X175315523Y-110513666D01*
X175220285Y-110561285D01*
X175029809Y-110608904D01*
X174886952Y-110608904D01*
X174696476Y-110561285D01*
X174601238Y-110513666D01*
X174506000Y-110418428D01*
X174458380Y-110275571D01*
X174458380Y-110180333D01*
X174506000Y-110037476D01*
X174553619Y-109989857D01*
X175458380Y-109037476D02*
X175458380Y-109608904D01*
X175458380Y-109323190D02*
X174458380Y-109323190D01*
X174601238Y-109418428D01*
X174696476Y-109513666D01*
X174744095Y-109608904D01*
X175458380Y-108561285D02*
X175458380Y-108370809D01*
X175410761Y-108275571D01*
X175363142Y-108227952D01*
X175220285Y-108132714D01*
X175029809Y-108085095D01*
X174648857Y-108085095D01*
X174553619Y-108132714D01*
X174506000Y-108180333D01*
X174458380Y-108275571D01*
X174458380Y-108466047D01*
X174506000Y-108561285D01*
X174553619Y-108608904D01*
X174648857Y-108656523D01*
X174886952Y-108656523D01*
X174982190Y-108608904D01*
X175029809Y-108561285D01*
X175077428Y-108466047D01*
X175077428Y-108275571D01*
X175029809Y-108180333D01*
X174982190Y-108132714D01*
X174886952Y-108085095D01*
X141835142Y-104687666D02*
X141882761Y-104735285D01*
X141930380Y-104878142D01*
X141930380Y-104973380D01*
X141882761Y-105116238D01*
X141787523Y-105211476D01*
X141692285Y-105259095D01*
X141501809Y-105306714D01*
X141358952Y-105306714D01*
X141168476Y-105259095D01*
X141073238Y-105211476D01*
X140978000Y-105116238D01*
X140930380Y-104973380D01*
X140930380Y-104878142D01*
X140978000Y-104735285D01*
X141025619Y-104687666D01*
X140930380Y-103830523D02*
X140930380Y-104021000D01*
X140978000Y-104116238D01*
X141025619Y-104163857D01*
X141168476Y-104259095D01*
X141358952Y-104306714D01*
X141739904Y-104306714D01*
X141835142Y-104259095D01*
X141882761Y-104211476D01*
X141930380Y-104116238D01*
X141930380Y-103925761D01*
X141882761Y-103830523D01*
X141835142Y-103782904D01*
X141739904Y-103735285D01*
X141501809Y-103735285D01*
X141406571Y-103782904D01*
X141358952Y-103830523D01*
X141311333Y-103925761D01*
X141311333Y-104116238D01*
X141358952Y-104211476D01*
X141406571Y-104259095D01*
X141501809Y-104306714D01*
X142851142Y-91955857D02*
X142898761Y-92003476D01*
X142946380Y-92146333D01*
X142946380Y-92241571D01*
X142898761Y-92384428D01*
X142803523Y-92479666D01*
X142708285Y-92527285D01*
X142517809Y-92574904D01*
X142374952Y-92574904D01*
X142184476Y-92527285D01*
X142089238Y-92479666D01*
X141994000Y-92384428D01*
X141946380Y-92241571D01*
X141946380Y-92146333D01*
X141994000Y-92003476D01*
X142041619Y-91955857D01*
X142946380Y-91003476D02*
X142946380Y-91574904D01*
X142946380Y-91289190D02*
X141946380Y-91289190D01*
X142089238Y-91384428D01*
X142184476Y-91479666D01*
X142232095Y-91574904D01*
X141946380Y-90384428D02*
X141946380Y-90289190D01*
X141994000Y-90193952D01*
X142041619Y-90146333D01*
X142136857Y-90098714D01*
X142327333Y-90051095D01*
X142565428Y-90051095D01*
X142755904Y-90098714D01*
X142851142Y-90146333D01*
X142898761Y-90193952D01*
X142946380Y-90289190D01*
X142946380Y-90384428D01*
X142898761Y-90479666D01*
X142851142Y-90527285D01*
X142755904Y-90574904D01*
X142565428Y-90622523D01*
X142327333Y-90622523D01*
X142136857Y-90574904D01*
X142041619Y-90527285D01*
X141994000Y-90479666D01*
X141946380Y-90384428D01*
X166076333Y-120372142D02*
X166028714Y-120419761D01*
X165885857Y-120467380D01*
X165790619Y-120467380D01*
X165647761Y-120419761D01*
X165552523Y-120324523D01*
X165504904Y-120229285D01*
X165457285Y-120038809D01*
X165457285Y-119895952D01*
X165504904Y-119705476D01*
X165552523Y-119610238D01*
X165647761Y-119515000D01*
X165790619Y-119467380D01*
X165885857Y-119467380D01*
X166028714Y-119515000D01*
X166076333Y-119562619D01*
X166647761Y-119895952D02*
X166552523Y-119848333D01*
X166504904Y-119800714D01*
X166457285Y-119705476D01*
X166457285Y-119657857D01*
X166504904Y-119562619D01*
X166552523Y-119515000D01*
X166647761Y-119467380D01*
X166838238Y-119467380D01*
X166933476Y-119515000D01*
X166981095Y-119562619D01*
X167028714Y-119657857D01*
X167028714Y-119705476D01*
X166981095Y-119800714D01*
X166933476Y-119848333D01*
X166838238Y-119895952D01*
X166647761Y-119895952D01*
X166552523Y-119943571D01*
X166504904Y-119991190D01*
X166457285Y-120086428D01*
X166457285Y-120276904D01*
X166504904Y-120372142D01*
X166552523Y-120419761D01*
X166647761Y-120467380D01*
X166838238Y-120467380D01*
X166933476Y-120419761D01*
X166981095Y-120372142D01*
X167028714Y-120276904D01*
X167028714Y-120086428D01*
X166981095Y-119991190D01*
X166933476Y-119943571D01*
X166838238Y-119895952D01*
X135175142Y-88531666D02*
X135222761Y-88579285D01*
X135270380Y-88722142D01*
X135270380Y-88817380D01*
X135222761Y-88960238D01*
X135127523Y-89055476D01*
X135032285Y-89103095D01*
X134841809Y-89150714D01*
X134698952Y-89150714D01*
X134508476Y-89103095D01*
X134413238Y-89055476D01*
X134318000Y-88960238D01*
X134270380Y-88817380D01*
X134270380Y-88722142D01*
X134318000Y-88579285D01*
X134365619Y-88531666D01*
X135270380Y-88055476D02*
X135270380Y-87865000D01*
X135222761Y-87769761D01*
X135175142Y-87722142D01*
X135032285Y-87626904D01*
X134841809Y-87579285D01*
X134460857Y-87579285D01*
X134365619Y-87626904D01*
X134318000Y-87674523D01*
X134270380Y-87769761D01*
X134270380Y-87960238D01*
X134318000Y-88055476D01*
X134365619Y-88103095D01*
X134460857Y-88150714D01*
X134698952Y-88150714D01*
X134794190Y-88103095D01*
X134841809Y-88055476D01*
X134889428Y-87960238D01*
X134889428Y-87769761D01*
X134841809Y-87674523D01*
X134794190Y-87626904D01*
X134698952Y-87579285D01*
X140327142Y-118594142D02*
X140279523Y-118641761D01*
X140136666Y-118689380D01*
X140041428Y-118689380D01*
X139898571Y-118641761D01*
X139803333Y-118546523D01*
X139755714Y-118451285D01*
X139708095Y-118260809D01*
X139708095Y-118117952D01*
X139755714Y-117927476D01*
X139803333Y-117832238D01*
X139898571Y-117737000D01*
X140041428Y-117689380D01*
X140136666Y-117689380D01*
X140279523Y-117737000D01*
X140327142Y-117784619D01*
X140708095Y-117784619D02*
X140755714Y-117737000D01*
X140850952Y-117689380D01*
X141089047Y-117689380D01*
X141184285Y-117737000D01*
X141231904Y-117784619D01*
X141279523Y-117879857D01*
X141279523Y-117975095D01*
X141231904Y-118117952D01*
X140660476Y-118689380D01*
X141279523Y-118689380D01*
X142136666Y-117689380D02*
X141946190Y-117689380D01*
X141850952Y-117737000D01*
X141803333Y-117784619D01*
X141708095Y-117927476D01*
X141660476Y-118117952D01*
X141660476Y-118498904D01*
X141708095Y-118594142D01*
X141755714Y-118641761D01*
X141850952Y-118689380D01*
X142041428Y-118689380D01*
X142136666Y-118641761D01*
X142184285Y-118594142D01*
X142231904Y-118498904D01*
X142231904Y-118260809D01*
X142184285Y-118165571D01*
X142136666Y-118117952D01*
X142041428Y-118070333D01*
X141850952Y-118070333D01*
X141755714Y-118117952D01*
X141708095Y-118165571D01*
X141660476Y-118260809D01*
X141835142Y-112783857D02*
X141882761Y-112831476D01*
X141930380Y-112974333D01*
X141930380Y-113069571D01*
X141882761Y-113212428D01*
X141787523Y-113307666D01*
X141692285Y-113355285D01*
X141501809Y-113402904D01*
X141358952Y-113402904D01*
X141168476Y-113355285D01*
X141073238Y-113307666D01*
X140978000Y-113212428D01*
X140930380Y-113069571D01*
X140930380Y-112974333D01*
X140978000Y-112831476D01*
X141025619Y-112783857D01*
X141025619Y-112402904D02*
X140978000Y-112355285D01*
X140930380Y-112260047D01*
X140930380Y-112021952D01*
X140978000Y-111926714D01*
X141025619Y-111879095D01*
X141120857Y-111831476D01*
X141216095Y-111831476D01*
X141358952Y-111879095D01*
X141930380Y-112450523D01*
X141930380Y-111831476D01*
X140930380Y-110926714D02*
X140930380Y-111402904D01*
X141406571Y-111450523D01*
X141358952Y-111402904D01*
X141311333Y-111307666D01*
X141311333Y-111069571D01*
X141358952Y-110974333D01*
X141406571Y-110926714D01*
X141501809Y-110879095D01*
X141739904Y-110879095D01*
X141835142Y-110926714D01*
X141882761Y-110974333D01*
X141930380Y-111069571D01*
X141930380Y-111307666D01*
X141882761Y-111402904D01*
X141835142Y-111450523D01*
X141835142Y-109227857D02*
X141882761Y-109275476D01*
X141930380Y-109418333D01*
X141930380Y-109513571D01*
X141882761Y-109656428D01*
X141787523Y-109751666D01*
X141692285Y-109799285D01*
X141501809Y-109846904D01*
X141358952Y-109846904D01*
X141168476Y-109799285D01*
X141073238Y-109751666D01*
X140978000Y-109656428D01*
X140930380Y-109513571D01*
X140930380Y-109418333D01*
X140978000Y-109275476D01*
X141025619Y-109227857D01*
X141025619Y-108846904D02*
X140978000Y-108799285D01*
X140930380Y-108704047D01*
X140930380Y-108465952D01*
X140978000Y-108370714D01*
X141025619Y-108323095D01*
X141120857Y-108275476D01*
X141216095Y-108275476D01*
X141358952Y-108323095D01*
X141930380Y-108894523D01*
X141930380Y-108275476D01*
X141263714Y-107418333D02*
X141930380Y-107418333D01*
X140882761Y-107656428D02*
X141597047Y-107894523D01*
X141597047Y-107275476D01*
X148355142Y-117542142D02*
X148307523Y-117589761D01*
X148164666Y-117637380D01*
X148069428Y-117637380D01*
X147926571Y-117589761D01*
X147831333Y-117494523D01*
X147783714Y-117399285D01*
X147736095Y-117208809D01*
X147736095Y-117065952D01*
X147783714Y-116875476D01*
X147831333Y-116780238D01*
X147926571Y-116685000D01*
X148069428Y-116637380D01*
X148164666Y-116637380D01*
X148307523Y-116685000D01*
X148355142Y-116732619D01*
X148736095Y-116732619D02*
X148783714Y-116685000D01*
X148878952Y-116637380D01*
X149117047Y-116637380D01*
X149212285Y-116685000D01*
X149259904Y-116732619D01*
X149307523Y-116827857D01*
X149307523Y-116923095D01*
X149259904Y-117065952D01*
X148688476Y-117637380D01*
X149307523Y-117637380D01*
X149640857Y-116637380D02*
X150259904Y-116637380D01*
X149926571Y-117018333D01*
X150069428Y-117018333D01*
X150164666Y-117065952D01*
X150212285Y-117113571D01*
X150259904Y-117208809D01*
X150259904Y-117446904D01*
X150212285Y-117542142D01*
X150164666Y-117589761D01*
X150069428Y-117637380D01*
X149783714Y-117637380D01*
X149688476Y-117589761D01*
X149640857Y-117542142D01*
X156075142Y-117832142D02*
X156027523Y-117879761D01*
X155884666Y-117927380D01*
X155789428Y-117927380D01*
X155646571Y-117879761D01*
X155551333Y-117784523D01*
X155503714Y-117689285D01*
X155456095Y-117498809D01*
X155456095Y-117355952D01*
X155503714Y-117165476D01*
X155551333Y-117070238D01*
X155646571Y-116975000D01*
X155789428Y-116927380D01*
X155884666Y-116927380D01*
X156027523Y-116975000D01*
X156075142Y-117022619D01*
X156456095Y-117022619D02*
X156503714Y-116975000D01*
X156598952Y-116927380D01*
X156837047Y-116927380D01*
X156932285Y-116975000D01*
X156979904Y-117022619D01*
X157027523Y-117117857D01*
X157027523Y-117213095D01*
X156979904Y-117355952D01*
X156408476Y-117927380D01*
X157027523Y-117927380D01*
X157408476Y-117022619D02*
X157456095Y-116975000D01*
X157551333Y-116927380D01*
X157789428Y-116927380D01*
X157884666Y-116975000D01*
X157932285Y-117022619D01*
X157979904Y-117117857D01*
X157979904Y-117213095D01*
X157932285Y-117355952D01*
X157360857Y-117927380D01*
X157979904Y-117927380D01*
X141835142Y-95543666D02*
X141882761Y-95591285D01*
X141930380Y-95734142D01*
X141930380Y-95829380D01*
X141882761Y-95972238D01*
X141787523Y-96067476D01*
X141692285Y-96115095D01*
X141501809Y-96162714D01*
X141358952Y-96162714D01*
X141168476Y-96115095D01*
X141073238Y-96067476D01*
X140978000Y-95972238D01*
X140930380Y-95829380D01*
X140930380Y-95734142D01*
X140978000Y-95591285D01*
X141025619Y-95543666D01*
X140930380Y-94638904D02*
X140930380Y-95115095D01*
X141406571Y-95162714D01*
X141358952Y-95115095D01*
X141311333Y-95019857D01*
X141311333Y-94781761D01*
X141358952Y-94686523D01*
X141406571Y-94638904D01*
X141501809Y-94591285D01*
X141739904Y-94591285D01*
X141835142Y-94638904D01*
X141882761Y-94686523D01*
X141930380Y-94781761D01*
X141930380Y-95019857D01*
X141882761Y-95115095D01*
X141835142Y-95162714D01*
X170045142Y-117832142D02*
X169997523Y-117879761D01*
X169854666Y-117927380D01*
X169759428Y-117927380D01*
X169616571Y-117879761D01*
X169521333Y-117784523D01*
X169473714Y-117689285D01*
X169426095Y-117498809D01*
X169426095Y-117355952D01*
X169473714Y-117165476D01*
X169521333Y-117070238D01*
X169616571Y-116975000D01*
X169759428Y-116927380D01*
X169854666Y-116927380D01*
X169997523Y-116975000D01*
X170045142Y-117022619D01*
X170426095Y-117022619D02*
X170473714Y-116975000D01*
X170568952Y-116927380D01*
X170807047Y-116927380D01*
X170902285Y-116975000D01*
X170949904Y-117022619D01*
X170997523Y-117117857D01*
X170997523Y-117213095D01*
X170949904Y-117355952D01*
X170378476Y-117927380D01*
X170997523Y-117927380D01*
X171616571Y-116927380D02*
X171711809Y-116927380D01*
X171807047Y-116975000D01*
X171854666Y-117022619D01*
X171902285Y-117117857D01*
X171949904Y-117308333D01*
X171949904Y-117546428D01*
X171902285Y-117736904D01*
X171854666Y-117832142D01*
X171807047Y-117879761D01*
X171711809Y-117927380D01*
X171616571Y-117927380D01*
X171521333Y-117879761D01*
X171473714Y-117832142D01*
X171426095Y-117736904D01*
X171378476Y-117546428D01*
X171378476Y-117308333D01*
X171426095Y-117117857D01*
X171473714Y-117022619D01*
X171521333Y-116975000D01*
X171616571Y-116927380D01*
X130516333Y-123547142D02*
X130468714Y-123594761D01*
X130325857Y-123642380D01*
X130230619Y-123642380D01*
X130087761Y-123594761D01*
X129992523Y-123499523D01*
X129944904Y-123404285D01*
X129897285Y-123213809D01*
X129897285Y-123070952D01*
X129944904Y-122880476D01*
X129992523Y-122785238D01*
X130087761Y-122690000D01*
X130230619Y-122642380D01*
X130325857Y-122642380D01*
X130468714Y-122690000D01*
X130516333Y-122737619D01*
X130849666Y-122642380D02*
X131468714Y-122642380D01*
X131135380Y-123023333D01*
X131278238Y-123023333D01*
X131373476Y-123070952D01*
X131421095Y-123118571D01*
X131468714Y-123213809D01*
X131468714Y-123451904D01*
X131421095Y-123547142D01*
X131373476Y-123594761D01*
X131278238Y-123642380D01*
X130992523Y-123642380D01*
X130897285Y-123594761D01*
X130849666Y-123547142D01*
X98831333Y-84002142D02*
X98783714Y-84049761D01*
X98640857Y-84097380D01*
X98545619Y-84097380D01*
X98402761Y-84049761D01*
X98307523Y-83954523D01*
X98259904Y-83859285D01*
X98212285Y-83668809D01*
X98212285Y-83525952D01*
X98259904Y-83335476D01*
X98307523Y-83240238D01*
X98402761Y-83145000D01*
X98545619Y-83097380D01*
X98640857Y-83097380D01*
X98783714Y-83145000D01*
X98831333Y-83192619D01*
X99688476Y-83430714D02*
X99688476Y-84097380D01*
X99450380Y-83049761D02*
X99212285Y-83764047D01*
X99831333Y-83764047D01*
X97020142Y-117832142D02*
X96972523Y-117879761D01*
X96829666Y-117927380D01*
X96734428Y-117927380D01*
X96591571Y-117879761D01*
X96496333Y-117784523D01*
X96448714Y-117689285D01*
X96401095Y-117498809D01*
X96401095Y-117355952D01*
X96448714Y-117165476D01*
X96496333Y-117070238D01*
X96591571Y-116975000D01*
X96734428Y-116927380D01*
X96829666Y-116927380D01*
X96972523Y-116975000D01*
X97020142Y-117022619D01*
X97401095Y-117022619D02*
X97448714Y-116975000D01*
X97543952Y-116927380D01*
X97782047Y-116927380D01*
X97877285Y-116975000D01*
X97924904Y-117022619D01*
X97972523Y-117117857D01*
X97972523Y-117213095D01*
X97924904Y-117355952D01*
X97353476Y-117927380D01*
X97972523Y-117927380D01*
X98305857Y-116927380D02*
X98972523Y-116927380D01*
X98543952Y-117927380D01*
X130516333Y-117197142D02*
X130468714Y-117244761D01*
X130325857Y-117292380D01*
X130230619Y-117292380D01*
X130087761Y-117244761D01*
X129992523Y-117149523D01*
X129944904Y-117054285D01*
X129897285Y-116863809D01*
X129897285Y-116720952D01*
X129944904Y-116530476D01*
X129992523Y-116435238D01*
X130087761Y-116340000D01*
X130230619Y-116292380D01*
X130325857Y-116292380D01*
X130468714Y-116340000D01*
X130516333Y-116387619D01*
X130897285Y-116387619D02*
X130944904Y-116340000D01*
X131040142Y-116292380D01*
X131278238Y-116292380D01*
X131373476Y-116340000D01*
X131421095Y-116387619D01*
X131468714Y-116482857D01*
X131468714Y-116578095D01*
X131421095Y-116720952D01*
X130849666Y-117292380D01*
X131468714Y-117292380D01*
X130516333Y-114022142D02*
X130468714Y-114069761D01*
X130325857Y-114117380D01*
X130230619Y-114117380D01*
X130087761Y-114069761D01*
X129992523Y-113974523D01*
X129944904Y-113879285D01*
X129897285Y-113688809D01*
X129897285Y-113545952D01*
X129944904Y-113355476D01*
X129992523Y-113260238D01*
X130087761Y-113165000D01*
X130230619Y-113117380D01*
X130325857Y-113117380D01*
X130468714Y-113165000D01*
X130516333Y-113212619D01*
X131468714Y-114117380D02*
X130897285Y-114117380D01*
X131183000Y-114117380D02*
X131183000Y-113117380D01*
X131087761Y-113260238D01*
X130992523Y-113355476D01*
X130897285Y-113403095D01*
X159789904Y-126817380D02*
X159789904Y-125817380D01*
X160170857Y-125817380D01*
X160266095Y-125865000D01*
X160313714Y-125912619D01*
X160361333Y-126007857D01*
X160361333Y-126150714D01*
X160313714Y-126245952D01*
X160266095Y-126293571D01*
X160170857Y-126341190D01*
X159789904Y-126341190D01*
X160742285Y-125912619D02*
X160789904Y-125865000D01*
X160885142Y-125817380D01*
X161123238Y-125817380D01*
X161218476Y-125865000D01*
X161266095Y-125912619D01*
X161313714Y-126007857D01*
X161313714Y-126103095D01*
X161266095Y-126245952D01*
X160694666Y-126817380D01*
X161313714Y-126817380D01*
X136929904Y-126817380D02*
X136929904Y-125817380D01*
X137310857Y-125817380D01*
X137406095Y-125865000D01*
X137453714Y-125912619D01*
X137501333Y-126007857D01*
X137501333Y-126150714D01*
X137453714Y-126245952D01*
X137406095Y-126293571D01*
X137310857Y-126341190D01*
X136929904Y-126341190D01*
X138453714Y-126817380D02*
X137882285Y-126817380D01*
X138168000Y-126817380D02*
X138168000Y-125817380D01*
X138072761Y-125960238D01*
X137977523Y-126055476D01*
X137882285Y-126103095D01*
X155344904Y-73477380D02*
X155344904Y-72477380D01*
X155725857Y-72477380D01*
X155821095Y-72525000D01*
X155868714Y-72572619D01*
X155916333Y-72667857D01*
X155916333Y-72810714D01*
X155868714Y-72905952D01*
X155821095Y-72953571D01*
X155725857Y-73001190D01*
X155344904Y-73001190D01*
X156773476Y-72810714D02*
X156773476Y-73477380D01*
X156535380Y-72429761D02*
X156297285Y-73144047D01*
X156916333Y-73144047D01*
X127404904Y-73477380D02*
X127404904Y-72477380D01*
X127785857Y-72477380D01*
X127881095Y-72525000D01*
X127928714Y-72572619D01*
X127976333Y-72667857D01*
X127976333Y-72810714D01*
X127928714Y-72905952D01*
X127881095Y-72953571D01*
X127785857Y-73001190D01*
X127404904Y-73001190D01*
X128309666Y-72477380D02*
X128928714Y-72477380D01*
X128595380Y-72858333D01*
X128738238Y-72858333D01*
X128833476Y-72905952D01*
X128881095Y-72953571D01*
X128928714Y-73048809D01*
X128928714Y-73286904D01*
X128881095Y-73382142D01*
X128833476Y-73429761D01*
X128738238Y-73477380D01*
X128452523Y-73477380D01*
X128357285Y-73429761D01*
X128309666Y-73382142D01*
X98259904Y-90997380D02*
X98259904Y-89997380D01*
X98498000Y-89997380D01*
X98640857Y-90045000D01*
X98736095Y-90140238D01*
X98783714Y-90235476D01*
X98831333Y-90425952D01*
X98831333Y-90568809D01*
X98783714Y-90759285D01*
X98736095Y-90854523D01*
X98640857Y-90949761D01*
X98498000Y-90997380D01*
X98259904Y-90997380D01*
X99212285Y-90092619D02*
X99259904Y-90045000D01*
X99355142Y-89997380D01*
X99593238Y-89997380D01*
X99688476Y-90045000D01*
X99736095Y-90092619D01*
X99783714Y-90187857D01*
X99783714Y-90283095D01*
X99736095Y-90425952D01*
X99164666Y-90997380D01*
X99783714Y-90997380D01*
X117244904Y-109672380D02*
X117244904Y-108672380D01*
X117483000Y-108672380D01*
X117625857Y-108720000D01*
X117721095Y-108815238D01*
X117768714Y-108910476D01*
X117816333Y-109100952D01*
X117816333Y-109243809D01*
X117768714Y-109434285D01*
X117721095Y-109529523D01*
X117625857Y-109624761D01*
X117483000Y-109672380D01*
X117244904Y-109672380D01*
X118768714Y-109672380D02*
X118197285Y-109672380D01*
X118483000Y-109672380D02*
X118483000Y-108672380D01*
X118387761Y-108815238D01*
X118292523Y-108910476D01*
X118197285Y-108958095D01*
X156236095Y-84637380D02*
X156236095Y-85446904D01*
X156283714Y-85542142D01*
X156331333Y-85589761D01*
X156426571Y-85637380D01*
X156617047Y-85637380D01*
X156712285Y-85589761D01*
X156759904Y-85542142D01*
X156807523Y-85446904D01*
X156807523Y-84637380D01*
X157236095Y-84732619D02*
X157283714Y-84685000D01*
X157378952Y-84637380D01*
X157617047Y-84637380D01*
X157712285Y-84685000D01*
X157759904Y-84732619D01*
X157807523Y-84827857D01*
X157807523Y-84923095D01*
X157759904Y-85065952D01*
X157188476Y-85637380D01*
X157807523Y-85637380D01*
X126690380Y-103671666D02*
X126214190Y-104005000D01*
X126690380Y-104243095D02*
X125690380Y-104243095D01*
X125690380Y-103862142D01*
X125738000Y-103766904D01*
X125785619Y-103719285D01*
X125880857Y-103671666D01*
X126023714Y-103671666D01*
X126118952Y-103719285D01*
X126166571Y-103766904D01*
X126214190Y-103862142D01*
X126214190Y-104243095D01*
X126690380Y-103195476D02*
X126690380Y-103005000D01*
X126642761Y-102909761D01*
X126595142Y-102862142D01*
X126452285Y-102766904D01*
X126261809Y-102719285D01*
X125880857Y-102719285D01*
X125785619Y-102766904D01*
X125738000Y-102814523D01*
X125690380Y-102909761D01*
X125690380Y-103100238D01*
X125738000Y-103195476D01*
X125785619Y-103243095D01*
X125880857Y-103290714D01*
X126118952Y-103290714D01*
X126214190Y-103243095D01*
X126261809Y-103195476D01*
X126309428Y-103100238D01*
X126309428Y-102909761D01*
X126261809Y-102814523D01*
X126214190Y-102766904D01*
X126118952Y-102719285D01*
X141930380Y-101639666D02*
X141454190Y-101973000D01*
X141930380Y-102211095D02*
X140930380Y-102211095D01*
X140930380Y-101830142D01*
X140978000Y-101734904D01*
X141025619Y-101687285D01*
X141120857Y-101639666D01*
X141263714Y-101639666D01*
X141358952Y-101687285D01*
X141406571Y-101734904D01*
X141454190Y-101830142D01*
X141454190Y-102211095D01*
X141263714Y-100782523D02*
X141930380Y-100782523D01*
X140882761Y-101020619D02*
X141597047Y-101258714D01*
X141597047Y-100639666D01*
X133770380Y-81531666D02*
X133294190Y-81865000D01*
X133770380Y-82103095D02*
X132770380Y-82103095D01*
X132770380Y-81722142D01*
X132818000Y-81626904D01*
X132865619Y-81579285D01*
X132960857Y-81531666D01*
X133103714Y-81531666D01*
X133198952Y-81579285D01*
X133246571Y-81626904D01*
X133294190Y-81722142D01*
X133294190Y-82103095D01*
X132770380Y-80626904D02*
X132770380Y-81103095D01*
X133246571Y-81150714D01*
X133198952Y-81103095D01*
X133151333Y-81007857D01*
X133151333Y-80769761D01*
X133198952Y-80674523D01*
X133246571Y-80626904D01*
X133341809Y-80579285D01*
X133579904Y-80579285D01*
X133675142Y-80626904D01*
X133722761Y-80674523D01*
X133770380Y-80769761D01*
X133770380Y-81007857D01*
X133722761Y-81103095D01*
X133675142Y-81150714D01*
X128770380Y-84031666D02*
X128294190Y-84365000D01*
X128770380Y-84603095D02*
X127770380Y-84603095D01*
X127770380Y-84222142D01*
X127818000Y-84126904D01*
X127865619Y-84079285D01*
X127960857Y-84031666D01*
X128103714Y-84031666D01*
X128198952Y-84079285D01*
X128246571Y-84126904D01*
X128294190Y-84222142D01*
X128294190Y-84603095D01*
X127770380Y-83174523D02*
X127770380Y-83365000D01*
X127818000Y-83460238D01*
X127865619Y-83507857D01*
X128008476Y-83603095D01*
X128198952Y-83650714D01*
X128579904Y-83650714D01*
X128675142Y-83603095D01*
X128722761Y-83555476D01*
X128770380Y-83460238D01*
X128770380Y-83269761D01*
X128722761Y-83174523D01*
X128675142Y-83126904D01*
X128579904Y-83079285D01*
X128341809Y-83079285D01*
X128246571Y-83126904D01*
X128198952Y-83174523D01*
X128151333Y-83269761D01*
X128151333Y-83460238D01*
X128198952Y-83555476D01*
X128246571Y-83603095D01*
X128341809Y-83650714D01*
X177887333Y-111069380D02*
X177554000Y-110593190D01*
X177315904Y-111069380D02*
X177315904Y-110069380D01*
X177696857Y-110069380D01*
X177792095Y-110117000D01*
X177839714Y-110164619D01*
X177887333Y-110259857D01*
X177887333Y-110402714D01*
X177839714Y-110497952D01*
X177792095Y-110545571D01*
X177696857Y-110593190D01*
X177315904Y-110593190D01*
X178458761Y-110497952D02*
X178363523Y-110450333D01*
X178315904Y-110402714D01*
X178268285Y-110307476D01*
X178268285Y-110259857D01*
X178315904Y-110164619D01*
X178363523Y-110117000D01*
X178458761Y-110069380D01*
X178649238Y-110069380D01*
X178744476Y-110117000D01*
X178792095Y-110164619D01*
X178839714Y-110259857D01*
X178839714Y-110307476D01*
X178792095Y-110402714D01*
X178744476Y-110450333D01*
X178649238Y-110497952D01*
X178458761Y-110497952D01*
X178363523Y-110545571D01*
X178315904Y-110593190D01*
X178268285Y-110688428D01*
X178268285Y-110878904D01*
X178315904Y-110974142D01*
X178363523Y-111021761D01*
X178458761Y-111069380D01*
X178649238Y-111069380D01*
X178744476Y-111021761D01*
X178792095Y-110974142D01*
X178839714Y-110878904D01*
X178839714Y-110688428D01*
X178792095Y-110593190D01*
X178744476Y-110545571D01*
X178649238Y-110497952D01*
X119245142Y-105227380D02*
X118911809Y-104751190D01*
X118673714Y-105227380D02*
X118673714Y-104227380D01*
X119054666Y-104227380D01*
X119149904Y-104275000D01*
X119197523Y-104322619D01*
X119245142Y-104417857D01*
X119245142Y-104560714D01*
X119197523Y-104655952D01*
X119149904Y-104703571D01*
X119054666Y-104751190D01*
X118673714Y-104751190D01*
X120197523Y-105227380D02*
X119626095Y-105227380D01*
X119911809Y-105227380D02*
X119911809Y-104227380D01*
X119816571Y-104370238D01*
X119721333Y-104465476D01*
X119626095Y-104513095D01*
X120816571Y-104227380D02*
X120911809Y-104227380D01*
X121007047Y-104275000D01*
X121054666Y-104322619D01*
X121102285Y-104417857D01*
X121149904Y-104608333D01*
X121149904Y-104846428D01*
X121102285Y-105036904D01*
X121054666Y-105132142D01*
X121007047Y-105179761D01*
X120911809Y-105227380D01*
X120816571Y-105227380D01*
X120721333Y-105179761D01*
X120673714Y-105132142D01*
X120626095Y-105036904D01*
X120578476Y-104846428D01*
X120578476Y-104608333D01*
X120626095Y-104417857D01*
X120673714Y-104322619D01*
X120721333Y-104275000D01*
X120816571Y-104227380D01*
X152011142Y-79573380D02*
X151677809Y-79097190D01*
X151439714Y-79573380D02*
X151439714Y-78573380D01*
X151820666Y-78573380D01*
X151915904Y-78621000D01*
X151963523Y-78668619D01*
X152011142Y-78763857D01*
X152011142Y-78906714D01*
X151963523Y-79001952D01*
X151915904Y-79049571D01*
X151820666Y-79097190D01*
X151439714Y-79097190D01*
X152963523Y-79573380D02*
X152392095Y-79573380D01*
X152677809Y-79573380D02*
X152677809Y-78573380D01*
X152582571Y-78716238D01*
X152487333Y-78811476D01*
X152392095Y-78859095D01*
X153915904Y-79573380D02*
X153344476Y-79573380D01*
X153630190Y-79573380D02*
X153630190Y-78573380D01*
X153534952Y-78716238D01*
X153439714Y-78811476D01*
X153344476Y-78859095D01*
X152741333Y-120467380D02*
X152408000Y-119991190D01*
X152169904Y-120467380D02*
X152169904Y-119467380D01*
X152550857Y-119467380D01*
X152646095Y-119515000D01*
X152693714Y-119562619D01*
X152741333Y-119657857D01*
X152741333Y-119800714D01*
X152693714Y-119895952D01*
X152646095Y-119943571D01*
X152550857Y-119991190D01*
X152169904Y-119991190D01*
X153074666Y-119467380D02*
X153741333Y-119467380D01*
X153312761Y-120467380D01*
X114130380Y-102007857D02*
X113654190Y-102341190D01*
X114130380Y-102579285D02*
X113130380Y-102579285D01*
X113130380Y-102198333D01*
X113178000Y-102103095D01*
X113225619Y-102055476D01*
X113320857Y-102007857D01*
X113463714Y-102007857D01*
X113558952Y-102055476D01*
X113606571Y-102103095D01*
X113654190Y-102198333D01*
X113654190Y-102579285D01*
X114130380Y-101055476D02*
X114130380Y-101626904D01*
X114130380Y-101341190D02*
X113130380Y-101341190D01*
X113273238Y-101436428D01*
X113368476Y-101531666D01*
X113416095Y-101626904D01*
X113225619Y-100674523D02*
X113178000Y-100626904D01*
X113130380Y-100531666D01*
X113130380Y-100293571D01*
X113178000Y-100198333D01*
X113225619Y-100150714D01*
X113320857Y-100103095D01*
X113416095Y-100103095D01*
X113558952Y-100150714D01*
X114130380Y-100722142D01*
X114130380Y-100103095D01*
X137279142Y-78557380D02*
X136945809Y-78081190D01*
X136707714Y-78557380D02*
X136707714Y-77557380D01*
X137088666Y-77557380D01*
X137183904Y-77605000D01*
X137231523Y-77652619D01*
X137279142Y-77747857D01*
X137279142Y-77890714D01*
X137231523Y-77985952D01*
X137183904Y-78033571D01*
X137088666Y-78081190D01*
X136707714Y-78081190D01*
X138231523Y-78557380D02*
X137660095Y-78557380D01*
X137945809Y-78557380D02*
X137945809Y-77557380D01*
X137850571Y-77700238D01*
X137755333Y-77795476D01*
X137660095Y-77843095D01*
X138564857Y-77557380D02*
X139183904Y-77557380D01*
X138850571Y-77938333D01*
X138993428Y-77938333D01*
X139088666Y-77985952D01*
X139136285Y-78033571D01*
X139183904Y-78128809D01*
X139183904Y-78366904D01*
X139136285Y-78462142D01*
X139088666Y-78509761D01*
X138993428Y-78557380D01*
X138707714Y-78557380D01*
X138612476Y-78509761D01*
X138564857Y-78462142D01*
X98855142Y-86497380D02*
X98521809Y-86021190D01*
X98283714Y-86497380D02*
X98283714Y-85497380D01*
X98664666Y-85497380D01*
X98759904Y-85545000D01*
X98807523Y-85592619D01*
X98855142Y-85687857D01*
X98855142Y-85830714D01*
X98807523Y-85925952D01*
X98759904Y-85973571D01*
X98664666Y-86021190D01*
X98283714Y-86021190D01*
X99807523Y-86497380D02*
X99236095Y-86497380D01*
X99521809Y-86497380D02*
X99521809Y-85497380D01*
X99426571Y-85640238D01*
X99331333Y-85735476D01*
X99236095Y-85783095D01*
X100664666Y-85830714D02*
X100664666Y-86497380D01*
X100426571Y-85449761D02*
X100188476Y-86164047D01*
X100807523Y-86164047D01*
X141930380Y-98591666D02*
X141454190Y-98925000D01*
X141930380Y-99163095D02*
X140930380Y-99163095D01*
X140930380Y-98782142D01*
X140978000Y-98686904D01*
X141025619Y-98639285D01*
X141120857Y-98591666D01*
X141263714Y-98591666D01*
X141358952Y-98639285D01*
X141406571Y-98686904D01*
X141454190Y-98782142D01*
X141454190Y-99163095D01*
X140930380Y-98258333D02*
X140930380Y-97639285D01*
X141311333Y-97972619D01*
X141311333Y-97829761D01*
X141358952Y-97734523D01*
X141406571Y-97686904D01*
X141501809Y-97639285D01*
X141739904Y-97639285D01*
X141835142Y-97686904D01*
X141882761Y-97734523D01*
X141930380Y-97829761D01*
X141930380Y-98115476D01*
X141882761Y-98210714D01*
X141835142Y-98258333D01*
X106831333Y-84097380D02*
X106498000Y-83621190D01*
X106259904Y-84097380D02*
X106259904Y-83097380D01*
X106640857Y-83097380D01*
X106736095Y-83145000D01*
X106783714Y-83192619D01*
X106831333Y-83287857D01*
X106831333Y-83430714D01*
X106783714Y-83525952D01*
X106736095Y-83573571D01*
X106640857Y-83621190D01*
X106259904Y-83621190D01*
X107212285Y-83192619D02*
X107259904Y-83145000D01*
X107355142Y-83097380D01*
X107593238Y-83097380D01*
X107688476Y-83145000D01*
X107736095Y-83192619D01*
X107783714Y-83287857D01*
X107783714Y-83383095D01*
X107736095Y-83525952D01*
X107164666Y-84097380D01*
X107783714Y-84097380D01*
X131786333Y-109037380D02*
X131453000Y-108561190D01*
X131214904Y-109037380D02*
X131214904Y-108037380D01*
X131595857Y-108037380D01*
X131691095Y-108085000D01*
X131738714Y-108132619D01*
X131786333Y-108227857D01*
X131786333Y-108370714D01*
X131738714Y-108465952D01*
X131691095Y-108513571D01*
X131595857Y-108561190D01*
X131214904Y-108561190D01*
X132738714Y-109037380D02*
X132167285Y-109037380D01*
X132453000Y-109037380D02*
X132453000Y-108037380D01*
X132357761Y-108180238D01*
X132262523Y-108275476D01*
X132167285Y-108323095D01*
X119093238Y-121819380D02*
X119331333Y-122819380D01*
X119521809Y-122105095D01*
X119712285Y-122819380D01*
X119950380Y-121819380D01*
X120855142Y-122819380D02*
X120283714Y-122819380D01*
X120569428Y-122819380D02*
X120569428Y-121819380D01*
X120474190Y-121962238D01*
X120378952Y-122057476D01*
X120283714Y-122105095D01*
M02*
