%TF.GenerationSoftware,KiCad,Pcbnew,5.0.2+dfsg1-1*%
%TF.CreationDate,2020-05-23T15:41:05+02:00*%
%TF.ProjectId,stduinof429,73746475-696e-46f6-9634-32392e6b6963,rev?*%
%TF.SameCoordinates,Original*%
%TF.FileFunction,Soldermask,Bot*%
%TF.FilePolarity,Negative*%
%FSLAX46Y46*%
G04 Gerber Fmt 4.6, Leading zero omitted, Abs format (unit mm)*
G04 Created by KiCad (PCBNEW 5.0.2+dfsg1-1) date Sat 23 May 2020 03:41:05 PM CEST*
%MOMM*%
%LPD*%
G01*
G04 APERTURE LIST*
%ADD10C,0.100000*%
G04 APERTURE END LIST*
D10*
G36*
X125551378Y-122409859D02*
X125915354Y-122560622D01*
X126242929Y-122779501D01*
X126521499Y-123058071D01*
X126740378Y-123385646D01*
X126891141Y-123749622D01*
X126968000Y-124136016D01*
X126968000Y-124529984D01*
X126891141Y-124916378D01*
X126740378Y-125280354D01*
X126521499Y-125607929D01*
X126242929Y-125886499D01*
X125915354Y-126105378D01*
X125551378Y-126256141D01*
X125164984Y-126333000D01*
X124771016Y-126333000D01*
X124384622Y-126256141D01*
X124020646Y-126105378D01*
X123693071Y-125886499D01*
X123414501Y-125607929D01*
X123195622Y-125280354D01*
X123044859Y-124916378D01*
X122968000Y-124529984D01*
X122968000Y-124136016D01*
X123044859Y-123749622D01*
X123195622Y-123385646D01*
X123414501Y-123058071D01*
X123693071Y-122779501D01*
X124020646Y-122560622D01*
X124384622Y-122409859D01*
X124771016Y-122333000D01*
X125164984Y-122333000D01*
X125551378Y-122409859D01*
X125551378Y-122409859D01*
G37*
G36*
X98595114Y-124734694D02*
X98689367Y-124763285D01*
X98730163Y-124785091D01*
X98776229Y-124809714D01*
X98852364Y-124872196D01*
X98852365Y-124872198D01*
X98852367Y-124872199D01*
X98888623Y-124916378D01*
X98914846Y-124948331D01*
X98936457Y-124988763D01*
X98961275Y-125035192D01*
X98989866Y-125129445D01*
X98997100Y-125202896D01*
X98997100Y-125802024D01*
X98989866Y-125875475D01*
X98961275Y-125969728D01*
X98936457Y-126016157D01*
X98914846Y-126056589D01*
X98852364Y-126132724D01*
X98776229Y-126195206D01*
X98735797Y-126216817D01*
X98689368Y-126241635D01*
X98595115Y-126270226D01*
X98497100Y-126279879D01*
X98399086Y-126270226D01*
X98304833Y-126241635D01*
X98258404Y-126216817D01*
X98217972Y-126195206D01*
X98141837Y-126132724D01*
X98079355Y-126056589D01*
X98065489Y-126030648D01*
X98032924Y-125969725D01*
X98004334Y-125875475D01*
X97997100Y-125802024D01*
X97997100Y-125202897D01*
X98004334Y-125129446D01*
X98032925Y-125035193D01*
X98054731Y-124994397D01*
X98079354Y-124948331D01*
X98141836Y-124872196D01*
X98141838Y-124872195D01*
X98141839Y-124872193D01*
X98217970Y-124809715D01*
X98217969Y-124809715D01*
X98217971Y-124809714D01*
X98258403Y-124788103D01*
X98304832Y-124763285D01*
X98399085Y-124734694D01*
X98497100Y-124725041D01*
X98595114Y-124734694D01*
X98595114Y-124734694D01*
G37*
G36*
X105595114Y-124734694D02*
X105689367Y-124763285D01*
X105730163Y-124785091D01*
X105776229Y-124809714D01*
X105852364Y-124872196D01*
X105852365Y-124872198D01*
X105852367Y-124872199D01*
X105888623Y-124916378D01*
X105914846Y-124948331D01*
X105936457Y-124988763D01*
X105961275Y-125035192D01*
X105989866Y-125129445D01*
X105997100Y-125202896D01*
X105997100Y-125802024D01*
X105989866Y-125875475D01*
X105961275Y-125969728D01*
X105936457Y-126016157D01*
X105914846Y-126056589D01*
X105852364Y-126132724D01*
X105776229Y-126195206D01*
X105735797Y-126216817D01*
X105689368Y-126241635D01*
X105595115Y-126270226D01*
X105497100Y-126279879D01*
X105399086Y-126270226D01*
X105304833Y-126241635D01*
X105258404Y-126216817D01*
X105217972Y-126195206D01*
X105141837Y-126132724D01*
X105079355Y-126056589D01*
X105065489Y-126030648D01*
X105032924Y-125969725D01*
X105004334Y-125875475D01*
X104997100Y-125802024D01*
X104997100Y-125202897D01*
X105004334Y-125129446D01*
X105032925Y-125035193D01*
X105054731Y-124994397D01*
X105079354Y-124948331D01*
X105141836Y-124872196D01*
X105141838Y-124872195D01*
X105141839Y-124872193D01*
X105217970Y-124809715D01*
X105217969Y-124809715D01*
X105217971Y-124809714D01*
X105258403Y-124788103D01*
X105304832Y-124763285D01*
X105399085Y-124734694D01*
X105497100Y-124725041D01*
X105595114Y-124734694D01*
X105595114Y-124734694D01*
G37*
G36*
X149264630Y-122987299D02*
X149424855Y-123035903D01*
X149572520Y-123114831D01*
X149701949Y-123221051D01*
X149808169Y-123350480D01*
X149887097Y-123498145D01*
X149935701Y-123658370D01*
X149952112Y-123825000D01*
X149935701Y-123991630D01*
X149887097Y-124151855D01*
X149808169Y-124299520D01*
X149701949Y-124428949D01*
X149572520Y-124535169D01*
X149424855Y-124614097D01*
X149264630Y-124662701D01*
X149139752Y-124675000D01*
X149056248Y-124675000D01*
X148931370Y-124662701D01*
X148771145Y-124614097D01*
X148623480Y-124535169D01*
X148494051Y-124428949D01*
X148387831Y-124299520D01*
X148308903Y-124151855D01*
X148260299Y-123991630D01*
X148243888Y-123825000D01*
X148260299Y-123658370D01*
X148308903Y-123498145D01*
X148387831Y-123350480D01*
X148494051Y-123221051D01*
X148623480Y-123114831D01*
X148771145Y-123035903D01*
X148931370Y-122987299D01*
X149056248Y-122975000D01*
X149139752Y-122975000D01*
X149264630Y-122987299D01*
X149264630Y-122987299D01*
G37*
G36*
X162648000Y-124675000D02*
X160948000Y-124675000D01*
X160948000Y-122975000D01*
X162648000Y-122975000D01*
X162648000Y-124675000D01*
X162648000Y-124675000D01*
G37*
G36*
X139788000Y-124675000D02*
X138088000Y-124675000D01*
X138088000Y-122975000D01*
X139788000Y-122975000D01*
X139788000Y-124675000D01*
X139788000Y-124675000D01*
G37*
G36*
X141644630Y-122987299D02*
X141804855Y-123035903D01*
X141952520Y-123114831D01*
X142081949Y-123221051D01*
X142188169Y-123350480D01*
X142267097Y-123498145D01*
X142315701Y-123658370D01*
X142332112Y-123825000D01*
X142315701Y-123991630D01*
X142267097Y-124151855D01*
X142188169Y-124299520D01*
X142081949Y-124428949D01*
X141952520Y-124535169D01*
X141804855Y-124614097D01*
X141644630Y-124662701D01*
X141519752Y-124675000D01*
X141436248Y-124675000D01*
X141311370Y-124662701D01*
X141151145Y-124614097D01*
X141003480Y-124535169D01*
X140874051Y-124428949D01*
X140767831Y-124299520D01*
X140688903Y-124151855D01*
X140640299Y-123991630D01*
X140623888Y-123825000D01*
X140640299Y-123658370D01*
X140688903Y-123498145D01*
X140767831Y-123350480D01*
X140874051Y-123221051D01*
X141003480Y-123114831D01*
X141151145Y-123035903D01*
X141311370Y-122987299D01*
X141436248Y-122975000D01*
X141519752Y-122975000D01*
X141644630Y-122987299D01*
X141644630Y-122987299D01*
G37*
G36*
X144184630Y-122987299D02*
X144344855Y-123035903D01*
X144492520Y-123114831D01*
X144621949Y-123221051D01*
X144728169Y-123350480D01*
X144807097Y-123498145D01*
X144855701Y-123658370D01*
X144872112Y-123825000D01*
X144855701Y-123991630D01*
X144807097Y-124151855D01*
X144728169Y-124299520D01*
X144621949Y-124428949D01*
X144492520Y-124535169D01*
X144344855Y-124614097D01*
X144184630Y-124662701D01*
X144059752Y-124675000D01*
X143976248Y-124675000D01*
X143851370Y-124662701D01*
X143691145Y-124614097D01*
X143543480Y-124535169D01*
X143414051Y-124428949D01*
X143307831Y-124299520D01*
X143228903Y-124151855D01*
X143180299Y-123991630D01*
X143163888Y-123825000D01*
X143180299Y-123658370D01*
X143228903Y-123498145D01*
X143307831Y-123350480D01*
X143414051Y-123221051D01*
X143543480Y-123114831D01*
X143691145Y-123035903D01*
X143851370Y-122987299D01*
X143976248Y-122975000D01*
X144059752Y-122975000D01*
X144184630Y-122987299D01*
X144184630Y-122987299D01*
G37*
G36*
X146724630Y-122987299D02*
X146884855Y-123035903D01*
X147032520Y-123114831D01*
X147161949Y-123221051D01*
X147268169Y-123350480D01*
X147347097Y-123498145D01*
X147395701Y-123658370D01*
X147412112Y-123825000D01*
X147395701Y-123991630D01*
X147347097Y-124151855D01*
X147268169Y-124299520D01*
X147161949Y-124428949D01*
X147032520Y-124535169D01*
X146884855Y-124614097D01*
X146724630Y-124662701D01*
X146599752Y-124675000D01*
X146516248Y-124675000D01*
X146391370Y-124662701D01*
X146231145Y-124614097D01*
X146083480Y-124535169D01*
X145954051Y-124428949D01*
X145847831Y-124299520D01*
X145768903Y-124151855D01*
X145720299Y-123991630D01*
X145703888Y-123825000D01*
X145720299Y-123658370D01*
X145768903Y-123498145D01*
X145847831Y-123350480D01*
X145954051Y-123221051D01*
X146083480Y-123114831D01*
X146231145Y-123035903D01*
X146391370Y-122987299D01*
X146516248Y-122975000D01*
X146599752Y-122975000D01*
X146724630Y-122987299D01*
X146724630Y-122987299D01*
G37*
G36*
X151804630Y-122987299D02*
X151964855Y-123035903D01*
X152112520Y-123114831D01*
X152241949Y-123221051D01*
X152348169Y-123350480D01*
X152427097Y-123498145D01*
X152475701Y-123658370D01*
X152492112Y-123825000D01*
X152475701Y-123991630D01*
X152427097Y-124151855D01*
X152348169Y-124299520D01*
X152241949Y-124428949D01*
X152112520Y-124535169D01*
X151964855Y-124614097D01*
X151804630Y-124662701D01*
X151679752Y-124675000D01*
X151596248Y-124675000D01*
X151471370Y-124662701D01*
X151311145Y-124614097D01*
X151163480Y-124535169D01*
X151034051Y-124428949D01*
X150927831Y-124299520D01*
X150848903Y-124151855D01*
X150800299Y-123991630D01*
X150783888Y-123825000D01*
X150800299Y-123658370D01*
X150848903Y-123498145D01*
X150927831Y-123350480D01*
X151034051Y-123221051D01*
X151163480Y-123114831D01*
X151311145Y-123035903D01*
X151471370Y-122987299D01*
X151596248Y-122975000D01*
X151679752Y-122975000D01*
X151804630Y-122987299D01*
X151804630Y-122987299D01*
G37*
G36*
X156884630Y-122987299D02*
X157044855Y-123035903D01*
X157192520Y-123114831D01*
X157321949Y-123221051D01*
X157428169Y-123350480D01*
X157507097Y-123498145D01*
X157555701Y-123658370D01*
X157572112Y-123825000D01*
X157555701Y-123991630D01*
X157507097Y-124151855D01*
X157428169Y-124299520D01*
X157321949Y-124428949D01*
X157192520Y-124535169D01*
X157044855Y-124614097D01*
X156884630Y-124662701D01*
X156759752Y-124675000D01*
X156676248Y-124675000D01*
X156551370Y-124662701D01*
X156391145Y-124614097D01*
X156243480Y-124535169D01*
X156114051Y-124428949D01*
X156007831Y-124299520D01*
X155928903Y-124151855D01*
X155880299Y-123991630D01*
X155863888Y-123825000D01*
X155880299Y-123658370D01*
X155928903Y-123498145D01*
X156007831Y-123350480D01*
X156114051Y-123221051D01*
X156243480Y-123114831D01*
X156391145Y-123035903D01*
X156551370Y-122987299D01*
X156676248Y-122975000D01*
X156759752Y-122975000D01*
X156884630Y-122987299D01*
X156884630Y-122987299D01*
G37*
G36*
X154344630Y-122987299D02*
X154504855Y-123035903D01*
X154652520Y-123114831D01*
X154781949Y-123221051D01*
X154888169Y-123350480D01*
X154967097Y-123498145D01*
X155015701Y-123658370D01*
X155032112Y-123825000D01*
X155015701Y-123991630D01*
X154967097Y-124151855D01*
X154888169Y-124299520D01*
X154781949Y-124428949D01*
X154652520Y-124535169D01*
X154504855Y-124614097D01*
X154344630Y-124662701D01*
X154219752Y-124675000D01*
X154136248Y-124675000D01*
X154011370Y-124662701D01*
X153851145Y-124614097D01*
X153703480Y-124535169D01*
X153574051Y-124428949D01*
X153467831Y-124299520D01*
X153388903Y-124151855D01*
X153340299Y-123991630D01*
X153323888Y-123825000D01*
X153340299Y-123658370D01*
X153388903Y-123498145D01*
X153467831Y-123350480D01*
X153574051Y-123221051D01*
X153703480Y-123114831D01*
X153851145Y-123035903D01*
X154011370Y-122987299D01*
X154136248Y-122975000D01*
X154219752Y-122975000D01*
X154344630Y-122987299D01*
X154344630Y-122987299D01*
G37*
G36*
X164504630Y-122987299D02*
X164664855Y-123035903D01*
X164812520Y-123114831D01*
X164941949Y-123221051D01*
X165048169Y-123350480D01*
X165127097Y-123498145D01*
X165175701Y-123658370D01*
X165192112Y-123825000D01*
X165175701Y-123991630D01*
X165127097Y-124151855D01*
X165048169Y-124299520D01*
X164941949Y-124428949D01*
X164812520Y-124535169D01*
X164664855Y-124614097D01*
X164504630Y-124662701D01*
X164379752Y-124675000D01*
X164296248Y-124675000D01*
X164171370Y-124662701D01*
X164011145Y-124614097D01*
X163863480Y-124535169D01*
X163734051Y-124428949D01*
X163627831Y-124299520D01*
X163548903Y-124151855D01*
X163500299Y-123991630D01*
X163483888Y-123825000D01*
X163500299Y-123658370D01*
X163548903Y-123498145D01*
X163627831Y-123350480D01*
X163734051Y-123221051D01*
X163863480Y-123114831D01*
X164011145Y-123035903D01*
X164171370Y-122987299D01*
X164296248Y-122975000D01*
X164379752Y-122975000D01*
X164504630Y-122987299D01*
X164504630Y-122987299D01*
G37*
G36*
X167044630Y-122987299D02*
X167204855Y-123035903D01*
X167352520Y-123114831D01*
X167481949Y-123221051D01*
X167588169Y-123350480D01*
X167667097Y-123498145D01*
X167715701Y-123658370D01*
X167732112Y-123825000D01*
X167715701Y-123991630D01*
X167667097Y-124151855D01*
X167588169Y-124299520D01*
X167481949Y-124428949D01*
X167352520Y-124535169D01*
X167204855Y-124614097D01*
X167044630Y-124662701D01*
X166919752Y-124675000D01*
X166836248Y-124675000D01*
X166711370Y-124662701D01*
X166551145Y-124614097D01*
X166403480Y-124535169D01*
X166274051Y-124428949D01*
X166167831Y-124299520D01*
X166088903Y-124151855D01*
X166040299Y-123991630D01*
X166023888Y-123825000D01*
X166040299Y-123658370D01*
X166088903Y-123498145D01*
X166167831Y-123350480D01*
X166274051Y-123221051D01*
X166403480Y-123114831D01*
X166551145Y-123035903D01*
X166711370Y-122987299D01*
X166836248Y-122975000D01*
X166919752Y-122975000D01*
X167044630Y-122987299D01*
X167044630Y-122987299D01*
G37*
G36*
X172124630Y-122987299D02*
X172284855Y-123035903D01*
X172432520Y-123114831D01*
X172561949Y-123221051D01*
X172668169Y-123350480D01*
X172747097Y-123498145D01*
X172795701Y-123658370D01*
X172812112Y-123825000D01*
X172795701Y-123991630D01*
X172747097Y-124151855D01*
X172668169Y-124299520D01*
X172561949Y-124428949D01*
X172432520Y-124535169D01*
X172284855Y-124614097D01*
X172124630Y-124662701D01*
X171999752Y-124675000D01*
X171916248Y-124675000D01*
X171791370Y-124662701D01*
X171631145Y-124614097D01*
X171483480Y-124535169D01*
X171354051Y-124428949D01*
X171247831Y-124299520D01*
X171168903Y-124151855D01*
X171120299Y-123991630D01*
X171103888Y-123825000D01*
X171120299Y-123658370D01*
X171168903Y-123498145D01*
X171247831Y-123350480D01*
X171354051Y-123221051D01*
X171483480Y-123114831D01*
X171631145Y-123035903D01*
X171791370Y-122987299D01*
X171916248Y-122975000D01*
X171999752Y-122975000D01*
X172124630Y-122987299D01*
X172124630Y-122987299D01*
G37*
G36*
X174664630Y-122987299D02*
X174824855Y-123035903D01*
X174972520Y-123114831D01*
X175101949Y-123221051D01*
X175208169Y-123350480D01*
X175287097Y-123498145D01*
X175335701Y-123658370D01*
X175352112Y-123825000D01*
X175335701Y-123991630D01*
X175287097Y-124151855D01*
X175208169Y-124299520D01*
X175101949Y-124428949D01*
X174972520Y-124535169D01*
X174824855Y-124614097D01*
X174664630Y-124662701D01*
X174539752Y-124675000D01*
X174456248Y-124675000D01*
X174331370Y-124662701D01*
X174171145Y-124614097D01*
X174023480Y-124535169D01*
X173894051Y-124428949D01*
X173787831Y-124299520D01*
X173708903Y-124151855D01*
X173660299Y-123991630D01*
X173643888Y-123825000D01*
X173660299Y-123658370D01*
X173708903Y-123498145D01*
X173787831Y-123350480D01*
X173894051Y-123221051D01*
X174023480Y-123114831D01*
X174171145Y-123035903D01*
X174331370Y-122987299D01*
X174456248Y-122975000D01*
X174539752Y-122975000D01*
X174664630Y-122987299D01*
X174664630Y-122987299D01*
G37*
G36*
X169584630Y-122987299D02*
X169744855Y-123035903D01*
X169892520Y-123114831D01*
X170021949Y-123221051D01*
X170128169Y-123350480D01*
X170207097Y-123498145D01*
X170255701Y-123658370D01*
X170272112Y-123825000D01*
X170255701Y-123991630D01*
X170207097Y-124151855D01*
X170128169Y-124299520D01*
X170021949Y-124428949D01*
X169892520Y-124535169D01*
X169744855Y-124614097D01*
X169584630Y-124662701D01*
X169459752Y-124675000D01*
X169376248Y-124675000D01*
X169251370Y-124662701D01*
X169091145Y-124614097D01*
X168943480Y-124535169D01*
X168814051Y-124428949D01*
X168707831Y-124299520D01*
X168628903Y-124151855D01*
X168580299Y-123991630D01*
X168563888Y-123825000D01*
X168580299Y-123658370D01*
X168628903Y-123498145D01*
X168707831Y-123350480D01*
X168814051Y-123221051D01*
X168943480Y-123114831D01*
X169091145Y-123035903D01*
X169251370Y-122987299D01*
X169376248Y-122975000D01*
X169459752Y-122975000D01*
X169584630Y-122987299D01*
X169584630Y-122987299D01*
G37*
G36*
X90276000Y-124257000D02*
X87276000Y-124257000D01*
X87276000Y-122733000D01*
X90276000Y-122733000D01*
X90276000Y-124257000D01*
X90276000Y-124257000D01*
G37*
G36*
X104705324Y-122330896D02*
X104740216Y-122334333D01*
X104792781Y-122350278D01*
X104829758Y-122361495D01*
X104912273Y-122405600D01*
X104984601Y-122464959D01*
X105043960Y-122537287D01*
X105088065Y-122619802D01*
X105115227Y-122709345D01*
X105124398Y-122802460D01*
X105115227Y-122895575D01*
X105088065Y-122985118D01*
X105043960Y-123067633D01*
X104984601Y-123139961D01*
X104912273Y-123199320D01*
X104829758Y-123243425D01*
X104792781Y-123254642D01*
X104740216Y-123270587D01*
X104705324Y-123274024D01*
X104670433Y-123277460D01*
X104323767Y-123277460D01*
X104288876Y-123274024D01*
X104253984Y-123270587D01*
X104201419Y-123254642D01*
X104164442Y-123243425D01*
X104081927Y-123199320D01*
X104009599Y-123139961D01*
X103950240Y-123067633D01*
X103906135Y-122985118D01*
X103878973Y-122895575D01*
X103869802Y-122802460D01*
X103878973Y-122709345D01*
X103906135Y-122619802D01*
X103950240Y-122537287D01*
X104009599Y-122464959D01*
X104081927Y-122405600D01*
X104164442Y-122361495D01*
X104201419Y-122350278D01*
X104253984Y-122334333D01*
X104288876Y-122330896D01*
X104323767Y-122327460D01*
X104670433Y-122327460D01*
X104705324Y-122330896D01*
X104705324Y-122330896D01*
G37*
G36*
X99705324Y-122330896D02*
X99740216Y-122334333D01*
X99792781Y-122350278D01*
X99829758Y-122361495D01*
X99912273Y-122405600D01*
X99984601Y-122464959D01*
X100043960Y-122537287D01*
X100088065Y-122619802D01*
X100115227Y-122709345D01*
X100124398Y-122802460D01*
X100115227Y-122895575D01*
X100088065Y-122985118D01*
X100043960Y-123067633D01*
X99984601Y-123139961D01*
X99912273Y-123199320D01*
X99829758Y-123243425D01*
X99792781Y-123254642D01*
X99740216Y-123270587D01*
X99705324Y-123274024D01*
X99670433Y-123277460D01*
X99323767Y-123277460D01*
X99288876Y-123274024D01*
X99253984Y-123270587D01*
X99201419Y-123254642D01*
X99164442Y-123243425D01*
X99081927Y-123199320D01*
X99009599Y-123139961D01*
X98950240Y-123067633D01*
X98906135Y-122985118D01*
X98878973Y-122895575D01*
X98869802Y-122802460D01*
X98878973Y-122709345D01*
X98906135Y-122619802D01*
X98950240Y-122537287D01*
X99009599Y-122464959D01*
X99081927Y-122405600D01*
X99164442Y-122361495D01*
X99201419Y-122350278D01*
X99253984Y-122334333D01*
X99288876Y-122330896D01*
X99323767Y-122327460D01*
X99670433Y-122327460D01*
X99705324Y-122330896D01*
X99705324Y-122330896D01*
G37*
G36*
X90276000Y-121717000D02*
X87276000Y-121717000D01*
X87276000Y-120193000D01*
X90276000Y-120193000D01*
X90276000Y-121717000D01*
X90276000Y-121717000D01*
G37*
G36*
X177621378Y-117329859D02*
X177985354Y-117480622D01*
X178312929Y-117699501D01*
X178591499Y-117978071D01*
X178810378Y-118305646D01*
X178961141Y-118669622D01*
X179038000Y-119056016D01*
X179038000Y-119449984D01*
X178961141Y-119836378D01*
X178810378Y-120200354D01*
X178591499Y-120527929D01*
X178312929Y-120806499D01*
X177985354Y-121025378D01*
X177621378Y-121176141D01*
X177234984Y-121253000D01*
X176841016Y-121253000D01*
X176454622Y-121176141D01*
X176090646Y-121025378D01*
X175763071Y-120806499D01*
X175484501Y-120527929D01*
X175265622Y-120200354D01*
X175114859Y-119836378D01*
X175038000Y-119449984D01*
X175038000Y-119056016D01*
X175114859Y-118669622D01*
X175265622Y-118305646D01*
X175484501Y-117978071D01*
X175763071Y-117699501D01*
X176090646Y-117480622D01*
X176454622Y-117329859D01*
X176841016Y-117253000D01*
X177234984Y-117253000D01*
X177621378Y-117329859D01*
X177621378Y-117329859D01*
G37*
G36*
X90276000Y-119177000D02*
X87276000Y-119177000D01*
X87276000Y-117653000D01*
X90276000Y-117653000D01*
X90276000Y-119177000D01*
X90276000Y-119177000D01*
G37*
G36*
X92074307Y-117812628D02*
X92128903Y-117835243D01*
X92178039Y-117868074D01*
X92219826Y-117909861D01*
X92252657Y-117958997D01*
X92275272Y-118013593D01*
X92286800Y-118071553D01*
X92286800Y-118130647D01*
X92275272Y-118188607D01*
X92252657Y-118243203D01*
X92219826Y-118292339D01*
X92178039Y-118334126D01*
X92128903Y-118366957D01*
X92074307Y-118389572D01*
X92016347Y-118401100D01*
X91957253Y-118401100D01*
X91899293Y-118389572D01*
X91844697Y-118366957D01*
X91795561Y-118334126D01*
X91753774Y-118292339D01*
X91720943Y-118243203D01*
X91698328Y-118188607D01*
X91686800Y-118130647D01*
X91686800Y-118071553D01*
X91698328Y-118013593D01*
X91720943Y-117958997D01*
X91753774Y-117909861D01*
X91795561Y-117868074D01*
X91844697Y-117835243D01*
X91899293Y-117812628D01*
X91957253Y-117801100D01*
X92016347Y-117801100D01*
X92074307Y-117812628D01*
X92074307Y-117812628D01*
G37*
G36*
X150603307Y-117359328D02*
X150657903Y-117381943D01*
X150707039Y-117414774D01*
X150748826Y-117456561D01*
X150781657Y-117505697D01*
X150804272Y-117560293D01*
X150815800Y-117618253D01*
X150815800Y-117677347D01*
X150804272Y-117735307D01*
X150781657Y-117789903D01*
X150748826Y-117839039D01*
X150707039Y-117880826D01*
X150657903Y-117913657D01*
X150603307Y-117936272D01*
X150545347Y-117947800D01*
X150486253Y-117947800D01*
X150428293Y-117936272D01*
X150373697Y-117913657D01*
X150324561Y-117880826D01*
X150282774Y-117839039D01*
X150249943Y-117789903D01*
X150227328Y-117735307D01*
X150215800Y-117677347D01*
X150215800Y-117618253D01*
X150227328Y-117560293D01*
X150249943Y-117505697D01*
X150282774Y-117456561D01*
X150324561Y-117414774D01*
X150373697Y-117381943D01*
X150428293Y-117359328D01*
X150486253Y-117347800D01*
X150545347Y-117347800D01*
X150603307Y-117359328D01*
X150603307Y-117359328D01*
G37*
G36*
X92447807Y-116612028D02*
X92502403Y-116634643D01*
X92551539Y-116667474D01*
X92593326Y-116709261D01*
X92626157Y-116758397D01*
X92648772Y-116812993D01*
X92660300Y-116870953D01*
X92660300Y-116930047D01*
X92648772Y-116988007D01*
X92626157Y-117042603D01*
X92593326Y-117091739D01*
X92551539Y-117133526D01*
X92502403Y-117166357D01*
X92447807Y-117188972D01*
X92389847Y-117200500D01*
X92330753Y-117200500D01*
X92272793Y-117188972D01*
X92218197Y-117166357D01*
X92169061Y-117133526D01*
X92127274Y-117091739D01*
X92094443Y-117042603D01*
X92071828Y-116988007D01*
X92060300Y-116930047D01*
X92060300Y-116870953D01*
X92071828Y-116812993D01*
X92094443Y-116758397D01*
X92127274Y-116709261D01*
X92169061Y-116667474D01*
X92218197Y-116634643D01*
X92272793Y-116612028D01*
X92330753Y-116600500D01*
X92389847Y-116600500D01*
X92447807Y-116612028D01*
X92447807Y-116612028D01*
G37*
G36*
X90276000Y-116637000D02*
X87276000Y-116637000D01*
X87276000Y-115113000D01*
X90276000Y-115113000D01*
X90276000Y-116637000D01*
X90276000Y-116637000D01*
G37*
G36*
X137140407Y-115510828D02*
X137195003Y-115533443D01*
X137244139Y-115566274D01*
X137285926Y-115608061D01*
X137318757Y-115657197D01*
X137341372Y-115711793D01*
X137352900Y-115769753D01*
X137352900Y-115828847D01*
X137341372Y-115886807D01*
X137318757Y-115941403D01*
X137285926Y-115990539D01*
X137244139Y-116032326D01*
X137195003Y-116065157D01*
X137140407Y-116087772D01*
X137082447Y-116099300D01*
X137023353Y-116099300D01*
X136965393Y-116087772D01*
X136910797Y-116065157D01*
X136861661Y-116032326D01*
X136819874Y-115990539D01*
X136787043Y-115941403D01*
X136764428Y-115886807D01*
X136752900Y-115828847D01*
X136752900Y-115769753D01*
X136764428Y-115711793D01*
X136787043Y-115657197D01*
X136819874Y-115608061D01*
X136861661Y-115566274D01*
X136910797Y-115533443D01*
X136965393Y-115510828D01*
X137023353Y-115499300D01*
X137082447Y-115499300D01*
X137140407Y-115510828D01*
X137140407Y-115510828D01*
G37*
G36*
X90276000Y-114097000D02*
X87276000Y-114097000D01*
X87276000Y-112573000D01*
X90276000Y-112573000D01*
X90276000Y-114097000D01*
X90276000Y-114097000D01*
G37*
G36*
X92199107Y-113046528D02*
X92253703Y-113069143D01*
X92302839Y-113101974D01*
X92344626Y-113143761D01*
X92377457Y-113192897D01*
X92400072Y-113247493D01*
X92411600Y-113305453D01*
X92411600Y-113364547D01*
X92400072Y-113422507D01*
X92377457Y-113477103D01*
X92344626Y-113526239D01*
X92302839Y-113568026D01*
X92253703Y-113600857D01*
X92199107Y-113623472D01*
X92141147Y-113635000D01*
X92082053Y-113635000D01*
X92024093Y-113623472D01*
X91969497Y-113600857D01*
X91920361Y-113568026D01*
X91878574Y-113526239D01*
X91845743Y-113477103D01*
X91823128Y-113422507D01*
X91811600Y-113364547D01*
X91811600Y-113305453D01*
X91823128Y-113247493D01*
X91845743Y-113192897D01*
X91878574Y-113143761D01*
X91920361Y-113101974D01*
X91969497Y-113069143D01*
X92024093Y-113046528D01*
X92082053Y-113035000D01*
X92141147Y-113035000D01*
X92199107Y-113046528D01*
X92199107Y-113046528D01*
G37*
G36*
X157335507Y-112984228D02*
X157390103Y-113006843D01*
X157439239Y-113039674D01*
X157481026Y-113081461D01*
X157513857Y-113130597D01*
X157536472Y-113185193D01*
X157548000Y-113243153D01*
X157548000Y-113302247D01*
X157536472Y-113360207D01*
X157513857Y-113414803D01*
X157481026Y-113463939D01*
X157439239Y-113505726D01*
X157390103Y-113538557D01*
X157335507Y-113561172D01*
X157277547Y-113572700D01*
X157218453Y-113572700D01*
X157160493Y-113561172D01*
X157105897Y-113538557D01*
X157056761Y-113505726D01*
X157014974Y-113463939D01*
X156982143Y-113414803D01*
X156959528Y-113360207D01*
X156948000Y-113302247D01*
X156948000Y-113243153D01*
X156959528Y-113185193D01*
X156982143Y-113130597D01*
X157014974Y-113081461D01*
X157056761Y-113039674D01*
X157105897Y-113006843D01*
X157160493Y-112984228D01*
X157218453Y-112972700D01*
X157277547Y-112972700D01*
X157335507Y-112984228D01*
X157335507Y-112984228D01*
G37*
G36*
X155631307Y-112790528D02*
X155685903Y-112813143D01*
X155735039Y-112845974D01*
X155776826Y-112887761D01*
X155809657Y-112936897D01*
X155832272Y-112991493D01*
X155843800Y-113049453D01*
X155843800Y-113108547D01*
X155832272Y-113166507D01*
X155809657Y-113221103D01*
X155776826Y-113270239D01*
X155735039Y-113312026D01*
X155685903Y-113344857D01*
X155631307Y-113367472D01*
X155573347Y-113379000D01*
X155514253Y-113379000D01*
X155456293Y-113367472D01*
X155401697Y-113344857D01*
X155352561Y-113312026D01*
X155310774Y-113270239D01*
X155277943Y-113221103D01*
X155255328Y-113166507D01*
X155243800Y-113108547D01*
X155243800Y-113049453D01*
X155255328Y-112991493D01*
X155277943Y-112936897D01*
X155310774Y-112887761D01*
X155352561Y-112845974D01*
X155401697Y-112813143D01*
X155456293Y-112790528D01*
X155514253Y-112779000D01*
X155573347Y-112779000D01*
X155631307Y-112790528D01*
X155631307Y-112790528D01*
G37*
G36*
X152144207Y-112773128D02*
X152198803Y-112795743D01*
X152247939Y-112828574D01*
X152289726Y-112870361D01*
X152322557Y-112919497D01*
X152345172Y-112974093D01*
X152356700Y-113032053D01*
X152356700Y-113091147D01*
X152345172Y-113149107D01*
X152322557Y-113203703D01*
X152289726Y-113252839D01*
X152247939Y-113294626D01*
X152198803Y-113327457D01*
X152144207Y-113350072D01*
X152086247Y-113361600D01*
X152027153Y-113361600D01*
X151969193Y-113350072D01*
X151914597Y-113327457D01*
X151865461Y-113294626D01*
X151823674Y-113252839D01*
X151790843Y-113203703D01*
X151768228Y-113149107D01*
X151756700Y-113091147D01*
X151756700Y-113032053D01*
X151768228Y-112974093D01*
X151790843Y-112919497D01*
X151823674Y-112870361D01*
X151865461Y-112828574D01*
X151914597Y-112795743D01*
X151969193Y-112773128D01*
X152027153Y-112761600D01*
X152086247Y-112761600D01*
X152144207Y-112773128D01*
X152144207Y-112773128D01*
G37*
G36*
X99084630Y-111527299D02*
X99244855Y-111575903D01*
X99392520Y-111654831D01*
X99521949Y-111761051D01*
X99628169Y-111890480D01*
X99707097Y-112038145D01*
X99755701Y-112198370D01*
X99772112Y-112365000D01*
X99755701Y-112531630D01*
X99707097Y-112691855D01*
X99628169Y-112839520D01*
X99521949Y-112968949D01*
X99392520Y-113075169D01*
X99244855Y-113154097D01*
X99084630Y-113202701D01*
X98959752Y-113215000D01*
X98876248Y-113215000D01*
X98751370Y-113202701D01*
X98591145Y-113154097D01*
X98443480Y-113075169D01*
X98314051Y-112968949D01*
X98207831Y-112839520D01*
X98128903Y-112691855D01*
X98080299Y-112531630D01*
X98063888Y-112365000D01*
X98080299Y-112198370D01*
X98128903Y-112038145D01*
X98207831Y-111890480D01*
X98314051Y-111761051D01*
X98443480Y-111654831D01*
X98591145Y-111575903D01*
X98751370Y-111527299D01*
X98876248Y-111515000D01*
X98959752Y-111515000D01*
X99084630Y-111527299D01*
X99084630Y-111527299D01*
G37*
G36*
X101624630Y-111527299D02*
X101784855Y-111575903D01*
X101932520Y-111654831D01*
X102061949Y-111761051D01*
X102168169Y-111890480D01*
X102247097Y-112038145D01*
X102295701Y-112198370D01*
X102312112Y-112365000D01*
X102295701Y-112531630D01*
X102247097Y-112691855D01*
X102168169Y-112839520D01*
X102061949Y-112968949D01*
X101932520Y-113075169D01*
X101784855Y-113154097D01*
X101624630Y-113202701D01*
X101499752Y-113215000D01*
X101416248Y-113215000D01*
X101291370Y-113202701D01*
X101131145Y-113154097D01*
X100983480Y-113075169D01*
X100854051Y-112968949D01*
X100747831Y-112839520D01*
X100668903Y-112691855D01*
X100620299Y-112531630D01*
X100603888Y-112365000D01*
X100620299Y-112198370D01*
X100668903Y-112038145D01*
X100747831Y-111890480D01*
X100854051Y-111761051D01*
X100983480Y-111654831D01*
X101131145Y-111575903D01*
X101291370Y-111527299D01*
X101416248Y-111515000D01*
X101499752Y-111515000D01*
X101624630Y-111527299D01*
X101624630Y-111527299D01*
G37*
G36*
X104848000Y-113215000D02*
X103148000Y-113215000D01*
X103148000Y-111515000D01*
X104848000Y-111515000D01*
X104848000Y-113215000D01*
X104848000Y-113215000D01*
G37*
G36*
X137824307Y-112076528D02*
X137878903Y-112099143D01*
X137928039Y-112131974D01*
X137969826Y-112173761D01*
X138002657Y-112222897D01*
X138025272Y-112277493D01*
X138036800Y-112335453D01*
X138036800Y-112394547D01*
X138025272Y-112452507D01*
X138002657Y-112507103D01*
X137969826Y-112556239D01*
X137928039Y-112598026D01*
X137878903Y-112630857D01*
X137824307Y-112653472D01*
X137766347Y-112665000D01*
X137707253Y-112665000D01*
X137649293Y-112653472D01*
X137594697Y-112630857D01*
X137545561Y-112598026D01*
X137503774Y-112556239D01*
X137470943Y-112507103D01*
X137448328Y-112452507D01*
X137436800Y-112394547D01*
X137436800Y-112335453D01*
X137448328Y-112277493D01*
X137470943Y-112222897D01*
X137503774Y-112173761D01*
X137545561Y-112131974D01*
X137594697Y-112099143D01*
X137649293Y-112076528D01*
X137707253Y-112065000D01*
X137766347Y-112065000D01*
X137824307Y-112076528D01*
X137824307Y-112076528D01*
G37*
G36*
X90276000Y-111557000D02*
X87276000Y-111557000D01*
X87276000Y-110033000D01*
X90276000Y-110033000D01*
X90276000Y-111557000D01*
X90276000Y-111557000D01*
G37*
G36*
X106184907Y-110651828D02*
X106239503Y-110674443D01*
X106288639Y-110707274D01*
X106330426Y-110749061D01*
X106363257Y-110798197D01*
X106385872Y-110852793D01*
X106397400Y-110910753D01*
X106397400Y-110969847D01*
X106385872Y-111027807D01*
X106363257Y-111082403D01*
X106330426Y-111131539D01*
X106288639Y-111173326D01*
X106239503Y-111206157D01*
X106184907Y-111228772D01*
X106126947Y-111240300D01*
X106067853Y-111240300D01*
X106009893Y-111228772D01*
X105955297Y-111206157D01*
X105906161Y-111173326D01*
X105864374Y-111131539D01*
X105831543Y-111082403D01*
X105808928Y-111027807D01*
X105797400Y-110969847D01*
X105797400Y-110910753D01*
X105808928Y-110852793D01*
X105831543Y-110798197D01*
X105864374Y-110749061D01*
X105906161Y-110707274D01*
X105955297Y-110674443D01*
X106009893Y-110651828D01*
X106067853Y-110640300D01*
X106126947Y-110640300D01*
X106184907Y-110651828D01*
X106184907Y-110651828D01*
G37*
G36*
X162909107Y-110623628D02*
X162963703Y-110646243D01*
X163012839Y-110679074D01*
X163054626Y-110720861D01*
X163087457Y-110769997D01*
X163110072Y-110824593D01*
X163121600Y-110882553D01*
X163121600Y-110941647D01*
X163110072Y-110999607D01*
X163087457Y-111054203D01*
X163054626Y-111103339D01*
X163012839Y-111145126D01*
X162963703Y-111177957D01*
X162909107Y-111200572D01*
X162851147Y-111212100D01*
X162792053Y-111212100D01*
X162734093Y-111200572D01*
X162679497Y-111177957D01*
X162630361Y-111145126D01*
X162588574Y-111103339D01*
X162555743Y-111054203D01*
X162533128Y-110999607D01*
X162521600Y-110941647D01*
X162521600Y-110882553D01*
X162533128Y-110824593D01*
X162555743Y-110769997D01*
X162588574Y-110720861D01*
X162630361Y-110679074D01*
X162679497Y-110646243D01*
X162734093Y-110623628D01*
X162792053Y-110612100D01*
X162851147Y-110612100D01*
X162909107Y-110623628D01*
X162909107Y-110623628D01*
G37*
G36*
X114628007Y-110244828D02*
X114682603Y-110267443D01*
X114731739Y-110300274D01*
X114773526Y-110342061D01*
X114806357Y-110391197D01*
X114828972Y-110445793D01*
X114840500Y-110503753D01*
X114840500Y-110562847D01*
X114828972Y-110620807D01*
X114806357Y-110675403D01*
X114773526Y-110724539D01*
X114731739Y-110766326D01*
X114682603Y-110799157D01*
X114628007Y-110821772D01*
X114570047Y-110833300D01*
X114510953Y-110833300D01*
X114452993Y-110821772D01*
X114398397Y-110799157D01*
X114349261Y-110766326D01*
X114307474Y-110724539D01*
X114274643Y-110675403D01*
X114252028Y-110620807D01*
X114240500Y-110562847D01*
X114240500Y-110503753D01*
X114252028Y-110445793D01*
X114274643Y-110391197D01*
X114307474Y-110342061D01*
X114349261Y-110300274D01*
X114398397Y-110267443D01*
X114452993Y-110244828D01*
X114510953Y-110233300D01*
X114570047Y-110233300D01*
X114628007Y-110244828D01*
X114628007Y-110244828D01*
G37*
G36*
X135646007Y-110186728D02*
X135700603Y-110209343D01*
X135749739Y-110242174D01*
X135791526Y-110283961D01*
X135824357Y-110333097D01*
X135846972Y-110387693D01*
X135858500Y-110445653D01*
X135858500Y-110504747D01*
X135846972Y-110562707D01*
X135824357Y-110617303D01*
X135791526Y-110666439D01*
X135749739Y-110708226D01*
X135700603Y-110741057D01*
X135646007Y-110763672D01*
X135588047Y-110775200D01*
X135528953Y-110775200D01*
X135470993Y-110763672D01*
X135416397Y-110741057D01*
X135367261Y-110708226D01*
X135325474Y-110666439D01*
X135292643Y-110617303D01*
X135270028Y-110562707D01*
X135258500Y-110504747D01*
X135258500Y-110445653D01*
X135270028Y-110387693D01*
X135292643Y-110333097D01*
X135325474Y-110283961D01*
X135367261Y-110242174D01*
X135416397Y-110209343D01*
X135470993Y-110186728D01*
X135528953Y-110175200D01*
X135588047Y-110175200D01*
X135646007Y-110186728D01*
X135646007Y-110186728D01*
G37*
G36*
X161757307Y-110167628D02*
X161811903Y-110190243D01*
X161861039Y-110223074D01*
X161902826Y-110264861D01*
X161935657Y-110313997D01*
X161958272Y-110368593D01*
X161969800Y-110426553D01*
X161969800Y-110485647D01*
X161958272Y-110543607D01*
X161935657Y-110598203D01*
X161902826Y-110647339D01*
X161861039Y-110689126D01*
X161811903Y-110721957D01*
X161757307Y-110744572D01*
X161699347Y-110756100D01*
X161640253Y-110756100D01*
X161582293Y-110744572D01*
X161527697Y-110721957D01*
X161478561Y-110689126D01*
X161436774Y-110647339D01*
X161403943Y-110598203D01*
X161381328Y-110543607D01*
X161369800Y-110485647D01*
X161369800Y-110426553D01*
X161381328Y-110368593D01*
X161403943Y-110313997D01*
X161436774Y-110264861D01*
X161478561Y-110223074D01*
X161527697Y-110190243D01*
X161582293Y-110167628D01*
X161640253Y-110156100D01*
X161699347Y-110156100D01*
X161757307Y-110167628D01*
X161757307Y-110167628D01*
G37*
G36*
X106940907Y-109999428D02*
X106995503Y-110022043D01*
X107044639Y-110054874D01*
X107086426Y-110096661D01*
X107119257Y-110145797D01*
X107141872Y-110200393D01*
X107153400Y-110258353D01*
X107153400Y-110317447D01*
X107141872Y-110375407D01*
X107119257Y-110430003D01*
X107086426Y-110479139D01*
X107044639Y-110520926D01*
X106995503Y-110553757D01*
X106940907Y-110576372D01*
X106882947Y-110587900D01*
X106823853Y-110587900D01*
X106765893Y-110576372D01*
X106711297Y-110553757D01*
X106662161Y-110520926D01*
X106620374Y-110479139D01*
X106587543Y-110430003D01*
X106564928Y-110375407D01*
X106553400Y-110317447D01*
X106553400Y-110258353D01*
X106564928Y-110200393D01*
X106587543Y-110145797D01*
X106620374Y-110096661D01*
X106662161Y-110054874D01*
X106711297Y-110022043D01*
X106765893Y-109999428D01*
X106823853Y-109987900D01*
X106882947Y-109987900D01*
X106940907Y-109999428D01*
X106940907Y-109999428D01*
G37*
G36*
X150987307Y-109947228D02*
X151041903Y-109969843D01*
X151091039Y-110002674D01*
X151132826Y-110044461D01*
X151165657Y-110093597D01*
X151188272Y-110148193D01*
X151196636Y-110190244D01*
X151200402Y-110209179D01*
X151202106Y-110214797D01*
X151199800Y-110238208D01*
X151199800Y-110265247D01*
X151188272Y-110323207D01*
X151165657Y-110377803D01*
X151132826Y-110426939D01*
X151091039Y-110468726D01*
X151041903Y-110501557D01*
X150987307Y-110524172D01*
X150929347Y-110535700D01*
X150870253Y-110535700D01*
X150812293Y-110524172D01*
X150757697Y-110501557D01*
X150708561Y-110468726D01*
X150666774Y-110426939D01*
X150633943Y-110377803D01*
X150611328Y-110323207D01*
X150599800Y-110265247D01*
X150599800Y-110206153D01*
X150611328Y-110148193D01*
X150633943Y-110093597D01*
X150666774Y-110044461D01*
X150708561Y-110002674D01*
X150757697Y-109969843D01*
X150812293Y-109947228D01*
X150870253Y-109935700D01*
X150929347Y-109935700D01*
X150987307Y-109947228D01*
X150987307Y-109947228D01*
G37*
G36*
X152835507Y-109935928D02*
X152890103Y-109958543D01*
X152939239Y-109991374D01*
X152981026Y-110033161D01*
X153013857Y-110082297D01*
X153036472Y-110136893D01*
X153048000Y-110194853D01*
X153048000Y-110253947D01*
X153036472Y-110311907D01*
X153013857Y-110366503D01*
X152981026Y-110415639D01*
X152939239Y-110457426D01*
X152890103Y-110490257D01*
X152835507Y-110512872D01*
X152777547Y-110524400D01*
X152718453Y-110524400D01*
X152660493Y-110512872D01*
X152605897Y-110490257D01*
X152556761Y-110457426D01*
X152514974Y-110415639D01*
X152482143Y-110366503D01*
X152459528Y-110311907D01*
X152448000Y-110253947D01*
X152448000Y-110194853D01*
X152459528Y-110136893D01*
X152482143Y-110082297D01*
X152514974Y-110033161D01*
X152556761Y-109991374D01*
X152605897Y-109958543D01*
X152660493Y-109935928D01*
X152718453Y-109924400D01*
X152777547Y-109924400D01*
X152835507Y-109935928D01*
X152835507Y-109935928D01*
G37*
G36*
X151835507Y-109898828D02*
X151890103Y-109921443D01*
X151939239Y-109954274D01*
X151981026Y-109996061D01*
X152013857Y-110045197D01*
X152036472Y-110099793D01*
X152048000Y-110157753D01*
X152048000Y-110216847D01*
X152036472Y-110274807D01*
X152013857Y-110329403D01*
X151981026Y-110378539D01*
X151939239Y-110420326D01*
X151890103Y-110453157D01*
X151835507Y-110475772D01*
X151777547Y-110487300D01*
X151718453Y-110487300D01*
X151660493Y-110475772D01*
X151605897Y-110453157D01*
X151556761Y-110420326D01*
X151514974Y-110378539D01*
X151482143Y-110329403D01*
X151459528Y-110274807D01*
X151448000Y-110216847D01*
X151447398Y-110213821D01*
X151445694Y-110208203D01*
X151448000Y-110184792D01*
X151448000Y-110157753D01*
X151448329Y-110156100D01*
X151459528Y-110099793D01*
X151482143Y-110045197D01*
X151514974Y-109996061D01*
X151556761Y-109954274D01*
X151605897Y-109921443D01*
X151660493Y-109898828D01*
X151718453Y-109887300D01*
X151777547Y-109887300D01*
X151835507Y-109898828D01*
X151835507Y-109898828D01*
G37*
G36*
X131553507Y-109680028D02*
X131608103Y-109702643D01*
X131657239Y-109735474D01*
X131699026Y-109777261D01*
X131731857Y-109826397D01*
X131754472Y-109880993D01*
X131766000Y-109938953D01*
X131766000Y-109998047D01*
X131754472Y-110056007D01*
X131731857Y-110110603D01*
X131699026Y-110159739D01*
X131657239Y-110201526D01*
X131608103Y-110234357D01*
X131553507Y-110256972D01*
X131495547Y-110268500D01*
X131436453Y-110268500D01*
X131378493Y-110256972D01*
X131323897Y-110234357D01*
X131274761Y-110201526D01*
X131232974Y-110159739D01*
X131200143Y-110110603D01*
X131177528Y-110056007D01*
X131166000Y-109998047D01*
X131166000Y-109938953D01*
X131177528Y-109880993D01*
X131200143Y-109826397D01*
X131232974Y-109777261D01*
X131274761Y-109735474D01*
X131323897Y-109702643D01*
X131378493Y-109680028D01*
X131436453Y-109668500D01*
X131495547Y-109668500D01*
X131553507Y-109680028D01*
X131553507Y-109680028D01*
G37*
G36*
X136487707Y-109498628D02*
X136542303Y-109521243D01*
X136591439Y-109554074D01*
X136633226Y-109595861D01*
X136666057Y-109644997D01*
X136688672Y-109699593D01*
X136700200Y-109757553D01*
X136700200Y-109816647D01*
X136688672Y-109874607D01*
X136666057Y-109929203D01*
X136633226Y-109978339D01*
X136591439Y-110020126D01*
X136542303Y-110052957D01*
X136487707Y-110075572D01*
X136429747Y-110087100D01*
X136370653Y-110087100D01*
X136312693Y-110075572D01*
X136258097Y-110052957D01*
X136208961Y-110020126D01*
X136167174Y-109978339D01*
X136134343Y-109929203D01*
X136111728Y-109874607D01*
X136100200Y-109816647D01*
X136100200Y-109757553D01*
X136111728Y-109699593D01*
X136134343Y-109644997D01*
X136167174Y-109595861D01*
X136208961Y-109554074D01*
X136258097Y-109521243D01*
X136312693Y-109498628D01*
X136370653Y-109487100D01*
X136429747Y-109487100D01*
X136487707Y-109498628D01*
X136487707Y-109498628D01*
G37*
G36*
X94004107Y-109364528D02*
X94058703Y-109387143D01*
X94107839Y-109419974D01*
X94149626Y-109461761D01*
X94182457Y-109510897D01*
X94205072Y-109565493D01*
X94216600Y-109623453D01*
X94216600Y-109682547D01*
X94205072Y-109740507D01*
X94182457Y-109795103D01*
X94149626Y-109844239D01*
X94107839Y-109886026D01*
X94058703Y-109918857D01*
X94004107Y-109941472D01*
X93946147Y-109953000D01*
X93887053Y-109953000D01*
X93829093Y-109941472D01*
X93774497Y-109918857D01*
X93725361Y-109886026D01*
X93683574Y-109844239D01*
X93650743Y-109795103D01*
X93628128Y-109740507D01*
X93616600Y-109682547D01*
X93616600Y-109623453D01*
X93628128Y-109565493D01*
X93650743Y-109510897D01*
X93683574Y-109461761D01*
X93725361Y-109419974D01*
X93774497Y-109387143D01*
X93829093Y-109364528D01*
X93887053Y-109353000D01*
X93946147Y-109353000D01*
X94004107Y-109364528D01*
X94004107Y-109364528D01*
G37*
G36*
X134167007Y-108976228D02*
X134221603Y-108998843D01*
X134270739Y-109031674D01*
X134312526Y-109073461D01*
X134345357Y-109122597D01*
X134367972Y-109177193D01*
X134379500Y-109235153D01*
X134379500Y-109294247D01*
X134367972Y-109352207D01*
X134345357Y-109406803D01*
X134312526Y-109455939D01*
X134270739Y-109497726D01*
X134221603Y-109530557D01*
X134167007Y-109553172D01*
X134109047Y-109564700D01*
X134049953Y-109564700D01*
X133991993Y-109553172D01*
X133937397Y-109530557D01*
X133888261Y-109497726D01*
X133846474Y-109455939D01*
X133813643Y-109406803D01*
X133791028Y-109352207D01*
X133779500Y-109294247D01*
X133779500Y-109235153D01*
X133791028Y-109177193D01*
X133813643Y-109122597D01*
X133846474Y-109073461D01*
X133888261Y-109031674D01*
X133937397Y-108998843D01*
X133991993Y-108976228D01*
X134049953Y-108964700D01*
X134109047Y-108964700D01*
X134167007Y-108976228D01*
X134167007Y-108976228D01*
G37*
G36*
X132778407Y-108952228D02*
X132833003Y-108974843D01*
X132882139Y-109007674D01*
X132923926Y-109049461D01*
X132956757Y-109098597D01*
X132979372Y-109153193D01*
X132990900Y-109211153D01*
X132990900Y-109270247D01*
X132979372Y-109328207D01*
X132956757Y-109382803D01*
X132923926Y-109431939D01*
X132882139Y-109473726D01*
X132833003Y-109506557D01*
X132778407Y-109529172D01*
X132720447Y-109540700D01*
X132661353Y-109540700D01*
X132603393Y-109529172D01*
X132548797Y-109506557D01*
X132499661Y-109473726D01*
X132457874Y-109431939D01*
X132425043Y-109382803D01*
X132402428Y-109328207D01*
X132390900Y-109270247D01*
X132390900Y-109211153D01*
X132402428Y-109153193D01*
X132425043Y-109098597D01*
X132457874Y-109049461D01*
X132499661Y-109007674D01*
X132548797Y-108974843D01*
X132603393Y-108952228D01*
X132661353Y-108940700D01*
X132720447Y-108940700D01*
X132778407Y-108952228D01*
X132778407Y-108952228D01*
G37*
G36*
X143014807Y-108943628D02*
X143069403Y-108966243D01*
X143118539Y-108999074D01*
X143160326Y-109040861D01*
X143193157Y-109089997D01*
X143215772Y-109144593D01*
X143227300Y-109202553D01*
X143227300Y-109261647D01*
X143215772Y-109319607D01*
X143193157Y-109374203D01*
X143160326Y-109423339D01*
X143118539Y-109465126D01*
X143069403Y-109497957D01*
X143014807Y-109520572D01*
X142956847Y-109532100D01*
X142897753Y-109532100D01*
X142839793Y-109520572D01*
X142785197Y-109497957D01*
X142736061Y-109465126D01*
X142694274Y-109423339D01*
X142661443Y-109374203D01*
X142638828Y-109319607D01*
X142627300Y-109261647D01*
X142627300Y-109202553D01*
X142638828Y-109144593D01*
X142661443Y-109089997D01*
X142694274Y-109040861D01*
X142736061Y-108999074D01*
X142785197Y-108966243D01*
X142839793Y-108943628D01*
X142897753Y-108932100D01*
X142956847Y-108932100D01*
X143014807Y-108943628D01*
X143014807Y-108943628D01*
G37*
G36*
X90276000Y-109017000D02*
X87276000Y-109017000D01*
X87276000Y-107493000D01*
X90276000Y-107493000D01*
X90276000Y-109017000D01*
X90276000Y-109017000D01*
G37*
G36*
X142986907Y-107683428D02*
X143041503Y-107706043D01*
X143090639Y-107738874D01*
X143132426Y-107780661D01*
X143165257Y-107829797D01*
X143187872Y-107884393D01*
X143199400Y-107942353D01*
X143199400Y-108001447D01*
X143187872Y-108059407D01*
X143165257Y-108114003D01*
X143132426Y-108163139D01*
X143090639Y-108204926D01*
X143041503Y-108237757D01*
X142986907Y-108260372D01*
X142928947Y-108271900D01*
X142869853Y-108271900D01*
X142811893Y-108260372D01*
X142757297Y-108237757D01*
X142708161Y-108204926D01*
X142666374Y-108163139D01*
X142633543Y-108114003D01*
X142610928Y-108059407D01*
X142599400Y-108001447D01*
X142599400Y-107942353D01*
X142610928Y-107884393D01*
X142633543Y-107829797D01*
X142666374Y-107780661D01*
X142708161Y-107738874D01*
X142757297Y-107706043D01*
X142811893Y-107683428D01*
X142869853Y-107671900D01*
X142928947Y-107671900D01*
X142986907Y-107683428D01*
X142986907Y-107683428D01*
G37*
G36*
X140847607Y-107265828D02*
X140902203Y-107288443D01*
X140951339Y-107321274D01*
X140993126Y-107363061D01*
X141025957Y-107412197D01*
X141048572Y-107466793D01*
X141060100Y-107524753D01*
X141060100Y-107583847D01*
X141048572Y-107641807D01*
X141025957Y-107696403D01*
X140993126Y-107745539D01*
X140951339Y-107787326D01*
X140902203Y-107820157D01*
X140847607Y-107842772D01*
X140789647Y-107854300D01*
X140730553Y-107854300D01*
X140672593Y-107842772D01*
X140617997Y-107820157D01*
X140568861Y-107787326D01*
X140527074Y-107745539D01*
X140494243Y-107696403D01*
X140471628Y-107641807D01*
X140460100Y-107583847D01*
X140460100Y-107524753D01*
X140471628Y-107466793D01*
X140494243Y-107412197D01*
X140527074Y-107363061D01*
X140568861Y-107321274D01*
X140617997Y-107288443D01*
X140672593Y-107265828D01*
X140730553Y-107254300D01*
X140789647Y-107254300D01*
X140847607Y-107265828D01*
X140847607Y-107265828D01*
G37*
G36*
X141724307Y-106840528D02*
X141778903Y-106863143D01*
X141828039Y-106895974D01*
X141869826Y-106937761D01*
X141902657Y-106986897D01*
X141925272Y-107041493D01*
X141936800Y-107099453D01*
X141936800Y-107158547D01*
X141925272Y-107216507D01*
X141902657Y-107271103D01*
X141869826Y-107320239D01*
X141828039Y-107362026D01*
X141778903Y-107394857D01*
X141724307Y-107417472D01*
X141666347Y-107429000D01*
X141607253Y-107429000D01*
X141549293Y-107417472D01*
X141494697Y-107394857D01*
X141445561Y-107362026D01*
X141403774Y-107320239D01*
X141370943Y-107271103D01*
X141348328Y-107216507D01*
X141336800Y-107158547D01*
X141336800Y-107099453D01*
X141348328Y-107041493D01*
X141370943Y-106986897D01*
X141403774Y-106937761D01*
X141445561Y-106895974D01*
X141494697Y-106863143D01*
X141549293Y-106840528D01*
X141607253Y-106829000D01*
X141666347Y-106829000D01*
X141724307Y-106840528D01*
X141724307Y-106840528D01*
G37*
G36*
X102178307Y-106279128D02*
X102232903Y-106301743D01*
X102282039Y-106334574D01*
X102323826Y-106376361D01*
X102356657Y-106425497D01*
X102379272Y-106480093D01*
X102390800Y-106538053D01*
X102390800Y-106597147D01*
X102379272Y-106655107D01*
X102356657Y-106709703D01*
X102323826Y-106758839D01*
X102282039Y-106800626D01*
X102232903Y-106833457D01*
X102178307Y-106856072D01*
X102120347Y-106867600D01*
X102061253Y-106867600D01*
X102003293Y-106856072D01*
X101948697Y-106833457D01*
X101899561Y-106800626D01*
X101857774Y-106758839D01*
X101824943Y-106709703D01*
X101802328Y-106655107D01*
X101790800Y-106597147D01*
X101790800Y-106538053D01*
X101802328Y-106480093D01*
X101824943Y-106425497D01*
X101857774Y-106376361D01*
X101899561Y-106334574D01*
X101948697Y-106301743D01*
X102003293Y-106279128D01*
X102061253Y-106267600D01*
X102120347Y-106267600D01*
X102178307Y-106279128D01*
X102178307Y-106279128D01*
G37*
G36*
X142472307Y-106208928D02*
X142526903Y-106231543D01*
X142576039Y-106264374D01*
X142617826Y-106306161D01*
X142650657Y-106355297D01*
X142669520Y-106400836D01*
X142681066Y-106422437D01*
X142696611Y-106441379D01*
X142715553Y-106456924D01*
X142737164Y-106468476D01*
X142760613Y-106475589D01*
X142784999Y-106477991D01*
X142809386Y-106475589D01*
X142832835Y-106468476D01*
X142854446Y-106456925D01*
X142873388Y-106441380D01*
X142888933Y-106422438D01*
X142900480Y-106400836D01*
X142919343Y-106355297D01*
X142952174Y-106306161D01*
X142993961Y-106264374D01*
X143043097Y-106231543D01*
X143097693Y-106208928D01*
X143155653Y-106197400D01*
X143214747Y-106197400D01*
X143272707Y-106208928D01*
X143327303Y-106231543D01*
X143376439Y-106264374D01*
X143418226Y-106306161D01*
X143451057Y-106355297D01*
X143473672Y-106409893D01*
X143485200Y-106467853D01*
X143485200Y-106526947D01*
X143473672Y-106584907D01*
X143451057Y-106639503D01*
X143418226Y-106688639D01*
X143376439Y-106730426D01*
X143327303Y-106763257D01*
X143272707Y-106785872D01*
X143214747Y-106797400D01*
X143155653Y-106797400D01*
X143097693Y-106785872D01*
X143043097Y-106763257D01*
X142993961Y-106730426D01*
X142952174Y-106688639D01*
X142919343Y-106639503D01*
X142900480Y-106593964D01*
X142888934Y-106572363D01*
X142873389Y-106553421D01*
X142854447Y-106537876D01*
X142832836Y-106526324D01*
X142809387Y-106519211D01*
X142785001Y-106516809D01*
X142760614Y-106519211D01*
X142737165Y-106526324D01*
X142715554Y-106537875D01*
X142696612Y-106553420D01*
X142681067Y-106572362D01*
X142669520Y-106593964D01*
X142650657Y-106639503D01*
X142617826Y-106688639D01*
X142576039Y-106730426D01*
X142526903Y-106763257D01*
X142472307Y-106785872D01*
X142414347Y-106797400D01*
X142355253Y-106797400D01*
X142297293Y-106785872D01*
X142242697Y-106763257D01*
X142193561Y-106730426D01*
X142151774Y-106688639D01*
X142118943Y-106639503D01*
X142096328Y-106584907D01*
X142084800Y-106526947D01*
X142084800Y-106467853D01*
X142096328Y-106409893D01*
X142118943Y-106355297D01*
X142151774Y-106306161D01*
X142193561Y-106264374D01*
X142242697Y-106231543D01*
X142297293Y-106208928D01*
X142355253Y-106197400D01*
X142414347Y-106197400D01*
X142472307Y-106208928D01*
X142472307Y-106208928D01*
G37*
G36*
X91618307Y-106011328D02*
X91672903Y-106033943D01*
X91722039Y-106066774D01*
X91763826Y-106108561D01*
X91796657Y-106157697D01*
X91819272Y-106212293D01*
X91830800Y-106270253D01*
X91830800Y-106329347D01*
X91819272Y-106387307D01*
X91796657Y-106441903D01*
X91763826Y-106491039D01*
X91722039Y-106532826D01*
X91672903Y-106565657D01*
X91618307Y-106588272D01*
X91560347Y-106599800D01*
X91501253Y-106599800D01*
X91443293Y-106588272D01*
X91388697Y-106565657D01*
X91339561Y-106532826D01*
X91297774Y-106491039D01*
X91264943Y-106441903D01*
X91242328Y-106387307D01*
X91230800Y-106329347D01*
X91230800Y-106270253D01*
X91242328Y-106212293D01*
X91264943Y-106157697D01*
X91297774Y-106108561D01*
X91339561Y-106066774D01*
X91388697Y-106033943D01*
X91443293Y-106011328D01*
X91501253Y-105999800D01*
X91560347Y-105999800D01*
X91618307Y-106011328D01*
X91618307Y-106011328D01*
G37*
G36*
X90276000Y-106477000D02*
X87276000Y-106477000D01*
X87276000Y-104953000D01*
X90276000Y-104953000D01*
X90276000Y-106477000D01*
X90276000Y-106477000D01*
G37*
G36*
X128849907Y-105748028D02*
X128904503Y-105770643D01*
X128953639Y-105803474D01*
X128995426Y-105845261D01*
X129028257Y-105894397D01*
X129050872Y-105948993D01*
X129062400Y-106006953D01*
X129062400Y-106066047D01*
X129050872Y-106124007D01*
X129028257Y-106178603D01*
X128995426Y-106227739D01*
X128953639Y-106269526D01*
X128904503Y-106302357D01*
X128849907Y-106324972D01*
X128791947Y-106336500D01*
X128732853Y-106336500D01*
X128674893Y-106324972D01*
X128620297Y-106302357D01*
X128571161Y-106269526D01*
X128529374Y-106227739D01*
X128496543Y-106178603D01*
X128473928Y-106124007D01*
X128462400Y-106066047D01*
X128462400Y-106006953D01*
X128473928Y-105948993D01*
X128496543Y-105894397D01*
X128529374Y-105845261D01*
X128571161Y-105803474D01*
X128620297Y-105770643D01*
X128674893Y-105748028D01*
X128732853Y-105736500D01*
X128791947Y-105736500D01*
X128849907Y-105748028D01*
X128849907Y-105748028D01*
G37*
G36*
X105962007Y-105743728D02*
X106016603Y-105766343D01*
X106065739Y-105799174D01*
X106107526Y-105840961D01*
X106140357Y-105890097D01*
X106162972Y-105944693D01*
X106174500Y-106002653D01*
X106174500Y-106061747D01*
X106162972Y-106119707D01*
X106140357Y-106174303D01*
X106107526Y-106223439D01*
X106065739Y-106265226D01*
X106016603Y-106298057D01*
X105962007Y-106320672D01*
X105904047Y-106332200D01*
X105844953Y-106332200D01*
X105786993Y-106320672D01*
X105732397Y-106298057D01*
X105683261Y-106265226D01*
X105641474Y-106223439D01*
X105608643Y-106174303D01*
X105586028Y-106119707D01*
X105574500Y-106061747D01*
X105574500Y-106002653D01*
X105586028Y-105944693D01*
X105608643Y-105890097D01*
X105641474Y-105840961D01*
X105683261Y-105799174D01*
X105732397Y-105766343D01*
X105786993Y-105743728D01*
X105844953Y-105732200D01*
X105904047Y-105732200D01*
X105962007Y-105743728D01*
X105962007Y-105743728D01*
G37*
G36*
X145543707Y-105133628D02*
X145598303Y-105156243D01*
X145647439Y-105189074D01*
X145689226Y-105230861D01*
X145722057Y-105279997D01*
X145744672Y-105334593D01*
X145756200Y-105392553D01*
X145756200Y-105451647D01*
X145744672Y-105509607D01*
X145722057Y-105564203D01*
X145689226Y-105613339D01*
X145647439Y-105655126D01*
X145598303Y-105687957D01*
X145543707Y-105710572D01*
X145485747Y-105722100D01*
X145426653Y-105722100D01*
X145368693Y-105710572D01*
X145314097Y-105687957D01*
X145264961Y-105655126D01*
X145223174Y-105613339D01*
X145190343Y-105564203D01*
X145167728Y-105509607D01*
X145156200Y-105451647D01*
X145156200Y-105392553D01*
X145167728Y-105334593D01*
X145190343Y-105279997D01*
X145223174Y-105230861D01*
X145264961Y-105189074D01*
X145314097Y-105156243D01*
X145368693Y-105133628D01*
X145426653Y-105122100D01*
X145485747Y-105122100D01*
X145543707Y-105133628D01*
X145543707Y-105133628D01*
G37*
G36*
X100082712Y-103585565D02*
X100167295Y-103593896D01*
X100287727Y-103630429D01*
X100330088Y-103643279D01*
X100480112Y-103723468D01*
X100611612Y-103831388D01*
X100719532Y-103962888D01*
X100799721Y-104112912D01*
X100811033Y-104150203D01*
X100849104Y-104275705D01*
X100865778Y-104445000D01*
X100849104Y-104614295D01*
X100834785Y-104661497D01*
X100799721Y-104777088D01*
X100719532Y-104927112D01*
X100611612Y-105058612D01*
X100480112Y-105166532D01*
X100330088Y-105246721D01*
X100287727Y-105259571D01*
X100167295Y-105296104D01*
X100082712Y-105304435D01*
X100040421Y-105308600D01*
X99955579Y-105308600D01*
X99913288Y-105304435D01*
X99828705Y-105296104D01*
X99708273Y-105259571D01*
X99665912Y-105246721D01*
X99515888Y-105166532D01*
X99384388Y-105058612D01*
X99276468Y-104927112D01*
X99196279Y-104777088D01*
X99161215Y-104661497D01*
X99146896Y-104614295D01*
X99130222Y-104445000D01*
X99146896Y-104275705D01*
X99184967Y-104150203D01*
X99196279Y-104112912D01*
X99276468Y-103962888D01*
X99384388Y-103831388D01*
X99515888Y-103723468D01*
X99665912Y-103643279D01*
X99708273Y-103630429D01*
X99828705Y-103593896D01*
X99913288Y-103585565D01*
X99955579Y-103581400D01*
X100040421Y-103581400D01*
X100082712Y-103585565D01*
X100082712Y-103585565D01*
G37*
G36*
X102622712Y-103585565D02*
X102707295Y-103593896D01*
X102827727Y-103630429D01*
X102870088Y-103643279D01*
X103020112Y-103723468D01*
X103151612Y-103831388D01*
X103259532Y-103962888D01*
X103339721Y-104112912D01*
X103351033Y-104150203D01*
X103389104Y-104275705D01*
X103405778Y-104445000D01*
X103389104Y-104614295D01*
X103374785Y-104661497D01*
X103339721Y-104777088D01*
X103259532Y-104927112D01*
X103151612Y-105058612D01*
X103020112Y-105166532D01*
X102870088Y-105246721D01*
X102827727Y-105259571D01*
X102707295Y-105296104D01*
X102622712Y-105304435D01*
X102580421Y-105308600D01*
X102495579Y-105308600D01*
X102453288Y-105304435D01*
X102368705Y-105296104D01*
X102248273Y-105259571D01*
X102205912Y-105246721D01*
X102055888Y-105166532D01*
X101924388Y-105058612D01*
X101816468Y-104927112D01*
X101736279Y-104777088D01*
X101701215Y-104661497D01*
X101686896Y-104614295D01*
X101670222Y-104445000D01*
X101686896Y-104275705D01*
X101724967Y-104150203D01*
X101736279Y-104112912D01*
X101816468Y-103962888D01*
X101924388Y-103831388D01*
X102055888Y-103723468D01*
X102205912Y-103643279D01*
X102248273Y-103630429D01*
X102368705Y-103593896D01*
X102453288Y-103585565D01*
X102495579Y-103581400D01*
X102580421Y-103581400D01*
X102622712Y-103585565D01*
X102622712Y-103585565D01*
G37*
G36*
X129801507Y-104515128D02*
X129856103Y-104537743D01*
X129905239Y-104570574D01*
X129947026Y-104612361D01*
X129979857Y-104661497D01*
X130002472Y-104716093D01*
X130014000Y-104774053D01*
X130014000Y-104833147D01*
X130002472Y-104891107D01*
X129979857Y-104945703D01*
X129947026Y-104994839D01*
X129905239Y-105036626D01*
X129856103Y-105069457D01*
X129801507Y-105092072D01*
X129743547Y-105103600D01*
X129684453Y-105103600D01*
X129626493Y-105092072D01*
X129571897Y-105069457D01*
X129522761Y-105036626D01*
X129480974Y-104994839D01*
X129448143Y-104945703D01*
X129425528Y-104891107D01*
X129414000Y-104833147D01*
X129414000Y-104774053D01*
X129425528Y-104716093D01*
X129448143Y-104661497D01*
X129480974Y-104612361D01*
X129522761Y-104570574D01*
X129571897Y-104537743D01*
X129626493Y-104515128D01*
X129684453Y-104503600D01*
X129743547Y-104503600D01*
X129801507Y-104515128D01*
X129801507Y-104515128D01*
G37*
G36*
X149896801Y-103511648D02*
X149908353Y-103533259D01*
X149923898Y-103552201D01*
X149942841Y-103567746D01*
X149964450Y-103579296D01*
X149970802Y-103581927D01*
X149970807Y-103581928D01*
X150025403Y-103604543D01*
X150074539Y-103637374D01*
X150116326Y-103679161D01*
X150149157Y-103728297D01*
X150171772Y-103782893D01*
X150181417Y-103831388D01*
X150182380Y-103836227D01*
X150189494Y-103859676D01*
X150201045Y-103881286D01*
X150216591Y-103900228D01*
X150235533Y-103915773D01*
X150257144Y-103927324D01*
X150280593Y-103934437D01*
X150304979Y-103936839D01*
X150329366Y-103934437D01*
X150352815Y-103927323D01*
X150374425Y-103915772D01*
X150393367Y-103900226D01*
X150408912Y-103881284D01*
X150414042Y-103871686D01*
X150417844Y-103865996D01*
X150450674Y-103816861D01*
X150492461Y-103775074D01*
X150541597Y-103742243D01*
X150596193Y-103719628D01*
X150654153Y-103708100D01*
X150713247Y-103708100D01*
X150771207Y-103719628D01*
X150825803Y-103742243D01*
X150874939Y-103775074D01*
X150916726Y-103816861D01*
X150949557Y-103865997D01*
X150972172Y-103920593D01*
X150983700Y-103978553D01*
X150983700Y-104037647D01*
X150972172Y-104095607D01*
X150949557Y-104150203D01*
X150916726Y-104199339D01*
X150874939Y-104241126D01*
X150825803Y-104273957D01*
X150771207Y-104296572D01*
X150713247Y-104308100D01*
X150654153Y-104308100D01*
X150596193Y-104296572D01*
X150541597Y-104273957D01*
X150492461Y-104241126D01*
X150450674Y-104199339D01*
X150417843Y-104150203D01*
X150395228Y-104095607D01*
X150384620Y-104042273D01*
X150377506Y-104018824D01*
X150365955Y-103997214D01*
X150350409Y-103978272D01*
X150331467Y-103962727D01*
X150309856Y-103951176D01*
X150286407Y-103944063D01*
X150262021Y-103941661D01*
X150237634Y-103944063D01*
X150214185Y-103951177D01*
X150192575Y-103962728D01*
X150173633Y-103978274D01*
X150158088Y-103997216D01*
X150152958Y-104006814D01*
X150149157Y-104012502D01*
X150149157Y-104012503D01*
X150116326Y-104061639D01*
X150074539Y-104103426D01*
X150025403Y-104136257D01*
X149970807Y-104158872D01*
X149912847Y-104170400D01*
X149853753Y-104170400D01*
X149795793Y-104158872D01*
X149741197Y-104136257D01*
X149692061Y-104103426D01*
X149650274Y-104061639D01*
X149617443Y-104012503D01*
X149594828Y-103957907D01*
X149583300Y-103899947D01*
X149583300Y-103840853D01*
X149594828Y-103782893D01*
X149617443Y-103728297D01*
X149650274Y-103679161D01*
X149692061Y-103637374D01*
X149741197Y-103604543D01*
X149795793Y-103581928D01*
X149795796Y-103581927D01*
X149796065Y-103581816D01*
X149818952Y-103574873D01*
X149840563Y-103563321D01*
X149859505Y-103547776D01*
X149875050Y-103528833D01*
X149886601Y-103507222D01*
X149891029Y-103492623D01*
X149896801Y-103511648D01*
X149896801Y-103511648D01*
G37*
G36*
X90276000Y-103937000D02*
X87276000Y-103937000D01*
X87276000Y-102413000D01*
X90276000Y-102413000D01*
X90276000Y-103937000D01*
X90276000Y-103937000D01*
G37*
G36*
X149987607Y-102764328D02*
X150042203Y-102786943D01*
X150091339Y-102819774D01*
X150133126Y-102861561D01*
X150165957Y-102910697D01*
X150188572Y-102965293D01*
X150200100Y-103023253D01*
X150200100Y-103082347D01*
X150188572Y-103140307D01*
X150165957Y-103194903D01*
X150133126Y-103244039D01*
X150091339Y-103285826D01*
X150042203Y-103318657D01*
X149987607Y-103341272D01*
X149987604Y-103341273D01*
X149987335Y-103341384D01*
X149964448Y-103348327D01*
X149942837Y-103359879D01*
X149923895Y-103375424D01*
X149908350Y-103394367D01*
X149896799Y-103415978D01*
X149892371Y-103430577D01*
X149886599Y-103411552D01*
X149875047Y-103389941D01*
X149859502Y-103370999D01*
X149840559Y-103355454D01*
X149818950Y-103343904D01*
X149812598Y-103341273D01*
X149812593Y-103341272D01*
X149757997Y-103318657D01*
X149708861Y-103285826D01*
X149667074Y-103244039D01*
X149634243Y-103194903D01*
X149611628Y-103140307D01*
X149600100Y-103082347D01*
X149600100Y-103023253D01*
X149611628Y-102965293D01*
X149634243Y-102910697D01*
X149667074Y-102861561D01*
X149708861Y-102819774D01*
X149757997Y-102786943D01*
X149812593Y-102764328D01*
X149870553Y-102752800D01*
X149929647Y-102752800D01*
X149987607Y-102764328D01*
X149987607Y-102764328D01*
G37*
G36*
X166515907Y-102440828D02*
X166570503Y-102463443D01*
X166619639Y-102496274D01*
X166661426Y-102538061D01*
X166694257Y-102587197D01*
X166716872Y-102641793D01*
X166728400Y-102699753D01*
X166728400Y-102758847D01*
X166716872Y-102816807D01*
X166694257Y-102871403D01*
X166661426Y-102920539D01*
X166619639Y-102962326D01*
X166570503Y-102995157D01*
X166515907Y-103017772D01*
X166457947Y-103029300D01*
X166398853Y-103029300D01*
X166340893Y-103017772D01*
X166286297Y-102995157D01*
X166237161Y-102962326D01*
X166195374Y-102920539D01*
X166162543Y-102871403D01*
X166162543Y-102871402D01*
X166162272Y-102870997D01*
X166151178Y-102850242D01*
X166135632Y-102831300D01*
X166116690Y-102815755D01*
X166095079Y-102804204D01*
X166071630Y-102797091D01*
X166047244Y-102794689D01*
X166022857Y-102797091D01*
X165999408Y-102804205D01*
X165977798Y-102815756D01*
X165958856Y-102831302D01*
X165943311Y-102850244D01*
X165931760Y-102871855D01*
X165924648Y-102895299D01*
X165916472Y-102936407D01*
X165893857Y-102991003D01*
X165861026Y-103040139D01*
X165819239Y-103081926D01*
X165770103Y-103114757D01*
X165715507Y-103137372D01*
X165657547Y-103148900D01*
X165598453Y-103148900D01*
X165540493Y-103137372D01*
X165485897Y-103114757D01*
X165436761Y-103081926D01*
X165394974Y-103040139D01*
X165362143Y-102991003D01*
X165339528Y-102936407D01*
X165328000Y-102878447D01*
X165328000Y-102819353D01*
X165339528Y-102761393D01*
X165362143Y-102706797D01*
X165394974Y-102657661D01*
X165436761Y-102615874D01*
X165485897Y-102583043D01*
X165540493Y-102560428D01*
X165598453Y-102548900D01*
X165657547Y-102548900D01*
X165715507Y-102560428D01*
X165770103Y-102583043D01*
X165819239Y-102615874D01*
X165861026Y-102657661D01*
X165889150Y-102699753D01*
X165894128Y-102707203D01*
X165905222Y-102727958D01*
X165920768Y-102746900D01*
X165939710Y-102762445D01*
X165961321Y-102773996D01*
X165984770Y-102781109D01*
X166009156Y-102783511D01*
X166033543Y-102781109D01*
X166056992Y-102773995D01*
X166078602Y-102762444D01*
X166097544Y-102746898D01*
X166113089Y-102727956D01*
X166124640Y-102706345D01*
X166131753Y-102682897D01*
X166139928Y-102641793D01*
X166162543Y-102587197D01*
X166195374Y-102538061D01*
X166237161Y-102496274D01*
X166286297Y-102463443D01*
X166340893Y-102440828D01*
X166398853Y-102429300D01*
X166457947Y-102429300D01*
X166515907Y-102440828D01*
X166515907Y-102440828D01*
G37*
G36*
X131144318Y-101509411D02*
X131216767Y-101523822D01*
X131273303Y-101547240D01*
X131353257Y-101580358D01*
X131476100Y-101662439D01*
X131580561Y-101766900D01*
X131662642Y-101889743D01*
X131674976Y-101919520D01*
X131719178Y-102026233D01*
X131748000Y-102171131D01*
X131748000Y-102318869D01*
X131719178Y-102463767D01*
X131698733Y-102513125D01*
X131662642Y-102600257D01*
X131580561Y-102723100D01*
X131476100Y-102827561D01*
X131353257Y-102909642D01*
X131288640Y-102936407D01*
X131216767Y-102966178D01*
X131144318Y-102980589D01*
X131071870Y-102995000D01*
X130924130Y-102995000D01*
X130851682Y-102980589D01*
X130779233Y-102966178D01*
X130707360Y-102936407D01*
X130642743Y-102909642D01*
X130519900Y-102827561D01*
X130415439Y-102723100D01*
X130333358Y-102600257D01*
X130297267Y-102513125D01*
X130276822Y-102463767D01*
X130248000Y-102318869D01*
X130248000Y-102171131D01*
X130276822Y-102026233D01*
X130321024Y-101919520D01*
X130333358Y-101889743D01*
X130415439Y-101766900D01*
X130519900Y-101662439D01*
X130642743Y-101580358D01*
X130722697Y-101547240D01*
X130779233Y-101523822D01*
X130851682Y-101509411D01*
X130924130Y-101495000D01*
X131071870Y-101495000D01*
X131144318Y-101509411D01*
X131144318Y-101509411D01*
G37*
G36*
X100082712Y-101045565D02*
X100167295Y-101053896D01*
X100271323Y-101085453D01*
X100330088Y-101103279D01*
X100480112Y-101183468D01*
X100611612Y-101291388D01*
X100719532Y-101422888D01*
X100799721Y-101572912D01*
X100799722Y-101572916D01*
X100849104Y-101735705D01*
X100865778Y-101905000D01*
X100849104Y-102074295D01*
X100844685Y-102088861D01*
X100799721Y-102237088D01*
X100719532Y-102387112D01*
X100611612Y-102518612D01*
X100480112Y-102626532D01*
X100330088Y-102706721D01*
X100287727Y-102719571D01*
X100167295Y-102756104D01*
X100113594Y-102761393D01*
X100040421Y-102768600D01*
X99955579Y-102768600D01*
X99882406Y-102761393D01*
X99828705Y-102756104D01*
X99708273Y-102719571D01*
X99665912Y-102706721D01*
X99515888Y-102626532D01*
X99384388Y-102518612D01*
X99276468Y-102387112D01*
X99196279Y-102237088D01*
X99151315Y-102088861D01*
X99146896Y-102074295D01*
X99130222Y-101905000D01*
X99146896Y-101735705D01*
X99196278Y-101572916D01*
X99196279Y-101572912D01*
X99276468Y-101422888D01*
X99384388Y-101291388D01*
X99515888Y-101183468D01*
X99665912Y-101103279D01*
X99724677Y-101085453D01*
X99828705Y-101053896D01*
X99913288Y-101045565D01*
X99955579Y-101041400D01*
X100040421Y-101041400D01*
X100082712Y-101045565D01*
X100082712Y-101045565D01*
G37*
G36*
X102622712Y-101045565D02*
X102707295Y-101053896D01*
X102811323Y-101085453D01*
X102870088Y-101103279D01*
X103020112Y-101183468D01*
X103151612Y-101291388D01*
X103259532Y-101422888D01*
X103339721Y-101572912D01*
X103339722Y-101572916D01*
X103389104Y-101735705D01*
X103405778Y-101905000D01*
X103389104Y-102074295D01*
X103384685Y-102088861D01*
X103339721Y-102237088D01*
X103259532Y-102387112D01*
X103151612Y-102518612D01*
X103020112Y-102626532D01*
X102870088Y-102706721D01*
X102827727Y-102719571D01*
X102707295Y-102756104D01*
X102653594Y-102761393D01*
X102580421Y-102768600D01*
X102495579Y-102768600D01*
X102422406Y-102761393D01*
X102368705Y-102756104D01*
X102248273Y-102719571D01*
X102205912Y-102706721D01*
X102055888Y-102626532D01*
X101924388Y-102518612D01*
X101816468Y-102387112D01*
X101736279Y-102237088D01*
X101691315Y-102088861D01*
X101686896Y-102074295D01*
X101670222Y-101905000D01*
X101686896Y-101735705D01*
X101736278Y-101572916D01*
X101736279Y-101572912D01*
X101816468Y-101422888D01*
X101924388Y-101291388D01*
X102055888Y-101183468D01*
X102205912Y-101103279D01*
X102264677Y-101085453D01*
X102368705Y-101053896D01*
X102453288Y-101045565D01*
X102495579Y-101041400D01*
X102580421Y-101041400D01*
X102622712Y-101045565D01*
X102622712Y-101045565D01*
G37*
G36*
X147624407Y-101991628D02*
X147679003Y-102014243D01*
X147728139Y-102047074D01*
X147769926Y-102088861D01*
X147802757Y-102137997D01*
X147825372Y-102192593D01*
X147836900Y-102250553D01*
X147836900Y-102309647D01*
X147825372Y-102367607D01*
X147802757Y-102422203D01*
X147769926Y-102471339D01*
X147728139Y-102513126D01*
X147679003Y-102545957D01*
X147624407Y-102568572D01*
X147566447Y-102580100D01*
X147507353Y-102580100D01*
X147449393Y-102568572D01*
X147394797Y-102545957D01*
X147345661Y-102513126D01*
X147303874Y-102471339D01*
X147271043Y-102422203D01*
X147248428Y-102367607D01*
X147236900Y-102309647D01*
X147236900Y-102250553D01*
X147248428Y-102192593D01*
X147271043Y-102137997D01*
X147303874Y-102088861D01*
X147345661Y-102047074D01*
X147394797Y-102014243D01*
X147449393Y-101991628D01*
X147507353Y-101980100D01*
X147566447Y-101980100D01*
X147624407Y-101991628D01*
X147624407Y-101991628D01*
G37*
G36*
X177164630Y-100607299D02*
X177324855Y-100655903D01*
X177472520Y-100734831D01*
X177601949Y-100841051D01*
X177708169Y-100970480D01*
X177787097Y-101118145D01*
X177835701Y-101278370D01*
X177852112Y-101445000D01*
X177835701Y-101611630D01*
X177787097Y-101771855D01*
X177708169Y-101919520D01*
X177601949Y-102048949D01*
X177472520Y-102155169D01*
X177324855Y-102234097D01*
X177164630Y-102282701D01*
X177039752Y-102295000D01*
X176956248Y-102295000D01*
X176831370Y-102282701D01*
X176671145Y-102234097D01*
X176523480Y-102155169D01*
X176394051Y-102048949D01*
X176287831Y-101919520D01*
X176208903Y-101771855D01*
X176160299Y-101611630D01*
X176143888Y-101445000D01*
X176160299Y-101278370D01*
X176208903Y-101118145D01*
X176287831Y-100970480D01*
X176394051Y-100841051D01*
X176523480Y-100734831D01*
X176671145Y-100655903D01*
X176831370Y-100607299D01*
X176956248Y-100595000D01*
X177039752Y-100595000D01*
X177164630Y-100607299D01*
X177164630Y-100607299D01*
G37*
G36*
X168628107Y-101454128D02*
X168682703Y-101476743D01*
X168731839Y-101509574D01*
X168773626Y-101551361D01*
X168806457Y-101600497D01*
X168829072Y-101655093D01*
X168840600Y-101713053D01*
X168840600Y-101772147D01*
X168829072Y-101830107D01*
X168806457Y-101884703D01*
X168773626Y-101933839D01*
X168731839Y-101975626D01*
X168682703Y-102008457D01*
X168628107Y-102031072D01*
X168570147Y-102042600D01*
X168511053Y-102042600D01*
X168453093Y-102031072D01*
X168398497Y-102008457D01*
X168349361Y-101975626D01*
X168307574Y-101933839D01*
X168274743Y-101884703D01*
X168252128Y-101830107D01*
X168240600Y-101772147D01*
X168240600Y-101713053D01*
X168252128Y-101655093D01*
X168274743Y-101600497D01*
X168307574Y-101551361D01*
X168349361Y-101509574D01*
X168398497Y-101476743D01*
X168453093Y-101454128D01*
X168511053Y-101442600D01*
X168570147Y-101442600D01*
X168628107Y-101454128D01*
X168628107Y-101454128D01*
G37*
G36*
X137847407Y-101316928D02*
X137902003Y-101339543D01*
X137951139Y-101372374D01*
X137992926Y-101414161D01*
X138025757Y-101463297D01*
X138048372Y-101517893D01*
X138059900Y-101575853D01*
X138059900Y-101634947D01*
X138048372Y-101692907D01*
X138025757Y-101747503D01*
X137992926Y-101796639D01*
X137951139Y-101838426D01*
X137902003Y-101871257D01*
X137847407Y-101893872D01*
X137789447Y-101905400D01*
X137730353Y-101905400D01*
X137672393Y-101893872D01*
X137617797Y-101871257D01*
X137568661Y-101838426D01*
X137526874Y-101796639D01*
X137494043Y-101747503D01*
X137471428Y-101692907D01*
X137459900Y-101634947D01*
X137459900Y-101575853D01*
X137471428Y-101517893D01*
X137494043Y-101463297D01*
X137526874Y-101414161D01*
X137568661Y-101372374D01*
X137617797Y-101339543D01*
X137672393Y-101316928D01*
X137730353Y-101305400D01*
X137789447Y-101305400D01*
X137847407Y-101316928D01*
X137847407Y-101316928D01*
G37*
G36*
X167782307Y-100826528D02*
X167836903Y-100849143D01*
X167886039Y-100881974D01*
X167927826Y-100923761D01*
X167960657Y-100972897D01*
X167983272Y-101027493D01*
X167994800Y-101085453D01*
X167994800Y-101144547D01*
X167983272Y-101202507D01*
X167960657Y-101257103D01*
X167927826Y-101306239D01*
X167886039Y-101348026D01*
X167836903Y-101380857D01*
X167782307Y-101403472D01*
X167724347Y-101415000D01*
X167665253Y-101415000D01*
X167607293Y-101403472D01*
X167552697Y-101380857D01*
X167503561Y-101348026D01*
X167461774Y-101306239D01*
X167428943Y-101257103D01*
X167406328Y-101202507D01*
X167394800Y-101144547D01*
X167394800Y-101085453D01*
X167406328Y-101027493D01*
X167428943Y-100972897D01*
X167461774Y-100923761D01*
X167503561Y-100881974D01*
X167552697Y-100849143D01*
X167607293Y-100826528D01*
X167665253Y-100815000D01*
X167724347Y-100815000D01*
X167782307Y-100826528D01*
X167782307Y-100826528D01*
G37*
G36*
X90276000Y-101397000D02*
X87276000Y-101397000D01*
X87276000Y-99873000D01*
X90276000Y-99873000D01*
X90276000Y-101397000D01*
X90276000Y-101397000D01*
G37*
G36*
X170767007Y-100326528D02*
X170821603Y-100349143D01*
X170870739Y-100381974D01*
X170912526Y-100423761D01*
X170945357Y-100472897D01*
X170967972Y-100527493D01*
X170979500Y-100585453D01*
X170979500Y-100644547D01*
X170967972Y-100702507D01*
X170945357Y-100757103D01*
X170912526Y-100806239D01*
X170870739Y-100848026D01*
X170821603Y-100880857D01*
X170767007Y-100903472D01*
X170709047Y-100915000D01*
X170649953Y-100915000D01*
X170591993Y-100903472D01*
X170537397Y-100880857D01*
X170488261Y-100848026D01*
X170446474Y-100806239D01*
X170413643Y-100757103D01*
X170391028Y-100702507D01*
X170379500Y-100644547D01*
X170379500Y-100585453D01*
X170391028Y-100527493D01*
X170413643Y-100472897D01*
X170446474Y-100423761D01*
X170488261Y-100381974D01*
X170537397Y-100349143D01*
X170591993Y-100326528D01*
X170649953Y-100315000D01*
X170709047Y-100315000D01*
X170767007Y-100326528D01*
X170767007Y-100326528D01*
G37*
G36*
X167212207Y-100120428D02*
X167266803Y-100143043D01*
X167315939Y-100175874D01*
X167357726Y-100217661D01*
X167390557Y-100266797D01*
X167413172Y-100321393D01*
X167424700Y-100379353D01*
X167424700Y-100438447D01*
X167413172Y-100496407D01*
X167390557Y-100551003D01*
X167357726Y-100600139D01*
X167315939Y-100641926D01*
X167266803Y-100674757D01*
X167212207Y-100697372D01*
X167154247Y-100708900D01*
X167095153Y-100708900D01*
X167037193Y-100697372D01*
X166982597Y-100674757D01*
X166933461Y-100641926D01*
X166891674Y-100600139D01*
X166858843Y-100551003D01*
X166836228Y-100496407D01*
X166824700Y-100438447D01*
X166824700Y-100379353D01*
X166836228Y-100321393D01*
X166858843Y-100266797D01*
X166891674Y-100217661D01*
X166933461Y-100175874D01*
X166982597Y-100143043D01*
X167037193Y-100120428D01*
X167095153Y-100108900D01*
X167154247Y-100108900D01*
X167212207Y-100120428D01*
X167212207Y-100120428D01*
G37*
G36*
X96167307Y-99872228D02*
X96221903Y-99894843D01*
X96271039Y-99927674D01*
X96312826Y-99969461D01*
X96345657Y-100018597D01*
X96368272Y-100073193D01*
X96379800Y-100131153D01*
X96379800Y-100190247D01*
X96368272Y-100248207D01*
X96345657Y-100302803D01*
X96312826Y-100351939D01*
X96271039Y-100393726D01*
X96221903Y-100426557D01*
X96167307Y-100449172D01*
X96109347Y-100460700D01*
X96050253Y-100460700D01*
X95992293Y-100449172D01*
X95937697Y-100426557D01*
X95888561Y-100393726D01*
X95846774Y-100351939D01*
X95813943Y-100302803D01*
X95791328Y-100248207D01*
X95779800Y-100190247D01*
X95779800Y-100131153D01*
X95791328Y-100073193D01*
X95813943Y-100018597D01*
X95846774Y-99969461D01*
X95888561Y-99927674D01*
X95937697Y-99894843D01*
X95992293Y-99872228D01*
X96050253Y-99860700D01*
X96109347Y-99860700D01*
X96167307Y-99872228D01*
X96167307Y-99872228D01*
G37*
G36*
X100861600Y-100228600D02*
X99134400Y-100228600D01*
X99134400Y-98501400D01*
X100861600Y-98501400D01*
X100861600Y-100228600D01*
X100861600Y-100228600D01*
G37*
G36*
X102622712Y-98505565D02*
X102707295Y-98513896D01*
X102827727Y-98550429D01*
X102870088Y-98563279D01*
X103020112Y-98643468D01*
X103151612Y-98751388D01*
X103259532Y-98882888D01*
X103339721Y-99032912D01*
X103339722Y-99032916D01*
X103389104Y-99195705D01*
X103405778Y-99365000D01*
X103389104Y-99534295D01*
X103364571Y-99615168D01*
X103339721Y-99697088D01*
X103259532Y-99847112D01*
X103151612Y-99978612D01*
X103020112Y-100086532D01*
X102870088Y-100166721D01*
X102839914Y-100175874D01*
X102707295Y-100216104D01*
X102622712Y-100224435D01*
X102580421Y-100228600D01*
X102495579Y-100228600D01*
X102453288Y-100224435D01*
X102368705Y-100216104D01*
X102236086Y-100175874D01*
X102205912Y-100166721D01*
X102055888Y-100086532D01*
X101924388Y-99978612D01*
X101816468Y-99847112D01*
X101736279Y-99697088D01*
X101711429Y-99615168D01*
X101686896Y-99534295D01*
X101670222Y-99365000D01*
X101686896Y-99195705D01*
X101736278Y-99032916D01*
X101736279Y-99032912D01*
X101816468Y-98882888D01*
X101924388Y-98751388D01*
X102055888Y-98643468D01*
X102205912Y-98563279D01*
X102248273Y-98550429D01*
X102368705Y-98513896D01*
X102453288Y-98505565D01*
X102495579Y-98501400D01*
X102580421Y-98501400D01*
X102622712Y-98505565D01*
X102622712Y-98505565D01*
G37*
G36*
X172253307Y-99349728D02*
X172307903Y-99372343D01*
X172357039Y-99405174D01*
X172398826Y-99446961D01*
X172431657Y-99496097D01*
X172454272Y-99550693D01*
X172465800Y-99608653D01*
X172465800Y-99667747D01*
X172454272Y-99725707D01*
X172431657Y-99780303D01*
X172398826Y-99829439D01*
X172357039Y-99871226D01*
X172307903Y-99904057D01*
X172253307Y-99926672D01*
X172195347Y-99938200D01*
X172136253Y-99938200D01*
X172078293Y-99926672D01*
X172023697Y-99904057D01*
X171974561Y-99871226D01*
X171932774Y-99829439D01*
X171899943Y-99780303D01*
X171877328Y-99725707D01*
X171865800Y-99667747D01*
X171865800Y-99608653D01*
X171877328Y-99550693D01*
X171899943Y-99496097D01*
X171932774Y-99446961D01*
X171974561Y-99405174D01*
X172023697Y-99372343D01*
X172078293Y-99349728D01*
X172136253Y-99338200D01*
X172195347Y-99338200D01*
X172253307Y-99349728D01*
X172253307Y-99349728D01*
G37*
G36*
X177164630Y-98067299D02*
X177324855Y-98115903D01*
X177472520Y-98194831D01*
X177601949Y-98301051D01*
X177708169Y-98430480D01*
X177787097Y-98578145D01*
X177835701Y-98738370D01*
X177852112Y-98905000D01*
X177835701Y-99071630D01*
X177787097Y-99231855D01*
X177708169Y-99379520D01*
X177601949Y-99508949D01*
X177472520Y-99615169D01*
X177324855Y-99694097D01*
X177164630Y-99742701D01*
X177039752Y-99755000D01*
X176956248Y-99755000D01*
X176831370Y-99742701D01*
X176671145Y-99694097D01*
X176523480Y-99615169D01*
X176394051Y-99508949D01*
X176287831Y-99379520D01*
X176208903Y-99231855D01*
X176160299Y-99071630D01*
X176143888Y-98905000D01*
X176160299Y-98738370D01*
X176208903Y-98578145D01*
X176287831Y-98430480D01*
X176394051Y-98301051D01*
X176523480Y-98194831D01*
X176671145Y-98115903D01*
X176831370Y-98067299D01*
X176956248Y-98055000D01*
X177039752Y-98055000D01*
X177164630Y-98067299D01*
X177164630Y-98067299D01*
G37*
G36*
X90276000Y-98857000D02*
X87276000Y-98857000D01*
X87276000Y-97333000D01*
X90276000Y-97333000D01*
X90276000Y-98857000D01*
X90276000Y-98857000D01*
G37*
G36*
X170771907Y-98007628D02*
X170826503Y-98030243D01*
X170875639Y-98063074D01*
X170917426Y-98104861D01*
X170950257Y-98153997D01*
X170972872Y-98208593D01*
X170984400Y-98266553D01*
X170984400Y-98325647D01*
X170972872Y-98383607D01*
X170950257Y-98438203D01*
X170917426Y-98487339D01*
X170875639Y-98529126D01*
X170826503Y-98561957D01*
X170771907Y-98584572D01*
X170713947Y-98596100D01*
X170654853Y-98596100D01*
X170596893Y-98584572D01*
X170542297Y-98561957D01*
X170493161Y-98529126D01*
X170451374Y-98487339D01*
X170418543Y-98438203D01*
X170395928Y-98383607D01*
X170384400Y-98325647D01*
X170384400Y-98266553D01*
X170395928Y-98208593D01*
X170418543Y-98153997D01*
X170451374Y-98104861D01*
X170493161Y-98063074D01*
X170542297Y-98030243D01*
X170596893Y-98007628D01*
X170654853Y-97996100D01*
X170713947Y-97996100D01*
X170771907Y-98007628D01*
X170771907Y-98007628D01*
G37*
G36*
X168644307Y-97918228D02*
X168698903Y-97940843D01*
X168748039Y-97973674D01*
X168789826Y-98015461D01*
X168822657Y-98064597D01*
X168845272Y-98119193D01*
X168856800Y-98177153D01*
X168856800Y-98236247D01*
X168845272Y-98294207D01*
X168822657Y-98348803D01*
X168789826Y-98397939D01*
X168748039Y-98439726D01*
X168698903Y-98472557D01*
X168644307Y-98495172D01*
X168586347Y-98506700D01*
X168527253Y-98506700D01*
X168469293Y-98495172D01*
X168414697Y-98472557D01*
X168365561Y-98439726D01*
X168323774Y-98397939D01*
X168290943Y-98348803D01*
X168268328Y-98294207D01*
X168256800Y-98236247D01*
X168256800Y-98177153D01*
X168268328Y-98119193D01*
X168290943Y-98064597D01*
X168323774Y-98015461D01*
X168365561Y-97973674D01*
X168414697Y-97940843D01*
X168469293Y-97918228D01*
X168527253Y-97906700D01*
X168586347Y-97906700D01*
X168644307Y-97918228D01*
X168644307Y-97918228D01*
G37*
G36*
X167226407Y-97872328D02*
X167281003Y-97894943D01*
X167330139Y-97927774D01*
X167371926Y-97969561D01*
X167404757Y-98018697D01*
X167427372Y-98073293D01*
X167438900Y-98131253D01*
X167438900Y-98190347D01*
X167427372Y-98248307D01*
X167404757Y-98302903D01*
X167371926Y-98352039D01*
X167330139Y-98393826D01*
X167281003Y-98426657D01*
X167226407Y-98449272D01*
X167168447Y-98460800D01*
X167109353Y-98460800D01*
X167051393Y-98449272D01*
X166996797Y-98426657D01*
X166947661Y-98393826D01*
X166905874Y-98352039D01*
X166873043Y-98302903D01*
X166850428Y-98248307D01*
X166838900Y-98190347D01*
X166838900Y-98131253D01*
X166850428Y-98073293D01*
X166873043Y-98018697D01*
X166905874Y-97969561D01*
X166947661Y-97927774D01*
X166996797Y-97894943D01*
X167051393Y-97872328D01*
X167109353Y-97860800D01*
X167168447Y-97860800D01*
X167226407Y-97872328D01*
X167226407Y-97872328D01*
G37*
G36*
X131144318Y-96629411D02*
X131216767Y-96643822D01*
X131273303Y-96667240D01*
X131353257Y-96700358D01*
X131476100Y-96782439D01*
X131580561Y-96886900D01*
X131662642Y-97009743D01*
X131719178Y-97146234D01*
X131748000Y-97291130D01*
X131748000Y-97438870D01*
X131719178Y-97583766D01*
X131662642Y-97720257D01*
X131580561Y-97843100D01*
X131476100Y-97947561D01*
X131353257Y-98029642D01*
X131292037Y-98055000D01*
X131216767Y-98086178D01*
X131144318Y-98100589D01*
X131071870Y-98115000D01*
X130924130Y-98115000D01*
X130851682Y-98100589D01*
X130779233Y-98086178D01*
X130703963Y-98055000D01*
X130642743Y-98029642D01*
X130519900Y-97947561D01*
X130415439Y-97843100D01*
X130333358Y-97720257D01*
X130276822Y-97583766D01*
X130248000Y-97438870D01*
X130248000Y-97291130D01*
X130276822Y-97146234D01*
X130333358Y-97009743D01*
X130415439Y-96886900D01*
X130519900Y-96782439D01*
X130642743Y-96700358D01*
X130722697Y-96667240D01*
X130779233Y-96643822D01*
X130851682Y-96629411D01*
X130924130Y-96615000D01*
X131071870Y-96615000D01*
X131144318Y-96629411D01*
X131144318Y-96629411D01*
G37*
G36*
X106291407Y-97223528D02*
X106346003Y-97246143D01*
X106395139Y-97278974D01*
X106436926Y-97320761D01*
X106469757Y-97369897D01*
X106492372Y-97424493D01*
X106503900Y-97482453D01*
X106503900Y-97541547D01*
X106492372Y-97599507D01*
X106469757Y-97654103D01*
X106436926Y-97703239D01*
X106395139Y-97745026D01*
X106346003Y-97777857D01*
X106291407Y-97800472D01*
X106233447Y-97812000D01*
X106174353Y-97812000D01*
X106116393Y-97800472D01*
X106061797Y-97777857D01*
X106012661Y-97745026D01*
X105970874Y-97703239D01*
X105938043Y-97654103D01*
X105915428Y-97599507D01*
X105903900Y-97541547D01*
X105903900Y-97482453D01*
X105915428Y-97424493D01*
X105938043Y-97369897D01*
X105970874Y-97320761D01*
X106012661Y-97278974D01*
X106061797Y-97246143D01*
X106116393Y-97223528D01*
X106174353Y-97212000D01*
X106233447Y-97212000D01*
X106291407Y-97223528D01*
X106291407Y-97223528D01*
G37*
G36*
X90931507Y-96850628D02*
X90986103Y-96873243D01*
X91035239Y-96906074D01*
X91077026Y-96947861D01*
X91109857Y-96996997D01*
X91132472Y-97051593D01*
X91144000Y-97109553D01*
X91144000Y-97168647D01*
X91132472Y-97226607D01*
X91109857Y-97281203D01*
X91077026Y-97330339D01*
X91035239Y-97372126D01*
X90986103Y-97404957D01*
X90931507Y-97427572D01*
X90873547Y-97439100D01*
X90814453Y-97439100D01*
X90756493Y-97427572D01*
X90701897Y-97404957D01*
X90652761Y-97372126D01*
X90610974Y-97330339D01*
X90578143Y-97281203D01*
X90555528Y-97226607D01*
X90544000Y-97168647D01*
X90544000Y-97109553D01*
X90555528Y-97051593D01*
X90578143Y-96996997D01*
X90610974Y-96947861D01*
X90652761Y-96906074D01*
X90701897Y-96873243D01*
X90756493Y-96850628D01*
X90814453Y-96839100D01*
X90873547Y-96839100D01*
X90931507Y-96850628D01*
X90931507Y-96850628D01*
G37*
G36*
X177848000Y-97215000D02*
X176148000Y-97215000D01*
X176148000Y-95515000D01*
X177848000Y-95515000D01*
X177848000Y-97215000D01*
X177848000Y-97215000D01*
G37*
G36*
X170797707Y-96326528D02*
X170852303Y-96349143D01*
X170901439Y-96381974D01*
X170943226Y-96423761D01*
X170976057Y-96472897D01*
X170998672Y-96527493D01*
X171010200Y-96585453D01*
X171010200Y-96644547D01*
X170998672Y-96702507D01*
X170976057Y-96757103D01*
X170943226Y-96806239D01*
X170901439Y-96848026D01*
X170852303Y-96880857D01*
X170797707Y-96903472D01*
X170739747Y-96915000D01*
X170680653Y-96915000D01*
X170622693Y-96903472D01*
X170568097Y-96880857D01*
X170518961Y-96848026D01*
X170477174Y-96806239D01*
X170444343Y-96757103D01*
X170421728Y-96702507D01*
X170410200Y-96644547D01*
X170410200Y-96585453D01*
X170421728Y-96527493D01*
X170444343Y-96472897D01*
X170477174Y-96423761D01*
X170518961Y-96381974D01*
X170568097Y-96349143D01*
X170622693Y-96326528D01*
X170680653Y-96315000D01*
X170739747Y-96315000D01*
X170797707Y-96326528D01*
X170797707Y-96326528D01*
G37*
G36*
X96585707Y-96204228D02*
X96640303Y-96226843D01*
X96689439Y-96259674D01*
X96731226Y-96301461D01*
X96764057Y-96350597D01*
X96786672Y-96405193D01*
X96798200Y-96463153D01*
X96798200Y-96522247D01*
X96786672Y-96580207D01*
X96764057Y-96634803D01*
X96731226Y-96683939D01*
X96689439Y-96725726D01*
X96640303Y-96758557D01*
X96585707Y-96781172D01*
X96527747Y-96792700D01*
X96468653Y-96792700D01*
X96410693Y-96781172D01*
X96356097Y-96758557D01*
X96306961Y-96725726D01*
X96265174Y-96683939D01*
X96232343Y-96634803D01*
X96209728Y-96580207D01*
X96198200Y-96522247D01*
X96198200Y-96463153D01*
X96209728Y-96405193D01*
X96232343Y-96350597D01*
X96265174Y-96301461D01*
X96306961Y-96259674D01*
X96356097Y-96226843D01*
X96410693Y-96204228D01*
X96468653Y-96192700D01*
X96527747Y-96192700D01*
X96585707Y-96204228D01*
X96585707Y-96204228D01*
G37*
G36*
X168622007Y-96024728D02*
X168676603Y-96047343D01*
X168725739Y-96080174D01*
X168767526Y-96121961D01*
X168800357Y-96171097D01*
X168822972Y-96225693D01*
X168834500Y-96283653D01*
X168834500Y-96342747D01*
X168822972Y-96400707D01*
X168800357Y-96455303D01*
X168767526Y-96504439D01*
X168725739Y-96546226D01*
X168676603Y-96579057D01*
X168622007Y-96601672D01*
X168564047Y-96613200D01*
X168504953Y-96613200D01*
X168446993Y-96601672D01*
X168392397Y-96579057D01*
X168343261Y-96546226D01*
X168301474Y-96504439D01*
X168268643Y-96455303D01*
X168246028Y-96400707D01*
X168234500Y-96342747D01*
X168234500Y-96283653D01*
X168246028Y-96225693D01*
X168268643Y-96171097D01*
X168301474Y-96121961D01*
X168343261Y-96080174D01*
X168392397Y-96047343D01*
X168446993Y-96024728D01*
X168504953Y-96013200D01*
X168564047Y-96013200D01*
X168622007Y-96024728D01*
X168622007Y-96024728D01*
G37*
G36*
X90276000Y-96317000D02*
X87276000Y-96317000D01*
X87276000Y-94793000D01*
X90276000Y-94793000D01*
X90276000Y-96317000D01*
X90276000Y-96317000D01*
G37*
G36*
X166972207Y-95713528D02*
X167026803Y-95736143D01*
X167075939Y-95768974D01*
X167117726Y-95810761D01*
X167150557Y-95859897D01*
X167171594Y-95910684D01*
X167183141Y-95932287D01*
X167198687Y-95951229D01*
X167217629Y-95966775D01*
X167239240Y-95978326D01*
X167262689Y-95985439D01*
X167287075Y-95987841D01*
X167311461Y-95985439D01*
X167334910Y-95978326D01*
X167356521Y-95966775D01*
X167375463Y-95951229D01*
X167391009Y-95932287D01*
X167402552Y-95910693D01*
X167419243Y-95870397D01*
X167452074Y-95821261D01*
X167493861Y-95779474D01*
X167542997Y-95746643D01*
X167597593Y-95724028D01*
X167655553Y-95712500D01*
X167714647Y-95712500D01*
X167772607Y-95724028D01*
X167827203Y-95746643D01*
X167876339Y-95779474D01*
X167918126Y-95821261D01*
X167950957Y-95870397D01*
X167973572Y-95924993D01*
X167985100Y-95982953D01*
X167985100Y-96042047D01*
X167973572Y-96100007D01*
X167950957Y-96154603D01*
X167918126Y-96203739D01*
X167876339Y-96245526D01*
X167827203Y-96278357D01*
X167772607Y-96300972D01*
X167714647Y-96312500D01*
X167655553Y-96312500D01*
X167597593Y-96300972D01*
X167542997Y-96278357D01*
X167493861Y-96245526D01*
X167452074Y-96203739D01*
X167419243Y-96154603D01*
X167398206Y-96103816D01*
X167386659Y-96082213D01*
X167371113Y-96063271D01*
X167352171Y-96047725D01*
X167330560Y-96036174D01*
X167307111Y-96029061D01*
X167282725Y-96026659D01*
X167258339Y-96029061D01*
X167234890Y-96036174D01*
X167213279Y-96047725D01*
X167194337Y-96063271D01*
X167178791Y-96082213D01*
X167167248Y-96103807D01*
X167150557Y-96144103D01*
X167117726Y-96193239D01*
X167075939Y-96235026D01*
X167026803Y-96267857D01*
X166972207Y-96290472D01*
X166914247Y-96302000D01*
X166855153Y-96302000D01*
X166797193Y-96290472D01*
X166742597Y-96267857D01*
X166693461Y-96235026D01*
X166651674Y-96193239D01*
X166618843Y-96144103D01*
X166596228Y-96089507D01*
X166584700Y-96031547D01*
X166584700Y-95972453D01*
X166596228Y-95914493D01*
X166618843Y-95859897D01*
X166651674Y-95810761D01*
X166693461Y-95768974D01*
X166742597Y-95736143D01*
X166797193Y-95713528D01*
X166855153Y-95702000D01*
X166914247Y-95702000D01*
X166972207Y-95713528D01*
X166972207Y-95713528D01*
G37*
G36*
X95373907Y-95473228D02*
X95428503Y-95495843D01*
X95477639Y-95528674D01*
X95519426Y-95570461D01*
X95552257Y-95619597D01*
X95574872Y-95674193D01*
X95586400Y-95732153D01*
X95586400Y-95791247D01*
X95574872Y-95849207D01*
X95552257Y-95903803D01*
X95519426Y-95952939D01*
X95477639Y-95994726D01*
X95428503Y-96027557D01*
X95373907Y-96050172D01*
X95315947Y-96061700D01*
X95256853Y-96061700D01*
X95198893Y-96050172D01*
X95144297Y-96027557D01*
X95095161Y-95994726D01*
X95053374Y-95952939D01*
X95020543Y-95903803D01*
X94997928Y-95849207D01*
X94986400Y-95791247D01*
X94986400Y-95732153D01*
X94997928Y-95674193D01*
X95020543Y-95619597D01*
X95053374Y-95570461D01*
X95095161Y-95528674D01*
X95144297Y-95495843D01*
X95198893Y-95473228D01*
X95256853Y-95461700D01*
X95315947Y-95461700D01*
X95373907Y-95473228D01*
X95373907Y-95473228D01*
G37*
G36*
X91896407Y-95005928D02*
X91951003Y-95028543D01*
X92000139Y-95061374D01*
X92041926Y-95103161D01*
X92074757Y-95152297D01*
X92097372Y-95206893D01*
X92108900Y-95264853D01*
X92108900Y-95323947D01*
X92097372Y-95381907D01*
X92074757Y-95436503D01*
X92041926Y-95485639D01*
X92000139Y-95527426D01*
X91951003Y-95560257D01*
X91896407Y-95582872D01*
X91838447Y-95594400D01*
X91779353Y-95594400D01*
X91721393Y-95582872D01*
X91666797Y-95560257D01*
X91617661Y-95527426D01*
X91575874Y-95485639D01*
X91543043Y-95436503D01*
X91520428Y-95381907D01*
X91508900Y-95323947D01*
X91508900Y-95264853D01*
X91520428Y-95206893D01*
X91543043Y-95152297D01*
X91575874Y-95103161D01*
X91617661Y-95061374D01*
X91666797Y-95028543D01*
X91721393Y-95005928D01*
X91779353Y-94994400D01*
X91838447Y-94994400D01*
X91896407Y-95005928D01*
X91896407Y-95005928D01*
G37*
G36*
X171078707Y-94040728D02*
X171133303Y-94063343D01*
X171182439Y-94096174D01*
X171224226Y-94137961D01*
X171257057Y-94187097D01*
X171279672Y-94241693D01*
X171291200Y-94299653D01*
X171291200Y-94358747D01*
X171279672Y-94416707D01*
X171257057Y-94471303D01*
X171224226Y-94520439D01*
X171182439Y-94562226D01*
X171133303Y-94595057D01*
X171078707Y-94617672D01*
X171020747Y-94629200D01*
X170961653Y-94629200D01*
X170903693Y-94617672D01*
X170849097Y-94595057D01*
X170799961Y-94562226D01*
X170758174Y-94520439D01*
X170725343Y-94471303D01*
X170702728Y-94416707D01*
X170691200Y-94358747D01*
X170691200Y-94299653D01*
X170702728Y-94241693D01*
X170725343Y-94187097D01*
X170758174Y-94137961D01*
X170799961Y-94096174D01*
X170849097Y-94063343D01*
X170903693Y-94040728D01*
X170961653Y-94029200D01*
X171020747Y-94029200D01*
X171078707Y-94040728D01*
X171078707Y-94040728D01*
G37*
G36*
X168636607Y-93826528D02*
X168691203Y-93849143D01*
X168740339Y-93881974D01*
X168782126Y-93923761D01*
X168814957Y-93972897D01*
X168837572Y-94027493D01*
X168849100Y-94085453D01*
X168849100Y-94144547D01*
X168837572Y-94202507D01*
X168814957Y-94257103D01*
X168782126Y-94306239D01*
X168740339Y-94348026D01*
X168691203Y-94380857D01*
X168636607Y-94403472D01*
X168578647Y-94415000D01*
X168519553Y-94415000D01*
X168461593Y-94403472D01*
X168406997Y-94380857D01*
X168357861Y-94348026D01*
X168316074Y-94306239D01*
X168283243Y-94257103D01*
X168260628Y-94202507D01*
X168249100Y-94144547D01*
X168249100Y-94085453D01*
X168260628Y-94027493D01*
X168283243Y-93972897D01*
X168316074Y-93923761D01*
X168357861Y-93881974D01*
X168406997Y-93849143D01*
X168461593Y-93826528D01*
X168519553Y-93815000D01*
X168578647Y-93815000D01*
X168636607Y-93826528D01*
X168636607Y-93826528D01*
G37*
G36*
X118848000Y-94215000D02*
X117148000Y-94215000D01*
X117148000Y-92515000D01*
X118848000Y-92515000D01*
X118848000Y-94215000D01*
X118848000Y-94215000D01*
G37*
G36*
X124848000Y-94215000D02*
X123148000Y-94215000D01*
X123148000Y-92515000D01*
X124848000Y-92515000D01*
X124848000Y-94215000D01*
X124848000Y-94215000D01*
G37*
G36*
X90276000Y-93777000D02*
X87276000Y-93777000D01*
X87276000Y-92253000D01*
X90276000Y-92253000D01*
X90276000Y-93777000D01*
X90276000Y-93777000D01*
G37*
G36*
X107581378Y-89433859D02*
X107945354Y-89584622D01*
X108272929Y-89803501D01*
X108551499Y-90082071D01*
X108770378Y-90409646D01*
X108921141Y-90773622D01*
X108998000Y-91160016D01*
X108998000Y-91553984D01*
X108921141Y-91940378D01*
X108770378Y-92304354D01*
X108551499Y-92631929D01*
X108272929Y-92910499D01*
X107945354Y-93129378D01*
X107581378Y-93280141D01*
X107194984Y-93357000D01*
X106801016Y-93357000D01*
X106414622Y-93280141D01*
X106050646Y-93129378D01*
X105723071Y-92910499D01*
X105444501Y-92631929D01*
X105225622Y-92304354D01*
X105074859Y-91940378D01*
X104998000Y-91553984D01*
X104998000Y-91160016D01*
X105074859Y-90773622D01*
X105225622Y-90409646D01*
X105444501Y-90082071D01*
X105723071Y-89803501D01*
X106050646Y-89584622D01*
X106414622Y-89433859D01*
X106801016Y-89357000D01*
X107194984Y-89357000D01*
X107581378Y-89433859D01*
X107581378Y-89433859D01*
G37*
G36*
X177621378Y-89389859D02*
X177985354Y-89540622D01*
X178312929Y-89759501D01*
X178591499Y-90038071D01*
X178810378Y-90365646D01*
X178961141Y-90729622D01*
X179038000Y-91116016D01*
X179038000Y-91509984D01*
X178961141Y-91896378D01*
X178810378Y-92260354D01*
X178591499Y-92587929D01*
X178312929Y-92866499D01*
X177985354Y-93085378D01*
X177621378Y-93236141D01*
X177234984Y-93313000D01*
X176841016Y-93313000D01*
X176454622Y-93236141D01*
X176090646Y-93085378D01*
X175763071Y-92866499D01*
X175484501Y-92587929D01*
X175265622Y-92260354D01*
X175114859Y-91896378D01*
X175038000Y-91509984D01*
X175038000Y-91116016D01*
X175114859Y-90729622D01*
X175265622Y-90365646D01*
X175484501Y-90038071D01*
X175763071Y-89759501D01*
X176090646Y-89540622D01*
X176454622Y-89389859D01*
X176841016Y-89313000D01*
X177234984Y-89313000D01*
X177621378Y-89389859D01*
X177621378Y-89389859D01*
G37*
G36*
X146732807Y-91610628D02*
X146787403Y-91633243D01*
X146836539Y-91666074D01*
X146878326Y-91707861D01*
X146911157Y-91756997D01*
X146933772Y-91811593D01*
X146945300Y-91869553D01*
X146945300Y-91928647D01*
X146933772Y-91986607D01*
X146911157Y-92041203D01*
X146878326Y-92090339D01*
X146836539Y-92132126D01*
X146787403Y-92164957D01*
X146732807Y-92187572D01*
X146674847Y-92199100D01*
X146615753Y-92199100D01*
X146557793Y-92187572D01*
X146503197Y-92164957D01*
X146454061Y-92132126D01*
X146412274Y-92090339D01*
X146379443Y-92041203D01*
X146356828Y-91986607D01*
X146345300Y-91928647D01*
X146345300Y-91869553D01*
X146356828Y-91811593D01*
X146379443Y-91756997D01*
X146412274Y-91707861D01*
X146454061Y-91666074D01*
X146503197Y-91633243D01*
X146557793Y-91610628D01*
X146615753Y-91599100D01*
X146674847Y-91599100D01*
X146732807Y-91610628D01*
X146732807Y-91610628D01*
G37*
G36*
X152539207Y-91610628D02*
X152593803Y-91633243D01*
X152642939Y-91666074D01*
X152684726Y-91707861D01*
X152717557Y-91756997D01*
X152740172Y-91811593D01*
X152751700Y-91869553D01*
X152751700Y-91928647D01*
X152740172Y-91986607D01*
X152717557Y-92041203D01*
X152684726Y-92090339D01*
X152642939Y-92132126D01*
X152593803Y-92164957D01*
X152539207Y-92187572D01*
X152481247Y-92199100D01*
X152422153Y-92199100D01*
X152364193Y-92187572D01*
X152309597Y-92164957D01*
X152260461Y-92132126D01*
X152218674Y-92090339D01*
X152185843Y-92041203D01*
X152163228Y-91986607D01*
X152151700Y-91928647D01*
X152151700Y-91869553D01*
X152163228Y-91811593D01*
X152185843Y-91756997D01*
X152218674Y-91707861D01*
X152260461Y-91666074D01*
X152309597Y-91633243D01*
X152364193Y-91610628D01*
X152422153Y-91599100D01*
X152481247Y-91599100D01*
X152539207Y-91610628D01*
X152539207Y-91610628D01*
G37*
G36*
X143389007Y-91610628D02*
X143443603Y-91633243D01*
X143492739Y-91666074D01*
X143534526Y-91707861D01*
X143567357Y-91756997D01*
X143589972Y-91811593D01*
X143601500Y-91869553D01*
X143601500Y-91928647D01*
X143589972Y-91986607D01*
X143567357Y-92041203D01*
X143534526Y-92090339D01*
X143492739Y-92132126D01*
X143443603Y-92164957D01*
X143389007Y-92187572D01*
X143331047Y-92199100D01*
X143271953Y-92199100D01*
X143213993Y-92187572D01*
X143159397Y-92164957D01*
X143110261Y-92132126D01*
X143068474Y-92090339D01*
X143035643Y-92041203D01*
X143013028Y-91986607D01*
X143001500Y-91928647D01*
X143001500Y-91869553D01*
X143013028Y-91811593D01*
X143035643Y-91756997D01*
X143068474Y-91707861D01*
X143110261Y-91666074D01*
X143159397Y-91633243D01*
X143213993Y-91610628D01*
X143271953Y-91599100D01*
X143331047Y-91599100D01*
X143389007Y-91610628D01*
X143389007Y-91610628D01*
G37*
G36*
X145537807Y-91610628D02*
X145592403Y-91633243D01*
X145641539Y-91666074D01*
X145683326Y-91707861D01*
X145716157Y-91756997D01*
X145738772Y-91811593D01*
X145750300Y-91869553D01*
X145750300Y-91928647D01*
X145738772Y-91986607D01*
X145716157Y-92041203D01*
X145683326Y-92090339D01*
X145641539Y-92132126D01*
X145592403Y-92164957D01*
X145537807Y-92187572D01*
X145479847Y-92199100D01*
X145420753Y-92199100D01*
X145362793Y-92187572D01*
X145308197Y-92164957D01*
X145259061Y-92132126D01*
X145217274Y-92090339D01*
X145184443Y-92041203D01*
X145161828Y-91986607D01*
X145150300Y-91928647D01*
X145150300Y-91869553D01*
X145161828Y-91811593D01*
X145184443Y-91756997D01*
X145217274Y-91707861D01*
X145259061Y-91666074D01*
X145308197Y-91633243D01*
X145362793Y-91610628D01*
X145420753Y-91599100D01*
X145479847Y-91599100D01*
X145537807Y-91610628D01*
X145537807Y-91610628D01*
G37*
G36*
X118164630Y-89987299D02*
X118324855Y-90035903D01*
X118472520Y-90114831D01*
X118601949Y-90221051D01*
X118708169Y-90350480D01*
X118787097Y-90498145D01*
X118835701Y-90658370D01*
X118852112Y-90825000D01*
X118835701Y-90991630D01*
X118787097Y-91151855D01*
X118708169Y-91299520D01*
X118601949Y-91428949D01*
X118472520Y-91535169D01*
X118324855Y-91614097D01*
X118164630Y-91662701D01*
X118039752Y-91675000D01*
X117956248Y-91675000D01*
X117831370Y-91662701D01*
X117671145Y-91614097D01*
X117523480Y-91535169D01*
X117394051Y-91428949D01*
X117287831Y-91299520D01*
X117208903Y-91151855D01*
X117160299Y-90991630D01*
X117143888Y-90825000D01*
X117160299Y-90658370D01*
X117208903Y-90498145D01*
X117287831Y-90350480D01*
X117394051Y-90221051D01*
X117523480Y-90114831D01*
X117671145Y-90035903D01*
X117831370Y-89987299D01*
X117956248Y-89975000D01*
X118039752Y-89975000D01*
X118164630Y-89987299D01*
X118164630Y-89987299D01*
G37*
G36*
X124164630Y-89987299D02*
X124324855Y-90035903D01*
X124472520Y-90114831D01*
X124601949Y-90221051D01*
X124708169Y-90350480D01*
X124787097Y-90498145D01*
X124835701Y-90658370D01*
X124852112Y-90825000D01*
X124835701Y-90991630D01*
X124787097Y-91151855D01*
X124708169Y-91299520D01*
X124601949Y-91428949D01*
X124472520Y-91535169D01*
X124324855Y-91614097D01*
X124164630Y-91662701D01*
X124039752Y-91675000D01*
X123956248Y-91675000D01*
X123831370Y-91662701D01*
X123671145Y-91614097D01*
X123523480Y-91535169D01*
X123394051Y-91428949D01*
X123287831Y-91299520D01*
X123208903Y-91151855D01*
X123160299Y-90991630D01*
X123143888Y-90825000D01*
X123160299Y-90658370D01*
X123208903Y-90498145D01*
X123287831Y-90350480D01*
X123394051Y-90221051D01*
X123523480Y-90114831D01*
X123671145Y-90035903D01*
X123831370Y-89987299D01*
X123956248Y-89975000D01*
X124039752Y-89975000D01*
X124164630Y-89987299D01*
X124164630Y-89987299D01*
G37*
G36*
X172964407Y-90859628D02*
X173019003Y-90882243D01*
X173068139Y-90915074D01*
X173109926Y-90956861D01*
X173142757Y-91005997D01*
X173165372Y-91060593D01*
X173176900Y-91118553D01*
X173176900Y-91177647D01*
X173165372Y-91235607D01*
X173142757Y-91290203D01*
X173109926Y-91339339D01*
X173068139Y-91381126D01*
X173019003Y-91413957D01*
X172964407Y-91436572D01*
X172906447Y-91448100D01*
X172847353Y-91448100D01*
X172789393Y-91436572D01*
X172734797Y-91413957D01*
X172685661Y-91381126D01*
X172643874Y-91339339D01*
X172611043Y-91290203D01*
X172588428Y-91235607D01*
X172576900Y-91177647D01*
X172576900Y-91118553D01*
X172588428Y-91060593D01*
X172611043Y-91005997D01*
X172643874Y-90956861D01*
X172685661Y-90915074D01*
X172734797Y-90882243D01*
X172789393Y-90859628D01*
X172847353Y-90848100D01*
X172906447Y-90848100D01*
X172964407Y-90859628D01*
X172964407Y-90859628D01*
G37*
G36*
X142004307Y-90710028D02*
X142058903Y-90732643D01*
X142108039Y-90765474D01*
X142149826Y-90807261D01*
X142182657Y-90856397D01*
X142205272Y-90910993D01*
X142216800Y-90968953D01*
X142216800Y-91028047D01*
X142205272Y-91086007D01*
X142182657Y-91140603D01*
X142149826Y-91189739D01*
X142108039Y-91231526D01*
X142058903Y-91264357D01*
X142004307Y-91286972D01*
X141946347Y-91298500D01*
X141887253Y-91298500D01*
X141829293Y-91286972D01*
X141774697Y-91264357D01*
X141725561Y-91231526D01*
X141683774Y-91189739D01*
X141650943Y-91140603D01*
X141628328Y-91086007D01*
X141616800Y-91028047D01*
X141616800Y-90968953D01*
X141628328Y-90910993D01*
X141650943Y-90856397D01*
X141683774Y-90807261D01*
X141725561Y-90765474D01*
X141774697Y-90732643D01*
X141829293Y-90710028D01*
X141887253Y-90698500D01*
X141946347Y-90698500D01*
X142004307Y-90710028D01*
X142004307Y-90710028D01*
G37*
G36*
X90276000Y-91237000D02*
X87276000Y-91237000D01*
X87276000Y-89713000D01*
X90276000Y-89713000D01*
X90276000Y-91237000D01*
X90276000Y-91237000D01*
G37*
G36*
X166719707Y-90250028D02*
X166774303Y-90272643D01*
X166823439Y-90305474D01*
X166865226Y-90347261D01*
X166898057Y-90396397D01*
X166920672Y-90450993D01*
X166932200Y-90508953D01*
X166932200Y-90568047D01*
X166920672Y-90626007D01*
X166898057Y-90680603D01*
X166865226Y-90729739D01*
X166823439Y-90771526D01*
X166774303Y-90804357D01*
X166719707Y-90826972D01*
X166661747Y-90838500D01*
X166602653Y-90838500D01*
X166544693Y-90826972D01*
X166490097Y-90804357D01*
X166440961Y-90771526D01*
X166399174Y-90729739D01*
X166366343Y-90680603D01*
X166343728Y-90626007D01*
X166332200Y-90568047D01*
X166332200Y-90508953D01*
X166343728Y-90450993D01*
X166366343Y-90396397D01*
X166399174Y-90347261D01*
X166440961Y-90305474D01*
X166490097Y-90272643D01*
X166544693Y-90250028D01*
X166602653Y-90238500D01*
X166661747Y-90238500D01*
X166719707Y-90250028D01*
X166719707Y-90250028D01*
G37*
G36*
X151475907Y-90013928D02*
X151530503Y-90036543D01*
X151579639Y-90069374D01*
X151621426Y-90111161D01*
X151654257Y-90160297D01*
X151654258Y-90160300D01*
X151659766Y-90168543D01*
X151675312Y-90187485D01*
X151694254Y-90203031D01*
X151709381Y-90211116D01*
X151697915Y-90232568D01*
X151690802Y-90256017D01*
X151688400Y-90280403D01*
X151688400Y-90331947D01*
X151676872Y-90389907D01*
X151654257Y-90444503D01*
X151621426Y-90493639D01*
X151579639Y-90535426D01*
X151530503Y-90568257D01*
X151475907Y-90590872D01*
X151417947Y-90602400D01*
X151358853Y-90602400D01*
X151300893Y-90590872D01*
X151246297Y-90568257D01*
X151197161Y-90535426D01*
X151155374Y-90493639D01*
X151122543Y-90444503D01*
X151099928Y-90389907D01*
X151088400Y-90331947D01*
X151088400Y-90272853D01*
X151099928Y-90214893D01*
X151122543Y-90160297D01*
X151155374Y-90111161D01*
X151197161Y-90069374D01*
X151246297Y-90036543D01*
X151300893Y-90013928D01*
X151358853Y-90002400D01*
X151417947Y-90002400D01*
X151475907Y-90013928D01*
X151475907Y-90013928D01*
G37*
G36*
X152276207Y-89788628D02*
X152330803Y-89811243D01*
X152379939Y-89844074D01*
X152421726Y-89885861D01*
X152454557Y-89934997D01*
X152477172Y-89989593D01*
X152488700Y-90047553D01*
X152488700Y-90106647D01*
X152477172Y-90164607D01*
X152454557Y-90219203D01*
X152421726Y-90268339D01*
X152379939Y-90310126D01*
X152330803Y-90342957D01*
X152276207Y-90365572D01*
X152218247Y-90377100D01*
X152159153Y-90377100D01*
X152101193Y-90365572D01*
X152046597Y-90342957D01*
X151997461Y-90310126D01*
X151955674Y-90268339D01*
X151922843Y-90219203D01*
X151922842Y-90219200D01*
X151917334Y-90210957D01*
X151901788Y-90192015D01*
X151882846Y-90176469D01*
X151867719Y-90168384D01*
X151879185Y-90146932D01*
X151886298Y-90123483D01*
X151888700Y-90099097D01*
X151888700Y-90047553D01*
X151895388Y-90013928D01*
X151900228Y-89989593D01*
X151922843Y-89934997D01*
X151955674Y-89885861D01*
X151997461Y-89844074D01*
X152046597Y-89811243D01*
X152101193Y-89788628D01*
X152159153Y-89777100D01*
X152218247Y-89777100D01*
X152276207Y-89788628D01*
X152276207Y-89788628D01*
G37*
G36*
X168299807Y-89624628D02*
X168354403Y-89647243D01*
X168403539Y-89680074D01*
X168445326Y-89721861D01*
X168478157Y-89770997D01*
X168500772Y-89825593D01*
X168512300Y-89883553D01*
X168512300Y-89942647D01*
X168500772Y-90000607D01*
X168478157Y-90055203D01*
X168445326Y-90104339D01*
X168403539Y-90146126D01*
X168354403Y-90178957D01*
X168299807Y-90201572D01*
X168241847Y-90213100D01*
X168182753Y-90213100D01*
X168124793Y-90201572D01*
X168070197Y-90178957D01*
X168021061Y-90146126D01*
X167979274Y-90104339D01*
X167946443Y-90055203D01*
X167923828Y-90000607D01*
X167912300Y-89942647D01*
X167912300Y-89883553D01*
X167923828Y-89825593D01*
X167946443Y-89770997D01*
X167979274Y-89721861D01*
X168021061Y-89680074D01*
X168070197Y-89647243D01*
X168124793Y-89624628D01*
X168182753Y-89613100D01*
X168241847Y-89613100D01*
X168299807Y-89624628D01*
X168299807Y-89624628D01*
G37*
G36*
X135729607Y-88467728D02*
X135784203Y-88490343D01*
X135833339Y-88523174D01*
X135875126Y-88564961D01*
X135907957Y-88614097D01*
X135930572Y-88668693D01*
X135942100Y-88726653D01*
X135942100Y-88785747D01*
X135930572Y-88843707D01*
X135907957Y-88898303D01*
X135875126Y-88947439D01*
X135833339Y-88989226D01*
X135784203Y-89022057D01*
X135729607Y-89044672D01*
X135671647Y-89056200D01*
X135612553Y-89056200D01*
X135554593Y-89044672D01*
X135499997Y-89022057D01*
X135450861Y-88989226D01*
X135409074Y-88947439D01*
X135376243Y-88898303D01*
X135353628Y-88843707D01*
X135342100Y-88785747D01*
X135342100Y-88726653D01*
X135353628Y-88668693D01*
X135376243Y-88614097D01*
X135409074Y-88564961D01*
X135450861Y-88523174D01*
X135499997Y-88490343D01*
X135554593Y-88467728D01*
X135612553Y-88456200D01*
X135671647Y-88456200D01*
X135729607Y-88467728D01*
X135729607Y-88467728D01*
G37*
G36*
X90276000Y-88377733D02*
X90278402Y-88402119D01*
X90285515Y-88425568D01*
X90297066Y-88447179D01*
X90312612Y-88466121D01*
X90331554Y-88481667D01*
X90353165Y-88493218D01*
X90376614Y-88500331D01*
X90401000Y-88502733D01*
X90425386Y-88500331D01*
X90448835Y-88493218D01*
X90470446Y-88481667D01*
X90489388Y-88466121D01*
X90504934Y-88447179D01*
X90511481Y-88434931D01*
X90514442Y-88430500D01*
X90514443Y-88430497D01*
X90547274Y-88381361D01*
X90589061Y-88339574D01*
X90638197Y-88306743D01*
X90692793Y-88284128D01*
X90750753Y-88272600D01*
X90809847Y-88272600D01*
X90867807Y-88284128D01*
X90922403Y-88306743D01*
X90971539Y-88339574D01*
X91013326Y-88381361D01*
X91046157Y-88430497D01*
X91068772Y-88485093D01*
X91080300Y-88543053D01*
X91080300Y-88602147D01*
X91068772Y-88660107D01*
X91046157Y-88714703D01*
X91013326Y-88763839D01*
X90971539Y-88805626D01*
X90922403Y-88838457D01*
X90867807Y-88861072D01*
X90809847Y-88872600D01*
X90750753Y-88872600D01*
X90692793Y-88861072D01*
X90638197Y-88838457D01*
X90589061Y-88805626D01*
X90547274Y-88763839D01*
X90514443Y-88714703D01*
X90514442Y-88714700D01*
X90511481Y-88710269D01*
X90504934Y-88698021D01*
X90489389Y-88679079D01*
X90470447Y-88663533D01*
X90448836Y-88651982D01*
X90425387Y-88644869D01*
X90401000Y-88642467D01*
X90376614Y-88644869D01*
X90353165Y-88651982D01*
X90331554Y-88663533D01*
X90312612Y-88679078D01*
X90297903Y-88697000D01*
X87276000Y-88697000D01*
X87276000Y-87173000D01*
X90276000Y-87173000D01*
X90276000Y-88377733D01*
X90276000Y-88377733D01*
G37*
G36*
X170769907Y-88220728D02*
X170824503Y-88243343D01*
X170873639Y-88276174D01*
X170915426Y-88317961D01*
X170948257Y-88367097D01*
X170970872Y-88421693D01*
X170982400Y-88479653D01*
X170982400Y-88538747D01*
X170970872Y-88596707D01*
X170948257Y-88651303D01*
X170915426Y-88700439D01*
X170873639Y-88742226D01*
X170824503Y-88775057D01*
X170769907Y-88797672D01*
X170711947Y-88809200D01*
X170652853Y-88809200D01*
X170594893Y-88797672D01*
X170540297Y-88775057D01*
X170491161Y-88742226D01*
X170449374Y-88700439D01*
X170416543Y-88651303D01*
X170393928Y-88596707D01*
X170382400Y-88538747D01*
X170382400Y-88479653D01*
X170393928Y-88421693D01*
X170416543Y-88367097D01*
X170449374Y-88317961D01*
X170491161Y-88276174D01*
X170540297Y-88243343D01*
X170594893Y-88220728D01*
X170652853Y-88209200D01*
X170711947Y-88209200D01*
X170769907Y-88220728D01*
X170769907Y-88220728D01*
G37*
G36*
X168632207Y-88201228D02*
X168686803Y-88223843D01*
X168735939Y-88256674D01*
X168777726Y-88298461D01*
X168810557Y-88347597D01*
X168833172Y-88402193D01*
X168844700Y-88460153D01*
X168844700Y-88519247D01*
X168833172Y-88577207D01*
X168810557Y-88631803D01*
X168777726Y-88680939D01*
X168735939Y-88722726D01*
X168686803Y-88755557D01*
X168632207Y-88778172D01*
X168574247Y-88789700D01*
X168515153Y-88789700D01*
X168457193Y-88778172D01*
X168402597Y-88755557D01*
X168353461Y-88722726D01*
X168311674Y-88680939D01*
X168278843Y-88631803D01*
X168256228Y-88577207D01*
X168244700Y-88519247D01*
X168244700Y-88460153D01*
X168256228Y-88402193D01*
X168278843Y-88347597D01*
X168311674Y-88298461D01*
X168353461Y-88256674D01*
X168402597Y-88223843D01*
X168457193Y-88201228D01*
X168515153Y-88189700D01*
X168574247Y-88189700D01*
X168632207Y-88201228D01*
X168632207Y-88201228D01*
G37*
G36*
X164851107Y-88187228D02*
X164905703Y-88209843D01*
X164954839Y-88242674D01*
X164996626Y-88284461D01*
X165029457Y-88333597D01*
X165052072Y-88388193D01*
X165063600Y-88446153D01*
X165063600Y-88505247D01*
X165052072Y-88563207D01*
X165029457Y-88617803D01*
X164996626Y-88666939D01*
X164954839Y-88708726D01*
X164905703Y-88741557D01*
X164851107Y-88764172D01*
X164793147Y-88775700D01*
X164734053Y-88775700D01*
X164676093Y-88764172D01*
X164621497Y-88741557D01*
X164572361Y-88708726D01*
X164530574Y-88666939D01*
X164497743Y-88617803D01*
X164475128Y-88563207D01*
X164463600Y-88505247D01*
X164463600Y-88446153D01*
X164475128Y-88388193D01*
X164497743Y-88333597D01*
X164530574Y-88284461D01*
X164572361Y-88242674D01*
X164621497Y-88209843D01*
X164676093Y-88187228D01*
X164734053Y-88175700D01*
X164793147Y-88175700D01*
X164851107Y-88187228D01*
X164851107Y-88187228D01*
G37*
G36*
X152248907Y-88087628D02*
X152303503Y-88110243D01*
X152352639Y-88143074D01*
X152394426Y-88184861D01*
X152427257Y-88233997D01*
X152449872Y-88288593D01*
X152461400Y-88346553D01*
X152461400Y-88405647D01*
X152449872Y-88463607D01*
X152427257Y-88518203D01*
X152394426Y-88567339D01*
X152352639Y-88609126D01*
X152303503Y-88641957D01*
X152248907Y-88664572D01*
X152190947Y-88676100D01*
X152131853Y-88676100D01*
X152073893Y-88664572D01*
X152019297Y-88641957D01*
X151970161Y-88609126D01*
X151928374Y-88567339D01*
X151895543Y-88518203D01*
X151872928Y-88463607D01*
X151861400Y-88405647D01*
X151861400Y-88346553D01*
X151872928Y-88288593D01*
X151895543Y-88233997D01*
X151928374Y-88184861D01*
X151970161Y-88143074D01*
X152019297Y-88110243D01*
X152073893Y-88087628D01*
X152131853Y-88076100D01*
X152190947Y-88076100D01*
X152248907Y-88087628D01*
X152248907Y-88087628D01*
G37*
G36*
X158989207Y-87975928D02*
X159043803Y-87998543D01*
X159092939Y-88031374D01*
X159134726Y-88073161D01*
X159167557Y-88122297D01*
X159190172Y-88176893D01*
X159201700Y-88234853D01*
X159201700Y-88293947D01*
X159190172Y-88351907D01*
X159167557Y-88406503D01*
X159134726Y-88455639D01*
X159092939Y-88497426D01*
X159043803Y-88530257D01*
X158989207Y-88552872D01*
X158931247Y-88564400D01*
X158872153Y-88564400D01*
X158814193Y-88552872D01*
X158759597Y-88530257D01*
X158710461Y-88497426D01*
X158668674Y-88455639D01*
X158635843Y-88406503D01*
X158613228Y-88351907D01*
X158601700Y-88293947D01*
X158601700Y-88234853D01*
X158613228Y-88176893D01*
X158635843Y-88122297D01*
X158668674Y-88073161D01*
X158710461Y-88031374D01*
X158759597Y-87998543D01*
X158814193Y-87975928D01*
X158872153Y-87964400D01*
X158931247Y-87964400D01*
X158989207Y-87975928D01*
X158989207Y-87975928D01*
G37*
G36*
X138824607Y-87800028D02*
X138879203Y-87822643D01*
X138928339Y-87855474D01*
X138970126Y-87897261D01*
X139002957Y-87946397D01*
X139025572Y-88000993D01*
X139037100Y-88058953D01*
X139037100Y-88118047D01*
X139025572Y-88176007D01*
X139002957Y-88230603D01*
X138970126Y-88279739D01*
X138928339Y-88321526D01*
X138879203Y-88354357D01*
X138824607Y-88376972D01*
X138766647Y-88388500D01*
X138707553Y-88388500D01*
X138649593Y-88376972D01*
X138594997Y-88354357D01*
X138545861Y-88321526D01*
X138504074Y-88279739D01*
X138471243Y-88230603D01*
X138448628Y-88176007D01*
X138437100Y-88118047D01*
X138437100Y-88058953D01*
X138448628Y-88000993D01*
X138471243Y-87946397D01*
X138504074Y-87897261D01*
X138545861Y-87855474D01*
X138594997Y-87822643D01*
X138649593Y-87800028D01*
X138707553Y-87788500D01*
X138766647Y-87788500D01*
X138824607Y-87800028D01*
X138824607Y-87800028D01*
G37*
G36*
X150923907Y-87643828D02*
X150978503Y-87666443D01*
X151027639Y-87699274D01*
X151069426Y-87741061D01*
X151102257Y-87790197D01*
X151124872Y-87844793D01*
X151136400Y-87902753D01*
X151136400Y-87961847D01*
X151124872Y-88019807D01*
X151102257Y-88074403D01*
X151069426Y-88123539D01*
X151027639Y-88165326D01*
X150978503Y-88198157D01*
X150923907Y-88220772D01*
X150865947Y-88232300D01*
X150806853Y-88232300D01*
X150748893Y-88220772D01*
X150694297Y-88198157D01*
X150645161Y-88165326D01*
X150603374Y-88123539D01*
X150570543Y-88074403D01*
X150547928Y-88019807D01*
X150536400Y-87961847D01*
X150536400Y-87902753D01*
X150547928Y-87844793D01*
X150570543Y-87790197D01*
X150603374Y-87741061D01*
X150645161Y-87699274D01*
X150694297Y-87666443D01*
X150748893Y-87643828D01*
X150806853Y-87632300D01*
X150865947Y-87632300D01*
X150923907Y-87643828D01*
X150923907Y-87643828D01*
G37*
G36*
X162688607Y-87604628D02*
X162743203Y-87627243D01*
X162792339Y-87660074D01*
X162834126Y-87701861D01*
X162866957Y-87750997D01*
X162889572Y-87805593D01*
X162901100Y-87863553D01*
X162901100Y-87922647D01*
X162889572Y-87980607D01*
X162866957Y-88035203D01*
X162834126Y-88084339D01*
X162792339Y-88126126D01*
X162743203Y-88158957D01*
X162688607Y-88181572D01*
X162630647Y-88193100D01*
X162571553Y-88193100D01*
X162513593Y-88181572D01*
X162458997Y-88158957D01*
X162409861Y-88126126D01*
X162368074Y-88084339D01*
X162335243Y-88035203D01*
X162312628Y-87980607D01*
X162301100Y-87922647D01*
X162301100Y-87863553D01*
X162312628Y-87805593D01*
X162335243Y-87750997D01*
X162368074Y-87701861D01*
X162409861Y-87660074D01*
X162458997Y-87627243D01*
X162513593Y-87604628D01*
X162571553Y-87593100D01*
X162630647Y-87593100D01*
X162688607Y-87604628D01*
X162688607Y-87604628D01*
G37*
G36*
X143435707Y-87576728D02*
X143490303Y-87599343D01*
X143539439Y-87632174D01*
X143581226Y-87673961D01*
X143614057Y-87723097D01*
X143636672Y-87777693D01*
X143648200Y-87835653D01*
X143648200Y-87894747D01*
X143636672Y-87952707D01*
X143614057Y-88007303D01*
X143581226Y-88056439D01*
X143539439Y-88098226D01*
X143490303Y-88131057D01*
X143435707Y-88153672D01*
X143377747Y-88165200D01*
X143318653Y-88165200D01*
X143260693Y-88153672D01*
X143206097Y-88131057D01*
X143156961Y-88098226D01*
X143115174Y-88056439D01*
X143082343Y-88007303D01*
X143059728Y-87952707D01*
X143048200Y-87894747D01*
X143048200Y-87835653D01*
X143059728Y-87777693D01*
X143082343Y-87723097D01*
X143115174Y-87673961D01*
X143156961Y-87632174D01*
X143206097Y-87599343D01*
X143260693Y-87576728D01*
X143318653Y-87565200D01*
X143377747Y-87565200D01*
X143435707Y-87576728D01*
X143435707Y-87576728D01*
G37*
G36*
X164199007Y-87554828D02*
X164253603Y-87577443D01*
X164302739Y-87610274D01*
X164344526Y-87652061D01*
X164377357Y-87701197D01*
X164399972Y-87755793D01*
X164411500Y-87813753D01*
X164411500Y-87872847D01*
X164399972Y-87930807D01*
X164377357Y-87985403D01*
X164344526Y-88034539D01*
X164302739Y-88076326D01*
X164253603Y-88109157D01*
X164199007Y-88131772D01*
X164141047Y-88143300D01*
X164081953Y-88143300D01*
X164023993Y-88131772D01*
X163969397Y-88109157D01*
X163920261Y-88076326D01*
X163878474Y-88034539D01*
X163845643Y-87985403D01*
X163823028Y-87930807D01*
X163811500Y-87872847D01*
X163811500Y-87813753D01*
X163823028Y-87755793D01*
X163845643Y-87701197D01*
X163878474Y-87652061D01*
X163920261Y-87610274D01*
X163969397Y-87577443D01*
X164023993Y-87554828D01*
X164081953Y-87543300D01*
X164141047Y-87543300D01*
X164199007Y-87554828D01*
X164199007Y-87554828D01*
G37*
G36*
X167335507Y-87553228D02*
X167390103Y-87575843D01*
X167439239Y-87608674D01*
X167481026Y-87650461D01*
X167513857Y-87699597D01*
X167536472Y-87754193D01*
X167548000Y-87812153D01*
X167548000Y-87871247D01*
X167536472Y-87929207D01*
X167513857Y-87983803D01*
X167481026Y-88032939D01*
X167439239Y-88074726D01*
X167390103Y-88107557D01*
X167335507Y-88130172D01*
X167277547Y-88141700D01*
X167218453Y-88141700D01*
X167160493Y-88130172D01*
X167105897Y-88107557D01*
X167056761Y-88074726D01*
X167014974Y-88032939D01*
X166982143Y-87983803D01*
X166959528Y-87929207D01*
X166948000Y-87871247D01*
X166948000Y-87812153D01*
X166959528Y-87754193D01*
X166982143Y-87699597D01*
X167014974Y-87650461D01*
X167056761Y-87608674D01*
X167105897Y-87575843D01*
X167160493Y-87553228D01*
X167218453Y-87541700D01*
X167277547Y-87541700D01*
X167335507Y-87553228D01*
X167335507Y-87553228D01*
G37*
G36*
X161835507Y-87548328D02*
X161890103Y-87570943D01*
X161939239Y-87603774D01*
X161981026Y-87645561D01*
X162013857Y-87694697D01*
X162036472Y-87749293D01*
X162048000Y-87807253D01*
X162048000Y-87866347D01*
X162036472Y-87924307D01*
X162013857Y-87978903D01*
X161981026Y-88028039D01*
X161939239Y-88069826D01*
X161890103Y-88102657D01*
X161835507Y-88125272D01*
X161777547Y-88136800D01*
X161718453Y-88136800D01*
X161660493Y-88125272D01*
X161605897Y-88102657D01*
X161556761Y-88069826D01*
X161514974Y-88028039D01*
X161482143Y-87978903D01*
X161459528Y-87924307D01*
X161448000Y-87866347D01*
X161448000Y-87807253D01*
X161459528Y-87749293D01*
X161482143Y-87694697D01*
X161514974Y-87645561D01*
X161556761Y-87603774D01*
X161605897Y-87570943D01*
X161660493Y-87548328D01*
X161718453Y-87536800D01*
X161777547Y-87536800D01*
X161835507Y-87548328D01*
X161835507Y-87548328D01*
G37*
G36*
X168489107Y-86838628D02*
X168543703Y-86861243D01*
X168592839Y-86894074D01*
X168634626Y-86935861D01*
X168667457Y-86984997D01*
X168690072Y-87039593D01*
X168701600Y-87097553D01*
X168701600Y-87156647D01*
X168690072Y-87214607D01*
X168667457Y-87269203D01*
X168634626Y-87318339D01*
X168592839Y-87360126D01*
X168543703Y-87392957D01*
X168489107Y-87415572D01*
X168431147Y-87427100D01*
X168372053Y-87427100D01*
X168314093Y-87415572D01*
X168259497Y-87392957D01*
X168210361Y-87360126D01*
X168168574Y-87318339D01*
X168135743Y-87269203D01*
X168113128Y-87214607D01*
X168101600Y-87156647D01*
X168101600Y-87097553D01*
X168113128Y-87039593D01*
X168135743Y-86984997D01*
X168168574Y-86935861D01*
X168210361Y-86894074D01*
X168259497Y-86861243D01*
X168314093Y-86838628D01*
X168372053Y-86827100D01*
X168431147Y-86827100D01*
X168489107Y-86838628D01*
X168489107Y-86838628D01*
G37*
G36*
X90276000Y-86157000D02*
X87276000Y-86157000D01*
X87276000Y-84633000D01*
X90276000Y-84633000D01*
X90276000Y-86157000D01*
X90276000Y-86157000D01*
G37*
G36*
X153595607Y-85391628D02*
X153650203Y-85414243D01*
X153699339Y-85447074D01*
X153741126Y-85488861D01*
X153773957Y-85537997D01*
X153796572Y-85592593D01*
X153808100Y-85650553D01*
X153808100Y-85709647D01*
X153796572Y-85767607D01*
X153773957Y-85822203D01*
X153741126Y-85871339D01*
X153699339Y-85913126D01*
X153650203Y-85945957D01*
X153595607Y-85968572D01*
X153537647Y-85980100D01*
X153478553Y-85980100D01*
X153420593Y-85968572D01*
X153365997Y-85945957D01*
X153316861Y-85913126D01*
X153275074Y-85871339D01*
X153242243Y-85822203D01*
X153219628Y-85767607D01*
X153208100Y-85709647D01*
X153208100Y-85650553D01*
X153219628Y-85592593D01*
X153242243Y-85537997D01*
X153275074Y-85488861D01*
X153316861Y-85447074D01*
X153365997Y-85414243D01*
X153420593Y-85391628D01*
X153478553Y-85380100D01*
X153537647Y-85380100D01*
X153595607Y-85391628D01*
X153595607Y-85391628D01*
G37*
G36*
X161310407Y-85388828D02*
X161365003Y-85411443D01*
X161414139Y-85444274D01*
X161455926Y-85486061D01*
X161488757Y-85535197D01*
X161511372Y-85589793D01*
X161513859Y-85602297D01*
X161520970Y-85625736D01*
X161532521Y-85647347D01*
X161548067Y-85666288D01*
X161557916Y-85674371D01*
X161549457Y-85681314D01*
X161533911Y-85700256D01*
X161522360Y-85721867D01*
X161515251Y-85745307D01*
X161511372Y-85764807D01*
X161488757Y-85819403D01*
X161455926Y-85868539D01*
X161414139Y-85910326D01*
X161365003Y-85943157D01*
X161310407Y-85965772D01*
X161252447Y-85977300D01*
X161193353Y-85977300D01*
X161135393Y-85965772D01*
X161080797Y-85943157D01*
X161031661Y-85910326D01*
X160989874Y-85868539D01*
X160957043Y-85819403D01*
X160934428Y-85764807D01*
X160922900Y-85706847D01*
X160922900Y-85647753D01*
X160934428Y-85589793D01*
X160957043Y-85535197D01*
X160989874Y-85486061D01*
X161031661Y-85444274D01*
X161080797Y-85411443D01*
X161135393Y-85388828D01*
X161193353Y-85377300D01*
X161252447Y-85377300D01*
X161310407Y-85388828D01*
X161310407Y-85388828D01*
G37*
G36*
X162138907Y-85381828D02*
X162193503Y-85404443D01*
X162242639Y-85437274D01*
X162284426Y-85479061D01*
X162317257Y-85528197D01*
X162337591Y-85577286D01*
X162349137Y-85598888D01*
X162364682Y-85617830D01*
X162383624Y-85633375D01*
X162384609Y-85633901D01*
X162370896Y-85650611D01*
X162359344Y-85672222D01*
X162352231Y-85695671D01*
X162351319Y-85700256D01*
X162339872Y-85757807D01*
X162317257Y-85812403D01*
X162284426Y-85861539D01*
X162242639Y-85903326D01*
X162193503Y-85936157D01*
X162138907Y-85958772D01*
X162080947Y-85970300D01*
X162021853Y-85970300D01*
X161963893Y-85958772D01*
X161909297Y-85936157D01*
X161860161Y-85903326D01*
X161818374Y-85861539D01*
X161785543Y-85812403D01*
X161762928Y-85757807D01*
X161760441Y-85745303D01*
X161753330Y-85721864D01*
X161741779Y-85700253D01*
X161726233Y-85681312D01*
X161716384Y-85673229D01*
X161724843Y-85666286D01*
X161740389Y-85647344D01*
X161751940Y-85625733D01*
X161759051Y-85602287D01*
X161762928Y-85582793D01*
X161785543Y-85528197D01*
X161818374Y-85479061D01*
X161860161Y-85437274D01*
X161909297Y-85404443D01*
X161963893Y-85381828D01*
X162021853Y-85370300D01*
X162080947Y-85370300D01*
X162138907Y-85381828D01*
X162138907Y-85381828D01*
G37*
G36*
X165835407Y-85381328D02*
X165890003Y-85403943D01*
X165939139Y-85436774D01*
X165980926Y-85478561D01*
X166013757Y-85527697D01*
X166036372Y-85582293D01*
X166047900Y-85640253D01*
X166047900Y-85699347D01*
X166036372Y-85757307D01*
X166013757Y-85811903D01*
X165980926Y-85861039D01*
X165939139Y-85902826D01*
X165890003Y-85935657D01*
X165835407Y-85958272D01*
X165777447Y-85969800D01*
X165718353Y-85969800D01*
X165660393Y-85958272D01*
X165605797Y-85935657D01*
X165556661Y-85902826D01*
X165514874Y-85861039D01*
X165482043Y-85811903D01*
X165459428Y-85757307D01*
X165447900Y-85699347D01*
X165447900Y-85640253D01*
X165459428Y-85582293D01*
X165482043Y-85527697D01*
X165514874Y-85478561D01*
X165556661Y-85436774D01*
X165605797Y-85403943D01*
X165660393Y-85381328D01*
X165718353Y-85369800D01*
X165777447Y-85369800D01*
X165835407Y-85381328D01*
X165835407Y-85381328D01*
G37*
G36*
X151080007Y-85379028D02*
X151134603Y-85401643D01*
X151183739Y-85434474D01*
X151225526Y-85476261D01*
X151258357Y-85525397D01*
X151280972Y-85579993D01*
X151292500Y-85637953D01*
X151292500Y-85697047D01*
X151280972Y-85755007D01*
X151258357Y-85809603D01*
X151225526Y-85858739D01*
X151183739Y-85900526D01*
X151134603Y-85933357D01*
X151080007Y-85955972D01*
X151022047Y-85967500D01*
X150962953Y-85967500D01*
X150904993Y-85955972D01*
X150850397Y-85933357D01*
X150801261Y-85900526D01*
X150759474Y-85858739D01*
X150726643Y-85809603D01*
X150704028Y-85755007D01*
X150692500Y-85697047D01*
X150692500Y-85637953D01*
X150704028Y-85579993D01*
X150726643Y-85525397D01*
X150759474Y-85476261D01*
X150801261Y-85434474D01*
X150850397Y-85401643D01*
X150904993Y-85379028D01*
X150962953Y-85367500D01*
X151022047Y-85367500D01*
X151080007Y-85379028D01*
X151080007Y-85379028D01*
G37*
G36*
X149564807Y-85371628D02*
X149619403Y-85394243D01*
X149668539Y-85427074D01*
X149710326Y-85468861D01*
X149743157Y-85517997D01*
X149765772Y-85572593D01*
X149777300Y-85630553D01*
X149777300Y-85689647D01*
X149765772Y-85747607D01*
X149743157Y-85802203D01*
X149710326Y-85851339D01*
X149668539Y-85893126D01*
X149619403Y-85925957D01*
X149564807Y-85948572D01*
X149506847Y-85960100D01*
X149447753Y-85960100D01*
X149389793Y-85948572D01*
X149335197Y-85925957D01*
X149286061Y-85893126D01*
X149244274Y-85851339D01*
X149211443Y-85802203D01*
X149188828Y-85747607D01*
X149177300Y-85689647D01*
X149177300Y-85630553D01*
X149188828Y-85572593D01*
X149211443Y-85517997D01*
X149244274Y-85468861D01*
X149286061Y-85427074D01*
X149335197Y-85394243D01*
X149389793Y-85371628D01*
X149447753Y-85360100D01*
X149506847Y-85360100D01*
X149564807Y-85371628D01*
X149564807Y-85371628D01*
G37*
G36*
X96089807Y-85371528D02*
X96144403Y-85394143D01*
X96193539Y-85426974D01*
X96235326Y-85468761D01*
X96268157Y-85517897D01*
X96290772Y-85572493D01*
X96302300Y-85630453D01*
X96302300Y-85689547D01*
X96290772Y-85747507D01*
X96268157Y-85802103D01*
X96235326Y-85851239D01*
X96193539Y-85893026D01*
X96144403Y-85925857D01*
X96089807Y-85948472D01*
X96031847Y-85960000D01*
X95972753Y-85960000D01*
X95914793Y-85948472D01*
X95860197Y-85925857D01*
X95811061Y-85893026D01*
X95769274Y-85851239D01*
X95736443Y-85802103D01*
X95713828Y-85747507D01*
X95702300Y-85689547D01*
X95702300Y-85630453D01*
X95713828Y-85572493D01*
X95736443Y-85517897D01*
X95769274Y-85468761D01*
X95811061Y-85426974D01*
X95860197Y-85394143D01*
X95914793Y-85371528D01*
X95972753Y-85360000D01*
X96031847Y-85360000D01*
X96089807Y-85371528D01*
X96089807Y-85371528D01*
G37*
G36*
X162964007Y-85290728D02*
X163018603Y-85313343D01*
X163067739Y-85346174D01*
X163109526Y-85387961D01*
X163142357Y-85437097D01*
X163164972Y-85491693D01*
X163176500Y-85549653D01*
X163176500Y-85608747D01*
X163164972Y-85666707D01*
X163142357Y-85721303D01*
X163109526Y-85770439D01*
X163067739Y-85812226D01*
X163018603Y-85845057D01*
X162964007Y-85867672D01*
X162906047Y-85879200D01*
X162846953Y-85879200D01*
X162788993Y-85867672D01*
X162734397Y-85845057D01*
X162685261Y-85812226D01*
X162643474Y-85770439D01*
X162610643Y-85721303D01*
X162590309Y-85672214D01*
X162578763Y-85650612D01*
X162563218Y-85631670D01*
X162544276Y-85616125D01*
X162543291Y-85615599D01*
X162557004Y-85598889D01*
X162568556Y-85577278D01*
X162575669Y-85553829D01*
X162580867Y-85527696D01*
X162588028Y-85491693D01*
X162610643Y-85437097D01*
X162643474Y-85387961D01*
X162685261Y-85346174D01*
X162734397Y-85313343D01*
X162788993Y-85290728D01*
X162846953Y-85279200D01*
X162906047Y-85279200D01*
X162964007Y-85290728D01*
X162964007Y-85290728D01*
G37*
G36*
X152835507Y-84994728D02*
X152890103Y-85017343D01*
X152939239Y-85050174D01*
X152981026Y-85091961D01*
X153013857Y-85141097D01*
X153036472Y-85195693D01*
X153048000Y-85253653D01*
X153048000Y-85312747D01*
X153036472Y-85370707D01*
X153013857Y-85425303D01*
X152981026Y-85474439D01*
X152939239Y-85516226D01*
X152890103Y-85549057D01*
X152835507Y-85571672D01*
X152777547Y-85583200D01*
X152718453Y-85583200D01*
X152660493Y-85571672D01*
X152605897Y-85549057D01*
X152556761Y-85516226D01*
X152514974Y-85474439D01*
X152482143Y-85425303D01*
X152459528Y-85370707D01*
X152448000Y-85312747D01*
X152448000Y-85253653D01*
X152459528Y-85195693D01*
X152482143Y-85141097D01*
X152514974Y-85091961D01*
X152556761Y-85050174D01*
X152605897Y-85017343D01*
X152660493Y-84994728D01*
X152718453Y-84983200D01*
X152777547Y-84983200D01*
X152835507Y-84994728D01*
X152835507Y-84994728D01*
G37*
G36*
X150873107Y-84374528D02*
X150927703Y-84397143D01*
X150976839Y-84429974D01*
X151018626Y-84471761D01*
X151051457Y-84520897D01*
X151074072Y-84575493D01*
X151085600Y-84633453D01*
X151085600Y-84692547D01*
X151074072Y-84750507D01*
X151051457Y-84805103D01*
X151018626Y-84854239D01*
X150976839Y-84896026D01*
X150927703Y-84928857D01*
X150873107Y-84951472D01*
X150815147Y-84963000D01*
X150756053Y-84963000D01*
X150698093Y-84951472D01*
X150643497Y-84928857D01*
X150594361Y-84896026D01*
X150552574Y-84854239D01*
X150519743Y-84805103D01*
X150497128Y-84750507D01*
X150485600Y-84692547D01*
X150485600Y-84633453D01*
X150497128Y-84575493D01*
X150519743Y-84520897D01*
X150552574Y-84471761D01*
X150594361Y-84429974D01*
X150643497Y-84397143D01*
X150698093Y-84374528D01*
X150756053Y-84363000D01*
X150815147Y-84363000D01*
X150873107Y-84374528D01*
X150873107Y-84374528D01*
G37*
G36*
X139300607Y-83771828D02*
X139355203Y-83794443D01*
X139404339Y-83827274D01*
X139446126Y-83869061D01*
X139478957Y-83918197D01*
X139501572Y-83972793D01*
X139513100Y-84030753D01*
X139513100Y-84089847D01*
X139501572Y-84147807D01*
X139478957Y-84202403D01*
X139446126Y-84251539D01*
X139404339Y-84293326D01*
X139355203Y-84326157D01*
X139300607Y-84348772D01*
X139242647Y-84360300D01*
X139183553Y-84360300D01*
X139125593Y-84348772D01*
X139070997Y-84326157D01*
X139021861Y-84293326D01*
X138980074Y-84251539D01*
X138947243Y-84202403D01*
X138924628Y-84147807D01*
X138913100Y-84089847D01*
X138913100Y-84030753D01*
X138924628Y-83972793D01*
X138947243Y-83918197D01*
X138980074Y-83869061D01*
X139021861Y-83827274D01*
X139070997Y-83794443D01*
X139125593Y-83771828D01*
X139183553Y-83760300D01*
X139242647Y-83760300D01*
X139300607Y-83771828D01*
X139300607Y-83771828D01*
G37*
G36*
X90276000Y-83617000D02*
X87276000Y-83617000D01*
X87276000Y-82093000D01*
X90276000Y-82093000D01*
X90276000Y-83617000D01*
X90276000Y-83617000D01*
G37*
G36*
X93259407Y-82566528D02*
X93314003Y-82589143D01*
X93363139Y-82621974D01*
X93404926Y-82663761D01*
X93437757Y-82712897D01*
X93460372Y-82767493D01*
X93471900Y-82825453D01*
X93471900Y-82884547D01*
X93460372Y-82942507D01*
X93437757Y-82997103D01*
X93404926Y-83046239D01*
X93363139Y-83088026D01*
X93314003Y-83120857D01*
X93259407Y-83143472D01*
X93201447Y-83155000D01*
X93142353Y-83155000D01*
X93084393Y-83143472D01*
X93029797Y-83120857D01*
X92980661Y-83088026D01*
X92938874Y-83046239D01*
X92906043Y-82997103D01*
X92883428Y-82942507D01*
X92871900Y-82884547D01*
X92871900Y-82825453D01*
X92883428Y-82767493D01*
X92906043Y-82712897D01*
X92938874Y-82663761D01*
X92980661Y-82621974D01*
X93029797Y-82589143D01*
X93084393Y-82566528D01*
X93142353Y-82555000D01*
X93201447Y-82555000D01*
X93259407Y-82566528D01*
X93259407Y-82566528D01*
G37*
G36*
X140782407Y-82564028D02*
X140837003Y-82586643D01*
X140886139Y-82619474D01*
X140927926Y-82661261D01*
X140960757Y-82710397D01*
X140983372Y-82764993D01*
X140994900Y-82822953D01*
X140994900Y-82882047D01*
X140983372Y-82940007D01*
X140960757Y-82994603D01*
X140927926Y-83043739D01*
X140886139Y-83085526D01*
X140837003Y-83118357D01*
X140782407Y-83140972D01*
X140724447Y-83152500D01*
X140665353Y-83152500D01*
X140607393Y-83140972D01*
X140552797Y-83118357D01*
X140503661Y-83085526D01*
X140461874Y-83043739D01*
X140429043Y-82994603D01*
X140406428Y-82940007D01*
X140394900Y-82882047D01*
X140394900Y-82822953D01*
X140406428Y-82764993D01*
X140429043Y-82710397D01*
X140461874Y-82661261D01*
X140503661Y-82619474D01*
X140552797Y-82586643D01*
X140607393Y-82564028D01*
X140665353Y-82552500D01*
X140724447Y-82552500D01*
X140782407Y-82564028D01*
X140782407Y-82564028D01*
G37*
G36*
X104343107Y-81940628D02*
X104397703Y-81963243D01*
X104446839Y-81996074D01*
X104488626Y-82037861D01*
X104521457Y-82086997D01*
X104544072Y-82141593D01*
X104555600Y-82199553D01*
X104555600Y-82258647D01*
X104544072Y-82316607D01*
X104521457Y-82371203D01*
X104488626Y-82420339D01*
X104446839Y-82462126D01*
X104397703Y-82494957D01*
X104343107Y-82517572D01*
X104285147Y-82529100D01*
X104226053Y-82529100D01*
X104168093Y-82517572D01*
X104113497Y-82494957D01*
X104064361Y-82462126D01*
X104022574Y-82420339D01*
X103989743Y-82371203D01*
X103967128Y-82316607D01*
X103955600Y-82258647D01*
X103955600Y-82199553D01*
X103967128Y-82141593D01*
X103989743Y-82086997D01*
X104022574Y-82037861D01*
X104064361Y-81996074D01*
X104113497Y-81963243D01*
X104168093Y-81940628D01*
X104226053Y-81929100D01*
X104285147Y-81929100D01*
X104343107Y-81940628D01*
X104343107Y-81940628D01*
G37*
G36*
X106838207Y-81284828D02*
X106892803Y-81307443D01*
X106941939Y-81340274D01*
X106983726Y-81382061D01*
X107016557Y-81431197D01*
X107039172Y-81485793D01*
X107050700Y-81543753D01*
X107050700Y-81602847D01*
X107039172Y-81660807D01*
X107016557Y-81715403D01*
X106983726Y-81764539D01*
X106941939Y-81806326D01*
X106892803Y-81839157D01*
X106838207Y-81861772D01*
X106780247Y-81873300D01*
X106721153Y-81873300D01*
X106663193Y-81861772D01*
X106608597Y-81839157D01*
X106559461Y-81806326D01*
X106517674Y-81764539D01*
X106484843Y-81715403D01*
X106462228Y-81660807D01*
X106450700Y-81602847D01*
X106450700Y-81543753D01*
X106462228Y-81485793D01*
X106484843Y-81431197D01*
X106517674Y-81382061D01*
X106559461Y-81340274D01*
X106608597Y-81307443D01*
X106663193Y-81284828D01*
X106721153Y-81273300D01*
X106780247Y-81273300D01*
X106838207Y-81284828D01*
X106838207Y-81284828D01*
G37*
G36*
X114848000Y-81215000D02*
X113148000Y-81215000D01*
X113148000Y-79515000D01*
X114848000Y-79515000D01*
X114848000Y-81215000D01*
X114848000Y-81215000D01*
G37*
G36*
X121784630Y-79527299D02*
X121944855Y-79575903D01*
X122092520Y-79654831D01*
X122221949Y-79761051D01*
X122328169Y-79890480D01*
X122407097Y-80038145D01*
X122455701Y-80198370D01*
X122472112Y-80365000D01*
X122455701Y-80531630D01*
X122407097Y-80691855D01*
X122328169Y-80839520D01*
X122221949Y-80968949D01*
X122092520Y-81075169D01*
X121944855Y-81154097D01*
X121784630Y-81202701D01*
X121659752Y-81215000D01*
X121576248Y-81215000D01*
X121451370Y-81202701D01*
X121291145Y-81154097D01*
X121143480Y-81075169D01*
X121014051Y-80968949D01*
X120907831Y-80839520D01*
X120828903Y-80691855D01*
X120780299Y-80531630D01*
X120763888Y-80365000D01*
X120780299Y-80198370D01*
X120828903Y-80038145D01*
X120907831Y-79890480D01*
X121014051Y-79761051D01*
X121143480Y-79654831D01*
X121291145Y-79575903D01*
X121451370Y-79527299D01*
X121576248Y-79515000D01*
X121659752Y-79515000D01*
X121784630Y-79527299D01*
X121784630Y-79527299D01*
G37*
G36*
X119244630Y-79527299D02*
X119404855Y-79575903D01*
X119552520Y-79654831D01*
X119681949Y-79761051D01*
X119788169Y-79890480D01*
X119867097Y-80038145D01*
X119915701Y-80198370D01*
X119932112Y-80365000D01*
X119915701Y-80531630D01*
X119867097Y-80691855D01*
X119788169Y-80839520D01*
X119681949Y-80968949D01*
X119552520Y-81075169D01*
X119404855Y-81154097D01*
X119244630Y-81202701D01*
X119119752Y-81215000D01*
X119036248Y-81215000D01*
X118911370Y-81202701D01*
X118751145Y-81154097D01*
X118603480Y-81075169D01*
X118474051Y-80968949D01*
X118367831Y-80839520D01*
X118288903Y-80691855D01*
X118240299Y-80531630D01*
X118223888Y-80365000D01*
X118240299Y-80198370D01*
X118288903Y-80038145D01*
X118367831Y-79890480D01*
X118474051Y-79761051D01*
X118603480Y-79654831D01*
X118751145Y-79575903D01*
X118911370Y-79527299D01*
X119036248Y-79515000D01*
X119119752Y-79515000D01*
X119244630Y-79527299D01*
X119244630Y-79527299D01*
G37*
G36*
X116704630Y-79527299D02*
X116864855Y-79575903D01*
X117012520Y-79654831D01*
X117141949Y-79761051D01*
X117248169Y-79890480D01*
X117327097Y-80038145D01*
X117375701Y-80198370D01*
X117392112Y-80365000D01*
X117375701Y-80531630D01*
X117327097Y-80691855D01*
X117248169Y-80839520D01*
X117141949Y-80968949D01*
X117012520Y-81075169D01*
X116864855Y-81154097D01*
X116704630Y-81202701D01*
X116579752Y-81215000D01*
X116496248Y-81215000D01*
X116371370Y-81202701D01*
X116211145Y-81154097D01*
X116063480Y-81075169D01*
X115934051Y-80968949D01*
X115827831Y-80839520D01*
X115748903Y-80691855D01*
X115700299Y-80531630D01*
X115683888Y-80365000D01*
X115700299Y-80198370D01*
X115748903Y-80038145D01*
X115827831Y-79890480D01*
X115934051Y-79761051D01*
X116063480Y-79654831D01*
X116211145Y-79575903D01*
X116371370Y-79527299D01*
X116496248Y-79515000D01*
X116579752Y-79515000D01*
X116704630Y-79527299D01*
X116704630Y-79527299D01*
G37*
G36*
X90276000Y-81077000D02*
X87276000Y-81077000D01*
X87276000Y-79553000D01*
X90276000Y-79553000D01*
X90276000Y-81077000D01*
X90276000Y-81077000D01*
G37*
G36*
X164687007Y-79761528D02*
X164741603Y-79784143D01*
X164790739Y-79816974D01*
X164832526Y-79858761D01*
X164865357Y-79907897D01*
X164887972Y-79962493D01*
X164899500Y-80020453D01*
X164899500Y-80079547D01*
X164887972Y-80137507D01*
X164865357Y-80192103D01*
X164832526Y-80241239D01*
X164790739Y-80283026D01*
X164741603Y-80315857D01*
X164687007Y-80338472D01*
X164629047Y-80350000D01*
X164569953Y-80350000D01*
X164511993Y-80338472D01*
X164457397Y-80315857D01*
X164408261Y-80283026D01*
X164366474Y-80241239D01*
X164333643Y-80192103D01*
X164311028Y-80137507D01*
X164299500Y-80079547D01*
X164299500Y-80020453D01*
X164311028Y-79962493D01*
X164333643Y-79907897D01*
X164366474Y-79858761D01*
X164408261Y-79816974D01*
X164457397Y-79784143D01*
X164511993Y-79761528D01*
X164569953Y-79750000D01*
X164629047Y-79750000D01*
X164687007Y-79761528D01*
X164687007Y-79761528D01*
G37*
G36*
X92620807Y-79425728D02*
X92675403Y-79448343D01*
X92724539Y-79481174D01*
X92766326Y-79522961D01*
X92799157Y-79572097D01*
X92821772Y-79626693D01*
X92833300Y-79684653D01*
X92833300Y-79743747D01*
X92821772Y-79801707D01*
X92799157Y-79856303D01*
X92766326Y-79905439D01*
X92724539Y-79947226D01*
X92675403Y-79980057D01*
X92620807Y-80002672D01*
X92562847Y-80014200D01*
X92503753Y-80014200D01*
X92445793Y-80002672D01*
X92391197Y-79980057D01*
X92342061Y-79947226D01*
X92300274Y-79905439D01*
X92267443Y-79856303D01*
X92244828Y-79801707D01*
X92233300Y-79743747D01*
X92233300Y-79684653D01*
X92244828Y-79626693D01*
X92267443Y-79572097D01*
X92300274Y-79522961D01*
X92342061Y-79481174D01*
X92391197Y-79448343D01*
X92445793Y-79425728D01*
X92503753Y-79414200D01*
X92562847Y-79414200D01*
X92620807Y-79425728D01*
X92620807Y-79425728D01*
G37*
G36*
X94479907Y-78283528D02*
X94534503Y-78306143D01*
X94583639Y-78338974D01*
X94625426Y-78380761D01*
X94658257Y-78429897D01*
X94680872Y-78484493D01*
X94692400Y-78542453D01*
X94692400Y-78601547D01*
X94680872Y-78659507D01*
X94658257Y-78714103D01*
X94625426Y-78763239D01*
X94583639Y-78805026D01*
X94534503Y-78837857D01*
X94479907Y-78860472D01*
X94421947Y-78872000D01*
X94362853Y-78872000D01*
X94304893Y-78860472D01*
X94250297Y-78837857D01*
X94201161Y-78805026D01*
X94159374Y-78763239D01*
X94126543Y-78714103D01*
X94103928Y-78659507D01*
X94092400Y-78601547D01*
X94092400Y-78542453D01*
X94103928Y-78484493D01*
X94126543Y-78429897D01*
X94159374Y-78380761D01*
X94201161Y-78338974D01*
X94250297Y-78306143D01*
X94304893Y-78283528D01*
X94362853Y-78272000D01*
X94421947Y-78272000D01*
X94479907Y-78283528D01*
X94479907Y-78283528D01*
G37*
G36*
X90276000Y-78537000D02*
X87276000Y-78537000D01*
X87276000Y-77013000D01*
X90276000Y-77013000D01*
X90276000Y-78537000D01*
X90276000Y-78537000D01*
G37*
G36*
X149480307Y-77609428D02*
X149534903Y-77632043D01*
X149584039Y-77664874D01*
X149625826Y-77706661D01*
X149658657Y-77755797D01*
X149681272Y-77810393D01*
X149692800Y-77868353D01*
X149692800Y-77927447D01*
X149681272Y-77985407D01*
X149658657Y-78040003D01*
X149625826Y-78089139D01*
X149584039Y-78130926D01*
X149534903Y-78163757D01*
X149480307Y-78186372D01*
X149422347Y-78197900D01*
X149363253Y-78197900D01*
X149305293Y-78186372D01*
X149250697Y-78163757D01*
X149201561Y-78130926D01*
X149159774Y-78089139D01*
X149126943Y-78040003D01*
X149104328Y-77985407D01*
X149092800Y-77927447D01*
X149092800Y-77868353D01*
X149104328Y-77810393D01*
X149126943Y-77755797D01*
X149159774Y-77706661D01*
X149201561Y-77664874D01*
X149250697Y-77632043D01*
X149305293Y-77609428D01*
X149363253Y-77597900D01*
X149422347Y-77597900D01*
X149480307Y-77609428D01*
X149480307Y-77609428D01*
G37*
G36*
X126821378Y-74149859D02*
X127185354Y-74300622D01*
X127512929Y-74519501D01*
X127791499Y-74798071D01*
X128010378Y-75125646D01*
X128161141Y-75489622D01*
X128238000Y-75876016D01*
X128238000Y-76269984D01*
X128161141Y-76656378D01*
X128010378Y-77020354D01*
X127791499Y-77347929D01*
X127512929Y-77626499D01*
X127185354Y-77845378D01*
X126821378Y-77996141D01*
X126434984Y-78073000D01*
X126041016Y-78073000D01*
X125654622Y-77996141D01*
X125290646Y-77845378D01*
X124963071Y-77626499D01*
X124684501Y-77347929D01*
X124465622Y-77020354D01*
X124314859Y-76656378D01*
X124238000Y-76269984D01*
X124238000Y-75876016D01*
X124314859Y-75489622D01*
X124465622Y-75125646D01*
X124684501Y-74798071D01*
X124963071Y-74519501D01*
X125290646Y-74300622D01*
X125654622Y-74149859D01*
X126041016Y-74073000D01*
X126434984Y-74073000D01*
X126821378Y-74149859D01*
X126821378Y-74149859D01*
G37*
G36*
X169584630Y-74727299D02*
X169744855Y-74775903D01*
X169892520Y-74854831D01*
X170021949Y-74961051D01*
X170128169Y-75090480D01*
X170207097Y-75238145D01*
X170255701Y-75398370D01*
X170272112Y-75565000D01*
X170255701Y-75731630D01*
X170207097Y-75891855D01*
X170128169Y-76039520D01*
X170021949Y-76168949D01*
X169892520Y-76275169D01*
X169744855Y-76354097D01*
X169584630Y-76402701D01*
X169459752Y-76415000D01*
X169376248Y-76415000D01*
X169251370Y-76402701D01*
X169091145Y-76354097D01*
X168943480Y-76275169D01*
X168814051Y-76168949D01*
X168707831Y-76039520D01*
X168628903Y-75891855D01*
X168580299Y-75731630D01*
X168563888Y-75565000D01*
X168580299Y-75398370D01*
X168628903Y-75238145D01*
X168707831Y-75090480D01*
X168814051Y-74961051D01*
X168943480Y-74854831D01*
X169091145Y-74775903D01*
X169251370Y-74727299D01*
X169376248Y-74715000D01*
X169459752Y-74715000D01*
X169584630Y-74727299D01*
X169584630Y-74727299D01*
G37*
G36*
X159424630Y-74727299D02*
X159584855Y-74775903D01*
X159732520Y-74854831D01*
X159861949Y-74961051D01*
X159968169Y-75090480D01*
X160047097Y-75238145D01*
X160095701Y-75398370D01*
X160112112Y-75565000D01*
X160095701Y-75731630D01*
X160047097Y-75891855D01*
X159968169Y-76039520D01*
X159861949Y-76168949D01*
X159732520Y-76275169D01*
X159584855Y-76354097D01*
X159424630Y-76402701D01*
X159299752Y-76415000D01*
X159216248Y-76415000D01*
X159091370Y-76402701D01*
X158931145Y-76354097D01*
X158783480Y-76275169D01*
X158654051Y-76168949D01*
X158547831Y-76039520D01*
X158468903Y-75891855D01*
X158420299Y-75731630D01*
X158403888Y-75565000D01*
X158420299Y-75398370D01*
X158468903Y-75238145D01*
X158547831Y-75090480D01*
X158654051Y-74961051D01*
X158783480Y-74854831D01*
X158931145Y-74775903D01*
X159091370Y-74727299D01*
X159216248Y-74715000D01*
X159299752Y-74715000D01*
X159424630Y-74727299D01*
X159424630Y-74727299D01*
G37*
G36*
X157568000Y-76415000D02*
X155868000Y-76415000D01*
X155868000Y-74715000D01*
X157568000Y-74715000D01*
X157568000Y-76415000D01*
X157568000Y-76415000D01*
G37*
G36*
X164504630Y-74727299D02*
X164664855Y-74775903D01*
X164812520Y-74854831D01*
X164941949Y-74961051D01*
X165048169Y-75090480D01*
X165127097Y-75238145D01*
X165175701Y-75398370D01*
X165192112Y-75565000D01*
X165175701Y-75731630D01*
X165127097Y-75891855D01*
X165048169Y-76039520D01*
X164941949Y-76168949D01*
X164812520Y-76275169D01*
X164664855Y-76354097D01*
X164504630Y-76402701D01*
X164379752Y-76415000D01*
X164296248Y-76415000D01*
X164171370Y-76402701D01*
X164011145Y-76354097D01*
X163863480Y-76275169D01*
X163734051Y-76168949D01*
X163627831Y-76039520D01*
X163548903Y-75891855D01*
X163500299Y-75731630D01*
X163483888Y-75565000D01*
X163500299Y-75398370D01*
X163548903Y-75238145D01*
X163627831Y-75090480D01*
X163734051Y-74961051D01*
X163863480Y-74854831D01*
X164011145Y-74775903D01*
X164171370Y-74727299D01*
X164296248Y-74715000D01*
X164379752Y-74715000D01*
X164504630Y-74727299D01*
X164504630Y-74727299D01*
G37*
G36*
X135040630Y-74727299D02*
X135200855Y-74775903D01*
X135348520Y-74854831D01*
X135477949Y-74961051D01*
X135584169Y-75090480D01*
X135663097Y-75238145D01*
X135711701Y-75398370D01*
X135728112Y-75565000D01*
X135711701Y-75731630D01*
X135663097Y-75891855D01*
X135584169Y-76039520D01*
X135477949Y-76168949D01*
X135348520Y-76275169D01*
X135200855Y-76354097D01*
X135040630Y-76402701D01*
X134915752Y-76415000D01*
X134832248Y-76415000D01*
X134707370Y-76402701D01*
X134547145Y-76354097D01*
X134399480Y-76275169D01*
X134270051Y-76168949D01*
X134163831Y-76039520D01*
X134084903Y-75891855D01*
X134036299Y-75731630D01*
X134019888Y-75565000D01*
X134036299Y-75398370D01*
X134084903Y-75238145D01*
X134163831Y-75090480D01*
X134270051Y-74961051D01*
X134399480Y-74854831D01*
X134547145Y-74775903D01*
X134707370Y-74727299D01*
X134832248Y-74715000D01*
X134915752Y-74715000D01*
X135040630Y-74727299D01*
X135040630Y-74727299D01*
G37*
G36*
X132500630Y-74727299D02*
X132660855Y-74775903D01*
X132808520Y-74854831D01*
X132937949Y-74961051D01*
X133044169Y-75090480D01*
X133123097Y-75238145D01*
X133171701Y-75398370D01*
X133188112Y-75565000D01*
X133171701Y-75731630D01*
X133123097Y-75891855D01*
X133044169Y-76039520D01*
X132937949Y-76168949D01*
X132808520Y-76275169D01*
X132660855Y-76354097D01*
X132500630Y-76402701D01*
X132375752Y-76415000D01*
X132292248Y-76415000D01*
X132167370Y-76402701D01*
X132007145Y-76354097D01*
X131859480Y-76275169D01*
X131730051Y-76168949D01*
X131623831Y-76039520D01*
X131544903Y-75891855D01*
X131496299Y-75731630D01*
X131479888Y-75565000D01*
X131496299Y-75398370D01*
X131544903Y-75238145D01*
X131623831Y-75090480D01*
X131730051Y-74961051D01*
X131859480Y-74854831D01*
X132007145Y-74775903D01*
X132167370Y-74727299D01*
X132292248Y-74715000D01*
X132375752Y-74715000D01*
X132500630Y-74727299D01*
X132500630Y-74727299D01*
G37*
G36*
X130644000Y-76415000D02*
X128944000Y-76415000D01*
X128944000Y-74715000D01*
X130644000Y-74715000D01*
X130644000Y-76415000D01*
X130644000Y-76415000D01*
G37*
G36*
X174664630Y-74727299D02*
X174824855Y-74775903D01*
X174972520Y-74854831D01*
X175101949Y-74961051D01*
X175208169Y-75090480D01*
X175287097Y-75238145D01*
X175335701Y-75398370D01*
X175352112Y-75565000D01*
X175335701Y-75731630D01*
X175287097Y-75891855D01*
X175208169Y-76039520D01*
X175101949Y-76168949D01*
X174972520Y-76275169D01*
X174824855Y-76354097D01*
X174664630Y-76402701D01*
X174539752Y-76415000D01*
X174456248Y-76415000D01*
X174331370Y-76402701D01*
X174171145Y-76354097D01*
X174023480Y-76275169D01*
X173894051Y-76168949D01*
X173787831Y-76039520D01*
X173708903Y-75891855D01*
X173660299Y-75731630D01*
X173643888Y-75565000D01*
X173660299Y-75398370D01*
X173708903Y-75238145D01*
X173787831Y-75090480D01*
X173894051Y-74961051D01*
X174023480Y-74854831D01*
X174171145Y-74775903D01*
X174331370Y-74727299D01*
X174456248Y-74715000D01*
X174539752Y-74715000D01*
X174664630Y-74727299D01*
X174664630Y-74727299D01*
G37*
G36*
X172124630Y-74727299D02*
X172284855Y-74775903D01*
X172432520Y-74854831D01*
X172561949Y-74961051D01*
X172668169Y-75090480D01*
X172747097Y-75238145D01*
X172795701Y-75398370D01*
X172812112Y-75565000D01*
X172795701Y-75731630D01*
X172747097Y-75891855D01*
X172668169Y-76039520D01*
X172561949Y-76168949D01*
X172432520Y-76275169D01*
X172284855Y-76354097D01*
X172124630Y-76402701D01*
X171999752Y-76415000D01*
X171916248Y-76415000D01*
X171791370Y-76402701D01*
X171631145Y-76354097D01*
X171483480Y-76275169D01*
X171354051Y-76168949D01*
X171247831Y-76039520D01*
X171168903Y-75891855D01*
X171120299Y-75731630D01*
X171103888Y-75565000D01*
X171120299Y-75398370D01*
X171168903Y-75238145D01*
X171247831Y-75090480D01*
X171354051Y-74961051D01*
X171483480Y-74854831D01*
X171631145Y-74775903D01*
X171791370Y-74727299D01*
X171916248Y-74715000D01*
X171999752Y-74715000D01*
X172124630Y-74727299D01*
X172124630Y-74727299D01*
G37*
G36*
X137580630Y-74727299D02*
X137740855Y-74775903D01*
X137888520Y-74854831D01*
X138017949Y-74961051D01*
X138124169Y-75090480D01*
X138203097Y-75238145D01*
X138251701Y-75398370D01*
X138268112Y-75565000D01*
X138251701Y-75731630D01*
X138203097Y-75891855D01*
X138124169Y-76039520D01*
X138017949Y-76168949D01*
X137888520Y-76275169D01*
X137740855Y-76354097D01*
X137580630Y-76402701D01*
X137455752Y-76415000D01*
X137372248Y-76415000D01*
X137247370Y-76402701D01*
X137087145Y-76354097D01*
X136939480Y-76275169D01*
X136810051Y-76168949D01*
X136703831Y-76039520D01*
X136624903Y-75891855D01*
X136576299Y-75731630D01*
X136559888Y-75565000D01*
X136576299Y-75398370D01*
X136624903Y-75238145D01*
X136703831Y-75090480D01*
X136810051Y-74961051D01*
X136939480Y-74854831D01*
X137087145Y-74775903D01*
X137247370Y-74727299D01*
X137372248Y-74715000D01*
X137455752Y-74715000D01*
X137580630Y-74727299D01*
X137580630Y-74727299D01*
G37*
G36*
X140120630Y-74727299D02*
X140280855Y-74775903D01*
X140428520Y-74854831D01*
X140557949Y-74961051D01*
X140664169Y-75090480D01*
X140743097Y-75238145D01*
X140791701Y-75398370D01*
X140808112Y-75565000D01*
X140791701Y-75731630D01*
X140743097Y-75891855D01*
X140664169Y-76039520D01*
X140557949Y-76168949D01*
X140428520Y-76275169D01*
X140280855Y-76354097D01*
X140120630Y-76402701D01*
X139995752Y-76415000D01*
X139912248Y-76415000D01*
X139787370Y-76402701D01*
X139627145Y-76354097D01*
X139479480Y-76275169D01*
X139350051Y-76168949D01*
X139243831Y-76039520D01*
X139164903Y-75891855D01*
X139116299Y-75731630D01*
X139099888Y-75565000D01*
X139116299Y-75398370D01*
X139164903Y-75238145D01*
X139243831Y-75090480D01*
X139350051Y-74961051D01*
X139479480Y-74854831D01*
X139627145Y-74775903D01*
X139787370Y-74727299D01*
X139912248Y-74715000D01*
X139995752Y-74715000D01*
X140120630Y-74727299D01*
X140120630Y-74727299D01*
G37*
G36*
X142660630Y-74727299D02*
X142820855Y-74775903D01*
X142968520Y-74854831D01*
X143097949Y-74961051D01*
X143204169Y-75090480D01*
X143283097Y-75238145D01*
X143331701Y-75398370D01*
X143348112Y-75565000D01*
X143331701Y-75731630D01*
X143283097Y-75891855D01*
X143204169Y-76039520D01*
X143097949Y-76168949D01*
X142968520Y-76275169D01*
X142820855Y-76354097D01*
X142660630Y-76402701D01*
X142535752Y-76415000D01*
X142452248Y-76415000D01*
X142327370Y-76402701D01*
X142167145Y-76354097D01*
X142019480Y-76275169D01*
X141890051Y-76168949D01*
X141783831Y-76039520D01*
X141704903Y-75891855D01*
X141656299Y-75731630D01*
X141639888Y-75565000D01*
X141656299Y-75398370D01*
X141704903Y-75238145D01*
X141783831Y-75090480D01*
X141890051Y-74961051D01*
X142019480Y-74854831D01*
X142167145Y-74775903D01*
X142327370Y-74727299D01*
X142452248Y-74715000D01*
X142535752Y-74715000D01*
X142660630Y-74727299D01*
X142660630Y-74727299D01*
G37*
G36*
X145200630Y-74727299D02*
X145360855Y-74775903D01*
X145508520Y-74854831D01*
X145637949Y-74961051D01*
X145744169Y-75090480D01*
X145823097Y-75238145D01*
X145871701Y-75398370D01*
X145888112Y-75565000D01*
X145871701Y-75731630D01*
X145823097Y-75891855D01*
X145744169Y-76039520D01*
X145637949Y-76168949D01*
X145508520Y-76275169D01*
X145360855Y-76354097D01*
X145200630Y-76402701D01*
X145075752Y-76415000D01*
X144992248Y-76415000D01*
X144867370Y-76402701D01*
X144707145Y-76354097D01*
X144559480Y-76275169D01*
X144430051Y-76168949D01*
X144323831Y-76039520D01*
X144244903Y-75891855D01*
X144196299Y-75731630D01*
X144179888Y-75565000D01*
X144196299Y-75398370D01*
X144244903Y-75238145D01*
X144323831Y-75090480D01*
X144430051Y-74961051D01*
X144559480Y-74854831D01*
X144707145Y-74775903D01*
X144867370Y-74727299D01*
X144992248Y-74715000D01*
X145075752Y-74715000D01*
X145200630Y-74727299D01*
X145200630Y-74727299D01*
G37*
G36*
X147740630Y-74727299D02*
X147900855Y-74775903D01*
X148048520Y-74854831D01*
X148177949Y-74961051D01*
X148284169Y-75090480D01*
X148363097Y-75238145D01*
X148411701Y-75398370D01*
X148428112Y-75565000D01*
X148411701Y-75731630D01*
X148363097Y-75891855D01*
X148284169Y-76039520D01*
X148177949Y-76168949D01*
X148048520Y-76275169D01*
X147900855Y-76354097D01*
X147740630Y-76402701D01*
X147615752Y-76415000D01*
X147532248Y-76415000D01*
X147407370Y-76402701D01*
X147247145Y-76354097D01*
X147099480Y-76275169D01*
X146970051Y-76168949D01*
X146863831Y-76039520D01*
X146784903Y-75891855D01*
X146736299Y-75731630D01*
X146719888Y-75565000D01*
X146736299Y-75398370D01*
X146784903Y-75238145D01*
X146863831Y-75090480D01*
X146970051Y-74961051D01*
X147099480Y-74854831D01*
X147247145Y-74775903D01*
X147407370Y-74727299D01*
X147532248Y-74715000D01*
X147615752Y-74715000D01*
X147740630Y-74727299D01*
X147740630Y-74727299D01*
G37*
G36*
X150280630Y-74727299D02*
X150440855Y-74775903D01*
X150588520Y-74854831D01*
X150717949Y-74961051D01*
X150824169Y-75090480D01*
X150903097Y-75238145D01*
X150951701Y-75398370D01*
X150968112Y-75565000D01*
X150951701Y-75731630D01*
X150903097Y-75891855D01*
X150824169Y-76039520D01*
X150717949Y-76168949D01*
X150588520Y-76275169D01*
X150440855Y-76354097D01*
X150280630Y-76402701D01*
X150155752Y-76415000D01*
X150072248Y-76415000D01*
X149947370Y-76402701D01*
X149787145Y-76354097D01*
X149639480Y-76275169D01*
X149510051Y-76168949D01*
X149403831Y-76039520D01*
X149324903Y-75891855D01*
X149276299Y-75731630D01*
X149259888Y-75565000D01*
X149276299Y-75398370D01*
X149324903Y-75238145D01*
X149403831Y-75090480D01*
X149510051Y-74961051D01*
X149639480Y-74854831D01*
X149787145Y-74775903D01*
X149947370Y-74727299D01*
X150072248Y-74715000D01*
X150155752Y-74715000D01*
X150280630Y-74727299D01*
X150280630Y-74727299D01*
G37*
G36*
X152820630Y-74727299D02*
X152980855Y-74775903D01*
X153128520Y-74854831D01*
X153257949Y-74961051D01*
X153364169Y-75090480D01*
X153443097Y-75238145D01*
X153491701Y-75398370D01*
X153508112Y-75565000D01*
X153491701Y-75731630D01*
X153443097Y-75891855D01*
X153364169Y-76039520D01*
X153257949Y-76168949D01*
X153128520Y-76275169D01*
X152980855Y-76354097D01*
X152820630Y-76402701D01*
X152695752Y-76415000D01*
X152612248Y-76415000D01*
X152487370Y-76402701D01*
X152327145Y-76354097D01*
X152179480Y-76275169D01*
X152050051Y-76168949D01*
X151943831Y-76039520D01*
X151864903Y-75891855D01*
X151816299Y-75731630D01*
X151799888Y-75565000D01*
X151816299Y-75398370D01*
X151864903Y-75238145D01*
X151943831Y-75090480D01*
X152050051Y-74961051D01*
X152179480Y-74854831D01*
X152327145Y-74775903D01*
X152487370Y-74727299D01*
X152612248Y-74715000D01*
X152695752Y-74715000D01*
X152820630Y-74727299D01*
X152820630Y-74727299D01*
G37*
G36*
X167044630Y-74727299D02*
X167204855Y-74775903D01*
X167352520Y-74854831D01*
X167481949Y-74961051D01*
X167588169Y-75090480D01*
X167667097Y-75238145D01*
X167715701Y-75398370D01*
X167732112Y-75565000D01*
X167715701Y-75731630D01*
X167667097Y-75891855D01*
X167588169Y-76039520D01*
X167481949Y-76168949D01*
X167352520Y-76275169D01*
X167204855Y-76354097D01*
X167044630Y-76402701D01*
X166919752Y-76415000D01*
X166836248Y-76415000D01*
X166711370Y-76402701D01*
X166551145Y-76354097D01*
X166403480Y-76275169D01*
X166274051Y-76168949D01*
X166167831Y-76039520D01*
X166088903Y-75891855D01*
X166040299Y-75731630D01*
X166023888Y-75565000D01*
X166040299Y-75398370D01*
X166088903Y-75238145D01*
X166167831Y-75090480D01*
X166274051Y-74961051D01*
X166403480Y-74854831D01*
X166551145Y-74775903D01*
X166711370Y-74727299D01*
X166836248Y-74715000D01*
X166919752Y-74715000D01*
X167044630Y-74727299D01*
X167044630Y-74727299D01*
G37*
G36*
X161964630Y-74727299D02*
X162124855Y-74775903D01*
X162272520Y-74854831D01*
X162401949Y-74961051D01*
X162508169Y-75090480D01*
X162587097Y-75238145D01*
X162635701Y-75398370D01*
X162652112Y-75565000D01*
X162635701Y-75731630D01*
X162587097Y-75891855D01*
X162508169Y-76039520D01*
X162401949Y-76168949D01*
X162272520Y-76275169D01*
X162124855Y-76354097D01*
X161964630Y-76402701D01*
X161839752Y-76415000D01*
X161756248Y-76415000D01*
X161631370Y-76402701D01*
X161471145Y-76354097D01*
X161323480Y-76275169D01*
X161194051Y-76168949D01*
X161087831Y-76039520D01*
X161008903Y-75891855D01*
X160960299Y-75731630D01*
X160943888Y-75565000D01*
X160960299Y-75398370D01*
X161008903Y-75238145D01*
X161087831Y-75090480D01*
X161194051Y-74961051D01*
X161323480Y-74854831D01*
X161471145Y-74775903D01*
X161631370Y-74727299D01*
X161756248Y-74715000D01*
X161839752Y-74715000D01*
X161964630Y-74727299D01*
X161964630Y-74727299D01*
G37*
G36*
X90276000Y-75997000D02*
X87276000Y-75997000D01*
X87276000Y-74473000D01*
X90276000Y-74473000D01*
X90276000Y-75997000D01*
X90276000Y-75997000D01*
G37*
G36*
X143590307Y-74080228D02*
X143644903Y-74102843D01*
X143694039Y-74135674D01*
X143735826Y-74177461D01*
X143768657Y-74226597D01*
X143791272Y-74281193D01*
X143802800Y-74339153D01*
X143802800Y-74398247D01*
X143791272Y-74456207D01*
X143768657Y-74510803D01*
X143735826Y-74559939D01*
X143694039Y-74601726D01*
X143644903Y-74634557D01*
X143590307Y-74657172D01*
X143532347Y-74668700D01*
X143473253Y-74668700D01*
X143415293Y-74657172D01*
X143360697Y-74634557D01*
X143311561Y-74601726D01*
X143269774Y-74559939D01*
X143236943Y-74510803D01*
X143214328Y-74456207D01*
X143202800Y-74398247D01*
X143202800Y-74339153D01*
X143214328Y-74281193D01*
X143236943Y-74226597D01*
X143269774Y-74177461D01*
X143311561Y-74135674D01*
X143360697Y-74102843D01*
X143415293Y-74080228D01*
X143473253Y-74068700D01*
X143532347Y-74068700D01*
X143590307Y-74080228D01*
X143590307Y-74080228D01*
G37*
G36*
X147333407Y-73641128D02*
X147388003Y-73663743D01*
X147437139Y-73696574D01*
X147478926Y-73738361D01*
X147511757Y-73787497D01*
X147534372Y-73842093D01*
X147545900Y-73900053D01*
X147545900Y-73959147D01*
X147534372Y-74017107D01*
X147511757Y-74071703D01*
X147478926Y-74120839D01*
X147437139Y-74162626D01*
X147388003Y-74195457D01*
X147333407Y-74218072D01*
X147275447Y-74229600D01*
X147216353Y-74229600D01*
X147158393Y-74218072D01*
X147103797Y-74195457D01*
X147054661Y-74162626D01*
X147012874Y-74120839D01*
X146980043Y-74071703D01*
X146957428Y-74017107D01*
X146945900Y-73959147D01*
X146945900Y-73900053D01*
X146957428Y-73842093D01*
X146980043Y-73787497D01*
X147012874Y-73738361D01*
X147054661Y-73696574D01*
X147103797Y-73663743D01*
X147158393Y-73641128D01*
X147216353Y-73629600D01*
X147275447Y-73629600D01*
X147333407Y-73641128D01*
X147333407Y-73641128D01*
G37*
M02*
