%TF.GenerationSoftware,KiCad,Pcbnew,4.0.2+dfsg1-stable*%
%TF.CreationDate,2019-10-19T14:14:11+02:00*%
%TF.ProjectId,stduinof429,73746475696E6F663432392E6B696361,rev?*%
%TF.FileFunction,Copper,L2,Bot,Mixed*%
%FSLAX46Y46*%
G04 Gerber Fmt 4.6, Leading zero omitted, Abs format (unit mm)*
G04 Created by KiCad (PCBNEW 4.0.2+dfsg1-stable) date Sat 19 Oct 2019 14:14:11 CEST*
%MOMM*%
G01*
G04 APERTURE LIST*
%ADD10C,0.100000*%
%ADD11R,2.032000X2.032000*%
%ADD12O,2.032000X2.032000*%
%ADD13R,2.032000X1.727200*%
%ADD14O,2.032000X1.727200*%
%ADD15R,1.727200X2.032000*%
%ADD16O,1.727200X2.032000*%
%ADD17C,1.998980*%
%ADD18C,1.500000*%
%ADD19R,1.727200X1.727200*%
%ADD20O,1.727200X1.727200*%
%ADD21C,4.000000*%
%ADD22O,1.250000X0.950000*%
%ADD23O,1.000000X1.550000*%
%ADD24R,3.000000X1.524000*%
%ADD25C,0.600000*%
%ADD26C,0.250000*%
%ADD27C,0.254000*%
G04 APERTURE END LIST*
D10*
D11*
X117998000Y-93365000D03*
D12*
X117998000Y-90825000D03*
D11*
X123998000Y-93365000D03*
D12*
X123998000Y-90825000D03*
D13*
X176998000Y-96365000D03*
D14*
X176998000Y-98905000D03*
X176998000Y-101445000D03*
D15*
X113998000Y-80365000D03*
D16*
X116538000Y-80365000D03*
X119078000Y-80365000D03*
X121618000Y-80365000D03*
D17*
X119998000Y-124365000D03*
D18*
X130998000Y-97365000D03*
X130998000Y-102245000D03*
D19*
X99998000Y-99365000D03*
D20*
X102538000Y-99365000D03*
X99998000Y-101905000D03*
X102538000Y-101905000D03*
X99998000Y-104445000D03*
X102538000Y-104445000D03*
D15*
X138938000Y-123825000D03*
D16*
X141478000Y-123825000D03*
X144018000Y-123825000D03*
X146558000Y-123825000D03*
X149098000Y-123825000D03*
X151638000Y-123825000D03*
X154178000Y-123825000D03*
X156718000Y-123825000D03*
D15*
X161798000Y-123825000D03*
D16*
X164338000Y-123825000D03*
X166878000Y-123825000D03*
X169418000Y-123825000D03*
X171958000Y-123825000D03*
X174498000Y-123825000D03*
D15*
X129794000Y-75565000D03*
D16*
X132334000Y-75565000D03*
X134874000Y-75565000D03*
X137414000Y-75565000D03*
X139954000Y-75565000D03*
X142494000Y-75565000D03*
X145034000Y-75565000D03*
X147574000Y-75565000D03*
X150114000Y-75565000D03*
X152654000Y-75565000D03*
D15*
X156718000Y-75565000D03*
D16*
X159258000Y-75565000D03*
X161798000Y-75565000D03*
X164338000Y-75565000D03*
X166878000Y-75565000D03*
X169418000Y-75565000D03*
X171958000Y-75565000D03*
X174498000Y-75565000D03*
D21*
X124968000Y-124333000D03*
X177038000Y-119253000D03*
X126238000Y-76073000D03*
X177038000Y-91313000D03*
X106998000Y-91357000D03*
D22*
X99497100Y-122802460D03*
X104497100Y-122802460D03*
D23*
X98497100Y-125502460D03*
X105497100Y-125502460D03*
D15*
X103998000Y-112365000D03*
D16*
X101458000Y-112365000D03*
X98918000Y-112365000D03*
D24*
X88776000Y-123495000D03*
X88776000Y-120955000D03*
X88776000Y-118415000D03*
X88776000Y-115875000D03*
X88776000Y-113335000D03*
X88776000Y-110795000D03*
X88776000Y-108255000D03*
X88776000Y-105715000D03*
X88776000Y-103175000D03*
X88776000Y-100635000D03*
X88776000Y-98095000D03*
X88776000Y-95555000D03*
X88776000Y-93015000D03*
X88776000Y-90475000D03*
X88776000Y-87935000D03*
X88776000Y-85395000D03*
X88776000Y-82855000D03*
X88776000Y-80315000D03*
X88776000Y-77775000D03*
X88776000Y-75235000D03*
D25*
X159082500Y-113118200D03*
X173405500Y-102007100D03*
X163098400Y-109034500D03*
X128054600Y-119103100D03*
X102865600Y-107247600D03*
X143316800Y-103782200D03*
X119869100Y-82947100D03*
X172168200Y-81154100D03*
X170704200Y-92315900D03*
X154952600Y-87834900D03*
X137678900Y-87687500D03*
X141499100Y-112365000D03*
X156987200Y-91115000D03*
X162868200Y-97615000D03*
X129684000Y-87432700D03*
X141470900Y-116499300D03*
X152764700Y-84827500D03*
X171066000Y-94765500D03*
X150147200Y-85679000D03*
X111192300Y-77578200D03*
X152691800Y-88194500D03*
X128253700Y-85743600D03*
X145781300Y-112960000D03*
X149128800Y-113589000D03*
X150187400Y-110542200D03*
X150825800Y-108389800D03*
X157723600Y-87827400D03*
X158860100Y-85665000D03*
X160894100Y-85272100D03*
X162148000Y-87822000D03*
X163911800Y-85665500D03*
X102181400Y-95071600D03*
X126126100Y-87621000D03*
X150731300Y-113711500D03*
X124433800Y-86851100D03*
X152225800Y-110921000D03*
X145909600Y-95055100D03*
X148334200Y-92364300D03*
X138328800Y-94580100D03*
X140169400Y-94032200D03*
X143013700Y-93700700D03*
X145458400Y-104752500D03*
X143097200Y-104624400D03*
X142332400Y-105395300D03*
X145627200Y-103440100D03*
X129653200Y-114799400D03*
X145086900Y-115028200D03*
X151010600Y-110909600D03*
X131002000Y-113312000D03*
X143711300Y-76446200D03*
X151902600Y-113059200D03*
X93721400Y-121297900D03*
X156123000Y-113620200D03*
X120676300Y-83390600D03*
X147950200Y-105419000D03*
X148149700Y-80754400D03*
X163727900Y-110692000D03*
X95733200Y-115230500D03*
X146736600Y-102706900D03*
X96242400Y-113335000D03*
X146358800Y-101952800D03*
X132658000Y-111098400D03*
X147172700Y-101335800D03*
X133140800Y-110439200D03*
X145945500Y-100549300D03*
X97201300Y-106590400D03*
X145935100Y-99730900D03*
X106321000Y-105387400D03*
X146736600Y-99139600D03*
X145911900Y-98930500D03*
X146700500Y-97136100D03*
X145900100Y-97138400D03*
X92173000Y-98722800D03*
X113838200Y-97249800D03*
X145906200Y-95876700D03*
X102271200Y-94271200D03*
X168466900Y-89253500D03*
X124667500Y-86042400D03*
X147474400Y-92805100D03*
X99323500Y-89883200D03*
X168424800Y-86425600D03*
X99604600Y-86449300D03*
X111920300Y-72038000D03*
X147186800Y-98386800D03*
X164148500Y-98491400D03*
X165094000Y-87815600D03*
X93248000Y-95793700D03*
X103968600Y-95258200D03*
X164248000Y-88041700D03*
X91871300Y-92619600D03*
X99772500Y-90683700D03*
X161088400Y-87921300D03*
X91946900Y-77492700D03*
X94251300Y-85577200D03*
X135306900Y-88245200D03*
X146870400Y-90897900D03*
X92041100Y-84294800D03*
X139744200Y-82786900D03*
X141151500Y-84409800D03*
X133284600Y-81005100D03*
X137859400Y-85035400D03*
X136417900Y-88422200D03*
X141610300Y-88165100D03*
X135594500Y-84690400D03*
X139016900Y-87509500D03*
X108723700Y-108691400D03*
X131181000Y-112382900D03*
X138946900Y-83450700D03*
X145918500Y-89885300D03*
X147245900Y-119004400D03*
X145440500Y-106615000D03*
X150611200Y-87817100D03*
X149248000Y-88042500D03*
X150190400Y-88563700D03*
X151441100Y-88319600D03*
X142642000Y-88596400D03*
X90247500Y-122225000D03*
X94091400Y-118381100D03*
D26*
X117998000Y-90825000D02*
X117998000Y-89483700D01*
X119339300Y-90825000D02*
X122656700Y-90825000D01*
X117998000Y-90825000D02*
X119339300Y-90825000D01*
X123998000Y-90825000D02*
X122656700Y-90825000D01*
X113998000Y-85483700D02*
X117998000Y-89483700D01*
X113998000Y-80365000D02*
X113998000Y-85483700D01*
X99296500Y-123602800D02*
X99497100Y-123602800D01*
X98497100Y-124402200D02*
X99296500Y-123602800D01*
X98497100Y-125502500D02*
X98497100Y-124402200D01*
X154178000Y-123825000D02*
X155366900Y-123825000D01*
X99497100Y-122802500D02*
X99497100Y-123202600D01*
X99497100Y-123202600D02*
X99497100Y-123602800D01*
X103146700Y-123202600D02*
X103546800Y-122802500D01*
X99497100Y-123202600D02*
X103146700Y-123202600D01*
X104497100Y-122802500D02*
X103546800Y-122802500D01*
X174036000Y-102637600D02*
X173405500Y-102007100D01*
X177690500Y-102637600D02*
X174036000Y-102637600D01*
X178346400Y-101981700D02*
X177690500Y-102637600D01*
X178346400Y-97713400D02*
X178346400Y-101981700D01*
X176998000Y-96365000D02*
X178346400Y-97713400D01*
X155366900Y-116833800D02*
X159082500Y-113118200D01*
X155366900Y-123825000D02*
X155366900Y-116833800D01*
X163098400Y-109102300D02*
X163098400Y-109034500D01*
X159082500Y-113118200D02*
X163098400Y-109102300D01*
X125259900Y-119103100D02*
X119998000Y-124365000D01*
X128054600Y-119103100D02*
X125259900Y-119103100D01*
X101458000Y-112365000D02*
X102646900Y-112365000D01*
X102646900Y-107466300D02*
X102865600Y-107247600D01*
X102646900Y-112365000D02*
X102646900Y-107466300D01*
X144018000Y-123825000D02*
X144018000Y-122483700D01*
X143614500Y-104079900D02*
X143316800Y-103782200D01*
X146112300Y-104079900D02*
X143614500Y-104079900D01*
X143621200Y-122086900D02*
X144018000Y-122483700D01*
X143621200Y-107515800D02*
X143621200Y-122086900D01*
X146112300Y-105024700D02*
X143621200Y-107515800D01*
X146112300Y-104079900D02*
X146112300Y-105024700D01*
X146364100Y-104079900D02*
X146112300Y-104079900D01*
X147812200Y-102631800D02*
X146364100Y-104079900D01*
X147812200Y-96070000D02*
X147812200Y-102631800D01*
X145545000Y-93802800D02*
X147812200Y-96070000D01*
X144833800Y-93802800D02*
X145545000Y-93802800D01*
X143409500Y-92378500D02*
X144833800Y-93802800D01*
X128401800Y-92378500D02*
X143409500Y-92378500D01*
X119869100Y-83845800D02*
X128401800Y-92378500D01*
X119869100Y-82947100D02*
X119869100Y-83845800D01*
X171146300Y-91873800D02*
X170704200Y-92315900D01*
X171146300Y-82176000D02*
X171146300Y-91873800D01*
X172168200Y-81154100D02*
X171146300Y-82176000D01*
X142666900Y-124345100D02*
X142666900Y-123825000D01*
X143491400Y-125169600D02*
X142666900Y-124345100D01*
X144544600Y-125169600D02*
X143491400Y-125169600D01*
X145369100Y-124345100D02*
X144544600Y-125169600D01*
X145369100Y-123825000D02*
X145369100Y-124345100D01*
X146558000Y-123825000D02*
X145369100Y-123825000D01*
X141478000Y-123825000D02*
X141990400Y-123825000D01*
X141990400Y-123825000D02*
X142666900Y-123825000D01*
X121618000Y-80365000D02*
X121618000Y-81035600D01*
X156987200Y-91734000D02*
X156987200Y-91115000D01*
X162868200Y-97615000D02*
X156987200Y-91734000D01*
X141990400Y-117018800D02*
X141470900Y-116499300D01*
X141990400Y-123825000D02*
X141990400Y-117018800D01*
X141470900Y-112393200D02*
X141499100Y-112365000D01*
X141470900Y-116499300D02*
X141470900Y-112393200D01*
X122281800Y-81035600D02*
X121618000Y-81035600D01*
X128751300Y-87505100D02*
X122281800Y-81035600D01*
X129611600Y-87505100D02*
X128751300Y-87505100D01*
X129684000Y-87432700D02*
X129611600Y-87505100D01*
X137424100Y-87432700D02*
X129684000Y-87432700D01*
X137678900Y-87687500D02*
X137424100Y-87432700D01*
X154952600Y-89080400D02*
X154952600Y-87834900D01*
X156987200Y-91115000D02*
X154952600Y-89080400D01*
X154952600Y-87015400D02*
X152764700Y-84827500D01*
X154952600Y-87834900D02*
X154952600Y-87015400D01*
X175957700Y-97716100D02*
X176998000Y-97716100D01*
X174498000Y-96256400D02*
X175957700Y-97716100D01*
X174498000Y-75565000D02*
X174498000Y-96256400D01*
X176998000Y-98905000D02*
X176998000Y-97716100D01*
X176998000Y-101445000D02*
X176998000Y-100256100D01*
X171958000Y-94765500D02*
X171066000Y-94765500D01*
X176477900Y-100256100D02*
X176998000Y-100256100D01*
X171958000Y-95736200D02*
X176477900Y-100256100D01*
X171958000Y-94765500D02*
X171958000Y-95736200D01*
X171958000Y-75565000D02*
X171958000Y-76906300D01*
X172793500Y-77741800D02*
X171958000Y-76906300D01*
X172793500Y-93930000D02*
X172793500Y-77741800D01*
X171958000Y-94765500D02*
X172793500Y-93930000D01*
X148796500Y-84328300D02*
X150147200Y-85679000D01*
X148796500Y-74883500D02*
X148796500Y-84328300D01*
X148107700Y-74194700D02*
X148796500Y-74883500D01*
X134373100Y-74194700D02*
X148107700Y-74194700D01*
X133522900Y-75044900D02*
X134373100Y-74194700D01*
X133522900Y-75565000D02*
X133522900Y-75044900D01*
X132334000Y-75565000D02*
X133522900Y-75565000D01*
X152066400Y-87598200D02*
X150147200Y-85679000D01*
X152066400Y-88579100D02*
X152066400Y-87598200D01*
X171958000Y-108470700D02*
X152066400Y-88579100D01*
X171958000Y-123825000D02*
X171958000Y-108470700D01*
X174498000Y-109810600D02*
X172826200Y-108138800D01*
X174498000Y-123825000D02*
X174498000Y-109810600D01*
X116964300Y-71806200D02*
X111192300Y-77578200D01*
X172608900Y-71806200D02*
X116964300Y-71806200D01*
X176253600Y-75450900D02*
X172608900Y-71806200D01*
X176253600Y-85442100D02*
X176253600Y-75450900D01*
X179390300Y-88578800D02*
X176253600Y-85442100D01*
X179390300Y-101574700D02*
X179390300Y-88578800D01*
X172826200Y-108138800D02*
X179390300Y-101574700D01*
X152691800Y-88323100D02*
X152691800Y-88194500D01*
X172507500Y-108138800D02*
X152691800Y-88323100D01*
X172826200Y-108138800D02*
X172507500Y-108138800D01*
X129794000Y-84203300D02*
X128253700Y-85743600D01*
X129794000Y-75565000D02*
X129794000Y-84203300D01*
X139954000Y-75565000D02*
X141142900Y-75565000D01*
X141142900Y-76753900D02*
X141142900Y-75565000D01*
X142268900Y-77879900D02*
X141142900Y-76753900D01*
X142268900Y-85348200D02*
X142268900Y-77879900D01*
X149662200Y-92741500D02*
X142268900Y-85348200D01*
X149662200Y-106412700D02*
X149662200Y-92741500D01*
X145781300Y-110293600D02*
X149662200Y-106412700D01*
X145781300Y-112960000D02*
X145781300Y-110293600D01*
X142494000Y-75565000D02*
X142494000Y-76906300D01*
X142944200Y-77356500D02*
X142494000Y-76906300D01*
X142944200Y-85386600D02*
X142944200Y-77356500D01*
X150153200Y-92595600D02*
X142944200Y-85386600D01*
X150153200Y-106741400D02*
X150153200Y-92595600D01*
X149070700Y-107823900D02*
X150153200Y-106741400D01*
X149070700Y-113530900D02*
X149070700Y-107823900D01*
X149128800Y-113589000D02*
X149070700Y-113530900D01*
X145034000Y-75565000D02*
X145034000Y-76906300D01*
X145034000Y-86202600D02*
X145034000Y-76906300D01*
X151107800Y-92276400D02*
X145034000Y-86202600D01*
X151107800Y-107105200D02*
X151107800Y-92276400D01*
X150187400Y-108025600D02*
X151107800Y-107105200D01*
X150187400Y-110542200D02*
X150187400Y-108025600D01*
X147574000Y-75565000D02*
X147574000Y-76906300D01*
X151605100Y-107610500D02*
X150825800Y-108389800D01*
X151605100Y-92136700D02*
X151605100Y-107610500D01*
X147508800Y-88040400D02*
X151605100Y-92136700D01*
X147508800Y-76971500D02*
X147508800Y-88040400D01*
X147574000Y-76906300D02*
X147508800Y-76971500D01*
X150114000Y-80217800D02*
X157723600Y-87827400D01*
X150114000Y-75565000D02*
X150114000Y-80217800D01*
X152654000Y-79458900D02*
X158860100Y-85665000D01*
X152654000Y-75565000D02*
X152654000Y-79458900D01*
X156718000Y-75565000D02*
X157906900Y-75565000D01*
X157906900Y-82284900D02*
X157906900Y-75565000D01*
X160894100Y-85272100D02*
X157906900Y-82284900D01*
X162148000Y-77256300D02*
X162148000Y-87822000D01*
X161798000Y-76906300D02*
X162148000Y-77256300D01*
X161798000Y-75565000D02*
X161798000Y-76906300D01*
X169418000Y-75565000D02*
X169418000Y-76906300D01*
X169418000Y-80159300D02*
X163911800Y-85665500D01*
X169418000Y-76906300D02*
X169418000Y-80159300D01*
X88776000Y-75235000D02*
X90601300Y-75235000D01*
X97077800Y-89968000D02*
X102181400Y-95071600D01*
X97077800Y-81711500D02*
X97077800Y-89968000D01*
X90601300Y-75235000D02*
X97077800Y-81711500D01*
X129077700Y-90572600D02*
X126126100Y-87621000D01*
X143646200Y-90572600D02*
X129077700Y-90572600D01*
X145075200Y-92001600D02*
X143646200Y-90572600D01*
X145654600Y-92001600D02*
X145075200Y-92001600D01*
X149181300Y-95528300D02*
X145654600Y-92001600D01*
X149181300Y-106256700D02*
X149181300Y-95528300D01*
X145096200Y-110341800D02*
X149181300Y-106256700D01*
X145096200Y-113179900D02*
X145096200Y-110341800D01*
X146164300Y-114248000D02*
X145096200Y-113179900D01*
X150194800Y-114248000D02*
X146164300Y-114248000D01*
X150731300Y-113711500D02*
X150194800Y-114248000D01*
X128780900Y-91198200D02*
X124433800Y-86851100D01*
X143634900Y-91198200D02*
X128780900Y-91198200D01*
X144888600Y-92451900D02*
X143634900Y-91198200D01*
X145467900Y-92451900D02*
X144888600Y-92451900D01*
X148712800Y-95696800D02*
X145467900Y-92451900D01*
X148712800Y-105540800D02*
X148712800Y-95696800D01*
X144626700Y-109626900D02*
X148712800Y-105540800D01*
X144626700Y-113441300D02*
X144626700Y-109626900D01*
X145883700Y-114698300D02*
X144626700Y-113441300D01*
X151156000Y-114698300D02*
X145883700Y-114698300D01*
X152589200Y-113265100D02*
X151156000Y-114698300D01*
X152589200Y-111284400D02*
X152589200Y-113265100D01*
X152225800Y-110921000D02*
X152589200Y-111284400D01*
X116538000Y-80365000D02*
X116538000Y-81706300D01*
X145262700Y-95055100D02*
X145909600Y-95055100D01*
X143036400Y-92828800D02*
X145262700Y-95055100D01*
X128215200Y-92828800D02*
X143036400Y-92828800D01*
X117092700Y-81706300D02*
X128215200Y-92828800D01*
X116538000Y-81706300D02*
X117092700Y-81706300D01*
X119078000Y-80365000D02*
X120266900Y-80365000D01*
X120266900Y-80904400D02*
X120266900Y-80365000D01*
X121601100Y-82238600D02*
X120266900Y-80904400D01*
X122847900Y-82238600D02*
X121601100Y-82238600D01*
X130281300Y-89672000D02*
X122847900Y-82238600D01*
X144019400Y-89672000D02*
X130281300Y-89672000D01*
X145448400Y-91101000D02*
X144019400Y-89672000D01*
X146085300Y-91101000D02*
X145448400Y-91101000D01*
X147034700Y-92050400D02*
X146085300Y-91101000D01*
X148020300Y-92050400D02*
X147034700Y-92050400D01*
X148334200Y-92364300D02*
X148020300Y-92050400D01*
X88776000Y-90475000D02*
X90601300Y-90475000D01*
X130442100Y-94580100D02*
X138328800Y-94580100D01*
X128397700Y-96624500D02*
X130442100Y-94580100D01*
X113579200Y-96624500D02*
X128397700Y-96624500D01*
X113338000Y-96865700D02*
X113579200Y-96624500D01*
X97001800Y-96865700D02*
X113338000Y-96865700D01*
X90611100Y-90475000D02*
X97001800Y-96865700D01*
X90601300Y-90475000D02*
X90611100Y-90475000D01*
X88776000Y-87935000D02*
X90601300Y-87935000D01*
X140091800Y-93954600D02*
X140169400Y-94032200D01*
X129793800Y-93954600D02*
X140091800Y-93954600D01*
X127639700Y-96108700D02*
X129793800Y-93954600D01*
X113139500Y-96108700D02*
X127639700Y-96108700D01*
X112881100Y-96367100D02*
X113139500Y-96108700D01*
X99033400Y-96367100D02*
X112881100Y-96367100D01*
X90601300Y-87935000D02*
X99033400Y-96367100D01*
X88776000Y-85395000D02*
X90601300Y-85395000D01*
X142672100Y-93359100D02*
X143013700Y-93700700D01*
X127441100Y-93359100D02*
X142672100Y-93359100D01*
X125141900Y-95658300D02*
X127441100Y-93359100D01*
X104744700Y-95658300D02*
X125141900Y-95658300D01*
X104486300Y-95916700D02*
X104744700Y-95658300D01*
X101123000Y-95916700D02*
X104486300Y-95916700D01*
X90601300Y-85395000D02*
X101123000Y-95916700D01*
X88776000Y-123495000D02*
X90601300Y-123495000D01*
X132009200Y-118201700D02*
X145458400Y-104752500D01*
X95894600Y-118201700D02*
X132009200Y-118201700D01*
X90601300Y-123495000D02*
X95894600Y-118201700D01*
X143097200Y-105517000D02*
X143097200Y-104624400D01*
X130862900Y-117751300D02*
X143097200Y-105517000D01*
X93805000Y-117751300D02*
X130862900Y-117751300D01*
X90601300Y-120955000D02*
X93805000Y-117751300D01*
X88776000Y-120955000D02*
X90601300Y-120955000D01*
X88776000Y-118415000D02*
X90601300Y-118415000D01*
X92230400Y-116785900D02*
X90601300Y-118415000D01*
X92230400Y-116785800D02*
X92230400Y-116785900D01*
X130941900Y-116785800D02*
X92230400Y-116785800D01*
X142332400Y-105395300D02*
X130941900Y-116785800D01*
X88776000Y-115875000D02*
X90601300Y-115875000D01*
X145343900Y-103156800D02*
X145627200Y-103440100D01*
X143036000Y-103156800D02*
X145343900Y-103156800D01*
X141707100Y-104485700D02*
X143036000Y-103156800D01*
X141707100Y-104820500D02*
X141707100Y-104485700D01*
X130652600Y-115875000D02*
X141707100Y-104820500D01*
X90601300Y-115875000D02*
X130652600Y-115875000D01*
X88776000Y-113335000D02*
X90601300Y-113335000D01*
X97069900Y-114799400D02*
X129653200Y-114799400D01*
X96856700Y-114586200D02*
X97069900Y-114799400D01*
X91852500Y-114586200D02*
X96856700Y-114586200D01*
X90601300Y-113335000D02*
X91852500Y-114586200D01*
X151661300Y-110258900D02*
X151010600Y-110909600D01*
X152458100Y-110258900D02*
X151661300Y-110258900D01*
X153091400Y-110892200D02*
X152458100Y-110258900D01*
X153091400Y-113449400D02*
X153091400Y-110892200D01*
X151392200Y-115148600D02*
X153091400Y-113449400D01*
X145207300Y-115148600D02*
X151392200Y-115148600D01*
X145086900Y-115028200D02*
X145207300Y-115148600D01*
X130607600Y-113706400D02*
X131002000Y-113312000D01*
X97612800Y-113706400D02*
X130607600Y-113706400D01*
X94701400Y-110795000D02*
X97612800Y-113706400D01*
X88776000Y-110795000D02*
X94701400Y-110795000D01*
X143711300Y-85516800D02*
X143711300Y-76446200D01*
X150607800Y-92413300D02*
X143711300Y-85516800D01*
X150607800Y-106946000D02*
X150607800Y-92413300D01*
X149538400Y-108015400D02*
X150607800Y-106946000D01*
X149538400Y-110811600D02*
X149538400Y-108015400D01*
X151786000Y-113059200D02*
X149538400Y-110811600D01*
X151902600Y-113059200D02*
X151786000Y-113059200D01*
X147828000Y-121915200D02*
X156123000Y-113620200D01*
X147828000Y-124393300D02*
X147828000Y-121915200D01*
X145557300Y-126664000D02*
X147828000Y-124393300D01*
X109660600Y-126664000D02*
X145557300Y-126664000D01*
X104294500Y-121297900D02*
X109660600Y-126664000D01*
X93721400Y-121297900D02*
X104294500Y-121297900D01*
X120676300Y-84016100D02*
X120676300Y-83390600D01*
X128363300Y-91703100D02*
X120676300Y-84016100D01*
X143445300Y-91703100D02*
X128363300Y-91703100D01*
X144869600Y-93127400D02*
X143445300Y-91703100D01*
X145506500Y-93127400D02*
X144869600Y-93127400D01*
X148262500Y-95883400D02*
X145506500Y-93127400D01*
X148262500Y-105106700D02*
X148262500Y-95883400D01*
X147950200Y-105419000D02*
X148262500Y-105106700D01*
X148149700Y-88044400D02*
X148149700Y-80754400D01*
X163727900Y-103622600D02*
X148149700Y-88044400D01*
X163727900Y-110692000D02*
X163727900Y-103622600D01*
X146736200Y-102706500D02*
X146736600Y-102706900D01*
X142772500Y-102706500D02*
X146736200Y-102706500D01*
X140648200Y-104830800D02*
X142772500Y-102706500D01*
X140648200Y-105187100D02*
X140648200Y-104830800D01*
X130410600Y-115424700D02*
X140648200Y-105187100D01*
X95927400Y-115424700D02*
X130410600Y-115424700D01*
X95733200Y-115230500D02*
X95927400Y-115424700D01*
X146143500Y-102168100D02*
X146358800Y-101952800D01*
X146143500Y-102168200D02*
X146143500Y-102168100D01*
X142671900Y-102168200D02*
X146143500Y-102168200D01*
X140197900Y-104642200D02*
X142671900Y-102168200D01*
X140197900Y-105000500D02*
X140197900Y-104642200D01*
X131024400Y-114174000D02*
X140197900Y-105000500D01*
X97081400Y-114174000D02*
X131024400Y-114174000D01*
X96242400Y-113335000D02*
X97081400Y-114174000D01*
X147164300Y-101327400D02*
X147172700Y-101335800D01*
X142801800Y-101327400D02*
X147164300Y-101327400D01*
X136368200Y-107761000D02*
X142801800Y-101327400D01*
X136368200Y-108097900D02*
X136368200Y-107761000D01*
X133367700Y-111098400D02*
X136368200Y-108097900D01*
X132658000Y-111098400D02*
X133367700Y-111098400D01*
X133140800Y-110351400D02*
X133140800Y-110439200D01*
X142942900Y-100549300D02*
X133140800Y-110351400D01*
X145945500Y-100549300D02*
X142942900Y-100549300D01*
X142405700Y-99730900D02*
X145935100Y-99730900D01*
X135546200Y-106590400D02*
X142405700Y-99730900D01*
X97201300Y-106590400D02*
X135546200Y-106590400D01*
X146560500Y-98963500D02*
X146736600Y-99139600D01*
X146560500Y-98638100D02*
X146560500Y-98963500D01*
X146227500Y-98305100D02*
X146560500Y-98638100D01*
X142239100Y-98305100D02*
X146227500Y-98305100D01*
X135156800Y-105387400D02*
X142239100Y-98305100D01*
X106321000Y-105387400D02*
X135156800Y-105387400D01*
X88776000Y-108255000D02*
X90601300Y-108255000D01*
X142569200Y-98930500D02*
X145911900Y-98930500D01*
X135359900Y-106139800D02*
X142569200Y-98930500D01*
X97635100Y-106139800D02*
X135359900Y-106139800D01*
X97460400Y-105965100D02*
X97635100Y-106139800D01*
X92891200Y-105965100D02*
X97460400Y-105965100D01*
X90601300Y-108255000D02*
X92891200Y-105965100D01*
X88776000Y-105715000D02*
X90601300Y-105715000D01*
X146700500Y-97227700D02*
X146700500Y-97136100D01*
X146073400Y-97854800D02*
X146700500Y-97227700D01*
X141734200Y-97854800D02*
X146073400Y-97854800D01*
X135082900Y-104506100D02*
X141734200Y-97854800D01*
X106312200Y-104506100D02*
X135082900Y-104506100D01*
X105153500Y-105664800D02*
X106312200Y-104506100D01*
X97797000Y-105664800D02*
X105153500Y-105664800D01*
X97647000Y-105514800D02*
X97797000Y-105664800D01*
X90801500Y-105514800D02*
X97647000Y-105514800D01*
X90601300Y-105715000D02*
X90801500Y-105514800D01*
X88776000Y-103175000D02*
X90601300Y-103175000D01*
X141813700Y-97138400D02*
X145900100Y-97138400D01*
X139917200Y-99034900D02*
X141813700Y-97138400D01*
X111829200Y-99034900D02*
X139917200Y-99034900D01*
X107689100Y-103175000D02*
X111829200Y-99034900D01*
X90601300Y-103175000D02*
X107689100Y-103175000D01*
X90601300Y-100294500D02*
X92173000Y-98722800D01*
X90601300Y-100635000D02*
X90601300Y-100294500D01*
X88776000Y-100635000D02*
X90601300Y-100635000D01*
X129782400Y-95876700D02*
X145906200Y-95876700D01*
X128409300Y-97249800D02*
X129782400Y-95876700D01*
X113838200Y-97249800D02*
X128409300Y-97249800D01*
X98674400Y-90674400D02*
X102271200Y-94271200D01*
X98674400Y-89616100D02*
X98674400Y-90674400D01*
X99351000Y-88939500D02*
X98674400Y-89616100D01*
X100743500Y-88939500D02*
X99351000Y-88939500D01*
X117370200Y-72312800D02*
X100743500Y-88939500D01*
X168018100Y-72312800D02*
X117370200Y-72312800D01*
X170607000Y-74901700D02*
X168018100Y-72312800D01*
X170607000Y-87113400D02*
X170607000Y-74901700D01*
X168466900Y-89253500D02*
X170607000Y-87113400D01*
X147152500Y-92805100D02*
X147474400Y-92805100D01*
X145898700Y-91551300D02*
X147152500Y-92805100D01*
X145261800Y-91551300D02*
X145898700Y-91551300D01*
X143832800Y-90122300D02*
X145261800Y-91551300D01*
X129815600Y-90122300D02*
X143832800Y-90122300D01*
X125735700Y-86042400D02*
X129815600Y-90122300D01*
X124667500Y-86042400D02*
X125735700Y-86042400D01*
X163767500Y-86425600D02*
X168424800Y-86425600D01*
X163066200Y-85724300D02*
X163767500Y-86425600D01*
X163066200Y-74946500D02*
X163066200Y-85724300D01*
X160882900Y-72763200D02*
X163066200Y-74946500D01*
X117556700Y-72763200D02*
X160882900Y-72763200D01*
X100436700Y-89883200D02*
X117556700Y-72763200D01*
X99323500Y-89883200D02*
X100436700Y-89883200D01*
X99604600Y-84353700D02*
X99604600Y-86449300D01*
X111920300Y-72038000D02*
X99604600Y-84353700D01*
X88776000Y-98095000D02*
X90601300Y-98095000D01*
X165094000Y-97545900D02*
X164148500Y-98491400D01*
X165094000Y-87815600D02*
X165094000Y-97545900D01*
X147346500Y-98227100D02*
X147186800Y-98386800D01*
X147346500Y-96897700D02*
X147346500Y-98227100D01*
X146959600Y-96510800D02*
X147346500Y-96897700D01*
X141804400Y-96510800D02*
X146959600Y-96510800D01*
X139843300Y-98471900D02*
X141804400Y-96510800D01*
X111176700Y-98471900D02*
X139843300Y-98471900D01*
X110799800Y-98095000D02*
X111176700Y-98471900D01*
X90601300Y-98095000D02*
X110799800Y-98095000D01*
X88776000Y-95555000D02*
X90601300Y-95555000D01*
X90840000Y-95793700D02*
X93248000Y-95793700D01*
X90601300Y-95555000D02*
X90840000Y-95793700D01*
X103968600Y-88046200D02*
X103968600Y-95258200D01*
X118277500Y-73737300D02*
X103968600Y-88046200D01*
X150164200Y-73737300D02*
X118277500Y-73737300D01*
X151384000Y-74957100D02*
X150164200Y-73737300D01*
X151384000Y-79101200D02*
X151384000Y-74957100D01*
X160834500Y-88551700D02*
X151384000Y-79101200D01*
X163738000Y-88551700D02*
X160834500Y-88551700D01*
X164248000Y-88041700D02*
X163738000Y-88551700D01*
X91475900Y-93015000D02*
X91871300Y-92619600D01*
X88776000Y-93015000D02*
X91475900Y-93015000D01*
X100591300Y-90683700D02*
X99772500Y-90683700D01*
X118010800Y-73264200D02*
X100591300Y-90683700D01*
X152230500Y-73264200D02*
X118010800Y-73264200D01*
X155032000Y-76065700D02*
X152230500Y-73264200D01*
X155032000Y-80371700D02*
X155032000Y-76065700D01*
X161088400Y-86428100D02*
X155032000Y-80371700D01*
X161088400Y-87921300D02*
X161088400Y-86428100D01*
X91664600Y-77775000D02*
X91946900Y-77492700D01*
X88776000Y-77775000D02*
X91664600Y-77775000D01*
X88776000Y-80315000D02*
X90601300Y-80315000D01*
X94251300Y-83965000D02*
X94251300Y-85577200D01*
X90601300Y-80315000D02*
X94251300Y-83965000D01*
X146623200Y-90650700D02*
X146870400Y-90897900D01*
X145635000Y-90650700D02*
X146623200Y-90650700D01*
X144206000Y-89221700D02*
X145635000Y-90650700D01*
X136283400Y-89221700D02*
X144206000Y-89221700D01*
X135306900Y-88245200D02*
X136283400Y-89221700D01*
X88776000Y-82855000D02*
X90601300Y-82855000D01*
X90601300Y-82855000D02*
X92041100Y-84294800D01*
X141151500Y-84194200D02*
X141151500Y-84409800D01*
X139744200Y-82786900D02*
X141151500Y-84194200D01*
X137314900Y-85035400D02*
X137859400Y-85035400D01*
X133284600Y-81005100D02*
X137314900Y-85035400D01*
X141353200Y-88422200D02*
X141610300Y-88165100D01*
X136417900Y-88422200D02*
X141353200Y-88422200D01*
X138413600Y-87509500D02*
X139016900Y-87509500D01*
X135594500Y-84690400D02*
X138413600Y-87509500D01*
X112415200Y-112382900D02*
X108723700Y-108691400D01*
X131181000Y-112382900D02*
X112415200Y-112382900D01*
X140699500Y-85203300D02*
X138946900Y-83450700D01*
X141236500Y-85203300D02*
X140699500Y-85203300D01*
X145918500Y-89885300D02*
X141236500Y-85203300D01*
X144103900Y-115862400D02*
X147245900Y-119004400D01*
X144103900Y-107951600D02*
X144103900Y-115862400D01*
X145440500Y-106615000D02*
X144103900Y-107951600D01*
X161798000Y-123825000D02*
X162986900Y-123825000D01*
X150815700Y-88021600D02*
X150611200Y-87817100D01*
X150815700Y-88749200D02*
X150815700Y-88021600D01*
X168085000Y-106018500D02*
X150815700Y-88749200D01*
X168085000Y-124525000D02*
X168085000Y-106018500D01*
X167439300Y-125170700D02*
X168085000Y-124525000D01*
X163812500Y-125170700D02*
X167439300Y-125170700D01*
X162986900Y-124345100D02*
X163812500Y-125170700D01*
X162986900Y-123825000D02*
X162986900Y-124345100D01*
X164338000Y-123825000D02*
X164338000Y-122483700D01*
X149248000Y-88505800D02*
X149248000Y-88042500D01*
X164353200Y-103611000D02*
X149248000Y-88505800D01*
X164353200Y-122468500D02*
X164353200Y-103611000D01*
X164338000Y-122483700D02*
X164353200Y-122468500D01*
X150190400Y-88760800D02*
X150190400Y-88563700D01*
X166878000Y-105448400D02*
X150190400Y-88760800D01*
X166878000Y-123825000D02*
X166878000Y-105448400D01*
X151441100Y-88664700D02*
X151441100Y-88319600D01*
X169418000Y-106641600D02*
X151441100Y-88664700D01*
X169418000Y-123825000D02*
X169418000Y-106641600D01*
X142642000Y-88268100D02*
X142642000Y-88596400D01*
X134874000Y-80500100D02*
X142642000Y-88268100D01*
X134874000Y-75565000D02*
X134874000Y-80500100D01*
X90247500Y-122225000D02*
X94091400Y-118381100D01*
D27*
G36*
X162967900Y-103937402D02*
X162967900Y-110129537D01*
X162935708Y-110161673D01*
X162793062Y-110505201D01*
X162792738Y-110877167D01*
X162934783Y-111220943D01*
X163197573Y-111484192D01*
X163541101Y-111626838D01*
X163593200Y-111626883D01*
X163593200Y-122370195D01*
X163278330Y-122580585D01*
X163268757Y-122594913D01*
X163264762Y-122573683D01*
X163125690Y-122357559D01*
X162913490Y-122212569D01*
X162661600Y-122161560D01*
X160934400Y-122161560D01*
X160699083Y-122205838D01*
X160482959Y-122344910D01*
X160337969Y-122557110D01*
X160286960Y-122809000D01*
X160286960Y-124841000D01*
X160331238Y-125076317D01*
X160470310Y-125292441D01*
X160682510Y-125437431D01*
X160934400Y-125488440D01*
X162661600Y-125488440D01*
X162896917Y-125444162D01*
X162966430Y-125399432D01*
X163275099Y-125708101D01*
X163521661Y-125872848D01*
X163812500Y-125930700D01*
X167439300Y-125930700D01*
X167730139Y-125872848D01*
X167976701Y-125708101D01*
X168512424Y-125172378D01*
X168844511Y-125394271D01*
X169418000Y-125508345D01*
X169991489Y-125394271D01*
X170477670Y-125069415D01*
X170688000Y-124754634D01*
X170898330Y-125069415D01*
X171384511Y-125394271D01*
X171958000Y-125508345D01*
X172531489Y-125394271D01*
X173017670Y-125069415D01*
X173228000Y-124754634D01*
X173438330Y-125069415D01*
X173924511Y-125394271D01*
X174498000Y-125508345D01*
X175071489Y-125394271D01*
X175557670Y-125069415D01*
X175882526Y-124583234D01*
X175996600Y-124009745D01*
X175996600Y-123640255D01*
X175882526Y-123066766D01*
X175557670Y-122580585D01*
X175258000Y-122380352D01*
X175258000Y-121199600D01*
X175543443Y-121485542D01*
X176511567Y-121887542D01*
X177559834Y-121888457D01*
X178528658Y-121488147D01*
X179270542Y-120747557D01*
X179672542Y-119779433D01*
X179673457Y-118731166D01*
X179273147Y-117762342D01*
X178532557Y-117020458D01*
X177564433Y-116618458D01*
X176516166Y-116617543D01*
X175547342Y-117017853D01*
X175258000Y-117306690D01*
X175258000Y-109810600D01*
X175223996Y-109639652D01*
X175200148Y-109519760D01*
X175035401Y-109273199D01*
X173901002Y-108138800D01*
X179871000Y-102168802D01*
X179871000Y-121312394D01*
X176908197Y-124275197D01*
X176880334Y-124317211D01*
X176871000Y-124365000D01*
X176871000Y-126238000D01*
X147058102Y-126238000D01*
X148151242Y-125144860D01*
X148524511Y-125394271D01*
X149098000Y-125508345D01*
X149671489Y-125394271D01*
X150157670Y-125069415D01*
X150364461Y-124759931D01*
X150735964Y-125175732D01*
X151263209Y-125429709D01*
X151278974Y-125432358D01*
X151511000Y-125311217D01*
X151511000Y-123952000D01*
X151765000Y-123952000D01*
X151765000Y-125311217D01*
X151997026Y-125432358D01*
X152012791Y-125429709D01*
X152540036Y-125175732D01*
X152908000Y-124763892D01*
X153275964Y-125175732D01*
X153803209Y-125429709D01*
X153818974Y-125432358D01*
X154051000Y-125311217D01*
X154051000Y-123952000D01*
X151765000Y-123952000D01*
X151511000Y-123952000D01*
X151491000Y-123952000D01*
X151491000Y-123698000D01*
X151511000Y-123698000D01*
X151511000Y-122338783D01*
X151765000Y-122338783D01*
X151765000Y-123698000D01*
X154051000Y-123698000D01*
X154051000Y-122338783D01*
X154305000Y-122338783D01*
X154305000Y-123698000D01*
X154325000Y-123698000D01*
X154325000Y-123952000D01*
X154305000Y-123952000D01*
X154305000Y-125311217D01*
X154537026Y-125432358D01*
X154552791Y-125429709D01*
X155080036Y-125175732D01*
X155451539Y-124759931D01*
X155658330Y-125069415D01*
X156144511Y-125394271D01*
X156718000Y-125508345D01*
X157291489Y-125394271D01*
X157777670Y-125069415D01*
X158102526Y-124583234D01*
X158216600Y-124009745D01*
X158216600Y-123640255D01*
X158102526Y-123066766D01*
X157777670Y-122580585D01*
X157291489Y-122255729D01*
X156718000Y-122141655D01*
X156144511Y-122255729D01*
X155658330Y-122580585D01*
X155451539Y-122890069D01*
X155080036Y-122474268D01*
X154552791Y-122220291D01*
X154537026Y-122217642D01*
X154305000Y-122338783D01*
X154051000Y-122338783D01*
X153818974Y-122217642D01*
X153803209Y-122220291D01*
X153275964Y-122474268D01*
X152908000Y-122886108D01*
X152540036Y-122474268D01*
X152012791Y-122220291D01*
X151997026Y-122217642D01*
X151765000Y-122338783D01*
X151511000Y-122338783D01*
X151278974Y-122217642D01*
X151263209Y-122220291D01*
X150735964Y-122474268D01*
X150364461Y-122890069D01*
X150157670Y-122580585D01*
X149671489Y-122255729D01*
X149098000Y-122141655D01*
X148588000Y-122243100D01*
X148588000Y-122230002D01*
X156262681Y-114555322D01*
X156308167Y-114555362D01*
X156651943Y-114413317D01*
X156915192Y-114150527D01*
X157057838Y-113806999D01*
X157058162Y-113435033D01*
X156916117Y-113091257D01*
X156653327Y-112828008D01*
X156309799Y-112685362D01*
X155937833Y-112685038D01*
X155594057Y-112827083D01*
X155330808Y-113089873D01*
X155188162Y-113433401D01*
X155188121Y-113480276D01*
X147290599Y-121377799D01*
X147125852Y-121624361D01*
X147068000Y-121915200D01*
X147068000Y-122243100D01*
X146558000Y-122141655D01*
X145984511Y-122255729D01*
X145498330Y-122580585D01*
X145288000Y-122895366D01*
X145077670Y-122580585D01*
X144754291Y-122364510D01*
X144720148Y-122192861D01*
X144555401Y-121946299D01*
X144381200Y-121772098D01*
X144381200Y-117214502D01*
X146310778Y-119144080D01*
X146310738Y-119189567D01*
X146452783Y-119533343D01*
X146715573Y-119796592D01*
X147059101Y-119939238D01*
X147431067Y-119939562D01*
X147774843Y-119797517D01*
X148038092Y-119534727D01*
X148180738Y-119191199D01*
X148181062Y-118819233D01*
X148039017Y-118475457D01*
X147776227Y-118212208D01*
X147432699Y-118069562D01*
X147385823Y-118069521D01*
X145277443Y-115961141D01*
X145404601Y-115908600D01*
X151392200Y-115908600D01*
X151683039Y-115850748D01*
X151929601Y-115686001D01*
X153628801Y-113986801D01*
X153793548Y-113740239D01*
X153851400Y-113449400D01*
X153851400Y-110892200D01*
X153793548Y-110601361D01*
X153793548Y-110601360D01*
X153628801Y-110354799D01*
X152995501Y-109721499D01*
X152748939Y-109556752D01*
X152458100Y-109498900D01*
X151661300Y-109498900D01*
X151370461Y-109556752D01*
X151123899Y-109721499D01*
X150947400Y-109897998D01*
X150947400Y-109324907D01*
X151010967Y-109324962D01*
X151354743Y-109182917D01*
X151617992Y-108920127D01*
X151760638Y-108576599D01*
X151760679Y-108529723D01*
X152142501Y-108147901D01*
X152307248Y-107901339D01*
X152365100Y-107610500D01*
X152365100Y-93334602D01*
X162967900Y-103937402D01*
X162967900Y-103937402D01*
G37*
X162967900Y-103937402D02*
X162967900Y-110129537D01*
X162935708Y-110161673D01*
X162793062Y-110505201D01*
X162792738Y-110877167D01*
X162934783Y-111220943D01*
X163197573Y-111484192D01*
X163541101Y-111626838D01*
X163593200Y-111626883D01*
X163593200Y-122370195D01*
X163278330Y-122580585D01*
X163268757Y-122594913D01*
X163264762Y-122573683D01*
X163125690Y-122357559D01*
X162913490Y-122212569D01*
X162661600Y-122161560D01*
X160934400Y-122161560D01*
X160699083Y-122205838D01*
X160482959Y-122344910D01*
X160337969Y-122557110D01*
X160286960Y-122809000D01*
X160286960Y-124841000D01*
X160331238Y-125076317D01*
X160470310Y-125292441D01*
X160682510Y-125437431D01*
X160934400Y-125488440D01*
X162661600Y-125488440D01*
X162896917Y-125444162D01*
X162966430Y-125399432D01*
X163275099Y-125708101D01*
X163521661Y-125872848D01*
X163812500Y-125930700D01*
X167439300Y-125930700D01*
X167730139Y-125872848D01*
X167976701Y-125708101D01*
X168512424Y-125172378D01*
X168844511Y-125394271D01*
X169418000Y-125508345D01*
X169991489Y-125394271D01*
X170477670Y-125069415D01*
X170688000Y-124754634D01*
X170898330Y-125069415D01*
X171384511Y-125394271D01*
X171958000Y-125508345D01*
X172531489Y-125394271D01*
X173017670Y-125069415D01*
X173228000Y-124754634D01*
X173438330Y-125069415D01*
X173924511Y-125394271D01*
X174498000Y-125508345D01*
X175071489Y-125394271D01*
X175557670Y-125069415D01*
X175882526Y-124583234D01*
X175996600Y-124009745D01*
X175996600Y-123640255D01*
X175882526Y-123066766D01*
X175557670Y-122580585D01*
X175258000Y-122380352D01*
X175258000Y-121199600D01*
X175543443Y-121485542D01*
X176511567Y-121887542D01*
X177559834Y-121888457D01*
X178528658Y-121488147D01*
X179270542Y-120747557D01*
X179672542Y-119779433D01*
X179673457Y-118731166D01*
X179273147Y-117762342D01*
X178532557Y-117020458D01*
X177564433Y-116618458D01*
X176516166Y-116617543D01*
X175547342Y-117017853D01*
X175258000Y-117306690D01*
X175258000Y-109810600D01*
X175223996Y-109639652D01*
X175200148Y-109519760D01*
X175035401Y-109273199D01*
X173901002Y-108138800D01*
X179871000Y-102168802D01*
X179871000Y-121312394D01*
X176908197Y-124275197D01*
X176880334Y-124317211D01*
X176871000Y-124365000D01*
X176871000Y-126238000D01*
X147058102Y-126238000D01*
X148151242Y-125144860D01*
X148524511Y-125394271D01*
X149098000Y-125508345D01*
X149671489Y-125394271D01*
X150157670Y-125069415D01*
X150364461Y-124759931D01*
X150735964Y-125175732D01*
X151263209Y-125429709D01*
X151278974Y-125432358D01*
X151511000Y-125311217D01*
X151511000Y-123952000D01*
X151765000Y-123952000D01*
X151765000Y-125311217D01*
X151997026Y-125432358D01*
X152012791Y-125429709D01*
X152540036Y-125175732D01*
X152908000Y-124763892D01*
X153275964Y-125175732D01*
X153803209Y-125429709D01*
X153818974Y-125432358D01*
X154051000Y-125311217D01*
X154051000Y-123952000D01*
X151765000Y-123952000D01*
X151511000Y-123952000D01*
X151491000Y-123952000D01*
X151491000Y-123698000D01*
X151511000Y-123698000D01*
X151511000Y-122338783D01*
X151765000Y-122338783D01*
X151765000Y-123698000D01*
X154051000Y-123698000D01*
X154051000Y-122338783D01*
X154305000Y-122338783D01*
X154305000Y-123698000D01*
X154325000Y-123698000D01*
X154325000Y-123952000D01*
X154305000Y-123952000D01*
X154305000Y-125311217D01*
X154537026Y-125432358D01*
X154552791Y-125429709D01*
X155080036Y-125175732D01*
X155451539Y-124759931D01*
X155658330Y-125069415D01*
X156144511Y-125394271D01*
X156718000Y-125508345D01*
X157291489Y-125394271D01*
X157777670Y-125069415D01*
X158102526Y-124583234D01*
X158216600Y-124009745D01*
X158216600Y-123640255D01*
X158102526Y-123066766D01*
X157777670Y-122580585D01*
X157291489Y-122255729D01*
X156718000Y-122141655D01*
X156144511Y-122255729D01*
X155658330Y-122580585D01*
X155451539Y-122890069D01*
X155080036Y-122474268D01*
X154552791Y-122220291D01*
X154537026Y-122217642D01*
X154305000Y-122338783D01*
X154051000Y-122338783D01*
X153818974Y-122217642D01*
X153803209Y-122220291D01*
X153275964Y-122474268D01*
X152908000Y-122886108D01*
X152540036Y-122474268D01*
X152012791Y-122220291D01*
X151997026Y-122217642D01*
X151765000Y-122338783D01*
X151511000Y-122338783D01*
X151278974Y-122217642D01*
X151263209Y-122220291D01*
X150735964Y-122474268D01*
X150364461Y-122890069D01*
X150157670Y-122580585D01*
X149671489Y-122255729D01*
X149098000Y-122141655D01*
X148588000Y-122243100D01*
X148588000Y-122230002D01*
X156262681Y-114555322D01*
X156308167Y-114555362D01*
X156651943Y-114413317D01*
X156915192Y-114150527D01*
X157057838Y-113806999D01*
X157058162Y-113435033D01*
X156916117Y-113091257D01*
X156653327Y-112828008D01*
X156309799Y-112685362D01*
X155937833Y-112685038D01*
X155594057Y-112827083D01*
X155330808Y-113089873D01*
X155188162Y-113433401D01*
X155188121Y-113480276D01*
X147290599Y-121377799D01*
X147125852Y-121624361D01*
X147068000Y-121915200D01*
X147068000Y-122243100D01*
X146558000Y-122141655D01*
X145984511Y-122255729D01*
X145498330Y-122580585D01*
X145288000Y-122895366D01*
X145077670Y-122580585D01*
X144754291Y-122364510D01*
X144720148Y-122192861D01*
X144555401Y-121946299D01*
X144381200Y-121772098D01*
X144381200Y-117214502D01*
X146310778Y-119144080D01*
X146310738Y-119189567D01*
X146452783Y-119533343D01*
X146715573Y-119796592D01*
X147059101Y-119939238D01*
X147431067Y-119939562D01*
X147774843Y-119797517D01*
X148038092Y-119534727D01*
X148180738Y-119191199D01*
X148181062Y-118819233D01*
X148039017Y-118475457D01*
X147776227Y-118212208D01*
X147432699Y-118069562D01*
X147385823Y-118069521D01*
X145277443Y-115961141D01*
X145404601Y-115908600D01*
X151392200Y-115908600D01*
X151683039Y-115850748D01*
X151929601Y-115686001D01*
X153628801Y-113986801D01*
X153793548Y-113740239D01*
X153851400Y-113449400D01*
X153851400Y-110892200D01*
X153793548Y-110601361D01*
X153793548Y-110601360D01*
X153628801Y-110354799D01*
X152995501Y-109721499D01*
X152748939Y-109556752D01*
X152458100Y-109498900D01*
X151661300Y-109498900D01*
X151370461Y-109556752D01*
X151123899Y-109721499D01*
X150947400Y-109897998D01*
X150947400Y-109324907D01*
X151010967Y-109324962D01*
X151354743Y-109182917D01*
X151617992Y-108920127D01*
X151760638Y-108576599D01*
X151760679Y-108529723D01*
X152142501Y-108147901D01*
X152307248Y-107901339D01*
X152365100Y-107610500D01*
X152365100Y-93334602D01*
X162967900Y-103937402D01*
G36*
X93191073Y-122090092D02*
X93534601Y-122232738D01*
X93906567Y-122233062D01*
X94250343Y-122091017D01*
X94283518Y-122057900D01*
X98543578Y-122057900D01*
X98461548Y-122130639D01*
X98277832Y-122504522D01*
X98404366Y-122675460D01*
X99370100Y-122675460D01*
X99370100Y-122655460D01*
X99624100Y-122655460D01*
X99624100Y-122675460D01*
X100589834Y-122675460D01*
X100716368Y-122504522D01*
X100532652Y-122130639D01*
X100450622Y-122057900D01*
X103543578Y-122057900D01*
X103461548Y-122130639D01*
X103277832Y-122504522D01*
X103404366Y-122675460D01*
X104370100Y-122675460D01*
X104370100Y-122655460D01*
X104577258Y-122655460D01*
X104644100Y-122722302D01*
X104644100Y-122929460D01*
X104624100Y-122929460D01*
X104624100Y-123755023D01*
X104798231Y-123903689D01*
X105208149Y-123762028D01*
X105460266Y-123538468D01*
X108159798Y-126238000D01*
X106526073Y-126238000D01*
X106632100Y-125904460D01*
X106632100Y-125629460D01*
X105624100Y-125629460D01*
X105624100Y-125649460D01*
X105370100Y-125649460D01*
X105370100Y-125629460D01*
X104362100Y-125629460D01*
X104362100Y-125904460D01*
X104468127Y-126238000D01*
X99526073Y-126238000D01*
X99632100Y-125904460D01*
X99632100Y-125629460D01*
X98624100Y-125629460D01*
X98624100Y-125649460D01*
X98370100Y-125649460D01*
X98370100Y-125629460D01*
X97362100Y-125629460D01*
X97362100Y-125904460D01*
X97468127Y-126238000D01*
X88125000Y-126238000D01*
X88125000Y-125100460D01*
X97362100Y-125100460D01*
X97362100Y-125375460D01*
X98370100Y-125375460D01*
X98370100Y-124259506D01*
X98624100Y-124259506D01*
X98624100Y-125375460D01*
X99632100Y-125375460D01*
X99632100Y-125100460D01*
X104362100Y-125100460D01*
X104362100Y-125375460D01*
X105370100Y-125375460D01*
X105370100Y-124259506D01*
X105624100Y-124259506D01*
X105624100Y-125375460D01*
X106632100Y-125375460D01*
X106632100Y-125100460D01*
X106497102Y-124675782D01*
X106209863Y-124335092D01*
X105798974Y-124133341D01*
X105624100Y-124259506D01*
X105370100Y-124259506D01*
X105195226Y-124133341D01*
X104784337Y-124335092D01*
X104497098Y-124675782D01*
X104362100Y-125100460D01*
X99632100Y-125100460D01*
X99497102Y-124675782D01*
X99209863Y-124335092D01*
X98798974Y-124133341D01*
X98624100Y-124259506D01*
X98370100Y-124259506D01*
X98195226Y-124133341D01*
X97784337Y-124335092D01*
X97497098Y-124675782D01*
X97362100Y-125100460D01*
X88125000Y-125100460D01*
X88125000Y-124904440D01*
X90276000Y-124904440D01*
X90511317Y-124860162D01*
X90727441Y-124721090D01*
X90872431Y-124508890D01*
X90923440Y-124257000D01*
X90923440Y-124176233D01*
X91138701Y-124032401D01*
X92070704Y-123100398D01*
X98277832Y-123100398D01*
X98461548Y-123474281D01*
X98786051Y-123762028D01*
X99195969Y-123903689D01*
X99370100Y-123755023D01*
X99370100Y-122929460D01*
X99624100Y-122929460D01*
X99624100Y-123755023D01*
X99798231Y-123903689D01*
X100208149Y-123762028D01*
X100532652Y-123474281D01*
X100716368Y-123100398D01*
X103277832Y-123100398D01*
X103461548Y-123474281D01*
X103786051Y-123762028D01*
X104195969Y-123903689D01*
X104370100Y-123755023D01*
X104370100Y-122929460D01*
X103404366Y-122929460D01*
X103277832Y-123100398D01*
X100716368Y-123100398D01*
X100589834Y-122929460D01*
X99624100Y-122929460D01*
X99370100Y-122929460D01*
X98404366Y-122929460D01*
X98277832Y-123100398D01*
X92070704Y-123100398D01*
X93136090Y-122035012D01*
X93191073Y-122090092D01*
X93191073Y-122090092D01*
G37*
X93191073Y-122090092D02*
X93534601Y-122232738D01*
X93906567Y-122233062D01*
X94250343Y-122091017D01*
X94283518Y-122057900D01*
X98543578Y-122057900D01*
X98461548Y-122130639D01*
X98277832Y-122504522D01*
X98404366Y-122675460D01*
X99370100Y-122675460D01*
X99370100Y-122655460D01*
X99624100Y-122655460D01*
X99624100Y-122675460D01*
X100589834Y-122675460D01*
X100716368Y-122504522D01*
X100532652Y-122130639D01*
X100450622Y-122057900D01*
X103543578Y-122057900D01*
X103461548Y-122130639D01*
X103277832Y-122504522D01*
X103404366Y-122675460D01*
X104370100Y-122675460D01*
X104370100Y-122655460D01*
X104577258Y-122655460D01*
X104644100Y-122722302D01*
X104644100Y-122929460D01*
X104624100Y-122929460D01*
X104624100Y-123755023D01*
X104798231Y-123903689D01*
X105208149Y-123762028D01*
X105460266Y-123538468D01*
X108159798Y-126238000D01*
X106526073Y-126238000D01*
X106632100Y-125904460D01*
X106632100Y-125629460D01*
X105624100Y-125629460D01*
X105624100Y-125649460D01*
X105370100Y-125649460D01*
X105370100Y-125629460D01*
X104362100Y-125629460D01*
X104362100Y-125904460D01*
X104468127Y-126238000D01*
X99526073Y-126238000D01*
X99632100Y-125904460D01*
X99632100Y-125629460D01*
X98624100Y-125629460D01*
X98624100Y-125649460D01*
X98370100Y-125649460D01*
X98370100Y-125629460D01*
X97362100Y-125629460D01*
X97362100Y-125904460D01*
X97468127Y-126238000D01*
X88125000Y-126238000D01*
X88125000Y-125100460D01*
X97362100Y-125100460D01*
X97362100Y-125375460D01*
X98370100Y-125375460D01*
X98370100Y-124259506D01*
X98624100Y-124259506D01*
X98624100Y-125375460D01*
X99632100Y-125375460D01*
X99632100Y-125100460D01*
X104362100Y-125100460D01*
X104362100Y-125375460D01*
X105370100Y-125375460D01*
X105370100Y-124259506D01*
X105624100Y-124259506D01*
X105624100Y-125375460D01*
X106632100Y-125375460D01*
X106632100Y-125100460D01*
X106497102Y-124675782D01*
X106209863Y-124335092D01*
X105798974Y-124133341D01*
X105624100Y-124259506D01*
X105370100Y-124259506D01*
X105195226Y-124133341D01*
X104784337Y-124335092D01*
X104497098Y-124675782D01*
X104362100Y-125100460D01*
X99632100Y-125100460D01*
X99497102Y-124675782D01*
X99209863Y-124335092D01*
X98798974Y-124133341D01*
X98624100Y-124259506D01*
X98370100Y-124259506D01*
X98195226Y-124133341D01*
X97784337Y-124335092D01*
X97497098Y-124675782D01*
X97362100Y-125100460D01*
X88125000Y-125100460D01*
X88125000Y-124904440D01*
X90276000Y-124904440D01*
X90511317Y-124860162D01*
X90727441Y-124721090D01*
X90872431Y-124508890D01*
X90923440Y-124257000D01*
X90923440Y-124176233D01*
X91138701Y-124032401D01*
X92070704Y-123100398D01*
X98277832Y-123100398D01*
X98461548Y-123474281D01*
X98786051Y-123762028D01*
X99195969Y-123903689D01*
X99370100Y-123755023D01*
X99370100Y-122929460D01*
X99624100Y-122929460D01*
X99624100Y-123755023D01*
X99798231Y-123903689D01*
X100208149Y-123762028D01*
X100532652Y-123474281D01*
X100716368Y-123100398D01*
X103277832Y-123100398D01*
X103461548Y-123474281D01*
X103786051Y-123762028D01*
X104195969Y-123903689D01*
X104370100Y-123755023D01*
X104370100Y-122929460D01*
X103404366Y-122929460D01*
X103277832Y-123100398D01*
X100716368Y-123100398D01*
X100589834Y-122929460D01*
X99624100Y-122929460D01*
X99370100Y-122929460D01*
X98404366Y-122929460D01*
X98277832Y-123100398D01*
X92070704Y-123100398D01*
X93136090Y-122035012D01*
X93191073Y-122090092D01*
G36*
X142861200Y-122086900D02*
X142919052Y-122377739D01*
X143024878Y-122536119D01*
X142958330Y-122580585D01*
X142750400Y-122891774D01*
X142750400Y-117018800D01*
X142692548Y-116727961D01*
X142527801Y-116481399D01*
X142406022Y-116359620D01*
X142406062Y-116314133D01*
X142264017Y-115970357D01*
X142230900Y-115937182D01*
X142230900Y-112955614D01*
X142291292Y-112895327D01*
X142433938Y-112551799D01*
X142434262Y-112179833D01*
X142292217Y-111836057D01*
X142029427Y-111572808D01*
X141685899Y-111430162D01*
X141313933Y-111429838D01*
X140970157Y-111571883D01*
X140706908Y-111834673D01*
X140564262Y-112178201D01*
X140563938Y-112550167D01*
X140705983Y-112893943D01*
X140710900Y-112898869D01*
X140710900Y-115936837D01*
X140678708Y-115968973D01*
X140536062Y-116312501D01*
X140535738Y-116684467D01*
X140677783Y-117028243D01*
X140940573Y-117291492D01*
X141230400Y-117411839D01*
X141230400Y-122190906D01*
X140904511Y-122255729D01*
X140418330Y-122580585D01*
X140408757Y-122594913D01*
X140404762Y-122573683D01*
X140265690Y-122357559D01*
X140053490Y-122212569D01*
X139801600Y-122161560D01*
X138074400Y-122161560D01*
X137839083Y-122205838D01*
X137622959Y-122344910D01*
X137477969Y-122557110D01*
X137426960Y-122809000D01*
X137426960Y-124841000D01*
X137471238Y-125076317D01*
X137610310Y-125292441D01*
X137822510Y-125437431D01*
X138074400Y-125488440D01*
X139801600Y-125488440D01*
X140036917Y-125444162D01*
X140253041Y-125305090D01*
X140398031Y-125092890D01*
X140406400Y-125051561D01*
X140418330Y-125069415D01*
X140904511Y-125394271D01*
X141478000Y-125508345D01*
X142051489Y-125394271D01*
X142405036Y-125158038D01*
X142953999Y-125707001D01*
X143200561Y-125871748D01*
X143362701Y-125904000D01*
X127123965Y-125904000D01*
X127200542Y-125827557D01*
X127602542Y-124859433D01*
X127603457Y-123811166D01*
X127203147Y-122842342D01*
X126462557Y-122100458D01*
X125494433Y-121698458D01*
X124446166Y-121697543D01*
X123477342Y-122097853D01*
X122735458Y-122838443D01*
X122333458Y-123806567D01*
X122332543Y-124854834D01*
X122732853Y-125823658D01*
X122813055Y-125904000D01*
X120582167Y-125904000D01*
X120871958Y-125783965D01*
X120970557Y-125517163D01*
X119998000Y-124544605D01*
X119025443Y-125517163D01*
X119124042Y-125783965D01*
X119447163Y-125904000D01*
X109975402Y-125904000D01*
X108171984Y-124100582D01*
X118352599Y-124100582D01*
X118376659Y-124750377D01*
X118579035Y-125238958D01*
X118845837Y-125337557D01*
X119818395Y-124365000D01*
X120177605Y-124365000D01*
X121150163Y-125337557D01*
X121416965Y-125238958D01*
X121643401Y-124629418D01*
X121619341Y-123979623D01*
X121416965Y-123491042D01*
X121150163Y-123392443D01*
X120177605Y-124365000D01*
X119818395Y-124365000D01*
X118845837Y-123392443D01*
X118579035Y-123491042D01*
X118352599Y-124100582D01*
X108171984Y-124100582D01*
X107284239Y-123212837D01*
X119025443Y-123212837D01*
X119998000Y-124185395D01*
X120970557Y-123212837D01*
X120871958Y-122946035D01*
X120262418Y-122719599D01*
X119612623Y-122743659D01*
X119124042Y-122946035D01*
X119025443Y-123212837D01*
X107284239Y-123212837D01*
X104831901Y-120760499D01*
X104585339Y-120595752D01*
X104294500Y-120537900D01*
X94633202Y-120537900D01*
X96209402Y-118961700D01*
X132009200Y-118961700D01*
X132300039Y-118903848D01*
X132546601Y-118739101D01*
X142861200Y-108424502D01*
X142861200Y-122086900D01*
X142861200Y-122086900D01*
G37*
X142861200Y-122086900D02*
X142919052Y-122377739D01*
X143024878Y-122536119D01*
X142958330Y-122580585D01*
X142750400Y-122891774D01*
X142750400Y-117018800D01*
X142692548Y-116727961D01*
X142527801Y-116481399D01*
X142406022Y-116359620D01*
X142406062Y-116314133D01*
X142264017Y-115970357D01*
X142230900Y-115937182D01*
X142230900Y-112955614D01*
X142291292Y-112895327D01*
X142433938Y-112551799D01*
X142434262Y-112179833D01*
X142292217Y-111836057D01*
X142029427Y-111572808D01*
X141685899Y-111430162D01*
X141313933Y-111429838D01*
X140970157Y-111571883D01*
X140706908Y-111834673D01*
X140564262Y-112178201D01*
X140563938Y-112550167D01*
X140705983Y-112893943D01*
X140710900Y-112898869D01*
X140710900Y-115936837D01*
X140678708Y-115968973D01*
X140536062Y-116312501D01*
X140535738Y-116684467D01*
X140677783Y-117028243D01*
X140940573Y-117291492D01*
X141230400Y-117411839D01*
X141230400Y-122190906D01*
X140904511Y-122255729D01*
X140418330Y-122580585D01*
X140408757Y-122594913D01*
X140404762Y-122573683D01*
X140265690Y-122357559D01*
X140053490Y-122212569D01*
X139801600Y-122161560D01*
X138074400Y-122161560D01*
X137839083Y-122205838D01*
X137622959Y-122344910D01*
X137477969Y-122557110D01*
X137426960Y-122809000D01*
X137426960Y-124841000D01*
X137471238Y-125076317D01*
X137610310Y-125292441D01*
X137822510Y-125437431D01*
X138074400Y-125488440D01*
X139801600Y-125488440D01*
X140036917Y-125444162D01*
X140253041Y-125305090D01*
X140398031Y-125092890D01*
X140406400Y-125051561D01*
X140418330Y-125069415D01*
X140904511Y-125394271D01*
X141478000Y-125508345D01*
X142051489Y-125394271D01*
X142405036Y-125158038D01*
X142953999Y-125707001D01*
X143200561Y-125871748D01*
X143362701Y-125904000D01*
X127123965Y-125904000D01*
X127200542Y-125827557D01*
X127602542Y-124859433D01*
X127603457Y-123811166D01*
X127203147Y-122842342D01*
X126462557Y-122100458D01*
X125494433Y-121698458D01*
X124446166Y-121697543D01*
X123477342Y-122097853D01*
X122735458Y-122838443D01*
X122333458Y-123806567D01*
X122332543Y-124854834D01*
X122732853Y-125823658D01*
X122813055Y-125904000D01*
X120582167Y-125904000D01*
X120871958Y-125783965D01*
X120970557Y-125517163D01*
X119998000Y-124544605D01*
X119025443Y-125517163D01*
X119124042Y-125783965D01*
X119447163Y-125904000D01*
X109975402Y-125904000D01*
X108171984Y-124100582D01*
X118352599Y-124100582D01*
X118376659Y-124750377D01*
X118579035Y-125238958D01*
X118845837Y-125337557D01*
X119818395Y-124365000D01*
X120177605Y-124365000D01*
X121150163Y-125337557D01*
X121416965Y-125238958D01*
X121643401Y-124629418D01*
X121619341Y-123979623D01*
X121416965Y-123491042D01*
X121150163Y-123392443D01*
X120177605Y-124365000D01*
X119818395Y-124365000D01*
X118845837Y-123392443D01*
X118579035Y-123491042D01*
X118352599Y-124100582D01*
X108171984Y-124100582D01*
X107284239Y-123212837D01*
X119025443Y-123212837D01*
X119998000Y-124185395D01*
X120970557Y-123212837D01*
X120871958Y-122946035D01*
X120262418Y-122719599D01*
X119612623Y-122743659D01*
X119124042Y-122946035D01*
X119025443Y-123212837D01*
X107284239Y-123212837D01*
X104831901Y-120760499D01*
X104585339Y-120595752D01*
X104294500Y-120537900D01*
X94633202Y-120537900D01*
X96209402Y-118961700D01*
X132009200Y-118961700D01*
X132300039Y-118903848D01*
X132546601Y-118739101D01*
X142861200Y-108424502D01*
X142861200Y-122086900D01*
G36*
X169847000Y-86798598D02*
X168327220Y-88318378D01*
X168281733Y-88318338D01*
X167937957Y-88460383D01*
X167674708Y-88723173D01*
X167532062Y-89066701D01*
X167531738Y-89438667D01*
X167673783Y-89782443D01*
X167936573Y-90045692D01*
X168280101Y-90188338D01*
X168652067Y-90188662D01*
X168995843Y-90046617D01*
X169259092Y-89783827D01*
X169401738Y-89440299D01*
X169401779Y-89393423D01*
X170386300Y-88408902D01*
X170386300Y-91435582D01*
X170175257Y-91522783D01*
X169912008Y-91785573D01*
X169769362Y-92129101D01*
X169769038Y-92501067D01*
X169911083Y-92844843D01*
X170173873Y-93108092D01*
X170517401Y-93250738D01*
X170889367Y-93251062D01*
X171233143Y-93109017D01*
X171496392Y-92846227D01*
X171639038Y-92502699D01*
X171639079Y-92455823D01*
X171683701Y-92411201D01*
X171848448Y-92164639D01*
X171906300Y-91873800D01*
X171906300Y-82490802D01*
X172033500Y-82363602D01*
X172033500Y-93615198D01*
X171643198Y-94005500D01*
X171628463Y-94005500D01*
X171596327Y-93973308D01*
X171252799Y-93830662D01*
X170880833Y-93830338D01*
X170537057Y-93972383D01*
X170273808Y-94235173D01*
X170131162Y-94578701D01*
X170130838Y-94950667D01*
X170272883Y-95294443D01*
X170535673Y-95557692D01*
X170879201Y-95700338D01*
X171198000Y-95700616D01*
X171198000Y-95736200D01*
X171255852Y-96027039D01*
X171420599Y-96273601D01*
X175664962Y-100517964D01*
X175428729Y-100871511D01*
X175314655Y-101445000D01*
X175428729Y-102018489D01*
X175753585Y-102504670D01*
X176239766Y-102829526D01*
X176813255Y-102943600D01*
X176946598Y-102943600D01*
X172666850Y-107223348D01*
X164702753Y-99259251D01*
X164940692Y-99021727D01*
X165083338Y-98678199D01*
X165083379Y-98631323D01*
X165631401Y-98083301D01*
X165796148Y-97836739D01*
X165854000Y-97545900D01*
X165854000Y-88378063D01*
X165886192Y-88345927D01*
X166028838Y-88002399D01*
X166029162Y-87630433D01*
X165887117Y-87286657D01*
X165786236Y-87185600D01*
X167862337Y-87185600D01*
X167894473Y-87217792D01*
X168238001Y-87360438D01*
X168609967Y-87360762D01*
X168953743Y-87218717D01*
X169216992Y-86955927D01*
X169359638Y-86612399D01*
X169359962Y-86240433D01*
X169217917Y-85896657D01*
X168955127Y-85633408D01*
X168611599Y-85490762D01*
X168239633Y-85490438D01*
X167895857Y-85632483D01*
X167862682Y-85665600D01*
X164986502Y-85665600D01*
X169847000Y-80805102D01*
X169847000Y-86798598D01*
X169847000Y-86798598D01*
G37*
X169847000Y-86798598D02*
X168327220Y-88318378D01*
X168281733Y-88318338D01*
X167937957Y-88460383D01*
X167674708Y-88723173D01*
X167532062Y-89066701D01*
X167531738Y-89438667D01*
X167673783Y-89782443D01*
X167936573Y-90045692D01*
X168280101Y-90188338D01*
X168652067Y-90188662D01*
X168995843Y-90046617D01*
X169259092Y-89783827D01*
X169401738Y-89440299D01*
X169401779Y-89393423D01*
X170386300Y-88408902D01*
X170386300Y-91435582D01*
X170175257Y-91522783D01*
X169912008Y-91785573D01*
X169769362Y-92129101D01*
X169769038Y-92501067D01*
X169911083Y-92844843D01*
X170173873Y-93108092D01*
X170517401Y-93250738D01*
X170889367Y-93251062D01*
X171233143Y-93109017D01*
X171496392Y-92846227D01*
X171639038Y-92502699D01*
X171639079Y-92455823D01*
X171683701Y-92411201D01*
X171848448Y-92164639D01*
X171906300Y-91873800D01*
X171906300Y-82490802D01*
X172033500Y-82363602D01*
X172033500Y-93615198D01*
X171643198Y-94005500D01*
X171628463Y-94005500D01*
X171596327Y-93973308D01*
X171252799Y-93830662D01*
X170880833Y-93830338D01*
X170537057Y-93972383D01*
X170273808Y-94235173D01*
X170131162Y-94578701D01*
X170130838Y-94950667D01*
X170272883Y-95294443D01*
X170535673Y-95557692D01*
X170879201Y-95700338D01*
X171198000Y-95700616D01*
X171198000Y-95736200D01*
X171255852Y-96027039D01*
X171420599Y-96273601D01*
X175664962Y-100517964D01*
X175428729Y-100871511D01*
X175314655Y-101445000D01*
X175428729Y-102018489D01*
X175753585Y-102504670D01*
X176239766Y-102829526D01*
X176813255Y-102943600D01*
X176946598Y-102943600D01*
X172666850Y-107223348D01*
X164702753Y-99259251D01*
X164940692Y-99021727D01*
X165083338Y-98678199D01*
X165083379Y-98631323D01*
X165631401Y-98083301D01*
X165796148Y-97836739D01*
X165854000Y-97545900D01*
X165854000Y-88378063D01*
X165886192Y-88345927D01*
X166028838Y-88002399D01*
X166029162Y-87630433D01*
X165887117Y-87286657D01*
X165786236Y-87185600D01*
X167862337Y-87185600D01*
X167894473Y-87217792D01*
X168238001Y-87360438D01*
X168609967Y-87360762D01*
X168953743Y-87218717D01*
X169216992Y-86955927D01*
X169359638Y-86612399D01*
X169359962Y-86240433D01*
X169217917Y-85896657D01*
X168955127Y-85633408D01*
X168611599Y-85490762D01*
X168239633Y-85490438D01*
X167895857Y-85632483D01*
X167862682Y-85665600D01*
X164986502Y-85665600D01*
X169847000Y-80805102D01*
X169847000Y-86798598D01*
G36*
X98486960Y-100228600D02*
X98531238Y-100463917D01*
X98670310Y-100680041D01*
X98882510Y-100825031D01*
X98976375Y-100844039D01*
X98715312Y-101130053D01*
X98543042Y-101545974D01*
X98664183Y-101778000D01*
X99871000Y-101778000D01*
X99871000Y-101758000D01*
X100125000Y-101758000D01*
X100125000Y-101778000D01*
X102411000Y-101778000D01*
X102411000Y-101758000D01*
X102665000Y-101758000D01*
X102665000Y-101778000D01*
X103871817Y-101778000D01*
X103992958Y-101545974D01*
X103820688Y-101130053D01*
X103426490Y-100698179D01*
X103303772Y-100640664D01*
X103627029Y-100424670D01*
X103951885Y-99938489D01*
X104065959Y-99365000D01*
X103964514Y-98855000D01*
X110484998Y-98855000D01*
X110639299Y-99009301D01*
X110723641Y-99065657D01*
X107374298Y-102415000D01*
X103930426Y-102415000D01*
X103992958Y-102264026D01*
X103871817Y-102032000D01*
X102665000Y-102032000D01*
X102665000Y-102052000D01*
X102411000Y-102052000D01*
X102411000Y-102032000D01*
X100125000Y-102032000D01*
X100125000Y-102052000D01*
X99871000Y-102052000D01*
X99871000Y-102032000D01*
X98664183Y-102032000D01*
X98543042Y-102264026D01*
X98605574Y-102415000D01*
X90923440Y-102415000D01*
X90923440Y-102413000D01*
X90879162Y-102177683D01*
X90740090Y-101961559D01*
X90658230Y-101905626D01*
X90727441Y-101861090D01*
X90872431Y-101648890D01*
X90923440Y-101397000D01*
X90923440Y-101316233D01*
X91138701Y-101172401D01*
X91303448Y-100925839D01*
X91361300Y-100635000D01*
X91361300Y-100609302D01*
X92312680Y-99657922D01*
X92358167Y-99657962D01*
X92701943Y-99515917D01*
X92965192Y-99253127D01*
X93107838Y-98909599D01*
X93107886Y-98855000D01*
X98486960Y-98855000D01*
X98486960Y-100228600D01*
X98486960Y-100228600D01*
G37*
X98486960Y-100228600D02*
X98531238Y-100463917D01*
X98670310Y-100680041D01*
X98882510Y-100825031D01*
X98976375Y-100844039D01*
X98715312Y-101130053D01*
X98543042Y-101545974D01*
X98664183Y-101778000D01*
X99871000Y-101778000D01*
X99871000Y-101758000D01*
X100125000Y-101758000D01*
X100125000Y-101778000D01*
X102411000Y-101778000D01*
X102411000Y-101758000D01*
X102665000Y-101758000D01*
X102665000Y-101778000D01*
X103871817Y-101778000D01*
X103992958Y-101545974D01*
X103820688Y-101130053D01*
X103426490Y-100698179D01*
X103303772Y-100640664D01*
X103627029Y-100424670D01*
X103951885Y-99938489D01*
X104065959Y-99365000D01*
X103964514Y-98855000D01*
X110484998Y-98855000D01*
X110639299Y-99009301D01*
X110723641Y-99065657D01*
X107374298Y-102415000D01*
X103930426Y-102415000D01*
X103992958Y-102264026D01*
X103871817Y-102032000D01*
X102665000Y-102032000D01*
X102665000Y-102052000D01*
X102411000Y-102052000D01*
X102411000Y-102032000D01*
X100125000Y-102032000D01*
X100125000Y-102052000D01*
X99871000Y-102052000D01*
X99871000Y-102032000D01*
X98664183Y-102032000D01*
X98543042Y-102264026D01*
X98605574Y-102415000D01*
X90923440Y-102415000D01*
X90923440Y-102413000D01*
X90879162Y-102177683D01*
X90740090Y-101961559D01*
X90658230Y-101905626D01*
X90727441Y-101861090D01*
X90872431Y-101648890D01*
X90923440Y-101397000D01*
X90923440Y-101316233D01*
X91138701Y-101172401D01*
X91303448Y-100925839D01*
X91361300Y-100635000D01*
X91361300Y-100609302D01*
X92312680Y-99657922D01*
X92358167Y-99657962D01*
X92701943Y-99515917D01*
X92965192Y-99253127D01*
X93107838Y-98909599D01*
X93107886Y-98855000D01*
X98486960Y-98855000D01*
X98486960Y-100228600D01*
G36*
X175543443Y-93545542D02*
X176511567Y-93947542D01*
X177559834Y-93948457D01*
X178528658Y-93548147D01*
X178630300Y-93446682D01*
X178630300Y-95329944D01*
X178552327Y-95141701D01*
X178373698Y-94963073D01*
X178140309Y-94866400D01*
X177283750Y-94866400D01*
X177125000Y-95025150D01*
X177125000Y-96238000D01*
X177145000Y-96238000D01*
X177145000Y-96492000D01*
X177125000Y-96492000D01*
X177125000Y-96512000D01*
X176871000Y-96512000D01*
X176871000Y-96492000D01*
X176851000Y-96492000D01*
X176851000Y-96238000D01*
X176871000Y-96238000D01*
X176871000Y-95025150D01*
X176712250Y-94866400D01*
X175855691Y-94866400D01*
X175622302Y-94963073D01*
X175443673Y-95141701D01*
X175347000Y-95375090D01*
X175347000Y-96030598D01*
X175258000Y-95941598D01*
X175258000Y-93259600D01*
X175543443Y-93545542D01*
X175543443Y-93545542D01*
G37*
X175543443Y-93545542D02*
X176511567Y-93947542D01*
X177559834Y-93948457D01*
X178528658Y-93548147D01*
X178630300Y-93446682D01*
X178630300Y-95329944D01*
X178552327Y-95141701D01*
X178373698Y-94963073D01*
X178140309Y-94866400D01*
X177283750Y-94866400D01*
X177125000Y-95025150D01*
X177125000Y-96238000D01*
X177145000Y-96238000D01*
X177145000Y-96492000D01*
X177125000Y-96492000D01*
X177125000Y-96512000D01*
X176871000Y-96512000D01*
X176871000Y-96492000D01*
X176851000Y-96492000D01*
X176851000Y-96238000D01*
X176871000Y-96238000D01*
X176871000Y-95025150D01*
X176712250Y-94866400D01*
X175855691Y-94866400D01*
X175622302Y-94963073D01*
X175443673Y-95141701D01*
X175347000Y-95375090D01*
X175347000Y-96030598D01*
X175258000Y-95941598D01*
X175258000Y-93259600D01*
X175543443Y-93545542D01*
G36*
X114125000Y-80238000D02*
X114145000Y-80238000D01*
X114145000Y-80492000D01*
X114125000Y-80492000D01*
X114125000Y-81857250D01*
X114283750Y-82016000D01*
X114987910Y-82016000D01*
X115221299Y-81919327D01*
X115399927Y-81740698D01*
X115463500Y-81587220D01*
X115478330Y-81609415D01*
X115801709Y-81825490D01*
X115835852Y-81997139D01*
X116000599Y-82243701D01*
X116247161Y-82408448D01*
X116538000Y-82466300D01*
X116777898Y-82466300D01*
X123557185Y-89245587D01*
X123029621Y-89487812D01*
X122591615Y-89960182D01*
X122392025Y-90442056D01*
X122511164Y-90698000D01*
X123871000Y-90698000D01*
X123871000Y-90678000D01*
X124125000Y-90678000D01*
X124125000Y-90698000D01*
X124145000Y-90698000D01*
X124145000Y-90952000D01*
X124125000Y-90952000D01*
X124125000Y-90972000D01*
X123871000Y-90972000D01*
X123871000Y-90952000D01*
X122511164Y-90952000D01*
X122392025Y-91207944D01*
X122591615Y-91689818D01*
X122682097Y-91787398D01*
X122530559Y-91884910D01*
X122385569Y-92097110D01*
X122334560Y-92349000D01*
X122334560Y-94381000D01*
X122378838Y-94616317D01*
X122517910Y-94832441D01*
X122614298Y-94898300D01*
X119382750Y-94898300D01*
X119465441Y-94845090D01*
X119610431Y-94632890D01*
X119661440Y-94381000D01*
X119661440Y-92349000D01*
X119617162Y-92113683D01*
X119478090Y-91897559D01*
X119315052Y-91786160D01*
X119404385Y-91689818D01*
X119603975Y-91207944D01*
X119484836Y-90952000D01*
X118125000Y-90952000D01*
X118125000Y-90972000D01*
X117871000Y-90972000D01*
X117871000Y-90952000D01*
X116511164Y-90952000D01*
X116392025Y-91207944D01*
X116591615Y-91689818D01*
X116682097Y-91787398D01*
X116530559Y-91884910D01*
X116385569Y-92097110D01*
X116334560Y-92349000D01*
X116334560Y-94381000D01*
X116378838Y-94616317D01*
X116517910Y-94832441D01*
X116614298Y-94898300D01*
X104831564Y-94898300D01*
X104761717Y-94729257D01*
X104728600Y-94696082D01*
X104728600Y-92764759D01*
X104762853Y-92847658D01*
X105503443Y-93589542D01*
X106471567Y-93991542D01*
X107519834Y-93992457D01*
X108488658Y-93592147D01*
X109230542Y-92851557D01*
X109632542Y-91883433D01*
X109633457Y-90835166D01*
X109471028Y-90442056D01*
X116392025Y-90442056D01*
X116511164Y-90698000D01*
X117871000Y-90698000D01*
X117871000Y-89337633D01*
X118125000Y-89337633D01*
X118125000Y-90698000D01*
X119484836Y-90698000D01*
X119603975Y-90442056D01*
X119404385Y-89960182D01*
X118966379Y-89487812D01*
X118380946Y-89219017D01*
X118125000Y-89337633D01*
X117871000Y-89337633D01*
X117615054Y-89219017D01*
X117029621Y-89487812D01*
X116591615Y-89960182D01*
X116392025Y-90442056D01*
X109471028Y-90442056D01*
X109233147Y-89866342D01*
X108492557Y-89124458D01*
X107524433Y-88722458D01*
X106476166Y-88721543D01*
X105507342Y-89121853D01*
X104765458Y-89862443D01*
X104728600Y-89951207D01*
X104728600Y-88361002D01*
X112597600Y-80492002D01*
X112658148Y-80492002D01*
X112499400Y-80650750D01*
X112499400Y-81507309D01*
X112596073Y-81740698D01*
X112774701Y-81919327D01*
X113008090Y-82016000D01*
X113712250Y-82016000D01*
X113871000Y-81857250D01*
X113871000Y-80492000D01*
X113851000Y-80492000D01*
X113851000Y-80238000D01*
X113871000Y-80238000D01*
X113871000Y-80218000D01*
X114125000Y-80218000D01*
X114125000Y-80238000D01*
X114125000Y-80238000D01*
G37*
X114125000Y-80238000D02*
X114145000Y-80238000D01*
X114145000Y-80492000D01*
X114125000Y-80492000D01*
X114125000Y-81857250D01*
X114283750Y-82016000D01*
X114987910Y-82016000D01*
X115221299Y-81919327D01*
X115399927Y-81740698D01*
X115463500Y-81587220D01*
X115478330Y-81609415D01*
X115801709Y-81825490D01*
X115835852Y-81997139D01*
X116000599Y-82243701D01*
X116247161Y-82408448D01*
X116538000Y-82466300D01*
X116777898Y-82466300D01*
X123557185Y-89245587D01*
X123029621Y-89487812D01*
X122591615Y-89960182D01*
X122392025Y-90442056D01*
X122511164Y-90698000D01*
X123871000Y-90698000D01*
X123871000Y-90678000D01*
X124125000Y-90678000D01*
X124125000Y-90698000D01*
X124145000Y-90698000D01*
X124145000Y-90952000D01*
X124125000Y-90952000D01*
X124125000Y-90972000D01*
X123871000Y-90972000D01*
X123871000Y-90952000D01*
X122511164Y-90952000D01*
X122392025Y-91207944D01*
X122591615Y-91689818D01*
X122682097Y-91787398D01*
X122530559Y-91884910D01*
X122385569Y-92097110D01*
X122334560Y-92349000D01*
X122334560Y-94381000D01*
X122378838Y-94616317D01*
X122517910Y-94832441D01*
X122614298Y-94898300D01*
X119382750Y-94898300D01*
X119465441Y-94845090D01*
X119610431Y-94632890D01*
X119661440Y-94381000D01*
X119661440Y-92349000D01*
X119617162Y-92113683D01*
X119478090Y-91897559D01*
X119315052Y-91786160D01*
X119404385Y-91689818D01*
X119603975Y-91207944D01*
X119484836Y-90952000D01*
X118125000Y-90952000D01*
X118125000Y-90972000D01*
X117871000Y-90972000D01*
X117871000Y-90952000D01*
X116511164Y-90952000D01*
X116392025Y-91207944D01*
X116591615Y-91689818D01*
X116682097Y-91787398D01*
X116530559Y-91884910D01*
X116385569Y-92097110D01*
X116334560Y-92349000D01*
X116334560Y-94381000D01*
X116378838Y-94616317D01*
X116517910Y-94832441D01*
X116614298Y-94898300D01*
X104831564Y-94898300D01*
X104761717Y-94729257D01*
X104728600Y-94696082D01*
X104728600Y-92764759D01*
X104762853Y-92847658D01*
X105503443Y-93589542D01*
X106471567Y-93991542D01*
X107519834Y-93992457D01*
X108488658Y-93592147D01*
X109230542Y-92851557D01*
X109632542Y-91883433D01*
X109633457Y-90835166D01*
X109471028Y-90442056D01*
X116392025Y-90442056D01*
X116511164Y-90698000D01*
X117871000Y-90698000D01*
X117871000Y-89337633D01*
X118125000Y-89337633D01*
X118125000Y-90698000D01*
X119484836Y-90698000D01*
X119603975Y-90442056D01*
X119404385Y-89960182D01*
X118966379Y-89487812D01*
X118380946Y-89219017D01*
X118125000Y-89337633D01*
X117871000Y-89337633D01*
X117615054Y-89219017D01*
X117029621Y-89487812D01*
X116591615Y-89960182D01*
X116392025Y-90442056D01*
X109471028Y-90442056D01*
X109233147Y-89866342D01*
X108492557Y-89124458D01*
X107524433Y-88722458D01*
X106476166Y-88721543D01*
X105507342Y-89121853D01*
X104765458Y-89862443D01*
X104728600Y-89951207D01*
X104728600Y-88361002D01*
X112597600Y-80492002D01*
X112658148Y-80492002D01*
X112499400Y-80650750D01*
X112499400Y-81507309D01*
X112596073Y-81740698D01*
X112774701Y-81919327D01*
X113008090Y-82016000D01*
X113712250Y-82016000D01*
X113871000Y-81857250D01*
X113871000Y-80492000D01*
X113851000Y-80492000D01*
X113851000Y-80238000D01*
X113871000Y-80238000D01*
X113871000Y-80218000D01*
X114125000Y-80218000D01*
X114125000Y-80238000D01*
G36*
X137541000Y-75438000D02*
X137561000Y-75438000D01*
X137561000Y-75692000D01*
X137541000Y-75692000D01*
X137541000Y-77051217D01*
X137773026Y-77172358D01*
X137788791Y-77169709D01*
X138316036Y-76915732D01*
X138687539Y-76499931D01*
X138894330Y-76809415D01*
X139380511Y-77134271D01*
X139954000Y-77248345D01*
X140503733Y-77138996D01*
X140605499Y-77291301D01*
X141508900Y-78194702D01*
X141508900Y-83476798D01*
X140679322Y-82647220D01*
X140679362Y-82601733D01*
X140537317Y-82257957D01*
X140274527Y-81994708D01*
X139930999Y-81852062D01*
X139559033Y-81851738D01*
X139215257Y-81993783D01*
X138952008Y-82256573D01*
X138844446Y-82515610D01*
X138761733Y-82515538D01*
X138417957Y-82657583D01*
X138261985Y-82813283D01*
X135634000Y-80185298D01*
X135634000Y-77009648D01*
X135933670Y-76809415D01*
X136140461Y-76499931D01*
X136511964Y-76915732D01*
X137039209Y-77169709D01*
X137054974Y-77172358D01*
X137287000Y-77051217D01*
X137287000Y-75692000D01*
X137267000Y-75692000D01*
X137267000Y-75438000D01*
X137287000Y-75438000D01*
X137287000Y-75418000D01*
X137541000Y-75418000D01*
X137541000Y-75438000D01*
X137541000Y-75438000D01*
G37*
X137541000Y-75438000D02*
X137561000Y-75438000D01*
X137561000Y-75692000D01*
X137541000Y-75692000D01*
X137541000Y-77051217D01*
X137773026Y-77172358D01*
X137788791Y-77169709D01*
X138316036Y-76915732D01*
X138687539Y-76499931D01*
X138894330Y-76809415D01*
X139380511Y-77134271D01*
X139954000Y-77248345D01*
X140503733Y-77138996D01*
X140605499Y-77291301D01*
X141508900Y-78194702D01*
X141508900Y-83476798D01*
X140679322Y-82647220D01*
X140679362Y-82601733D01*
X140537317Y-82257957D01*
X140274527Y-81994708D01*
X139930999Y-81852062D01*
X139559033Y-81851738D01*
X139215257Y-81993783D01*
X138952008Y-82256573D01*
X138844446Y-82515610D01*
X138761733Y-82515538D01*
X138417957Y-82657583D01*
X138261985Y-82813283D01*
X135634000Y-80185298D01*
X135634000Y-77009648D01*
X135933670Y-76809415D01*
X136140461Y-76499931D01*
X136511964Y-76915732D01*
X137039209Y-77169709D01*
X137054974Y-77172358D01*
X137287000Y-77051217D01*
X137287000Y-75692000D01*
X137267000Y-75692000D01*
X137267000Y-75438000D01*
X137287000Y-75438000D01*
X137287000Y-75418000D01*
X137541000Y-75418000D01*
X137541000Y-75438000D01*
M02*
