%TF.GenerationSoftware,KiCad,Pcbnew,4.0.2+dfsg1-stable*%
%TF.CreationDate,2019-10-14T09:04:35+02:00*%
%TF.ProjectId,stduinof429,73746475696E6F663432392E6B696361,rev?*%
%TF.FileFunction,Soldermask,Top*%
%FSLAX46Y46*%
G04 Gerber Fmt 4.6, Leading zero omitted, Abs format (unit mm)*
G04 Created by KiCad (PCBNEW 4.0.2+dfsg1-stable) date Mon 14 Oct 2019 09:04:35 CEST*
%MOMM*%
G01*
G04 APERTURE LIST*
%ADD10C,0.100000*%
%ADD11R,1.120000X0.300000*%
%ADD12R,0.300000X1.120000*%
%ADD13R,2.032000X2.032000*%
%ADD14O,2.032000X2.032000*%
%ADD15R,2.999740X1.501140*%
%ADD16R,2.000000X2.500000*%
%ADD17R,2.000000X1.600000*%
%ADD18R,1.600000X2.000000*%
%ADD19R,1.597660X1.800860*%
%ADD20R,2.032000X1.727200*%
%ADD21O,2.032000X1.727200*%
%ADD22R,1.700000X2.000000*%
%ADD23R,2.000000X1.700000*%
%ADD24R,2.180000X1.600000*%
%ADD25R,1.727200X2.032000*%
%ADD26O,1.727200X2.032000*%
%ADD27R,2.032000X3.657600*%
%ADD28R,2.032000X1.016000*%
%ADD29C,1.998980*%
%ADD30C,1.500000*%
%ADD31R,1.727200X1.727200*%
%ADD32O,1.727200X1.727200*%
%ADD33C,4.000000*%
%ADD34R,0.400000X3.000000*%
%ADD35O,1.250000X0.950000*%
%ADD36O,1.000000X1.550000*%
%ADD37R,3.000000X1.524000*%
%ADD38C,0.600000*%
G04 APERTURE END LIST*
D10*
D11*
X144378000Y-88615000D03*
X144378000Y-89115000D03*
X144378000Y-89615000D03*
X144378000Y-90115000D03*
X144378000Y-90615000D03*
X144378000Y-91115000D03*
X144378000Y-91615000D03*
X144378000Y-92115000D03*
X144378000Y-92615000D03*
X144378000Y-93115000D03*
X144378000Y-93615000D03*
X144378000Y-94115000D03*
X144378000Y-94615000D03*
X144378000Y-95115000D03*
X144378000Y-95615000D03*
X144378000Y-96115000D03*
X144378000Y-96615000D03*
X144378000Y-97115000D03*
X144378000Y-97615000D03*
X144378000Y-98115000D03*
X144378000Y-98615000D03*
X144378000Y-99115000D03*
X144378000Y-99615000D03*
X144378000Y-100115000D03*
X144378000Y-100615000D03*
X144378000Y-101115000D03*
X144378000Y-101615000D03*
X144378000Y-102115000D03*
X144378000Y-102615000D03*
X144378000Y-103115000D03*
X144378000Y-103615000D03*
X144378000Y-104115000D03*
X144378000Y-104615000D03*
X144378000Y-105115000D03*
X144378000Y-105615000D03*
X144378000Y-106115000D03*
X144378000Y-106615000D03*
X144378000Y-107115000D03*
X144378000Y-107615000D03*
X144378000Y-108115000D03*
X144378000Y-108615000D03*
X144378000Y-109115000D03*
X144378000Y-109615000D03*
X144378000Y-110115000D03*
D12*
X146248000Y-111985000D03*
X146748000Y-111985000D03*
X147248000Y-111985000D03*
X147748000Y-111985000D03*
X148248000Y-111985000D03*
X148748000Y-111985000D03*
X149248000Y-111985000D03*
X149748000Y-111985000D03*
X150248000Y-111985000D03*
X150748000Y-111985000D03*
X151248000Y-111985000D03*
X151748000Y-111985000D03*
X152248000Y-111985000D03*
X152748000Y-111985000D03*
X153248000Y-111985000D03*
X153748000Y-111985000D03*
X154248000Y-111985000D03*
X154748000Y-111985000D03*
X155248000Y-111985000D03*
X155748000Y-111985000D03*
X156248000Y-111985000D03*
X156748000Y-111985000D03*
X157248000Y-111985000D03*
X157748000Y-111985000D03*
X158248000Y-111985000D03*
X158748000Y-111985000D03*
X159248000Y-111985000D03*
X159748000Y-111985000D03*
X160248000Y-111985000D03*
X160748000Y-111985000D03*
X161248000Y-111985000D03*
X161748000Y-111985000D03*
X162248000Y-111985000D03*
X162748000Y-111985000D03*
X163248000Y-111985000D03*
X163748000Y-111985000D03*
X164248000Y-111985000D03*
X164748000Y-111985000D03*
X165248000Y-111985000D03*
X165748000Y-111985000D03*
X166248000Y-111985000D03*
X166748000Y-111985000D03*
X167248000Y-111985000D03*
X167748000Y-111985000D03*
D11*
X169618000Y-110115000D03*
X169618000Y-109615000D03*
X169618000Y-109115000D03*
X169618000Y-108615000D03*
X169618000Y-108115000D03*
X169618000Y-107615000D03*
X169618000Y-107115000D03*
X169618000Y-106615000D03*
X169618000Y-106115000D03*
X169618000Y-105615000D03*
X169618000Y-105115000D03*
X169618000Y-104615000D03*
X169618000Y-104115000D03*
X169618000Y-103615000D03*
X169618000Y-103115000D03*
X169618000Y-102615000D03*
X169618000Y-102115000D03*
X169618000Y-101615000D03*
X169618000Y-101115000D03*
X169618000Y-100615000D03*
X169618000Y-100115000D03*
X169618000Y-99615000D03*
X169618000Y-99115000D03*
X169618000Y-98615000D03*
X169618000Y-98115000D03*
X169618000Y-97615000D03*
X169618000Y-97115000D03*
X169618000Y-96615000D03*
X169618000Y-96115000D03*
X169618000Y-95615000D03*
X169618000Y-95115000D03*
X169618000Y-94615000D03*
X169618000Y-94115000D03*
X169618000Y-93615000D03*
X169618000Y-93115000D03*
X169618000Y-92615000D03*
X169618000Y-92115000D03*
X169618000Y-91615000D03*
X169618000Y-91115000D03*
X169618000Y-90615000D03*
X169618000Y-90115000D03*
X169618000Y-89615000D03*
X169618000Y-89115000D03*
X169618000Y-88615000D03*
D12*
X167748000Y-86745000D03*
X167248000Y-86745000D03*
X166748000Y-86745000D03*
X166248000Y-86745000D03*
X165748000Y-86745000D03*
X165248000Y-86745000D03*
X164748000Y-86745000D03*
X164248000Y-86745000D03*
X163748000Y-86745000D03*
X163248000Y-86745000D03*
X162748000Y-86745000D03*
X162248000Y-86745000D03*
X161748000Y-86745000D03*
X161248000Y-86745000D03*
X160748000Y-86745000D03*
X160248000Y-86745000D03*
X159748000Y-86745000D03*
X159248000Y-86745000D03*
X158748000Y-86745000D03*
X158248000Y-86745000D03*
X157748000Y-86745000D03*
X157248000Y-86745000D03*
X156748000Y-86745000D03*
X156248000Y-86745000D03*
X155748000Y-86745000D03*
X155248000Y-86745000D03*
X154748000Y-86745000D03*
X154248000Y-86745000D03*
X153748000Y-86745000D03*
X153248000Y-86745000D03*
X152748000Y-86745000D03*
X152248000Y-86745000D03*
X151748000Y-86745000D03*
X151248000Y-86745000D03*
X150748000Y-86745000D03*
X150248000Y-86745000D03*
X149748000Y-86745000D03*
X149248000Y-86745000D03*
X148748000Y-86745000D03*
X148248000Y-86745000D03*
X147748000Y-86745000D03*
X147248000Y-86745000D03*
X146748000Y-86745000D03*
X146248000Y-86745000D03*
D13*
X117998000Y-93365000D03*
D14*
X117998000Y-90825000D03*
D13*
X123998000Y-93365000D03*
D14*
X123998000Y-90825000D03*
D15*
X128996980Y-113365000D03*
X124999020Y-113365000D03*
X128996980Y-116865000D03*
X124999020Y-116865000D03*
D16*
X128998000Y-120865000D03*
X132998000Y-120865000D03*
X100998000Y-81365000D03*
X96998000Y-81365000D03*
D17*
X135998000Y-95365000D03*
X139998000Y-95365000D03*
X135998000Y-104365000D03*
X139998000Y-104365000D03*
X170998000Y-79365000D03*
X174998000Y-79365000D03*
X160498000Y-119865000D03*
X164498000Y-119865000D03*
D18*
X132998000Y-86365000D03*
X132998000Y-90365000D03*
D17*
X136998000Y-91365000D03*
X140998000Y-91365000D03*
X136998000Y-86365000D03*
X140998000Y-86365000D03*
X143998000Y-83365000D03*
X147998000Y-83365000D03*
X155998000Y-83365000D03*
X151998000Y-83365000D03*
X159998000Y-83365000D03*
X163998000Y-83365000D03*
X171998000Y-83365000D03*
X167998000Y-83365000D03*
D18*
X172998000Y-90365000D03*
X172998000Y-86365000D03*
X172998000Y-93365000D03*
X172998000Y-97365000D03*
X172998000Y-100365000D03*
X172998000Y-104365000D03*
X172998000Y-111365000D03*
X172998000Y-107365000D03*
D17*
X168998000Y-115365000D03*
X172998000Y-115365000D03*
X165998000Y-115365000D03*
X161998000Y-115365000D03*
X154998000Y-115365000D03*
X158998000Y-115365000D03*
X150998000Y-115365000D03*
X146998000Y-115365000D03*
X135998000Y-108365000D03*
X139998000Y-108365000D03*
X135998000Y-112365000D03*
X139998000Y-112365000D03*
X138998000Y-116365000D03*
X142998000Y-116365000D03*
D19*
X123417860Y-108865000D03*
X120578140Y-108865000D03*
X100417860Y-92365000D03*
X97578140Y-92365000D03*
D20*
X176998000Y-96365000D03*
D21*
X176998000Y-98905000D03*
X176998000Y-101445000D03*
D16*
X130498000Y-108365000D03*
X126498000Y-108365000D03*
X108998000Y-81365000D03*
X104998000Y-81365000D03*
D22*
X123998000Y-99365000D03*
X123998000Y-103365000D03*
X119998000Y-103365000D03*
X119998000Y-99365000D03*
D23*
X150498000Y-79365000D03*
X146498000Y-79365000D03*
D22*
X115498000Y-103365000D03*
X115498000Y-99365000D03*
D23*
X139998000Y-80365000D03*
X135998000Y-80365000D03*
X97498000Y-87865000D03*
X101498000Y-87865000D03*
D24*
X98908000Y-76365000D03*
X108088000Y-76365000D03*
D25*
X113998000Y-80365000D03*
D26*
X116538000Y-80365000D03*
X119078000Y-80365000D03*
X121618000Y-80365000D03*
D27*
X113196000Y-115365000D03*
D28*
X119800000Y-115365000D03*
X119800000Y-113079000D03*
X119800000Y-117651000D03*
D29*
X119998000Y-124365000D03*
D30*
X130998000Y-97365000D03*
X130998000Y-102245000D03*
D31*
X99998000Y-99365000D03*
D32*
X102538000Y-99365000D03*
X99998000Y-101905000D03*
X102538000Y-101905000D03*
X99998000Y-104445000D03*
X102538000Y-104445000D03*
D23*
X139998000Y-98365000D03*
X135998000Y-98365000D03*
X139998000Y-101365000D03*
X135998000Y-101365000D03*
D22*
X131498000Y-79365000D03*
X131498000Y-83365000D03*
X126498000Y-81865000D03*
X126498000Y-85865000D03*
D23*
X146998000Y-120365000D03*
X150998000Y-120365000D03*
D22*
X177998000Y-109365000D03*
X177998000Y-105365000D03*
D25*
X138938000Y-123825000D03*
D26*
X141478000Y-123825000D03*
X144018000Y-123825000D03*
X146558000Y-123825000D03*
X149098000Y-123825000D03*
X151638000Y-123825000D03*
X154178000Y-123825000D03*
X156718000Y-123825000D03*
D25*
X161798000Y-123825000D03*
D26*
X164338000Y-123825000D03*
X166878000Y-123825000D03*
X169418000Y-123825000D03*
X171958000Y-123825000D03*
X174498000Y-123825000D03*
D25*
X129794000Y-75565000D03*
D26*
X132334000Y-75565000D03*
X134874000Y-75565000D03*
X137414000Y-75565000D03*
X139954000Y-75565000D03*
X142494000Y-75565000D03*
X145034000Y-75565000D03*
X147574000Y-75565000D03*
X150114000Y-75565000D03*
X152654000Y-75565000D03*
D25*
X156718000Y-75565000D03*
D26*
X159258000Y-75565000D03*
X161798000Y-75565000D03*
X164338000Y-75565000D03*
X166878000Y-75565000D03*
X169418000Y-75565000D03*
X171958000Y-75565000D03*
X174498000Y-75565000D03*
D33*
X124968000Y-124333000D03*
X177038000Y-119253000D03*
X126238000Y-76073000D03*
X177038000Y-91313000D03*
X106998000Y-91357000D03*
D16*
X99998000Y-117365000D03*
X103998000Y-117365000D03*
D34*
X100692440Y-121974860D03*
X101347100Y-121975000D03*
X101997100Y-121975000D03*
X102647100Y-121975000D03*
X103297100Y-121975000D03*
D35*
X99497100Y-122802460D03*
X104497100Y-122802460D03*
D36*
X98497100Y-125502460D03*
X105497100Y-125502460D03*
D25*
X103998000Y-112365000D03*
D26*
X101458000Y-112365000D03*
X98918000Y-112365000D03*
D37*
X88776000Y-123495000D03*
X88776000Y-120955000D03*
X88776000Y-118415000D03*
X88776000Y-115875000D03*
X88776000Y-113335000D03*
X88776000Y-110795000D03*
X88776000Y-108255000D03*
X88776000Y-105715000D03*
X88776000Y-103175000D03*
X88776000Y-100635000D03*
X88776000Y-98095000D03*
X88776000Y-95555000D03*
X88776000Y-93015000D03*
X88776000Y-90475000D03*
X88776000Y-87935000D03*
X88776000Y-85395000D03*
X88776000Y-82855000D03*
X88776000Y-80315000D03*
X88776000Y-77775000D03*
X88776000Y-75235000D03*
D38*
X133866300Y-113150100D03*
X137802800Y-107835700D03*
X171381200Y-87936300D03*
X169304600Y-85859700D03*
X148116000Y-105298300D03*
X127935800Y-118764200D03*
X135472000Y-86365000D03*
X139560200Y-83738300D03*
X141490700Y-83196300D03*
X136470300Y-89712000D03*
X148586500Y-98262500D03*
X102538000Y-106304600D03*
X147254400Y-102903200D03*
X111515600Y-82728200D03*
X172168200Y-80779400D03*
X170709100Y-92269500D03*
X174213900Y-98690300D03*
X168556600Y-91115000D03*
X128990100Y-89903500D03*
X141470900Y-116499300D03*
X141525000Y-108476700D03*
X155238100Y-110684900D03*
X159748000Y-87836200D03*
X158998000Y-114061900D03*
X174303100Y-104365000D03*
X174498000Y-95795100D03*
X171051500Y-94615000D03*
X148734700Y-88612100D03*
X123354600Y-95013000D03*
X157938600Y-88801600D03*
X148792300Y-110906400D03*
X150201500Y-113046700D03*
X140479300Y-77820800D03*
X149387700Y-109400400D03*
X153225500Y-109923400D03*
X157876800Y-85670400D03*
X157864800Y-84396700D03*
X160748000Y-85171700D03*
X161913600Y-87811700D03*
X163248000Y-85292500D03*
X115303200Y-95960900D03*
X142849900Y-102930000D03*
X146804100Y-101183000D03*
X152552400Y-101183000D03*
X153073300Y-113074200D03*
X107226500Y-86943400D03*
X146700300Y-108241500D03*
X148723600Y-95572700D03*
X165386100Y-85672900D03*
X145447400Y-92587000D03*
X138397300Y-92504900D03*
X99585600Y-87344100D03*
X101837800Y-90890200D03*
X138326600Y-93755600D03*
X145441900Y-104265600D03*
X142757800Y-104615000D03*
X119095600Y-119802100D03*
X145705200Y-105753600D03*
X124672100Y-120875000D03*
X141320800Y-105591400D03*
X129786600Y-115425100D03*
X132047900Y-114427700D03*
X135848300Y-115079800D03*
X139612500Y-110661100D03*
X147227100Y-77105200D03*
X152745100Y-110905400D03*
X92973800Y-120437100D03*
X146658400Y-103775000D03*
X95049100Y-118415000D03*
X120895500Y-119615700D03*
X140066600Y-82463900D03*
X148993500Y-100541900D03*
X156030300Y-100541900D03*
X160445500Y-110571300D03*
X148854800Y-81207800D03*
X159082800Y-108177000D03*
X97260800Y-113267700D03*
X146302400Y-101813300D03*
X128499200Y-115090100D03*
X131312200Y-116067100D03*
X153442500Y-115846800D03*
X165297500Y-100617400D03*
X146804100Y-100372800D03*
X132496500Y-111739800D03*
X133751600Y-111221100D03*
X145475600Y-101332500D03*
X103888100Y-103175000D03*
X145903500Y-97482100D03*
X145459200Y-102269200D03*
X158784600Y-102269200D03*
X161255600Y-97262000D03*
X147248900Y-96997600D03*
X146717300Y-96322200D03*
X95490200Y-105302100D03*
X102253400Y-108242700D03*
X105693200Y-113170600D03*
X117334900Y-122958400D03*
X170789600Y-96166100D03*
X96888300Y-98095000D03*
X146067900Y-95142800D03*
X146944100Y-94392500D03*
X94257500Y-96199700D03*
X114667000Y-92244100D03*
X148379300Y-92574600D03*
X161365500Y-89941500D03*
X163110100Y-89426800D03*
X115650800Y-86286300D03*
X166288400Y-88158600D03*
X98637300Y-95753200D03*
X120048700Y-95102900D03*
X135172100Y-88628000D03*
X160795400Y-89373700D03*
X164883000Y-87826800D03*
X146136500Y-94113800D03*
X146136900Y-93216200D03*
X91510000Y-76166800D03*
X148076900Y-80610700D03*
X153145800Y-85334900D03*
X91056600Y-77065600D03*
X133192200Y-74027900D03*
X154001700Y-87809400D03*
X95461200Y-82587800D03*
X119246300Y-83239000D03*
X158739000Y-88562600D03*
X144423200Y-85147700D03*
X148110000Y-89139000D03*
X121604100Y-85472600D03*
X122989400Y-84087300D03*
X138452800Y-111379600D03*
X143361600Y-112870300D03*
X146552100Y-118995300D03*
X145584600Y-106615000D03*
X150073400Y-85678100D03*
X149173400Y-87918200D03*
X156440900Y-91433100D03*
X158180400Y-91979000D03*
X143278600Y-89615000D03*
M02*
