%TF.GenerationSoftware,KiCad,Pcbnew,4.0.2+dfsg1-stable*%
%TF.CreationDate,2019-10-14T09:04:35+02:00*%
%TF.ProjectId,stduinof429,73746475696E6F663432392E6B696361,rev?*%
%TF.FileFunction,Copper,L1,Top,Mixed*%
%FSLAX46Y46*%
G04 Gerber Fmt 4.6, Leading zero omitted, Abs format (unit mm)*
G04 Created by KiCad (PCBNEW 4.0.2+dfsg1-stable) date Mon 14 Oct 2019 09:04:35 CEST*
%MOMM*%
G01*
G04 APERTURE LIST*
%ADD10C,0.100000*%
%ADD11R,1.120000X0.300000*%
%ADD12R,0.300000X1.120000*%
%ADD13R,2.032000X2.032000*%
%ADD14O,2.032000X2.032000*%
%ADD15R,2.999740X1.501140*%
%ADD16R,2.000000X2.500000*%
%ADD17R,2.000000X1.600000*%
%ADD18R,1.600000X2.000000*%
%ADD19R,1.597660X1.800860*%
%ADD20R,2.032000X1.727200*%
%ADD21O,2.032000X1.727200*%
%ADD22R,1.700000X2.000000*%
%ADD23R,2.000000X1.700000*%
%ADD24R,2.180000X1.600000*%
%ADD25R,1.727200X2.032000*%
%ADD26O,1.727200X2.032000*%
%ADD27R,2.032000X3.657600*%
%ADD28R,2.032000X1.016000*%
%ADD29C,1.998980*%
%ADD30C,1.500000*%
%ADD31R,1.727200X1.727200*%
%ADD32O,1.727200X1.727200*%
%ADD33C,4.000000*%
%ADD34R,0.400000X3.000000*%
%ADD35O,1.250000X0.950000*%
%ADD36O,1.000000X1.550000*%
%ADD37R,3.000000X1.524000*%
%ADD38C,0.600000*%
%ADD39C,0.250000*%
G04 APERTURE END LIST*
D10*
D11*
X144378000Y-88615000D03*
X144378000Y-89115000D03*
X144378000Y-89615000D03*
X144378000Y-90115000D03*
X144378000Y-90615000D03*
X144378000Y-91115000D03*
X144378000Y-91615000D03*
X144378000Y-92115000D03*
X144378000Y-92615000D03*
X144378000Y-93115000D03*
X144378000Y-93615000D03*
X144378000Y-94115000D03*
X144378000Y-94615000D03*
X144378000Y-95115000D03*
X144378000Y-95615000D03*
X144378000Y-96115000D03*
X144378000Y-96615000D03*
X144378000Y-97115000D03*
X144378000Y-97615000D03*
X144378000Y-98115000D03*
X144378000Y-98615000D03*
X144378000Y-99115000D03*
X144378000Y-99615000D03*
X144378000Y-100115000D03*
X144378000Y-100615000D03*
X144378000Y-101115000D03*
X144378000Y-101615000D03*
X144378000Y-102115000D03*
X144378000Y-102615000D03*
X144378000Y-103115000D03*
X144378000Y-103615000D03*
X144378000Y-104115000D03*
X144378000Y-104615000D03*
X144378000Y-105115000D03*
X144378000Y-105615000D03*
X144378000Y-106115000D03*
X144378000Y-106615000D03*
X144378000Y-107115000D03*
X144378000Y-107615000D03*
X144378000Y-108115000D03*
X144378000Y-108615000D03*
X144378000Y-109115000D03*
X144378000Y-109615000D03*
X144378000Y-110115000D03*
D12*
X146248000Y-111985000D03*
X146748000Y-111985000D03*
X147248000Y-111985000D03*
X147748000Y-111985000D03*
X148248000Y-111985000D03*
X148748000Y-111985000D03*
X149248000Y-111985000D03*
X149748000Y-111985000D03*
X150248000Y-111985000D03*
X150748000Y-111985000D03*
X151248000Y-111985000D03*
X151748000Y-111985000D03*
X152248000Y-111985000D03*
X152748000Y-111985000D03*
X153248000Y-111985000D03*
X153748000Y-111985000D03*
X154248000Y-111985000D03*
X154748000Y-111985000D03*
X155248000Y-111985000D03*
X155748000Y-111985000D03*
X156248000Y-111985000D03*
X156748000Y-111985000D03*
X157248000Y-111985000D03*
X157748000Y-111985000D03*
X158248000Y-111985000D03*
X158748000Y-111985000D03*
X159248000Y-111985000D03*
X159748000Y-111985000D03*
X160248000Y-111985000D03*
X160748000Y-111985000D03*
X161248000Y-111985000D03*
X161748000Y-111985000D03*
X162248000Y-111985000D03*
X162748000Y-111985000D03*
X163248000Y-111985000D03*
X163748000Y-111985000D03*
X164248000Y-111985000D03*
X164748000Y-111985000D03*
X165248000Y-111985000D03*
X165748000Y-111985000D03*
X166248000Y-111985000D03*
X166748000Y-111985000D03*
X167248000Y-111985000D03*
X167748000Y-111985000D03*
D11*
X169618000Y-110115000D03*
X169618000Y-109615000D03*
X169618000Y-109115000D03*
X169618000Y-108615000D03*
X169618000Y-108115000D03*
X169618000Y-107615000D03*
X169618000Y-107115000D03*
X169618000Y-106615000D03*
X169618000Y-106115000D03*
X169618000Y-105615000D03*
X169618000Y-105115000D03*
X169618000Y-104615000D03*
X169618000Y-104115000D03*
X169618000Y-103615000D03*
X169618000Y-103115000D03*
X169618000Y-102615000D03*
X169618000Y-102115000D03*
X169618000Y-101615000D03*
X169618000Y-101115000D03*
X169618000Y-100615000D03*
X169618000Y-100115000D03*
X169618000Y-99615000D03*
X169618000Y-99115000D03*
X169618000Y-98615000D03*
X169618000Y-98115000D03*
X169618000Y-97615000D03*
X169618000Y-97115000D03*
X169618000Y-96615000D03*
X169618000Y-96115000D03*
X169618000Y-95615000D03*
X169618000Y-95115000D03*
X169618000Y-94615000D03*
X169618000Y-94115000D03*
X169618000Y-93615000D03*
X169618000Y-93115000D03*
X169618000Y-92615000D03*
X169618000Y-92115000D03*
X169618000Y-91615000D03*
X169618000Y-91115000D03*
X169618000Y-90615000D03*
X169618000Y-90115000D03*
X169618000Y-89615000D03*
X169618000Y-89115000D03*
X169618000Y-88615000D03*
D12*
X167748000Y-86745000D03*
X167248000Y-86745000D03*
X166748000Y-86745000D03*
X166248000Y-86745000D03*
X165748000Y-86745000D03*
X165248000Y-86745000D03*
X164748000Y-86745000D03*
X164248000Y-86745000D03*
X163748000Y-86745000D03*
X163248000Y-86745000D03*
X162748000Y-86745000D03*
X162248000Y-86745000D03*
X161748000Y-86745000D03*
X161248000Y-86745000D03*
X160748000Y-86745000D03*
X160248000Y-86745000D03*
X159748000Y-86745000D03*
X159248000Y-86745000D03*
X158748000Y-86745000D03*
X158248000Y-86745000D03*
X157748000Y-86745000D03*
X157248000Y-86745000D03*
X156748000Y-86745000D03*
X156248000Y-86745000D03*
X155748000Y-86745000D03*
X155248000Y-86745000D03*
X154748000Y-86745000D03*
X154248000Y-86745000D03*
X153748000Y-86745000D03*
X153248000Y-86745000D03*
X152748000Y-86745000D03*
X152248000Y-86745000D03*
X151748000Y-86745000D03*
X151248000Y-86745000D03*
X150748000Y-86745000D03*
X150248000Y-86745000D03*
X149748000Y-86745000D03*
X149248000Y-86745000D03*
X148748000Y-86745000D03*
X148248000Y-86745000D03*
X147748000Y-86745000D03*
X147248000Y-86745000D03*
X146748000Y-86745000D03*
X146248000Y-86745000D03*
D13*
X117998000Y-93365000D03*
D14*
X117998000Y-90825000D03*
D13*
X123998000Y-93365000D03*
D14*
X123998000Y-90825000D03*
D15*
X128996980Y-113365000D03*
X124999020Y-113365000D03*
X128996980Y-116865000D03*
X124999020Y-116865000D03*
D16*
X128998000Y-120865000D03*
X132998000Y-120865000D03*
X100998000Y-81365000D03*
X96998000Y-81365000D03*
D17*
X135998000Y-95365000D03*
X139998000Y-95365000D03*
X135998000Y-104365000D03*
X139998000Y-104365000D03*
X170998000Y-79365000D03*
X174998000Y-79365000D03*
X160498000Y-119865000D03*
X164498000Y-119865000D03*
D18*
X132998000Y-86365000D03*
X132998000Y-90365000D03*
D17*
X136998000Y-91365000D03*
X140998000Y-91365000D03*
X136998000Y-86365000D03*
X140998000Y-86365000D03*
X143998000Y-83365000D03*
X147998000Y-83365000D03*
X155998000Y-83365000D03*
X151998000Y-83365000D03*
X159998000Y-83365000D03*
X163998000Y-83365000D03*
X171998000Y-83365000D03*
X167998000Y-83365000D03*
D18*
X172998000Y-90365000D03*
X172998000Y-86365000D03*
X172998000Y-93365000D03*
X172998000Y-97365000D03*
X172998000Y-100365000D03*
X172998000Y-104365000D03*
X172998000Y-111365000D03*
X172998000Y-107365000D03*
D17*
X168998000Y-115365000D03*
X172998000Y-115365000D03*
X165998000Y-115365000D03*
X161998000Y-115365000D03*
X154998000Y-115365000D03*
X158998000Y-115365000D03*
X150998000Y-115365000D03*
X146998000Y-115365000D03*
X135998000Y-108365000D03*
X139998000Y-108365000D03*
X135998000Y-112365000D03*
X139998000Y-112365000D03*
X138998000Y-116365000D03*
X142998000Y-116365000D03*
D19*
X123417860Y-108865000D03*
X120578140Y-108865000D03*
X100417860Y-92365000D03*
X97578140Y-92365000D03*
D20*
X176998000Y-96365000D03*
D21*
X176998000Y-98905000D03*
X176998000Y-101445000D03*
D16*
X130498000Y-108365000D03*
X126498000Y-108365000D03*
X108998000Y-81365000D03*
X104998000Y-81365000D03*
D22*
X123998000Y-99365000D03*
X123998000Y-103365000D03*
X119998000Y-103365000D03*
X119998000Y-99365000D03*
D23*
X150498000Y-79365000D03*
X146498000Y-79365000D03*
D22*
X115498000Y-103365000D03*
X115498000Y-99365000D03*
D23*
X139998000Y-80365000D03*
X135998000Y-80365000D03*
X97498000Y-87865000D03*
X101498000Y-87865000D03*
D24*
X98908000Y-76365000D03*
X108088000Y-76365000D03*
D25*
X113998000Y-80365000D03*
D26*
X116538000Y-80365000D03*
X119078000Y-80365000D03*
X121618000Y-80365000D03*
D27*
X113196000Y-115365000D03*
D28*
X119800000Y-115365000D03*
X119800000Y-113079000D03*
X119800000Y-117651000D03*
D29*
X119998000Y-124365000D03*
D30*
X130998000Y-97365000D03*
X130998000Y-102245000D03*
D31*
X99998000Y-99365000D03*
D32*
X102538000Y-99365000D03*
X99998000Y-101905000D03*
X102538000Y-101905000D03*
X99998000Y-104445000D03*
X102538000Y-104445000D03*
D23*
X139998000Y-98365000D03*
X135998000Y-98365000D03*
X139998000Y-101365000D03*
X135998000Y-101365000D03*
D22*
X131498000Y-79365000D03*
X131498000Y-83365000D03*
X126498000Y-81865000D03*
X126498000Y-85865000D03*
D23*
X146998000Y-120365000D03*
X150998000Y-120365000D03*
D22*
X177998000Y-109365000D03*
X177998000Y-105365000D03*
D25*
X138938000Y-123825000D03*
D26*
X141478000Y-123825000D03*
X144018000Y-123825000D03*
X146558000Y-123825000D03*
X149098000Y-123825000D03*
X151638000Y-123825000D03*
X154178000Y-123825000D03*
X156718000Y-123825000D03*
D25*
X161798000Y-123825000D03*
D26*
X164338000Y-123825000D03*
X166878000Y-123825000D03*
X169418000Y-123825000D03*
X171958000Y-123825000D03*
X174498000Y-123825000D03*
D25*
X129794000Y-75565000D03*
D26*
X132334000Y-75565000D03*
X134874000Y-75565000D03*
X137414000Y-75565000D03*
X139954000Y-75565000D03*
X142494000Y-75565000D03*
X145034000Y-75565000D03*
X147574000Y-75565000D03*
X150114000Y-75565000D03*
X152654000Y-75565000D03*
D25*
X156718000Y-75565000D03*
D26*
X159258000Y-75565000D03*
X161798000Y-75565000D03*
X164338000Y-75565000D03*
X166878000Y-75565000D03*
X169418000Y-75565000D03*
X171958000Y-75565000D03*
X174498000Y-75565000D03*
D33*
X124968000Y-124333000D03*
X177038000Y-119253000D03*
X126238000Y-76073000D03*
X177038000Y-91313000D03*
X106998000Y-91357000D03*
D16*
X99998000Y-117365000D03*
X103998000Y-117365000D03*
D34*
X100692440Y-121974860D03*
X101347100Y-121975000D03*
X101997100Y-121975000D03*
X102647100Y-121975000D03*
X103297100Y-121975000D03*
D35*
X99497100Y-122802460D03*
X104497100Y-122802460D03*
D36*
X98497100Y-125502460D03*
X105497100Y-125502460D03*
D25*
X103998000Y-112365000D03*
D26*
X101458000Y-112365000D03*
X98918000Y-112365000D03*
D37*
X88776000Y-123495000D03*
X88776000Y-120955000D03*
X88776000Y-118415000D03*
X88776000Y-115875000D03*
X88776000Y-113335000D03*
X88776000Y-110795000D03*
X88776000Y-108255000D03*
X88776000Y-105715000D03*
X88776000Y-103175000D03*
X88776000Y-100635000D03*
X88776000Y-98095000D03*
X88776000Y-95555000D03*
X88776000Y-93015000D03*
X88776000Y-90475000D03*
X88776000Y-87935000D03*
X88776000Y-85395000D03*
X88776000Y-82855000D03*
X88776000Y-80315000D03*
X88776000Y-77775000D03*
X88776000Y-75235000D03*
D38*
X133866300Y-113150100D03*
X137802800Y-107835700D03*
X171381200Y-87936300D03*
X169304600Y-85859700D03*
X148116000Y-105298300D03*
X127935800Y-118764200D03*
X135472000Y-86365000D03*
X139560200Y-83738300D03*
X141490700Y-83196300D03*
X136470300Y-89712000D03*
X148586500Y-98262500D03*
X102538000Y-106304600D03*
X147254400Y-102903200D03*
X111515600Y-82728200D03*
X172168200Y-80779400D03*
X170709100Y-92269500D03*
X174213900Y-98690300D03*
X168556600Y-91115000D03*
X128990100Y-89903500D03*
X141470900Y-116499300D03*
X141525000Y-108476700D03*
X155238100Y-110684900D03*
X159748000Y-87836200D03*
X158998000Y-114061900D03*
X174303100Y-104365000D03*
X174498000Y-95795100D03*
X171051500Y-94615000D03*
X148734700Y-88612100D03*
X123354600Y-95013000D03*
X157938600Y-88801600D03*
X148792300Y-110906400D03*
X150201500Y-113046700D03*
X140479300Y-77820800D03*
X149387700Y-109400400D03*
X153225500Y-109923400D03*
X157876800Y-85670400D03*
X157864800Y-84396700D03*
X160748000Y-85171700D03*
X161913600Y-87811700D03*
X163248000Y-85292500D03*
X115303200Y-95960900D03*
X142849900Y-102930000D03*
X146804100Y-101183000D03*
X152552400Y-101183000D03*
X153073300Y-113074200D03*
X107226500Y-86943400D03*
X146700300Y-108241500D03*
X148723600Y-95572700D03*
X165386100Y-85672900D03*
X145447400Y-92587000D03*
X138397300Y-92504900D03*
X99585600Y-87344100D03*
X101837800Y-90890200D03*
X138326600Y-93755600D03*
X145441900Y-104265600D03*
X142757800Y-104615000D03*
X119095600Y-119802100D03*
X145705200Y-105753600D03*
X124672100Y-120875000D03*
X141320800Y-105591400D03*
X129786600Y-115425100D03*
X132047900Y-114427700D03*
X135848300Y-115079800D03*
X139612500Y-110661100D03*
X147227100Y-77105200D03*
X152745100Y-110905400D03*
X92973800Y-120437100D03*
X146658400Y-103775000D03*
X95049100Y-118415000D03*
X120895500Y-119615700D03*
X140066600Y-82463900D03*
X148993500Y-100541900D03*
X156030300Y-100541900D03*
X160445500Y-110571300D03*
X148854800Y-81207800D03*
X159082800Y-108177000D03*
X97260800Y-113267700D03*
X146302400Y-101813300D03*
X128499200Y-115090100D03*
X131312200Y-116067100D03*
X153442500Y-115846800D03*
X165297500Y-100617400D03*
X146804100Y-100372800D03*
X132496500Y-111739800D03*
X133751600Y-111221100D03*
X145475600Y-101332500D03*
X103888100Y-103175000D03*
X145903500Y-97482100D03*
X145459200Y-102269200D03*
X158784600Y-102269200D03*
X161255600Y-97262000D03*
X147248900Y-96997600D03*
X146717300Y-96322200D03*
X95490200Y-105302100D03*
X102253400Y-108242700D03*
X105693200Y-113170600D03*
X117334900Y-122958400D03*
X170789600Y-96166100D03*
X96888300Y-98095000D03*
X146067900Y-95142800D03*
X146944100Y-94392500D03*
X94257500Y-96199700D03*
X114667000Y-92244100D03*
X148379300Y-92574600D03*
X161365500Y-89941500D03*
X163110100Y-89426800D03*
X115650800Y-86286300D03*
X166288400Y-88158600D03*
X98637300Y-95753200D03*
X120048700Y-95102900D03*
X135172100Y-88628000D03*
X160795400Y-89373700D03*
X164883000Y-87826800D03*
X146136500Y-94113800D03*
X146136900Y-93216200D03*
X91510000Y-76166800D03*
X148076900Y-80610700D03*
X153145800Y-85334900D03*
X91056600Y-77065600D03*
X133192200Y-74027900D03*
X154001700Y-87809400D03*
X95461200Y-82587800D03*
X119246300Y-83239000D03*
X158739000Y-88562600D03*
X144423200Y-85147700D03*
X148110000Y-89139000D03*
X121604100Y-85472600D03*
X122989400Y-84087300D03*
X138452800Y-111379600D03*
X143361600Y-112870300D03*
X146552100Y-118995300D03*
X145584600Y-106615000D03*
X150073400Y-85678100D03*
X149173400Y-87918200D03*
X156440900Y-91433100D03*
X158180400Y-91979000D03*
X143278600Y-89615000D03*
D39*
X99998000Y-101905000D02*
X98809100Y-101905000D01*
X104497100Y-122802500D02*
X103546800Y-122802500D01*
X103546800Y-122224700D02*
X103297100Y-121975000D01*
X103546800Y-122802500D02*
X103546800Y-122224700D01*
X96998000Y-79400300D02*
X96998000Y-81365000D01*
X98908000Y-77490300D02*
X96998000Y-79400300D01*
X135998000Y-112365000D02*
X135998000Y-113174100D01*
X135998000Y-108365000D02*
X135998000Y-107239700D01*
X170998000Y-79365000D02*
X170998000Y-80490300D01*
X154998000Y-115365000D02*
X154998000Y-116490300D01*
X99497100Y-119441200D02*
X99497100Y-122802500D01*
X99998000Y-118940300D02*
X99497100Y-119441200D01*
X99998000Y-117365000D02*
X99998000Y-118940300D01*
X98908000Y-76927600D02*
X98908000Y-77490300D01*
X98908000Y-76927600D02*
X98908000Y-76365000D01*
X98908000Y-76365000D02*
X98908000Y-75239700D01*
X113998000Y-80365000D02*
X113998000Y-79023700D01*
X155998000Y-83365000D02*
X155998000Y-84490300D01*
X159998000Y-83365000D02*
X159998000Y-83863100D01*
X159998000Y-83863100D02*
X159998000Y-84490300D01*
X155998000Y-83365000D02*
X157323300Y-83365000D01*
X171998000Y-83365000D02*
X171998000Y-83927600D01*
X169618000Y-103615000D02*
X168732700Y-103615000D01*
X144378000Y-99115000D02*
X145263300Y-99115000D01*
X99998000Y-101905000D02*
X102538000Y-101905000D01*
X102538000Y-101905000D02*
X103726900Y-101905000D01*
X160248000Y-85558900D02*
X160248000Y-86745000D01*
X159998000Y-85308900D02*
X160248000Y-85558900D01*
X159998000Y-84490300D02*
X159998000Y-85308900D01*
X128997000Y-113365000D02*
X130822200Y-113365000D01*
X160498000Y-119865000D02*
X160498000Y-118739700D01*
X166748000Y-86745000D02*
X166748000Y-85859700D01*
X159248000Y-111985000D02*
X159248000Y-111099700D01*
X120578100Y-108865000D02*
X119454000Y-108865000D01*
X150998000Y-115365000D02*
X152323300Y-115365000D01*
X154405600Y-115365000D02*
X154248000Y-115207400D01*
X154998000Y-115365000D02*
X154405600Y-115365000D01*
X154248000Y-115207400D02*
X154248000Y-111985000D01*
X88776000Y-100635000D02*
X97539100Y-100635000D01*
X97539100Y-100635000D02*
X98809100Y-101905000D01*
X97578100Y-92365000D02*
X97578100Y-93590700D01*
X117998000Y-90825000D02*
X116656700Y-90825000D01*
X108782200Y-106960300D02*
X103726900Y-101905000D01*
X117549300Y-106960300D02*
X108782200Y-106960300D01*
X119454000Y-108865000D02*
X117549300Y-106960300D01*
X119800000Y-117651000D02*
X118458700Y-117651000D01*
X115912300Y-125502500D02*
X105497100Y-125502500D01*
X118458700Y-122956100D02*
X115912300Y-125502500D01*
X119867600Y-124365000D02*
X118458700Y-122956100D01*
X119998000Y-124365000D02*
X119867600Y-124365000D01*
X128997000Y-116865000D02*
X128997000Y-115789100D01*
X128997000Y-113365000D02*
X128997000Y-114440900D01*
X132998000Y-120865000D02*
X134323300Y-120865000D01*
X128997000Y-116865000D02*
X128997000Y-117402900D01*
X128997000Y-117402900D02*
X128997000Y-117940900D01*
X131672700Y-120078600D02*
X131672700Y-120865000D01*
X128997000Y-117402900D02*
X131672700Y-120078600D01*
X132998000Y-120865000D02*
X131672700Y-120865000D01*
X136998000Y-86365000D02*
X135672700Y-86365000D01*
X135672700Y-86365000D02*
X135472000Y-86365000D01*
X135472000Y-86365000D02*
X132998000Y-86365000D01*
X138063600Y-115239700D02*
X138998000Y-115239700D01*
X135998000Y-113174100D02*
X138063600Y-115239700D01*
X138998000Y-116365000D02*
X138998000Y-115239700D01*
X139998000Y-104365000D02*
X139998000Y-105490300D01*
X137929200Y-107559100D02*
X139998000Y-105490300D01*
X137609700Y-107239700D02*
X137929200Y-107559100D01*
X135998000Y-107239700D02*
X137609700Y-107239700D01*
X128759100Y-117940900D02*
X127935800Y-118764200D01*
X128997000Y-117940900D02*
X128759100Y-117940900D01*
X137929200Y-107709300D02*
X137802800Y-107835700D01*
X137929200Y-107559200D02*
X137929200Y-107709300D01*
X137929200Y-107559100D02*
X137929200Y-107559200D01*
X138672700Y-95036200D02*
X138672700Y-95365000D01*
X136998000Y-93361500D02*
X138672700Y-95036200D01*
X136998000Y-91365000D02*
X136998000Y-93361500D01*
X139998000Y-95365000D02*
X138672700Y-95365000D01*
X144820700Y-95115000D02*
X145263300Y-95115000D01*
X144820700Y-95115000D02*
X144378000Y-95115000D01*
X141573300Y-95115000D02*
X141323300Y-95365000D01*
X144378000Y-95115000D02*
X141573300Y-95115000D01*
X139998000Y-95365000D02*
X141323300Y-95365000D01*
X145263300Y-99115000D02*
X145263300Y-96800700D01*
X145263300Y-96800700D02*
X145263300Y-95115000D01*
X118458700Y-117651000D02*
X118458700Y-122956100D01*
X143998000Y-83365000D02*
X145323300Y-83365000D01*
X123998000Y-90825000D02*
X125339300Y-90825000D01*
X136998000Y-91365000D02*
X136998000Y-90239700D01*
X136470300Y-89712000D02*
X136998000Y-90239700D01*
X135371800Y-89712000D02*
X136470300Y-89712000D01*
X134699400Y-89039600D02*
X135371800Y-89712000D01*
X127124700Y-89039600D02*
X134699400Y-89039600D01*
X125339300Y-90825000D02*
X127124700Y-89039600D01*
X142504000Y-83196300D02*
X142672700Y-83365000D01*
X141490700Y-83196300D02*
X142504000Y-83196300D01*
X143998000Y-83365000D02*
X142672700Y-83365000D01*
X110214000Y-75239700D02*
X113998000Y-79023700D01*
X98908000Y-75239700D02*
X110214000Y-75239700D01*
X154668400Y-84490400D02*
X155248000Y-85070000D01*
X146448700Y-84490400D02*
X154668400Y-84490400D01*
X145323300Y-83365000D02*
X146448700Y-84490400D01*
X155248000Y-86745000D02*
X155248000Y-85070000D01*
X155827700Y-84490300D02*
X155998000Y-84490300D01*
X155248000Y-85070000D02*
X155827700Y-84490300D01*
X140102200Y-83196300D02*
X139560200Y-83738300D01*
X141490700Y-83196300D02*
X140102200Y-83196300D01*
X158452800Y-110304500D02*
X159248000Y-111099700D01*
X158452800Y-105573300D02*
X158452800Y-110304500D01*
X158177800Y-105298300D02*
X148116000Y-105298300D01*
X158452800Y-105573300D02*
X158177800Y-105298300D01*
X133890300Y-113174100D02*
X133866300Y-113150100D01*
X135998000Y-113174100D02*
X133890300Y-113174100D01*
X131037100Y-113150100D02*
X130822200Y-113365000D01*
X133866300Y-113150100D02*
X131037100Y-113150100D01*
X154178000Y-123825000D02*
X152989100Y-123825000D01*
X151638000Y-123825000D02*
X152989100Y-123825000D01*
X159499900Y-83365000D02*
X157323300Y-83365000D01*
X159998000Y-83863100D02*
X159499900Y-83365000D01*
X151638000Y-123825000D02*
X151638000Y-122483700D01*
X134998600Y-121540300D02*
X150998000Y-121540300D01*
X134323300Y-120865000D02*
X134998600Y-121540300D01*
X150998000Y-121843700D02*
X151638000Y-122483700D01*
X150998000Y-121540300D02*
X150998000Y-121843700D01*
X150998000Y-120365000D02*
X150998000Y-120827900D01*
X150998000Y-120827900D02*
X150998000Y-121540300D01*
X150998000Y-120827900D02*
X155166800Y-116659100D01*
X157247400Y-118739700D02*
X155166800Y-116659100D01*
X160498000Y-118739700D02*
X157247400Y-118739700D01*
X155166800Y-116659100D02*
X154998000Y-116490300D01*
X97539100Y-94630300D02*
X97539100Y-100635000D01*
X98028400Y-94141000D02*
X97539100Y-94630300D01*
X97578100Y-93690700D02*
X98028400Y-94141000D01*
X97578100Y-93590700D02*
X97578100Y-93690700D01*
X116656700Y-91138800D02*
X116656700Y-90825000D01*
X113654500Y-94141000D02*
X116656700Y-91138800D01*
X98028400Y-94141000D02*
X113654500Y-94141000D01*
X129124500Y-114568400D02*
X128997000Y-114440900D01*
X129124500Y-115661600D02*
X129124500Y-114568400D01*
X128997000Y-115789100D02*
X129124500Y-115661600D01*
X152480900Y-115207400D02*
X152323300Y-115365000D01*
X154248000Y-115207400D02*
X152480900Y-115207400D01*
X168732700Y-103615000D02*
X168732700Y-105573300D01*
X168732700Y-105573300D02*
X158452800Y-105573300D01*
X165998000Y-115365000D02*
X168998000Y-115365000D01*
X168998000Y-114239700D02*
X171872700Y-111365000D01*
X168998000Y-115365000D02*
X168998000Y-114239700D01*
X172998000Y-111365000D02*
X171872700Y-111365000D01*
X170998000Y-81239700D02*
X171998000Y-82239700D01*
X170998000Y-80490300D02*
X170998000Y-81239700D01*
X166748000Y-85859700D02*
X169304600Y-85859700D01*
X171998000Y-83365000D02*
X171998000Y-82239700D01*
X170503300Y-98995600D02*
X171872700Y-100365000D01*
X170503300Y-98115000D02*
X170503300Y-98995600D01*
X169618000Y-98115000D02*
X170503300Y-98115000D01*
X148586500Y-98115000D02*
X148586500Y-98262500D01*
X169618000Y-98115000D02*
X148586500Y-98115000D01*
X146167700Y-96800700D02*
X145263300Y-96800700D01*
X147482000Y-98115000D02*
X146167700Y-96800700D01*
X148586500Y-98115000D02*
X147482000Y-98115000D01*
X168732700Y-105573300D02*
X168732700Y-109615000D01*
X170503300Y-109995600D02*
X171872700Y-111365000D01*
X170503300Y-109615000D02*
X170503300Y-109995600D01*
X169618000Y-109615000D02*
X170503300Y-109615000D01*
X169618000Y-109615000D02*
X168732700Y-109615000D01*
X169618000Y-91615000D02*
X170503300Y-91615000D01*
X172998000Y-93365000D02*
X172998000Y-92039700D01*
X172293300Y-91690300D02*
X172998000Y-91690300D01*
X172242600Y-91639600D02*
X172293300Y-91690300D01*
X170527900Y-91639600D02*
X172242600Y-91639600D01*
X170503300Y-91615000D02*
X170527900Y-91639600D01*
X172998000Y-92039700D02*
X172998000Y-91690300D01*
X172998000Y-91027600D02*
X172998000Y-91690300D01*
X172998000Y-91027600D02*
X172998000Y-90365000D01*
X172998000Y-90365000D02*
X172998000Y-87936300D01*
X173701400Y-87936300D02*
X172998000Y-87936300D01*
X174123300Y-87514400D02*
X173701400Y-87936300D01*
X174123300Y-85123000D02*
X174123300Y-87514400D01*
X172927900Y-83927600D02*
X174123300Y-85123000D01*
X171998000Y-83927600D02*
X172927900Y-83927600D01*
X172998000Y-87936300D02*
X171381200Y-87936300D01*
X172435400Y-100365000D02*
X171872700Y-100365000D01*
X172435400Y-100365000D02*
X172998000Y-100365000D01*
X176506900Y-97553900D02*
X176998000Y-97553900D01*
X174123300Y-99937500D02*
X176506900Y-97553900D01*
X174123300Y-100365000D02*
X174123300Y-99937500D01*
X172998000Y-100365000D02*
X174123300Y-100365000D01*
X176998000Y-96959400D02*
X176998000Y-97553900D01*
X176998000Y-96959400D02*
X176998000Y-96365000D01*
X175934400Y-95176100D02*
X174123300Y-93365000D01*
X176998000Y-95176100D02*
X175934400Y-95176100D01*
X176998000Y-96365000D02*
X176998000Y-95176100D01*
X172998000Y-93365000D02*
X174123300Y-93365000D01*
X126498000Y-85865000D02*
X125322700Y-85865000D01*
X125322700Y-87381600D02*
X125322700Y-85865000D01*
X119339300Y-93365000D02*
X125322700Y-87381600D01*
X117998000Y-93365000D02*
X119339300Y-93365000D01*
X119998000Y-99365000D02*
X121173300Y-99365000D01*
X123998000Y-93365000D02*
X123998000Y-94706300D01*
X123998000Y-96540300D02*
X123998000Y-94706300D01*
X121173300Y-99365000D02*
X123998000Y-96540300D01*
X124999000Y-113365000D02*
X123173800Y-113365000D01*
X122887800Y-113079000D02*
X119800000Y-113079000D01*
X123173800Y-113365000D02*
X122887800Y-113079000D01*
X102538000Y-104445000D02*
X102538000Y-106304600D01*
X118458700Y-116045000D02*
X118458700Y-113079000D01*
X119231300Y-116817600D02*
X118458700Y-116045000D01*
X122182900Y-116817600D02*
X119231300Y-116817600D01*
X130531700Y-125166400D02*
X122182900Y-116817600D01*
X147087800Y-125166400D02*
X130531700Y-125166400D01*
X147909100Y-124345100D02*
X147087800Y-125166400D01*
X147909100Y-123825000D02*
X147909100Y-124345100D01*
X149098000Y-123825000D02*
X147909100Y-123825000D01*
X119800000Y-113079000D02*
X118458700Y-113079000D01*
X107105100Y-113079000D02*
X118458700Y-113079000D01*
X105049700Y-111023600D02*
X107105100Y-113079000D01*
X102948000Y-111023600D02*
X105049700Y-111023600D01*
X102646900Y-111324700D02*
X102948000Y-111023600D01*
X102646900Y-112365000D02*
X102646900Y-111324700D01*
X101458000Y-112365000D02*
X102646900Y-112365000D01*
X104998000Y-81365000D02*
X100998000Y-81365000D01*
X108088000Y-76365000D02*
X108088000Y-77490300D01*
X104998000Y-81365000D02*
X106323300Y-81365000D01*
X144378000Y-103615000D02*
X145263300Y-103615000D01*
X106323400Y-81365000D02*
X106323300Y-81365000D01*
X106323400Y-79254900D02*
X106323400Y-81365000D01*
X108088000Y-77490300D02*
X106323400Y-79254900D01*
X111303500Y-82940300D02*
X111515600Y-82728200D01*
X107863200Y-82940300D02*
X111303500Y-82940300D01*
X106323400Y-81400500D02*
X107863200Y-82940300D01*
X106323400Y-81365000D02*
X106323400Y-81400500D01*
X145975100Y-102903200D02*
X147254400Y-102903200D01*
X145263300Y-103615000D02*
X145975100Y-102903200D01*
X135998000Y-98365000D02*
X134672700Y-98365000D01*
X135998000Y-95365000D02*
X135998000Y-96490300D01*
X134398000Y-98090300D02*
X135998000Y-96490300D01*
X133672700Y-97365000D02*
X134398000Y-98090300D01*
X130998000Y-97365000D02*
X133672700Y-97365000D01*
X134398000Y-98090300D02*
X134672700Y-98365000D01*
X135998000Y-101365000D02*
X134672700Y-101365000D01*
X135998000Y-104365000D02*
X135998000Y-103239700D01*
X134398000Y-101639700D02*
X135998000Y-103239700D01*
X133792700Y-102245000D02*
X134398000Y-101639700D01*
X130998000Y-102245000D02*
X133792700Y-102245000D01*
X134398000Y-101639700D02*
X134672700Y-101365000D01*
X172457300Y-80490300D02*
X172168200Y-80779400D01*
X174998000Y-80490300D02*
X172457300Y-80490300D01*
X169618000Y-92115000D02*
X170503300Y-92115000D01*
X170657800Y-92269500D02*
X170709100Y-92269500D01*
X170503300Y-92115000D02*
X170657800Y-92269500D01*
X174998000Y-79365000D02*
X174998000Y-80490300D01*
X164498000Y-119865000D02*
X164498000Y-118739700D01*
X164191700Y-118433400D02*
X164498000Y-118739700D01*
X164191700Y-112926600D02*
X164191700Y-118433400D01*
X164248000Y-112870300D02*
X164191700Y-112926600D01*
X164248000Y-111985000D02*
X164248000Y-112870300D01*
X124574900Y-115365000D02*
X124999000Y-115789100D01*
X119800000Y-115365000D02*
X124574900Y-115365000D01*
X121618000Y-80365000D02*
X120429100Y-80365000D01*
X108998000Y-81365000D02*
X110323300Y-81365000D01*
X142998000Y-116365000D02*
X144323300Y-116365000D01*
X146998000Y-115365000D02*
X146998000Y-114239700D01*
X172998000Y-97365000D02*
X171872700Y-97365000D01*
X123806900Y-79365000D02*
X122806900Y-80365000D01*
X130322700Y-79365000D02*
X123806900Y-79365000D01*
X121618000Y-80365000D02*
X122806900Y-80365000D01*
X169618000Y-91115000D02*
X170503300Y-91115000D01*
X172998000Y-104365000D02*
X172435400Y-104365000D01*
X172435400Y-104365000D02*
X171872700Y-104365000D01*
X141323300Y-112365000D02*
X144823300Y-115865000D01*
X144323300Y-116365000D02*
X144823300Y-115865000D01*
X145323300Y-115365000D02*
X146998000Y-115365000D01*
X144823300Y-115865000D02*
X145323300Y-115365000D01*
X143492700Y-107115000D02*
X143492700Y-106115000D01*
X144378000Y-106115000D02*
X143492700Y-106115000D01*
X130910400Y-79365000D02*
X130322700Y-79365000D01*
X147998000Y-83365000D02*
X151998000Y-83365000D01*
X170622700Y-103115000D02*
X169618000Y-103115000D01*
X171872700Y-104365000D02*
X170622700Y-103115000D01*
X171622700Y-97615000D02*
X169618000Y-97615000D01*
X171872700Y-97365000D02*
X171622700Y-97615000D01*
X163998000Y-83365000D02*
X163998000Y-84490300D01*
X140998000Y-86365000D02*
X142323300Y-86365000D01*
X148248000Y-86302300D02*
X148248000Y-85859700D01*
X159748000Y-86745000D02*
X159748000Y-87630300D01*
X154748000Y-86745000D02*
X154748000Y-87630300D01*
X167998000Y-83365000D02*
X167998000Y-83927600D01*
X167998000Y-83927600D02*
X167998000Y-84490300D01*
X150498000Y-79365000D02*
X151823300Y-79365000D01*
X148248000Y-112989700D02*
X148248000Y-111985000D01*
X146998000Y-114239700D02*
X148248000Y-112989700D01*
X172998000Y-97365000D02*
X172998000Y-98690300D01*
X174213900Y-98690300D02*
X172998000Y-98690300D01*
X170503300Y-87734400D02*
X171872700Y-86365000D01*
X170503300Y-91115000D02*
X170503300Y-87734400D01*
X169618000Y-91115000D02*
X168732700Y-91115000D01*
X168732700Y-91115000D02*
X168556600Y-91115000D01*
X154748000Y-87630300D02*
X159748000Y-87630300D01*
X161998000Y-115365000D02*
X161998000Y-116490300D01*
X115498000Y-103365000D02*
X116673300Y-103365000D01*
X119347900Y-100690400D02*
X116673300Y-103365000D01*
X121497300Y-100690400D02*
X119347900Y-100690400D01*
X122822700Y-99365000D02*
X121497300Y-100690400D01*
X130323300Y-120947800D02*
X130323300Y-120865000D01*
X131859100Y-122483600D02*
X130323300Y-120947800D01*
X139988000Y-122483600D02*
X131859100Y-122483600D01*
X140289100Y-122784700D02*
X139988000Y-122483600D01*
X140289100Y-123825000D02*
X140289100Y-122784700D01*
X141478000Y-123825000D02*
X140289100Y-123825000D01*
X128998000Y-120865000D02*
X130323300Y-120865000D01*
X124999000Y-116865000D02*
X124999000Y-116327000D01*
X124999000Y-116327000D02*
X124999000Y-115789100D01*
X128998000Y-120865000D02*
X128998000Y-119289700D01*
X139998000Y-112365000D02*
X140408900Y-112365000D01*
X140408900Y-112365000D02*
X141323300Y-112365000D01*
X132384900Y-108926600D02*
X131823300Y-108365000D01*
X133002400Y-108926600D02*
X132384900Y-108926600D01*
X134468700Y-110392900D02*
X133002400Y-108926600D01*
X138436800Y-110392900D02*
X134468700Y-110392900D01*
X140408900Y-112365000D02*
X138436800Y-110392900D01*
X130498000Y-108365000D02*
X131823300Y-108365000D01*
X132998000Y-90365000D02*
X132998000Y-90707500D01*
X123998000Y-99365000D02*
X122822700Y-99365000D01*
X142998000Y-116365000D02*
X141672700Y-116365000D01*
X141538400Y-116499300D02*
X141672700Y-116365000D01*
X141470900Y-116499300D02*
X141538400Y-116499300D01*
X128294700Y-119289700D02*
X128998000Y-119289700D01*
X128194900Y-119389500D02*
X128294700Y-119289700D01*
X127676800Y-119389500D02*
X128194900Y-119389500D01*
X124999000Y-116711700D02*
X127676800Y-119389500D01*
X124999000Y-116327000D02*
X124999000Y-116711700D01*
X139998000Y-108365000D02*
X141323300Y-108365000D01*
X123998000Y-99365000D02*
X125173300Y-99365000D01*
X129567500Y-90707500D02*
X132998000Y-90707500D01*
X141413300Y-108365000D02*
X141525000Y-108476700D01*
X141323300Y-108365000D02*
X141413300Y-108365000D01*
X110664700Y-81706400D02*
X110323300Y-81365000D01*
X119607800Y-81706400D02*
X110664700Y-81706400D01*
X120429100Y-80885100D02*
X119607800Y-81706400D01*
X120429100Y-80365000D02*
X120429100Y-80885100D01*
X129567500Y-90707500D02*
X129567500Y-94236200D01*
X129567500Y-94970800D02*
X125173300Y-99365000D01*
X129567500Y-94236200D02*
X129567500Y-94970800D01*
X144378000Y-99615000D02*
X143492700Y-99615000D01*
X144378000Y-95615000D02*
X143492700Y-95615000D01*
X143492700Y-107615000D02*
X143492700Y-107115000D01*
X142073300Y-107615000D02*
X143492700Y-107615000D01*
X141323300Y-108365000D02*
X142073300Y-107615000D01*
X143492700Y-107615000D02*
X144378000Y-107615000D01*
X142125200Y-96982500D02*
X143492700Y-95615000D01*
X143492700Y-98350100D02*
X142125200Y-96982500D01*
X143492700Y-99615000D02*
X143492700Y-98350100D01*
X137152700Y-94236200D02*
X129567500Y-94236200D01*
X137323400Y-94406900D02*
X137152700Y-94236200D01*
X137323400Y-94976700D02*
X137323400Y-94406900D01*
X138837100Y-96490400D02*
X137323400Y-94976700D01*
X141633000Y-96490400D02*
X138837100Y-96490400D01*
X142125200Y-96982500D02*
X141633000Y-96490400D01*
X144425500Y-86365000D02*
X142323300Y-86365000D01*
X145381100Y-85409400D02*
X144425500Y-86365000D01*
X147797700Y-85409400D02*
X145381100Y-85409400D01*
X148248000Y-85859700D02*
X147797700Y-85409400D01*
X129567500Y-90480900D02*
X129567500Y-90707500D01*
X128990100Y-89903500D02*
X129567500Y-90480900D01*
X151998000Y-83365000D02*
X151998000Y-82239700D01*
X151998000Y-79365000D02*
X151998000Y-82239700D01*
X155353700Y-76009300D02*
X151998000Y-79365000D01*
X155353700Y-74525700D02*
X155353700Y-76009300D01*
X155655700Y-74223700D02*
X155353700Y-74525700D01*
X167374600Y-74223700D02*
X155655700Y-74223700D01*
X168114500Y-74963600D02*
X167374600Y-74223700D01*
X168114500Y-83811100D02*
X168114500Y-74963600D01*
X167998000Y-83927600D02*
X168114500Y-83811100D01*
X151998000Y-79365000D02*
X151823300Y-79365000D01*
X130910400Y-79365000D02*
X131498000Y-79365000D01*
X131498000Y-79365000D02*
X132673300Y-79365000D01*
X139998000Y-80365000D02*
X139998000Y-81540300D01*
X147998000Y-83365000D02*
X147998000Y-82239700D01*
X144378000Y-107115000D02*
X143935400Y-107115000D01*
X143935400Y-107115000D02*
X143492700Y-107115000D01*
X155238100Y-110684900D02*
X154748000Y-110684900D01*
X154748000Y-110485300D02*
X154748000Y-110684900D01*
X151361400Y-107098700D02*
X154748000Y-110485300D01*
X145985400Y-107098700D02*
X151361400Y-107098700D01*
X145843700Y-107240400D02*
X145985400Y-107098700D01*
X144008500Y-107240400D02*
X145843700Y-107240400D01*
X143935400Y-107167300D02*
X144008500Y-107240400D01*
X143935400Y-107115000D02*
X143935400Y-107167300D01*
X154748000Y-110684900D02*
X154748000Y-111985000D01*
X161998000Y-115365000D02*
X161998000Y-114802300D01*
X160886000Y-114802300D02*
X160323300Y-115365000D01*
X161998000Y-114802300D02*
X160886000Y-114802300D01*
X158998000Y-115365000D02*
X160323300Y-115365000D01*
X159748000Y-87836200D02*
X159748000Y-87630300D01*
X148248000Y-86302300D02*
X148248000Y-86745000D01*
X148248000Y-87969500D02*
X148248000Y-86745000D01*
X147481600Y-88735900D02*
X148248000Y-87969500D01*
X147481600Y-89395100D02*
X147481600Y-88735900D01*
X147860700Y-89774200D02*
X147481600Y-89395100D01*
X158411800Y-89774200D02*
X147860700Y-89774200D01*
X159748000Y-88438000D02*
X158411800Y-89774200D01*
X159748000Y-87836200D02*
X159748000Y-88438000D01*
X139998000Y-81595600D02*
X139998000Y-81540300D01*
X140655300Y-81595600D02*
X139998000Y-81595600D01*
X141299400Y-82239700D02*
X140655300Y-81595600D01*
X147998000Y-82239700D02*
X141299400Y-82239700D01*
X132673300Y-80026100D02*
X132673300Y-79365000D01*
X134643300Y-81996100D02*
X132673300Y-80026100D01*
X139597500Y-81996100D02*
X134643300Y-81996100D01*
X139998000Y-81595600D02*
X139597500Y-81996100D01*
X158998000Y-114061900D02*
X158998000Y-115365000D01*
X159748000Y-113311900D02*
X159748000Y-111985000D01*
X158998000Y-114061900D02*
X159748000Y-113311900D01*
X162723200Y-117215500D02*
X161998000Y-116490300D01*
X162723200Y-120360700D02*
X162723200Y-117215500D01*
X163352900Y-120990400D02*
X162723200Y-120360700D01*
X165692600Y-120990400D02*
X163352900Y-120990400D01*
X165853600Y-120829400D02*
X165692600Y-120990400D01*
X165853600Y-117086800D02*
X165853600Y-120829400D01*
X172401500Y-117086800D02*
X165853600Y-117086800D01*
X172998000Y-116490300D02*
X172401500Y-117086800D01*
X164748000Y-113120400D02*
X164748000Y-111985000D01*
X164667000Y-113201400D02*
X164748000Y-113120400D01*
X164667000Y-116319000D02*
X164667000Y-113201400D01*
X165434800Y-117086800D02*
X164667000Y-116319000D01*
X165853600Y-117086800D02*
X165434800Y-117086800D01*
X172998000Y-86365000D02*
X172435400Y-86365000D01*
X172435400Y-86365000D02*
X171872700Y-86365000D01*
X170560700Y-84490300D02*
X167998000Y-84490300D01*
X172435400Y-86365000D02*
X170560700Y-84490300D01*
X166248000Y-84490300D02*
X166248000Y-86745000D01*
X163998000Y-84490300D02*
X166248000Y-84490300D01*
X166248000Y-84490300D02*
X167998000Y-84490300D01*
X172998000Y-115927600D02*
X172998000Y-116490300D01*
X172998000Y-104365000D02*
X174123300Y-104365000D01*
X174123300Y-104365000D02*
X174303100Y-104365000D01*
X169618000Y-109115000D02*
X170503300Y-109115000D01*
X172998000Y-104927600D02*
X172998000Y-107365000D01*
X172435400Y-104365000D02*
X172998000Y-104927600D01*
X172998000Y-115927600D02*
X172998000Y-115365000D01*
X176822700Y-110415000D02*
X176822700Y-109365000D01*
X172998000Y-114239700D02*
X176822700Y-110415000D01*
X172998000Y-115365000D02*
X172998000Y-114239700D01*
X177998000Y-109365000D02*
X176822700Y-109365000D01*
X176322800Y-108865100D02*
X176822700Y-109365000D01*
X172998000Y-108865100D02*
X176322800Y-108865100D01*
X172998000Y-107365000D02*
X172998000Y-108865100D01*
X170753200Y-108865100D02*
X170503300Y-109115000D01*
X172998000Y-108865100D02*
X170753200Y-108865100D01*
X142573300Y-91115000D02*
X144378000Y-91115000D01*
X142323300Y-91365000D02*
X142573300Y-91115000D01*
X140998000Y-91365000D02*
X142323300Y-91365000D01*
X125042000Y-108365000D02*
X124542000Y-108865000D01*
X126498000Y-108365000D02*
X125042000Y-108365000D01*
X123417900Y-108865000D02*
X124542000Y-108865000D01*
X97498000Y-87865000D02*
X97498000Y-89040300D01*
X100417900Y-92365000D02*
X100417900Y-91139300D01*
X98318900Y-89040300D02*
X97498000Y-89040300D01*
X100417900Y-91139300D02*
X98318900Y-89040300D01*
X151902400Y-78189700D02*
X146498000Y-78189700D01*
X154532500Y-75559600D02*
X151902400Y-78189700D01*
X154532500Y-74688400D02*
X154532500Y-75559600D01*
X155495000Y-73725900D02*
X154532500Y-74688400D01*
X171990100Y-73725900D02*
X155495000Y-73725900D01*
X173309100Y-75044900D02*
X171990100Y-73725900D01*
X173309100Y-75565000D02*
X173309100Y-75044900D01*
X174498000Y-75565000D02*
X173309100Y-75565000D01*
X146498000Y-79365000D02*
X146498000Y-78189700D01*
X169618000Y-94115000D02*
X170503300Y-94115000D01*
X173135000Y-95795100D02*
X174498000Y-95795100D01*
X171292500Y-93952600D02*
X173135000Y-95795100D01*
X170665700Y-93952600D02*
X171292500Y-93952600D01*
X170503300Y-94115000D02*
X170665700Y-93952600D01*
X176998000Y-103039700D02*
X176998000Y-101445000D01*
X177998000Y-104039700D02*
X176998000Y-103039700D01*
X177998000Y-105365000D02*
X177998000Y-104039700D01*
X169618000Y-94615000D02*
X171051500Y-94615000D01*
X132334000Y-75565000D02*
X133522900Y-75565000D01*
X133522900Y-76714600D02*
X133522900Y-75565000D01*
X135998000Y-79189700D02*
X133522900Y-76714600D01*
X135998000Y-80365000D02*
X135998000Y-79189700D01*
X149382600Y-88612100D02*
X148734700Y-88612100D01*
X150248000Y-87746700D02*
X149382600Y-88612100D01*
X150248000Y-86745000D02*
X150248000Y-87746700D01*
X115498000Y-99365000D02*
X116673300Y-99365000D01*
X121025300Y-95013000D02*
X123354600Y-95013000D01*
X116673300Y-99365000D02*
X121025300Y-95013000D01*
X152248000Y-88034600D02*
X152248000Y-86745000D01*
X153190100Y-88976700D02*
X152248000Y-88034600D01*
X157763500Y-88976700D02*
X153190100Y-88976700D01*
X157938600Y-88801600D02*
X157763500Y-88976700D01*
X149248000Y-111985000D02*
X149248000Y-111099700D01*
X148985600Y-111099700D02*
X148792300Y-110906400D01*
X149248000Y-111099700D02*
X148985600Y-111099700D01*
X149748000Y-111985000D02*
X149748000Y-112870300D01*
X149924400Y-113046700D02*
X150201500Y-113046700D01*
X149748000Y-112870300D02*
X149924400Y-113046700D01*
X142109400Y-77820800D02*
X140479300Y-77820800D01*
X143845100Y-76085100D02*
X142109400Y-77820800D01*
X143845100Y-75565000D02*
X143845100Y-76085100D01*
X145034000Y-75565000D02*
X143845100Y-75565000D01*
X150248000Y-110260700D02*
X150248000Y-111985000D01*
X149387700Y-109400400D02*
X150248000Y-110260700D01*
X150918300Y-107616200D02*
X153225500Y-109923400D01*
X146441300Y-107616200D02*
X150918300Y-107616200D01*
X145942600Y-108114900D02*
X146441300Y-107616200D01*
X145942600Y-108115000D02*
X145942600Y-108114900D01*
X144378000Y-108115000D02*
X145942600Y-108115000D01*
X158748000Y-86745000D02*
X158748000Y-85859700D01*
X158066100Y-85859700D02*
X157876800Y-85670400D01*
X158748000Y-85859700D02*
X158066100Y-85859700D01*
X159248000Y-85688700D02*
X159248000Y-86745000D01*
X157956000Y-84396700D02*
X159248000Y-85688700D01*
X157864800Y-84396700D02*
X157956000Y-84396700D01*
X160748000Y-85171700D02*
X160748000Y-86745000D01*
X159258000Y-75565000D02*
X160446900Y-75565000D01*
X160446900Y-76753900D02*
X160446900Y-75565000D01*
X161393800Y-77700800D02*
X160446900Y-76753900D01*
X161393800Y-85588200D02*
X161393800Y-77700800D01*
X161248000Y-85734000D02*
X161393800Y-85588200D01*
X161248000Y-86745000D02*
X161248000Y-85734000D01*
X161748000Y-87646100D02*
X161748000Y-86745000D01*
X161913600Y-87811700D02*
X161748000Y-87646100D01*
X164338000Y-75565000D02*
X163149100Y-75565000D01*
X162248000Y-85813700D02*
X162248000Y-86745000D01*
X162079300Y-85645000D02*
X162248000Y-85813700D01*
X162079300Y-77823700D02*
X162079300Y-85645000D01*
X163149100Y-76753900D02*
X162079300Y-77823700D01*
X163149100Y-75565000D02*
X163149100Y-76753900D01*
X166878000Y-75565000D02*
X165689100Y-75565000D01*
X162748000Y-85676800D02*
X162748000Y-86745000D01*
X162584200Y-85513000D02*
X162748000Y-85676800D01*
X162584200Y-80385800D02*
X162584200Y-85513000D01*
X165689100Y-77280900D02*
X162584200Y-80385800D01*
X165689100Y-75565000D02*
X165689100Y-77280900D01*
X163248000Y-85292500D02*
X163248000Y-86745000D01*
X119998000Y-103365000D02*
X118822700Y-103365000D01*
X123998000Y-103365000D02*
X119998000Y-103365000D01*
X152869400Y-112870300D02*
X153073300Y-113074200D01*
X152748000Y-112870300D02*
X152869400Y-112870300D01*
X142849900Y-101877700D02*
X142849900Y-102930000D01*
X141142900Y-100170700D02*
X142849900Y-101877700D01*
X128367600Y-100170700D02*
X141142900Y-100170700D01*
X125173300Y-103365000D02*
X128367600Y-100170700D01*
X152748000Y-111985000D02*
X152748000Y-112870300D01*
X123998000Y-103365000D02*
X125173300Y-103365000D01*
X117481900Y-104705800D02*
X118822700Y-103365000D01*
X114501300Y-104705800D02*
X117481900Y-104705800D01*
X114274900Y-104479400D02*
X114501300Y-104705800D01*
X114274900Y-96989200D02*
X114274900Y-104479400D01*
X115303200Y-95960900D02*
X114274900Y-96989200D01*
X152552400Y-101183000D02*
X146804100Y-101183000D01*
X106304900Y-87865000D02*
X107226500Y-86943400D01*
X101498000Y-87865000D02*
X106304900Y-87865000D01*
X149750100Y-108241500D02*
X146700300Y-108241500D01*
X151748000Y-110239400D02*
X149750100Y-108241500D01*
X151748000Y-111985000D02*
X151748000Y-110239400D01*
X164973500Y-95572700D02*
X148723600Y-95572700D01*
X167931200Y-92615000D02*
X164973500Y-95572700D01*
X169618000Y-92615000D02*
X167931200Y-92615000D01*
X165748000Y-86745000D02*
X165748000Y-85859700D01*
X165572900Y-85859700D02*
X165386100Y-85672900D01*
X165748000Y-85859700D02*
X165572900Y-85859700D01*
X144378000Y-92115000D02*
X145263300Y-92115000D01*
X145263300Y-92402900D02*
X145447400Y-92587000D01*
X145263300Y-92115000D02*
X145263300Y-92402900D01*
X138507400Y-92615000D02*
X138397300Y-92504900D01*
X144378000Y-92615000D02*
X138507400Y-92615000D01*
X138967200Y-93115000D02*
X138326600Y-93755600D01*
X144378000Y-93115000D02*
X138967200Y-93115000D01*
X99585600Y-88638000D02*
X101837800Y-90890200D01*
X99585600Y-87344100D02*
X99585600Y-88638000D01*
X145291300Y-104115000D02*
X145441900Y-104265600D01*
X144378000Y-104115000D02*
X145291300Y-104115000D01*
X142757800Y-104615000D02*
X144378000Y-104615000D01*
X145263300Y-105311700D02*
X145705200Y-105753600D01*
X145263300Y-105115000D02*
X145263300Y-105311700D01*
X144378000Y-105115000D02*
X145263300Y-105115000D01*
X120168500Y-120875000D02*
X124672100Y-120875000D01*
X119095600Y-119802100D02*
X120168500Y-120875000D01*
X141344400Y-105615000D02*
X141320800Y-105591400D01*
X144378000Y-105615000D02*
X141344400Y-105615000D01*
X131910300Y-115425100D02*
X129786600Y-115425100D01*
X133975500Y-117490300D02*
X131910300Y-115425100D01*
X147149600Y-117490300D02*
X133975500Y-117490300D01*
X148733700Y-115906200D02*
X147149600Y-117490300D01*
X148733700Y-115297800D02*
X148733700Y-115906200D01*
X150359500Y-113672000D02*
X148733700Y-115297800D01*
X150460600Y-113672000D02*
X150359500Y-113672000D01*
X150826800Y-113305800D02*
X150460600Y-113672000D01*
X150826800Y-112787600D02*
X150826800Y-113305800D01*
X150748000Y-112708800D02*
X150826800Y-112787600D01*
X150748000Y-111985000D02*
X150748000Y-112708800D01*
X145978600Y-110661100D02*
X139612500Y-110661100D01*
X147906400Y-108733300D02*
X145978600Y-110661100D01*
X149605000Y-108733300D02*
X147906400Y-108733300D01*
X151248000Y-110376300D02*
X149605000Y-108733300D01*
X151248000Y-111985000D02*
X151248000Y-110376300D01*
X135196200Y-114427700D02*
X135848300Y-115079800D01*
X132047900Y-114427700D02*
X135196200Y-114427700D01*
X88776000Y-75235000D02*
X90601300Y-75235000D01*
X152550800Y-111099700D02*
X152745100Y-110905400D01*
X152248000Y-111099700D02*
X152550800Y-111099700D01*
X152248000Y-111985000D02*
X152248000Y-111099700D01*
X93032700Y-72803600D02*
X90601300Y-75235000D01*
X144166200Y-72803600D02*
X93032700Y-72803600D01*
X146272800Y-74910200D02*
X144166200Y-72803600D01*
X146272800Y-76150900D02*
X146272800Y-74910200D01*
X147227100Y-77105200D02*
X146272800Y-76150900D01*
X156748000Y-111985000D02*
X156748000Y-111099700D01*
X92455900Y-120955000D02*
X92973800Y-120437100D01*
X88776000Y-120955000D02*
X92455900Y-120955000D01*
X146658400Y-104750600D02*
X146658400Y-103775000D01*
X148489000Y-106581200D02*
X146658400Y-104750600D01*
X152229500Y-106581200D02*
X148489000Y-106581200D01*
X156748000Y-111099700D02*
X152229500Y-106581200D01*
X88776000Y-118415000D02*
X95049100Y-118415000D01*
X157248000Y-115947100D02*
X157248000Y-111985000D01*
X159404300Y-118103400D02*
X157248000Y-115947100D01*
X161081600Y-118103400D02*
X159404300Y-118103400D01*
X161823400Y-118845200D02*
X161081600Y-118103400D01*
X161823400Y-120806000D02*
X161823400Y-118845200D01*
X161113400Y-121516000D02*
X161823400Y-120806000D01*
X157133000Y-121516000D02*
X161113400Y-121516000D01*
X155448000Y-123201000D02*
X157133000Y-121516000D01*
X155448000Y-124397800D02*
X155448000Y-123201000D01*
X154225400Y-125620400D02*
X155448000Y-124397800D01*
X130314300Y-125620400D02*
X154225400Y-125620400D01*
X124309600Y-119615700D02*
X130314300Y-125620400D01*
X120895500Y-119615700D02*
X124309600Y-119615700D01*
X162719600Y-110571300D02*
X163248000Y-111099700D01*
X160445500Y-110571300D02*
X162719600Y-110571300D01*
X163248000Y-111985000D02*
X163248000Y-111099700D01*
X133962200Y-82463900D02*
X140066600Y-82463900D01*
X133459800Y-81961500D02*
X133962200Y-82463900D01*
X129556100Y-81961500D02*
X133459800Y-81961500D01*
X128116900Y-80522300D02*
X129556100Y-81961500D01*
X124153900Y-80522300D02*
X128116900Y-80522300D01*
X120802500Y-83873700D02*
X124153900Y-80522300D01*
X94944800Y-83873700D02*
X120802500Y-83873700D01*
X91386100Y-80315000D02*
X94944800Y-83873700D01*
X88776000Y-80315000D02*
X91386100Y-80315000D01*
X148993500Y-100541900D02*
X156030300Y-100541900D01*
X163748000Y-111985000D02*
X163748000Y-111099700D01*
X160974500Y-108177000D02*
X159082800Y-108177000D01*
X163748000Y-110950500D02*
X160974500Y-108177000D01*
X163748000Y-111099700D02*
X163748000Y-110950500D01*
X148826600Y-81236000D02*
X148854800Y-81207800D01*
X143480700Y-81236000D02*
X148826600Y-81236000D01*
X141419000Y-79174300D02*
X143480700Y-81236000D01*
X138819200Y-79174300D02*
X141419000Y-79174300D01*
X137573600Y-80419900D02*
X138819200Y-79174300D01*
X137573600Y-81157300D02*
X137573600Y-80419900D01*
X137190600Y-81540300D02*
X137573600Y-81157300D01*
X134861400Y-81540300D02*
X137190600Y-81540300D01*
X134105900Y-80784800D02*
X134861400Y-81540300D01*
X134105900Y-79650300D02*
X134105900Y-80784800D01*
X132465900Y-78010300D02*
X134105900Y-79650300D01*
X129207600Y-78010300D02*
X132465900Y-78010300D01*
X128774300Y-78443600D02*
X129207600Y-78010300D01*
X114698300Y-78443600D02*
X128774300Y-78443600D01*
X110990600Y-74735900D02*
X114698300Y-78443600D01*
X95305900Y-74735900D02*
X110990600Y-74735900D01*
X92266800Y-77775000D02*
X95305900Y-74735900D01*
X88776000Y-77775000D02*
X92266800Y-77775000D01*
X94653500Y-115875000D02*
X97260800Y-113267700D01*
X88776000Y-115875000D02*
X94653500Y-115875000D01*
X153635500Y-101615000D02*
X169618000Y-101615000D01*
X153437200Y-101813300D02*
X153635500Y-101615000D01*
X146302400Y-101813300D02*
X153437200Y-101813300D01*
X171460200Y-101115000D02*
X169618000Y-101115000D01*
X173009800Y-102664600D02*
X171460200Y-101115000D01*
X173584300Y-102664600D02*
X173009800Y-102664600D01*
X175281600Y-104361900D02*
X173584300Y-102664600D01*
X175281600Y-105026200D02*
X175281600Y-104361900D01*
X176995000Y-106739600D02*
X175281600Y-105026200D01*
X177740600Y-106739600D02*
X176995000Y-106739600D01*
X179173400Y-108172400D02*
X177740600Y-106739600D01*
X179173400Y-111477500D02*
X179173400Y-108172400D01*
X168529400Y-122121500D02*
X179173400Y-111477500D01*
X161144800Y-122121500D02*
X168529400Y-122121500D01*
X156556800Y-126709500D02*
X161144800Y-122121500D01*
X102095800Y-126709500D02*
X156556800Y-126709500D01*
X98508000Y-123121700D02*
X102095800Y-126709500D01*
X98508000Y-115386400D02*
X98508000Y-123121700D01*
X100188000Y-113706400D02*
X98508000Y-115386400D01*
X100188000Y-111745400D02*
X100188000Y-113706400D01*
X99450300Y-111007700D02*
X100188000Y-111745400D01*
X94508100Y-111007700D02*
X99450300Y-111007700D01*
X92180800Y-113335000D02*
X94508100Y-111007700D01*
X88776000Y-113335000D02*
X92180800Y-113335000D01*
X127986200Y-115090100D02*
X128499200Y-115090100D01*
X126824300Y-113928200D02*
X127986200Y-115090100D01*
X126824300Y-112443400D02*
X126824300Y-113928200D01*
X126571100Y-112190200D02*
X126824300Y-112443400D01*
X106853200Y-112190200D02*
X126571100Y-112190200D01*
X105220300Y-110557300D02*
X106853200Y-112190200D01*
X90839000Y-110557300D02*
X105220300Y-110557300D01*
X90601300Y-110795000D02*
X90839000Y-110557300D01*
X168730300Y-100617400D02*
X168732700Y-100615000D01*
X165297500Y-100617400D02*
X168730300Y-100617400D01*
X169618000Y-100615000D02*
X168732700Y-100615000D01*
X88776000Y-110795000D02*
X90601300Y-110795000D01*
X151346300Y-117943000D02*
X153442500Y-115846800D01*
X133188100Y-117943000D02*
X151346300Y-117943000D01*
X131312200Y-116067100D02*
X133188100Y-117943000D01*
X88776000Y-108255000D02*
X90601300Y-108255000D01*
X92437400Y-110091100D02*
X90601300Y-108255000D01*
X109253900Y-110091100D02*
X92437400Y-110091100D01*
X110902600Y-111739800D02*
X109253900Y-110091100D01*
X132496500Y-111739800D02*
X110902600Y-111739800D01*
X147248900Y-100372800D02*
X146804100Y-100372800D01*
X147705100Y-99916600D02*
X147248900Y-100372800D01*
X165481100Y-99916600D02*
X147705100Y-99916600D01*
X165679500Y-100115000D02*
X165481100Y-99916600D01*
X169618000Y-100115000D02*
X165679500Y-100115000D01*
X133369700Y-110839200D02*
X133751600Y-111221100D01*
X110985500Y-110839200D02*
X133369700Y-110839200D01*
X109461600Y-109315300D02*
X110985500Y-110839200D01*
X98177700Y-109315300D02*
X109461600Y-109315300D01*
X94577400Y-105715000D02*
X98177700Y-109315300D01*
X88776000Y-105715000D02*
X94577400Y-105715000D01*
X145475600Y-100817000D02*
X145475600Y-101332500D01*
X146827800Y-99464800D02*
X145475600Y-100817000D01*
X165666200Y-99464800D02*
X146827800Y-99464800D01*
X165816400Y-99615000D02*
X165666200Y-99464800D01*
X169618000Y-99615000D02*
X165816400Y-99615000D01*
X88776000Y-103175000D02*
X103888100Y-103175000D01*
X169618000Y-99115000D02*
X168732700Y-99115000D01*
X147309200Y-98887800D02*
X145903500Y-97482100D01*
X168505500Y-98887800D02*
X147309200Y-98887800D01*
X168732700Y-99115000D02*
X168505500Y-98887800D01*
X161402600Y-97115000D02*
X161255600Y-97262000D01*
X169618000Y-97115000D02*
X161402600Y-97115000D01*
X146730900Y-102269200D02*
X158784600Y-102269200D01*
X146561500Y-102438600D02*
X146730900Y-102269200D01*
X145628600Y-102438600D02*
X146561500Y-102438600D01*
X145459200Y-102269200D02*
X145628600Y-102438600D01*
X149123000Y-96997600D02*
X147248900Y-96997600D01*
X149505600Y-96615000D02*
X149123000Y-96997600D01*
X169618000Y-96615000D02*
X149505600Y-96615000D01*
X169618000Y-96115000D02*
X168732700Y-96115000D01*
X149161500Y-96322200D02*
X146717300Y-96322200D01*
X149368700Y-96115000D02*
X149161500Y-96322200D01*
X168732700Y-96115000D02*
X149368700Y-96115000D01*
X115481000Y-122958400D02*
X117334900Y-122958400D01*
X105693200Y-113170600D02*
X115481000Y-122958400D01*
X169618000Y-95615000D02*
X170503300Y-95615000D01*
X170789600Y-95901300D02*
X170503300Y-95615000D01*
X170789600Y-96166100D02*
X170789600Y-95901300D01*
X98430800Y-108242700D02*
X102253400Y-108242700D01*
X95490200Y-105302100D02*
X98430800Y-108242700D01*
X88776000Y-98095000D02*
X96888300Y-98095000D01*
X147175900Y-95142800D02*
X146067900Y-95142800D01*
X147371300Y-94947400D02*
X147175900Y-95142800D01*
X162439700Y-94947400D02*
X147371300Y-94947400D01*
X168272100Y-89115000D02*
X162439700Y-94947400D01*
X169618000Y-89115000D02*
X168272100Y-89115000D01*
X93612800Y-95555000D02*
X88776000Y-95555000D01*
X94257500Y-96199700D02*
X93612800Y-95555000D01*
X162357700Y-94392500D02*
X146944100Y-94392500D01*
X168135200Y-88615000D02*
X162357700Y-94392500D01*
X169618000Y-88615000D02*
X168135200Y-88615000D01*
X167748000Y-87807600D02*
X167748000Y-86745000D01*
X166128800Y-89426800D02*
X167748000Y-87807600D01*
X163110100Y-89426800D02*
X166128800Y-89426800D01*
X158702600Y-92604400D02*
X161365500Y-89941500D01*
X148409100Y-92604400D02*
X158702600Y-92604400D01*
X148379300Y-92574600D02*
X148409100Y-92604400D01*
X113228700Y-93682400D02*
X114667000Y-92244100D01*
X99529700Y-93682400D02*
X113228700Y-93682400D01*
X98998000Y-93150700D02*
X99529700Y-93682400D01*
X98998000Y-91555600D02*
X98998000Y-93150700D01*
X98581600Y-91139200D02*
X98998000Y-91555600D01*
X93524200Y-91139200D02*
X98581600Y-91139200D01*
X91648400Y-93015000D02*
X93524200Y-91139200D01*
X88776000Y-93015000D02*
X91648400Y-93015000D01*
X166719700Y-88158600D02*
X167248000Y-87630300D01*
X166288400Y-88158600D02*
X166719700Y-88158600D01*
X167248000Y-86745000D02*
X167248000Y-87630300D01*
X94790000Y-86286300D02*
X115650800Y-86286300D01*
X90601300Y-90475000D02*
X94790000Y-86286300D01*
X88776000Y-90475000D02*
X90601300Y-90475000D01*
X164748000Y-86745000D02*
X164748000Y-87630300D01*
X99287600Y-95102900D02*
X120048700Y-95102900D01*
X98637300Y-95753200D02*
X99287600Y-95102900D01*
X164883000Y-87765300D02*
X164883000Y-87826800D01*
X164748000Y-87630300D02*
X164883000Y-87765300D01*
X159944600Y-90224500D02*
X160795400Y-89373700D01*
X147674100Y-90224500D02*
X159944600Y-90224500D01*
X145561800Y-88112200D02*
X147674100Y-90224500D01*
X143671400Y-88112200D02*
X145561800Y-88112200D01*
X143155600Y-88628000D02*
X143671400Y-88112200D01*
X135172100Y-88628000D02*
X143155600Y-88628000D01*
X146492700Y-93757600D02*
X146136500Y-94113800D01*
X159070700Y-93757600D02*
X146492700Y-93757600D01*
X162484800Y-90343500D02*
X159070700Y-93757600D01*
X162484800Y-89167800D02*
X162484800Y-90343500D01*
X162851100Y-88801500D02*
X162484800Y-89167800D01*
X163123000Y-88801500D02*
X162851100Y-88801500D01*
X164248000Y-87676500D02*
X163123000Y-88801500D01*
X164248000Y-86745000D02*
X164248000Y-87676500D01*
X158975200Y-93216200D02*
X146136900Y-93216200D01*
X162033700Y-90157700D02*
X158975200Y-93216200D01*
X162033700Y-88982000D02*
X162033700Y-90157700D01*
X163385400Y-87630300D02*
X162033700Y-88982000D01*
X163566800Y-87630300D02*
X163385400Y-87630300D01*
X163748000Y-87449100D02*
X163566800Y-87630300D01*
X163748000Y-86745000D02*
X163748000Y-87449100D01*
X153670600Y-85859700D02*
X153748000Y-85859700D01*
X153145800Y-85334900D02*
X153670600Y-85859700D01*
X153748000Y-86745000D02*
X153748000Y-85859700D01*
X94419100Y-73257700D02*
X91510000Y-76166800D01*
X134411300Y-73257700D02*
X94419100Y-73257700D01*
X136144000Y-74990400D02*
X134411300Y-73257700D01*
X136144000Y-76203600D02*
X136144000Y-74990400D01*
X138580600Y-78640200D02*
X136144000Y-76203600D01*
X141720500Y-78640200D02*
X138580600Y-78640200D01*
X143691000Y-80610700D02*
X141720500Y-78640200D01*
X148076900Y-80610700D02*
X143691000Y-80610700D01*
X132872300Y-73708000D02*
X133192200Y-74027900D01*
X95378700Y-73708000D02*
X132872300Y-73708000D01*
X92021100Y-77065600D02*
X95378700Y-73708000D01*
X91056600Y-77065600D02*
X92021100Y-77065600D01*
X153427100Y-87809400D02*
X153248000Y-87630300D01*
X154001700Y-87809400D02*
X153427100Y-87809400D01*
X153248000Y-86745000D02*
X153248000Y-87630300D01*
X119094700Y-83390600D02*
X119246300Y-83239000D01*
X96264000Y-83390600D02*
X119094700Y-83390600D01*
X95461200Y-82587800D02*
X96264000Y-83390600D01*
X152748000Y-87848100D02*
X152748000Y-86745000D01*
X153338800Y-88438900D02*
X152748000Y-87848100D01*
X157417000Y-88438900D02*
X153338800Y-88438900D01*
X157679600Y-88176300D02*
X157417000Y-88438900D01*
X158352700Y-88176300D02*
X157679600Y-88176300D01*
X158739000Y-88562600D02*
X158352700Y-88176300D01*
X88776000Y-82855000D02*
X90601300Y-82855000D01*
X148208500Y-89237500D02*
X148110000Y-89139000D01*
X149405200Y-89237500D02*
X148208500Y-89237500D01*
X150748000Y-87894700D02*
X149405200Y-89237500D01*
X150748000Y-86745000D02*
X150748000Y-87894700D01*
X144221200Y-84945700D02*
X144423200Y-85147700D01*
X130086700Y-84945700D02*
X144221200Y-84945700D01*
X128575500Y-83434500D02*
X130086700Y-84945700D01*
X122757900Y-83434500D02*
X128575500Y-83434500D01*
X121868300Y-84324100D02*
X122757900Y-83434500D01*
X92070400Y-84324100D02*
X121868300Y-84324100D01*
X90601300Y-82855000D02*
X92070400Y-84324100D01*
X88776000Y-87935000D02*
X90601300Y-87935000D01*
X128418900Y-84087300D02*
X122989400Y-84087300D01*
X132049900Y-87718300D02*
X128418900Y-84087300D01*
X134560600Y-87718300D02*
X132049900Y-87718300D01*
X134726500Y-87552400D02*
X134560600Y-87718300D01*
X142151400Y-87552400D02*
X134726500Y-87552400D01*
X142661000Y-87042800D02*
X142151400Y-87552400D01*
X144742700Y-87042800D02*
X142661000Y-87042800D01*
X145925800Y-85859700D02*
X144742700Y-87042800D01*
X147532800Y-85859700D02*
X145925800Y-85859700D01*
X147748000Y-86074900D02*
X147532800Y-85859700D01*
X147748000Y-86745000D02*
X147748000Y-86074900D01*
X93063700Y-85472600D02*
X121604100Y-85472600D01*
X90601300Y-87935000D02*
X93063700Y-85472600D01*
X147248000Y-86745000D02*
X147248000Y-87630300D01*
X88776000Y-85395000D02*
X90601300Y-85395000D01*
X143394200Y-87630300D02*
X147248000Y-87630300D01*
X143021800Y-88002700D02*
X143394200Y-87630300D01*
X134913100Y-88002700D02*
X143021800Y-88002700D01*
X134699400Y-88216400D02*
X134913100Y-88002700D01*
X131175600Y-88216400D02*
X134699400Y-88216400D01*
X127498800Y-84539600D02*
X131175600Y-88216400D01*
X123789500Y-84539600D02*
X127498800Y-84539600D01*
X123507000Y-84822100D02*
X123789500Y-84539600D01*
X91174200Y-84822100D02*
X123507000Y-84822100D01*
X90601300Y-85395000D02*
X91174200Y-84822100D01*
X99998000Y-99365000D02*
X101186900Y-99365000D01*
X143046500Y-108615000D02*
X144378000Y-108615000D01*
X142169200Y-109492300D02*
X143046500Y-108615000D01*
X134841900Y-109492300D02*
X142169200Y-109492300D01*
X133046600Y-107697000D02*
X134841900Y-109492300D01*
X133046500Y-107697000D02*
X133046600Y-107697000D01*
X133046500Y-107452600D02*
X133046500Y-107697000D01*
X131224100Y-105630200D02*
X133046500Y-107452600D01*
X112963000Y-105630200D02*
X131224100Y-105630200D01*
X105480200Y-98147400D02*
X112963000Y-105630200D01*
X102033000Y-98147400D02*
X105480200Y-98147400D01*
X101186900Y-98993500D02*
X102033000Y-98147400D01*
X101186900Y-99365000D02*
X101186900Y-98993500D01*
X102538000Y-99365000D02*
X103726900Y-99365000D01*
X143346700Y-109115000D02*
X144378000Y-109115000D01*
X142519100Y-109942600D02*
X143346700Y-109115000D01*
X134655300Y-109942600D02*
X142519100Y-109942600D01*
X132950100Y-108237400D02*
X134655300Y-109942600D01*
X132950000Y-108237400D02*
X132950100Y-108237400D01*
X132552000Y-107839400D02*
X132950000Y-108237400D01*
X132552000Y-107696700D02*
X132552000Y-107839400D01*
X130935800Y-106080500D02*
X132552000Y-107696700D01*
X110442400Y-106080500D02*
X130935800Y-106080500D01*
X103726900Y-99365000D02*
X110442400Y-106080500D01*
X147248000Y-111985000D02*
X147248000Y-112870300D01*
X147248000Y-112870300D02*
X143361600Y-112870300D01*
X99998000Y-104445000D02*
X99998000Y-105633900D01*
X100529000Y-105633900D02*
X99998000Y-105633900D01*
X103760000Y-108864900D02*
X100529000Y-105633900D01*
X110368500Y-108864900D02*
X103760000Y-108864900D01*
X111892500Y-110388900D02*
X110368500Y-108864900D01*
X133827700Y-110388900D02*
X111892500Y-110388900D01*
X134297900Y-110859100D02*
X133827700Y-110388900D01*
X137932300Y-110859100D02*
X134297900Y-110859100D01*
X138452800Y-111379600D02*
X137932300Y-110859100D01*
X144378000Y-102615000D02*
X143492700Y-102615000D01*
X139998000Y-98365000D02*
X139998000Y-99540300D01*
X141214900Y-99540300D02*
X139998000Y-99540300D01*
X143492700Y-101818100D02*
X141214900Y-99540300D01*
X143492700Y-102615000D02*
X143492700Y-101818100D01*
X139998000Y-101365000D02*
X139998000Y-102540300D01*
X143492700Y-103255600D02*
X143492700Y-103115000D01*
X143151500Y-103596800D02*
X143492700Y-103255600D01*
X142406000Y-103596800D02*
X143151500Y-103596800D01*
X141349500Y-102540300D02*
X142406000Y-103596800D01*
X139998000Y-102540300D02*
X141349500Y-102540300D01*
X144378000Y-103115000D02*
X143492700Y-103115000D01*
X128822700Y-81865000D02*
X130322700Y-83365000D01*
X127673300Y-81865000D02*
X128822700Y-81865000D01*
X126498000Y-81865000D02*
X127673300Y-81865000D01*
X130910400Y-83365000D02*
X130322700Y-83365000D01*
X130910400Y-83365000D02*
X131498000Y-83365000D01*
X151248000Y-86745000D02*
X151248000Y-85859700D01*
X131498000Y-83365000D02*
X132673300Y-83365000D01*
X133803700Y-84495400D02*
X132673300Y-83365000D01*
X144655300Y-84495400D02*
X133803700Y-84495400D01*
X145100700Y-84940800D02*
X144655300Y-84495400D01*
X150329100Y-84940800D02*
X145100700Y-84940800D01*
X151248000Y-85859700D02*
X150329100Y-84940800D01*
X146998000Y-120365000D02*
X146998000Y-119189700D01*
X146746500Y-119189700D02*
X146552100Y-118995300D01*
X146998000Y-119189700D02*
X146746500Y-119189700D01*
X144378000Y-106615000D02*
X145584600Y-106615000D01*
X149748000Y-86745000D02*
X149748000Y-85859700D01*
X149891800Y-85859700D02*
X150073400Y-85678100D01*
X149748000Y-85859700D02*
X149891800Y-85859700D01*
X149248000Y-87843600D02*
X149173400Y-87918200D01*
X149248000Y-86745000D02*
X149248000Y-87843600D01*
X144378000Y-88615000D02*
X145263300Y-88615000D01*
X148081400Y-91433100D02*
X156440900Y-91433100D01*
X145263300Y-88615000D02*
X148081400Y-91433100D01*
X158101000Y-92058400D02*
X158180400Y-91979000D01*
X148747500Y-92058400D02*
X158101000Y-92058400D01*
X148638400Y-91949300D02*
X148747500Y-92058400D01*
X147960700Y-91949300D02*
X148638400Y-91949300D01*
X145126400Y-89115000D02*
X147960700Y-91949300D01*
X144378000Y-89115000D02*
X145126400Y-89115000D01*
X144378000Y-89615000D02*
X143278600Y-89615000D01*
X103998000Y-112365000D02*
X103998000Y-117365000D01*
X102672700Y-118169300D02*
X102672700Y-117365000D01*
X100692400Y-120149600D02*
X102672700Y-118169300D01*
X100692400Y-121974900D02*
X100692400Y-120149600D01*
X103998000Y-117365000D02*
X102672700Y-117365000D01*
X88776000Y-123495000D02*
X90601300Y-123495000D01*
X98918000Y-112365000D02*
X97729100Y-112365000D01*
X97729100Y-112576400D02*
X97729100Y-112365000D01*
X97899400Y-112746700D02*
X97729100Y-112576400D01*
X97899400Y-116449100D02*
X97899400Y-112746700D01*
X90853500Y-123495000D02*
X97899400Y-116449100D01*
X90601300Y-123495000D02*
X90853500Y-123495000D01*
M02*
