%TF.GenerationSoftware,KiCad,Pcbnew,4.0.2+dfsg1-stable*%
%TF.CreationDate,2019-10-14T09:04:35+02:00*%
%TF.ProjectId,stduinof429,73746475696E6F663432392E6B696361,rev?*%
%TF.FileFunction,Paste,Top*%
%FSLAX46Y46*%
G04 Gerber Fmt 4.6, Leading zero omitted, Abs format (unit mm)*
G04 Created by KiCad (PCBNEW 4.0.2+dfsg1-stable) date Mon 14 Oct 2019 09:04:35 CEST*
%MOMM*%
G01*
G04 APERTURE LIST*
%ADD10C,0.100000*%
%ADD11R,1.120000X0.300000*%
%ADD12R,0.300000X1.120000*%
%ADD13R,2.999740X1.501140*%
%ADD14R,2.000000X2.500000*%
%ADD15R,2.000000X1.600000*%
%ADD16R,1.600000X2.000000*%
%ADD17R,1.597660X1.800860*%
%ADD18R,1.700000X2.000000*%
%ADD19R,2.000000X1.700000*%
%ADD20R,2.180000X1.600000*%
%ADD21R,2.032000X3.657600*%
%ADD22R,2.032000X1.016000*%
%ADD23R,0.400000X3.000000*%
%ADD24R,3.000000X1.524000*%
G04 APERTURE END LIST*
D10*
D11*
X144378000Y-88615000D03*
X144378000Y-89115000D03*
X144378000Y-89615000D03*
X144378000Y-90115000D03*
X144378000Y-90615000D03*
X144378000Y-91115000D03*
X144378000Y-91615000D03*
X144378000Y-92115000D03*
X144378000Y-92615000D03*
X144378000Y-93115000D03*
X144378000Y-93615000D03*
X144378000Y-94115000D03*
X144378000Y-94615000D03*
X144378000Y-95115000D03*
X144378000Y-95615000D03*
X144378000Y-96115000D03*
X144378000Y-96615000D03*
X144378000Y-97115000D03*
X144378000Y-97615000D03*
X144378000Y-98115000D03*
X144378000Y-98615000D03*
X144378000Y-99115000D03*
X144378000Y-99615000D03*
X144378000Y-100115000D03*
X144378000Y-100615000D03*
X144378000Y-101115000D03*
X144378000Y-101615000D03*
X144378000Y-102115000D03*
X144378000Y-102615000D03*
X144378000Y-103115000D03*
X144378000Y-103615000D03*
X144378000Y-104115000D03*
X144378000Y-104615000D03*
X144378000Y-105115000D03*
X144378000Y-105615000D03*
X144378000Y-106115000D03*
X144378000Y-106615000D03*
X144378000Y-107115000D03*
X144378000Y-107615000D03*
X144378000Y-108115000D03*
X144378000Y-108615000D03*
X144378000Y-109115000D03*
X144378000Y-109615000D03*
X144378000Y-110115000D03*
D12*
X146248000Y-111985000D03*
X146748000Y-111985000D03*
X147248000Y-111985000D03*
X147748000Y-111985000D03*
X148248000Y-111985000D03*
X148748000Y-111985000D03*
X149248000Y-111985000D03*
X149748000Y-111985000D03*
X150248000Y-111985000D03*
X150748000Y-111985000D03*
X151248000Y-111985000D03*
X151748000Y-111985000D03*
X152248000Y-111985000D03*
X152748000Y-111985000D03*
X153248000Y-111985000D03*
X153748000Y-111985000D03*
X154248000Y-111985000D03*
X154748000Y-111985000D03*
X155248000Y-111985000D03*
X155748000Y-111985000D03*
X156248000Y-111985000D03*
X156748000Y-111985000D03*
X157248000Y-111985000D03*
X157748000Y-111985000D03*
X158248000Y-111985000D03*
X158748000Y-111985000D03*
X159248000Y-111985000D03*
X159748000Y-111985000D03*
X160248000Y-111985000D03*
X160748000Y-111985000D03*
X161248000Y-111985000D03*
X161748000Y-111985000D03*
X162248000Y-111985000D03*
X162748000Y-111985000D03*
X163248000Y-111985000D03*
X163748000Y-111985000D03*
X164248000Y-111985000D03*
X164748000Y-111985000D03*
X165248000Y-111985000D03*
X165748000Y-111985000D03*
X166248000Y-111985000D03*
X166748000Y-111985000D03*
X167248000Y-111985000D03*
X167748000Y-111985000D03*
D11*
X169618000Y-110115000D03*
X169618000Y-109615000D03*
X169618000Y-109115000D03*
X169618000Y-108615000D03*
X169618000Y-108115000D03*
X169618000Y-107615000D03*
X169618000Y-107115000D03*
X169618000Y-106615000D03*
X169618000Y-106115000D03*
X169618000Y-105615000D03*
X169618000Y-105115000D03*
X169618000Y-104615000D03*
X169618000Y-104115000D03*
X169618000Y-103615000D03*
X169618000Y-103115000D03*
X169618000Y-102615000D03*
X169618000Y-102115000D03*
X169618000Y-101615000D03*
X169618000Y-101115000D03*
X169618000Y-100615000D03*
X169618000Y-100115000D03*
X169618000Y-99615000D03*
X169618000Y-99115000D03*
X169618000Y-98615000D03*
X169618000Y-98115000D03*
X169618000Y-97615000D03*
X169618000Y-97115000D03*
X169618000Y-96615000D03*
X169618000Y-96115000D03*
X169618000Y-95615000D03*
X169618000Y-95115000D03*
X169618000Y-94615000D03*
X169618000Y-94115000D03*
X169618000Y-93615000D03*
X169618000Y-93115000D03*
X169618000Y-92615000D03*
X169618000Y-92115000D03*
X169618000Y-91615000D03*
X169618000Y-91115000D03*
X169618000Y-90615000D03*
X169618000Y-90115000D03*
X169618000Y-89615000D03*
X169618000Y-89115000D03*
X169618000Y-88615000D03*
D12*
X167748000Y-86745000D03*
X167248000Y-86745000D03*
X166748000Y-86745000D03*
X166248000Y-86745000D03*
X165748000Y-86745000D03*
X165248000Y-86745000D03*
X164748000Y-86745000D03*
X164248000Y-86745000D03*
X163748000Y-86745000D03*
X163248000Y-86745000D03*
X162748000Y-86745000D03*
X162248000Y-86745000D03*
X161748000Y-86745000D03*
X161248000Y-86745000D03*
X160748000Y-86745000D03*
X160248000Y-86745000D03*
X159748000Y-86745000D03*
X159248000Y-86745000D03*
X158748000Y-86745000D03*
X158248000Y-86745000D03*
X157748000Y-86745000D03*
X157248000Y-86745000D03*
X156748000Y-86745000D03*
X156248000Y-86745000D03*
X155748000Y-86745000D03*
X155248000Y-86745000D03*
X154748000Y-86745000D03*
X154248000Y-86745000D03*
X153748000Y-86745000D03*
X153248000Y-86745000D03*
X152748000Y-86745000D03*
X152248000Y-86745000D03*
X151748000Y-86745000D03*
X151248000Y-86745000D03*
X150748000Y-86745000D03*
X150248000Y-86745000D03*
X149748000Y-86745000D03*
X149248000Y-86745000D03*
X148748000Y-86745000D03*
X148248000Y-86745000D03*
X147748000Y-86745000D03*
X147248000Y-86745000D03*
X146748000Y-86745000D03*
X146248000Y-86745000D03*
D13*
X128996980Y-113365000D03*
X124999020Y-113365000D03*
X128996980Y-116865000D03*
X124999020Y-116865000D03*
D14*
X128998000Y-120865000D03*
X132998000Y-120865000D03*
X100998000Y-81365000D03*
X96998000Y-81365000D03*
D15*
X135998000Y-95365000D03*
X139998000Y-95365000D03*
X135998000Y-104365000D03*
X139998000Y-104365000D03*
X170998000Y-79365000D03*
X174998000Y-79365000D03*
X160498000Y-119865000D03*
X164498000Y-119865000D03*
D16*
X132998000Y-86365000D03*
X132998000Y-90365000D03*
D15*
X136998000Y-91365000D03*
X140998000Y-91365000D03*
X136998000Y-86365000D03*
X140998000Y-86365000D03*
X143998000Y-83365000D03*
X147998000Y-83365000D03*
X155998000Y-83365000D03*
X151998000Y-83365000D03*
X159998000Y-83365000D03*
X163998000Y-83365000D03*
X171998000Y-83365000D03*
X167998000Y-83365000D03*
D16*
X172998000Y-90365000D03*
X172998000Y-86365000D03*
X172998000Y-93365000D03*
X172998000Y-97365000D03*
X172998000Y-100365000D03*
X172998000Y-104365000D03*
X172998000Y-111365000D03*
X172998000Y-107365000D03*
D15*
X168998000Y-115365000D03*
X172998000Y-115365000D03*
X165998000Y-115365000D03*
X161998000Y-115365000D03*
X154998000Y-115365000D03*
X158998000Y-115365000D03*
X150998000Y-115365000D03*
X146998000Y-115365000D03*
X135998000Y-108365000D03*
X139998000Y-108365000D03*
X135998000Y-112365000D03*
X139998000Y-112365000D03*
X138998000Y-116365000D03*
X142998000Y-116365000D03*
D17*
X123417860Y-108865000D03*
X120578140Y-108865000D03*
X100417860Y-92365000D03*
X97578140Y-92365000D03*
D14*
X130498000Y-108365000D03*
X126498000Y-108365000D03*
X108998000Y-81365000D03*
X104998000Y-81365000D03*
D18*
X123998000Y-99365000D03*
X123998000Y-103365000D03*
X119998000Y-103365000D03*
X119998000Y-99365000D03*
D19*
X150498000Y-79365000D03*
X146498000Y-79365000D03*
D18*
X115498000Y-103365000D03*
X115498000Y-99365000D03*
D19*
X139998000Y-80365000D03*
X135998000Y-80365000D03*
X97498000Y-87865000D03*
X101498000Y-87865000D03*
D20*
X98908000Y-76365000D03*
X108088000Y-76365000D03*
D21*
X113196000Y-115365000D03*
D22*
X119800000Y-115365000D03*
X119800000Y-113079000D03*
X119800000Y-117651000D03*
D19*
X139998000Y-98365000D03*
X135998000Y-98365000D03*
X139998000Y-101365000D03*
X135998000Y-101365000D03*
D18*
X131498000Y-79365000D03*
X131498000Y-83365000D03*
X126498000Y-81865000D03*
X126498000Y-85865000D03*
D19*
X146998000Y-120365000D03*
X150998000Y-120365000D03*
D18*
X177998000Y-109365000D03*
X177998000Y-105365000D03*
D14*
X99998000Y-117365000D03*
X103998000Y-117365000D03*
D23*
X100692440Y-121974860D03*
X101347100Y-121975000D03*
X101997100Y-121975000D03*
X102647100Y-121975000D03*
X103297100Y-121975000D03*
D24*
X88776000Y-123495000D03*
X88776000Y-120955000D03*
X88776000Y-118415000D03*
X88776000Y-115875000D03*
X88776000Y-113335000D03*
X88776000Y-110795000D03*
X88776000Y-108255000D03*
X88776000Y-105715000D03*
X88776000Y-103175000D03*
X88776000Y-100635000D03*
X88776000Y-98095000D03*
X88776000Y-95555000D03*
X88776000Y-93015000D03*
X88776000Y-90475000D03*
X88776000Y-87935000D03*
X88776000Y-85395000D03*
X88776000Y-82855000D03*
X88776000Y-80315000D03*
X88776000Y-77775000D03*
X88776000Y-75235000D03*
M02*
