M48
;DRILL file {KiCad 4.0.2+dfsg1-stable} date Sat 19 Oct 2019 14:14:14 CEST
;FORMAT={-:-/ absolute / metric / decimal}
FMAT,2
METRIC,TZ
T1C0.400
T2C0.500
T3C0.550
T4C0.800
T5C0.800
T6C1.016
T7C3.000
%
G90
G05
M71
T1
X90.248Y-122.225
X91.871Y-92.62
X91.947Y-77.493
X92.041Y-84.295
X92.173Y-98.723
X93.248Y-95.794
X93.721Y-121.298
X94.091Y-118.381
X94.251Y-85.577
X95.733Y-115.23
X96.242Y-113.335
X97.201Y-106.59
X99.323Y-89.883
X99.605Y-86.449
X99.772Y-90.684
X102.181Y-95.072
X102.271Y-94.271
X102.866Y-107.248
X103.969Y-95.258
X106.321Y-105.387
X108.724Y-108.691
X111.192Y-77.578
X111.92Y-72.038
X113.838Y-97.25
X119.869Y-82.947
X120.676Y-83.391
X124.434Y-86.851
X124.667Y-86.042
X126.126Y-87.621
X128.055Y-119.103
X128.254Y-85.744
X129.653Y-114.799
X129.684Y-87.433
X131.002Y-113.312
X131.181Y-112.383
X132.658Y-111.098
X133.141Y-110.439
X133.285Y-81.005
X135.307Y-88.245
X135.594Y-84.69
X136.418Y-88.422
X137.679Y-87.688
X137.859Y-85.035
X138.329Y-94.58
X138.947Y-83.451
X139.017Y-87.51
X139.744Y-82.787
X140.169Y-94.032
X141.151Y-84.41
X141.471Y-116.499
X141.499Y-112.365
X141.61Y-88.165
X142.332Y-105.395
X142.642Y-88.596
X143.014Y-93.701
X143.097Y-104.624
X143.317Y-103.782
X143.711Y-76.446
X145.087Y-115.028
X145.44Y-106.615
X145.458Y-104.752
X145.627Y-103.44
X145.781Y-112.96
X145.9Y-97.138
X145.906Y-95.877
X145.91Y-95.055
X145.912Y-98.93
X145.918Y-89.885
X145.935Y-99.731
X145.945Y-100.549
X146.359Y-101.953
X146.701Y-97.136
X146.737Y-99.14
X146.737Y-102.707
X146.87Y-90.898
X147.173Y-101.336
X147.187Y-98.387
X147.246Y-119.004
X147.474Y-92.805
X147.95Y-105.419
X148.15Y-80.754
X148.334Y-92.364
X149.129Y-113.589
X149.248Y-88.042
X150.147Y-85.679
X150.187Y-110.542
X150.19Y-88.564
X150.611Y-87.817
X150.731Y-113.712
X150.826Y-108.39
X151.011Y-110.91
X151.441Y-88.32
X151.903Y-113.059
X152.226Y-110.921
X152.692Y-88.194
X152.765Y-84.828
X154.953Y-87.835
X156.123Y-113.62
X156.987Y-91.115
X157.724Y-87.827
X158.86Y-85.665
X159.082Y-113.118
X160.894Y-85.272
X161.088Y-87.921
X162.148Y-87.822
X162.868Y-97.615
X163.098Y-109.034
X163.728Y-110.692
X163.912Y-85.665
X164.148Y-98.491
X164.248Y-88.042
X165.094Y-87.816
X168.425Y-86.426
X168.467Y-89.254
X170.704Y-92.316
X171.066Y-94.765
X172.168Y-81.154
X173.405Y-102.007
T4
X130.998Y-97.365
X130.998Y-102.245
T5
X119.998Y-124.365
T6
X98.918Y-112.365
X99.998Y-99.365
X99.998Y-101.905
X99.998Y-104.445
X101.458Y-112.365
X102.538Y-99.365
X102.538Y-101.905
X102.538Y-104.445
X103.998Y-112.365
X113.998Y-80.365
X116.538Y-80.365
X117.998Y-90.825
X117.998Y-93.365
X119.078Y-80.365
X121.618Y-80.365
X123.998Y-90.825
X123.998Y-93.365
X129.794Y-75.565
X132.334Y-75.565
X134.874Y-75.565
X137.414Y-75.565
X138.938Y-123.825
X139.954Y-75.565
X141.478Y-123.825
X142.494Y-75.565
X144.018Y-123.825
X145.034Y-75.565
X146.558Y-123.825
X147.574Y-75.565
X149.098Y-123.825
X150.114Y-75.565
X151.638Y-123.825
X152.654Y-75.565
X154.178Y-123.825
X156.718Y-75.565
X156.718Y-123.825
X159.258Y-75.565
X161.798Y-75.565
X161.798Y-123.825
X164.338Y-75.565
X164.338Y-123.825
X166.878Y-75.565
X166.878Y-123.825
X169.418Y-75.565
X169.418Y-123.825
X171.958Y-75.565
X171.958Y-123.825
X174.498Y-75.565
X174.498Y-123.825
X176.998Y-96.365
X176.998Y-98.905
X176.998Y-101.445
T7
X106.998Y-91.357
X124.968Y-124.333
X126.238Y-76.073
X177.038Y-91.313
X177.038Y-119.253
T2
X98.497Y-125.827G85X98.497Y-125.177
G05
X105.497Y-125.827G85X105.497Y-125.177
G05
T3
X99.347Y-122.802G85X99.647Y-122.802
G05
X104.347Y-122.802G85X104.647Y-122.802
G05
T0
M30
