%TF.GenerationSoftware,KiCad,Pcbnew,5.1.9+dfsg1-1~bpo10+1*%
%TF.CreationDate,2021-03-25T14:45:09+01:00*%
%TF.ProjectId,stduinof429,73746475-696e-46f6-9634-32392e6b6963,rev?*%
%TF.SameCoordinates,Original*%
%TF.FileFunction,Legend,Bot*%
%TF.FilePolarity,Positive*%
%FSLAX46Y46*%
G04 Gerber Fmt 4.6, Leading zero omitted, Abs format (unit mm)*
G04 Created by KiCad (PCBNEW 5.1.9+dfsg1-1~bpo10+1) date 2021-03-25 14:45:09*
%MOMM*%
%LPD*%
G01*
G04 APERTURE LIST*
%ADD10C,0.300000*%
G04 APERTURE END LIST*
D10*
X93426571Y-86757857D02*
X92426571Y-86757857D01*
X91926571Y-86757857D02*
X91998000Y-86686428D01*
X92069428Y-86757857D01*
X91998000Y-86829285D01*
X91926571Y-86757857D01*
X92069428Y-86757857D01*
X92426571Y-87472142D02*
X93426571Y-87472142D01*
X92569428Y-87472142D02*
X92498000Y-87543571D01*
X92426571Y-87686428D01*
X92426571Y-87900714D01*
X92498000Y-88043571D01*
X92640857Y-88115000D01*
X93426571Y-88115000D01*
X93426571Y-89972142D02*
X92426571Y-89972142D01*
X92569428Y-89972142D02*
X92498000Y-90043571D01*
X92426571Y-90186428D01*
X92426571Y-90400714D01*
X92498000Y-90543571D01*
X92640857Y-90615000D01*
X93426571Y-90615000D01*
X92640857Y-90615000D02*
X92498000Y-90686428D01*
X92426571Y-90829285D01*
X92426571Y-91043571D01*
X92498000Y-91186428D01*
X92640857Y-91257857D01*
X93426571Y-91257857D01*
X93355142Y-92543571D02*
X93426571Y-92400714D01*
X93426571Y-92115000D01*
X93355142Y-91972142D01*
X93212285Y-91900714D01*
X92640857Y-91900714D01*
X92498000Y-91972142D01*
X92426571Y-92115000D01*
X92426571Y-92400714D01*
X92498000Y-92543571D01*
X92640857Y-92615000D01*
X92783714Y-92615000D01*
X92926571Y-91900714D01*
X93426571Y-93257857D02*
X92426571Y-93257857D01*
X92569428Y-93257857D02*
X92498000Y-93329285D01*
X92426571Y-93472142D01*
X92426571Y-93686428D01*
X92498000Y-93829285D01*
X92640857Y-93900714D01*
X93426571Y-93900714D01*
X92640857Y-93900714D02*
X92498000Y-93972142D01*
X92426571Y-94115000D01*
X92426571Y-94329285D01*
X92498000Y-94472142D01*
X92640857Y-94543571D01*
X93426571Y-94543571D01*
X93426571Y-95472142D02*
X93355142Y-95329285D01*
X93283714Y-95257857D01*
X93140857Y-95186428D01*
X92712285Y-95186428D01*
X92569428Y-95257857D01*
X92498000Y-95329285D01*
X92426571Y-95472142D01*
X92426571Y-95686428D01*
X92498000Y-95829285D01*
X92569428Y-95900714D01*
X92712285Y-95972142D01*
X93140857Y-95972142D01*
X93283714Y-95900714D01*
X93355142Y-95829285D01*
X93426571Y-95686428D01*
X93426571Y-95472142D01*
X93426571Y-96615000D02*
X92426571Y-96615000D01*
X92712285Y-96615000D02*
X92569428Y-96686428D01*
X92498000Y-96757857D01*
X92426571Y-96900714D01*
X92426571Y-97043571D01*
X93426571Y-97543571D02*
X92426571Y-97543571D01*
X91926571Y-97543571D02*
X91998000Y-97472142D01*
X92069428Y-97543571D01*
X91998000Y-97615000D01*
X91926571Y-97543571D01*
X92069428Y-97543571D01*
X93426571Y-98900714D02*
X92640857Y-98900714D01*
X92498000Y-98829285D01*
X92426571Y-98686428D01*
X92426571Y-98400714D01*
X92498000Y-98257857D01*
X93355142Y-98900714D02*
X93426571Y-98757857D01*
X93426571Y-98400714D01*
X93355142Y-98257857D01*
X93212285Y-98186428D01*
X93069428Y-98186428D01*
X92926571Y-98257857D01*
X92855142Y-98400714D01*
X92855142Y-98757857D01*
X92783714Y-98900714D01*
X93426571Y-99615000D02*
X92426571Y-99615000D01*
X92569428Y-99615000D02*
X92498000Y-99686428D01*
X92426571Y-99829285D01*
X92426571Y-100043571D01*
X92498000Y-100186428D01*
X92640857Y-100257857D01*
X93426571Y-100257857D01*
X92640857Y-100257857D02*
X92498000Y-100329285D01*
X92426571Y-100472142D01*
X92426571Y-100686428D01*
X92498000Y-100829285D01*
X92640857Y-100900714D01*
X93426571Y-100900714D01*
X92998000Y-102686428D02*
X92998000Y-103400714D01*
X93426571Y-102543571D02*
X91926571Y-103043571D01*
X93426571Y-103543571D01*
X93283714Y-104043571D02*
X93355142Y-104115000D01*
X93426571Y-104043571D01*
X93355142Y-103972142D01*
X93283714Y-104043571D01*
X93426571Y-104043571D01*
X93355142Y-104686428D02*
X93426571Y-104900714D01*
X93426571Y-105257857D01*
X93355142Y-105400714D01*
X93283714Y-105472142D01*
X93140857Y-105543571D01*
X92998000Y-105543571D01*
X92855142Y-105472142D01*
X92783714Y-105400714D01*
X92712285Y-105257857D01*
X92640857Y-104972142D01*
X92569428Y-104829285D01*
X92498000Y-104757857D01*
X92355142Y-104686428D01*
X92212285Y-104686428D01*
X92069428Y-104757857D01*
X91998000Y-104829285D01*
X91926571Y-104972142D01*
X91926571Y-105329285D01*
X91998000Y-105543571D01*
X93283714Y-106186428D02*
X93355142Y-106257857D01*
X93426571Y-106186428D01*
X93355142Y-106115000D01*
X93283714Y-106186428D01*
X93426571Y-106186428D01*
X92855142Y-106900714D02*
X92855142Y-108043571D01*
X91998000Y-109543571D02*
X91926571Y-109400714D01*
X91926571Y-109186428D01*
X91998000Y-108972142D01*
X92140857Y-108829285D01*
X92283714Y-108757857D01*
X92569428Y-108686428D01*
X92783714Y-108686428D01*
X93069428Y-108757857D01*
X93212285Y-108829285D01*
X93355142Y-108972142D01*
X93426571Y-109186428D01*
X93426571Y-109329285D01*
X93355142Y-109543571D01*
X93283714Y-109615000D01*
X92783714Y-109615000D01*
X92783714Y-109329285D01*
X93283714Y-110257857D02*
X93355142Y-110329285D01*
X93426571Y-110257857D01*
X93355142Y-110186428D01*
X93283714Y-110257857D01*
X93426571Y-110257857D01*
X93426571Y-110972142D02*
X91926571Y-110972142D01*
X91926571Y-111329285D01*
X91998000Y-111543571D01*
X92140857Y-111686428D01*
X92283714Y-111757857D01*
X92569428Y-111829285D01*
X92783714Y-111829285D01*
X93069428Y-111757857D01*
X93212285Y-111686428D01*
X93355142Y-111543571D01*
X93426571Y-111329285D01*
X93426571Y-110972142D01*
X93283714Y-112472142D02*
X93355142Y-112543571D01*
X93426571Y-112472142D01*
X93355142Y-112400714D01*
X93283714Y-112472142D01*
X93426571Y-112472142D01*
X161355142Y-106543571D02*
X161355142Y-105043571D01*
X160712285Y-106543571D02*
X160712285Y-105757857D01*
X160783714Y-105615000D01*
X160926571Y-105543571D01*
X161140857Y-105543571D01*
X161283714Y-105615000D01*
X161355142Y-105686428D01*
X160212285Y-105543571D02*
X159640857Y-105543571D01*
X159998000Y-105043571D02*
X159998000Y-106329285D01*
X159926571Y-106472142D01*
X159783714Y-106543571D01*
X159640857Y-106543571D01*
X159355142Y-105543571D02*
X158783714Y-105543571D01*
X159140857Y-105043571D02*
X159140857Y-106329285D01*
X159069428Y-106472142D01*
X158926571Y-106543571D01*
X158783714Y-106543571D01*
X158283714Y-105543571D02*
X158283714Y-107043571D01*
X158283714Y-105615000D02*
X158140857Y-105543571D01*
X157855142Y-105543571D01*
X157712285Y-105615000D01*
X157640857Y-105686428D01*
X157569428Y-105829285D01*
X157569428Y-106257857D01*
X157640857Y-106400714D01*
X157712285Y-106472142D01*
X157855142Y-106543571D01*
X158140857Y-106543571D01*
X158283714Y-106472142D01*
X156998000Y-106472142D02*
X156855142Y-106543571D01*
X156569428Y-106543571D01*
X156426571Y-106472142D01*
X156355142Y-106329285D01*
X156355142Y-106257857D01*
X156426571Y-106115000D01*
X156569428Y-106043571D01*
X156783714Y-106043571D01*
X156926571Y-105972142D01*
X156998000Y-105829285D01*
X156998000Y-105757857D01*
X156926571Y-105615000D01*
X156783714Y-105543571D01*
X156569428Y-105543571D01*
X156426571Y-105615000D01*
X155712285Y-106400714D02*
X155640857Y-106472142D01*
X155712285Y-106543571D01*
X155783714Y-106472142D01*
X155712285Y-106400714D01*
X155712285Y-106543571D01*
X155712285Y-105615000D02*
X155640857Y-105686428D01*
X155712285Y-105757857D01*
X155783714Y-105686428D01*
X155712285Y-105615000D01*
X155712285Y-105757857D01*
X153926571Y-104972142D02*
X155212285Y-106900714D01*
X152355142Y-104972142D02*
X153640857Y-106900714D01*
X151212285Y-105543571D02*
X151212285Y-106757857D01*
X151283714Y-106900714D01*
X151355142Y-106972142D01*
X151498000Y-107043571D01*
X151712285Y-107043571D01*
X151855142Y-106972142D01*
X151212285Y-106472142D02*
X151355142Y-106543571D01*
X151640857Y-106543571D01*
X151783714Y-106472142D01*
X151855142Y-106400714D01*
X151926571Y-106257857D01*
X151926571Y-105829285D01*
X151855142Y-105686428D01*
X151783714Y-105615000D01*
X151640857Y-105543571D01*
X151355142Y-105543571D01*
X151212285Y-105615000D01*
X150498000Y-106543571D02*
X150498000Y-105543571D01*
X150498000Y-105043571D02*
X150569428Y-105115000D01*
X150498000Y-105186428D01*
X150426571Y-105115000D01*
X150498000Y-105043571D01*
X150498000Y-105186428D01*
X149998000Y-105543571D02*
X149426571Y-105543571D01*
X149783714Y-105043571D02*
X149783714Y-106329285D01*
X149712285Y-106472142D01*
X149569428Y-106543571D01*
X149426571Y-106543571D01*
X148926571Y-106543571D02*
X148926571Y-105043571D01*
X148283714Y-106543571D02*
X148283714Y-105757857D01*
X148355142Y-105615000D01*
X148498000Y-105543571D01*
X148712285Y-105543571D01*
X148855142Y-105615000D01*
X148926571Y-105686428D01*
X146926571Y-105543571D02*
X146926571Y-106543571D01*
X147569428Y-105543571D02*
X147569428Y-106329285D01*
X147498000Y-106472142D01*
X147355142Y-106543571D01*
X147140857Y-106543571D01*
X146998000Y-106472142D01*
X146926571Y-106400714D01*
X146212285Y-106543571D02*
X146212285Y-105043571D01*
X146212285Y-105615000D02*
X146069428Y-105543571D01*
X145783714Y-105543571D01*
X145640857Y-105615000D01*
X145569428Y-105686428D01*
X145497999Y-105829285D01*
X145497999Y-106257857D01*
X145569428Y-106400714D01*
X145640857Y-106472142D01*
X145783714Y-106543571D01*
X146069428Y-106543571D01*
X146212285Y-106472142D01*
X144855142Y-106400714D02*
X144783714Y-106472142D01*
X144855142Y-106543571D01*
X144926571Y-106472142D01*
X144855142Y-106400714D01*
X144855142Y-106543571D01*
X143497999Y-106472142D02*
X143640857Y-106543571D01*
X143926571Y-106543571D01*
X144069428Y-106472142D01*
X144140857Y-106400714D01*
X144212285Y-106257857D01*
X144212285Y-105829285D01*
X144140857Y-105686428D01*
X144069428Y-105615000D01*
X143926571Y-105543571D01*
X143640857Y-105543571D01*
X143497999Y-105615000D01*
X142640857Y-106543571D02*
X142783714Y-106472142D01*
X142855142Y-106400714D01*
X142926571Y-106257857D01*
X142926571Y-105829285D01*
X142855142Y-105686428D01*
X142783714Y-105615000D01*
X142640857Y-105543571D01*
X142426571Y-105543571D01*
X142283714Y-105615000D01*
X142212285Y-105686428D01*
X142140857Y-105829285D01*
X142140857Y-106257857D01*
X142212285Y-106400714D01*
X142283714Y-106472142D01*
X142426571Y-106543571D01*
X142640857Y-106543571D01*
X141497999Y-106543571D02*
X141497999Y-105543571D01*
X141497999Y-105686428D02*
X141426571Y-105615000D01*
X141283714Y-105543571D01*
X141069428Y-105543571D01*
X140926571Y-105615000D01*
X140855142Y-105757857D01*
X140855142Y-106543571D01*
X140855142Y-105757857D02*
X140783714Y-105615000D01*
X140640857Y-105543571D01*
X140426571Y-105543571D01*
X140283714Y-105615000D01*
X140212285Y-105757857D01*
X140212285Y-106543571D01*
X138426571Y-104972142D02*
X139712285Y-106900714D01*
X137283714Y-105543571D02*
X137283714Y-106757857D01*
X137355142Y-106900714D01*
X137426571Y-106972142D01*
X137569428Y-107043571D01*
X137783714Y-107043571D01*
X137926571Y-106972142D01*
X137283714Y-106472142D02*
X137426571Y-106543571D01*
X137712285Y-106543571D01*
X137855142Y-106472142D01*
X137926571Y-106400714D01*
X137997999Y-106257857D01*
X137997999Y-105829285D01*
X137926571Y-105686428D01*
X137855142Y-105615000D01*
X137712285Y-105543571D01*
X137426571Y-105543571D01*
X137283714Y-105615000D01*
X136569428Y-106543571D02*
X136569428Y-105543571D01*
X136569428Y-105043571D02*
X136640857Y-105115000D01*
X136569428Y-105186428D01*
X136497999Y-105115000D01*
X136569428Y-105043571D01*
X136569428Y-105186428D01*
X135212285Y-106543571D02*
X135212285Y-105757857D01*
X135283714Y-105615000D01*
X135426571Y-105543571D01*
X135712285Y-105543571D01*
X135855142Y-105615000D01*
X135212285Y-106472142D02*
X135355142Y-106543571D01*
X135712285Y-106543571D01*
X135855142Y-106472142D01*
X135926571Y-106329285D01*
X135926571Y-106186428D01*
X135855142Y-106043571D01*
X135712285Y-105972142D01*
X135355142Y-105972142D01*
X135212285Y-105900714D01*
X134497999Y-105543571D02*
X134497999Y-106543571D01*
X134497999Y-105686428D02*
X134426571Y-105615000D01*
X134283714Y-105543571D01*
X134069428Y-105543571D01*
X133926571Y-105615000D01*
X133855142Y-105757857D01*
X133855142Y-106543571D01*
X132926571Y-106543571D02*
X133069428Y-106472142D01*
X133140857Y-106329285D01*
X133140857Y-105043571D01*
X131712285Y-105543571D02*
X131712285Y-106543571D01*
X132355142Y-105543571D02*
X132355142Y-106329285D01*
X132283714Y-106472142D01*
X132140857Y-106543571D01*
X131926571Y-106543571D01*
X131783714Y-106472142D01*
X131712285Y-106400714D01*
X130355142Y-106472142D02*
X130497999Y-106543571D01*
X130783714Y-106543571D01*
X130926571Y-106472142D01*
X130997999Y-106400714D01*
X131069428Y-106257857D01*
X131069428Y-105829285D01*
X130997999Y-105686428D01*
X130926571Y-105615000D01*
X130783714Y-105543571D01*
X130497999Y-105543571D01*
X130355142Y-105615000D01*
X129069428Y-106543571D02*
X129069428Y-105757857D01*
X129140857Y-105615000D01*
X129283714Y-105543571D01*
X129569428Y-105543571D01*
X129712285Y-105615000D01*
X129069428Y-106472142D02*
X129212285Y-106543571D01*
X129569428Y-106543571D01*
X129712285Y-106472142D01*
X129783714Y-106329285D01*
X129783714Y-106186428D01*
X129712285Y-106043571D01*
X129569428Y-105972142D01*
X129212285Y-105972142D01*
X129069428Y-105900714D01*
X128355142Y-106543571D02*
X128355142Y-105543571D01*
X128355142Y-105829285D02*
X128283714Y-105686428D01*
X128212285Y-105615000D01*
X128069428Y-105543571D01*
X127926571Y-105543571D01*
X126855142Y-106472142D02*
X126997999Y-106543571D01*
X127283714Y-106543571D01*
X127426571Y-106472142D01*
X127497999Y-106329285D01*
X127497999Y-105757857D01*
X127426571Y-105615000D01*
X127283714Y-105543571D01*
X126997999Y-105543571D01*
X126855142Y-105615000D01*
X126783714Y-105757857D01*
X126783714Y-105900714D01*
X127497999Y-106043571D01*
X126140857Y-105543571D02*
X126140857Y-106543571D01*
X126140857Y-105686428D02*
X126069428Y-105615000D01*
X125926571Y-105543571D01*
X125712285Y-105543571D01*
X125569428Y-105615000D01*
X125497999Y-105757857D01*
X125497999Y-106543571D01*
X124926571Y-105543571D02*
X124140857Y-105543571D01*
X124926571Y-106543571D01*
X124140857Y-106543571D01*
X123569428Y-106543571D02*
X123569428Y-105543571D01*
X123569428Y-105043571D02*
X123640857Y-105115000D01*
X123569428Y-105186428D01*
X123497999Y-105115000D01*
X123569428Y-105043571D01*
X123569428Y-105186428D01*
X121783714Y-104972142D02*
X123069428Y-106900714D01*
X121355142Y-106472142D02*
X121212285Y-106543571D01*
X120926571Y-106543571D01*
X120783714Y-106472142D01*
X120712285Y-106329285D01*
X120712285Y-106257857D01*
X120783714Y-106115000D01*
X120926571Y-106043571D01*
X121140857Y-106043571D01*
X121283714Y-105972142D01*
X121355142Y-105829285D01*
X121355142Y-105757857D01*
X121283714Y-105615000D01*
X121140857Y-105543571D01*
X120926571Y-105543571D01*
X120783714Y-105615000D01*
X120283714Y-105543571D02*
X119712285Y-105543571D01*
X120069428Y-105043571D02*
X120069428Y-106329285D01*
X119997999Y-106472142D01*
X119855142Y-106543571D01*
X119712285Y-106543571D01*
X118569428Y-106543571D02*
X118569428Y-105043571D01*
X118569428Y-106472142D02*
X118712285Y-106543571D01*
X118997999Y-106543571D01*
X119140857Y-106472142D01*
X119212285Y-106400714D01*
X119283714Y-106257857D01*
X119283714Y-105829285D01*
X119212285Y-105686428D01*
X119140857Y-105615000D01*
X118997999Y-105543571D01*
X118712285Y-105543571D01*
X118569428Y-105615000D01*
X117212285Y-105543571D02*
X117212285Y-106543571D01*
X117855142Y-105543571D02*
X117855142Y-106329285D01*
X117783714Y-106472142D01*
X117640857Y-106543571D01*
X117426571Y-106543571D01*
X117283714Y-106472142D01*
X117212285Y-106400714D01*
X116497999Y-106543571D02*
X116497999Y-105543571D01*
X116497999Y-105043571D02*
X116569428Y-105115000D01*
X116497999Y-105186428D01*
X116426571Y-105115000D01*
X116497999Y-105043571D01*
X116497999Y-105186428D01*
X115783714Y-105543571D02*
X115783714Y-106543571D01*
X115783714Y-105686428D02*
X115712285Y-105615000D01*
X115569428Y-105543571D01*
X115355142Y-105543571D01*
X115212285Y-105615000D01*
X115140857Y-105757857D01*
X115140857Y-106543571D01*
X114212285Y-106543571D02*
X114355142Y-106472142D01*
X114426571Y-106400714D01*
X114497999Y-106257857D01*
X114497999Y-105829285D01*
X114426571Y-105686428D01*
X114355142Y-105615000D01*
X114212285Y-105543571D01*
X113997999Y-105543571D01*
X113855142Y-105615000D01*
X113783714Y-105686428D01*
X113712285Y-105829285D01*
X113712285Y-106257857D01*
X113783714Y-106400714D01*
X113855142Y-106472142D01*
X113997999Y-106543571D01*
X114212285Y-106543571D01*
X113283714Y-105543571D02*
X112712285Y-105543571D01*
X113069428Y-106543571D02*
X113069428Y-105257857D01*
X112997999Y-105115000D01*
X112855142Y-105043571D01*
X112712285Y-105043571D01*
X111569428Y-105543571D02*
X111569428Y-106543571D01*
X111926571Y-104972142D02*
X112283714Y-106043571D01*
X111355142Y-106043571D01*
X110855142Y-105186428D02*
X110783714Y-105115000D01*
X110640857Y-105043571D01*
X110283714Y-105043571D01*
X110140857Y-105115000D01*
X110069428Y-105186428D01*
X109997999Y-105329285D01*
X109997999Y-105472142D01*
X110069428Y-105686428D01*
X110926571Y-106543571D01*
X109997999Y-106543571D01*
X109283714Y-106543571D02*
X108997999Y-106543571D01*
X108855142Y-106472142D01*
X108783714Y-106400714D01*
X108640857Y-106186428D01*
X108569428Y-105900714D01*
X108569428Y-105329285D01*
X108640857Y-105186428D01*
X108712285Y-105115000D01*
X108855142Y-105043571D01*
X109140857Y-105043571D01*
X109283714Y-105115000D01*
X109355142Y-105186428D01*
X109426571Y-105329285D01*
X109426571Y-105686428D01*
X109355142Y-105829285D01*
X109283714Y-105900714D01*
X109140857Y-105972142D01*
X108855142Y-105972142D01*
X108712285Y-105900714D01*
X108640857Y-105829285D01*
X108569428Y-105686428D01*
M02*
