%TF.GenerationSoftware,KiCad,Pcbnew,4.0.2+dfsg1-stable*%
%TF.CreationDate,2019-10-19T14:14:11+02:00*%
%TF.ProjectId,stduinof429,73746475696E6F663432392E6B696361,rev?*%
%TF.FileFunction,Legend,Bot*%
%FSLAX46Y46*%
G04 Gerber Fmt 4.6, Leading zero omitted, Abs format (unit mm)*
G04 Created by KiCad (PCBNEW 4.0.2+dfsg1-stable) date Sat 19 Oct 2019 14:14:11 CEST*
%MOMM*%
G01*
G04 APERTURE LIST*
%ADD10C,0.100000*%
%ADD11C,0.300000*%
%ADD12C,0.010000*%
G04 APERTURE END LIST*
D10*
D11*
X93426571Y-86757857D02*
X92426571Y-86757857D01*
X91926571Y-86757857D02*
X91998000Y-86686428D01*
X92069429Y-86757857D01*
X91998000Y-86829285D01*
X91926571Y-86757857D01*
X92069429Y-86757857D01*
X92426571Y-87472143D02*
X93426571Y-87472143D01*
X92569429Y-87472143D02*
X92498000Y-87543571D01*
X92426571Y-87686429D01*
X92426571Y-87900714D01*
X92498000Y-88043571D01*
X92640857Y-88115000D01*
X93426571Y-88115000D01*
X93426571Y-89972143D02*
X92426571Y-89972143D01*
X92569429Y-89972143D02*
X92498000Y-90043571D01*
X92426571Y-90186429D01*
X92426571Y-90400714D01*
X92498000Y-90543571D01*
X92640857Y-90615000D01*
X93426571Y-90615000D01*
X92640857Y-90615000D02*
X92498000Y-90686429D01*
X92426571Y-90829286D01*
X92426571Y-91043571D01*
X92498000Y-91186429D01*
X92640857Y-91257857D01*
X93426571Y-91257857D01*
X93355143Y-92543571D02*
X93426571Y-92400714D01*
X93426571Y-92115000D01*
X93355143Y-91972143D01*
X93212286Y-91900714D01*
X92640857Y-91900714D01*
X92498000Y-91972143D01*
X92426571Y-92115000D01*
X92426571Y-92400714D01*
X92498000Y-92543571D01*
X92640857Y-92615000D01*
X92783714Y-92615000D01*
X92926571Y-91900714D01*
X93426571Y-93257857D02*
X92426571Y-93257857D01*
X92569429Y-93257857D02*
X92498000Y-93329285D01*
X92426571Y-93472143D01*
X92426571Y-93686428D01*
X92498000Y-93829285D01*
X92640857Y-93900714D01*
X93426571Y-93900714D01*
X92640857Y-93900714D02*
X92498000Y-93972143D01*
X92426571Y-94115000D01*
X92426571Y-94329285D01*
X92498000Y-94472143D01*
X92640857Y-94543571D01*
X93426571Y-94543571D01*
X93426571Y-95472143D02*
X93355143Y-95329285D01*
X93283714Y-95257857D01*
X93140857Y-95186428D01*
X92712286Y-95186428D01*
X92569429Y-95257857D01*
X92498000Y-95329285D01*
X92426571Y-95472143D01*
X92426571Y-95686428D01*
X92498000Y-95829285D01*
X92569429Y-95900714D01*
X92712286Y-95972143D01*
X93140857Y-95972143D01*
X93283714Y-95900714D01*
X93355143Y-95829285D01*
X93426571Y-95686428D01*
X93426571Y-95472143D01*
X93426571Y-96615000D02*
X92426571Y-96615000D01*
X92712286Y-96615000D02*
X92569429Y-96686428D01*
X92498000Y-96757857D01*
X92426571Y-96900714D01*
X92426571Y-97043571D01*
X93426571Y-97543571D02*
X92426571Y-97543571D01*
X91926571Y-97543571D02*
X91998000Y-97472142D01*
X92069429Y-97543571D01*
X91998000Y-97614999D01*
X91926571Y-97543571D01*
X92069429Y-97543571D01*
X93426571Y-98900714D02*
X92640857Y-98900714D01*
X92498000Y-98829285D01*
X92426571Y-98686428D01*
X92426571Y-98400714D01*
X92498000Y-98257857D01*
X93355143Y-98900714D02*
X93426571Y-98757857D01*
X93426571Y-98400714D01*
X93355143Y-98257857D01*
X93212286Y-98186428D01*
X93069429Y-98186428D01*
X92926571Y-98257857D01*
X92855143Y-98400714D01*
X92855143Y-98757857D01*
X92783714Y-98900714D01*
X93426571Y-99615000D02*
X92426571Y-99615000D01*
X92569429Y-99615000D02*
X92498000Y-99686428D01*
X92426571Y-99829286D01*
X92426571Y-100043571D01*
X92498000Y-100186428D01*
X92640857Y-100257857D01*
X93426571Y-100257857D01*
X92640857Y-100257857D02*
X92498000Y-100329286D01*
X92426571Y-100472143D01*
X92426571Y-100686428D01*
X92498000Y-100829286D01*
X92640857Y-100900714D01*
X93426571Y-100900714D01*
X92998000Y-102686428D02*
X92998000Y-103400714D01*
X93426571Y-102543571D02*
X91926571Y-103043571D01*
X93426571Y-103543571D01*
X93283714Y-104043571D02*
X93355143Y-104114999D01*
X93426571Y-104043571D01*
X93355143Y-103972142D01*
X93283714Y-104043571D01*
X93426571Y-104043571D01*
X93355143Y-104686428D02*
X93426571Y-104900714D01*
X93426571Y-105257857D01*
X93355143Y-105400714D01*
X93283714Y-105472143D01*
X93140857Y-105543571D01*
X92998000Y-105543571D01*
X92855143Y-105472143D01*
X92783714Y-105400714D01*
X92712286Y-105257857D01*
X92640857Y-104972143D01*
X92569429Y-104829285D01*
X92498000Y-104757857D01*
X92355143Y-104686428D01*
X92212286Y-104686428D01*
X92069429Y-104757857D01*
X91998000Y-104829285D01*
X91926571Y-104972143D01*
X91926571Y-105329285D01*
X91998000Y-105543571D01*
X93283714Y-106186428D02*
X93355143Y-106257856D01*
X93426571Y-106186428D01*
X93355143Y-106114999D01*
X93283714Y-106186428D01*
X93426571Y-106186428D01*
X92855143Y-106900714D02*
X92855143Y-108043571D01*
X91998000Y-109543571D02*
X91926571Y-109400714D01*
X91926571Y-109186428D01*
X91998000Y-108972143D01*
X92140857Y-108829285D01*
X92283714Y-108757857D01*
X92569429Y-108686428D01*
X92783714Y-108686428D01*
X93069429Y-108757857D01*
X93212286Y-108829285D01*
X93355143Y-108972143D01*
X93426571Y-109186428D01*
X93426571Y-109329285D01*
X93355143Y-109543571D01*
X93283714Y-109615000D01*
X92783714Y-109615000D01*
X92783714Y-109329285D01*
X93283714Y-110257857D02*
X93355143Y-110329285D01*
X93426571Y-110257857D01*
X93355143Y-110186428D01*
X93283714Y-110257857D01*
X93426571Y-110257857D01*
X93426571Y-110972143D02*
X91926571Y-110972143D01*
X91926571Y-111329286D01*
X91998000Y-111543571D01*
X92140857Y-111686429D01*
X92283714Y-111757857D01*
X92569429Y-111829286D01*
X92783714Y-111829286D01*
X93069429Y-111757857D01*
X93212286Y-111686429D01*
X93355143Y-111543571D01*
X93426571Y-111329286D01*
X93426571Y-110972143D01*
X93283714Y-112472143D02*
X93355143Y-112543571D01*
X93426571Y-112472143D01*
X93355143Y-112400714D01*
X93283714Y-112472143D01*
X93426571Y-112472143D01*
X161355145Y-106543571D02*
X161355145Y-105043571D01*
X160712288Y-106543571D02*
X160712288Y-105757857D01*
X160783717Y-105615000D01*
X160926574Y-105543571D01*
X161140859Y-105543571D01*
X161283717Y-105615000D01*
X161355145Y-105686429D01*
X160212288Y-105543571D02*
X159640859Y-105543571D01*
X159998002Y-105043571D02*
X159998002Y-106329286D01*
X159926574Y-106472143D01*
X159783716Y-106543571D01*
X159640859Y-106543571D01*
X159355145Y-105543571D02*
X158783716Y-105543571D01*
X159140859Y-105043571D02*
X159140859Y-106329286D01*
X159069431Y-106472143D01*
X158926573Y-106543571D01*
X158783716Y-106543571D01*
X158283716Y-105543571D02*
X158283716Y-107043571D01*
X158283716Y-105615000D02*
X158140859Y-105543571D01*
X157855145Y-105543571D01*
X157712288Y-105615000D01*
X157640859Y-105686429D01*
X157569430Y-105829286D01*
X157569430Y-106257857D01*
X157640859Y-106400714D01*
X157712288Y-106472143D01*
X157855145Y-106543571D01*
X158140859Y-106543571D01*
X158283716Y-106472143D01*
X156998002Y-106472143D02*
X156855145Y-106543571D01*
X156569430Y-106543571D01*
X156426573Y-106472143D01*
X156355145Y-106329286D01*
X156355145Y-106257857D01*
X156426573Y-106115000D01*
X156569430Y-106043571D01*
X156783716Y-106043571D01*
X156926573Y-105972143D01*
X156998002Y-105829286D01*
X156998002Y-105757857D01*
X156926573Y-105615000D01*
X156783716Y-105543571D01*
X156569430Y-105543571D01*
X156426573Y-105615000D01*
X155712287Y-106400714D02*
X155640859Y-106472143D01*
X155712287Y-106543571D01*
X155783716Y-106472143D01*
X155712287Y-106400714D01*
X155712287Y-106543571D01*
X155712287Y-105615000D02*
X155640859Y-105686429D01*
X155712287Y-105757857D01*
X155783716Y-105686429D01*
X155712287Y-105615000D01*
X155712287Y-105757857D01*
X153926573Y-104972143D02*
X155212287Y-106900714D01*
X152355144Y-104972143D02*
X153640858Y-106900714D01*
X151212286Y-105543571D02*
X151212286Y-106757857D01*
X151283715Y-106900714D01*
X151355143Y-106972143D01*
X151498000Y-107043571D01*
X151712286Y-107043571D01*
X151855143Y-106972143D01*
X151212286Y-106472143D02*
X151355143Y-106543571D01*
X151640857Y-106543571D01*
X151783715Y-106472143D01*
X151855143Y-106400714D01*
X151926572Y-106257857D01*
X151926572Y-105829286D01*
X151855143Y-105686429D01*
X151783715Y-105615000D01*
X151640857Y-105543571D01*
X151355143Y-105543571D01*
X151212286Y-105615000D01*
X150498000Y-106543571D02*
X150498000Y-105543571D01*
X150498000Y-105043571D02*
X150569429Y-105115000D01*
X150498000Y-105186429D01*
X150426572Y-105115000D01*
X150498000Y-105043571D01*
X150498000Y-105186429D01*
X149998000Y-105543571D02*
X149426571Y-105543571D01*
X149783714Y-105043571D02*
X149783714Y-106329286D01*
X149712286Y-106472143D01*
X149569428Y-106543571D01*
X149426571Y-106543571D01*
X148926571Y-106543571D02*
X148926571Y-105043571D01*
X148283714Y-106543571D02*
X148283714Y-105757857D01*
X148355143Y-105615000D01*
X148498000Y-105543571D01*
X148712285Y-105543571D01*
X148855143Y-105615000D01*
X148926571Y-105686429D01*
X146926571Y-105543571D02*
X146926571Y-106543571D01*
X147569428Y-105543571D02*
X147569428Y-106329286D01*
X147498000Y-106472143D01*
X147355142Y-106543571D01*
X147140857Y-106543571D01*
X146998000Y-106472143D01*
X146926571Y-106400714D01*
X146212285Y-106543571D02*
X146212285Y-105043571D01*
X146212285Y-105615000D02*
X146069428Y-105543571D01*
X145783714Y-105543571D01*
X145640857Y-105615000D01*
X145569428Y-105686429D01*
X145497999Y-105829286D01*
X145497999Y-106257857D01*
X145569428Y-106400714D01*
X145640857Y-106472143D01*
X145783714Y-106543571D01*
X146069428Y-106543571D01*
X146212285Y-106472143D01*
X144855142Y-106400714D02*
X144783714Y-106472143D01*
X144855142Y-106543571D01*
X144926571Y-106472143D01*
X144855142Y-106400714D01*
X144855142Y-106543571D01*
X143497999Y-106472143D02*
X143640856Y-106543571D01*
X143926570Y-106543571D01*
X144069428Y-106472143D01*
X144140856Y-106400714D01*
X144212285Y-106257857D01*
X144212285Y-105829286D01*
X144140856Y-105686429D01*
X144069428Y-105615000D01*
X143926570Y-105543571D01*
X143640856Y-105543571D01*
X143497999Y-105615000D01*
X142640856Y-106543571D02*
X142783714Y-106472143D01*
X142855142Y-106400714D01*
X142926571Y-106257857D01*
X142926571Y-105829286D01*
X142855142Y-105686429D01*
X142783714Y-105615000D01*
X142640856Y-105543571D01*
X142426571Y-105543571D01*
X142283714Y-105615000D01*
X142212285Y-105686429D01*
X142140856Y-105829286D01*
X142140856Y-106257857D01*
X142212285Y-106400714D01*
X142283714Y-106472143D01*
X142426571Y-106543571D01*
X142640856Y-106543571D01*
X141497999Y-106543571D02*
X141497999Y-105543571D01*
X141497999Y-105686429D02*
X141426571Y-105615000D01*
X141283713Y-105543571D01*
X141069428Y-105543571D01*
X140926571Y-105615000D01*
X140855142Y-105757857D01*
X140855142Y-106543571D01*
X140855142Y-105757857D02*
X140783713Y-105615000D01*
X140640856Y-105543571D01*
X140426571Y-105543571D01*
X140283713Y-105615000D01*
X140212285Y-105757857D01*
X140212285Y-106543571D01*
X138426571Y-104972143D02*
X139712285Y-106900714D01*
X137283713Y-105543571D02*
X137283713Y-106757857D01*
X137355142Y-106900714D01*
X137426570Y-106972143D01*
X137569427Y-107043571D01*
X137783713Y-107043571D01*
X137926570Y-106972143D01*
X137283713Y-106472143D02*
X137426570Y-106543571D01*
X137712284Y-106543571D01*
X137855142Y-106472143D01*
X137926570Y-106400714D01*
X137997999Y-106257857D01*
X137997999Y-105829286D01*
X137926570Y-105686429D01*
X137855142Y-105615000D01*
X137712284Y-105543571D01*
X137426570Y-105543571D01*
X137283713Y-105615000D01*
X136569427Y-106543571D02*
X136569427Y-105543571D01*
X136569427Y-105043571D02*
X136640856Y-105115000D01*
X136569427Y-105186429D01*
X136497999Y-105115000D01*
X136569427Y-105043571D01*
X136569427Y-105186429D01*
X135212284Y-106543571D02*
X135212284Y-105757857D01*
X135283713Y-105615000D01*
X135426570Y-105543571D01*
X135712284Y-105543571D01*
X135855141Y-105615000D01*
X135212284Y-106472143D02*
X135355141Y-106543571D01*
X135712284Y-106543571D01*
X135855141Y-106472143D01*
X135926570Y-106329286D01*
X135926570Y-106186429D01*
X135855141Y-106043571D01*
X135712284Y-105972143D01*
X135355141Y-105972143D01*
X135212284Y-105900714D01*
X134497998Y-105543571D02*
X134497998Y-106543571D01*
X134497998Y-105686429D02*
X134426570Y-105615000D01*
X134283712Y-105543571D01*
X134069427Y-105543571D01*
X133926570Y-105615000D01*
X133855141Y-105757857D01*
X133855141Y-106543571D01*
X132926569Y-106543571D02*
X133069427Y-106472143D01*
X133140855Y-106329286D01*
X133140855Y-105043571D01*
X131712284Y-105543571D02*
X131712284Y-106543571D01*
X132355141Y-105543571D02*
X132355141Y-106329286D01*
X132283713Y-106472143D01*
X132140855Y-106543571D01*
X131926570Y-106543571D01*
X131783713Y-106472143D01*
X131712284Y-106400714D01*
X130355141Y-106472143D02*
X130497998Y-106543571D01*
X130783712Y-106543571D01*
X130926570Y-106472143D01*
X130997998Y-106400714D01*
X131069427Y-106257857D01*
X131069427Y-105829286D01*
X130997998Y-105686429D01*
X130926570Y-105615000D01*
X130783712Y-105543571D01*
X130497998Y-105543571D01*
X130355141Y-105615000D01*
X129069427Y-106543571D02*
X129069427Y-105757857D01*
X129140856Y-105615000D01*
X129283713Y-105543571D01*
X129569427Y-105543571D01*
X129712284Y-105615000D01*
X129069427Y-106472143D02*
X129212284Y-106543571D01*
X129569427Y-106543571D01*
X129712284Y-106472143D01*
X129783713Y-106329286D01*
X129783713Y-106186429D01*
X129712284Y-106043571D01*
X129569427Y-105972143D01*
X129212284Y-105972143D01*
X129069427Y-105900714D01*
X128355141Y-106543571D02*
X128355141Y-105543571D01*
X128355141Y-105829286D02*
X128283713Y-105686429D01*
X128212284Y-105615000D01*
X128069427Y-105543571D01*
X127926570Y-105543571D01*
X126855142Y-106472143D02*
X126997999Y-106543571D01*
X127283713Y-106543571D01*
X127426570Y-106472143D01*
X127497999Y-106329286D01*
X127497999Y-105757857D01*
X127426570Y-105615000D01*
X127283713Y-105543571D01*
X126997999Y-105543571D01*
X126855142Y-105615000D01*
X126783713Y-105757857D01*
X126783713Y-105900714D01*
X127497999Y-106043571D01*
X126140856Y-105543571D02*
X126140856Y-106543571D01*
X126140856Y-105686429D02*
X126069428Y-105615000D01*
X125926570Y-105543571D01*
X125712285Y-105543571D01*
X125569428Y-105615000D01*
X125497999Y-105757857D01*
X125497999Y-106543571D01*
X124926570Y-105543571D02*
X124140856Y-105543571D01*
X124926570Y-106543571D01*
X124140856Y-106543571D01*
X123569427Y-106543571D02*
X123569427Y-105543571D01*
X123569427Y-105043571D02*
X123640856Y-105115000D01*
X123569427Y-105186429D01*
X123497999Y-105115000D01*
X123569427Y-105043571D01*
X123569427Y-105186429D01*
X121783713Y-104972143D02*
X123069427Y-106900714D01*
X121355141Y-106472143D02*
X121212284Y-106543571D01*
X120926569Y-106543571D01*
X120783712Y-106472143D01*
X120712284Y-106329286D01*
X120712284Y-106257857D01*
X120783712Y-106115000D01*
X120926569Y-106043571D01*
X121140855Y-106043571D01*
X121283712Y-105972143D01*
X121355141Y-105829286D01*
X121355141Y-105757857D01*
X121283712Y-105615000D01*
X121140855Y-105543571D01*
X120926569Y-105543571D01*
X120783712Y-105615000D01*
X120283712Y-105543571D02*
X119712283Y-105543571D01*
X120069426Y-105043571D02*
X120069426Y-106329286D01*
X119997998Y-106472143D01*
X119855140Y-106543571D01*
X119712283Y-106543571D01*
X118569426Y-106543571D02*
X118569426Y-105043571D01*
X118569426Y-106472143D02*
X118712283Y-106543571D01*
X118997997Y-106543571D01*
X119140855Y-106472143D01*
X119212283Y-106400714D01*
X119283712Y-106257857D01*
X119283712Y-105829286D01*
X119212283Y-105686429D01*
X119140855Y-105615000D01*
X118997997Y-105543571D01*
X118712283Y-105543571D01*
X118569426Y-105615000D01*
X117212283Y-105543571D02*
X117212283Y-106543571D01*
X117855140Y-105543571D02*
X117855140Y-106329286D01*
X117783712Y-106472143D01*
X117640854Y-106543571D01*
X117426569Y-106543571D01*
X117283712Y-106472143D01*
X117212283Y-106400714D01*
X116497997Y-106543571D02*
X116497997Y-105543571D01*
X116497997Y-105043571D02*
X116569426Y-105115000D01*
X116497997Y-105186429D01*
X116426569Y-105115000D01*
X116497997Y-105043571D01*
X116497997Y-105186429D01*
X115783711Y-105543571D02*
X115783711Y-106543571D01*
X115783711Y-105686429D02*
X115712283Y-105615000D01*
X115569425Y-105543571D01*
X115355140Y-105543571D01*
X115212283Y-105615000D01*
X115140854Y-105757857D01*
X115140854Y-106543571D01*
X114212282Y-106543571D02*
X114355140Y-106472143D01*
X114426568Y-106400714D01*
X114497997Y-106257857D01*
X114497997Y-105829286D01*
X114426568Y-105686429D01*
X114355140Y-105615000D01*
X114212282Y-105543571D01*
X113997997Y-105543571D01*
X113855140Y-105615000D01*
X113783711Y-105686429D01*
X113712282Y-105829286D01*
X113712282Y-106257857D01*
X113783711Y-106400714D01*
X113855140Y-106472143D01*
X113997997Y-106543571D01*
X114212282Y-106543571D01*
X113283711Y-105543571D02*
X112712282Y-105543571D01*
X113069425Y-106543571D02*
X113069425Y-105257857D01*
X112997997Y-105115000D01*
X112855139Y-105043571D01*
X112712282Y-105043571D01*
X111569425Y-105543571D02*
X111569425Y-106543571D01*
X111926568Y-104972143D02*
X112283711Y-106043571D01*
X111355139Y-106043571D01*
X110855140Y-105186429D02*
X110783711Y-105115000D01*
X110640854Y-105043571D01*
X110283711Y-105043571D01*
X110140854Y-105115000D01*
X110069425Y-105186429D01*
X109997997Y-105329286D01*
X109997997Y-105472143D01*
X110069425Y-105686429D01*
X110926568Y-106543571D01*
X109997997Y-106543571D01*
X109283712Y-106543571D02*
X108997997Y-106543571D01*
X108855140Y-106472143D01*
X108783712Y-106400714D01*
X108640854Y-106186429D01*
X108569426Y-105900714D01*
X108569426Y-105329286D01*
X108640854Y-105186429D01*
X108712283Y-105115000D01*
X108855140Y-105043571D01*
X109140854Y-105043571D01*
X109283712Y-105115000D01*
X109355140Y-105186429D01*
X109426569Y-105329286D01*
X109426569Y-105686429D01*
X109355140Y-105829286D01*
X109283712Y-105900714D01*
X109140854Y-105972143D01*
X108855140Y-105972143D01*
X108712283Y-105900714D01*
X108640854Y-105829286D01*
X108569426Y-105686429D01*
D12*
G36*
X161826100Y-102226903D02*
X161714550Y-102282522D01*
X161616092Y-102384931D01*
X161588977Y-102422864D01*
X161559438Y-102472500D01*
X161540272Y-102526412D01*
X161529307Y-102598364D01*
X161524371Y-102702122D01*
X161523287Y-102839101D01*
X161528182Y-103026815D01*
X161545196Y-103167758D01*
X161577823Y-103272908D01*
X161629558Y-103353243D01*
X161703896Y-103419741D01*
X161709358Y-103423678D01*
X161782620Y-103463953D01*
X161870840Y-103483880D01*
X161983038Y-103488793D01*
X162165433Y-103488793D01*
X162165509Y-103665857D01*
X162167207Y-103764470D01*
X162177550Y-103822314D01*
X162204578Y-103857006D01*
X162256332Y-103886164D01*
X162268761Y-103892121D01*
X162326923Y-103920039D01*
X162371956Y-103937672D01*
X162405441Y-103939194D01*
X162428962Y-103918781D01*
X162444100Y-103870607D01*
X162452437Y-103788846D01*
X162455556Y-103667672D01*
X162455040Y-103501260D01*
X162452471Y-103283785D01*
X162451668Y-103218736D01*
X162448778Y-102994502D01*
X162446188Y-102847821D01*
X162165586Y-102847821D01*
X162164009Y-102972326D01*
X162157000Y-103053787D01*
X162141142Y-103107515D01*
X162113019Y-103148823D01*
X162093925Y-103168971D01*
X162015865Y-103227921D01*
X161946753Y-103232720D01*
X161875440Y-103184038D01*
X161873632Y-103182241D01*
X161844617Y-103144618D01*
X161826967Y-103093484D01*
X161818064Y-103014738D01*
X161815291Y-102894276D01*
X161815241Y-102867588D01*
X161821942Y-102701583D01*
X161843752Y-102586505D01*
X161883235Y-102516254D01*
X161942956Y-102484729D01*
X161977472Y-102481552D01*
X162059389Y-102496460D01*
X162115579Y-102545548D01*
X162149402Y-102635362D01*
X162164220Y-102772445D01*
X162165586Y-102847821D01*
X162446188Y-102847821D01*
X162445713Y-102820952D01*
X162441753Y-102690382D01*
X162436174Y-102595087D01*
X162428254Y-102527364D01*
X162417269Y-102479507D01*
X162402499Y-102443813D01*
X162383218Y-102412578D01*
X162374951Y-102400824D01*
X162265288Y-102289797D01*
X162126635Y-102226847D01*
X161966246Y-102209297D01*
X161826100Y-102226903D01*
X161826100Y-102226903D01*
G37*
X161826100Y-102226903D02*
X161714550Y-102282522D01*
X161616092Y-102384931D01*
X161588977Y-102422864D01*
X161559438Y-102472500D01*
X161540272Y-102526412D01*
X161529307Y-102598364D01*
X161524371Y-102702122D01*
X161523287Y-102839101D01*
X161528182Y-103026815D01*
X161545196Y-103167758D01*
X161577823Y-103272908D01*
X161629558Y-103353243D01*
X161703896Y-103419741D01*
X161709358Y-103423678D01*
X161782620Y-103463953D01*
X161870840Y-103483880D01*
X161983038Y-103488793D01*
X162165433Y-103488793D01*
X162165509Y-103665857D01*
X162167207Y-103764470D01*
X162177550Y-103822314D01*
X162204578Y-103857006D01*
X162256332Y-103886164D01*
X162268761Y-103892121D01*
X162326923Y-103920039D01*
X162371956Y-103937672D01*
X162405441Y-103939194D01*
X162428962Y-103918781D01*
X162444100Y-103870607D01*
X162452437Y-103788846D01*
X162455556Y-103667672D01*
X162455040Y-103501260D01*
X162452471Y-103283785D01*
X162451668Y-103218736D01*
X162448778Y-102994502D01*
X162446188Y-102847821D01*
X162165586Y-102847821D01*
X162164009Y-102972326D01*
X162157000Y-103053787D01*
X162141142Y-103107515D01*
X162113019Y-103148823D01*
X162093925Y-103168971D01*
X162015865Y-103227921D01*
X161946753Y-103232720D01*
X161875440Y-103184038D01*
X161873632Y-103182241D01*
X161844617Y-103144618D01*
X161826967Y-103093484D01*
X161818064Y-103014738D01*
X161815291Y-102894276D01*
X161815241Y-102867588D01*
X161821942Y-102701583D01*
X161843752Y-102586505D01*
X161883235Y-102516254D01*
X161942956Y-102484729D01*
X161977472Y-102481552D01*
X162059389Y-102496460D01*
X162115579Y-102545548D01*
X162149402Y-102635362D01*
X162164220Y-102772445D01*
X162165586Y-102847821D01*
X162446188Y-102847821D01*
X162445713Y-102820952D01*
X162441753Y-102690382D01*
X162436174Y-102595087D01*
X162428254Y-102527364D01*
X162417269Y-102479507D01*
X162402499Y-102443813D01*
X162383218Y-102412578D01*
X162374951Y-102400824D01*
X162265288Y-102289797D01*
X162126635Y-102226847D01*
X161966246Y-102209297D01*
X161826100Y-102226903D01*
G36*
X159580571Y-102242719D02*
X159486877Y-102296914D01*
X159421736Y-102350707D01*
X159374093Y-102407066D01*
X159341272Y-102475987D01*
X159320594Y-102567468D01*
X159309380Y-102691506D01*
X159304951Y-102858098D01*
X159304437Y-102977851D01*
X159304437Y-103418659D01*
X159428517Y-103474283D01*
X159552598Y-103529907D01*
X159567195Y-103047095D01*
X159573227Y-102866779D01*
X159579555Y-102735901D01*
X159587394Y-102645511D01*
X159597963Y-102586664D01*
X159612477Y-102550413D01*
X159632152Y-102527810D01*
X159638465Y-102522917D01*
X159734112Y-102484706D01*
X159830793Y-102499827D01*
X159888345Y-102539943D01*
X159911755Y-102568370D01*
X159927961Y-102605672D01*
X159938259Y-102662223D01*
X159943951Y-102748394D01*
X159946336Y-102874558D01*
X159946736Y-103006042D01*
X159946814Y-103170999D01*
X159949639Y-103287761D01*
X159959093Y-103366510D01*
X159979060Y-103417431D01*
X160013424Y-103450706D01*
X160066068Y-103476520D01*
X160136383Y-103503344D01*
X160213180Y-103532542D01*
X160204038Y-103014346D01*
X160200357Y-102827539D01*
X160196050Y-102689490D01*
X160189877Y-102590568D01*
X160180598Y-102521145D01*
X160166973Y-102471590D01*
X160147761Y-102432273D01*
X160124598Y-102397584D01*
X160012848Y-102286770D01*
X159876487Y-102222689D01*
X159728175Y-102207339D01*
X159580571Y-102242719D01*
X159580571Y-102242719D01*
G37*
X159580571Y-102242719D02*
X159486877Y-102296914D01*
X159421736Y-102350707D01*
X159374093Y-102407066D01*
X159341272Y-102475987D01*
X159320594Y-102567468D01*
X159309380Y-102691506D01*
X159304951Y-102858098D01*
X159304437Y-102977851D01*
X159304437Y-103418659D01*
X159428517Y-103474283D01*
X159552598Y-103529907D01*
X159567195Y-103047095D01*
X159573227Y-102866779D01*
X159579555Y-102735901D01*
X159587394Y-102645511D01*
X159597963Y-102586664D01*
X159612477Y-102550413D01*
X159632152Y-102527810D01*
X159638465Y-102522917D01*
X159734112Y-102484706D01*
X159830793Y-102499827D01*
X159888345Y-102539943D01*
X159911755Y-102568370D01*
X159927961Y-102605672D01*
X159938259Y-102662223D01*
X159943951Y-102748394D01*
X159946336Y-102874558D01*
X159946736Y-103006042D01*
X159946814Y-103170999D01*
X159949639Y-103287761D01*
X159959093Y-103366510D01*
X159979060Y-103417431D01*
X160013424Y-103450706D01*
X160066068Y-103476520D01*
X160136383Y-103503344D01*
X160213180Y-103532542D01*
X160204038Y-103014346D01*
X160200357Y-102827539D01*
X160196050Y-102689490D01*
X160189877Y-102590568D01*
X160180598Y-102521145D01*
X160166973Y-102471590D01*
X160147761Y-102432273D01*
X160124598Y-102397584D01*
X160012848Y-102286770D01*
X159876487Y-102222689D01*
X159728175Y-102207339D01*
X159580571Y-102242719D01*
G36*
X162949779Y-102231015D02*
X162812939Y-102302968D01*
X162711949Y-102418766D01*
X162676075Y-102493213D01*
X162648161Y-102604992D01*
X162633871Y-102746227D01*
X162632516Y-102900371D01*
X162643405Y-103050879D01*
X162665847Y-103181205D01*
X162699150Y-103274803D01*
X162709385Y-103290922D01*
X162830618Y-103411249D01*
X162974613Y-103483317D01*
X163130861Y-103504408D01*
X163288852Y-103471802D01*
X163332820Y-103452253D01*
X163418444Y-103392012D01*
X163493592Y-103312135D01*
X163500694Y-103302004D01*
X163529561Y-103253181D01*
X163548643Y-103200990D01*
X163559916Y-103132285D01*
X163565355Y-103033918D01*
X163566938Y-102892744D01*
X163566965Y-102861092D01*
X163566893Y-102851019D01*
X163275011Y-102851019D01*
X163273313Y-102984256D01*
X163266628Y-103072674D01*
X163252575Y-103129785D01*
X163228771Y-103169102D01*
X163216621Y-103182241D01*
X163146764Y-103232172D01*
X163078941Y-103229895D01*
X163010365Y-103186584D01*
X162969465Y-103140346D01*
X162945242Y-103072857D01*
X162931639Y-102966433D01*
X162930706Y-102954020D01*
X162928384Y-102761147D01*
X162952650Y-102617900D01*
X163003176Y-102525160D01*
X163079632Y-102483807D01*
X163106924Y-102481552D01*
X163178589Y-102492893D01*
X163227610Y-102532184D01*
X163257582Y-102607326D01*
X163272101Y-102726222D01*
X163275011Y-102851019D01*
X163566893Y-102851019D01*
X163565878Y-102710659D01*
X163561312Y-102605549D01*
X163551312Y-102532714D01*
X163533921Y-102479108D01*
X163507184Y-102431681D01*
X163501276Y-102422864D01*
X163401968Y-102304007D01*
X163293758Y-102235008D01*
X163162019Y-102207619D01*
X163117283Y-102206281D01*
X162949779Y-102231015D01*
X162949779Y-102231015D01*
G37*
X162949779Y-102231015D02*
X162812939Y-102302968D01*
X162711949Y-102418766D01*
X162676075Y-102493213D01*
X162648161Y-102604992D01*
X162633871Y-102746227D01*
X162632516Y-102900371D01*
X162643405Y-103050879D01*
X162665847Y-103181205D01*
X162699150Y-103274803D01*
X162709385Y-103290922D01*
X162830618Y-103411249D01*
X162974613Y-103483317D01*
X163130861Y-103504408D01*
X163288852Y-103471802D01*
X163332820Y-103452253D01*
X163418444Y-103392012D01*
X163493592Y-103312135D01*
X163500694Y-103302004D01*
X163529561Y-103253181D01*
X163548643Y-103200990D01*
X163559916Y-103132285D01*
X163565355Y-103033918D01*
X163566938Y-102892744D01*
X163566965Y-102861092D01*
X163566893Y-102851019D01*
X163275011Y-102851019D01*
X163273313Y-102984256D01*
X163266628Y-103072674D01*
X163252575Y-103129785D01*
X163228771Y-103169102D01*
X163216621Y-103182241D01*
X163146764Y-103232172D01*
X163078941Y-103229895D01*
X163010365Y-103186584D01*
X162969465Y-103140346D01*
X162945242Y-103072857D01*
X162931639Y-102966433D01*
X162930706Y-102954020D01*
X162928384Y-102761147D01*
X162952650Y-102617900D01*
X163003176Y-102525160D01*
X163079632Y-102483807D01*
X163106924Y-102481552D01*
X163178589Y-102492893D01*
X163227610Y-102532184D01*
X163257582Y-102607326D01*
X163272101Y-102726222D01*
X163275011Y-102851019D01*
X163566893Y-102851019D01*
X163565878Y-102710659D01*
X163561312Y-102605549D01*
X163551312Y-102532714D01*
X163533921Y-102479108D01*
X163507184Y-102431681D01*
X163501276Y-102422864D01*
X163401968Y-102304007D01*
X163293758Y-102235008D01*
X163162019Y-102207619D01*
X163117283Y-102206281D01*
X162949779Y-102231015D01*
G36*
X160682448Y-102249676D02*
X160567342Y-102327111D01*
X160478389Y-102438949D01*
X160425251Y-102581265D01*
X160414503Y-102686015D01*
X160415724Y-102729726D01*
X160425944Y-102763194D01*
X160454039Y-102793179D01*
X160508884Y-102826440D01*
X160599355Y-102869738D01*
X160734328Y-102929833D01*
X160735011Y-102930134D01*
X160859249Y-102987037D01*
X160961127Y-103037565D01*
X161030233Y-103076280D01*
X161056154Y-103097740D01*
X161056161Y-103097913D01*
X161033315Y-103144644D01*
X160979891Y-103196154D01*
X160918558Y-103233261D01*
X160887485Y-103240632D01*
X160802711Y-103215138D01*
X160729707Y-103151291D01*
X160694087Y-103081094D01*
X160659820Y-103029343D01*
X160592697Y-102970409D01*
X160513792Y-102919496D01*
X160444179Y-102891809D01*
X160429623Y-102890287D01*
X160413237Y-102915321D01*
X160412250Y-102979311D01*
X160424292Y-103065593D01*
X160446993Y-103157501D01*
X160477986Y-103238369D01*
X160479552Y-103241509D01*
X160572819Y-103371734D01*
X160693696Y-103460311D01*
X160830973Y-103503786D01*
X160973440Y-103498706D01*
X161109888Y-103441616D01*
X161115955Y-103437602D01*
X161223290Y-103340326D01*
X161293868Y-103213409D01*
X161332926Y-103046526D01*
X161338168Y-102999639D01*
X161347452Y-102778329D01*
X161336322Y-102675124D01*
X161056161Y-102675124D01*
X161052521Y-102739503D01*
X161032611Y-102758291D01*
X160982974Y-102744235D01*
X160904733Y-102711009D01*
X160817274Y-102669359D01*
X160815101Y-102668256D01*
X160740970Y-102629265D01*
X160711219Y-102603244D01*
X160718555Y-102575965D01*
X160749447Y-102540121D01*
X160828040Y-102488251D01*
X160912677Y-102484439D01*
X160988597Y-102522189D01*
X161041035Y-102595001D01*
X161056161Y-102675124D01*
X161336322Y-102675124D01*
X161328356Y-102601261D01*
X161279366Y-102460829D01*
X161211164Y-102362447D01*
X161088065Y-102263030D01*
X160952472Y-102213711D01*
X160814045Y-102210568D01*
X160682448Y-102249676D01*
X160682448Y-102249676D01*
G37*
X160682448Y-102249676D02*
X160567342Y-102327111D01*
X160478389Y-102438949D01*
X160425251Y-102581265D01*
X160414503Y-102686015D01*
X160415724Y-102729726D01*
X160425944Y-102763194D01*
X160454039Y-102793179D01*
X160508884Y-102826440D01*
X160599355Y-102869738D01*
X160734328Y-102929833D01*
X160735011Y-102930134D01*
X160859249Y-102987037D01*
X160961127Y-103037565D01*
X161030233Y-103076280D01*
X161056154Y-103097740D01*
X161056161Y-103097913D01*
X161033315Y-103144644D01*
X160979891Y-103196154D01*
X160918558Y-103233261D01*
X160887485Y-103240632D01*
X160802711Y-103215138D01*
X160729707Y-103151291D01*
X160694087Y-103081094D01*
X160659820Y-103029343D01*
X160592697Y-102970409D01*
X160513792Y-102919496D01*
X160444179Y-102891809D01*
X160429623Y-102890287D01*
X160413237Y-102915321D01*
X160412250Y-102979311D01*
X160424292Y-103065593D01*
X160446993Y-103157501D01*
X160477986Y-103238369D01*
X160479552Y-103241509D01*
X160572819Y-103371734D01*
X160693696Y-103460311D01*
X160830973Y-103503786D01*
X160973440Y-103498706D01*
X161109888Y-103441616D01*
X161115955Y-103437602D01*
X161223290Y-103340326D01*
X161293868Y-103213409D01*
X161332926Y-103046526D01*
X161338168Y-102999639D01*
X161347452Y-102778329D01*
X161336322Y-102675124D01*
X161056161Y-102675124D01*
X161052521Y-102739503D01*
X161032611Y-102758291D01*
X160982974Y-102744235D01*
X160904733Y-102711009D01*
X160817274Y-102669359D01*
X160815101Y-102668256D01*
X160740970Y-102629265D01*
X160711219Y-102603244D01*
X160718555Y-102575965D01*
X160749447Y-102540121D01*
X160828040Y-102488251D01*
X160912677Y-102484439D01*
X160988597Y-102522189D01*
X161041035Y-102595001D01*
X161056161Y-102675124D01*
X161336322Y-102675124D01*
X161328356Y-102601261D01*
X161279366Y-102460829D01*
X161211164Y-102362447D01*
X161088065Y-102263030D01*
X160952472Y-102213711D01*
X160814045Y-102210568D01*
X160682448Y-102249676D01*
G36*
X158253402Y-102088857D02*
X158244846Y-102208188D01*
X158235019Y-102278506D01*
X158221401Y-102309179D01*
X158201473Y-102309571D01*
X158195011Y-102305910D01*
X158109060Y-102279398D01*
X157997255Y-102280946D01*
X157883586Y-102308199D01*
X157812490Y-102343455D01*
X157739595Y-102399778D01*
X157686307Y-102463519D01*
X157649725Y-102544510D01*
X157626950Y-102652586D01*
X157615081Y-102797580D01*
X157611218Y-102989326D01*
X157611149Y-103026109D01*
X157611103Y-103439288D01*
X157703046Y-103471339D01*
X157768348Y-103493144D01*
X157804176Y-103503297D01*
X157805230Y-103503391D01*
X157808758Y-103475860D01*
X157811761Y-103399923D01*
X157814010Y-103285565D01*
X157815276Y-103142769D01*
X157815471Y-103055951D01*
X157815877Y-102884773D01*
X157817968Y-102762088D01*
X157823053Y-102678000D01*
X157832440Y-102622614D01*
X157847439Y-102586032D01*
X157869358Y-102558359D01*
X157883043Y-102545032D01*
X157977051Y-102491328D01*
X158079636Y-102487307D01*
X158172710Y-102532725D01*
X158189922Y-102549123D01*
X158215168Y-102579957D01*
X158232680Y-102616531D01*
X158243858Y-102669415D01*
X158250104Y-102749177D01*
X158252818Y-102866385D01*
X158253402Y-103027991D01*
X158253402Y-103439288D01*
X158345345Y-103471339D01*
X158410647Y-103493144D01*
X158446475Y-103503297D01*
X158447529Y-103503391D01*
X158450225Y-103475448D01*
X158452655Y-103396630D01*
X158454722Y-103274453D01*
X158456329Y-103116432D01*
X158457377Y-102930083D01*
X158457769Y-102722920D01*
X158457770Y-102713706D01*
X158457770Y-101924020D01*
X158362885Y-101883997D01*
X158268000Y-101843973D01*
X158253402Y-102088857D01*
X158253402Y-102088857D01*
G37*
X158253402Y-102088857D02*
X158244846Y-102208188D01*
X158235019Y-102278506D01*
X158221401Y-102309179D01*
X158201473Y-102309571D01*
X158195011Y-102305910D01*
X158109060Y-102279398D01*
X157997255Y-102280946D01*
X157883586Y-102308199D01*
X157812490Y-102343455D01*
X157739595Y-102399778D01*
X157686307Y-102463519D01*
X157649725Y-102544510D01*
X157626950Y-102652586D01*
X157615081Y-102797580D01*
X157611218Y-102989326D01*
X157611149Y-103026109D01*
X157611103Y-103439288D01*
X157703046Y-103471339D01*
X157768348Y-103493144D01*
X157804176Y-103503297D01*
X157805230Y-103503391D01*
X157808758Y-103475860D01*
X157811761Y-103399923D01*
X157814010Y-103285565D01*
X157815276Y-103142769D01*
X157815471Y-103055951D01*
X157815877Y-102884773D01*
X157817968Y-102762088D01*
X157823053Y-102678000D01*
X157832440Y-102622614D01*
X157847439Y-102586032D01*
X157869358Y-102558359D01*
X157883043Y-102545032D01*
X157977051Y-102491328D01*
X158079636Y-102487307D01*
X158172710Y-102532725D01*
X158189922Y-102549123D01*
X158215168Y-102579957D01*
X158232680Y-102616531D01*
X158243858Y-102669415D01*
X158250104Y-102749177D01*
X158252818Y-102866385D01*
X158253402Y-103027991D01*
X158253402Y-103439288D01*
X158345345Y-103471339D01*
X158410647Y-103493144D01*
X158446475Y-103503297D01*
X158447529Y-103503391D01*
X158450225Y-103475448D01*
X158452655Y-103396630D01*
X158454722Y-103274453D01*
X158456329Y-103116432D01*
X158457377Y-102930083D01*
X158457769Y-102722920D01*
X158457770Y-102713706D01*
X158457770Y-101924020D01*
X158362885Y-101883997D01*
X158268000Y-101843973D01*
X158253402Y-102088857D01*
G36*
X156918056Y-102289360D02*
X156803657Y-102331842D01*
X156802348Y-102332658D01*
X156731597Y-102384730D01*
X156679364Y-102445584D01*
X156642629Y-102524887D01*
X156618366Y-102632309D01*
X156603555Y-102777517D01*
X156595171Y-102970179D01*
X156594436Y-102997628D01*
X156583880Y-103411521D01*
X156672709Y-103457456D01*
X156736982Y-103488498D01*
X156775790Y-103503206D01*
X156777585Y-103503391D01*
X156784300Y-103476250D01*
X156789635Y-103403041D01*
X156792917Y-103296081D01*
X156793632Y-103209469D01*
X156793649Y-103069162D01*
X156800063Y-102981051D01*
X156822420Y-102939025D01*
X156870268Y-102936975D01*
X156953151Y-102968790D01*
X157078287Y-103027272D01*
X157170303Y-103075845D01*
X157217629Y-103117986D01*
X157231542Y-103163916D01*
X157231563Y-103166189D01*
X157208605Y-103245311D01*
X157140630Y-103288055D01*
X157036602Y-103294246D01*
X156961670Y-103293172D01*
X156922161Y-103314753D01*
X156897522Y-103366591D01*
X156883341Y-103432632D01*
X156903777Y-103470104D01*
X156911472Y-103475467D01*
X156983917Y-103497006D01*
X157085367Y-103500055D01*
X157189843Y-103485778D01*
X157263875Y-103459688D01*
X157366228Y-103372785D01*
X157424409Y-103251816D01*
X157435931Y-103157308D01*
X157427138Y-103072062D01*
X157395320Y-103002476D01*
X157332316Y-102940672D01*
X157229969Y-102878772D01*
X157080118Y-102808897D01*
X157070988Y-102804948D01*
X156936003Y-102742588D01*
X156852706Y-102691446D01*
X156817003Y-102645488D01*
X156824797Y-102598683D01*
X156871993Y-102544998D01*
X156886106Y-102532644D01*
X156980641Y-102484741D01*
X157078594Y-102486758D01*
X157163903Y-102533724D01*
X157220504Y-102620669D01*
X157225763Y-102637734D01*
X157276977Y-102720504D01*
X157341963Y-102760372D01*
X157435931Y-102799882D01*
X157435931Y-102697658D01*
X157407347Y-102549072D01*
X157322505Y-102412784D01*
X157278355Y-102367191D01*
X157177995Y-102308674D01*
X157050365Y-102282184D01*
X156918056Y-102289360D01*
X156918056Y-102289360D01*
G37*
X156918056Y-102289360D02*
X156803657Y-102331842D01*
X156802348Y-102332658D01*
X156731597Y-102384730D01*
X156679364Y-102445584D01*
X156642629Y-102524887D01*
X156618366Y-102632309D01*
X156603555Y-102777517D01*
X156595171Y-102970179D01*
X156594436Y-102997628D01*
X156583880Y-103411521D01*
X156672709Y-103457456D01*
X156736982Y-103488498D01*
X156775790Y-103503206D01*
X156777585Y-103503391D01*
X156784300Y-103476250D01*
X156789635Y-103403041D01*
X156792917Y-103296081D01*
X156793632Y-103209469D01*
X156793649Y-103069162D01*
X156800063Y-102981051D01*
X156822420Y-102939025D01*
X156870268Y-102936975D01*
X156953151Y-102968790D01*
X157078287Y-103027272D01*
X157170303Y-103075845D01*
X157217629Y-103117986D01*
X157231542Y-103163916D01*
X157231563Y-103166189D01*
X157208605Y-103245311D01*
X157140630Y-103288055D01*
X157036602Y-103294246D01*
X156961670Y-103293172D01*
X156922161Y-103314753D01*
X156897522Y-103366591D01*
X156883341Y-103432632D01*
X156903777Y-103470104D01*
X156911472Y-103475467D01*
X156983917Y-103497006D01*
X157085367Y-103500055D01*
X157189843Y-103485778D01*
X157263875Y-103459688D01*
X157366228Y-103372785D01*
X157424409Y-103251816D01*
X157435931Y-103157308D01*
X157427138Y-103072062D01*
X157395320Y-103002476D01*
X157332316Y-102940672D01*
X157229969Y-102878772D01*
X157080118Y-102808897D01*
X157070988Y-102804948D01*
X156936003Y-102742588D01*
X156852706Y-102691446D01*
X156817003Y-102645488D01*
X156824797Y-102598683D01*
X156871993Y-102544998D01*
X156886106Y-102532644D01*
X156980641Y-102484741D01*
X157078594Y-102486758D01*
X157163903Y-102533724D01*
X157220504Y-102620669D01*
X157225763Y-102637734D01*
X157276977Y-102720504D01*
X157341963Y-102760372D01*
X157435931Y-102799882D01*
X157435931Y-102697658D01*
X157407347Y-102549072D01*
X157322505Y-102412784D01*
X157278355Y-102367191D01*
X157177995Y-102308674D01*
X157050365Y-102282184D01*
X156918056Y-102289360D01*
G36*
X155932057Y-102286920D02*
X155799435Y-102335859D01*
X155691990Y-102422419D01*
X155649968Y-102483352D01*
X155604157Y-102595161D01*
X155605109Y-102676006D01*
X155653192Y-102730378D01*
X155670983Y-102739624D01*
X155747796Y-102768450D01*
X155787024Y-102761065D01*
X155800311Y-102712658D01*
X155800988Y-102685920D01*
X155825314Y-102587548D01*
X155888719Y-102518734D01*
X155976846Y-102485498D01*
X156075337Y-102493861D01*
X156155398Y-102537296D01*
X156182439Y-102562072D01*
X156201606Y-102592129D01*
X156214554Y-102637565D01*
X156222936Y-102708476D01*
X156228407Y-102814960D01*
X156232622Y-102967112D01*
X156233713Y-103015287D01*
X156237693Y-103180095D01*
X156242219Y-103296088D01*
X156249005Y-103372833D01*
X156259769Y-103419893D01*
X156276227Y-103446835D01*
X156300094Y-103463223D01*
X156315374Y-103470463D01*
X156380267Y-103495220D01*
X156418466Y-103503391D01*
X156431088Y-103476103D01*
X156438792Y-103393603D01*
X156441620Y-103254941D01*
X156439614Y-103059162D01*
X156438989Y-103028965D01*
X156434579Y-102850349D01*
X156429365Y-102719923D01*
X156421945Y-102627492D01*
X156410918Y-102562858D01*
X156394883Y-102515825D01*
X156372439Y-102476196D01*
X156360698Y-102459215D01*
X156293381Y-102384080D01*
X156218090Y-102325638D01*
X156208872Y-102320536D01*
X156073867Y-102280260D01*
X155932057Y-102286920D01*
X155932057Y-102286920D01*
G37*
X155932057Y-102286920D02*
X155799435Y-102335859D01*
X155691990Y-102422419D01*
X155649968Y-102483352D01*
X155604157Y-102595161D01*
X155605109Y-102676006D01*
X155653192Y-102730378D01*
X155670983Y-102739624D01*
X155747796Y-102768450D01*
X155787024Y-102761065D01*
X155800311Y-102712658D01*
X155800988Y-102685920D01*
X155825314Y-102587548D01*
X155888719Y-102518734D01*
X155976846Y-102485498D01*
X156075337Y-102493861D01*
X156155398Y-102537296D01*
X156182439Y-102562072D01*
X156201606Y-102592129D01*
X156214554Y-102637565D01*
X156222936Y-102708476D01*
X156228407Y-102814960D01*
X156232622Y-102967112D01*
X156233713Y-103015287D01*
X156237693Y-103180095D01*
X156242219Y-103296088D01*
X156249005Y-103372833D01*
X156259769Y-103419893D01*
X156276227Y-103446835D01*
X156300094Y-103463223D01*
X156315374Y-103470463D01*
X156380267Y-103495220D01*
X156418466Y-103503391D01*
X156431088Y-103476103D01*
X156438792Y-103393603D01*
X156441620Y-103254941D01*
X156439614Y-103059162D01*
X156438989Y-103028965D01*
X156434579Y-102850349D01*
X156429365Y-102719923D01*
X156421945Y-102627492D01*
X156410918Y-102562858D01*
X156394883Y-102515825D01*
X156372439Y-102476196D01*
X156360698Y-102459215D01*
X156293381Y-102384080D01*
X156218090Y-102325638D01*
X156208872Y-102320536D01*
X156073867Y-102280260D01*
X155932057Y-102286920D01*
G36*
X154604086Y-102519455D02*
X154604457Y-102737661D01*
X154605892Y-102905519D01*
X154608998Y-103031070D01*
X154614378Y-103122355D01*
X154622638Y-103187415D01*
X154634384Y-103234291D01*
X154650219Y-103271024D01*
X154662210Y-103291991D01*
X154761510Y-103405694D01*
X154887412Y-103476965D01*
X155026709Y-103502538D01*
X155166195Y-103479150D01*
X155249257Y-103437119D01*
X155336455Y-103364411D01*
X155395883Y-103275612D01*
X155431739Y-103159320D01*
X155448219Y-103004135D01*
X155450553Y-102890287D01*
X155450239Y-102882106D01*
X155246276Y-102882106D01*
X155245030Y-103012657D01*
X155239322Y-103099080D01*
X155226196Y-103155618D01*
X155202694Y-103196514D01*
X155174614Y-103227362D01*
X155080312Y-103286905D01*
X154979060Y-103291992D01*
X154883364Y-103242279D01*
X154875916Y-103235543D01*
X154844126Y-103200502D01*
X154824192Y-103158811D01*
X154813400Y-103096762D01*
X154809035Y-103000644D01*
X154808345Y-102894379D01*
X154809841Y-102760880D01*
X154816036Y-102671822D01*
X154829486Y-102613293D01*
X154852749Y-102571382D01*
X154871825Y-102549123D01*
X154960437Y-102492985D01*
X155062492Y-102486235D01*
X155159905Y-102529114D01*
X155178704Y-102545032D01*
X155210707Y-102580382D01*
X155230682Y-102622502D01*
X155241407Y-102685251D01*
X155245661Y-102782487D01*
X155246276Y-102882106D01*
X155450239Y-102882106D01*
X155443496Y-102706947D01*
X155419528Y-102569195D01*
X155374452Y-102465632D01*
X155304072Y-102384856D01*
X155249257Y-102343455D01*
X155149624Y-102298728D01*
X155034145Y-102277967D01*
X154926801Y-102283525D01*
X154866736Y-102305943D01*
X154843165Y-102312323D01*
X154827523Y-102288535D01*
X154816605Y-102224788D01*
X154808345Y-102127687D01*
X154799301Y-102019541D01*
X154786739Y-101954475D01*
X154763881Y-101917268D01*
X154723949Y-101892699D01*
X154698862Y-101881819D01*
X154603977Y-101842072D01*
X154604086Y-102519455D01*
X154604086Y-102519455D01*
G37*
X154604086Y-102519455D02*
X154604457Y-102737661D01*
X154605892Y-102905519D01*
X154608998Y-103031070D01*
X154614378Y-103122355D01*
X154622638Y-103187415D01*
X154634384Y-103234291D01*
X154650219Y-103271024D01*
X154662210Y-103291991D01*
X154761510Y-103405694D01*
X154887412Y-103476965D01*
X155026709Y-103502538D01*
X155166195Y-103479150D01*
X155249257Y-103437119D01*
X155336455Y-103364411D01*
X155395883Y-103275612D01*
X155431739Y-103159320D01*
X155448219Y-103004135D01*
X155450553Y-102890287D01*
X155450239Y-102882106D01*
X155246276Y-102882106D01*
X155245030Y-103012657D01*
X155239322Y-103099080D01*
X155226196Y-103155618D01*
X155202694Y-103196514D01*
X155174614Y-103227362D01*
X155080312Y-103286905D01*
X154979060Y-103291992D01*
X154883364Y-103242279D01*
X154875916Y-103235543D01*
X154844126Y-103200502D01*
X154824192Y-103158811D01*
X154813400Y-103096762D01*
X154809035Y-103000644D01*
X154808345Y-102894379D01*
X154809841Y-102760880D01*
X154816036Y-102671822D01*
X154829486Y-102613293D01*
X154852749Y-102571382D01*
X154871825Y-102549123D01*
X154960437Y-102492985D01*
X155062492Y-102486235D01*
X155159905Y-102529114D01*
X155178704Y-102545032D01*
X155210707Y-102580382D01*
X155230682Y-102622502D01*
X155241407Y-102685251D01*
X155245661Y-102782487D01*
X155246276Y-102882106D01*
X155450239Y-102882106D01*
X155443496Y-102706947D01*
X155419528Y-102569195D01*
X155374452Y-102465632D01*
X155304072Y-102384856D01*
X155249257Y-102343455D01*
X155149624Y-102298728D01*
X155034145Y-102277967D01*
X154926801Y-102283525D01*
X154866736Y-102305943D01*
X154843165Y-102312323D01*
X154827523Y-102288535D01*
X154816605Y-102224788D01*
X154808345Y-102127687D01*
X154799301Y-102019541D01*
X154786739Y-101954475D01*
X154763881Y-101917268D01*
X154723949Y-101892699D01*
X154698862Y-101881819D01*
X154603977Y-101842072D01*
X154604086Y-102519455D01*
G36*
X153417876Y-102304840D02*
X153413421Y-102381653D01*
X153409929Y-102498391D01*
X153407685Y-102645821D01*
X153406965Y-102800455D01*
X153406965Y-103323727D01*
X153499355Y-103416117D01*
X153563022Y-103473047D01*
X153618911Y-103496107D01*
X153695298Y-103494647D01*
X153725620Y-103490934D01*
X153820390Y-103480126D01*
X153898778Y-103473933D01*
X153917885Y-103473361D01*
X153982301Y-103477102D01*
X154074429Y-103486494D01*
X154110150Y-103490934D01*
X154197886Y-103497801D01*
X154256847Y-103482885D01*
X154315310Y-103436835D01*
X154336415Y-103416117D01*
X154428805Y-103323727D01*
X154428805Y-102344947D01*
X154354442Y-102311066D01*
X154290410Y-102285970D01*
X154252948Y-102277184D01*
X154243343Y-102304950D01*
X154234365Y-102382530D01*
X154226614Y-102501348D01*
X154220686Y-102652828D01*
X154217827Y-102780805D01*
X154209839Y-103284425D01*
X154140152Y-103294278D01*
X154076771Y-103287389D01*
X154045714Y-103265083D01*
X154037033Y-103223379D01*
X154029622Y-103134544D01*
X154024069Y-103009834D01*
X154020964Y-102860507D01*
X154020516Y-102783661D01*
X154020069Y-102341287D01*
X153928126Y-102309235D01*
X153863051Y-102287443D01*
X153827653Y-102277281D01*
X153826632Y-102277184D01*
X153823080Y-102304809D01*
X153819177Y-102381411D01*
X153815249Y-102497579D01*
X153811624Y-102643904D01*
X153809092Y-102780805D01*
X153801103Y-103284425D01*
X153625931Y-103284425D01*
X153617893Y-102824965D01*
X153609854Y-102365505D01*
X153524457Y-102321344D01*
X153461407Y-102291019D01*
X153424090Y-102277258D01*
X153423013Y-102277184D01*
X153417876Y-102304840D01*
X153417876Y-102304840D01*
G37*
X153417876Y-102304840D02*
X153413421Y-102381653D01*
X153409929Y-102498391D01*
X153407685Y-102645821D01*
X153406965Y-102800455D01*
X153406965Y-103323727D01*
X153499355Y-103416117D01*
X153563022Y-103473047D01*
X153618911Y-103496107D01*
X153695298Y-103494647D01*
X153725620Y-103490934D01*
X153820390Y-103480126D01*
X153898778Y-103473933D01*
X153917885Y-103473361D01*
X153982301Y-103477102D01*
X154074429Y-103486494D01*
X154110150Y-103490934D01*
X154197886Y-103497801D01*
X154256847Y-103482885D01*
X154315310Y-103436835D01*
X154336415Y-103416117D01*
X154428805Y-103323727D01*
X154428805Y-102344947D01*
X154354442Y-102311066D01*
X154290410Y-102285970D01*
X154252948Y-102277184D01*
X154243343Y-102304950D01*
X154234365Y-102382530D01*
X154226614Y-102501348D01*
X154220686Y-102652828D01*
X154217827Y-102780805D01*
X154209839Y-103284425D01*
X154140152Y-103294278D01*
X154076771Y-103287389D01*
X154045714Y-103265083D01*
X154037033Y-103223379D01*
X154029622Y-103134544D01*
X154024069Y-103009834D01*
X154020964Y-102860507D01*
X154020516Y-102783661D01*
X154020069Y-102341287D01*
X153928126Y-102309235D01*
X153863051Y-102287443D01*
X153827653Y-102277281D01*
X153826632Y-102277184D01*
X153823080Y-102304809D01*
X153819177Y-102381411D01*
X153815249Y-102497579D01*
X153811624Y-102643904D01*
X153809092Y-102780805D01*
X153801103Y-103284425D01*
X153625931Y-103284425D01*
X153617893Y-102824965D01*
X153609854Y-102365505D01*
X153524457Y-102321344D01*
X153461407Y-102291019D01*
X153424090Y-102277258D01*
X153423013Y-102277184D01*
X153417876Y-102304840D01*
G36*
X152683594Y-102300156D02*
X152599531Y-102338393D01*
X152533550Y-102384726D01*
X152485206Y-102436532D01*
X152451828Y-102503363D01*
X152430747Y-102594769D01*
X152419293Y-102720301D01*
X152414797Y-102889508D01*
X152414322Y-103000933D01*
X152414322Y-103435627D01*
X152488684Y-103469509D01*
X152547254Y-103494272D01*
X152576270Y-103503391D01*
X152581821Y-103476257D01*
X152586225Y-103403094D01*
X152588922Y-103296263D01*
X152589494Y-103211437D01*
X152591954Y-103088887D01*
X152598588Y-102991668D01*
X152608274Y-102932134D01*
X152615968Y-102919483D01*
X152667689Y-102932402D01*
X152748883Y-102965539D01*
X152842898Y-103010461D01*
X152933083Y-103058735D01*
X153002785Y-103101928D01*
X153035352Y-103131608D01*
X153035481Y-103131929D01*
X153032680Y-103186857D01*
X153007561Y-103239292D01*
X152963459Y-103281881D01*
X152899091Y-103296126D01*
X152844079Y-103294466D01*
X152766165Y-103293245D01*
X152725268Y-103311498D01*
X152700705Y-103359726D01*
X152697608Y-103368820D01*
X152686960Y-103437598D01*
X152715435Y-103479360D01*
X152789656Y-103499263D01*
X152869832Y-103502944D01*
X153014110Y-103475658D01*
X153088797Y-103436690D01*
X153181037Y-103345148D01*
X153229957Y-103232782D01*
X153234346Y-103114051D01*
X153192999Y-103003411D01*
X153130803Y-102934080D01*
X153068706Y-102895265D01*
X152971105Y-102846125D01*
X152857368Y-102796292D01*
X152838410Y-102788677D01*
X152713479Y-102733545D01*
X152641461Y-102684954D01*
X152618300Y-102636647D01*
X152639936Y-102582370D01*
X152677080Y-102539943D01*
X152764873Y-102487702D01*
X152861470Y-102483784D01*
X152950056Y-102524041D01*
X153013814Y-102604326D01*
X153022183Y-102625040D01*
X153070904Y-102701225D01*
X153142035Y-102757785D01*
X153231793Y-102804201D01*
X153231793Y-102672584D01*
X153226510Y-102592168D01*
X153203858Y-102528786D01*
X153153633Y-102461163D01*
X153105418Y-102409076D01*
X153030446Y-102335322D01*
X152972194Y-102295702D01*
X152909628Y-102279810D01*
X152838807Y-102277184D01*
X152683594Y-102300156D01*
X152683594Y-102300156D01*
G37*
X152683594Y-102300156D02*
X152599531Y-102338393D01*
X152533550Y-102384726D01*
X152485206Y-102436532D01*
X152451828Y-102503363D01*
X152430747Y-102594769D01*
X152419293Y-102720301D01*
X152414797Y-102889508D01*
X152414322Y-103000933D01*
X152414322Y-103435627D01*
X152488684Y-103469509D01*
X152547254Y-103494272D01*
X152576270Y-103503391D01*
X152581821Y-103476257D01*
X152586225Y-103403094D01*
X152588922Y-103296263D01*
X152589494Y-103211437D01*
X152591954Y-103088887D01*
X152598588Y-102991668D01*
X152608274Y-102932134D01*
X152615968Y-102919483D01*
X152667689Y-102932402D01*
X152748883Y-102965539D01*
X152842898Y-103010461D01*
X152933083Y-103058735D01*
X153002785Y-103101928D01*
X153035352Y-103131608D01*
X153035481Y-103131929D01*
X153032680Y-103186857D01*
X153007561Y-103239292D01*
X152963459Y-103281881D01*
X152899091Y-103296126D01*
X152844079Y-103294466D01*
X152766165Y-103293245D01*
X152725268Y-103311498D01*
X152700705Y-103359726D01*
X152697608Y-103368820D01*
X152686960Y-103437598D01*
X152715435Y-103479360D01*
X152789656Y-103499263D01*
X152869832Y-103502944D01*
X153014110Y-103475658D01*
X153088797Y-103436690D01*
X153181037Y-103345148D01*
X153229957Y-103232782D01*
X153234346Y-103114051D01*
X153192999Y-103003411D01*
X153130803Y-102934080D01*
X153068706Y-102895265D01*
X152971105Y-102846125D01*
X152857368Y-102796292D01*
X152838410Y-102788677D01*
X152713479Y-102733545D01*
X152641461Y-102684954D01*
X152618300Y-102636647D01*
X152639936Y-102582370D01*
X152677080Y-102539943D01*
X152764873Y-102487702D01*
X152861470Y-102483784D01*
X152950056Y-102524041D01*
X153013814Y-102604326D01*
X153022183Y-102625040D01*
X153070904Y-102701225D01*
X153142035Y-102757785D01*
X153231793Y-102804201D01*
X153231793Y-102672584D01*
X153226510Y-102592168D01*
X153203858Y-102528786D01*
X153153633Y-102461163D01*
X153105418Y-102409076D01*
X153030446Y-102335322D01*
X152972194Y-102295702D01*
X152909628Y-102279810D01*
X152838807Y-102277184D01*
X152683594Y-102300156D01*
G36*
X151662310Y-102305018D02*
X151627415Y-102320269D01*
X151544123Y-102386235D01*
X151472897Y-102481618D01*
X151428847Y-102583406D01*
X151421678Y-102633587D01*
X151445715Y-102703647D01*
X151498439Y-102740717D01*
X151554969Y-102763164D01*
X151580854Y-102767300D01*
X151593458Y-102737283D01*
X151618346Y-102671961D01*
X151629265Y-102642445D01*
X151690492Y-102540348D01*
X151779139Y-102489423D01*
X151892807Y-102490989D01*
X151901226Y-102492994D01*
X151961912Y-102521767D01*
X152006526Y-102577859D01*
X152036998Y-102668163D01*
X152055256Y-102799571D01*
X152063229Y-102978974D01*
X152063977Y-103074433D01*
X152064348Y-103224913D01*
X152066777Y-103327495D01*
X152073240Y-103392672D01*
X152085712Y-103430938D01*
X152106167Y-103452785D01*
X152136581Y-103468707D01*
X152138339Y-103469509D01*
X152196909Y-103494272D01*
X152225925Y-103503391D01*
X152230384Y-103475822D01*
X152234201Y-103399620D01*
X152237101Y-103284541D01*
X152238809Y-103140341D01*
X152239149Y-103034814D01*
X152237412Y-102830613D01*
X152230618Y-102675697D01*
X152216393Y-102561024D01*
X152192362Y-102477551D01*
X152156152Y-102416236D01*
X152105388Y-102368034D01*
X152055261Y-102334393D01*
X151934725Y-102289619D01*
X151794443Y-102279521D01*
X151662310Y-102305018D01*
X151662310Y-102305018D01*
G37*
X151662310Y-102305018D02*
X151627415Y-102320269D01*
X151544123Y-102386235D01*
X151472897Y-102481618D01*
X151428847Y-102583406D01*
X151421678Y-102633587D01*
X151445715Y-102703647D01*
X151498439Y-102740717D01*
X151554969Y-102763164D01*
X151580854Y-102767300D01*
X151593458Y-102737283D01*
X151618346Y-102671961D01*
X151629265Y-102642445D01*
X151690492Y-102540348D01*
X151779139Y-102489423D01*
X151892807Y-102490989D01*
X151901226Y-102492994D01*
X151961912Y-102521767D01*
X152006526Y-102577859D01*
X152036998Y-102668163D01*
X152055256Y-102799571D01*
X152063229Y-102978974D01*
X152063977Y-103074433D01*
X152064348Y-103224913D01*
X152066777Y-103327495D01*
X152073240Y-103392672D01*
X152085712Y-103430938D01*
X152106167Y-103452785D01*
X152136581Y-103468707D01*
X152138339Y-103469509D01*
X152196909Y-103494272D01*
X152225925Y-103503391D01*
X152230384Y-103475822D01*
X152234201Y-103399620D01*
X152237101Y-103284541D01*
X152238809Y-103140341D01*
X152239149Y-103034814D01*
X152237412Y-102830613D01*
X152230618Y-102675697D01*
X152216393Y-102561024D01*
X152192362Y-102477551D01*
X152156152Y-102416236D01*
X152105388Y-102368034D01*
X152055261Y-102334393D01*
X151934725Y-102289619D01*
X151794443Y-102279521D01*
X151662310Y-102305018D01*
G36*
X150654561Y-102321540D02*
X150539050Y-102397034D01*
X150483336Y-102464617D01*
X150439196Y-102587255D01*
X150435691Y-102684298D01*
X150443632Y-102814056D01*
X150742885Y-102945039D01*
X150888389Y-103011958D01*
X150983463Y-103065790D01*
X151032899Y-103112416D01*
X151041489Y-103157720D01*
X151014028Y-103207582D01*
X150983747Y-103240632D01*
X150895637Y-103293633D01*
X150799804Y-103297347D01*
X150711788Y-103256041D01*
X150647131Y-103173983D01*
X150635567Y-103145008D01*
X150580175Y-103054509D01*
X150516447Y-103015940D01*
X150429034Y-102982946D01*
X150429034Y-103108034D01*
X150436762Y-103193156D01*
X150467034Y-103264938D01*
X150530482Y-103347356D01*
X150539912Y-103358066D01*
X150610487Y-103431391D01*
X150671153Y-103470742D01*
X150747050Y-103488845D01*
X150809970Y-103494774D01*
X150922513Y-103496251D01*
X151002630Y-103477535D01*
X151052610Y-103449747D01*
X151131162Y-103388641D01*
X151185537Y-103322554D01*
X151219948Y-103239441D01*
X151238612Y-103127254D01*
X151245744Y-102973946D01*
X151246313Y-102896136D01*
X151244378Y-102802853D01*
X151068101Y-102802853D01*
X151066056Y-102852896D01*
X151060961Y-102861092D01*
X151027334Y-102849958D01*
X150954970Y-102820493D01*
X150858253Y-102778601D01*
X150838027Y-102769597D01*
X150715797Y-102707442D01*
X150648453Y-102652815D01*
X150633652Y-102601649D01*
X150669053Y-102549876D01*
X150698289Y-102527000D01*
X150803784Y-102481250D01*
X150902524Y-102488808D01*
X150985188Y-102544651D01*
X151042452Y-102643753D01*
X151060812Y-102722414D01*
X151068101Y-102802853D01*
X151244378Y-102802853D01*
X151242541Y-102714351D01*
X151228641Y-102579853D01*
X151201106Y-102481916D01*
X151156428Y-102409811D01*
X151091099Y-102352813D01*
X151062617Y-102334393D01*
X150933237Y-102286422D01*
X150791588Y-102283403D01*
X150654561Y-102321540D01*
X150654561Y-102321540D01*
G37*
X150654561Y-102321540D02*
X150539050Y-102397034D01*
X150483336Y-102464617D01*
X150439196Y-102587255D01*
X150435691Y-102684298D01*
X150443632Y-102814056D01*
X150742885Y-102945039D01*
X150888389Y-103011958D01*
X150983463Y-103065790D01*
X151032899Y-103112416D01*
X151041489Y-103157720D01*
X151014028Y-103207582D01*
X150983747Y-103240632D01*
X150895637Y-103293633D01*
X150799804Y-103297347D01*
X150711788Y-103256041D01*
X150647131Y-103173983D01*
X150635567Y-103145008D01*
X150580175Y-103054509D01*
X150516447Y-103015940D01*
X150429034Y-102982946D01*
X150429034Y-103108034D01*
X150436762Y-103193156D01*
X150467034Y-103264938D01*
X150530482Y-103347356D01*
X150539912Y-103358066D01*
X150610487Y-103431391D01*
X150671153Y-103470742D01*
X150747050Y-103488845D01*
X150809970Y-103494774D01*
X150922513Y-103496251D01*
X151002630Y-103477535D01*
X151052610Y-103449747D01*
X151131162Y-103388641D01*
X151185537Y-103322554D01*
X151219948Y-103239441D01*
X151238612Y-103127254D01*
X151245744Y-102973946D01*
X151246313Y-102896136D01*
X151244378Y-102802853D01*
X151068101Y-102802853D01*
X151066056Y-102852896D01*
X151060961Y-102861092D01*
X151027334Y-102849958D01*
X150954970Y-102820493D01*
X150858253Y-102778601D01*
X150838027Y-102769597D01*
X150715797Y-102707442D01*
X150648453Y-102652815D01*
X150633652Y-102601649D01*
X150669053Y-102549876D01*
X150698289Y-102527000D01*
X150803784Y-102481250D01*
X150902524Y-102488808D01*
X150985188Y-102544651D01*
X151042452Y-102643753D01*
X151060812Y-102722414D01*
X151068101Y-102802853D01*
X151244378Y-102802853D01*
X151242541Y-102714351D01*
X151228641Y-102579853D01*
X151201106Y-102481916D01*
X151156428Y-102409811D01*
X151091099Y-102352813D01*
X151062617Y-102334393D01*
X150933237Y-102286422D01*
X150791588Y-102283403D01*
X150654561Y-102321540D01*
G36*
X156788986Y-92817998D02*
X156630994Y-92818863D01*
X156516653Y-92821205D01*
X156438593Y-92825762D01*
X156389446Y-92833270D01*
X156361841Y-92844466D01*
X156348408Y-92860088D01*
X156341779Y-92880873D01*
X156341135Y-92883563D01*
X156331065Y-92932113D01*
X156312425Y-93027905D01*
X156287155Y-93160743D01*
X156257193Y-93320431D01*
X156224478Y-93496774D01*
X156223336Y-93502967D01*
X156190567Y-93675782D01*
X156159907Y-93828469D01*
X156133336Y-93951871D01*
X156112833Y-94036831D01*
X156100374Y-94074190D01*
X156099780Y-94074852D01*
X156063081Y-94093095D01*
X155987414Y-94123497D01*
X155889122Y-94159493D01*
X155888575Y-94159685D01*
X155764767Y-94206222D01*
X155618804Y-94265504D01*
X155481219Y-94325109D01*
X155474707Y-94328056D01*
X155250610Y-94429765D01*
X154754381Y-94090897D01*
X154602154Y-93987592D01*
X154464259Y-93895237D01*
X154348685Y-93819084D01*
X154263421Y-93764385D01*
X154216456Y-93736393D01*
X154211996Y-93734317D01*
X154177866Y-93743560D01*
X154114119Y-93788156D01*
X154018269Y-93870209D01*
X153887831Y-93991821D01*
X153754672Y-94121205D01*
X153626306Y-94248702D01*
X153511419Y-94365046D01*
X153416927Y-94463052D01*
X153349747Y-94535536D01*
X153316794Y-94575313D01*
X153315568Y-94577361D01*
X153311926Y-94604656D01*
X153325650Y-94649234D01*
X153360131Y-94717112D01*
X153418761Y-94814311D01*
X153504930Y-94946851D01*
X153619800Y-95117476D01*
X153721746Y-95267655D01*
X153812877Y-95402350D01*
X153887927Y-95513740D01*
X153941631Y-95594005D01*
X153968720Y-95635325D01*
X153970426Y-95638130D01*
X153967118Y-95677721D01*
X153942047Y-95754669D01*
X153900202Y-95854432D01*
X153885288Y-95886291D01*
X153820214Y-96028226D01*
X153750788Y-96189273D01*
X153694391Y-96328621D01*
X153653753Y-96432044D01*
X153621474Y-96510642D01*
X153602822Y-96551720D01*
X153600503Y-96554885D01*
X153566197Y-96560128D01*
X153485331Y-96574494D01*
X153368657Y-96595937D01*
X153226925Y-96622413D01*
X153070890Y-96651877D01*
X152911302Y-96682283D01*
X152758915Y-96711588D01*
X152624479Y-96737745D01*
X152518748Y-96758710D01*
X152452474Y-96772439D01*
X152436218Y-96776320D01*
X152419427Y-96785900D01*
X152406751Y-96807536D01*
X152397622Y-96848531D01*
X152391469Y-96916189D01*
X152387720Y-97017812D01*
X152385808Y-97160703D01*
X152385160Y-97352165D01*
X152385126Y-97430645D01*
X152385126Y-98068906D01*
X152538402Y-98099160D01*
X152623678Y-98115564D01*
X152750930Y-98139509D01*
X152904685Y-98168107D01*
X153069466Y-98198467D01*
X153115011Y-98206806D01*
X153267068Y-98236370D01*
X153399532Y-98265442D01*
X153501286Y-98291329D01*
X153561212Y-98311337D01*
X153571195Y-98317301D01*
X153595707Y-98359534D01*
X153630852Y-98441370D01*
X153669827Y-98546683D01*
X153677558Y-98569368D01*
X153728640Y-98710018D01*
X153792046Y-98868714D01*
X153854096Y-99011225D01*
X153854402Y-99011886D01*
X153957733Y-99235440D01*
X153278039Y-100235232D01*
X153714379Y-100672300D01*
X153846351Y-100802381D01*
X153966721Y-100917048D01*
X154068727Y-101010181D01*
X154145609Y-101075658D01*
X154190607Y-101107357D01*
X154197062Y-101109368D01*
X154234960Y-101093529D01*
X154312292Y-101049496D01*
X154420611Y-100982490D01*
X154551468Y-100897734D01*
X154692948Y-100802816D01*
X154836539Y-100705998D01*
X154964565Y-100621751D01*
X155068895Y-100555258D01*
X155141400Y-100511702D01*
X155173842Y-100496264D01*
X155213424Y-100509328D01*
X155288481Y-100543750D01*
X155383532Y-100592380D01*
X155393608Y-100597785D01*
X155521609Y-100661980D01*
X155609382Y-100693463D01*
X155663972Y-100693798D01*
X155692425Y-100664548D01*
X155692590Y-100664138D01*
X155706812Y-100629498D01*
X155740731Y-100547269D01*
X155791716Y-100423814D01*
X155857138Y-100265498D01*
X155934366Y-100078686D01*
X156020771Y-99869742D01*
X156104449Y-99667446D01*
X156196412Y-99444200D01*
X156280850Y-99237392D01*
X156355231Y-99053362D01*
X156417026Y-98898451D01*
X156463703Y-98778996D01*
X156492732Y-98701339D01*
X156501678Y-98672356D01*
X156479244Y-98639110D01*
X156420561Y-98586123D01*
X156342311Y-98527704D01*
X156119466Y-98342952D01*
X155945282Y-98131182D01*
X155821846Y-97896856D01*
X155751246Y-97644434D01*
X155735569Y-97378377D01*
X155746964Y-97255575D01*
X155809050Y-97000793D01*
X155915977Y-96775801D01*
X156061111Y-96582817D01*
X156237822Y-96424061D01*
X156439478Y-96301750D01*
X156659446Y-96218105D01*
X156891094Y-96175344D01*
X157127791Y-96175687D01*
X157362905Y-96221352D01*
X157589804Y-96314559D01*
X157801856Y-96457527D01*
X157890364Y-96538383D01*
X158060111Y-96746007D01*
X158178301Y-96972895D01*
X158245722Y-97212433D01*
X158263160Y-97458007D01*
X158231402Y-97703003D01*
X158151235Y-97940808D01*
X158023445Y-98164807D01*
X157848820Y-98368387D01*
X157653688Y-98527704D01*
X157572409Y-98588602D01*
X157514991Y-98641015D01*
X157494322Y-98672406D01*
X157505144Y-98706639D01*
X157535923Y-98788419D01*
X157584126Y-98911407D01*
X157647222Y-99069263D01*
X157722678Y-99255649D01*
X157807962Y-99464226D01*
X157891781Y-99667496D01*
X157984255Y-99890933D01*
X158069911Y-100097984D01*
X158146118Y-100282286D01*
X158210247Y-100437475D01*
X158259668Y-100557188D01*
X158291752Y-100635061D01*
X158303641Y-100664138D01*
X158331726Y-100693677D01*
X158386051Y-100693591D01*
X158473605Y-100662326D01*
X158601381Y-100598329D01*
X158602392Y-100597785D01*
X158698598Y-100548121D01*
X158776369Y-100511945D01*
X158820223Y-100496408D01*
X158822158Y-100496264D01*
X158855171Y-100512024D01*
X158928054Y-100555850D01*
X159032678Y-100622557D01*
X159160910Y-100706964D01*
X159303052Y-100802816D01*
X159447767Y-100899867D01*
X159578196Y-100984270D01*
X159685890Y-101050801D01*
X159762402Y-101094238D01*
X159798938Y-101109368D01*
X159832582Y-101089482D01*
X159900224Y-101033903D01*
X159995107Y-100948754D01*
X160110470Y-100840153D01*
X160239555Y-100714221D01*
X160281771Y-100672149D01*
X160718261Y-100234931D01*
X160386023Y-99747340D01*
X160285054Y-99597605D01*
X160196438Y-99463220D01*
X160125146Y-99351969D01*
X160076150Y-99271639D01*
X160054422Y-99230014D01*
X160053785Y-99227053D01*
X160065240Y-99187818D01*
X160096051Y-99108895D01*
X160140884Y-99003509D01*
X160172353Y-98932954D01*
X160231192Y-98797876D01*
X160286604Y-98661409D01*
X160329564Y-98546103D01*
X160341234Y-98510977D01*
X160374389Y-98417174D01*
X160406799Y-98344694D01*
X160424601Y-98317301D01*
X160463886Y-98300536D01*
X160549626Y-98276770D01*
X160670697Y-98248697D01*
X160815973Y-98219009D01*
X160880988Y-98206806D01*
X161046087Y-98176468D01*
X161204448Y-98147093D01*
X161340596Y-98121569D01*
X161439057Y-98102785D01*
X161457598Y-98099160D01*
X161610873Y-98068906D01*
X161610873Y-97430645D01*
X161610529Y-97220770D01*
X161609116Y-97061980D01*
X161606064Y-96946973D01*
X161600803Y-96868446D01*
X161592763Y-96819096D01*
X161581373Y-96791619D01*
X161566063Y-96778713D01*
X161559782Y-96776320D01*
X161521896Y-96767833D01*
X161438195Y-96750900D01*
X161319433Y-96727566D01*
X161176361Y-96699875D01*
X161019732Y-96669873D01*
X160860297Y-96639604D01*
X160708809Y-96611115D01*
X160576019Y-96586449D01*
X160472681Y-96567651D01*
X160409545Y-96556767D01*
X160395497Y-96554885D01*
X160382770Y-96529704D01*
X160354600Y-96462622D01*
X160316252Y-96366333D01*
X160301609Y-96328621D01*
X160242548Y-96182921D01*
X160173000Y-96021951D01*
X160110712Y-95886291D01*
X160064879Y-95782561D01*
X160034387Y-95697326D01*
X160024208Y-95645126D01*
X160025831Y-95638130D01*
X160047343Y-95605102D01*
X160096465Y-95531643D01*
X160167923Y-95425577D01*
X160256445Y-95294726D01*
X160356759Y-95146912D01*
X160376594Y-95117734D01*
X160492988Y-94944863D01*
X160578548Y-94813226D01*
X160636684Y-94716761D01*
X160670808Y-94649408D01*
X160684331Y-94605106D01*
X160680664Y-94577794D01*
X160680570Y-94577620D01*
X160651707Y-94541746D01*
X160587867Y-94472391D01*
X160495969Y-94376745D01*
X160382933Y-94261999D01*
X160255679Y-94135341D01*
X160241328Y-94121205D01*
X160080957Y-93965903D01*
X159957195Y-93851870D01*
X159867555Y-93777002D01*
X159809552Y-93739196D01*
X159784004Y-93734317D01*
X159746718Y-93755603D01*
X159669343Y-93804773D01*
X159559867Y-93876575D01*
X159426280Y-93965755D01*
X159276570Y-94067063D01*
X159241618Y-94090897D01*
X158745390Y-94429765D01*
X158521293Y-94328056D01*
X158385011Y-94268783D01*
X158238724Y-94209170D01*
X158112965Y-94161640D01*
X158107425Y-94159685D01*
X158009057Y-94123677D01*
X157933229Y-94093229D01*
X157896282Y-94074905D01*
X157896220Y-94074852D01*
X157884496Y-94041729D01*
X157864568Y-93960267D01*
X157838413Y-93839625D01*
X157808010Y-93688959D01*
X157775337Y-93517428D01*
X157772664Y-93502967D01*
X157739890Y-93326235D01*
X157709802Y-93165810D01*
X157684339Y-93031888D01*
X157665441Y-92934663D01*
X157655047Y-92884332D01*
X157654865Y-92883563D01*
X157648539Y-92862153D01*
X157636239Y-92845988D01*
X157610594Y-92834331D01*
X157564235Y-92826445D01*
X157489792Y-92821593D01*
X157379895Y-92819039D01*
X157227175Y-92818045D01*
X157024262Y-92817874D01*
X156998000Y-92817874D01*
X156788986Y-92817998D01*
X156788986Y-92817998D01*
G37*
X156788986Y-92817998D02*
X156630994Y-92818863D01*
X156516653Y-92821205D01*
X156438593Y-92825762D01*
X156389446Y-92833270D01*
X156361841Y-92844466D01*
X156348408Y-92860088D01*
X156341779Y-92880873D01*
X156341135Y-92883563D01*
X156331065Y-92932113D01*
X156312425Y-93027905D01*
X156287155Y-93160743D01*
X156257193Y-93320431D01*
X156224478Y-93496774D01*
X156223336Y-93502967D01*
X156190567Y-93675782D01*
X156159907Y-93828469D01*
X156133336Y-93951871D01*
X156112833Y-94036831D01*
X156100374Y-94074190D01*
X156099780Y-94074852D01*
X156063081Y-94093095D01*
X155987414Y-94123497D01*
X155889122Y-94159493D01*
X155888575Y-94159685D01*
X155764767Y-94206222D01*
X155618804Y-94265504D01*
X155481219Y-94325109D01*
X155474707Y-94328056D01*
X155250610Y-94429765D01*
X154754381Y-94090897D01*
X154602154Y-93987592D01*
X154464259Y-93895237D01*
X154348685Y-93819084D01*
X154263421Y-93764385D01*
X154216456Y-93736393D01*
X154211996Y-93734317D01*
X154177866Y-93743560D01*
X154114119Y-93788156D01*
X154018269Y-93870209D01*
X153887831Y-93991821D01*
X153754672Y-94121205D01*
X153626306Y-94248702D01*
X153511419Y-94365046D01*
X153416927Y-94463052D01*
X153349747Y-94535536D01*
X153316794Y-94575313D01*
X153315568Y-94577361D01*
X153311926Y-94604656D01*
X153325650Y-94649234D01*
X153360131Y-94717112D01*
X153418761Y-94814311D01*
X153504930Y-94946851D01*
X153619800Y-95117476D01*
X153721746Y-95267655D01*
X153812877Y-95402350D01*
X153887927Y-95513740D01*
X153941631Y-95594005D01*
X153968720Y-95635325D01*
X153970426Y-95638130D01*
X153967118Y-95677721D01*
X153942047Y-95754669D01*
X153900202Y-95854432D01*
X153885288Y-95886291D01*
X153820214Y-96028226D01*
X153750788Y-96189273D01*
X153694391Y-96328621D01*
X153653753Y-96432044D01*
X153621474Y-96510642D01*
X153602822Y-96551720D01*
X153600503Y-96554885D01*
X153566197Y-96560128D01*
X153485331Y-96574494D01*
X153368657Y-96595937D01*
X153226925Y-96622413D01*
X153070890Y-96651877D01*
X152911302Y-96682283D01*
X152758915Y-96711588D01*
X152624479Y-96737745D01*
X152518748Y-96758710D01*
X152452474Y-96772439D01*
X152436218Y-96776320D01*
X152419427Y-96785900D01*
X152406751Y-96807536D01*
X152397622Y-96848531D01*
X152391469Y-96916189D01*
X152387720Y-97017812D01*
X152385808Y-97160703D01*
X152385160Y-97352165D01*
X152385126Y-97430645D01*
X152385126Y-98068906D01*
X152538402Y-98099160D01*
X152623678Y-98115564D01*
X152750930Y-98139509D01*
X152904685Y-98168107D01*
X153069466Y-98198467D01*
X153115011Y-98206806D01*
X153267068Y-98236370D01*
X153399532Y-98265442D01*
X153501286Y-98291329D01*
X153561212Y-98311337D01*
X153571195Y-98317301D01*
X153595707Y-98359534D01*
X153630852Y-98441370D01*
X153669827Y-98546683D01*
X153677558Y-98569368D01*
X153728640Y-98710018D01*
X153792046Y-98868714D01*
X153854096Y-99011225D01*
X153854402Y-99011886D01*
X153957733Y-99235440D01*
X153278039Y-100235232D01*
X153714379Y-100672300D01*
X153846351Y-100802381D01*
X153966721Y-100917048D01*
X154068727Y-101010181D01*
X154145609Y-101075658D01*
X154190607Y-101107357D01*
X154197062Y-101109368D01*
X154234960Y-101093529D01*
X154312292Y-101049496D01*
X154420611Y-100982490D01*
X154551468Y-100897734D01*
X154692948Y-100802816D01*
X154836539Y-100705998D01*
X154964565Y-100621751D01*
X155068895Y-100555258D01*
X155141400Y-100511702D01*
X155173842Y-100496264D01*
X155213424Y-100509328D01*
X155288481Y-100543750D01*
X155383532Y-100592380D01*
X155393608Y-100597785D01*
X155521609Y-100661980D01*
X155609382Y-100693463D01*
X155663972Y-100693798D01*
X155692425Y-100664548D01*
X155692590Y-100664138D01*
X155706812Y-100629498D01*
X155740731Y-100547269D01*
X155791716Y-100423814D01*
X155857138Y-100265498D01*
X155934366Y-100078686D01*
X156020771Y-99869742D01*
X156104449Y-99667446D01*
X156196412Y-99444200D01*
X156280850Y-99237392D01*
X156355231Y-99053362D01*
X156417026Y-98898451D01*
X156463703Y-98778996D01*
X156492732Y-98701339D01*
X156501678Y-98672356D01*
X156479244Y-98639110D01*
X156420561Y-98586123D01*
X156342311Y-98527704D01*
X156119466Y-98342952D01*
X155945282Y-98131182D01*
X155821846Y-97896856D01*
X155751246Y-97644434D01*
X155735569Y-97378377D01*
X155746964Y-97255575D01*
X155809050Y-97000793D01*
X155915977Y-96775801D01*
X156061111Y-96582817D01*
X156237822Y-96424061D01*
X156439478Y-96301750D01*
X156659446Y-96218105D01*
X156891094Y-96175344D01*
X157127791Y-96175687D01*
X157362905Y-96221352D01*
X157589804Y-96314559D01*
X157801856Y-96457527D01*
X157890364Y-96538383D01*
X158060111Y-96746007D01*
X158178301Y-96972895D01*
X158245722Y-97212433D01*
X158263160Y-97458007D01*
X158231402Y-97703003D01*
X158151235Y-97940808D01*
X158023445Y-98164807D01*
X157848820Y-98368387D01*
X157653688Y-98527704D01*
X157572409Y-98588602D01*
X157514991Y-98641015D01*
X157494322Y-98672406D01*
X157505144Y-98706639D01*
X157535923Y-98788419D01*
X157584126Y-98911407D01*
X157647222Y-99069263D01*
X157722678Y-99255649D01*
X157807962Y-99464226D01*
X157891781Y-99667496D01*
X157984255Y-99890933D01*
X158069911Y-100097984D01*
X158146118Y-100282286D01*
X158210247Y-100437475D01*
X158259668Y-100557188D01*
X158291752Y-100635061D01*
X158303641Y-100664138D01*
X158331726Y-100693677D01*
X158386051Y-100693591D01*
X158473605Y-100662326D01*
X158601381Y-100598329D01*
X158602392Y-100597785D01*
X158698598Y-100548121D01*
X158776369Y-100511945D01*
X158820223Y-100496408D01*
X158822158Y-100496264D01*
X158855171Y-100512024D01*
X158928054Y-100555850D01*
X159032678Y-100622557D01*
X159160910Y-100706964D01*
X159303052Y-100802816D01*
X159447767Y-100899867D01*
X159578196Y-100984270D01*
X159685890Y-101050801D01*
X159762402Y-101094238D01*
X159798938Y-101109368D01*
X159832582Y-101089482D01*
X159900224Y-101033903D01*
X159995107Y-100948754D01*
X160110470Y-100840153D01*
X160239555Y-100714221D01*
X160281771Y-100672149D01*
X160718261Y-100234931D01*
X160386023Y-99747340D01*
X160285054Y-99597605D01*
X160196438Y-99463220D01*
X160125146Y-99351969D01*
X160076150Y-99271639D01*
X160054422Y-99230014D01*
X160053785Y-99227053D01*
X160065240Y-99187818D01*
X160096051Y-99108895D01*
X160140884Y-99003509D01*
X160172353Y-98932954D01*
X160231192Y-98797876D01*
X160286604Y-98661409D01*
X160329564Y-98546103D01*
X160341234Y-98510977D01*
X160374389Y-98417174D01*
X160406799Y-98344694D01*
X160424601Y-98317301D01*
X160463886Y-98300536D01*
X160549626Y-98276770D01*
X160670697Y-98248697D01*
X160815973Y-98219009D01*
X160880988Y-98206806D01*
X161046087Y-98176468D01*
X161204448Y-98147093D01*
X161340596Y-98121569D01*
X161439057Y-98102785D01*
X161457598Y-98099160D01*
X161610873Y-98068906D01*
X161610873Y-97430645D01*
X161610529Y-97220770D01*
X161609116Y-97061980D01*
X161606064Y-96946973D01*
X161600803Y-96868446D01*
X161592763Y-96819096D01*
X161581373Y-96791619D01*
X161566063Y-96778713D01*
X161559782Y-96776320D01*
X161521896Y-96767833D01*
X161438195Y-96750900D01*
X161319433Y-96727566D01*
X161176361Y-96699875D01*
X161019732Y-96669873D01*
X160860297Y-96639604D01*
X160708809Y-96611115D01*
X160576019Y-96586449D01*
X160472681Y-96567651D01*
X160409545Y-96556767D01*
X160395497Y-96554885D01*
X160382770Y-96529704D01*
X160354600Y-96462622D01*
X160316252Y-96366333D01*
X160301609Y-96328621D01*
X160242548Y-96182921D01*
X160173000Y-96021951D01*
X160110712Y-95886291D01*
X160064879Y-95782561D01*
X160034387Y-95697326D01*
X160024208Y-95645126D01*
X160025831Y-95638130D01*
X160047343Y-95605102D01*
X160096465Y-95531643D01*
X160167923Y-95425577D01*
X160256445Y-95294726D01*
X160356759Y-95146912D01*
X160376594Y-95117734D01*
X160492988Y-94944863D01*
X160578548Y-94813226D01*
X160636684Y-94716761D01*
X160670808Y-94649408D01*
X160684331Y-94605106D01*
X160680664Y-94577794D01*
X160680570Y-94577620D01*
X160651707Y-94541746D01*
X160587867Y-94472391D01*
X160495969Y-94376745D01*
X160382933Y-94261999D01*
X160255679Y-94135341D01*
X160241328Y-94121205D01*
X160080957Y-93965903D01*
X159957195Y-93851870D01*
X159867555Y-93777002D01*
X159809552Y-93739196D01*
X159784004Y-93734317D01*
X159746718Y-93755603D01*
X159669343Y-93804773D01*
X159559867Y-93876575D01*
X159426280Y-93965755D01*
X159276570Y-94067063D01*
X159241618Y-94090897D01*
X158745390Y-94429765D01*
X158521293Y-94328056D01*
X158385011Y-94268783D01*
X158238724Y-94209170D01*
X158112965Y-94161640D01*
X158107425Y-94159685D01*
X158009057Y-94123677D01*
X157933229Y-94093229D01*
X157896282Y-94074905D01*
X157896220Y-94074852D01*
X157884496Y-94041729D01*
X157864568Y-93960267D01*
X157838413Y-93839625D01*
X157808010Y-93688959D01*
X157775337Y-93517428D01*
X157772664Y-93502967D01*
X157739890Y-93326235D01*
X157709802Y-93165810D01*
X157684339Y-93031888D01*
X157665441Y-92934663D01*
X157655047Y-92884332D01*
X157654865Y-92883563D01*
X157648539Y-92862153D01*
X157636239Y-92845988D01*
X157610594Y-92834331D01*
X157564235Y-92826445D01*
X157489792Y-92821593D01*
X157379895Y-92819039D01*
X157227175Y-92818045D01*
X157024262Y-92817874D01*
X156998000Y-92817874D01*
X156788986Y-92817998D01*
M02*
