%TF.GenerationSoftware,KiCad,Pcbnew,4.0.2+dfsg1-stable*%
%TF.CreationDate,2019-10-14T09:04:35+02:00*%
%TF.ProjectId,stduinof429,73746475696E6F663432392E6B696361,rev?*%
%TF.FileFunction,Copper,L2,Bot,Mixed*%
%FSLAX46Y46*%
G04 Gerber Fmt 4.6, Leading zero omitted, Abs format (unit mm)*
G04 Created by KiCad (PCBNEW 4.0.2+dfsg1-stable) date Mon 14 Oct 2019 09:04:35 CEST*
%MOMM*%
G01*
G04 APERTURE LIST*
%ADD10C,0.100000*%
%ADD11R,2.032000X2.032000*%
%ADD12O,2.032000X2.032000*%
%ADD13R,2.032000X1.727200*%
%ADD14O,2.032000X1.727200*%
%ADD15R,1.727200X2.032000*%
%ADD16O,1.727200X2.032000*%
%ADD17C,1.998980*%
%ADD18C,1.500000*%
%ADD19R,1.727200X1.727200*%
%ADD20O,1.727200X1.727200*%
%ADD21C,4.000000*%
%ADD22O,1.250000X0.950000*%
%ADD23O,1.000000X1.550000*%
%ADD24R,3.000000X1.524000*%
%ADD25C,0.600000*%
%ADD26C,0.250000*%
%ADD27C,0.254000*%
G04 APERTURE END LIST*
D10*
D11*
X117998000Y-93365000D03*
D12*
X117998000Y-90825000D03*
D11*
X123998000Y-93365000D03*
D12*
X123998000Y-90825000D03*
D13*
X176998000Y-96365000D03*
D14*
X176998000Y-98905000D03*
X176998000Y-101445000D03*
D15*
X113998000Y-80365000D03*
D16*
X116538000Y-80365000D03*
X119078000Y-80365000D03*
X121618000Y-80365000D03*
D17*
X119998000Y-124365000D03*
D18*
X130998000Y-97365000D03*
X130998000Y-102245000D03*
D19*
X99998000Y-99365000D03*
D20*
X102538000Y-99365000D03*
X99998000Y-101905000D03*
X102538000Y-101905000D03*
X99998000Y-104445000D03*
X102538000Y-104445000D03*
D15*
X138938000Y-123825000D03*
D16*
X141478000Y-123825000D03*
X144018000Y-123825000D03*
X146558000Y-123825000D03*
X149098000Y-123825000D03*
X151638000Y-123825000D03*
X154178000Y-123825000D03*
X156718000Y-123825000D03*
D15*
X161798000Y-123825000D03*
D16*
X164338000Y-123825000D03*
X166878000Y-123825000D03*
X169418000Y-123825000D03*
X171958000Y-123825000D03*
X174498000Y-123825000D03*
D15*
X129794000Y-75565000D03*
D16*
X132334000Y-75565000D03*
X134874000Y-75565000D03*
X137414000Y-75565000D03*
X139954000Y-75565000D03*
X142494000Y-75565000D03*
X145034000Y-75565000D03*
X147574000Y-75565000D03*
X150114000Y-75565000D03*
X152654000Y-75565000D03*
D15*
X156718000Y-75565000D03*
D16*
X159258000Y-75565000D03*
X161798000Y-75565000D03*
X164338000Y-75565000D03*
X166878000Y-75565000D03*
X169418000Y-75565000D03*
X171958000Y-75565000D03*
X174498000Y-75565000D03*
D21*
X124968000Y-124333000D03*
X177038000Y-119253000D03*
X126238000Y-76073000D03*
X177038000Y-91313000D03*
X106998000Y-91357000D03*
D22*
X99497100Y-122802460D03*
X104497100Y-122802460D03*
D23*
X98497100Y-125502460D03*
X105497100Y-125502460D03*
D15*
X103998000Y-112365000D03*
D16*
X101458000Y-112365000D03*
X98918000Y-112365000D03*
D24*
X88776000Y-123495000D03*
X88776000Y-120955000D03*
X88776000Y-118415000D03*
X88776000Y-115875000D03*
X88776000Y-113335000D03*
X88776000Y-110795000D03*
X88776000Y-108255000D03*
X88776000Y-105715000D03*
X88776000Y-103175000D03*
X88776000Y-100635000D03*
X88776000Y-98095000D03*
X88776000Y-95555000D03*
X88776000Y-93015000D03*
X88776000Y-90475000D03*
X88776000Y-87935000D03*
X88776000Y-85395000D03*
X88776000Y-82855000D03*
X88776000Y-80315000D03*
X88776000Y-77775000D03*
X88776000Y-75235000D03*
D25*
X133866300Y-113150100D03*
X137802800Y-107835700D03*
X171381200Y-87936300D03*
X169304600Y-85859700D03*
X148116000Y-105298300D03*
X127935800Y-118764200D03*
X135472000Y-86365000D03*
X139560200Y-83738300D03*
X141490700Y-83196300D03*
X136470300Y-89712000D03*
X148586500Y-98262500D03*
X102538000Y-106304600D03*
X147254400Y-102903200D03*
X111515600Y-82728200D03*
X172168200Y-80779400D03*
X170709100Y-92269500D03*
X174213900Y-98690300D03*
X168556600Y-91115000D03*
X128990100Y-89903500D03*
X141470900Y-116499300D03*
X141525000Y-108476700D03*
X155238100Y-110684900D03*
X159748000Y-87836200D03*
X158998000Y-114061900D03*
X174303100Y-104365000D03*
X174498000Y-95795100D03*
X171051500Y-94615000D03*
X148734700Y-88612100D03*
X123354600Y-95013000D03*
X157938600Y-88801600D03*
X148792300Y-110906400D03*
X150201500Y-113046700D03*
X140479300Y-77820800D03*
X149387700Y-109400400D03*
X153225500Y-109923400D03*
X157876800Y-85670400D03*
X157864800Y-84396700D03*
X160748000Y-85171700D03*
X161913600Y-87811700D03*
X163248000Y-85292500D03*
X115303200Y-95960900D03*
X142849900Y-102930000D03*
X146804100Y-101183000D03*
X152552400Y-101183000D03*
X153073300Y-113074200D03*
X107226500Y-86943400D03*
X146700300Y-108241500D03*
X148723600Y-95572700D03*
X165386100Y-85672900D03*
X145447400Y-92587000D03*
X138397300Y-92504900D03*
X99585600Y-87344100D03*
X101837800Y-90890200D03*
X138326600Y-93755600D03*
X145441900Y-104265600D03*
X142757800Y-104615000D03*
X119095600Y-119802100D03*
X145705200Y-105753600D03*
X124672100Y-120875000D03*
X141320800Y-105591400D03*
X129786600Y-115425100D03*
X132047900Y-114427700D03*
X135848300Y-115079800D03*
X139612500Y-110661100D03*
X147227100Y-77105200D03*
X152745100Y-110905400D03*
X92973800Y-120437100D03*
X146658400Y-103775000D03*
X95049100Y-118415000D03*
X120895500Y-119615700D03*
X140066600Y-82463900D03*
X148993500Y-100541900D03*
X156030300Y-100541900D03*
X160445500Y-110571300D03*
X148854800Y-81207800D03*
X159082800Y-108177000D03*
X97260800Y-113267700D03*
X146302400Y-101813300D03*
X128499200Y-115090100D03*
X131312200Y-116067100D03*
X153442500Y-115846800D03*
X165297500Y-100617400D03*
X146804100Y-100372800D03*
X132496500Y-111739800D03*
X133751600Y-111221100D03*
X145475600Y-101332500D03*
X103888100Y-103175000D03*
X145903500Y-97482100D03*
X145459200Y-102269200D03*
X158784600Y-102269200D03*
X161255600Y-97262000D03*
X147248900Y-96997600D03*
X146717300Y-96322200D03*
X95490200Y-105302100D03*
X102253400Y-108242700D03*
X105693200Y-113170600D03*
X117334900Y-122958400D03*
X170789600Y-96166100D03*
X96888300Y-98095000D03*
X146067900Y-95142800D03*
X146944100Y-94392500D03*
X94257500Y-96199700D03*
X114667000Y-92244100D03*
X148379300Y-92574600D03*
X161365500Y-89941500D03*
X163110100Y-89426800D03*
X115650800Y-86286300D03*
X166288400Y-88158600D03*
X98637300Y-95753200D03*
X120048700Y-95102900D03*
X135172100Y-88628000D03*
X160795400Y-89373700D03*
X164883000Y-87826800D03*
X146136500Y-94113800D03*
X146136900Y-93216200D03*
X91510000Y-76166800D03*
X148076900Y-80610700D03*
X153145800Y-85334900D03*
X91056600Y-77065600D03*
X133192200Y-74027900D03*
X154001700Y-87809400D03*
X95461200Y-82587800D03*
X119246300Y-83239000D03*
X158739000Y-88562600D03*
X144423200Y-85147700D03*
X148110000Y-89139000D03*
X121604100Y-85472600D03*
X122989400Y-84087300D03*
X138452800Y-111379600D03*
X143361600Y-112870300D03*
X146552100Y-118995300D03*
X145584600Y-106615000D03*
X150073400Y-85678100D03*
X149173400Y-87918200D03*
X156440900Y-91433100D03*
X158180400Y-91979000D03*
X143278600Y-89615000D03*
D26*
X104697700Y-123602800D02*
X104497100Y-123602800D01*
X105497100Y-124402200D02*
X104697700Y-123602800D01*
X105497100Y-125502500D02*
X105497100Y-124402200D01*
X99296500Y-123602800D02*
X99497100Y-123602800D01*
X98497100Y-124402200D02*
X99296500Y-123602800D01*
X98497100Y-125502500D02*
X98497100Y-124402200D01*
X99497100Y-123202600D02*
X104497100Y-123202600D01*
X99497100Y-122802500D02*
X99497100Y-123202600D01*
X99497100Y-123202600D02*
X99497100Y-123602800D01*
X104497100Y-122802500D02*
X104497100Y-123202600D01*
X104497100Y-123202600D02*
X104497100Y-123602800D01*
X117998000Y-90825000D02*
X117998000Y-90154300D01*
X117998000Y-90154300D02*
X117998000Y-89483700D01*
X121986000Y-90154300D02*
X122656700Y-90825000D01*
X117998000Y-90154300D02*
X121986000Y-90154300D01*
X123998000Y-90825000D02*
X122656700Y-90825000D01*
X125598800Y-118764200D02*
X127935800Y-118764200D01*
X119998000Y-124365000D02*
X125598800Y-118764200D01*
X135472000Y-86365000D02*
X136470300Y-86365000D01*
X136470300Y-89712000D02*
X136470300Y-86365000D01*
X136933500Y-86365000D02*
X139560200Y-83738300D01*
X136470300Y-86365000D02*
X136933500Y-86365000D01*
X150449100Y-122636100D02*
X150449100Y-123825000D01*
X147244100Y-119431100D02*
X150449100Y-122636100D01*
X147244100Y-108582300D02*
X147244100Y-119431100D01*
X148116000Y-107710400D02*
X147244100Y-108582300D01*
X148116000Y-105298300D02*
X148116000Y-107710400D01*
X151638000Y-123825000D02*
X150449100Y-123825000D01*
X135443900Y-111572500D02*
X133866300Y-113150100D01*
X135443900Y-110194600D02*
X135443900Y-111572500D01*
X137802800Y-107835700D02*
X135443900Y-110194600D01*
X137414000Y-78354400D02*
X137414000Y-75565000D01*
X141490700Y-82431100D02*
X137414000Y-78354400D01*
X141490700Y-83196300D02*
X141490700Y-82431100D01*
X117876100Y-89483700D02*
X117998000Y-89483700D01*
X113998000Y-85605600D02*
X117876100Y-89483700D01*
X113998000Y-80365000D02*
X113998000Y-85605600D01*
X171381200Y-87936300D02*
X169304600Y-85859700D01*
X148330100Y-105084200D02*
X148116000Y-105298300D01*
X148330100Y-98518900D02*
X148330100Y-105084200D01*
X148586500Y-98262500D02*
X148330100Y-98518900D01*
X101458000Y-112365000D02*
X101458000Y-111023700D01*
X101458000Y-107384600D02*
X102538000Y-106304600D01*
X101458000Y-111023700D02*
X101458000Y-107384600D01*
X144018000Y-123825000D02*
X144018000Y-122483700D01*
X147307500Y-102903200D02*
X147254400Y-102903200D01*
X147429500Y-102781200D02*
X147307500Y-102903200D01*
X147429500Y-97889300D02*
X147429500Y-102781200D01*
X147874300Y-97444500D02*
X147429500Y-97889300D01*
X147874300Y-96368400D02*
X147874300Y-97444500D01*
X147574300Y-96068400D02*
X147874300Y-96368400D01*
X147574300Y-93927700D02*
X147574300Y-96068400D01*
X146853400Y-93206800D02*
X147574300Y-93927700D01*
X146853400Y-93036600D02*
X146853400Y-93206800D01*
X145696200Y-91879400D02*
X146853400Y-93036600D01*
X131288600Y-91879400D02*
X145696200Y-91879400D01*
X125672100Y-97495900D02*
X131288600Y-91879400D01*
X117722800Y-97495900D02*
X125672100Y-97495900D01*
X111515600Y-91288700D02*
X117722800Y-97495900D01*
X111515600Y-82728200D02*
X111515600Y-91288700D01*
X144468300Y-122033400D02*
X144018000Y-122483700D01*
X144468300Y-106074900D02*
X144468300Y-122033400D01*
X145414900Y-105128300D02*
X144468300Y-106074900D01*
X146194200Y-105128300D02*
X145414900Y-105128300D01*
X147307500Y-104015000D02*
X146194200Y-105128300D01*
X147307500Y-102903200D02*
X147307500Y-104015000D01*
X172168200Y-90810400D02*
X170709100Y-92269500D01*
X172168200Y-80779400D02*
X172168200Y-90810400D01*
X142666900Y-124345100D02*
X142666900Y-123825000D01*
X143491400Y-125169600D02*
X142666900Y-124345100D01*
X144544600Y-125169600D02*
X143491400Y-125169600D01*
X145369100Y-124345100D02*
X144544600Y-125169600D01*
X145369100Y-123825000D02*
X145369100Y-124345100D01*
X146558000Y-123825000D02*
X145369100Y-123825000D01*
X121618000Y-80365000D02*
X122806900Y-80365000D01*
X141478000Y-123825000D02*
X141990400Y-123825000D01*
X141990400Y-123825000D02*
X142666900Y-123825000D01*
X141990400Y-117018800D02*
X141470900Y-116499300D01*
X141990400Y-123825000D02*
X141990400Y-117018800D01*
X144018000Y-110969700D02*
X141525000Y-108476700D01*
X144018000Y-113952200D02*
X144018000Y-110969700D01*
X141470900Y-116499300D02*
X144018000Y-113952200D01*
X128990100Y-86548200D02*
X128990100Y-89903500D01*
X122806900Y-80365000D02*
X128990100Y-86548200D01*
X159748000Y-89218500D02*
X159748000Y-87836200D01*
X161644500Y-91115000D02*
X159748000Y-89218500D01*
X168556600Y-91115000D02*
X161644500Y-91115000D01*
X158615100Y-114061900D02*
X158998000Y-114061900D01*
X155238100Y-110684900D02*
X158615100Y-114061900D01*
X168556600Y-93284500D02*
X168556600Y-91115000D01*
X170724300Y-95452200D02*
X168556600Y-93284500D01*
X170975800Y-95452200D02*
X170724300Y-95452200D01*
X174213900Y-98690300D02*
X170975800Y-95452200D01*
X174303100Y-98779500D02*
X174303100Y-104365000D01*
X174213900Y-98690300D02*
X174303100Y-98779500D01*
X176998000Y-98905000D02*
X176998000Y-97716100D01*
X174498000Y-75565000D02*
X174498000Y-95795100D01*
X175957700Y-97716100D02*
X176998000Y-97716100D01*
X174498000Y-96256400D02*
X175957700Y-97716100D01*
X174498000Y-95795100D02*
X174498000Y-96256400D01*
X176998000Y-101445000D02*
X176998000Y-100256100D01*
X175072500Y-97729500D02*
X171958000Y-94615000D01*
X175072500Y-98850700D02*
X175072500Y-97729500D01*
X176477900Y-100256100D02*
X175072500Y-98850700D01*
X176998000Y-100256100D02*
X176477900Y-100256100D01*
X171958000Y-75565000D02*
X171958000Y-76906300D01*
X172793500Y-77741800D02*
X171958000Y-76906300D01*
X172793500Y-93779500D02*
X172793500Y-77741800D01*
X171958000Y-94615000D02*
X172793500Y-93779500D01*
X171958000Y-94615000D02*
X171051500Y-94615000D01*
X171958000Y-123825000D02*
X170769100Y-123825000D01*
X132334000Y-75565000D02*
X133522900Y-75565000D01*
X133522900Y-75044900D02*
X133522900Y-75565000D01*
X134351500Y-74216300D02*
X133522900Y-75044900D01*
X137900400Y-74216300D02*
X134351500Y-74216300D01*
X138684000Y-74999900D02*
X137900400Y-74216300D01*
X138684000Y-77272700D02*
X138684000Y-74999900D01*
X148467500Y-87056200D02*
X138684000Y-77272700D01*
X148467500Y-88344900D02*
X148467500Y-87056200D01*
X148734700Y-88612100D02*
X148467500Y-88344900D01*
X148905100Y-88782500D02*
X148734700Y-88612100D01*
X148905100Y-90667600D02*
X148905100Y-88782500D01*
X149844300Y-91606800D02*
X148905100Y-90667600D01*
X149844400Y-91606800D02*
X149844300Y-91606800D01*
X149844400Y-96159600D02*
X149844400Y-91606800D01*
X149662100Y-96341900D02*
X149844400Y-96159600D01*
X149662100Y-105768800D02*
X149662100Y-96341900D01*
X148774900Y-106656000D02*
X149662100Y-105768800D01*
X148774900Y-107688500D02*
X148774900Y-106656000D01*
X147703100Y-108760300D02*
X148774900Y-107688500D01*
X147703100Y-112723400D02*
X147703100Y-108760300D01*
X160626500Y-125646800D02*
X147703100Y-112723400D01*
X169467400Y-125646800D02*
X160626500Y-125646800D01*
X170769100Y-124345100D02*
X169467400Y-125646800D01*
X170769100Y-123825000D02*
X170769100Y-124345100D01*
X174498000Y-123825000D02*
X174498000Y-122483700D01*
X129973000Y-75565000D02*
X130982900Y-75565000D01*
X129973000Y-75565000D02*
X129926700Y-75565000D01*
X129794000Y-75565000D02*
X129926700Y-75565000D01*
X124847300Y-95013000D02*
X123354600Y-95013000D01*
X129926700Y-89933600D02*
X124847300Y-95013000D01*
X129926700Y-75565000D02*
X129926700Y-89933600D01*
X167490300Y-98353300D02*
X157938600Y-88801600D01*
X167490300Y-115476000D02*
X167490300Y-98353300D01*
X174498000Y-122483700D02*
X167490300Y-115476000D01*
X130982900Y-75058800D02*
X130982900Y-75565000D01*
X132813000Y-73228700D02*
X130982900Y-75058800D01*
X152179900Y-73228700D02*
X132813000Y-73228700D01*
X154213200Y-75262000D02*
X152179900Y-73228700D01*
X154213200Y-79860700D02*
X154213200Y-75262000D01*
X158545500Y-84193000D02*
X154213200Y-79860700D01*
X158545500Y-85908400D02*
X158545500Y-84193000D01*
X157938600Y-86515300D02*
X158545500Y-85908400D01*
X157938600Y-88801600D02*
X157938600Y-86515300D01*
X139954000Y-75565000D02*
X141142900Y-75565000D01*
X141142900Y-78366300D02*
X141142900Y-75565000D01*
X150260700Y-87484100D02*
X141142900Y-78366300D01*
X150260700Y-89029300D02*
X150260700Y-87484100D01*
X151195300Y-89963900D02*
X150260700Y-89029300D01*
X151195300Y-96719400D02*
X151195300Y-89963900D01*
X151013000Y-96901700D02*
X151195300Y-96719400D01*
X151013000Y-106647000D02*
X151013000Y-96901700D01*
X150594100Y-107065900D02*
X151013000Y-106647000D01*
X150594100Y-109104600D02*
X150594100Y-107065900D01*
X148792300Y-110906400D02*
X150594100Y-109104600D01*
X142494000Y-75565000D02*
X143682900Y-75565000D01*
X143682900Y-75044900D02*
X143682900Y-75565000D01*
X144515400Y-74212400D02*
X143682900Y-75044900D01*
X145529600Y-74212400D02*
X144515400Y-74212400D01*
X146251300Y-74934100D02*
X145529600Y-74212400D01*
X146251300Y-82837800D02*
X146251300Y-74934100D01*
X150711000Y-87297500D02*
X146251300Y-82837800D01*
X150711000Y-88842700D02*
X150711000Y-87297500D01*
X151645600Y-89777300D02*
X150711000Y-88842700D01*
X151645600Y-96906000D02*
X151645600Y-89777300D01*
X151463300Y-97088300D02*
X151645600Y-96906000D01*
X151463300Y-106833600D02*
X151463300Y-97088300D01*
X151044400Y-107252500D02*
X151463300Y-106833600D01*
X151044400Y-112203800D02*
X151044400Y-107252500D01*
X150201500Y-113046700D02*
X151044400Y-112203800D01*
X140479300Y-78339600D02*
X140479300Y-77820800D01*
X149810400Y-87670700D02*
X140479300Y-78339600D01*
X149810400Y-89215900D02*
X149810400Y-87670700D01*
X150745000Y-90150500D02*
X149810400Y-89215900D01*
X150745000Y-96532800D02*
X150745000Y-90150500D01*
X150562700Y-96715100D02*
X150745000Y-96532800D01*
X150562700Y-106367000D02*
X150562700Y-96715100D01*
X149900600Y-107029100D02*
X150562700Y-106367000D01*
X149900600Y-108887500D02*
X149900600Y-107029100D01*
X149387700Y-109400400D02*
X149900600Y-108887500D01*
X153628000Y-109520900D02*
X153225500Y-109923400D01*
X153628000Y-89849000D02*
X153628000Y-109520900D01*
X152061900Y-88282900D02*
X153628000Y-89849000D01*
X152061900Y-86074000D02*
X152061900Y-88282900D01*
X147451600Y-81463700D02*
X152061900Y-86074000D01*
X147451600Y-80351700D02*
X147451600Y-81463700D01*
X147867100Y-79936200D02*
X147451600Y-80351700D01*
X147867100Y-75858100D02*
X147867100Y-79936200D01*
X147574000Y-75565000D02*
X147867100Y-75858100D01*
X150114000Y-75565000D02*
X150114000Y-76906300D01*
X150114000Y-77907600D02*
X150114000Y-76906300D01*
X157876800Y-85670400D02*
X150114000Y-77907600D01*
X152654000Y-79185900D02*
X157864800Y-84396700D01*
X152654000Y-75565000D02*
X152654000Y-79185900D01*
X160748000Y-79595000D02*
X160748000Y-85171700D01*
X157906900Y-76753900D02*
X160748000Y-79595000D01*
X157906900Y-75565000D02*
X157906900Y-76753900D01*
X156718000Y-75565000D02*
X157906900Y-75565000D01*
X161798000Y-87696100D02*
X161913600Y-87811700D01*
X161798000Y-75565000D02*
X161798000Y-87696100D01*
X168229100Y-80311400D02*
X163248000Y-85292500D01*
X168229100Y-75565000D02*
X168229100Y-80311400D01*
X169418000Y-75565000D02*
X168229100Y-75565000D01*
X88776000Y-75235000D02*
X90601300Y-75235000D01*
X152552400Y-107018300D02*
X152552400Y-101183000D01*
X152119600Y-107451100D02*
X152552400Y-107018300D01*
X152119600Y-112120500D02*
X152119600Y-107451100D01*
X153073300Y-113074200D02*
X152119600Y-112120500D01*
X115303200Y-95713200D02*
X115303200Y-95960900D01*
X107158700Y-87568700D02*
X115303200Y-95713200D01*
X104628800Y-87568700D02*
X107158700Y-87568700D01*
X92295100Y-75235000D02*
X104628800Y-87568700D01*
X90601300Y-75235000D02*
X92295100Y-75235000D01*
X146082800Y-102930000D02*
X142849900Y-102930000D01*
X146979200Y-102033600D02*
X146082800Y-102930000D01*
X146979200Y-101358100D02*
X146979200Y-102033600D01*
X146804100Y-101183000D02*
X146979200Y-101358100D01*
X146700300Y-105829700D02*
X146700300Y-108241500D01*
X147879800Y-104650200D02*
X146700300Y-105829700D01*
X147879800Y-98075900D02*
X147879800Y-104650200D01*
X148330100Y-97625600D02*
X147879800Y-98075900D01*
X148330100Y-96187300D02*
X148330100Y-97625600D01*
X148039400Y-95896600D02*
X148330100Y-96187300D01*
X148039400Y-93755800D02*
X148039400Y-95896600D01*
X148039300Y-93755800D02*
X148039400Y-93755800D01*
X147303700Y-93020200D02*
X148039300Y-93755800D01*
X147303700Y-92804900D02*
X147303700Y-93020200D01*
X145927900Y-91429100D02*
X147303700Y-92804900D01*
X131102000Y-91429100D02*
X145927900Y-91429100D01*
X125485500Y-97045600D02*
X131102000Y-91429100D01*
X117909400Y-97045600D02*
X125485500Y-97045600D01*
X112326700Y-91462900D02*
X117909400Y-97045600D01*
X112326700Y-82646100D02*
X112326700Y-91462900D01*
X111771500Y-82090900D02*
X112326700Y-82646100D01*
X111242300Y-82090900D02*
X111771500Y-82090900D01*
X107226500Y-86106700D02*
X111242300Y-82090900D01*
X107226500Y-86943400D02*
X107226500Y-86106700D01*
X116538000Y-80365000D02*
X115349100Y-80365000D01*
X148723600Y-93688800D02*
X148723600Y-95572700D01*
X148234700Y-93199900D02*
X148723600Y-93688800D01*
X148120300Y-93199900D02*
X148234700Y-93199900D01*
X147754000Y-92833600D02*
X148120300Y-93199900D01*
X147754000Y-92604700D02*
X147754000Y-92833600D01*
X146089600Y-90940300D02*
X147754000Y-92604700D01*
X130953900Y-90940300D02*
X146089600Y-90940300D01*
X125298900Y-96595300D02*
X130953900Y-90940300D01*
X118096000Y-96595300D02*
X125298900Y-96595300D01*
X112777100Y-91276400D02*
X118096000Y-96595300D01*
X112777100Y-79203300D02*
X112777100Y-91276400D01*
X112956800Y-79023600D02*
X112777100Y-79203300D01*
X115048000Y-79023600D02*
X112956800Y-79023600D01*
X115349100Y-79324700D02*
X115048000Y-79023600D01*
X115349100Y-80365000D02*
X115349100Y-79324700D01*
X119078000Y-80365000D02*
X119078000Y-79023700D01*
X125895600Y-72206100D02*
X119078000Y-79023700D01*
X152440500Y-72206100D02*
X125895600Y-72206100D01*
X155113800Y-74879400D02*
X152440500Y-72206100D01*
X155113800Y-79487500D02*
X155113800Y-74879400D01*
X159671900Y-84045600D02*
X155113800Y-79487500D01*
X159671900Y-86454900D02*
X159671900Y-84045600D01*
X161654100Y-88437100D02*
X159671900Y-86454900D01*
X162578600Y-88437100D02*
X161654100Y-88437100D01*
X165342800Y-85672900D02*
X162578600Y-88437100D01*
X165386100Y-85672900D02*
X165342800Y-85672900D01*
X88776000Y-90475000D02*
X90601300Y-90475000D01*
X144904200Y-93130200D02*
X145447400Y-92587000D01*
X131311600Y-93130200D02*
X144904200Y-93130200D01*
X126019800Y-98422000D02*
X131311600Y-93130200D01*
X110268000Y-98422000D02*
X126019800Y-98422000D01*
X102101000Y-90255000D02*
X110268000Y-98422000D01*
X90821300Y-90255000D02*
X102101000Y-90255000D01*
X90601300Y-90475000D02*
X90821300Y-90255000D01*
X88776000Y-87935000D02*
X90601300Y-87935000D01*
X131300000Y-92504900D02*
X138397300Y-92504900D01*
X125833200Y-97971700D02*
X131300000Y-92504900D01*
X116429700Y-97971700D02*
X125833200Y-97971700D01*
X113484800Y-95026800D02*
X116429700Y-97971700D01*
X113484800Y-94531700D02*
X113484800Y-95026800D01*
X106972100Y-88019000D02*
X113484800Y-94531700D01*
X90685300Y-88019000D02*
X106972100Y-88019000D01*
X90601300Y-87935000D02*
X90685300Y-88019000D01*
X131323100Y-93755600D02*
X138326600Y-93755600D01*
X126206400Y-98872300D02*
X131323100Y-93755600D01*
X109819900Y-98872300D02*
X126206400Y-98872300D01*
X101837800Y-90890200D02*
X109819900Y-98872300D01*
X97636500Y-85395000D02*
X99585600Y-87344100D01*
X88776000Y-85395000D02*
X97636500Y-85395000D01*
X141935900Y-107771600D02*
X145441900Y-104265600D01*
X141169900Y-107771600D02*
X141935900Y-107771600D01*
X138930600Y-110010900D02*
X141169900Y-107771600D01*
X138293700Y-110010900D02*
X138930600Y-110010900D01*
X137377200Y-110927400D02*
X138293700Y-110010900D01*
X137377200Y-112602700D02*
X137377200Y-110927400D01*
X133288400Y-116691500D02*
X137377200Y-112602700D01*
X133288400Y-116886000D02*
X133288400Y-116691500D01*
X132070100Y-118104300D02*
X133288400Y-116886000D01*
X125237600Y-118104300D02*
X132070100Y-118104300D01*
X121790100Y-121551800D02*
X125237600Y-118104300D01*
X94987600Y-121551800D02*
X121790100Y-121551800D01*
X93044400Y-123495000D02*
X94987600Y-121551800D01*
X88776000Y-123495000D02*
X93044400Y-123495000D01*
X88776000Y-120955000D02*
X90601300Y-120955000D01*
X142757800Y-105675900D02*
X142757800Y-104615000D01*
X141337600Y-107096100D02*
X142757800Y-105675900D01*
X141178200Y-107096100D02*
X141337600Y-107096100D01*
X138713700Y-109560600D02*
X141178200Y-107096100D01*
X138107100Y-109560600D02*
X138713700Y-109560600D01*
X136926900Y-110740800D02*
X138107100Y-109560600D01*
X136926900Y-112410000D02*
X136926900Y-110740800D01*
X132838100Y-116498800D02*
X136926900Y-112410000D01*
X132838100Y-116699400D02*
X132838100Y-116498800D01*
X131883600Y-117653900D02*
X132838100Y-116699400D01*
X124414300Y-117653900D02*
X131883600Y-117653900D01*
X121004200Y-121064000D02*
X124414300Y-117653900D01*
X90710300Y-121064000D02*
X121004200Y-121064000D01*
X90601300Y-120955000D02*
X90710300Y-121064000D01*
X91988400Y-119802100D02*
X119095600Y-119802100D01*
X90601300Y-118415000D02*
X91988400Y-119802100D01*
X88776000Y-118415000D02*
X90601300Y-118415000D01*
X125169100Y-120875000D02*
X124672100Y-120875000D01*
X129921400Y-125627300D02*
X125169100Y-120875000D01*
X146646700Y-125627300D02*
X129921400Y-125627300D01*
X147768700Y-124505300D02*
X146646700Y-125627300D01*
X147768700Y-122955900D02*
X147768700Y-124505300D01*
X144959200Y-120146400D02*
X147768700Y-122955900D01*
X144959200Y-106356000D02*
X144959200Y-120146400D01*
X145561600Y-105753600D02*
X144959200Y-106356000D01*
X145705200Y-105753600D02*
X145561600Y-105753600D01*
X88776000Y-115875000D02*
X90601300Y-115875000D01*
X141223500Y-105591400D02*
X141320800Y-105591400D01*
X138154900Y-108660000D02*
X141223500Y-105591400D01*
X137733900Y-108660000D02*
X138154900Y-108660000D01*
X136026300Y-110367600D02*
X137733900Y-108660000D01*
X136026300Y-112002900D02*
X136026300Y-110367600D01*
X131937500Y-116091700D02*
X136026300Y-112002900D01*
X131937500Y-116326200D02*
X131937500Y-116091700D01*
X131528900Y-116734800D02*
X131937500Y-116326200D01*
X91461100Y-116734800D02*
X131528900Y-116734800D01*
X90601300Y-115875000D02*
X91461100Y-116734800D01*
X129472400Y-115739300D02*
X129786600Y-115425100D01*
X95583100Y-115739300D02*
X129472400Y-115739300D01*
X93178800Y-113335000D02*
X95583100Y-115739300D01*
X88776000Y-113335000D02*
X93178800Y-113335000D01*
X131945200Y-114325000D02*
X132047900Y-114427700D01*
X128001300Y-114325000D02*
X131945200Y-114325000D01*
X127106200Y-115220100D02*
X128001300Y-114325000D01*
X96470200Y-115220100D02*
X127106200Y-115220100D01*
X92045100Y-110795000D02*
X96470200Y-115220100D01*
X88776000Y-110795000D02*
X92045100Y-110795000D01*
X137827500Y-113100600D02*
X135848300Y-115079800D01*
X137827500Y-111114000D02*
X137827500Y-113100600D01*
X138280400Y-110661100D02*
X137827500Y-111114000D01*
X139612500Y-110661100D02*
X138280400Y-110661100D01*
X152570000Y-110730300D02*
X152745100Y-110905400D01*
X152570000Y-107637600D02*
X152570000Y-110730300D01*
X153177700Y-107029900D02*
X152570000Y-107637600D01*
X153177700Y-90035600D02*
X153177700Y-107029900D01*
X151611600Y-88469500D02*
X153177700Y-90035600D01*
X151611600Y-86260600D02*
X151611600Y-88469500D01*
X146966500Y-81615500D02*
X151611600Y-86260600D01*
X146966500Y-77365800D02*
X146966500Y-81615500D01*
X147227100Y-77105200D02*
X146966500Y-77365800D01*
X146474200Y-103590800D02*
X146658400Y-103775000D01*
X142895300Y-103590800D02*
X146474200Y-103590800D01*
X142126900Y-104359200D02*
X142895300Y-103590800D01*
X142126900Y-105669900D02*
X142126900Y-104359200D01*
X141376000Y-106420800D02*
X142126900Y-105669900D01*
X141112200Y-106420800D02*
X141376000Y-106420800D01*
X138422700Y-109110300D02*
X141112200Y-106420800D01*
X137920500Y-109110300D02*
X138422700Y-109110300D01*
X136476600Y-110554200D02*
X137920500Y-109110300D01*
X136476600Y-112203800D02*
X136476600Y-110554200D01*
X132387800Y-116292600D02*
X136476600Y-112203800D01*
X132387800Y-116512800D02*
X132387800Y-116292600D01*
X131715500Y-117185100D02*
X132387800Y-116512800D01*
X124246100Y-117185100D02*
X131715500Y-117185100D01*
X120994100Y-120437100D02*
X124246100Y-117185100D01*
X92973800Y-120437100D02*
X120994100Y-120437100D01*
X119694800Y-118415000D02*
X120895500Y-119615700D01*
X95049100Y-118415000D02*
X119694800Y-118415000D01*
X160445500Y-104957100D02*
X156030300Y-100541900D01*
X160445500Y-110571300D02*
X160445500Y-104957100D01*
X140066600Y-82689600D02*
X140066600Y-82463900D01*
X149394100Y-92017100D02*
X140066600Y-82689600D01*
X149394100Y-95860200D02*
X149394100Y-92017100D01*
X149211800Y-96042500D02*
X149394100Y-95860200D01*
X149211800Y-100323600D02*
X149211800Y-96042500D01*
X148993500Y-100541900D02*
X149211800Y-100323600D01*
X154178300Y-103272500D02*
X159082800Y-108177000D01*
X154178300Y-89762300D02*
X154178300Y-103272500D01*
X152512200Y-88096200D02*
X154178300Y-89762300D01*
X152512200Y-84865200D02*
X152512200Y-88096200D01*
X148854800Y-81207800D02*
X152512200Y-84865200D01*
X146178800Y-101689700D02*
X146302400Y-101813300D01*
X146178800Y-101124200D02*
X146178800Y-101689700D01*
X145761700Y-100707100D02*
X146178800Y-101124200D01*
X142692800Y-100707100D02*
X145761700Y-100707100D01*
X133126300Y-110273600D02*
X142692800Y-100707100D01*
X133126300Y-112012600D02*
X133126300Y-110273600D01*
X132314300Y-112824600D02*
X133126300Y-112012600D01*
X128192500Y-112824600D02*
X132314300Y-112824600D01*
X126764800Y-114252300D02*
X128192500Y-112824600D01*
X98245400Y-114252300D02*
X126764800Y-114252300D01*
X97260800Y-113267700D02*
X98245400Y-114252300D01*
X131312200Y-115981800D02*
X131312200Y-116067100D01*
X130105800Y-114775400D02*
X131312200Y-115981800D01*
X128813900Y-114775400D02*
X130105800Y-114775400D01*
X128499200Y-115090100D02*
X128813900Y-114775400D01*
X158164700Y-115846800D02*
X153442500Y-115846800D01*
X165297500Y-108714000D02*
X158164700Y-115846800D01*
X165297500Y-100617400D02*
X165297500Y-108714000D01*
X146688100Y-100256800D02*
X146804100Y-100372800D01*
X142502800Y-100256800D02*
X146688100Y-100256800D01*
X132496500Y-110263100D02*
X142502800Y-100256800D01*
X132496500Y-111739800D02*
X132496500Y-110263100D01*
X142744500Y-101332500D02*
X145475600Y-101332500D01*
X133751600Y-110325400D02*
X142744500Y-101332500D01*
X133751600Y-111221100D02*
X133751600Y-110325400D01*
X145380300Y-98005300D02*
X145903500Y-97482100D01*
X139788300Y-98005300D02*
X145380300Y-98005300D01*
X134419400Y-103374200D02*
X139788300Y-98005300D01*
X104087300Y-103374200D02*
X134419400Y-103374200D01*
X103888100Y-103175000D02*
X104087300Y-103374200D01*
X161255600Y-99798200D02*
X158784600Y-102269200D01*
X161255600Y-97262000D02*
X161255600Y-99798200D01*
X91285100Y-108255000D02*
X88776000Y-108255000D01*
X97754900Y-114724800D02*
X91285100Y-108255000D01*
X126929300Y-114724800D02*
X97754900Y-114724800D01*
X128060900Y-113593200D02*
X126929300Y-114724800D01*
X132295800Y-113593200D02*
X128060900Y-113593200D01*
X134993600Y-110895400D02*
X132295800Y-113593200D01*
X134993600Y-109756500D02*
X134993600Y-110895400D01*
X142480900Y-102269200D02*
X134993600Y-109756500D01*
X145459200Y-102269200D02*
X142480900Y-102269200D01*
X94106900Y-105715000D02*
X88776000Y-105715000D01*
X100188000Y-111796100D02*
X94106900Y-105715000D01*
X100188000Y-112990100D02*
X100188000Y-111796100D01*
X100999800Y-113801900D02*
X100188000Y-112990100D01*
X126207500Y-113801900D02*
X100999800Y-113801900D01*
X140653300Y-99356100D02*
X126207500Y-113801900D01*
X145624100Y-99356100D02*
X140653300Y-99356100D01*
X146979200Y-98001000D02*
X145624100Y-99356100D01*
X146979200Y-97267300D02*
X146979200Y-98001000D01*
X147248900Y-96997600D02*
X146979200Y-97267300D01*
X92478700Y-103175000D02*
X88776000Y-103175000D01*
X95236600Y-105932900D02*
X92478700Y-103175000D01*
X101884200Y-105932900D02*
X95236600Y-105932900D01*
X102160500Y-105656600D02*
X101884200Y-105932900D01*
X132958100Y-105656600D02*
X102160500Y-105656600D01*
X140145600Y-98469100D02*
X132958100Y-105656600D01*
X145873100Y-98469100D02*
X140145600Y-98469100D01*
X146528900Y-97813300D02*
X145873100Y-98469100D01*
X146528900Y-96510600D02*
X146528900Y-97813300D01*
X146717300Y-96322200D02*
X146528900Y-96510600D01*
X170789600Y-117441100D02*
X170789600Y-96166100D01*
X175725200Y-122376700D02*
X170789600Y-117441100D01*
X175725200Y-124469500D02*
X175725200Y-122376700D01*
X173480900Y-126713800D02*
X175725200Y-124469500D01*
X120404700Y-126713800D02*
X173480900Y-126713800D01*
X117334900Y-123644000D02*
X120404700Y-126713800D01*
X117334900Y-122958400D02*
X117334900Y-123644000D01*
X105693200Y-111682500D02*
X105693200Y-113170600D01*
X102253400Y-108242700D02*
X105693200Y-111682500D01*
X90823100Y-100635000D02*
X95490200Y-105302100D01*
X88776000Y-100635000D02*
X90823100Y-100635000D01*
X144356200Y-96854500D02*
X146067900Y-95142800D01*
X136418100Y-96854500D02*
X144356200Y-96854500D01*
X133049400Y-100223200D02*
X136418100Y-96854500D01*
X108867300Y-100223200D02*
X133049400Y-100223200D01*
X106739100Y-98095000D02*
X108867300Y-100223200D01*
X96888300Y-98095000D02*
X106739100Y-98095000D01*
X146944100Y-95161000D02*
X146944100Y-94392500D01*
X144550100Y-97555000D02*
X146944100Y-95161000D01*
X138964800Y-97555000D02*
X144550100Y-97555000D01*
X135846300Y-100673500D02*
X138964800Y-97555000D01*
X98449900Y-100673500D02*
X135846300Y-100673500D01*
X94257500Y-96481100D02*
X98449900Y-100673500D01*
X94257500Y-96199700D02*
X94257500Y-96481100D01*
X162595400Y-89941500D02*
X161365500Y-89941500D01*
X163110100Y-89426800D02*
X162595400Y-89941500D01*
X114667100Y-92244100D02*
X114667000Y-92244100D01*
X114667100Y-92529500D02*
X114667100Y-92244100D01*
X118273700Y-96136100D02*
X114667100Y-92529500D01*
X125121200Y-96136100D02*
X118273700Y-96136100D01*
X130767400Y-90489900D02*
X125121200Y-96136100D01*
X146294600Y-90489900D02*
X130767400Y-90489900D01*
X148379300Y-92574600D02*
X146294600Y-90489900D01*
X117727000Y-84210100D02*
X115650800Y-86286300D01*
X117727000Y-79727400D02*
X117727000Y-84210100D01*
X125701100Y-71753300D02*
X117727000Y-79727400D01*
X159850500Y-71753300D02*
X125701100Y-71753300D01*
X163027300Y-74930100D02*
X159850500Y-71753300D01*
X163027300Y-78441900D02*
X163027300Y-74930100D01*
X162591000Y-78878200D02*
X163027300Y-78441900D01*
X162591000Y-85554000D02*
X162591000Y-78878200D01*
X162954900Y-85917900D02*
X162591000Y-85554000D01*
X164223600Y-85917900D02*
X162954900Y-85917900D01*
X165131400Y-85010100D02*
X164223600Y-85917900D01*
X165647400Y-85010100D02*
X165131400Y-85010100D01*
X166288400Y-85651100D02*
X165647400Y-85010100D01*
X166288400Y-88158600D02*
X166288400Y-85651100D01*
X98439100Y-95555000D02*
X98637300Y-95753200D01*
X93275200Y-95555000D02*
X98439100Y-95555000D01*
X90735200Y-98095000D02*
X93275200Y-95555000D01*
X88776000Y-98095000D02*
X90735200Y-98095000D01*
X120622700Y-95676900D02*
X120048700Y-95102900D01*
X124943500Y-95676900D02*
X120622700Y-95676900D01*
X131992400Y-88628000D02*
X124943500Y-95676900D01*
X135172100Y-88628000D02*
X131992400Y-88628000D01*
X160923000Y-89246100D02*
X160795400Y-89373700D01*
X162406500Y-89246100D02*
X160923000Y-89246100D01*
X163825800Y-87826800D02*
X162406500Y-89246100D01*
X164883000Y-87826800D02*
X163825800Y-87826800D01*
X88776000Y-95555000D02*
X90601300Y-95555000D01*
X144046200Y-96204100D02*
X146136500Y-94113800D01*
X130148400Y-96204100D02*
X144046200Y-96204100D01*
X126579600Y-99772900D02*
X130148400Y-96204100D01*
X109054000Y-99772900D02*
X126579600Y-99772900D01*
X104385800Y-95104700D02*
X109054000Y-99772900D01*
X91051600Y-95104700D02*
X104385800Y-95104700D01*
X90601300Y-95555000D02*
X91051600Y-95104700D01*
X144043600Y-95309500D02*
X146136900Y-93216200D01*
X130406100Y-95309500D02*
X144043600Y-95309500D01*
X126393000Y-99322600D02*
X130406100Y-95309500D01*
X109240600Y-99322600D02*
X126393000Y-99322600D01*
X102933000Y-93015000D02*
X109240600Y-99322600D01*
X88776000Y-93015000D02*
X102933000Y-93015000D01*
X153145800Y-84545700D02*
X153145800Y-85334900D01*
X149142400Y-80542300D02*
X153145800Y-84545700D01*
X148145300Y-80542300D02*
X149142400Y-80542300D01*
X148076900Y-80610700D02*
X148145300Y-80542300D01*
X88776000Y-77775000D02*
X90601300Y-77775000D01*
X91071100Y-76166800D02*
X91510000Y-76166800D01*
X90431300Y-76806600D02*
X91071100Y-76166800D01*
X90431300Y-77324600D02*
X90431300Y-76806600D01*
X90601300Y-77494600D02*
X90431300Y-77324600D01*
X90601300Y-77775000D02*
X90601300Y-77494600D01*
X91056600Y-79859700D02*
X91056600Y-77065600D01*
X90601300Y-80315000D02*
X91056600Y-79859700D01*
X154001700Y-83827900D02*
X154001700Y-87809400D01*
X148920800Y-78747000D02*
X154001700Y-83827900D01*
X148920800Y-75078000D02*
X148920800Y-78747000D01*
X147573800Y-73731000D02*
X148920800Y-75078000D01*
X133489100Y-73731000D02*
X147573800Y-73731000D01*
X133192200Y-74027900D02*
X133489100Y-73731000D01*
X88776000Y-80315000D02*
X90601300Y-80315000D01*
X95194000Y-82855000D02*
X95461200Y-82587800D01*
X88776000Y-82855000D02*
X95194000Y-82855000D01*
X159041200Y-88260400D02*
X158739000Y-88562600D01*
X159041200Y-84051800D02*
X159041200Y-88260400D01*
X154663500Y-79674100D02*
X159041200Y-84051800D01*
X154663500Y-75066000D02*
X154663500Y-79674100D01*
X152329200Y-72731700D02*
X154663500Y-75066000D01*
X126233400Y-72731700D02*
X152329200Y-72731700D01*
X120409000Y-78556100D02*
X126233400Y-72731700D01*
X120409000Y-82076300D02*
X120409000Y-78556100D01*
X119246300Y-83239000D02*
X120409000Y-82076300D01*
X144423200Y-85452200D02*
X148110000Y-89139000D01*
X144423200Y-85147700D02*
X144423200Y-85452200D01*
X122989400Y-84087300D02*
X121604100Y-85472600D01*
X141870900Y-111379600D02*
X138452800Y-111379600D01*
X143361600Y-112870300D02*
X141870900Y-111379600D01*
X145584600Y-118027800D02*
X145584600Y-106615000D01*
X146552100Y-118995300D02*
X145584600Y-118027800D01*
X161798000Y-123825000D02*
X160609100Y-123825000D01*
X151161300Y-86766000D02*
X150073400Y-85678100D01*
X151161300Y-88656100D02*
X151161300Y-86766000D01*
X152095900Y-89590700D02*
X151161300Y-88656100D01*
X152095900Y-97092600D02*
X152095900Y-89590700D01*
X151913600Y-97274900D02*
X152095900Y-97092600D01*
X151913600Y-107020200D02*
X151913600Y-97274900D01*
X151665300Y-107268500D02*
X151913600Y-107020200D01*
X151665300Y-114975600D02*
X151665300Y-107268500D01*
X160514700Y-123825000D02*
X151665300Y-114975600D01*
X160609100Y-123825000D02*
X160514700Y-123825000D01*
X164338000Y-123825000D02*
X163149100Y-123825000D01*
X149360100Y-88104900D02*
X149173400Y-87918200D01*
X149360100Y-90485700D02*
X149360100Y-88104900D01*
X149360200Y-90485700D02*
X149360100Y-90485700D01*
X150294700Y-91420200D02*
X149360200Y-90485700D01*
X150294700Y-96346200D02*
X150294700Y-91420200D01*
X150112400Y-96528500D02*
X150294700Y-96346200D01*
X150112400Y-105955600D02*
X150112400Y-96528500D01*
X149225200Y-106842800D02*
X150112400Y-105955600D01*
X149225200Y-108116500D02*
X149225200Y-106842800D01*
X148153800Y-109187900D02*
X149225200Y-108116500D01*
X148153800Y-112520500D02*
X148153800Y-109187900D01*
X160799700Y-125166400D02*
X148153800Y-112520500D01*
X162848000Y-125166400D02*
X160799700Y-125166400D01*
X163149100Y-124865300D02*
X162848000Y-125166400D01*
X163149100Y-123825000D02*
X163149100Y-124865300D01*
X166878000Y-123825000D02*
X165689100Y-123825000D01*
X164999900Y-99992100D02*
X156440900Y-91433100D01*
X165556600Y-99992100D02*
X164999900Y-99992100D01*
X165922800Y-100358300D02*
X165556600Y-99992100D01*
X165922800Y-114223900D02*
X165922800Y-100358300D01*
X165689100Y-114457600D02*
X165922800Y-114223900D01*
X165689100Y-123825000D02*
X165689100Y-114457600D01*
X169418000Y-123825000D02*
X168229100Y-123825000D01*
X166373100Y-100171700D02*
X158180400Y-91979000D01*
X166373100Y-120780100D02*
X166373100Y-100171700D01*
X168229100Y-122636100D02*
X166373100Y-120780100D01*
X168229100Y-123825000D02*
X168229100Y-122636100D01*
X134874000Y-75565000D02*
X134874000Y-76906300D01*
X143278600Y-86572000D02*
X143278600Y-89615000D01*
X134874000Y-78167400D02*
X143278600Y-86572000D01*
X134874000Y-76906300D02*
X134874000Y-78167400D01*
D27*
G36*
X176871000Y-74417606D02*
X176871000Y-85365000D01*
X176881006Y-85414410D01*
X176908197Y-85454803D01*
X179871000Y-88417606D01*
X179871000Y-121312394D01*
X176908197Y-124275197D01*
X176880334Y-124317211D01*
X176871000Y-124365000D01*
X176871000Y-126238000D01*
X175031502Y-126238000D01*
X176262601Y-125006902D01*
X176427347Y-124760340D01*
X176427348Y-124760339D01*
X176485200Y-124469500D01*
X176485200Y-122376700D01*
X176429902Y-122098699D01*
X176427348Y-122085860D01*
X176262601Y-121839299D01*
X176168312Y-121745010D01*
X176511567Y-121887542D01*
X177559834Y-121888457D01*
X178528658Y-121488147D01*
X179270542Y-120747557D01*
X179672542Y-119779433D01*
X179673457Y-118731166D01*
X179273147Y-117762342D01*
X178532557Y-117020458D01*
X177564433Y-116618458D01*
X176516166Y-116617543D01*
X175547342Y-117017853D01*
X174805458Y-117758443D01*
X174403458Y-118726567D01*
X174402543Y-119774834D01*
X174546473Y-120123171D01*
X171549600Y-117126298D01*
X171549600Y-97100802D01*
X173278778Y-98829980D01*
X173278738Y-98875467D01*
X173420783Y-99219243D01*
X173543100Y-99341774D01*
X173543100Y-103802537D01*
X173510908Y-103834673D01*
X173368262Y-104178201D01*
X173367938Y-104550167D01*
X173509983Y-104893943D01*
X173772773Y-105157192D01*
X174116301Y-105299838D01*
X174488267Y-105300162D01*
X174832043Y-105158117D01*
X175095292Y-104895327D01*
X175237938Y-104551799D01*
X175238262Y-104179833D01*
X175096217Y-103836057D01*
X175063100Y-103802882D01*
X175063100Y-99916102D01*
X175664962Y-100517964D01*
X175428729Y-100871511D01*
X175314655Y-101445000D01*
X175428729Y-102018489D01*
X175753585Y-102504670D01*
X176239766Y-102829526D01*
X176813255Y-102943600D01*
X177182745Y-102943600D01*
X177756234Y-102829526D01*
X178242415Y-102504670D01*
X178567271Y-102018489D01*
X178681345Y-101445000D01*
X178567271Y-100871511D01*
X178242415Y-100385330D01*
X177927634Y-100175000D01*
X178242415Y-99964670D01*
X178567271Y-99478489D01*
X178681345Y-98905000D01*
X178567271Y-98331511D01*
X178242415Y-97845330D01*
X178220220Y-97830500D01*
X178373698Y-97766927D01*
X178552327Y-97588299D01*
X178649000Y-97354910D01*
X178649000Y-96650750D01*
X178490250Y-96492000D01*
X177125000Y-96492000D01*
X177125000Y-96512000D01*
X176871000Y-96512000D01*
X176871000Y-96492000D01*
X176851000Y-96492000D01*
X176851000Y-96238000D01*
X176871000Y-96238000D01*
X176871000Y-95025150D01*
X177125000Y-95025150D01*
X177125000Y-96238000D01*
X178490250Y-96238000D01*
X178649000Y-96079250D01*
X178649000Y-95375090D01*
X178552327Y-95141701D01*
X178373698Y-94963073D01*
X178140309Y-94866400D01*
X177283750Y-94866400D01*
X177125000Y-95025150D01*
X176871000Y-95025150D01*
X176712250Y-94866400D01*
X175855691Y-94866400D01*
X175622302Y-94963073D01*
X175443673Y-95141701D01*
X175347000Y-95375090D01*
X175347000Y-95401405D01*
X175291117Y-95266157D01*
X175258000Y-95232982D01*
X175258000Y-93259600D01*
X175543443Y-93545542D01*
X176511567Y-93947542D01*
X177559834Y-93948457D01*
X178528658Y-93548147D01*
X179270542Y-92807557D01*
X179672542Y-91839433D01*
X179673457Y-90791166D01*
X179273147Y-89822342D01*
X178532557Y-89080458D01*
X177564433Y-88678458D01*
X176516166Y-88677543D01*
X175547342Y-89077853D01*
X175258000Y-89366690D01*
X175258000Y-77009648D01*
X175557670Y-76809415D01*
X175882526Y-76323234D01*
X175996600Y-75749745D01*
X175996600Y-75380255D01*
X175882526Y-74806766D01*
X175557670Y-74320585D01*
X175071489Y-73995729D01*
X174498000Y-73881655D01*
X173924511Y-73995729D01*
X173438330Y-74320585D01*
X173228000Y-74635366D01*
X173017670Y-74320585D01*
X172531489Y-73995729D01*
X171958000Y-73881655D01*
X171384511Y-73995729D01*
X170898330Y-74320585D01*
X170688000Y-74635366D01*
X170477670Y-74320585D01*
X169991489Y-73995729D01*
X169418000Y-73881655D01*
X168844511Y-73995729D01*
X168358330Y-74320585D01*
X168148000Y-74635366D01*
X167937670Y-74320585D01*
X167451489Y-73995729D01*
X166878000Y-73881655D01*
X166304511Y-73995729D01*
X165818330Y-74320585D01*
X165608000Y-74635366D01*
X165397670Y-74320585D01*
X164911489Y-73995729D01*
X164338000Y-73881655D01*
X163764511Y-73995729D01*
X163406768Y-74234766D01*
X161664002Y-72492000D01*
X174945394Y-72492000D01*
X176871000Y-74417606D01*
X176871000Y-74417606D01*
G37*
X176871000Y-74417606D02*
X176871000Y-85365000D01*
X176881006Y-85414410D01*
X176908197Y-85454803D01*
X179871000Y-88417606D01*
X179871000Y-121312394D01*
X176908197Y-124275197D01*
X176880334Y-124317211D01*
X176871000Y-124365000D01*
X176871000Y-126238000D01*
X175031502Y-126238000D01*
X176262601Y-125006902D01*
X176427347Y-124760340D01*
X176427348Y-124760339D01*
X176485200Y-124469500D01*
X176485200Y-122376700D01*
X176429902Y-122098699D01*
X176427348Y-122085860D01*
X176262601Y-121839299D01*
X176168312Y-121745010D01*
X176511567Y-121887542D01*
X177559834Y-121888457D01*
X178528658Y-121488147D01*
X179270542Y-120747557D01*
X179672542Y-119779433D01*
X179673457Y-118731166D01*
X179273147Y-117762342D01*
X178532557Y-117020458D01*
X177564433Y-116618458D01*
X176516166Y-116617543D01*
X175547342Y-117017853D01*
X174805458Y-117758443D01*
X174403458Y-118726567D01*
X174402543Y-119774834D01*
X174546473Y-120123171D01*
X171549600Y-117126298D01*
X171549600Y-97100802D01*
X173278778Y-98829980D01*
X173278738Y-98875467D01*
X173420783Y-99219243D01*
X173543100Y-99341774D01*
X173543100Y-103802537D01*
X173510908Y-103834673D01*
X173368262Y-104178201D01*
X173367938Y-104550167D01*
X173509983Y-104893943D01*
X173772773Y-105157192D01*
X174116301Y-105299838D01*
X174488267Y-105300162D01*
X174832043Y-105158117D01*
X175095292Y-104895327D01*
X175237938Y-104551799D01*
X175238262Y-104179833D01*
X175096217Y-103836057D01*
X175063100Y-103802882D01*
X175063100Y-99916102D01*
X175664962Y-100517964D01*
X175428729Y-100871511D01*
X175314655Y-101445000D01*
X175428729Y-102018489D01*
X175753585Y-102504670D01*
X176239766Y-102829526D01*
X176813255Y-102943600D01*
X177182745Y-102943600D01*
X177756234Y-102829526D01*
X178242415Y-102504670D01*
X178567271Y-102018489D01*
X178681345Y-101445000D01*
X178567271Y-100871511D01*
X178242415Y-100385330D01*
X177927634Y-100175000D01*
X178242415Y-99964670D01*
X178567271Y-99478489D01*
X178681345Y-98905000D01*
X178567271Y-98331511D01*
X178242415Y-97845330D01*
X178220220Y-97830500D01*
X178373698Y-97766927D01*
X178552327Y-97588299D01*
X178649000Y-97354910D01*
X178649000Y-96650750D01*
X178490250Y-96492000D01*
X177125000Y-96492000D01*
X177125000Y-96512000D01*
X176871000Y-96512000D01*
X176871000Y-96492000D01*
X176851000Y-96492000D01*
X176851000Y-96238000D01*
X176871000Y-96238000D01*
X176871000Y-95025150D01*
X177125000Y-95025150D01*
X177125000Y-96238000D01*
X178490250Y-96238000D01*
X178649000Y-96079250D01*
X178649000Y-95375090D01*
X178552327Y-95141701D01*
X178373698Y-94963073D01*
X178140309Y-94866400D01*
X177283750Y-94866400D01*
X177125000Y-95025150D01*
X176871000Y-95025150D01*
X176712250Y-94866400D01*
X175855691Y-94866400D01*
X175622302Y-94963073D01*
X175443673Y-95141701D01*
X175347000Y-95375090D01*
X175347000Y-95401405D01*
X175291117Y-95266157D01*
X175258000Y-95232982D01*
X175258000Y-93259600D01*
X175543443Y-93545542D01*
X176511567Y-93947542D01*
X177559834Y-93948457D01*
X178528658Y-93548147D01*
X179270542Y-92807557D01*
X179672542Y-91839433D01*
X179673457Y-90791166D01*
X179273147Y-89822342D01*
X178532557Y-89080458D01*
X177564433Y-88678458D01*
X176516166Y-88677543D01*
X175547342Y-89077853D01*
X175258000Y-89366690D01*
X175258000Y-77009648D01*
X175557670Y-76809415D01*
X175882526Y-76323234D01*
X175996600Y-75749745D01*
X175996600Y-75380255D01*
X175882526Y-74806766D01*
X175557670Y-74320585D01*
X175071489Y-73995729D01*
X174498000Y-73881655D01*
X173924511Y-73995729D01*
X173438330Y-74320585D01*
X173228000Y-74635366D01*
X173017670Y-74320585D01*
X172531489Y-73995729D01*
X171958000Y-73881655D01*
X171384511Y-73995729D01*
X170898330Y-74320585D01*
X170688000Y-74635366D01*
X170477670Y-74320585D01*
X169991489Y-73995729D01*
X169418000Y-73881655D01*
X168844511Y-73995729D01*
X168358330Y-74320585D01*
X168148000Y-74635366D01*
X167937670Y-74320585D01*
X167451489Y-73995729D01*
X166878000Y-73881655D01*
X166304511Y-73995729D01*
X165818330Y-74320585D01*
X165608000Y-74635366D01*
X165397670Y-74320585D01*
X164911489Y-73995729D01*
X164338000Y-73881655D01*
X163764511Y-73995729D01*
X163406768Y-74234766D01*
X161664002Y-72492000D01*
X174945394Y-72492000D01*
X176871000Y-74417606D01*
G36*
X98277832Y-122504522D02*
X98404366Y-122675460D01*
X99370100Y-122675460D01*
X99370100Y-122655460D01*
X99624100Y-122655460D01*
X99624100Y-122675460D01*
X100589834Y-122675460D01*
X100716368Y-122504522D01*
X100621670Y-122311800D01*
X103372530Y-122311800D01*
X103277832Y-122504522D01*
X103404366Y-122675460D01*
X104370100Y-122675460D01*
X104370100Y-122655460D01*
X104624100Y-122655460D01*
X104624100Y-122675460D01*
X105589834Y-122675460D01*
X105716368Y-122504522D01*
X105621670Y-122311800D01*
X116659184Y-122311800D01*
X116542708Y-122428073D01*
X116400062Y-122771601D01*
X116399738Y-123143567D01*
X116541783Y-123487343D01*
X116574900Y-123520518D01*
X116574900Y-123644000D01*
X116632752Y-123934839D01*
X116797499Y-124181401D01*
X118854098Y-126238000D01*
X106526073Y-126238000D01*
X106632100Y-125904460D01*
X106632100Y-125629460D01*
X105624100Y-125629460D01*
X105624100Y-125649460D01*
X105370100Y-125649460D01*
X105370100Y-125629460D01*
X104362100Y-125629460D01*
X104362100Y-125904460D01*
X104468127Y-126238000D01*
X99526073Y-126238000D01*
X99632100Y-125904460D01*
X99632100Y-125629460D01*
X98624100Y-125629460D01*
X98624100Y-125649460D01*
X98370100Y-125649460D01*
X98370100Y-125629460D01*
X97362100Y-125629460D01*
X97362100Y-125904460D01*
X97468127Y-126238000D01*
X88125000Y-126238000D01*
X88125000Y-125100460D01*
X97362100Y-125100460D01*
X97362100Y-125375460D01*
X98370100Y-125375460D01*
X98370100Y-124259506D01*
X98624100Y-124259506D01*
X98624100Y-125375460D01*
X99632100Y-125375460D01*
X99632100Y-125100460D01*
X104362100Y-125100460D01*
X104362100Y-125375460D01*
X105370100Y-125375460D01*
X105370100Y-124259506D01*
X105624100Y-124259506D01*
X105624100Y-125375460D01*
X106632100Y-125375460D01*
X106632100Y-125100460D01*
X106497102Y-124675782D01*
X106209863Y-124335092D01*
X105798974Y-124133341D01*
X105624100Y-124259506D01*
X105370100Y-124259506D01*
X105195226Y-124133341D01*
X104784337Y-124335092D01*
X104497098Y-124675782D01*
X104362100Y-125100460D01*
X99632100Y-125100460D01*
X99497102Y-124675782D01*
X99209863Y-124335092D01*
X98798974Y-124133341D01*
X98624100Y-124259506D01*
X98370100Y-124259506D01*
X98195226Y-124133341D01*
X97784337Y-124335092D01*
X97497098Y-124675782D01*
X97362100Y-125100460D01*
X88125000Y-125100460D01*
X88125000Y-124904440D01*
X90276000Y-124904440D01*
X90511317Y-124860162D01*
X90727441Y-124721090D01*
X90872431Y-124508890D01*
X90923440Y-124257000D01*
X90923440Y-124255000D01*
X93044400Y-124255000D01*
X93335239Y-124197148D01*
X93581801Y-124032401D01*
X94513804Y-123100398D01*
X98277832Y-123100398D01*
X98461548Y-123474281D01*
X98786051Y-123762028D01*
X99195969Y-123903689D01*
X99370100Y-123755023D01*
X99370100Y-122929460D01*
X99624100Y-122929460D01*
X99624100Y-123755023D01*
X99798231Y-123903689D01*
X100208149Y-123762028D01*
X100532652Y-123474281D01*
X100716368Y-123100398D01*
X103277832Y-123100398D01*
X103461548Y-123474281D01*
X103786051Y-123762028D01*
X104195969Y-123903689D01*
X104370100Y-123755023D01*
X104370100Y-122929460D01*
X104624100Y-122929460D01*
X104624100Y-123755023D01*
X104798231Y-123903689D01*
X105208149Y-123762028D01*
X105532652Y-123474281D01*
X105716368Y-123100398D01*
X105589834Y-122929460D01*
X104624100Y-122929460D01*
X104370100Y-122929460D01*
X103404366Y-122929460D01*
X103277832Y-123100398D01*
X100716368Y-123100398D01*
X100589834Y-122929460D01*
X99624100Y-122929460D01*
X99370100Y-122929460D01*
X98404366Y-122929460D01*
X98277832Y-123100398D01*
X94513804Y-123100398D01*
X95302402Y-122311800D01*
X98372530Y-122311800D01*
X98277832Y-122504522D01*
X98277832Y-122504522D01*
G37*
X98277832Y-122504522D02*
X98404366Y-122675460D01*
X99370100Y-122675460D01*
X99370100Y-122655460D01*
X99624100Y-122655460D01*
X99624100Y-122675460D01*
X100589834Y-122675460D01*
X100716368Y-122504522D01*
X100621670Y-122311800D01*
X103372530Y-122311800D01*
X103277832Y-122504522D01*
X103404366Y-122675460D01*
X104370100Y-122675460D01*
X104370100Y-122655460D01*
X104624100Y-122655460D01*
X104624100Y-122675460D01*
X105589834Y-122675460D01*
X105716368Y-122504522D01*
X105621670Y-122311800D01*
X116659184Y-122311800D01*
X116542708Y-122428073D01*
X116400062Y-122771601D01*
X116399738Y-123143567D01*
X116541783Y-123487343D01*
X116574900Y-123520518D01*
X116574900Y-123644000D01*
X116632752Y-123934839D01*
X116797499Y-124181401D01*
X118854098Y-126238000D01*
X106526073Y-126238000D01*
X106632100Y-125904460D01*
X106632100Y-125629460D01*
X105624100Y-125629460D01*
X105624100Y-125649460D01*
X105370100Y-125649460D01*
X105370100Y-125629460D01*
X104362100Y-125629460D01*
X104362100Y-125904460D01*
X104468127Y-126238000D01*
X99526073Y-126238000D01*
X99632100Y-125904460D01*
X99632100Y-125629460D01*
X98624100Y-125629460D01*
X98624100Y-125649460D01*
X98370100Y-125649460D01*
X98370100Y-125629460D01*
X97362100Y-125629460D01*
X97362100Y-125904460D01*
X97468127Y-126238000D01*
X88125000Y-126238000D01*
X88125000Y-125100460D01*
X97362100Y-125100460D01*
X97362100Y-125375460D01*
X98370100Y-125375460D01*
X98370100Y-124259506D01*
X98624100Y-124259506D01*
X98624100Y-125375460D01*
X99632100Y-125375460D01*
X99632100Y-125100460D01*
X104362100Y-125100460D01*
X104362100Y-125375460D01*
X105370100Y-125375460D01*
X105370100Y-124259506D01*
X105624100Y-124259506D01*
X105624100Y-125375460D01*
X106632100Y-125375460D01*
X106632100Y-125100460D01*
X106497102Y-124675782D01*
X106209863Y-124335092D01*
X105798974Y-124133341D01*
X105624100Y-124259506D01*
X105370100Y-124259506D01*
X105195226Y-124133341D01*
X104784337Y-124335092D01*
X104497098Y-124675782D01*
X104362100Y-125100460D01*
X99632100Y-125100460D01*
X99497102Y-124675782D01*
X99209863Y-124335092D01*
X98798974Y-124133341D01*
X98624100Y-124259506D01*
X98370100Y-124259506D01*
X98195226Y-124133341D01*
X97784337Y-124335092D01*
X97497098Y-124675782D01*
X97362100Y-125100460D01*
X88125000Y-125100460D01*
X88125000Y-124904440D01*
X90276000Y-124904440D01*
X90511317Y-124860162D01*
X90727441Y-124721090D01*
X90872431Y-124508890D01*
X90923440Y-124257000D01*
X90923440Y-124255000D01*
X93044400Y-124255000D01*
X93335239Y-124197148D01*
X93581801Y-124032401D01*
X94513804Y-123100398D01*
X98277832Y-123100398D01*
X98461548Y-123474281D01*
X98786051Y-123762028D01*
X99195969Y-123903689D01*
X99370100Y-123755023D01*
X99370100Y-122929460D01*
X99624100Y-122929460D01*
X99624100Y-123755023D01*
X99798231Y-123903689D01*
X100208149Y-123762028D01*
X100532652Y-123474281D01*
X100716368Y-123100398D01*
X103277832Y-123100398D01*
X103461548Y-123474281D01*
X103786051Y-123762028D01*
X104195969Y-123903689D01*
X104370100Y-123755023D01*
X104370100Y-122929460D01*
X104624100Y-122929460D01*
X104624100Y-123755023D01*
X104798231Y-123903689D01*
X105208149Y-123762028D01*
X105532652Y-123474281D01*
X105716368Y-123100398D01*
X105589834Y-122929460D01*
X104624100Y-122929460D01*
X104370100Y-122929460D01*
X103404366Y-122929460D01*
X103277832Y-123100398D01*
X100716368Y-123100398D01*
X100589834Y-122929460D01*
X99624100Y-122929460D01*
X99370100Y-122929460D01*
X98404366Y-122929460D01*
X98277832Y-123100398D01*
X94513804Y-123100398D01*
X95302402Y-122311800D01*
X98372530Y-122311800D01*
X98277832Y-122504522D01*
G36*
X146513501Y-109176338D02*
X146885467Y-109176662D01*
X146943100Y-109152849D01*
X146943100Y-112723400D01*
X147000952Y-113014239D01*
X147165699Y-113260801D01*
X156157953Y-122253055D01*
X156144511Y-122255729D01*
X155658330Y-122580585D01*
X155451539Y-122890069D01*
X155080036Y-122474268D01*
X154552791Y-122220291D01*
X154537026Y-122217642D01*
X154305000Y-122338783D01*
X154305000Y-123698000D01*
X154325000Y-123698000D01*
X154325000Y-123952000D01*
X154305000Y-123952000D01*
X154305000Y-125311217D01*
X154537026Y-125432358D01*
X154552791Y-125429709D01*
X155080036Y-125175732D01*
X155451539Y-124759931D01*
X155658330Y-125069415D01*
X156144511Y-125394271D01*
X156718000Y-125508345D01*
X157291489Y-125394271D01*
X157777670Y-125069415D01*
X158102526Y-124583234D01*
X158166502Y-124261604D01*
X159858698Y-125953800D01*
X147395002Y-125953800D01*
X148182833Y-125165969D01*
X148524511Y-125394271D01*
X149098000Y-125508345D01*
X149671489Y-125394271D01*
X150157670Y-125069415D01*
X150364461Y-124759931D01*
X150735964Y-125175732D01*
X151263209Y-125429709D01*
X151278974Y-125432358D01*
X151511000Y-125311217D01*
X151511000Y-123952000D01*
X151765000Y-123952000D01*
X151765000Y-125311217D01*
X151997026Y-125432358D01*
X152012791Y-125429709D01*
X152540036Y-125175732D01*
X152908000Y-124763892D01*
X153275964Y-125175732D01*
X153803209Y-125429709D01*
X153818974Y-125432358D01*
X154051000Y-125311217D01*
X154051000Y-123952000D01*
X151765000Y-123952000D01*
X151511000Y-123952000D01*
X151491000Y-123952000D01*
X151491000Y-123698000D01*
X151511000Y-123698000D01*
X151511000Y-122338783D01*
X151765000Y-122338783D01*
X151765000Y-123698000D01*
X154051000Y-123698000D01*
X154051000Y-122338783D01*
X153818974Y-122217642D01*
X153803209Y-122220291D01*
X153275964Y-122474268D01*
X152908000Y-122886108D01*
X152540036Y-122474268D01*
X152012791Y-122220291D01*
X151997026Y-122217642D01*
X151765000Y-122338783D01*
X151511000Y-122338783D01*
X151278974Y-122217642D01*
X151263209Y-122220291D01*
X150735964Y-122474268D01*
X150364461Y-122890069D01*
X150157670Y-122580585D01*
X149671489Y-122255729D01*
X149098000Y-122141655D01*
X148524511Y-122255729D01*
X148296010Y-122408408D01*
X145719200Y-119831598D01*
X145719200Y-119427961D01*
X145758983Y-119524243D01*
X146021773Y-119787492D01*
X146365301Y-119930138D01*
X146737267Y-119930462D01*
X147081043Y-119788417D01*
X147344292Y-119525627D01*
X147486938Y-119182099D01*
X147487262Y-118810133D01*
X147345217Y-118466357D01*
X147082427Y-118203108D01*
X146738899Y-118060462D01*
X146692023Y-118060421D01*
X146344600Y-117712998D01*
X146344600Y-109106204D01*
X146513501Y-109176338D01*
X146513501Y-109176338D01*
G37*
X146513501Y-109176338D02*
X146885467Y-109176662D01*
X146943100Y-109152849D01*
X146943100Y-112723400D01*
X147000952Y-113014239D01*
X147165699Y-113260801D01*
X156157953Y-122253055D01*
X156144511Y-122255729D01*
X155658330Y-122580585D01*
X155451539Y-122890069D01*
X155080036Y-122474268D01*
X154552791Y-122220291D01*
X154537026Y-122217642D01*
X154305000Y-122338783D01*
X154305000Y-123698000D01*
X154325000Y-123698000D01*
X154325000Y-123952000D01*
X154305000Y-123952000D01*
X154305000Y-125311217D01*
X154537026Y-125432358D01*
X154552791Y-125429709D01*
X155080036Y-125175732D01*
X155451539Y-124759931D01*
X155658330Y-125069415D01*
X156144511Y-125394271D01*
X156718000Y-125508345D01*
X157291489Y-125394271D01*
X157777670Y-125069415D01*
X158102526Y-124583234D01*
X158166502Y-124261604D01*
X159858698Y-125953800D01*
X147395002Y-125953800D01*
X148182833Y-125165969D01*
X148524511Y-125394271D01*
X149098000Y-125508345D01*
X149671489Y-125394271D01*
X150157670Y-125069415D01*
X150364461Y-124759931D01*
X150735964Y-125175732D01*
X151263209Y-125429709D01*
X151278974Y-125432358D01*
X151511000Y-125311217D01*
X151511000Y-123952000D01*
X151765000Y-123952000D01*
X151765000Y-125311217D01*
X151997026Y-125432358D01*
X152012791Y-125429709D01*
X152540036Y-125175732D01*
X152908000Y-124763892D01*
X153275964Y-125175732D01*
X153803209Y-125429709D01*
X153818974Y-125432358D01*
X154051000Y-125311217D01*
X154051000Y-123952000D01*
X151765000Y-123952000D01*
X151511000Y-123952000D01*
X151491000Y-123952000D01*
X151491000Y-123698000D01*
X151511000Y-123698000D01*
X151511000Y-122338783D01*
X151765000Y-122338783D01*
X151765000Y-123698000D01*
X154051000Y-123698000D01*
X154051000Y-122338783D01*
X153818974Y-122217642D01*
X153803209Y-122220291D01*
X153275964Y-122474268D01*
X152908000Y-122886108D01*
X152540036Y-122474268D01*
X152012791Y-122220291D01*
X151997026Y-122217642D01*
X151765000Y-122338783D01*
X151511000Y-122338783D01*
X151278974Y-122217642D01*
X151263209Y-122220291D01*
X150735964Y-122474268D01*
X150364461Y-122890069D01*
X150157670Y-122580585D01*
X149671489Y-122255729D01*
X149098000Y-122141655D01*
X148524511Y-122255729D01*
X148296010Y-122408408D01*
X145719200Y-119831598D01*
X145719200Y-119427961D01*
X145758983Y-119524243D01*
X146021773Y-119787492D01*
X146365301Y-119930138D01*
X146737267Y-119930462D01*
X147081043Y-119788417D01*
X147344292Y-119525627D01*
X147486938Y-119182099D01*
X147487262Y-118810133D01*
X147345217Y-118466357D01*
X147082427Y-118203108D01*
X146738899Y-118060462D01*
X146692023Y-118060421D01*
X146344600Y-117712998D01*
X146344600Y-109106204D01*
X146513501Y-109176338D01*
G36*
X123737262Y-120688201D02*
X123736938Y-121060167D01*
X123878983Y-121403943D01*
X124141773Y-121667192D01*
X124330230Y-121745447D01*
X123477342Y-122097853D01*
X122735458Y-122838443D01*
X122333458Y-123806567D01*
X122332543Y-124854834D01*
X122732853Y-125823658D01*
X122862768Y-125953800D01*
X120719502Y-125953800D01*
X120644064Y-125878362D01*
X120871958Y-125783965D01*
X120970557Y-125517163D01*
X119998000Y-124544605D01*
X119983858Y-124558748D01*
X119804252Y-124379142D01*
X119818395Y-124365000D01*
X120177605Y-124365000D01*
X121150163Y-125337557D01*
X121416965Y-125238958D01*
X121643401Y-124629418D01*
X121619341Y-123979623D01*
X121416965Y-123491042D01*
X121150163Y-123392443D01*
X120177605Y-124365000D01*
X119818395Y-124365000D01*
X118845837Y-123392443D01*
X118579035Y-123491042D01*
X118491738Y-123726036D01*
X118164453Y-123398751D01*
X118241651Y-123212837D01*
X119025443Y-123212837D01*
X119998000Y-124185395D01*
X120970557Y-123212837D01*
X120871958Y-122946035D01*
X120262418Y-122719599D01*
X119612623Y-122743659D01*
X119124042Y-122946035D01*
X119025443Y-123212837D01*
X118241651Y-123212837D01*
X118269738Y-123145199D01*
X118270062Y-122773233D01*
X118128017Y-122429457D01*
X118010565Y-122311800D01*
X121790100Y-122311800D01*
X122080939Y-122253948D01*
X122327501Y-122089201D01*
X123743483Y-120673219D01*
X123737262Y-120688201D01*
X123737262Y-120688201D01*
G37*
X123737262Y-120688201D02*
X123736938Y-121060167D01*
X123878983Y-121403943D01*
X124141773Y-121667192D01*
X124330230Y-121745447D01*
X123477342Y-122097853D01*
X122735458Y-122838443D01*
X122333458Y-123806567D01*
X122332543Y-124854834D01*
X122732853Y-125823658D01*
X122862768Y-125953800D01*
X120719502Y-125953800D01*
X120644064Y-125878362D01*
X120871958Y-125783965D01*
X120970557Y-125517163D01*
X119998000Y-124544605D01*
X119983858Y-124558748D01*
X119804252Y-124379142D01*
X119818395Y-124365000D01*
X120177605Y-124365000D01*
X121150163Y-125337557D01*
X121416965Y-125238958D01*
X121643401Y-124629418D01*
X121619341Y-123979623D01*
X121416965Y-123491042D01*
X121150163Y-123392443D01*
X120177605Y-124365000D01*
X119818395Y-124365000D01*
X118845837Y-123392443D01*
X118579035Y-123491042D01*
X118491738Y-123726036D01*
X118164453Y-123398751D01*
X118241651Y-123212837D01*
X119025443Y-123212837D01*
X119998000Y-124185395D01*
X120970557Y-123212837D01*
X120871958Y-122946035D01*
X120262418Y-122719599D01*
X119612623Y-122743659D01*
X119124042Y-122946035D01*
X119025443Y-123212837D01*
X118241651Y-123212837D01*
X118269738Y-123145199D01*
X118270062Y-122773233D01*
X118128017Y-122429457D01*
X118010565Y-122311800D01*
X121790100Y-122311800D01*
X122080939Y-122253948D01*
X122327501Y-122089201D01*
X123743483Y-120673219D01*
X123737262Y-120688201D01*
G36*
X93464383Y-96728643D02*
X93652009Y-96916596D01*
X93720099Y-97018501D01*
X97912499Y-101210901D01*
X98159061Y-101375648D01*
X98449900Y-101433500D01*
X98589628Y-101433500D01*
X98543042Y-101545974D01*
X98664183Y-101778000D01*
X99871000Y-101778000D01*
X99871000Y-101758000D01*
X100125000Y-101758000D01*
X100125000Y-101778000D01*
X102411000Y-101778000D01*
X102411000Y-101758000D01*
X102665000Y-101758000D01*
X102665000Y-101778000D01*
X103871817Y-101778000D01*
X103992958Y-101545974D01*
X103946372Y-101433500D01*
X129850520Y-101433500D01*
X129824539Y-101459436D01*
X129613241Y-101968298D01*
X129612760Y-102519285D01*
X129651978Y-102614200D01*
X104649416Y-102614200D01*
X104418427Y-102382808D01*
X104074899Y-102240162D01*
X103980456Y-102240080D01*
X103871817Y-102032000D01*
X102665000Y-102032000D01*
X102665000Y-102052000D01*
X102411000Y-102052000D01*
X102411000Y-102032000D01*
X100125000Y-102032000D01*
X100125000Y-102052000D01*
X99871000Y-102052000D01*
X99871000Y-102032000D01*
X98664183Y-102032000D01*
X98543042Y-102264026D01*
X98715312Y-102679947D01*
X99109510Y-103111821D01*
X99232228Y-103169336D01*
X98908971Y-103385330D01*
X98584115Y-103871511D01*
X98470041Y-104445000D01*
X98584115Y-105018489D01*
X98687289Y-105172900D01*
X96425313Y-105172900D01*
X96425362Y-105116933D01*
X96283317Y-104773157D01*
X96020527Y-104509908D01*
X95676999Y-104367262D01*
X95630123Y-104367221D01*
X91360501Y-100097599D01*
X91113939Y-99932852D01*
X90923440Y-99894959D01*
X90923440Y-99873000D01*
X90879162Y-99637683D01*
X90740090Y-99421559D01*
X90658230Y-99365626D01*
X90727441Y-99321090D01*
X90872431Y-99108890D01*
X90923440Y-98857000D01*
X90923440Y-98817556D01*
X91026039Y-98797148D01*
X91272601Y-98632401D01*
X93380170Y-96524832D01*
X93464383Y-96728643D01*
X93464383Y-96728643D01*
G37*
X93464383Y-96728643D02*
X93652009Y-96916596D01*
X93720099Y-97018501D01*
X97912499Y-101210901D01*
X98159061Y-101375648D01*
X98449900Y-101433500D01*
X98589628Y-101433500D01*
X98543042Y-101545974D01*
X98664183Y-101778000D01*
X99871000Y-101778000D01*
X99871000Y-101758000D01*
X100125000Y-101758000D01*
X100125000Y-101778000D01*
X102411000Y-101778000D01*
X102411000Y-101758000D01*
X102665000Y-101758000D01*
X102665000Y-101778000D01*
X103871817Y-101778000D01*
X103992958Y-101545974D01*
X103946372Y-101433500D01*
X129850520Y-101433500D01*
X129824539Y-101459436D01*
X129613241Y-101968298D01*
X129612760Y-102519285D01*
X129651978Y-102614200D01*
X104649416Y-102614200D01*
X104418427Y-102382808D01*
X104074899Y-102240162D01*
X103980456Y-102240080D01*
X103871817Y-102032000D01*
X102665000Y-102032000D01*
X102665000Y-102052000D01*
X102411000Y-102052000D01*
X102411000Y-102032000D01*
X100125000Y-102032000D01*
X100125000Y-102052000D01*
X99871000Y-102052000D01*
X99871000Y-102032000D01*
X98664183Y-102032000D01*
X98543042Y-102264026D01*
X98715312Y-102679947D01*
X99109510Y-103111821D01*
X99232228Y-103169336D01*
X98908971Y-103385330D01*
X98584115Y-103871511D01*
X98470041Y-104445000D01*
X98584115Y-105018489D01*
X98687289Y-105172900D01*
X96425313Y-105172900D01*
X96425362Y-105116933D01*
X96283317Y-104773157D01*
X96020527Y-104509908D01*
X95676999Y-104367262D01*
X95630123Y-104367221D01*
X91360501Y-100097599D01*
X91113939Y-99932852D01*
X90923440Y-99894959D01*
X90923440Y-99873000D01*
X90879162Y-99637683D01*
X90740090Y-99421559D01*
X90658230Y-99365626D01*
X90727441Y-99321090D01*
X90872431Y-99108890D01*
X90923440Y-98857000D01*
X90923440Y-98817556D01*
X91026039Y-98797148D01*
X91272601Y-98632401D01*
X93380170Y-96524832D01*
X93464383Y-96728643D01*
G36*
X114125000Y-80238000D02*
X114145000Y-80238000D01*
X114145000Y-80492000D01*
X114125000Y-80492000D01*
X114125000Y-81857250D01*
X114283750Y-82016000D01*
X114987910Y-82016000D01*
X115221299Y-81919327D01*
X115399927Y-81740698D01*
X115463500Y-81587220D01*
X115478330Y-81609415D01*
X115964511Y-81934271D01*
X116538000Y-82048345D01*
X116967000Y-81963012D01*
X116967000Y-83895298D01*
X115511120Y-85351178D01*
X115465633Y-85351138D01*
X115121857Y-85493183D01*
X114858608Y-85755973D01*
X114715962Y-86099501D01*
X114715638Y-86471467D01*
X114857683Y-86815243D01*
X115120473Y-87078492D01*
X115464001Y-87221138D01*
X115835967Y-87221462D01*
X116179743Y-87079417D01*
X116442992Y-86816627D01*
X116585638Y-86473099D01*
X116585679Y-86426223D01*
X117354135Y-85657767D01*
X120668938Y-85657767D01*
X120810983Y-86001543D01*
X121073773Y-86264792D01*
X121417301Y-86407438D01*
X121789267Y-86407762D01*
X122133043Y-86265717D01*
X122396292Y-86002927D01*
X122538938Y-85659399D01*
X122538979Y-85612523D01*
X123129080Y-85022422D01*
X123174567Y-85022462D01*
X123518343Y-84880417D01*
X123781592Y-84617627D01*
X123924238Y-84274099D01*
X123924562Y-83902133D01*
X123782517Y-83558357D01*
X123519727Y-83295108D01*
X123176199Y-83152462D01*
X122804233Y-83152138D01*
X122460457Y-83294183D01*
X122197208Y-83556973D01*
X122054562Y-83900501D01*
X122054521Y-83947377D01*
X121464420Y-84537478D01*
X121418933Y-84537438D01*
X121075157Y-84679483D01*
X120811908Y-84942273D01*
X120669262Y-85285801D01*
X120668938Y-85657767D01*
X117354135Y-85657767D01*
X118264401Y-84747501D01*
X118429148Y-84500940D01*
X118487000Y-84210100D01*
X118487000Y-83801819D01*
X118715973Y-84031192D01*
X119059501Y-84173838D01*
X119431467Y-84174162D01*
X119775243Y-84032117D01*
X120038492Y-83769327D01*
X120181138Y-83425799D01*
X120181179Y-83378923D01*
X120946401Y-82613701D01*
X121111148Y-82367139D01*
X121169000Y-82076300D01*
X121169000Y-81959033D01*
X121618000Y-82048345D01*
X122191489Y-81934271D01*
X122677670Y-81609415D01*
X122797370Y-81430272D01*
X128230100Y-86863002D01*
X128230100Y-89341037D01*
X128197908Y-89373173D01*
X128055262Y-89716701D01*
X128054938Y-90088667D01*
X128196983Y-90432443D01*
X128274951Y-90510547D01*
X125661440Y-93124058D01*
X125661440Y-92349000D01*
X125617162Y-92113683D01*
X125478090Y-91897559D01*
X125315052Y-91786160D01*
X125404385Y-91689818D01*
X125603975Y-91207944D01*
X125484836Y-90952000D01*
X124125000Y-90952000D01*
X124125000Y-90972000D01*
X123871000Y-90972000D01*
X123871000Y-90952000D01*
X122511164Y-90952000D01*
X122392025Y-91207944D01*
X122591615Y-91689818D01*
X122682097Y-91787398D01*
X122530559Y-91884910D01*
X122385569Y-92097110D01*
X122334560Y-92349000D01*
X122334560Y-94381000D01*
X122378838Y-94616317D01*
X122456682Y-94737289D01*
X122419762Y-94826201D01*
X122419683Y-94916900D01*
X120983518Y-94916900D01*
X120841817Y-94573957D01*
X120579027Y-94310708D01*
X120235499Y-94168062D01*
X119863533Y-94167738D01*
X119661440Y-94251241D01*
X119661440Y-92349000D01*
X119617162Y-92113683D01*
X119478090Y-91897559D01*
X119315052Y-91786160D01*
X119404385Y-91689818D01*
X119603975Y-91207944D01*
X119484836Y-90952000D01*
X118125000Y-90952000D01*
X118125000Y-90972000D01*
X117871000Y-90972000D01*
X117871000Y-90952000D01*
X116511164Y-90952000D01*
X116392025Y-91207944D01*
X116591615Y-91689818D01*
X116682097Y-91787398D01*
X116530559Y-91884910D01*
X116385569Y-92097110D01*
X116334560Y-92349000D01*
X116334560Y-93122158D01*
X115601874Y-92389472D01*
X115602162Y-92058933D01*
X115460117Y-91715157D01*
X115197327Y-91451908D01*
X114853799Y-91309262D01*
X114481833Y-91308938D01*
X114138057Y-91450983D01*
X114082222Y-91506720D01*
X113537100Y-90961598D01*
X113537100Y-90442056D01*
X116392025Y-90442056D01*
X116511164Y-90698000D01*
X117871000Y-90698000D01*
X117871000Y-89337633D01*
X118125000Y-89337633D01*
X118125000Y-90698000D01*
X119484836Y-90698000D01*
X119603975Y-90442056D01*
X122392025Y-90442056D01*
X122511164Y-90698000D01*
X123871000Y-90698000D01*
X123871000Y-89337633D01*
X124125000Y-89337633D01*
X124125000Y-90698000D01*
X125484836Y-90698000D01*
X125603975Y-90442056D01*
X125404385Y-89960182D01*
X124966379Y-89487812D01*
X124380946Y-89219017D01*
X124125000Y-89337633D01*
X123871000Y-89337633D01*
X123615054Y-89219017D01*
X123029621Y-89487812D01*
X122591615Y-89960182D01*
X122392025Y-90442056D01*
X119603975Y-90442056D01*
X119404385Y-89960182D01*
X118966379Y-89487812D01*
X118380946Y-89219017D01*
X118125000Y-89337633D01*
X117871000Y-89337633D01*
X117615054Y-89219017D01*
X117029621Y-89487812D01*
X116591615Y-89960182D01*
X116392025Y-90442056D01*
X113537100Y-90442056D01*
X113537100Y-82016000D01*
X113712250Y-82016000D01*
X113871000Y-81857250D01*
X113871000Y-80492000D01*
X113851000Y-80492000D01*
X113851000Y-80238000D01*
X113871000Y-80238000D01*
X113871000Y-80218000D01*
X114125000Y-80218000D01*
X114125000Y-80238000D01*
X114125000Y-80238000D01*
G37*
X114125000Y-80238000D02*
X114145000Y-80238000D01*
X114145000Y-80492000D01*
X114125000Y-80492000D01*
X114125000Y-81857250D01*
X114283750Y-82016000D01*
X114987910Y-82016000D01*
X115221299Y-81919327D01*
X115399927Y-81740698D01*
X115463500Y-81587220D01*
X115478330Y-81609415D01*
X115964511Y-81934271D01*
X116538000Y-82048345D01*
X116967000Y-81963012D01*
X116967000Y-83895298D01*
X115511120Y-85351178D01*
X115465633Y-85351138D01*
X115121857Y-85493183D01*
X114858608Y-85755973D01*
X114715962Y-86099501D01*
X114715638Y-86471467D01*
X114857683Y-86815243D01*
X115120473Y-87078492D01*
X115464001Y-87221138D01*
X115835967Y-87221462D01*
X116179743Y-87079417D01*
X116442992Y-86816627D01*
X116585638Y-86473099D01*
X116585679Y-86426223D01*
X117354135Y-85657767D01*
X120668938Y-85657767D01*
X120810983Y-86001543D01*
X121073773Y-86264792D01*
X121417301Y-86407438D01*
X121789267Y-86407762D01*
X122133043Y-86265717D01*
X122396292Y-86002927D01*
X122538938Y-85659399D01*
X122538979Y-85612523D01*
X123129080Y-85022422D01*
X123174567Y-85022462D01*
X123518343Y-84880417D01*
X123781592Y-84617627D01*
X123924238Y-84274099D01*
X123924562Y-83902133D01*
X123782517Y-83558357D01*
X123519727Y-83295108D01*
X123176199Y-83152462D01*
X122804233Y-83152138D01*
X122460457Y-83294183D01*
X122197208Y-83556973D01*
X122054562Y-83900501D01*
X122054521Y-83947377D01*
X121464420Y-84537478D01*
X121418933Y-84537438D01*
X121075157Y-84679483D01*
X120811908Y-84942273D01*
X120669262Y-85285801D01*
X120668938Y-85657767D01*
X117354135Y-85657767D01*
X118264401Y-84747501D01*
X118429148Y-84500940D01*
X118487000Y-84210100D01*
X118487000Y-83801819D01*
X118715973Y-84031192D01*
X119059501Y-84173838D01*
X119431467Y-84174162D01*
X119775243Y-84032117D01*
X120038492Y-83769327D01*
X120181138Y-83425799D01*
X120181179Y-83378923D01*
X120946401Y-82613701D01*
X121111148Y-82367139D01*
X121169000Y-82076300D01*
X121169000Y-81959033D01*
X121618000Y-82048345D01*
X122191489Y-81934271D01*
X122677670Y-81609415D01*
X122797370Y-81430272D01*
X128230100Y-86863002D01*
X128230100Y-89341037D01*
X128197908Y-89373173D01*
X128055262Y-89716701D01*
X128054938Y-90088667D01*
X128196983Y-90432443D01*
X128274951Y-90510547D01*
X125661440Y-93124058D01*
X125661440Y-92349000D01*
X125617162Y-92113683D01*
X125478090Y-91897559D01*
X125315052Y-91786160D01*
X125404385Y-91689818D01*
X125603975Y-91207944D01*
X125484836Y-90952000D01*
X124125000Y-90952000D01*
X124125000Y-90972000D01*
X123871000Y-90972000D01*
X123871000Y-90952000D01*
X122511164Y-90952000D01*
X122392025Y-91207944D01*
X122591615Y-91689818D01*
X122682097Y-91787398D01*
X122530559Y-91884910D01*
X122385569Y-92097110D01*
X122334560Y-92349000D01*
X122334560Y-94381000D01*
X122378838Y-94616317D01*
X122456682Y-94737289D01*
X122419762Y-94826201D01*
X122419683Y-94916900D01*
X120983518Y-94916900D01*
X120841817Y-94573957D01*
X120579027Y-94310708D01*
X120235499Y-94168062D01*
X119863533Y-94167738D01*
X119661440Y-94251241D01*
X119661440Y-92349000D01*
X119617162Y-92113683D01*
X119478090Y-91897559D01*
X119315052Y-91786160D01*
X119404385Y-91689818D01*
X119603975Y-91207944D01*
X119484836Y-90952000D01*
X118125000Y-90952000D01*
X118125000Y-90972000D01*
X117871000Y-90972000D01*
X117871000Y-90952000D01*
X116511164Y-90952000D01*
X116392025Y-91207944D01*
X116591615Y-91689818D01*
X116682097Y-91787398D01*
X116530559Y-91884910D01*
X116385569Y-92097110D01*
X116334560Y-92349000D01*
X116334560Y-93122158D01*
X115601874Y-92389472D01*
X115602162Y-92058933D01*
X115460117Y-91715157D01*
X115197327Y-91451908D01*
X114853799Y-91309262D01*
X114481833Y-91308938D01*
X114138057Y-91450983D01*
X114082222Y-91506720D01*
X113537100Y-90961598D01*
X113537100Y-90442056D01*
X116392025Y-90442056D01*
X116511164Y-90698000D01*
X117871000Y-90698000D01*
X117871000Y-89337633D01*
X118125000Y-89337633D01*
X118125000Y-90698000D01*
X119484836Y-90698000D01*
X119603975Y-90442056D01*
X122392025Y-90442056D01*
X122511164Y-90698000D01*
X123871000Y-90698000D01*
X123871000Y-89337633D01*
X124125000Y-89337633D01*
X124125000Y-90698000D01*
X125484836Y-90698000D01*
X125603975Y-90442056D01*
X125404385Y-89960182D01*
X124966379Y-89487812D01*
X124380946Y-89219017D01*
X124125000Y-89337633D01*
X123871000Y-89337633D01*
X123615054Y-89219017D01*
X123029621Y-89487812D01*
X122591615Y-89960182D01*
X122392025Y-90442056D01*
X119603975Y-90442056D01*
X119404385Y-89960182D01*
X118966379Y-89487812D01*
X118380946Y-89219017D01*
X118125000Y-89337633D01*
X117871000Y-89337633D01*
X117615054Y-89219017D01*
X117029621Y-89487812D01*
X116591615Y-89960182D01*
X116392025Y-90442056D01*
X113537100Y-90442056D01*
X113537100Y-82016000D01*
X113712250Y-82016000D01*
X113871000Y-81857250D01*
X113871000Y-80492000D01*
X113851000Y-80492000D01*
X113851000Y-80238000D01*
X113871000Y-80238000D01*
X113871000Y-80218000D01*
X114125000Y-80218000D01*
X114125000Y-80238000D01*
G36*
X170898330Y-76809415D02*
X171221709Y-77025490D01*
X171255852Y-77197139D01*
X171420599Y-77443701D01*
X172033500Y-78056602D01*
X172033500Y-79844282D01*
X171983033Y-79844238D01*
X171639257Y-79986283D01*
X171376008Y-80249073D01*
X171233362Y-80592601D01*
X171233038Y-80964567D01*
X171375083Y-81308343D01*
X171408200Y-81341518D01*
X171408200Y-90495598D01*
X170569420Y-91334378D01*
X170523933Y-91334338D01*
X170180157Y-91476383D01*
X169916908Y-91739173D01*
X169774262Y-92082701D01*
X169773938Y-92454667D01*
X169915983Y-92798443D01*
X170178773Y-93061692D01*
X170522301Y-93204338D01*
X170894267Y-93204662D01*
X171238043Y-93062617D01*
X171501292Y-92799827D01*
X171643938Y-92456299D01*
X171643979Y-92409423D01*
X172033500Y-92019902D01*
X172033500Y-93464698D01*
X171643198Y-93855000D01*
X171613963Y-93855000D01*
X171581827Y-93822808D01*
X171238299Y-93680162D01*
X170866333Y-93679838D01*
X170522557Y-93821883D01*
X170345517Y-93998615D01*
X169316600Y-92969698D01*
X169316600Y-91677463D01*
X169348792Y-91645327D01*
X169491438Y-91301799D01*
X169491762Y-90929833D01*
X169349717Y-90586057D01*
X169086927Y-90322808D01*
X168743399Y-90180162D01*
X168371433Y-90179838D01*
X168027657Y-90321883D01*
X167994482Y-90355000D01*
X163312116Y-90355000D01*
X163639043Y-90219917D01*
X163902292Y-89957127D01*
X164044938Y-89613599D01*
X164045262Y-89241633D01*
X163903217Y-88897857D01*
X163866413Y-88860989D01*
X164140602Y-88586800D01*
X164320537Y-88586800D01*
X164352673Y-88618992D01*
X164696201Y-88761638D01*
X165068167Y-88761962D01*
X165411943Y-88619917D01*
X165451163Y-88580765D01*
X165495283Y-88687543D01*
X165758073Y-88950792D01*
X166101601Y-89093438D01*
X166473567Y-89093762D01*
X166817343Y-88951717D01*
X167080592Y-88688927D01*
X167223238Y-88345399D01*
X167223562Y-87973433D01*
X167081517Y-87629657D01*
X167048400Y-87596482D01*
X167048400Y-85651100D01*
X166990548Y-85360261D01*
X166825801Y-85113699D01*
X166184801Y-84472699D01*
X165938239Y-84307952D01*
X165647400Y-84250100D01*
X165365202Y-84250100D01*
X168766501Y-80848801D01*
X168931248Y-80602240D01*
X168989100Y-80311400D01*
X168989100Y-77163032D01*
X169418000Y-77248345D01*
X169991489Y-77134271D01*
X170477670Y-76809415D01*
X170688000Y-76494634D01*
X170898330Y-76809415D01*
X170898330Y-76809415D01*
G37*
X170898330Y-76809415D02*
X171221709Y-77025490D01*
X171255852Y-77197139D01*
X171420599Y-77443701D01*
X172033500Y-78056602D01*
X172033500Y-79844282D01*
X171983033Y-79844238D01*
X171639257Y-79986283D01*
X171376008Y-80249073D01*
X171233362Y-80592601D01*
X171233038Y-80964567D01*
X171375083Y-81308343D01*
X171408200Y-81341518D01*
X171408200Y-90495598D01*
X170569420Y-91334378D01*
X170523933Y-91334338D01*
X170180157Y-91476383D01*
X169916908Y-91739173D01*
X169774262Y-92082701D01*
X169773938Y-92454667D01*
X169915983Y-92798443D01*
X170178773Y-93061692D01*
X170522301Y-93204338D01*
X170894267Y-93204662D01*
X171238043Y-93062617D01*
X171501292Y-92799827D01*
X171643938Y-92456299D01*
X171643979Y-92409423D01*
X172033500Y-92019902D01*
X172033500Y-93464698D01*
X171643198Y-93855000D01*
X171613963Y-93855000D01*
X171581827Y-93822808D01*
X171238299Y-93680162D01*
X170866333Y-93679838D01*
X170522557Y-93821883D01*
X170345517Y-93998615D01*
X169316600Y-92969698D01*
X169316600Y-91677463D01*
X169348792Y-91645327D01*
X169491438Y-91301799D01*
X169491762Y-90929833D01*
X169349717Y-90586057D01*
X169086927Y-90322808D01*
X168743399Y-90180162D01*
X168371433Y-90179838D01*
X168027657Y-90321883D01*
X167994482Y-90355000D01*
X163312116Y-90355000D01*
X163639043Y-90219917D01*
X163902292Y-89957127D01*
X164044938Y-89613599D01*
X164045262Y-89241633D01*
X163903217Y-88897857D01*
X163866413Y-88860989D01*
X164140602Y-88586800D01*
X164320537Y-88586800D01*
X164352673Y-88618992D01*
X164696201Y-88761638D01*
X165068167Y-88761962D01*
X165411943Y-88619917D01*
X165451163Y-88580765D01*
X165495283Y-88687543D01*
X165758073Y-88950792D01*
X166101601Y-89093438D01*
X166473567Y-89093762D01*
X166817343Y-88951717D01*
X167080592Y-88688927D01*
X167223238Y-88345399D01*
X167223562Y-87973433D01*
X167081517Y-87629657D01*
X167048400Y-87596482D01*
X167048400Y-85651100D01*
X166990548Y-85360261D01*
X166825801Y-85113699D01*
X166184801Y-84472699D01*
X165938239Y-84307952D01*
X165647400Y-84250100D01*
X165365202Y-84250100D01*
X168766501Y-80848801D01*
X168931248Y-80602240D01*
X168989100Y-80311400D01*
X168989100Y-77163032D01*
X169418000Y-77248345D01*
X169991489Y-77134271D01*
X170477670Y-76809415D01*
X170688000Y-76494634D01*
X170898330Y-76809415D01*
G36*
X133814330Y-76809415D02*
X134114000Y-77009648D01*
X134114000Y-78167400D01*
X134171852Y-78458239D01*
X134336599Y-78704801D01*
X142518600Y-86886802D01*
X142518600Y-89052537D01*
X142486408Y-89084673D01*
X142343762Y-89428201D01*
X142343499Y-89729900D01*
X131965302Y-89729900D01*
X132307202Y-89388000D01*
X134609637Y-89388000D01*
X134641773Y-89420192D01*
X134985301Y-89562838D01*
X135357267Y-89563162D01*
X135701043Y-89421117D01*
X135964292Y-89158327D01*
X136106938Y-88814799D01*
X136107262Y-88442833D01*
X135965217Y-88099057D01*
X135702427Y-87835808D01*
X135358899Y-87693162D01*
X134986933Y-87692838D01*
X134643157Y-87834883D01*
X134609982Y-87868000D01*
X131992400Y-87868000D01*
X131701561Y-87925852D01*
X131454999Y-88090599D01*
X130686700Y-88858898D01*
X130686700Y-77222964D01*
X130892917Y-77184162D01*
X131109041Y-77045090D01*
X131254031Y-76832890D01*
X131262400Y-76791561D01*
X131274330Y-76809415D01*
X131760511Y-77134271D01*
X132334000Y-77248345D01*
X132907489Y-77134271D01*
X133393670Y-76809415D01*
X133604000Y-76494634D01*
X133814330Y-76809415D01*
X133814330Y-76809415D01*
G37*
X133814330Y-76809415D02*
X134114000Y-77009648D01*
X134114000Y-78167400D01*
X134171852Y-78458239D01*
X134336599Y-78704801D01*
X142518600Y-86886802D01*
X142518600Y-89052537D01*
X142486408Y-89084673D01*
X142343762Y-89428201D01*
X142343499Y-89729900D01*
X131965302Y-89729900D01*
X132307202Y-89388000D01*
X134609637Y-89388000D01*
X134641773Y-89420192D01*
X134985301Y-89562838D01*
X135357267Y-89563162D01*
X135701043Y-89421117D01*
X135964292Y-89158327D01*
X136106938Y-88814799D01*
X136107262Y-88442833D01*
X135965217Y-88099057D01*
X135702427Y-87835808D01*
X135358899Y-87693162D01*
X134986933Y-87692838D01*
X134643157Y-87834883D01*
X134609982Y-87868000D01*
X131992400Y-87868000D01*
X131701561Y-87925852D01*
X131454999Y-88090599D01*
X130686700Y-88858898D01*
X130686700Y-77222964D01*
X130892917Y-77184162D01*
X131109041Y-77045090D01*
X131254031Y-76832890D01*
X131262400Y-76791561D01*
X131274330Y-76809415D01*
X131760511Y-77134271D01*
X132334000Y-77248345D01*
X132907489Y-77134271D01*
X133393670Y-76809415D01*
X133604000Y-76494634D01*
X133814330Y-76809415D01*
G36*
X137541000Y-75438000D02*
X137561000Y-75438000D01*
X137561000Y-75692000D01*
X137541000Y-75692000D01*
X137541000Y-77051217D01*
X137773026Y-77172358D01*
X137788791Y-77169709D01*
X137924000Y-77104578D01*
X137924000Y-77272700D01*
X137981852Y-77563539D01*
X138146599Y-77810101D01*
X144549307Y-84212809D01*
X144238033Y-84212538D01*
X143894257Y-84354583D01*
X143631008Y-84617373D01*
X143488362Y-84960901D01*
X143488296Y-85036494D01*
X141001526Y-82549724D01*
X141001762Y-82278733D01*
X140859717Y-81934957D01*
X140596927Y-81671708D01*
X140253399Y-81529062D01*
X139881433Y-81528738D01*
X139537657Y-81670783D01*
X139494884Y-81713482D01*
X135634000Y-77852598D01*
X135634000Y-77009648D01*
X135933670Y-76809415D01*
X136140461Y-76499931D01*
X136511964Y-76915732D01*
X137039209Y-77169709D01*
X137054974Y-77172358D01*
X137287000Y-77051217D01*
X137287000Y-75692000D01*
X137267000Y-75692000D01*
X137267000Y-75438000D01*
X137287000Y-75438000D01*
X137287000Y-75418000D01*
X137541000Y-75418000D01*
X137541000Y-75438000D01*
X137541000Y-75438000D01*
G37*
X137541000Y-75438000D02*
X137561000Y-75438000D01*
X137561000Y-75692000D01*
X137541000Y-75692000D01*
X137541000Y-77051217D01*
X137773026Y-77172358D01*
X137788791Y-77169709D01*
X137924000Y-77104578D01*
X137924000Y-77272700D01*
X137981852Y-77563539D01*
X138146599Y-77810101D01*
X144549307Y-84212809D01*
X144238033Y-84212538D01*
X143894257Y-84354583D01*
X143631008Y-84617373D01*
X143488362Y-84960901D01*
X143488296Y-85036494D01*
X141001526Y-82549724D01*
X141001762Y-82278733D01*
X140859717Y-81934957D01*
X140596927Y-81671708D01*
X140253399Y-81529062D01*
X139881433Y-81528738D01*
X139537657Y-81670783D01*
X139494884Y-81713482D01*
X135634000Y-77852598D01*
X135634000Y-77009648D01*
X135933670Y-76809415D01*
X136140461Y-76499931D01*
X136511964Y-76915732D01*
X137039209Y-77169709D01*
X137054974Y-77172358D01*
X137287000Y-77051217D01*
X137287000Y-75692000D01*
X137267000Y-75692000D01*
X137267000Y-75438000D01*
X137287000Y-75438000D01*
X137287000Y-75418000D01*
X137541000Y-75418000D01*
X137541000Y-75438000D01*
M02*
